<?xml version="1.0" encoding="UTF-8"?>
<svg width="2988px" height="1252px" viewBox="0 0 2988 1252" version="1.1" xmlns="http://www.w3.org/2000/svg" xmlns:xlink="http://www.w3.org/1999/xlink">
    <!-- Generator: Sketch 59 (86127) - https://sketch.com -->
    <title>Artboard</title>
    <desc>Created with Sketch.</desc>
    <defs>
        <path d="M76.4565217,834.040007 C75.5988099,834.040007 74.6696361,834.020177 73.6689723,833.980517 C72.6683086,833.940856 71.6676598,833.881367 70.666996,833.802046 C69.6663323,833.722726 68.6758942,833.623577 67.6956522,833.504596 C66.7154101,833.385615 65.8168684,833.226976 65,833.028675 L65,793.051338 C65.8168684,792.853037 66.7154101,792.694398 67.6956522,792.575417 C68.6758942,792.456437 69.6663323,792.357288 70.666996,792.277967 C71.6676598,792.198646 72.6580979,792.139157 73.6383399,792.099497 C74.618582,792.059836 75.5375451,792.040007 76.3952569,792.040007 C78.8458621,792.040007 81.1432699,792.218475 83.2875494,792.575417 C85.4318289,792.93236 87.2901766,793.53717 88.8626482,794.389865 C90.4351199,795.242561 91.6706147,796.362946 92.56917,797.751055 C93.4677252,799.139164 93.916996,800.844529 93.916996,802.867202 C93.916996,805.127837 93.3656182,806.981926 92.2628458,808.429525 C91.1600735,809.877124 89.6897325,810.95785 87.8517787,811.671735 C90.3432272,812.385619 92.3241033,813.51592 93.7944664,815.06267 C95.2648295,816.60942 96,818.790701 96,821.606579 C96,825.731245 94.4377627,828.834614 91.3132411,830.916777 C88.1887196,832.998941 83.2365293,834.040007 76.4565217,834.040007 Z M71,814.040007 L71,828.798071 L71.7354836,828.858555 L71.7354836,828.858555 L72.5935484,828.919039 C73.1247338,828.959362 73.7478459,828.989603 74.4629032,829.009765 L76.2613896,829.038117 C76.4822901,829.039377 76.7102139,829.040007 76.9451613,829.040007 C78.7021593,829.040007 80.3671964,828.929121 81.9403226,828.707345 C83.5134487,828.48557 84.8924672,828.092429 86.0774194,827.52791 C87.2623715,826.963391 88.212362,826.177108 88.9274194,825.169039 C89.6424767,824.160969 90,822.890821 90,821.358555 C90,819.98758 89.7344113,818.828318 89.2032258,817.880732 C88.6720404,816.933147 87.905919,816.177106 86.9048387,815.612587 C85.9037584,815.048068 84.7086091,814.644847 83.3193548,814.40291 C81.9301006,814.160973 80.3774279,814.040007 78.6612903,814.040007 L71,814.040007 Z M71,810.040007 L77.2826087,810.040007 C78.760877,810.040007 80.1569983,809.940619 81.4710145,809.741842 C82.7850307,809.543064 83.9245121,809.185269 84.8894928,808.668447 C85.8544734,808.151625 86.6141277,807.475791 87.1684783,806.640924 C87.7228289,805.806058 88,804.752551 88,803.480374 C88,802.287707 87.7125633,801.283895 87.1376812,800.468906 C86.5627991,799.653917 85.772348,798.99796 84.7663043,798.501016 C83.7602607,798.004071 82.5797169,797.636338 81.2246377,797.397805 C79.8695584,797.159272 78.4323747,797.040007 76.9130435,797.040007 L75.140637,797.05096 C74.4333527,797.060696 73.8333358,797.076922 73.3405797,797.09964 C72.4782566,797.139395 71.6980711,797.199028 71,797.278539 L71,810.040007 Z M111,834.040007 L105,834.040007 L105,803.040007 L111,803.040007 L111,834.040007 Z M108.5,797.040007 C107.527773,797.040007 106.701392,796.724436 106.020833,796.093285 C105.340274,795.462135 105,794.61105 105,793.540007 C105,792.468963 105.340274,791.617879 106.020833,790.986728 C106.701392,790.355577 107.527773,790.040007 108.5,790.040007 C109.472227,790.040007 110.298608,790.355577 110.979167,790.986728 C111.659726,791.617879 112,792.468963 112,793.540007 C112,794.61105 111.659726,795.462135 110.979167,796.093285 C110.298608,796.724436 109.472227,797.040007 108.5,797.040007 Z M129.651226,830.25652 C131.929167,830.25652 133.617615,829.953771 134.716621,829.348264 C135.815628,828.742756 136.365123,827.773958 136.365123,826.441842 C136.365123,825.069358 135.825618,823.97946 134.746594,823.172117 C133.765663,822.438168 132.206764,821.620828 130.069857,820.720074 L129.411444,820.447346 C128.212528,819.96294 127.063584,819.46845 125.964578,818.96386 C124.865571,818.45927 123.916444,817.863863 123.117166,817.177621 C122.317889,816.491379 121.678477,815.663865 121.19891,814.695053 C120.719344,813.72624 120.479564,812.535427 120.479564,811.122575 C120.479564,808.33724 121.498627,806.127171 123.536785,804.4923 C125.574942,802.85743 128.352389,802.040007 131.86921,802.040007 C132.748415,802.040007 133.627607,802.090465 134.506812,802.191383 C135.386017,802.292301 136.205264,802.4134 136.964578,802.554686 C137.534063,802.660649 138.052963,802.772289 138.521287,802.889605 L138.972752,803.008814 C139.552228,803.170283 140.001815,803.311566 140.321526,803.432667 L139.302452,808.276704 C138.702994,807.953767 137.763857,807.620742 136.485014,807.277621 C135.20617,806.9345 133.667584,806.762942 131.86921,806.762942 C130.310619,806.762942 128.951868,807.075783 127.792916,807.701475 C126.633963,808.327166 126.054496,809.306055 126.054496,810.638172 C126.054496,811.324414 126.184377,811.929912 126.444142,812.454686 C126.703907,812.979459 127.10354,813.453766 127.643052,813.877621 C128.182564,814.301477 128.851949,814.695051 129.651226,815.058355 C130.450504,815.42166 131.409622,815.805142 132.52861,816.208814 C134.007274,816.773954 135.326061,817.328995 136.485014,817.873952 C137.643966,818.418908 138.633057,819.054682 139.452316,819.781291 C140.271575,820.5079 140.900997,821.385873 141.340599,822.415236 C141.780202,823.444599 142,824.706054 142,826.19964 C142,829.106076 140.930983,831.306054 138.792916,832.79964 C136.654849,834.293225 133.607649,835.040007 129.651226,835.040007 C126.893719,835.040007 124.735703,834.807899 123.177112,834.343676 L122.21206,834.050641 C121.172511,833.727954 120.435162,833.472424 120,833.284043 L121.019074,828.440007 L123.569566,829.35394 C123.732543,829.410706 123.901452,829.469364 124.076294,829.529915 C125.47503,830.014321 127.333322,830.25652 129.651226,830.25652 Z M173,818.540007 C173,814.84863 172.104487,812.009152 170.313433,810.021488 C168.522379,808.033824 166.134343,807.040007 163.149254,807.040007 L161.964549,807.051415 C160.848878,807.074233 159.940302,807.131276 159.238806,807.222546 C158.303478,807.34424 157.557217,807.486214 157,807.648472 L157,827.606144 C157.67662,828.174048 158.651735,828.721662 159.925373,829.249001 C161.199011,829.776341 162.592032,830.040007 164.104478,830.040007 C165.696525,830.040007 167.059696,829.745918 168.19403,829.157732 C169.328364,828.569545 170.253728,827.758266 170.970149,826.723869 C171.686571,825.689472 172.203979,824.472553 172.522388,823.073075 C172.840798,821.673598 173,820.16259 173,818.540007 Z M179,818.375202 C179,820.737411 178.684137,822.919419 178.052402,824.921292 C177.420666,826.923164 176.493456,828.644748 175.270742,830.086096 C174.048029,831.527444 172.550227,832.648476 170.777293,833.449225 C169.004358,834.249973 166.976722,834.650342 164.694323,834.650342 C162.860253,834.650342 161.240182,834.410121 159.834061,833.929671 C158.427941,833.449222 157.378461,832.988798 156.68559,832.548387 L156.68559,845.040007 L151,845.040007 L151,803.661515 C152.344985,803.341215 154.026191,802.990893 156.043668,802.610537 C158.061145,802.230182 160.394455,802.040007 163.043668,802.040007 C165.489095,802.040007 167.689947,802.420357 169.646288,803.181068 C171.60263,803.94178 173.273647,805.022774 174.659389,806.424085 C176.045131,807.825395 177.114989,809.53697 177.868996,811.558861 C178.623002,813.580752 179,815.852843 179,818.375202 Z M188,818.630832 C188,815.845497 188.396472,813.413412 189.189427,811.334502 C189.982383,809.255593 191.033033,807.529922 192.34141,806.157438 C193.649786,804.784954 195.156379,803.755606 196.861233,803.069364 C198.566088,802.383123 200.310564,802.040007 202.094714,802.040007 C206.25773,802.040007 209.449328,803.362012 211.669604,806.006062 C213.889879,808.650112 215,812.676677 215,818.085878 L215,819.02441 C215,819.407898 214.980176,819.761106 214.940529,820.084043 L193.768722,820.084043 C194.006609,823.353784 194.938318,825.836328 196.563877,827.53175 C198.189435,829.227171 200.726855,830.074869 204.176211,830.074869 C206.118952,830.074869 207.754399,829.903311 209.082599,829.56019 C210.4108,829.217069 211.411891,828.884045 212.085903,828.561108 L212.859031,833.284043 C212.185019,833.647348 211.005515,834.03083 209.320485,834.434502 C207.635454,834.838174 205.722478,835.040007 203.581498,835.040007 C200.885449,835.040007 198.556177,834.626249 196.593612,833.798722 C194.631047,832.971195 193.015425,831.83084 191.746696,830.377621 C190.477967,828.924403 189.536347,827.198732 188.921806,825.200557 C188.307266,823.202382 188,821.012496 188,818.630832 Z M208.998149,815.040007 C209.039488,812.414994 208.388407,810.258765 207.044887,808.571257 C205.701366,806.883748 203.851469,806.040007 201.495141,806.040007 C200.17229,806.040007 199.004478,806.300421 197.991671,806.821257 C196.978863,807.342093 196.121089,808.019169 195.418325,808.852507 C194.71556,809.685844 194.167825,810.644168 193.775104,811.727507 C193.382383,812.810845 193.124017,813.915001 193,815.040007 L208.998149,815.040007 Z M238.532995,835.040007 C235.974606,835.040007 233.730974,834.636341 231.80203,833.828997 C229.873087,833.021654 228.248738,831.89139 226.928934,830.438172 C225.60913,828.984954 224.624369,827.259283 223.974619,825.261108 C223.32487,823.262932 223,821.052863 223,818.630832 C223,816.208802 223.355326,813.988641 224.06599,811.970282 C224.776653,809.951923 225.781719,808.206069 227.081218,806.732667 C228.380717,805.259265 229.97461,804.108818 231.862944,803.281291 C233.751278,802.453764 235.85278,802.040007 238.167513,802.040007 C239.58884,802.040007 241.010145,802.161106 242.431472,802.403309 C243.852799,802.645512 245.213191,803.028995 246.51269,803.553768 L245.233503,808.337254 C244.380706,807.933583 243.395945,807.61065 242.279188,807.368447 C241.162431,807.126244 239.974626,807.005144 238.715736,807.005144 C235.548208,807.005144 233.121836,807.994125 231.436548,809.972117 C229.751261,811.950108 228.908629,814.836318 228.908629,818.630832 C228.908629,820.326254 229.101521,821.880367 229.48731,823.293218 C229.873098,824.706069 230.482229,825.917066 231.314721,826.926245 C232.147212,827.935425 233.213191,828.712481 234.51269,829.257438 C235.812189,829.802395 237.39593,830.074869 239.263959,830.074869 C240.766505,830.074869 242.126897,829.933586 243.345178,829.651016 C244.563458,829.368446 245.517763,829.065696 246.208122,828.742759 L247,833.465695 C246.675125,833.667531 246.208125,833.859272 245.598985,834.040924 C244.989845,834.222576 244.299496,834.384043 243.527919,834.525328 C242.756341,834.666613 241.934015,834.787713 241.060914,834.888631 C240.187813,834.989548 239.345182,835.040007 238.532995,835.040007 Z M261,834.040007 L255,834.040007 L255,803.040007 L261,803.040007 L261,834.040007 Z M257.5,797.040007 C256.527773,797.040007 255.701392,796.724436 255.020833,796.093285 C254.340274,795.462135 254,794.61105 254,793.540007 C254,792.468963 254.340274,791.617879 255.020833,790.986728 C255.701392,790.355577 256.527773,790.040007 257.5,790.040007 C258.472227,790.040007 259.298608,790.355577 259.979167,790.986728 C260.659726,791.617879 261,792.468963 261,793.540007 C261,794.61105 260.659726,795.462135 259.979167,796.093285 C259.298608,796.724436 258.472227,797.040007 257.5,797.040007 Z M284.220736,787.040007 C285.625425,787.040007 286.829426,787.130856 287.832776,787.312558 L288.623987,787.46583 C289.225993,787.591496 289.684662,787.712011 290,787.827378 L289.217391,792.672739 C288.775918,792.511226 288.173917,792.339621 287.411371,792.157919 C286.648826,791.976217 285.725758,791.885367 284.64214,791.885367 C282.033432,791.885367 280.207363,792.60207 279.16388,794.035496 C278.120396,795.468923 277.598662,797.396953 277.598662,799.819646 L277.598662,802.545161 L289.638796,802.545161 L289.638796,807.269388 L277.598662,807.269388 L277.598662,834.040007 L272,834.040007 L272,799.698512 C272,795.660691 272.983268,792.541521 274.949833,790.340909 C276.916398,788.140296 280.006668,787.040007 284.220736,787.040007 Z M301,834.040007 L295,834.040007 L295,803.040007 L301,803.040007 L301,834.040007 Z M298.5,797.040007 C297.527773,797.040007 296.701392,796.724436 296.020833,796.093285 C295.340274,795.462135 295,794.61105 295,793.540007 C295,792.468963 295.340274,791.617879 296.020833,790.986728 C296.701392,790.355577 297.527773,790.040007 298.5,790.040007 C299.472227,790.040007 300.298608,790.355577 300.979167,790.986728 C301.659726,791.617879 302,792.468963 302,793.540007 C302,794.61105 301.659726,795.462135 300.979167,796.093285 C300.298608,796.724436 299.472227,797.040007 298.5,797.040007 Z M326.532995,835.040007 C323.974606,835.040007 321.730974,834.636341 319.80203,833.828997 C317.873087,833.021654 316.248738,831.89139 314.928934,830.438172 C313.60913,828.984954 312.624369,827.259283 311.974619,825.261108 C311.32487,823.262932 311,821.052863 311,818.630832 C311,816.208802 311.355326,813.988641 312.06599,811.970282 C312.776653,809.951923 313.781719,808.206069 315.081218,806.732667 C316.380717,805.259265 317.97461,804.108818 319.862944,803.281291 C321.751278,802.453764 323.85278,802.040007 326.167513,802.040007 C327.58884,802.040007 329.010145,802.161106 330.431472,802.403309 C331.852799,802.645512 333.213191,803.028995 334.51269,803.553768 L333.233503,808.337254 C332.380706,807.933583 331.395945,807.61065 330.279188,807.368447 C329.162431,807.126244 327.974626,807.005144 326.715736,807.005144 C323.548208,807.005144 321.121836,807.994125 319.436548,809.972117 C317.751261,811.950108 316.908629,814.836318 316.908629,818.630832 C316.908629,820.326254 317.101521,821.880367 317.48731,823.293218 C317.873098,824.706069 318.482229,825.917066 319.314721,826.926245 C320.147212,827.935425 321.213191,828.712481 322.51269,829.257438 C323.812189,829.802395 325.39593,830.074869 327.263959,830.074869 C328.766505,830.074869 330.126897,829.933586 331.345178,829.651016 C332.563458,829.368446 333.517763,829.065696 334.208122,828.742759 L335,833.465695 C334.675125,833.667531 334.208125,833.859272 333.598985,834.040924 C332.989845,834.222576 332.299496,834.384043 331.527919,834.525328 C330.756341,834.666613 329.934015,834.787713 329.060914,834.888631 C328.187813,834.989548 327.345182,835.040007 326.532995,835.040007 Z M387.61051,834.040007 C386.927354,832.221816 386.284393,830.433955 385.681607,828.67637 C385.078822,826.918786 384.455954,825.130925 383.812983,823.312734 L364.885626,823.312734 L361.088099,834.040007 L355,834.040007 L357.657161,826.747491 C358.083618,825.586496 358.501875,824.452711 358.911931,823.346134 L359.520866,821.706673 C360.927364,817.928877 362.303703,814.343054 363.649923,810.949098 C364.996143,807.555141 366.332296,804.312749 367.658423,801.221825 C368.984551,798.1309 370.370936,795.070325 371.81762,792.040007 L377.18238,792.040007 C378.629064,795.070325 380.015449,798.1309 381.341577,801.221825 C382.667704,804.312749 384.003857,807.555141 385.350077,810.949098 C386.427053,813.664263 387.523305,816.502222 388.638854,819.463031 L389.479134,821.706673 C390.885633,825.48447 392.392573,829.59554 394,834.040007 L387.61051,834.040007 Z M382,818.040007 C380.676996,814.470758 379.364348,811.014382 378.062016,807.670776 C376.759683,804.327169 375.405692,801.116945 374,798.040007 C372.552964,801.116945 371.178301,804.327169 369.875969,807.670776 C368.573637,811.014382 367.28166,814.470758 366,818.040007 L382,818.040007 Z M401,803.606862 C402.269848,803.285454 403.956339,802.943963 406.059524,802.58238 C408.162709,802.220796 410.58332,802.040007 413.321429,802.040007 C415.781758,802.040007 417.825389,802.391541 419.452381,803.094621 C421.079373,803.7977 422.378963,804.781997 423.35119,806.04754 C424.323418,807.313083 425.007935,808.829703 425.404762,810.597445 C425.801589,812.365188 426,814.313693 426,816.44302 L426,834.040007 L420.464286,834.040007 L420.464286,817.648293 C420.464286,815.719846 420.335319,814.072656 420.077381,812.706673 C419.819443,811.34069 419.39286,810.235868 418.797619,809.392172 C418.202378,808.548477 417.408735,807.935803 416.416667,807.554131 C415.424598,807.172459 414.194452,806.981626 412.72619,806.981626 C412.130949,806.981626 411.515876,807.001714 410.880952,807.04189 C410.246029,807.082066 409.640876,807.132285 409.065476,807.192549 C408.681876,807.232725 408.324735,807.277365 407.994048,807.326468 L406.670238,807.557747 C406.620238,807.567389 406.575397,807.576228 406.535714,807.584263 L406.535714,834.040007 L401,834.040007 L401,803.606862 Z M442.7,802.811683 L454.774194,802.811683 L454.774194,807.545787 L442.7,807.545787 L442.7,822.112261 C442.7,823.690304 442.822579,824.995204 443.067742,826.027001 C443.312904,827.058798 443.680643,827.868038 444.170968,828.454747 C444.661293,829.041455 445.27419,829.45619 446.009677,829.698966 C446.745165,829.941742 447.603221,830.063128 448.583871,830.063128 C450.300009,830.063128 451.679027,829.870933 452.720968,829.486538 L454.468993,828.833153 C454.637437,828.768743 454.78003,828.713417 454.896774,828.667174 L456,833.340585 C455.427954,833.623823 454.426889,833.977866 452.996774,834.402723 C451.56666,834.827581 449.932267,835.040007 448.093548,835.040007 C445.927946,835.040007 444.14033,834.766888 442.730645,834.220643 C441.320961,833.674397 440.187101,832.855041 439.329032,831.76255 C438.470963,830.670059 437.868281,829.324697 437.520968,827.726423 C437.173654,826.128149 437,824.277011 437,822.172955 L437,794.011105 L442.7,793.040007 L442.7,802.811683 Z M469,834.040007 L463,834.040007 L463,803.040007 L469,803.040007 L469,834.040007 Z M466.5,797.040007 C465.527773,797.040007 464.701392,796.724436 464.020833,796.093285 C463.340274,795.462135 463,794.61105 463,793.540007 C463,792.468963 463.340274,791.617879 464.020833,790.986728 C464.701392,790.355577 465.527773,790.040007 466.5,790.040007 C467.472227,790.040007 468.298608,790.355577 468.979167,790.986728 C469.659726,791.617879 470,792.468963 470,793.540007 C470,794.61105 469.659726,795.462135 468.979167,796.093285 C468.298608,796.724436 467.472227,797.040007 466.5,797.040007 Z M486.68559,803.68087 C487.378461,803.243473 488.427941,802.786202 489.834061,802.309042 C491.240182,801.831882 492.860253,801.593306 494.694323,801.593306 C496.976722,801.593306 499.004358,801.990933 500.777293,802.7862 C502.550227,803.581466 504.048029,804.694822 505.270742,806.126301 C506.493456,807.55778 507.420666,809.267577 508.052402,811.255743 C508.684137,813.243908 509,815.430858 509,817.816656 C509,820.321745 508.623002,822.578279 507.868996,824.586326 C507.114989,826.594374 506.045131,828.29423 504.659389,829.685946 C503.273647,831.077662 501.60263,832.151255 499.646288,832.906758 C497.689947,833.662261 495.489095,834.040007 493.043668,834.040007 C490.394455,834.040007 488.050956,833.861074 486.0131,833.503205 L484.55349,833.234803 C483.16266,832.966402 481.978171,832.698003 481,832.429601 L481,787.994321 L486.68559,787.040007 L486.68559,803.68087 Z M487,829.374217 C487.557217,829.535622 488.343279,829.686936 489.358209,829.828165 C490.373139,829.969393 491.636808,830.040007 493.149254,830.040007 C496.134343,830.040007 498.522379,829.041332 500.313433,827.043954 C502.104487,825.046576 503,822.211955 503,818.540007 C503,816.925964 502.840798,815.412821 502.522388,814.000533 C502.203979,812.588245 501.686571,811.367643 500.970149,810.338691 C500.253728,809.309738 499.328364,808.502729 498.19403,807.917638 C497.059696,807.332548 495.696525,807.040007 494.104478,807.040007 C492.592032,807.040007 491.199011,807.302285 489.925373,807.826849 C488.651735,808.351413 487.67662,808.896144 487,809.461059 L487,829.374217 Z M546,818.540007 C546,821.038188 545.643446,823.294575 544.930328,825.309237 C544.21721,827.3239 543.216878,829.056483 541.929303,830.50704 C540.641729,831.957596 539.106566,833.075717 537.32377,833.861435 C535.540975,834.647153 533.599737,835.040007 531.5,835.040007 C529.400263,835.040007 527.459025,834.647153 525.67623,833.861435 C523.893434,833.075717 522.358271,831.957596 521.070697,830.50704 C519.783122,829.056483 518.78279,827.3239 518.069672,825.309237 C517.356554,823.294575 517,821.038188 517,818.540007 C517,816.082119 517.356554,813.835804 518.069672,811.800996 C518.78279,809.766187 519.783122,808.02353 521.070697,806.572974 C522.358271,805.122417 523.893434,804.004296 525.67623,803.218578 C527.459025,802.43286 529.400263,802.040007 531.5,802.040007 C533.599737,802.040007 535.540975,802.43286 537.32377,803.218578 C539.106566,804.004296 540.641729,805.122417 541.929303,806.572974 C543.216878,808.02353 544.21721,809.766187 544.930328,811.800996 C545.643446,813.835804 546,816.082119 546,818.540007 Z M540,818.540007 C540,815.007703 539.193886,812.207993 537.581633,810.140792 C535.96938,808.073591 533.775524,807.040007 531,807.040007 C528.224476,807.040007 526.03062,808.073591 524.418367,810.140792 C522.806114,812.207993 522,815.007703 522,818.540007 C522,822.072311 522.806114,824.872021 524.418367,826.939221 C526.03062,829.006422 528.224476,830.040007 531,830.040007 C533.775524,830.040007 535.96938,829.006422 537.581633,826.939221 C539.193886,824.872021 540,822.072311 540,818.540007 Z M576,809.461059 C575.32338,808.896144 574.348265,808.351413 573.074627,807.826849 C571.800989,807.302285 570.407968,807.040007 568.895522,807.040007 C567.303475,807.040007 565.940304,807.332548 564.80597,807.917638 C563.671636,808.502729 562.746272,809.309738 562.029851,810.338691 C561.313429,811.367643 560.796021,812.588245 560.477612,814.000533 C560.159202,815.412821 560,816.925964 560,818.540007 C560,822.211955 560.895513,825.046576 562.686567,827.043954 C564.477621,829.041332 566.865657,830.040007 569.850746,830.040007 C571.363192,830.040007 572.626861,829.969393 573.641791,829.828165 C574.656721,829.686936 575.442783,829.535622 576,829.374217 L576,809.461059 Z M576.31441,787.994321 L582,787.040007 L582,832.429601 C580.695772,832.78747 579.024755,833.145335 576.9869,833.503205 C574.949044,833.861074 572.605545,834.040007 569.956332,834.040007 C567.510905,834.040007 565.310053,833.662261 563.353712,832.906758 C561.39737,832.151255 559.726353,831.077662 558.340611,829.685946 C556.954869,828.29423 555.885011,826.594374 555.131004,824.586326 C554.376998,822.578279 554,820.321745 554,817.816656 C554,815.430858 554.315863,813.243908 554.947598,811.255743 C555.579334,809.267577 556.506544,807.55778 557.729258,806.126301 C558.951971,804.694822 560.449773,803.581466 562.222707,802.7862 C563.995642,801.990933 566.023278,801.593306 568.305677,801.593306 C570.139747,801.593306 571.759818,801.831882 573.165939,802.309042 C574.572059,802.786202 575.621539,803.243473 576.31441,803.68087 L576.31441,787.994321 Z M599,834.040007 L593,834.040007 L593,803.040007 L599,803.040007 L599,834.040007 Z M596.5,797.040007 C595.527773,797.040007 594.701392,796.724436 594.020833,796.093285 C593.340274,795.462135 593,794.61105 593,793.540007 C593,792.468963 593.340274,791.617879 594.020833,790.986728 C594.701392,790.355577 595.527773,790.040007 596.5,790.040007 C597.472227,790.040007 598.298608,790.355577 598.979167,790.986728 C599.659726,791.617879 600,792.468963 600,793.540007 C600,794.61105 599.659726,795.462135 598.979167,796.093285 C598.298608,796.724436 597.472227,797.040007 596.5,797.040007 Z M609,818.630832 C609,815.845497 609.396472,813.413412 610.189427,811.334502 C610.982383,809.255593 612.033033,807.529922 613.34141,806.157438 C614.649786,804.784954 616.156379,803.755606 617.861233,803.069364 C619.566088,802.383123 621.310564,802.040007 623.094714,802.040007 C627.25773,802.040007 630.449328,803.362012 632.669604,806.006062 C634.889879,808.650112 636,812.676677 636,818.085878 L636,819.02441 C636,819.407898 635.980176,819.761106 635.940529,820.084043 L614.768722,820.084043 C615.006609,823.353784 615.938318,825.836328 617.563877,827.53175 C619.189435,829.227171 621.726855,830.074869 625.176211,830.074869 C627.118952,830.074869 628.754399,829.903311 630.082599,829.56019 C631.4108,829.217069 632.411891,828.884045 633.085903,828.561108 L633.859031,833.284043 C633.185019,833.647348 632.005515,834.03083 630.320485,834.434502 C628.635454,834.838174 626.722478,835.040007 624.581498,835.040007 C621.885449,835.040007 619.556177,834.626249 617.593612,833.798722 C615.631047,832.971195 614.015425,831.83084 612.746696,830.377621 C611.477967,828.924403 610.536347,827.198732 609.921806,825.200557 C609.307266,823.202382 609,821.012496 609,818.630832 Z M630.998149,815.040007 C631.039488,812.414994 630.388407,810.258765 629.044887,808.571257 C627.701366,806.883748 625.851469,806.040007 623.495141,806.040007 C622.17229,806.040007 621.004478,806.300421 619.991671,806.821257 C618.978863,807.342093 618.121089,808.019169 617.418325,808.852507 C616.71556,809.685844 616.167825,810.644168 615.775104,811.727507 C615.382383,812.810845 615.124017,813.915001 615,815.040007 L630.998149,815.040007 Z M653.651226,830.25652 C655.929167,830.25652 657.617615,829.953771 658.716621,829.348264 C659.815628,828.742756 660.365123,827.773958 660.365123,826.441842 C660.365123,825.069358 659.825618,823.97946 658.746594,823.172117 C657.765663,822.438168 656.206764,821.620828 654.069857,820.720074 L653.411444,820.447346 C652.212528,819.96294 651.063584,819.46845 649.964578,818.96386 C648.865571,818.45927 647.916444,817.863863 647.117166,817.177621 C646.317889,816.491379 645.678477,815.663865 645.19891,814.695053 C644.719344,813.72624 644.479564,812.535427 644.479564,811.122575 C644.479564,808.33724 645.498627,806.127171 647.536785,804.4923 C649.574942,802.85743 652.352389,802.040007 655.86921,802.040007 C656.748415,802.040007 657.627607,802.090465 658.506812,802.191383 C659.386017,802.292301 660.205264,802.4134 660.964578,802.554686 C661.534063,802.660649 662.052963,802.772289 662.521287,802.889605 L662.972752,803.008814 C663.552228,803.170283 664.001815,803.311566 664.321526,803.432667 L663.302452,808.276704 C662.702994,807.953767 661.763857,807.620742 660.485014,807.277621 C659.20617,806.9345 657.667584,806.762942 655.86921,806.762942 C654.310619,806.762942 652.951868,807.075783 651.792916,807.701475 C650.633963,808.327166 650.054496,809.306055 650.054496,810.638172 C650.054496,811.324414 650.184377,811.929912 650.444142,812.454686 C650.703907,812.979459 651.10354,813.453766 651.643052,813.877621 C652.182564,814.301477 652.851949,814.695051 653.651226,815.058355 C654.450504,815.42166 655.409622,815.805142 656.52861,816.208814 C658.007274,816.773954 659.326061,817.328995 660.485014,817.873952 C661.643966,818.418908 662.633057,819.054682 663.452316,819.781291 C664.271575,820.5079 664.900997,821.385873 665.340599,822.415236 C665.780202,823.444599 666,824.706054 666,826.19964 C666,829.106076 664.930983,831.306054 662.792916,832.79964 C660.654849,834.293225 657.607649,835.040007 653.651226,835.040007 C650.893719,835.040007 648.735703,834.807899 647.177112,834.343676 L646.21206,834.050641 C645.172511,833.727954 644.435162,833.472424 644,833.284043 L645.019074,828.440007 L647.098431,829.189318 C647.400656,829.295281 647.72661,829.408813 648.076294,829.529915 C649.47503,830.014321 651.333322,830.25652 653.651226,830.25652 Z M719.61051,834.040007 C718.927354,832.221816 718.284393,830.433955 717.681607,828.67637 C717.078822,826.918786 716.455954,825.130925 715.812983,823.312734 L696.885626,823.312734 L693.088099,834.040007 L687,834.040007 L689.011325,828.509391 C689.880641,826.132979 690.717152,823.865414 691.520866,821.706673 C692.927364,817.928877 694.303703,814.343054 695.649923,810.949098 C696.996143,807.555141 698.332296,804.312749 699.658423,801.221825 C700.984551,798.1309 702.370936,795.070325 703.81762,792.040007 L709.18238,792.040007 C710.629064,795.070325 712.015449,798.1309 713.341577,801.221825 C714.667704,804.312749 716.003857,807.555141 717.350077,810.949098 C718.427053,813.664263 719.523305,816.502222 720.638854,819.463031 L721.479134,821.706673 C722.885633,825.48447 724.392573,829.59554 726,834.040007 L719.61051,834.040007 Z M714,818.040007 C712.676996,814.470758 711.364348,811.014382 710.062016,807.670776 C708.759683,804.327169 707.405692,801.116945 706,798.040007 C704.552964,801.116945 703.178301,804.327169 701.875969,807.670776 C700.573637,811.014382 699.28166,814.470758 698,818.040007 L714,818.040007 Z M752.442953,830.686738 C751.959729,831.005701 751.023497,831.414367 749.634228,831.912747 C748.244959,832.411126 746.62417,832.660313 744.771812,832.660313 C742.879185,832.660313 741.097324,832.361289 739.426174,831.763233 C737.755025,831.165178 736.295308,830.238205 735.04698,828.982288 C733.798651,827.72637 732.812084,826.161481 732.087248,824.287573 C731.362412,822.413664 731,820.180956 731,817.589381 C731,815.316769 731.342278,813.233572 732.026846,811.339729 C732.711413,809.445885 733.708047,807.811224 735.016779,806.435695 C736.32551,805.060167 737.926165,803.983682 739.818792,803.20621 C741.711419,802.428737 743.845626,802.040007 746.221477,802.040007 C748.838939,802.040007 751.124151,802.229388 753.077181,802.608157 L754.674774,802.925492 C755.942407,803.183834 757.05081,803.426919 758,803.654749 L758,831.404402 C758,836.188848 756.75169,839.65752 754.255034,841.810521 C751.758377,843.963522 747.97318,845.040007 742.899329,845.040007 C740.926165,845.040007 739.063767,844.880528 737.312081,844.561564 C735.560394,844.242601 734.040275,843.863838 732.751678,843.425264 L733.778523,838.581036 C734.906046,839.01961 736.285227,839.408341 737.916107,839.747239 C739.546988,840.086137 741.248313,840.255584 743.020134,840.255584 C746.362433,840.255584 748.768449,839.597732 750.238255,838.282009 C751.708061,836.966287 752.442953,834.873123 752.442953,832.002455 L752.442953,830.686738 Z M752,807.700007 C751.45525,807.540007 750.725686,807.390007 749.811284,807.250007 C748.896883,807.110006 747.661486,807.040007 746.105058,807.040007 C743.186756,807.040007 740.939697,808.019997 739.363813,809.980007 C737.78793,811.940016 737,814.53999 737,817.780007 C737,819.580016 737.223733,821.12 737.671206,822.400007 C738.118679,823.680013 738.721786,824.740002 739.480545,825.580007 C740.239303,826.420011 741.114781,827.040007 742.107004,827.440007 C743.099227,827.840009 744.120617,828.040007 745.171206,828.040007 C746.610902,828.040007 747.933846,827.830009 749.140078,827.410007 C750.34631,826.990005 751.299607,826.500009 752,825.940007 L752,807.700007 Z M780.031818,829.040007 C781.331825,829.040007 782.484086,829.011271 783.488636,828.9538 C784.493187,828.896328 785.3303,828.790965 786,828.637708 L786,819.729662 C785.606059,819.53809 784.965914,819.375256 784.079545,819.241156 C783.193177,819.107056 782.119703,819.040007 780.859091,819.040007 C780.031814,819.040007 779.155308,819.097477 778.229545,819.21242 C777.303783,819.327364 776.456822,819.566825 775.688636,819.930811 C774.920451,820.294798 774.280306,820.792877 773.768182,821.425064 C773.256058,822.057251 773,822.890576 773,823.925064 C773,825.840783 773.630297,827.172187 774.890909,827.919317 C776.151521,828.666447 777.865141,829.040007 780.031818,829.040007 Z M779.148148,801.040007 C781.360505,801.040007 783.227153,801.333202 784.748148,801.919602 C786.269143,802.506002 787.493823,803.335038 788.422222,804.406735 C789.350622,805.478431 790.012344,806.752315 790.407407,808.228426 C790.802471,809.704536 791,811.332277 791,813.111698 L791,832.826771 L789.014815,833.160411 L789.014815,833.160411 C788.165428,833.301956 787.207413,833.433388 786.140741,833.554713 C785.074069,833.676037 783.918525,833.787249 782.674074,833.888352 C781.429623,833.989456 780.195068,834.040007 778.97037,834.040007 C777.23209,834.040007 775.632106,833.858023 774.17037,833.494051 C772.708635,833.130078 771.44445,832.553797 770.377778,831.76519 C769.311106,830.976584 768.481484,829.935234 767.888889,828.64111 C767.296293,827.346985 767,825.790016 767,823.970154 C767,822.231174 767.345676,820.734866 768.037037,819.481183 C768.728399,818.2275 769.666661,817.216481 770.851852,816.448095 C772.037043,815.679709 773.419745,815.113538 775,814.749565 C776.580255,814.385593 778.239497,814.20361 779.977778,814.20361 C780.530867,814.20361 781.103701,814.23394 781.696296,814.294602 C782.09136,814.335044 782.473251,814.384471 782.841975,814.442886 L783.895474,814.634982 L783.895474,814.634982 L785.281482,814.916385 C785.419753,814.946716 785.528395,814.971992 785.607407,814.992213 L785.607407,813.415007 C785.607407,812.484855 785.508643,811.564827 785.311111,810.654896 C785.113579,809.744965 784.758027,808.93615 784.244444,808.228426 C783.730862,807.520702 783.029634,806.954531 782.140741,806.529896 C781.251847,806.105262 780.096303,805.892948 778.674074,805.892948 C776.856781,805.892948 775.266673,806.02438 773.903704,806.287249 C772.540734,806.550118 771.52346,806.823093 770.851852,807.106183 L770.2,802.435227 C770.911115,802.111696 772.096288,801.79828 773.755556,801.49497 C775.414823,801.19166 777.212336,801.040007 779.148148,801.040007 Z M809,834.040007 L803,834.040007 L803,803.040007 L809,803.040007 L809,834.040007 Z M805.5,797.040007 C804.527773,797.040007 803.701392,796.724436 803.020833,796.093285 C802.340274,795.462135 802,794.61105 802,793.540007 C802,792.468963 802.340274,791.617879 803.020833,790.986728 C803.701392,790.355577 804.527773,790.040007 805.5,790.040007 C806.472227,790.040007 807.298608,790.355577 807.979167,790.986728 C808.659726,791.617879 809,792.468963 809,793.540007 C809,794.61105 808.659726,795.462135 807.979167,796.093285 C807.298608,796.724436 806.472227,797.040007 805.5,797.040007 Z M820,803.606862 C821.269848,803.285454 822.956339,802.943963 825.059524,802.58238 C827.162709,802.220796 829.58332,802.040007 832.321429,802.040007 C834.781758,802.040007 836.825389,802.391541 838.452381,803.094621 C840.079373,803.7977 841.378963,804.781997 842.35119,806.04754 C843.323418,807.313083 844.007935,808.829703 844.404762,810.597445 C844.801589,812.365188 845,814.313693 845,816.44302 L845,834.040007 L839.464286,834.040007 L839.464286,817.648293 C839.464286,815.719846 839.335319,814.072656 839.077381,812.706673 C838.819443,811.34069 838.39286,810.235868 837.797619,809.392172 C837.202378,808.548477 836.408735,807.935803 835.416667,807.554131 C834.424598,807.172459 833.194452,806.981626 831.72619,806.981626 C831.130949,806.981626 830.515876,807.001714 829.880952,807.04189 C829.246029,807.082066 828.640876,807.132285 828.065476,807.192549 C827.681876,807.232725 827.324735,807.277365 826.994048,807.326468 L825.670238,807.557747 C825.620238,807.567389 825.575397,807.576228 825.535714,807.584263 L825.535714,834.040007 L820,834.040007 L820,803.606862 Z M863.651226,830.25652 C865.929167,830.25652 867.617615,829.953771 868.716621,829.348264 C869.815628,828.742756 870.365123,827.773958 870.365123,826.441842 C870.365123,825.069358 869.825618,823.97946 868.746594,823.172117 C867.765663,822.438168 866.206764,821.620828 864.069857,820.720074 L863.411444,820.447346 C862.212528,819.96294 861.063584,819.46845 859.964578,818.96386 C858.865571,818.45927 857.916444,817.863863 857.117166,817.177621 C856.317889,816.491379 855.678477,815.663865 855.19891,814.695053 C854.719344,813.72624 854.479564,812.535427 854.479564,811.122575 C854.479564,808.33724 855.498627,806.127171 857.536785,804.4923 C859.574942,802.85743 862.352389,802.040007 865.86921,802.040007 C866.748415,802.040007 867.627607,802.090465 868.506812,802.191383 C869.386017,802.292301 870.205264,802.4134 870.964578,802.554686 C871.534063,802.660649 872.052963,802.772289 872.521287,802.889605 L872.972752,803.008814 C873.552228,803.170283 874.001815,803.311566 874.321526,803.432667 L873.302452,808.276704 C872.702994,807.953767 871.763857,807.620742 870.485014,807.277621 C869.20617,806.9345 867.667584,806.762942 865.86921,806.762942 C864.310619,806.762942 862.951868,807.075783 861.792916,807.701475 C860.633963,808.327166 860.054496,809.306055 860.054496,810.638172 C860.054496,811.324414 860.184377,811.929912 860.444142,812.454686 C860.703907,812.979459 861.10354,813.453766 861.643052,813.877621 C862.182564,814.301477 862.851949,814.695051 863.651226,815.058355 C864.450504,815.42166 865.409622,815.805142 866.52861,816.208814 C868.007274,816.773954 869.326061,817.328995 870.485014,817.873952 C871.643966,818.418908 872.633057,819.054682 873.452316,819.781291 C874.271575,820.5079 874.900997,821.385873 875.340599,822.415236 C875.780202,823.444599 876,824.706054 876,826.19964 C876,829.106076 874.930983,831.306054 872.792916,832.79964 C870.654849,834.293225 867.607649,835.040007 863.651226,835.040007 C860.893719,835.040007 858.735703,834.807899 857.177112,834.343676 L856.21206,834.050641 C855.172511,833.727954 854.435162,833.472424 854,833.284043 L855.019074,828.440007 L857.569566,829.35394 C857.732543,829.410706 857.901452,829.469364 858.076294,829.529915 C859.47503,830.014321 861.333322,830.25652 863.651226,830.25652 Z M890.7,802.811683 L902.774194,802.811683 L902.774194,807.545787 L890.7,807.545787 L890.7,822.112261 C890.7,823.690304 890.822579,824.995204 891.067742,826.027001 C891.312904,827.058798 891.680643,827.868038 892.170968,828.454747 C892.661293,829.041455 893.27419,829.45619 894.009677,829.698966 C894.745165,829.941742 895.603221,830.063128 896.583871,830.063128 C898.300009,830.063128 899.679027,829.870933 900.720968,829.486538 L902.702271,828.743351 C902.773568,828.715688 902.838402,828.690296 902.896774,828.667174 L904,833.340585 C903.427954,833.623823 902.426889,833.977866 900.996774,834.402723 C899.56666,834.827581 897.932267,835.040007 896.093548,835.040007 C893.927946,835.040007 892.14033,834.766888 890.730645,834.220643 C889.320961,833.674397 888.187101,832.855041 887.329032,831.76255 C886.470963,830.670059 885.868281,829.324697 885.520968,827.726423 C885.173654,826.128149 885,824.277011 885,822.172955 L885,794.011105 L890.7,793.040007 L890.7,802.811683 Z M946.426443,835.040007 C943.526367,835.040007 940.884556,834.553824 938.500931,833.581443 C936.117307,832.609063 934.071393,831.191029 932.363128,829.327299 C930.654864,827.46357 929.333959,825.16433 928.400372,822.429509 C927.466786,819.694689 927,816.564886 927,813.040007 C927,809.515127 927.526376,806.385324 928.579143,803.650504 C929.631911,800.915684 931.052133,798.616443 932.839851,796.752714 C934.627569,794.888984 936.71321,793.470951 939.096834,792.49857 C941.480459,791.52619 944.022954,791.040007 946.724395,791.040007 C948.432659,791.040007 949.97206,791.161552 951.342644,791.404648 C952.713228,791.647743 953.905023,791.931349 954.918063,792.255476 C955.931104,792.579603 956.755428,792.903725 957.391061,793.227852 L957.960481,793.524967 C958.295952,793.705037 958.54314,793.849091 958.702048,793.957134 L957.03352,798.819012 C956.675976,798.575917 956.159532,798.312568 955.484171,798.028957 C954.808811,797.745346 954.044076,797.461739 953.189944,797.178128 C952.335812,796.894517 951.40224,796.661555 950.389199,796.479233 C949.376159,796.296912 948.353202,796.205753 947.320298,796.205753 C945.135309,796.205753 943.168848,796.590647 941.420857,797.360449 C939.672865,798.13025 938.183122,799.244419 936.951583,800.70299 C935.720044,802.161561 934.77654,803.934103 934.121043,806.02067 C933.465546,808.107236 933.137803,810.446992 933.137803,813.040007 C933.137803,815.55199 933.42582,817.841101 934.001862,819.90741 C934.577905,821.973719 935.441956,823.746261 936.594041,825.22509 C937.746126,826.703918 939.186211,827.848474 940.914339,828.658791 C942.642467,829.469108 944.658586,829.874261 946.962756,829.874261 C949.62447,829.874261 951.82929,829.590654 953.577281,829.023432 C955.325273,828.45621 956.636246,827.949769 957.510242,827.504095 L959,832.365974 C958.72191,832.568553 958.225329,832.821773 957.510242,833.125642 C956.795158,833.429511 955.901309,833.723247 954.828678,834.006857 C953.756047,834.290468 952.504663,834.53356 951.074488,834.736139 C949.644313,834.938719 948.09498,835.040007 946.426443,835.040007 Z M994,818.540007 C994,821.038188 993.643446,823.294575 992.930328,825.309237 C992.21721,827.3239 991.216878,829.056483 989.929303,830.50704 C988.641729,831.957596 987.106566,833.075717 985.32377,833.861435 C983.540975,834.647153 981.599737,835.040007 979.5,835.040007 C977.400263,835.040007 975.459025,834.647153 973.67623,833.861435 C971.893434,833.075717 970.358271,831.957596 969.070697,830.50704 C967.783122,829.056483 966.78279,827.3239 966.069672,825.309237 C965.356554,823.294575 965,821.038188 965,818.540007 C965,816.082119 965.356554,813.835804 966.069672,811.800996 C966.78279,809.766187 967.783122,808.02353 969.070697,806.572974 C970.358271,805.122417 971.893434,804.004296 973.67623,803.218578 C975.459025,802.43286 977.400263,802.040007 979.5,802.040007 C981.599737,802.040007 983.540975,802.43286 985.32377,803.218578 C987.106566,804.004296 988.641729,805.122417 989.929303,806.572974 C991.216878,808.02353 992.21721,809.766187 992.930328,811.800996 C993.643446,813.835804 994,816.082119 994,818.540007 Z M988,818.540007 C988,815.007703 987.193886,812.207993 985.581633,810.140792 C983.96938,808.073591 981.775524,807.040007 979,807.040007 C976.224476,807.040007 974.03062,808.073591 972.418367,810.140792 C970.806114,812.207993 970,815.007703 970,818.540007 C970,822.072311 970.806114,824.872021 972.418367,826.939221 C974.03062,829.006422 976.224476,830.040007 979,830.040007 C981.775524,830.040007 983.96938,829.006422 985.581633,826.939221 C987.193886,824.872021 988,822.072311 988,818.540007 Z M1013.23977,834.040007 C1009.88692,833.960278 1007.50878,833.222796 1006.10526,831.827538 C1004.70175,830.432281 1004,828.259699 1004,825.309727 L1004,787.99675 L1009.4386,787.040007 L1009.4386,824.41278 C1009.4386,825.329664 1009.51657,826.087077 1009.67251,826.685045 C1009.82846,827.283012 1010.08187,827.761379 1010.43275,828.120159 C1010.78363,828.47894 1011.25146,828.748021 1011.83626,828.927411 C1012.42106,829.106801 1013.1423,829.256291 1014,829.375885 L1013.23977,834.040007 Z M1050,818.540007 C1050,821.038188 1049.64345,823.294575 1048.93033,825.309237 C1048.21721,827.3239 1047.21688,829.056483 1045.9293,830.50704 C1044.64173,831.957596 1043.10657,833.075717 1041.32377,833.861435 C1039.54097,834.647153 1037.59974,835.040007 1035.5,835.040007 C1033.40026,835.040007 1031.45903,834.647153 1029.67623,833.861435 C1027.89343,833.075717 1026.35827,831.957596 1025.0707,830.50704 C1023.78312,829.056483 1022.78279,827.3239 1022.06967,825.309237 C1021.35655,823.294575 1021,821.038188 1021,818.540007 C1021,816.082119 1021.35655,813.835804 1022.06967,811.800996 C1022.78279,809.766187 1023.78312,808.02353 1025.0707,806.572974 C1026.35827,805.122417 1027.89343,804.004296 1029.67623,803.218578 C1031.45903,802.43286 1033.40026,802.040007 1035.5,802.040007 C1037.59974,802.040007 1039.54097,802.43286 1041.32377,803.218578 C1043.10657,804.004296 1044.64173,805.122417 1045.9293,806.572974 C1047.21688,808.02353 1048.21721,809.766187 1048.93033,811.800996 C1049.64345,813.835804 1050,816.082119 1050,818.540007 Z M1044,818.540007 C1044,815.007703 1043.19389,812.207993 1041.58163,810.140792 C1039.96938,808.073591 1037.77552,807.040007 1035,807.040007 C1032.22448,807.040007 1030.03062,808.073591 1028.41837,810.140792 C1026.80611,812.207993 1026,815.007703 1026,818.540007 C1026,822.072311 1026.80611,824.872021 1028.41837,826.939221 C1030.03062,829.006422 1032.22448,830.040007 1035,830.040007 C1037.77552,830.040007 1039.96938,829.006422 1041.58163,826.939221 C1043.19389,824.872021 1044,822.072311 1044,818.540007 Z M1071.67568,802.040007 C1072.16216,802.040007 1072.71959,802.070138 1073.34797,802.130402 C1073.97635,802.190666 1074.59459,802.271017 1075.2027,802.371457 L1076.35135,802.572335 L1076.35135,802.572335 L1076.875,802.672775 C1077.38176,802.773215 1077.75676,802.86361 1078,802.943961 L1077.02703,807.825317 C1076.58108,807.664614 1075.84122,807.473781 1074.80743,807.252813 C1073.77364,807.031845 1072.44595,806.921363 1070.82432,806.921363 C1069.77027,806.921363 1068.72636,807.031845 1067.69257,807.252813 L1065.79366,807.671363 C1065.74203,807.683604 1065.69595,807.694746 1065.65541,807.70479 L1065.65541,834.040007 L1060,834.040007 L1060,804.028707 C1061.33784,803.546596 1063,803.094623 1064.98649,802.672775 C1066.97298,802.250927 1069.20269,802.040007 1071.67568,802.040007 Z M1083,818.630832 C1083,815.845497 1083.39647,813.413412 1084.18943,811.334502 C1084.98238,809.255593 1086.03303,807.529922 1087.34141,806.157438 C1088.64979,804.784954 1090.15638,803.755606 1091.86123,803.069364 C1093.56609,802.383123 1095.31056,802.040007 1097.09471,802.040007 C1101.25773,802.040007 1104.44933,803.362012 1106.6696,806.006062 C1108.88988,808.650112 1110,812.676677 1110,818.085878 L1110,819.02441 C1110,819.407898 1109.98018,819.761106 1109.94053,820.084043 L1088.76872,820.084043 C1089.00661,823.353784 1089.93832,825.836328 1091.56388,827.53175 C1093.18944,829.227171 1095.72686,830.074869 1099.17621,830.074869 C1101.11895,830.074869 1102.7544,829.903311 1104.0826,829.56019 C1105.4108,829.217069 1106.41189,828.884045 1107.0859,828.561108 L1107.85903,833.284043 C1107.18502,833.647348 1106.00552,834.03083 1104.32048,834.434502 C1102.63545,834.838174 1100.72248,835.040007 1098.5815,835.040007 C1095.88545,835.040007 1093.55618,834.626249 1091.59361,833.798722 C1089.63105,832.971195 1088.01542,831.83084 1086.7467,830.377621 C1085.47797,828.924403 1084.53635,827.198732 1083.92181,825.200557 C1083.30727,823.202382 1083,821.012496 1083,818.630832 Z M1104.99815,815.040007 C1105.03949,812.414994 1104.38841,810.258765 1103.04489,808.571257 C1101.70137,806.883748 1099.85147,806.040007 1097.49514,806.040007 C1096.17229,806.040007 1095.00448,806.300421 1093.99167,806.821257 C1092.97886,807.342093 1092.12109,808.019169 1091.41832,808.852507 C1090.71556,809.685844 1090.16783,810.644168 1089.7751,811.727507 C1089.38238,812.810845 1089.12402,813.915001 1089,815.040007 L1104.99815,815.040007 Z M1134.53299,835.040007 C1131.97461,835.040007 1129.73097,834.636341 1127.80203,833.828997 C1125.87309,833.021654 1124.24874,831.89139 1122.92893,830.438172 C1121.60913,828.984954 1120.62437,827.259283 1119.97462,825.261108 C1119.32487,823.262932 1119,821.052863 1119,818.630832 C1119,816.208802 1119.35533,813.988641 1120.06599,811.970282 C1120.77665,809.951923 1121.78172,808.206069 1123.08122,806.732667 C1124.38072,805.259265 1125.97461,804.108818 1127.86294,803.281291 C1129.75128,802.453764 1131.85278,802.040007 1134.16751,802.040007 C1135.58884,802.040007 1137.01015,802.161106 1138.43147,802.403309 C1139.8528,802.645512 1141.21319,803.028995 1142.51269,803.553768 L1141.2335,808.337254 C1140.38071,807.933583 1139.39594,807.61065 1138.27919,807.368447 C1137.16243,807.126244 1135.97463,807.005144 1134.71574,807.005144 C1131.54821,807.005144 1129.12184,807.994125 1127.43655,809.972117 C1125.75126,811.950108 1124.90863,814.836318 1124.90863,818.630832 C1124.90863,820.326254 1125.10152,821.880367 1125.48731,823.293218 C1125.8731,824.706069 1126.48223,825.917066 1127.31472,826.926245 C1128.14721,827.935425 1129.21319,828.712481 1130.51269,829.257438 C1131.81219,829.802395 1133.39593,830.074869 1135.26396,830.074869 C1136.7665,830.074869 1138.1269,829.933586 1139.34518,829.651016 C1140.56346,829.368446 1141.51776,829.065696 1142.20812,828.742759 L1143,833.465695 C1142.67513,833.667531 1142.20812,833.859272 1141.59898,834.040924 C1140.98984,834.222576 1140.2995,834.384043 1139.52792,834.525328 C1138.75634,834.666613 1137.93401,834.787713 1137.06091,834.888631 C1136.18781,834.989548 1135.34518,835.040007 1134.53299,835.040007 Z M1155.7,802.811683 L1167.77419,802.811683 L1167.77419,807.545787 L1155.7,807.545787 L1155.7,822.112261 C1155.7,823.690304 1155.82258,824.995204 1156.06774,826.027001 C1156.3129,827.058798 1156.68064,827.868038 1157.17097,828.454747 C1157.66129,829.041455 1158.27419,829.45619 1159.00968,829.698966 C1159.74516,829.941742 1160.60322,830.063128 1161.58387,830.063128 C1163.30001,830.063128 1164.67903,829.870933 1165.72097,829.486538 L1167.46899,828.833153 C1167.63744,828.768743 1167.78003,828.713417 1167.89677,828.667174 L1169,833.340585 C1168.42795,833.623823 1167.42689,833.977866 1165.99677,834.402723 C1164.56666,834.827581 1162.93227,835.040007 1161.09355,835.040007 C1158.92795,835.040007 1157.14033,834.766888 1155.73065,834.220643 C1154.32096,833.674397 1153.1871,832.855041 1152.32903,831.76255 C1151.47096,830.670059 1150.86828,829.324697 1150.52097,827.726423 C1150.17365,826.128149 1150,824.277011 1150,822.172955 L1150,794.011105 L1155.7,793.040007 L1155.7,802.811683 Z M1188.03182,829.040007 C1189.33182,829.040007 1190.48409,829.011271 1191.48864,828.9538 C1192.49319,828.896328 1193.3303,828.790965 1194,828.637708 L1194,819.729662 C1193.60606,819.53809 1192.96591,819.375256 1192.07955,819.241156 C1191.19318,819.107056 1190.1197,819.040007 1188.85909,819.040007 C1188.03181,819.040007 1187.15531,819.097477 1186.22955,819.21242 C1185.30378,819.327364 1184.45682,819.566825 1183.68864,819.930811 C1182.92045,820.294798 1182.28031,820.792877 1181.76818,821.425064 C1181.25606,822.057251 1181,822.890576 1181,823.925064 C1181,825.840783 1181.6303,827.172187 1182.89091,827.919317 C1184.15152,828.666447 1185.86514,829.040007 1188.03182,829.040007 Z M1187.14815,801.040007 C1189.3605,801.040007 1191.22715,801.333202 1192.74815,801.919602 C1194.26914,802.506002 1195.49382,803.335038 1196.42222,804.406735 C1197.35062,805.478431 1198.01234,806.752315 1198.40741,808.228426 C1198.80247,809.704536 1199,811.332277 1199,813.111698 L1199,832.826771 L1197.01481,833.160411 L1197.01481,833.160411 C1196.16543,833.301956 1195.20741,833.433388 1194.14074,833.554713 C1193.07407,833.676037 1191.91852,833.787249 1190.67407,833.888352 C1189.42962,833.989456 1188.19507,834.040007 1186.97037,834.040007 C1185.23209,834.040007 1183.63211,833.858023 1182.17037,833.494051 C1180.70863,833.130078 1179.44445,832.553797 1178.37778,831.76519 C1177.31111,830.976584 1176.48148,829.935234 1175.88889,828.64111 C1175.29629,827.346985 1175,825.790016 1175,823.970154 C1175,822.231174 1175.34568,820.734866 1176.03704,819.481183 C1176.7284,818.2275 1177.66666,817.216481 1178.85185,816.448095 C1180.03704,815.679709 1181.41975,815.113538 1183,814.749565 C1184.58025,814.385593 1186.2395,814.20361 1187.97778,814.20361 C1188.53087,814.20361 1189.1037,814.23394 1189.6963,814.294602 C1190.09136,814.335044 1190.47325,814.384471 1190.84197,814.442886 L1191.89547,814.634982 L1191.89547,814.634982 L1193.28148,814.916385 C1193.41975,814.946716 1193.52839,814.971992 1193.60741,814.992213 L1193.60741,813.415007 C1193.60741,812.484855 1193.50864,811.564827 1193.31111,810.654896 C1193.11358,809.744965 1192.75803,808.93615 1192.24444,808.228426 C1191.73086,807.520702 1191.02963,806.954531 1190.14074,806.529896 C1189.25185,806.105262 1188.0963,805.892948 1186.67407,805.892948 C1184.85678,805.892948 1183.26667,806.02438 1181.9037,806.287249 C1180.54073,806.550118 1179.52346,806.823093 1178.85185,807.106183 L1178.2,802.435227 C1178.91111,802.111696 1180.09629,801.79828 1181.75556,801.49497 C1183.41482,801.19166 1185.21234,801.040007 1187.14815,801.040007 Z M1220.23977,834.040007 C1216.88692,833.960278 1214.50878,833.222796 1213.10526,831.827538 C1211.70175,830.432281 1211,828.259699 1211,825.309727 L1211,787.99675 L1216.4386,787.040007 L1216.4386,824.41278 C1216.4386,825.329664 1216.51657,826.087077 1216.67251,826.685045 C1216.82846,827.283012 1217.08187,827.761379 1217.43275,828.120159 C1217.78363,828.47894 1218.25146,828.748021 1218.83626,828.927411 C1219.42106,829.106801 1220.1423,829.256291 1221,829.375885 L1220.23977,834.040007 Z M1263.42644,835.040007 C1260.52637,835.040007 1257.88456,834.553824 1255.50093,833.581443 C1253.11731,832.609063 1251.07139,831.191029 1249.36313,829.327299 C1247.65486,827.46357 1246.33396,825.16433 1245.40037,822.429509 C1244.46679,819.694689 1244,816.564886 1244,813.040007 C1244,809.515127 1244.52638,806.385324 1245.57914,803.650504 C1246.63191,800.915684 1248.05213,798.616443 1249.83985,796.752714 C1251.62757,794.888984 1253.71321,793.470951 1256.09683,792.49857 C1258.48046,791.52619 1261.02295,791.040007 1263.72439,791.040007 C1265.43266,791.040007 1266.97206,791.161552 1268.34264,791.404648 C1269.71323,791.647743 1270.90502,791.931349 1271.91806,792.255476 C1272.9311,792.579603 1273.75543,792.903725 1274.39106,793.227852 L1275.19553,793.653267 C1275.41403,793.774813 1275.58287,793.876102 1275.70205,793.957134 L1274.03352,798.819012 C1273.67598,798.575917 1273.15953,798.312568 1272.48417,798.028957 C1271.80881,797.745346 1271.04408,797.461739 1270.18994,797.178128 C1269.33581,796.894517 1268.40224,796.661555 1267.3892,796.479233 C1266.37616,796.296912 1265.3532,796.205753 1264.3203,796.205753 C1262.13531,796.205753 1260.16885,796.590647 1258.42086,797.360449 C1256.67287,798.13025 1255.18312,799.244419 1253.95158,800.70299 C1252.72004,802.161561 1251.77654,803.934103 1251.12104,806.02067 C1250.46555,808.107236 1250.1378,810.446992 1250.1378,813.040007 C1250.1378,815.55199 1250.42582,817.841101 1251.00186,819.90741 C1251.5779,821.973719 1252.44196,823.746261 1253.59404,825.22509 C1254.74613,826.703918 1256.18621,827.848474 1257.91434,828.658791 C1259.64247,829.469108 1261.65859,829.874261 1263.96276,829.874261 C1266.62447,829.874261 1268.82929,829.590654 1270.57728,829.023432 C1272.32527,828.45621 1273.63625,827.949769 1274.51024,827.504095 L1276,832.365974 C1275.72191,832.568553 1275.22533,832.821773 1274.51024,833.125642 C1273.79516,833.429511 1272.90131,833.723247 1271.82868,834.006857 C1270.75605,834.290468 1269.50466,834.53356 1268.07449,834.736139 C1266.64431,834.938719 1265.09498,835.040007 1263.42644,835.040007 Z M1295.03182,829.040007 C1296.33182,829.040007 1297.48409,829.011271 1298.48864,828.9538 C1299.49319,828.896328 1300.3303,828.790965 1301,828.637708 L1301,819.729662 C1300.60606,819.53809 1299.96591,819.375256 1299.07955,819.241156 C1298.19318,819.107056 1297.1197,819.040007 1295.85909,819.040007 C1295.03181,819.040007 1294.15531,819.097477 1293.22955,819.21242 C1292.30378,819.327364 1291.45682,819.566825 1290.68864,819.930811 C1289.92045,820.294798 1289.28031,820.792877 1288.76818,821.425064 C1288.25606,822.057251 1288,822.890576 1288,823.925064 C1288,825.840783 1288.6303,827.172187 1289.89091,827.919317 C1291.15152,828.666447 1292.86514,829.040007 1295.03182,829.040007 Z M1294.14815,801.040007 C1296.3605,801.040007 1298.22715,801.333202 1299.74815,801.919602 C1301.26914,802.506002 1302.49382,803.335038 1303.42222,804.406735 C1304.35062,805.478431 1305.01234,806.752315 1305.40741,808.228426 C1305.80247,809.704536 1306,811.332277 1306,813.111698 L1306,832.826771 L1304.01481,833.160411 L1304.01481,833.160411 C1303.16543,833.301956 1302.20741,833.433388 1301.14074,833.554713 C1300.07407,833.676037 1298.91852,833.787249 1297.67407,833.888352 C1296.42962,833.989456 1295.19507,834.040007 1293.97037,834.040007 C1292.23209,834.040007 1290.63211,833.858023 1289.17037,833.494051 C1287.70863,833.130078 1286.44445,832.553797 1285.37778,831.76519 C1284.31111,830.976584 1283.48148,829.935234 1282.88889,828.64111 C1282.29629,827.346985 1282,825.790016 1282,823.970154 C1282,822.231174 1282.34568,820.734866 1283.03704,819.481183 C1283.7284,818.2275 1284.66666,817.216481 1285.85185,816.448095 C1287.03704,815.679709 1288.41975,815.113538 1290,814.749565 C1291.58025,814.385593 1293.2395,814.20361 1294.97778,814.20361 C1295.53087,814.20361 1296.1037,814.23394 1296.6963,814.294602 C1297.09136,814.335044 1297.47325,814.384471 1297.84197,814.442886 L1298.89547,814.634982 L1298.89547,814.634982 L1300.28148,814.916385 C1300.41975,814.946716 1300.52839,814.971992 1300.60741,814.992213 L1300.60741,813.415007 C1300.60741,812.484855 1300.50864,811.564827 1300.31111,810.654896 C1300.11358,809.744965 1299.75803,808.93615 1299.24444,808.228426 C1298.73086,807.520702 1298.02963,806.954531 1297.14074,806.529896 C1296.25185,806.105262 1295.0963,805.892948 1293.67407,805.892948 C1291.85678,805.892948 1290.26667,806.02438 1288.9037,806.287249 C1287.54073,806.550118 1286.52346,806.823093 1285.85185,807.106183 L1285.2,802.435227 C1285.91111,802.111696 1287.09629,801.79828 1288.75556,801.49497 C1290.41482,801.19166 1292.21234,801.040007 1294.14815,801.040007 Z M1318,803.606862 C1319.26985,803.285454 1320.95634,802.943963 1323.05952,802.58238 C1325.16271,802.220796 1327.58332,802.040007 1330.32143,802.040007 C1332.78176,802.040007 1334.82539,802.391541 1336.45238,803.094621 C1338.07937,803.7977 1339.37896,804.781997 1340.35119,806.04754 C1341.32342,807.313083 1342.00793,808.829703 1342.40476,810.597445 C1342.80159,812.365188 1343,814.313693 1343,816.44302 L1343,834.040007 L1337.46429,834.040007 L1337.46429,817.648293 C1337.46429,815.719846 1337.33532,814.072656 1337.07738,812.706673 C1336.81944,811.34069 1336.39286,810.235868 1335.79762,809.392172 C1335.20238,808.548477 1334.40874,807.935803 1333.41667,807.554131 C1332.4246,807.172459 1331.19445,806.981626 1329.72619,806.981626 C1329.13095,806.981626 1328.51588,807.001714 1327.88095,807.04189 C1327.24603,807.082066 1326.64088,807.132285 1326.06548,807.192549 C1325.68188,807.232725 1325.32474,807.277365 1324.99405,807.326468 L1323.67024,807.557747 C1323.62024,807.567389 1323.5754,807.576228 1323.53571,807.584263 L1323.53571,834.040007 L1318,834.040007 L1318,803.606862 Z M1368.53299,835.040007 C1365.97461,835.040007 1363.73097,834.636341 1361.80203,833.828997 C1359.87309,833.021654 1358.24874,831.89139 1356.92893,830.438172 C1355.60913,828.984954 1354.62437,827.259283 1353.97462,825.261108 C1353.32487,823.262932 1353,821.052863 1353,818.630832 C1353,816.208802 1353.35533,813.988641 1354.06599,811.970282 C1354.77665,809.951923 1355.78172,808.206069 1357.08122,806.732667 C1358.38072,805.259265 1359.97461,804.108818 1361.86294,803.281291 C1363.75128,802.453764 1365.85278,802.040007 1368.16751,802.040007 C1369.58884,802.040007 1371.01015,802.161106 1372.43147,802.403309 C1373.8528,802.645512 1375.21319,803.028995 1376.51269,803.553768 L1375.2335,808.337254 C1374.38071,807.933583 1373.39594,807.61065 1372.27919,807.368447 C1371.16243,807.126244 1369.97463,807.005144 1368.71574,807.005144 C1365.54821,807.005144 1363.12184,807.994125 1361.43655,809.972117 C1359.75126,811.950108 1358.90863,814.836318 1358.90863,818.630832 C1358.90863,820.326254 1359.10152,821.880367 1359.48731,823.293218 C1359.8731,824.706069 1360.48223,825.917066 1361.31472,826.926245 C1362.14721,827.935425 1363.21319,828.712481 1364.51269,829.257438 C1365.81219,829.802395 1367.39593,830.074869 1369.26396,830.074869 C1370.7665,830.074869 1372.1269,829.933586 1373.34518,829.651016 C1374.56346,829.368446 1375.51776,829.065696 1376.20812,828.742759 L1377,833.465695 C1376.67513,833.667531 1376.20812,833.859272 1375.59898,834.040924 C1374.98984,834.222576 1374.2995,834.384043 1373.52792,834.525328 C1372.75634,834.666613 1371.93401,834.787713 1371.06091,834.888631 C1370.18781,834.989548 1369.34518,835.040007 1368.53299,835.040007 Z M1383,818.630832 C1383,815.845497 1383.39647,813.413412 1384.18943,811.334502 C1384.98238,809.255593 1386.03303,807.529922 1387.34141,806.157438 C1388.64979,804.784954 1390.15638,803.755606 1391.86123,803.069364 C1393.56609,802.383123 1395.31056,802.040007 1397.09471,802.040007 C1401.25773,802.040007 1404.44933,803.362012 1406.6696,806.006062 C1408.88988,808.650112 1410,812.676677 1410,818.085878 L1410,819.02441 C1410,819.407898 1409.98018,819.761106 1409.94053,820.084043 L1388.76872,820.084043 C1389.00661,823.353784 1389.93832,825.836328 1391.56388,827.53175 C1393.18944,829.227171 1395.72686,830.074869 1399.17621,830.074869 C1401.11895,830.074869 1402.7544,829.903311 1404.0826,829.56019 C1405.4108,829.217069 1406.41189,828.884045 1407.0859,828.561108 L1407.85903,833.284043 C1407.18502,833.647348 1406.00552,834.03083 1404.32048,834.434502 C1402.63545,834.838174 1400.72248,835.040007 1398.5815,835.040007 C1395.88545,835.040007 1393.55618,834.626249 1391.59361,833.798722 C1389.63105,832.971195 1388.01542,831.83084 1386.7467,830.377621 C1385.47797,828.924403 1384.53635,827.198732 1383.92181,825.200557 C1383.30727,823.202382 1383,821.012496 1383,818.630832 Z M1403.99815,815.040007 C1404.03949,812.414994 1403.38841,810.258765 1402.04489,808.571257 C1400.70137,806.883748 1398.85147,806.040007 1396.49514,806.040007 C1395.17229,806.040007 1394.00448,806.300421 1392.99167,806.821257 C1391.97886,807.342093 1391.12109,808.019169 1390.41832,808.852507 C1389.71556,809.685844 1389.16783,810.644168 1388.7751,811.727507 C1388.38238,812.810845 1388.12402,813.915001 1388,815.040007 L1403.99815,815.040007 Z M1431.67568,802.040007 C1432.16216,802.040007 1432.71959,802.070138 1433.34797,802.130402 C1433.97635,802.190666 1434.59459,802.271017 1435.2027,802.371457 L1436.35135,802.572335 L1436.35135,802.572335 L1436.875,802.672775 C1437.38176,802.773215 1437.75676,802.86361 1438,802.943961 L1437.02703,807.825317 C1436.58108,807.664614 1435.84122,807.473781 1434.80743,807.252813 C1433.77364,807.031845 1432.44595,806.921363 1430.82432,806.921363 C1429.77027,806.921363 1428.72636,807.031845 1427.69257,807.252813 L1425.79366,807.671363 C1425.74203,807.683604 1425.69595,807.694746 1425.65541,807.70479 L1425.65541,834.040007 L1420,834.040007 L1420,804.028707 C1421.33784,803.546596 1423,803.094623 1424.98649,802.672775 C1426.97298,802.250927 1429.20269,802.040007 1431.67568,802.040007 Z" id="path-1"></path>
        <filter x="-0.9%" y="-21.6%" width="102.5%" height="160.3%" filterUnits="objectBoundingBox" id="filter-2">
            <feOffset dx="5" dy="5" in="SourceAlpha" result="shadowOffsetOuter1"></feOffset>
            <feGaussianBlur stdDeviation="5" in="shadowOffsetOuter1" result="shadowBlurOuter1"></feGaussianBlur>
            <feColorMatrix values="0 0 0 0 0   0 0 0 0 0   0 0 0 0 0  0 0 0 0.22 0" type="matrix" in="shadowBlurOuter1"></feColorMatrix>
        </filter>
        <path d="M139.190128,752.040007 C128.63066,752.040007 118.117664,751.716301 107.650823,751.06888 C97.1839818,750.421462 86.3004831,748.895418 75,746.490711 L75,560.034373 C83.8921834,558.369576 93.6178631,557.120997 104.177331,556.288598 C114.736799,555.4562 124.555104,555.040007 133.632541,555.040007 C145.859293,555.040007 157.113294,555.918636 167.394881,557.675922 C177.676468,559.433208 186.522205,562.439046 193.932358,566.693528 C201.342511,570.948009 207.131606,576.543493 211.299817,583.480148 C215.468028,590.416802 217.552102,598.971881 217.552102,609.14564 C217.552102,624.498769 210.142061,636.61461 195.321755,645.493528 C207.548507,650.117964 215.884804,656.407103 220.330896,664.361133 C224.776987,672.315164 227,681.286436 227,691.275218 C227,711.43776 219.636271,726.605684 204.908592,736.779443 C190.180914,746.953203 168.274978,752.040007 139.190128,752.040007 Z M117,666.040007 L117,715.925253 C120.156134,716.296839 123.590699,716.575525 127.303797,716.761318 C131.016896,716.947111 135.101244,717.040007 139.556962,717.040007 C152.552808,717.040007 163.042154,715.182102 171.025316,711.466236 C179.008479,707.750371 183,700.876122 183,690.843285 C183,681.925208 179.658261,675.561884 172.974684,671.753121 C166.291106,667.944359 156.73002,666.040007 144.291139,666.040007 L117,666.040007 Z M117,633.040007 L137.990476,633.040007 C151.247685,633.040007 160.73013,631.318162 166.438095,627.874422 C172.14606,624.430682 175,618.892859 175,611.260786 C175,603.442565 172.053998,597.951278 166.161905,594.78676 C160.269812,591.622242 151.61593,590.040007 140.2,590.040007 L136.975895,590.051403 C134.232782,590.070398 131.348768,590.113136 128.32381,590.179617 C124.088868,590.272691 120.314302,590.505373 117,590.877669 L117,633.040007 Z M308,728.540007 C308,736.855266 305.344113,743.184007 300.032258,747.52642 C294.720404,751.868833 288.709711,754.040007 282,754.040007 C275.290289,754.040007 269.279596,751.868833 263.967742,747.52642 C258.655887,743.184007 256,736.855266 256,728.540007 C256,720.224748 258.655887,713.896007 263.967742,709.553594 C269.279596,705.211181 275.290289,703.040007 282,703.040007 C288.709711,703.040007 294.720404,705.211181 300.032258,709.553594 C305.344113,713.896007 308,720.224748 308,728.540007 Z M484.783167,750.040007 C483.043602,744.31085 481.134625,738.445361 479.056191,732.443409 L478.002853,729.43106 C475.512113,722.37571 473.067523,715.320465 470.669044,708.265115 L395.947218,708.265115 C394.348225,712.968682 392.728747,717.672202 391.088765,722.375737 L388.613409,729.43106 C386.122669,736.48641 383.862587,743.355991 381.833096,750.040007 L337,750.040007 L340.774885,739.178504 C346.59329,722.512219 352.161395,706.916377 357.479315,692.390656 L360.238327,684.893886 C365.739397,670.025413 371.138755,655.907317 376.436519,642.539285 L379.519188,634.80704 C384.644146,622.029584 389.705,609.800206 394.701854,598.11865 C400.69808,584.100783 406.924837,570.408039 413.382311,557.040007 L454.617689,557.040007 C460.890664,570.408039 467.071296,584.100783 473.159772,598.11865 C478.740874,610.968362 484.360657,624.480937 490.019262,638.656719 L491.563481,642.539285 C497.744206,658.135323 504.063211,674.75228 510.520685,692.390656 L512.815111,698.681484 C518.589472,714.572352 524.651055,731.691727 531,750.040007 L484.783167,750.040007 Z M433.360406,601.040007 L432.963338,602.209 C432.189884,604.452044 431.166202,607.244477 429.892276,610.586344 L420.719656,634.49355 C418.867635,639.344553 416.892565,644.539401 414.794416,650.078175 L412.621982,655.859673 C410.440829,661.710814 408.233514,667.770891 406,674.040007 L461,674.040007 L458.783942,667.840567 C457.318207,663.754055 455.875743,659.760434 454.456539,655.859673 L452.345178,650.078175 C450.111664,643.985523 447.967516,638.309022 445.912694,633.048565 L440.863577,620.265195 C439.770095,617.478942 438.758042,614.878441 437.827411,612.463671 L435.975652,607.680111 C434.950066,605.04454 434.078321,602.831182 433.360406,601.040007 Z M612,728.540007 C612,736.855266 609.344113,743.184007 604.032258,747.52642 C598.720404,751.868833 592.709711,754.040007 586,754.040007 C579.290289,754.040007 573.279596,751.868833 567.967742,747.52642 C562.655887,743.184007 560,736.855266 560,728.540007 C560,720.224748 562.655887,713.896007 567.967742,709.553594 C573.279596,705.211181 579.290289,703.040007 586,703.040007 C592.709711,703.040007 598.720404,705.211181 604.032258,709.553594 C609.344113,713.896007 612,720.224748 612,728.540007 Z M787.783167,750.040007 C786.043602,744.31085 784.134625,738.445361 782.056191,732.443409 L781.002853,729.43106 C778.512113,722.37571 776.067523,715.320465 773.669044,708.265115 L698.947218,708.265115 C697.348225,712.968682 695.728747,717.672202 694.088765,722.375737 L691.613409,729.43106 C689.122669,736.48641 686.862587,743.355991 684.833096,750.040007 L640,750.040007 L643.774885,739.178504 C649.59329,722.512219 655.161395,706.916377 660.479315,692.390656 L663.238327,684.893886 C668.739397,670.025413 674.138755,655.907317 679.436519,642.539285 L682.519188,634.80704 C687.644146,622.029584 692.705,609.800206 697.701854,598.11865 C703.69808,584.100783 709.924837,570.408039 716.382311,557.040007 L757.617689,557.040007 C763.890664,570.408039 770.071296,584.100783 776.159772,598.11865 C781.740874,610.968362 787.360657,624.480937 793.019262,638.656719 L794.563481,642.539285 C800.744206,658.135323 807.063211,674.75228 813.520685,692.390656 L815.815111,698.681484 C821.589472,714.572352 827.651055,731.691727 834,750.040007 L787.783167,750.040007 Z M736.360406,601.040007 L735.963338,602.209 C735.189884,604.452044 734.166202,607.244477 732.892276,610.586344 L723.719656,634.49355 C721.867635,639.344553 719.892565,644.539401 717.794416,650.078175 L715.621982,655.859673 C713.440829,661.710814 711.233514,667.770891 709,674.040007 L764,674.040007 L761.783942,667.840567 C760.318207,663.754055 758.875743,659.760434 757.456539,655.859673 L755.345178,650.078175 C753.111664,643.985523 750.967516,638.309022 748.912694,633.048565 L743.863577,620.265195 C742.770095,617.478942 741.758042,614.878441 740.827411,612.463671 L738.975652,607.680111 C737.950066,605.04454 737.078321,602.831182 736.360406,601.040007 Z M915,728.540007 C915,736.855266 912.344113,743.184007 907.032258,747.52642 C901.720404,751.868833 895.709711,754.040007 889,754.040007 C882.290289,754.040007 876.279596,751.868833 870.967742,747.52642 C865.655887,743.184007 863,736.855266 863,728.540007 C863,720.224748 865.655887,713.896007 870.967742,709.553594 C876.279596,705.211181 882.290289,703.040007 889,703.040007 C895.709711,703.040007 901.720404,705.211181 907.032258,709.553594 C912.344113,713.896007 915,720.224748 915,728.540007 Z M1030.77855,754.040007 C999.590386,754.040007 975.830531,745.329167 959.49827,727.907227 C943.166008,710.485286 935,685.742795 935,653.679011 C935,637.739789 937.491325,623.515173 942.474048,611.004737 C947.456772,598.494301 954.284847,587.930091 962.958478,579.311791 C971.632108,570.693491 981.966491,564.160361 993.961938,559.712206 C1005.95738,555.264051 1018.96763,553.040007 1032.99308,553.040007 C1041.11307,553.040007 1048.49478,553.642352 1055.13841,554.847061 C1061.78204,556.051769 1067.59513,557.441797 1072.57785,559.017185 C1077.14535,560.461291 1081.01498,561.944311 1084.18685,563.466282 L1085.0346,563.88233 C1088.35642,565.550388 1090.75547,566.847748 1092.23183,567.774447 L1079.77509,602.803492 C1073.86964,599.652716 1066.99543,596.965329 1059.15225,594.741251 C1051.30907,592.517174 1042.40489,591.405152 1032.43945,591.405152 C1025.79581,591.405152 1019.29069,592.517174 1012.92388,594.741251 C1006.55706,596.965329 1000.92851,600.533066 996.038062,605.444571 C991.147611,610.356075 987.226082,616.703868 984.273356,624.488139 C981.320631,632.272411 979.844291,641.724598 979.844291,652.844986 C979.844291,661.741296 980.813139,670.035127 982.750865,677.726729 C984.688591,685.41833 987.825815,692.044128 992.16263,697.604322 C996.499445,703.164516 1002.17413,707.56627 1009.18685,710.809716 C1016.19957,714.053146 1024.68853,715.674861 1034.65398,715.674861 C1040.92852,715.674861 1046.55707,715.304187 1051.53979,714.562828 C1056.52252,713.821469 1060.95154,712.941118 1064.82699,711.921749 C1068.70244,710.902381 1072.11648,709.744024 1075.0692,708.446646 L1078.71301,706.829656 C1080.26469,706.13369 1081.72598,705.467985 1083.09689,704.832538 L1095,739.583575 C1088.91,743.290371 1080.32878,746.626437 1069.25606,749.591874 C1058.18334,752.557311 1045.35763,754.040007 1030.77855,754.040007 Z M1177,728.540007 C1177,736.855266 1174.34411,743.184007 1169.03226,747.52642 C1163.7204,751.868833 1157.70971,754.040007 1151,754.040007 C1144.29029,754.040007 1138.2796,751.868833 1132.96774,747.52642 C1127.65589,743.184007 1125,736.855266 1125,728.540007 C1125,720.224748 1127.65589,713.896007 1132.96774,709.553594 C1138.2796,705.211181 1144.29029,703.040007 1151,703.040007 C1157.70971,703.040007 1163.7204,705.211181 1169.03226,709.553594 C1174.34411,713.896007 1177,720.224748 1177,728.540007 Z M1292.77855,754.040007 C1261.59039,754.040007 1237.83053,745.329167 1221.49827,727.907227 C1205.16601,710.485286 1197,685.742795 1197,653.679011 C1197,637.739789 1199.49132,623.515173 1204.47405,611.004737 C1209.45677,598.494301 1216.28485,587.930091 1224.95848,579.311791 C1233.63211,570.693491 1243.96649,564.160361 1255.96194,559.712206 C1267.95738,555.264051 1280.96763,553.040007 1294.99308,553.040007 C1303.11307,553.040007 1310.49478,553.642352 1317.13841,554.847061 C1323.78204,556.051769 1329.59513,557.441797 1334.57785,559.017185 C1339.14535,560.461291 1343.01498,561.944311 1346.18685,563.466282 L1347.0346,563.88233 C1350.35642,565.550388 1352.75547,566.847748 1354.23183,567.774447 L1341.77509,602.803492 C1335.86964,599.652716 1328.99543,596.965329 1321.15225,594.741251 C1313.30907,592.517174 1304.40489,591.405152 1294.43945,591.405152 C1287.79581,591.405152 1281.29069,592.517174 1274.92388,594.741251 C1268.55706,596.965329 1262.92851,600.533066 1258.03806,605.444571 C1253.14761,610.356075 1249.22608,616.703868 1246.27336,624.488139 C1243.32063,632.272411 1241.84429,641.724598 1241.84429,652.844986 C1241.84429,661.741296 1242.81314,670.035127 1244.75087,677.726729 C1246.68859,685.41833 1249.82581,692.044128 1254.16263,697.604322 C1258.49944,703.164516 1264.17413,707.56627 1271.18685,710.809716 C1278.19957,714.053146 1286.68853,715.674861 1296.65398,715.674861 C1302.92852,715.674861 1308.55707,715.304187 1313.53979,714.562828 C1318.52252,713.821469 1322.95154,712.941118 1326.82699,711.921749 C1330.70244,710.902381 1334.11648,709.744024 1337.0692,708.446646 L1340.71301,706.829656 C1342.26469,706.13369 1343.72598,705.467985 1345.09689,704.832538 L1357,739.583575 C1350.91,743.290371 1342.32878,746.626437 1331.25606,749.591874 C1320.18334,752.557311 1307.35763,754.040007 1292.77855,754.040007 Z M1438,728.540007 C1438,736.855266 1435.34411,743.184007 1430.03226,747.52642 C1424.7204,751.868833 1418.70971,754.040007 1412,754.040007 C1405.29029,754.040007 1399.2796,751.868833 1393.96774,747.52642 C1388.65589,743.184007 1386,736.855266 1386,728.540007 C1386,720.224748 1388.65589,713.896007 1393.96774,709.553594 C1399.2796,705.211181 1405.29029,703.040007 1412,703.040007 C1418.70971,703.040007 1424.7204,705.211181 1430.03226,709.553594 C1435.34411,713.896007 1438,720.224748 1438,728.540007 Z" id="path-3"></path>
        <filter x="-0.9%" y="-6.2%" width="102.6%" height="117.4%" filterUnits="objectBoundingBox" id="filter-4">
            <feOffset dx="5" dy="5" in="SourceAlpha" result="shadowOffsetOuter1"></feOffset>
            <feGaussianBlur stdDeviation="5" in="shadowOffsetOuter1" result="shadowBlurOuter1"></feGaussianBlur>
            <feColorMatrix values="0 0 0 0 0   0 0 0 0 0   0 0 0 0 0  0 0 0 0.22 0" type="matrix" in="shadowBlurOuter1"></feColorMatrix>
        </filter>
        <linearGradient x1="2.44820263%" y1="2.42420066%" x2="123.107123%" y2="83.7301721%" id="linearGradient-5">
            <stop stop-color="#DA1AE6" offset="0%"></stop>
            <stop stop-color="#140CF7" offset="100%"></stop>
        </linearGradient>
        <radialGradient cx="22.7020292%" cy="10.5129709%" fx="22.7020292%" fy="10.5129709%" r="106.771338%" id="radialGradient-6">
            <stop stop-color="#FFFFFF" offset="0%"></stop>
            <stop stop-color="#000000" offset="100%"></stop>
        </radialGradient>
        <circle id="path-7" cx="251.329394" cy="177.969341" r="177"></circle>
        <linearGradient x1="2.44820263%" y1="6.94833062%" x2="123.107123%" y2="80.5226657%" id="linearGradient-8">
            <stop stop-color="#DA1AE6" offset="0%"></stop>
            <stop stop-color="#140CF7" offset="100%"></stop>
        </linearGradient>
        <linearGradient x1="2.44820263%" y1="6.97559224%" x2="123.107123%" y2="80.5033378%" id="linearGradient-9">
            <stop stop-color="#DA1AE6" offset="0%"></stop>
            <stop stop-color="#140CF7" offset="100%"></stop>
        </linearGradient>
        <linearGradient x1="0%" y1="0%" x2="121.685048%" y2="116.428996%" id="linearGradient-10">
            <stop stop-color="#FFCC23" offset="0%"></stop>
            <stop stop-color="#E3209C" offset="94.1067558%"></stop>
            <stop stop-color="#E115A3" offset="100%"></stop>
        </linearGradient>
        <radialGradient cx="18.6747732%" cy="15.2748902%" fx="18.6747732%" fy="15.2748902%" r="97.5652458%" id="radialGradient-11">
            <stop stop-color="#FFFFFF" offset="0%"></stop>
            <stop stop-color="#000000" offset="100%"></stop>
        </radialGradient>
        <circle id="path-12" cx="1209.38018" cy="184.655233" r="177"></circle>
        <linearGradient x1="0%" y1="11.7383026%" x2="121.685048%" y2="100.833723%" id="linearGradient-13">
            <stop stop-color="#FFCC23" offset="0%"></stop>
            <stop stop-color="#E3209C" offset="94.1067558%"></stop>
            <stop stop-color="#E115A3" offset="100%"></stop>
        </linearGradient>
        <linearGradient x1="0%" y1="11.1313789%" x2="121.685048%" y2="101.64007%" id="linearGradient-14">
            <stop stop-color="#FFCC23" offset="0%"></stop>
            <stop stop-color="#E3209C" offset="94.1067558%"></stop>
            <stop stop-color="#E115A3" offset="100%"></stop>
        </linearGradient>
        <linearGradient x1="0%" y1="42.7144228%" x2="121.685048%" y2="59.6794716%" id="linearGradient-15">
            <stop stop-color="#FFCC23" offset="0%"></stop>
            <stop stop-color="#E3209C" offset="94.1067558%"></stop>
            <stop stop-color="#E115A3" offset="100%"></stop>
        </linearGradient>
        <linearGradient x1="2.44820263%" y1="7.03954896%" x2="123.107123%" y2="80.457994%" id="linearGradient-16">
            <stop stop-color="#DA1AE6" offset="0%"></stop>
            <stop stop-color="#140CF7" offset="100%"></stop>
        </linearGradient>
        <linearGradient x1="2.44820263%" y1="40.6995742%" x2="123.107123%" y2="56.5937928%" id="linearGradient-17">
            <stop stop-color="#DA1AE6" offset="0%"></stop>
            <stop stop-color="#140CF7" offset="100%"></stop>
        </linearGradient>
        <linearGradient x1="0%" y1="20.3752597%" x2="97.0651377%" y2="77.3220209%" id="linearGradient-18">
            <stop stop-color="#06DFA7" offset="0%"></stop>
            <stop stop-color="#BFF968" offset="100%"></stop>
        </linearGradient>
        <linearGradient x1="0%" y1="37.8267832%" x2="97.6494292%" y2="61.3678569%" id="linearGradient-19">
            <stop stop-color="#0685DF" offset="0%"></stop>
            <stop stop-color="#68F9E8" offset="100%"></stop>
        </linearGradient>
        <linearGradient x1="0%" y1="11.6954%" x2="121.685048%" y2="100.890723%" id="linearGradient-20">
            <stop stop-color="#FFCC23" offset="0%"></stop>
            <stop stop-color="#E3209C" offset="94.1067558%"></stop>
            <stop stop-color="#E115A3" offset="100%"></stop>
        </linearGradient>
    </defs>
    <g id="Artboard" stroke="none" stroke-width="1" fill="none" fill-rule="evenodd">
        <g id="BispecifcAntibodiesAgainstColorectalCancer" fill-rule="nonzero">
            <use fill="black" fill-opacity="1" filter="url(#filter-2)" xlink:href="#path-1"></use>
            <use fill="#B1E6FF" xlink:href="#path-1"></use>
        </g>
        <g id="B.A.A.C.C." fill-rule="nonzero">
            <use fill="black" fill-opacity="1" filter="url(#filter-4)" xlink:href="#path-3"></use>
            <use fill="#FFFFFF" xlink:href="#path-3"></use>
        </g>
        <g id="Group-7" transform="translate(2216.500000, 604.040007) rotate(-13.000000) translate(-2216.500000, -604.040007) translate(1498.000000, 386.040007)" fill-rule="nonzero">
            <g id="Oval">
                <use fill="url(#linearGradient-5)" xlink:href="#path-7"></use>
                <use fill-opacity="0.25" fill="#FFFFFF" xlink:href="#path-7"></use>
                <use fill-opacity="0.3" fill="url(#radialGradient-6)" style="mix-blend-mode: overlay;" xlink:href="#path-7"></use>
            </g>
            <polygon id="Polygon" stroke="url(#linearGradient-8)" stroke-width="9" transform="translate(47.490983, 192.239233) rotate(64.000000) translate(-47.490983, -192.239233) " points="47.4940533 157.78208 83.7134013 184.099779 69.8727006 226.691162 25.0993292 226.696386 11.2685645 184.108231"></polygon>
            <polygon id="Polygon" stroke="url(#linearGradient-9)" stroke-width="9" transform="translate(266.630741, 387.127802) rotate(31.000000) translate(-266.630741, -387.127802) " points="266.634182 352.676026 302.858979 378.988988 289.015457 421.573725 244.234892 421.579578 230.402503 378.998458"></polygon>
            <g id="Oval">
                <use fill="url(#linearGradient-10)" xlink:href="#path-12"></use>
                <use fill-opacity="0.3" fill="#FFFFFF" xlink:href="#path-12"></use>
                <use fill-opacity="0.3" fill="url(#radialGradient-11)" style="mix-blend-mode: overlay;" xlink:href="#path-12"></use>
            </g>
            <polygon id="Triangle" stroke="url(#linearGradient-13)" stroke-width="9" transform="translate(1247.738058, 390.003840) rotate(171.000000) translate(-1247.738058, -390.003840) " points="1247.73556 362.741608 1278.90285 417.266071 1216.57326 417.26322"></polygon>
            <g id="Group-2" transform="translate(855.725359, 152.840693)">
                <polygon id="Triangle" stroke="url(#linearGradient-14)" stroke-width="9" transform="translate(161.185139, 37.363903) rotate(20.000000) translate(-161.185139, -37.363903) " points="161.044246 9.9182538 192.313693 64.8095522 130.056586 64.6485317"></polygon>
                <path d="M104.624577,45.8093333 L91.5906057,56.9239468 L118.950577,66.9523333 L0.796577119,66.952381 L0.796577119,45.8095238 L104.624577,45.8093333 Z M143.882577,12.3333333 L119.088577,33.4753333 L0.796577119,33.4761905 L0.796577119,12.3333333 L143.882577,12.3333333 Z" id="Combined-Shape" fill="url(#linearGradient-15)"></path>
            </g>
            <g id="Group" transform="translate(409.688213, 139.712482)">
                <polygon id="Polygon" stroke="url(#linearGradient-16)" stroke-width="9" transform="translate(49.430956, 48.860592) rotate(30.000000) translate(-49.430956, -48.860592) " points="49.4576271 14.4012363 85.6941272 40.6804661 71.799674 83.2745717 26.9759295 83.319947 13.1677851 40.7538848"></polygon>
                <path d="M212.054633,59.5 L212.054633,80.5 L89.3555342,80.5 L107.228776,64.3086179 L105.100534,59.5 L212.054633,59.5 Z M212.054633,26.25 L212.054633,47.25 L99.6805342,47.25 L90.3875342,26.25 L212.054633,26.25 Z" id="Combined-Shape" fill="url(#linearGradient-17)"></path>
            </g>
            <path d="M669.681683,181.612311 L750.520764,181.612311 C755.215184,181.612311 759.020764,185.417891 759.020764,190.112311 L759.020764,197.560072 C759.020764,202.254493 755.215184,206.060072 750.520764,206.060072 L669.681683,206.060072 C664.987263,206.060072 661.181683,202.254493 661.181683,197.560072 L661.181683,190.112311 C661.181683,185.417891 664.987263,181.612311 669.681683,181.612311 Z M659.28068,192.801366 C659.28068,169.619145 638.497535,150.114799 615.474926,150.114799 L615.474926,150.085068 C615.250138,150.104751 615.02261,150.114799 614.792752,150.114799 C610.500401,150.114799 607.020764,146.611037 607.020764,142.288928 C607.020764,137.966819 610.500401,134.463057 614.792752,134.463057 C614.945991,134.463057 615.173382,134.463057 615.474926,134.463057 C647.47245,134.463057 673.411568,160.582008 673.411568,192.801366 C673.411568,224.849666 647.821594,251.10037 616.059286,251.359662 C615.647116,251.427684 615.224037,251.463057 614.792752,251.463057 C610.500401,251.463057 607.020764,247.959296 607.020764,243.637187 C607.020764,239.315078 610.500401,235.811316 614.792752,235.811316 C615.209379,235.811316 615.61835,235.844326 616.017225,235.907889 C638.852089,235.673599 659.28068,215.826713 659.28068,192.801366 Z" id="Combined-Shape" fill="url(#linearGradient-18)" transform="translate(683.020764, 192.963057) scale(-1, 1) translate(-683.020764, -192.963057) "></path>
            <path d="M828.190857,155.473085 C848.93645,155.473085 865.754076,172.262407 865.754076,192.973085 C865.754076,213.683764 848.93645,230.473085 828.190857,230.473085 C812.054263,230.473085 798.294179,220.315155 792.976568,206.055045 L722.254076,206.054481 C717.559655,206.054481 713.754076,202.248901 713.754076,197.554481 L713.754076,190.135876 C713.754076,185.441456 717.559655,181.635876 722.254076,181.635876 L792.37489,181.63574 C797.188366,166.466714 811.403598,155.473085 828.190857,155.473085 Z" id="Combined-Shape" fill="url(#linearGradient-19)" transform="translate(789.754076, 192.973085) scale(-1, 1) translate(-789.754076, -192.973085) "></path>
            <polygon id="Triangle" stroke="url(#linearGradient-20)" stroke-width="9" transform="translate(1403.481034, 112.434676) rotate(78.000000) translate(-1403.481034, -112.434676) " points="1403.48432 85.1646929 1434.63723 139.700906 1372.32484 139.704659"></polygon>
        </g>
    </g>
</svg>