<?xml version="1.0" encoding="UTF-8"?>
<svg width="723px" height="279px" viewBox="0 0 723 279" version="1.1" xmlns="http://www.w3.org/2000/svg" xmlns:xlink="http://www.w3.org/1999/xlink">
    <!-- Generator: Sketch 58 (84663) - https://sketch.com -->
    <title>Group 4</title>
    <desc>Created with Sketch.</desc>
    <defs>
        <linearGradient x1="0%" y1="0%" x2="121.685048%" y2="116.428996%" id="linearGradient-1">
            <stop stop-color="#FFCC23" offset="0%"></stop>
            <stop stop-color="#E3209C" offset="94.1067558%"></stop>
            <stop stop-color="#E115A3" offset="100%"></stop>
        </linearGradient>
        <radialGradient cx="18.6747732%" cy="15.2748902%" fx="18.6747732%" fy="15.2748902%" r="97.5652458%" id="radialGradient-2">
            <stop stop-color="#FFFFFF" offset="0%"></stop>
            <stop stop-color="#000000" offset="100%"></stop>
        </radialGradient>
        <circle id="path-3" cx="586.935533" cy="105" r="101"></circle>
        <linearGradient x1="2.44820263%" y1="2.42420066%" x2="123.107123%" y2="83.7301721%" id="linearGradient-4">
            <stop stop-color="#DA1AE6" offset="0%"></stop>
            <stop stop-color="#140CF7" offset="100%"></stop>
        </linearGradient>
        <radialGradient cx="22.7020292%" cy="10.5129709%" fx="22.7020292%" fy="10.5129709%" r="106.771338%" id="radialGradient-5">
            <stop stop-color="#FFFFFF" offset="0%"></stop>
            <stop stop-color="#000000" offset="100%"></stop>
        </radialGradient>
        <circle id="path-6" cx="143.935533" cy="101" r="101"></circle>
        <linearGradient x1="0%" y1="11.71875%" x2="121.685048%" y2="100.8597%" id="linearGradient-7">
            <stop stop-color="#FFCC23" offset="0%"></stop>
            <stop stop-color="#E3209C" offset="94.1067558%"></stop>
            <stop stop-color="#E115A3" offset="100%"></stop>
        </linearGradient>
        <linearGradient x1="2.44820263%" y1="6.96728524%" x2="123.107123%" y2="80.5092273%" id="linearGradient-8">
            <stop stop-color="#DA1AE6" offset="0%"></stop>
            <stop stop-color="#140CF7" offset="100%"></stop>
        </linearGradient>
        <linearGradient x1="0%" y1="39.2363778%" x2="121.685048%" y2="64.3003324%" id="linearGradient-9">
            <stop stop-color="#FFCC23" offset="0%"></stop>
            <stop stop-color="#E3209C" offset="94.1067558%"></stop>
            <stop stop-color="#E115A3" offset="100%"></stop>
        </linearGradient>
        <linearGradient x1="2.44820263%" y1="37.3455526%" x2="123.107123%" y2="58.9717187%" id="linearGradient-10">
            <stop stop-color="#DA1AE6" offset="0%"></stop>
            <stop stop-color="#140CF7" offset="100%"></stop>
        </linearGradient>
        <linearGradient x1="0%" y1="18%" x2="97.0651377%" y2="79.5126526%" id="linearGradient-11">
            <stop stop-color="#06DFA7" offset="0%"></stop>
            <stop stop-color="#BFF968" offset="100%"></stop>
        </linearGradient>
        <linearGradient x1="0%" y1="34.5679012%" x2="97.6494292%" y2="64.4111366%" id="linearGradient-12">
            <stop stop-color="#0685DF" offset="0%"></stop>
            <stop stop-color="#68F9E8" offset="100%"></stop>
        </linearGradient>
    </defs>
    <g id="construct-design" stroke="none" stroke-width="1" fill="none" fill-rule="evenodd">
        <g id="Tag-und-Catcher" transform="translate(-552.000000, -466.000000)">
            <g id="Group-4" transform="translate(553.064467, 466.000000)">
                <g id="Group-3">
                    <g id="Oval" fill-rule="nonzero">
                        <use fill-opacity="0.5" fill="url(#linearGradient-1)" xlink:href="#path-3"></use>
                        <use fill-opacity="0.3" fill="url(#radialGradient-2)" style="mix-blend-mode: overlay;" xlink:href="#path-3"></use>
                    </g>
                    <g id="Oval" fill-rule="nonzero">
                        <use fill-opacity="0.5" fill="url(#linearGradient-4)" xlink:href="#path-6"></use>
                        <use fill-opacity="0.3" fill="url(#radialGradient-5)" style="mix-blend-mode: overlay;" xlink:href="#path-6"></use>
                    </g>
                    <path d="M285.212053,278.24 C283.612045,278.24 282.15606,277.880004 280.844053,277.16 C280.572052,276.967999 280.436053,276.704002 280.436053,276.368 C280.436053,276.111999 280.524052,275.888001 280.700053,275.696 C280.876054,275.503999 281.100052,275.408 281.372053,275.408 C281.480054,275.408 281.588053,275.426 281.696053,275.462 L281.804053,275.504 C282.316056,275.728001 282.828051,275.903999 283.340053,276.032 C283.852056,276.160001 284.42805,276.224 285.068053,276.224 C286.844062,276.224 287.732053,275.656006 287.732053,274.52 C287.732053,274.151998 287.528055,273.872001 287.120053,273.68 C286.712051,273.487999 286.044058,273.272001 285.116053,273.032 C284.172049,272.807999 283.392056,272.576001 282.776053,272.336 C282.16005,272.095999 281.632056,271.732002 281.192053,271.244 C280.752051,270.755998 280.532053,270.112004 280.532053,269.312 C280.532053,268.191994 280.936053,267.280004 281.744053,266.576 C282.552057,265.871996 283.708046,265.52 285.212053,265.52 C286.30717,265.52 287.345384,265.678023 288.326719,265.994074 L288.692053,266.12 C288.916054,266.184 289.088053,266.303999 289.208053,266.48 C289.328054,266.656001 289.388053,266.839999 289.388053,267.032 C289.388053,267.288001 289.296054,267.511999 289.112053,267.704 C288.928052,267.896001 288.700055,267.992 288.428053,267.992 C288.348053,267.992 288.244054,267.976 288.116053,267.944 C287.188049,267.655999 286.276058,267.512 285.380053,267.512 C284.516049,267.512 283.840056,267.667998 283.352053,267.98 C282.864051,268.292002 282.620053,268.695998 282.620053,269.192 C282.620053,269.672002 282.844051,270.023999 283.292053,270.248 C283.740056,270.472001 284.436053,270.687999 285.380053,270.896 C286.324058,271.136001 287.09205,271.371999 287.684053,271.604 C288.276056,271.836001 288.784051,272.199998 289.208053,272.696 C289.632055,273.192002 289.844053,273.855996 289.844053,274.688 C289.844053,275.712005 289.440057,276.559997 288.632053,277.232 C287.824049,277.904003 286.684061,278.24 285.212053,278.24 Z M297.782836,278.24 C296.902832,278.24 296.138839,278.032002 295.490836,277.616 C294.842833,277.199998 294.346838,276.632004 294.002836,275.912 C293.658834,275.191996 293.486836,274.400004 293.486836,273.536 L293.486836,266.72 C293.486836,266.415998 293.594835,266.160001 293.810836,265.952 C294.026837,265.743999 294.286835,265.64 294.590836,265.64 C294.894838,265.64 295.150835,265.743999 295.358836,265.952 C295.566837,266.160001 295.670836,266.415998 295.670836,266.72 L295.670836,273.296 C295.670836,275.24801 296.550827,276.224 298.310836,276.224 C299.11084,276.224 299.826833,276.016002 300.458836,275.6 C301.090839,275.183998 301.686833,274.624004 302.246836,273.92 L302.246836,266.72 C302.246836,266.415998 302.354835,266.160001 302.570836,265.952 C302.786837,265.743999 303.046835,265.64 303.350836,265.64 C303.654838,265.64 303.910835,265.743999 304.118836,265.952 C304.326837,266.160001 304.430836,266.415998 304.430836,266.72 L304.430836,277.016 C304.430836,277.320002 304.326837,277.579999 304.118836,277.796 C303.910835,278.012001 303.654838,278.12 303.350836,278.12 C303.046835,278.12 302.786837,278.012001 302.570836,277.796 C302.354835,277.579999 302.246836,277.320002 302.246836,277.016 L302.246836,276.032 C301.638833,276.704003 300.98284,277.239998 300.278836,277.64 C299.574833,278.040002 298.742841,278.24 297.782836,278.24 Z M310.137619,278.12 C309.833617,278.12 309.57762,278.016001 309.369619,277.808 C309.161618,277.599999 309.057619,277.344002 309.057619,277.04 L309.057619,266.744 C309.057619,266.439998 309.161618,266.180001 309.369619,265.964 C309.57762,265.747999 309.833617,265.64 310.137619,265.64 C310.44162,265.64 310.701618,265.747999 310.917619,265.964 C311.13362,266.180001 311.241619,266.439998 311.241619,266.744 L311.241619,267.776 C312.361625,266.271992 313.617612,265.52 315.009619,265.52 L315.129619,265.52 C315.43362,265.52 315.685618,265.623999 315.885619,265.832 C316.08562,266.040001 316.185619,266.295998 316.185619,266.6 C316.185619,266.904002 316.08162,267.151999 315.873619,267.344 C315.665618,267.536001 315.401621,267.632 315.081619,267.632 L314.961619,267.632 C314.193615,267.632 313.489622,267.819998 312.849619,268.196 C312.209616,268.572002 311.673621,269.087997 311.241619,269.744 L311.241619,277.04 C311.241619,277.344002 311.13362,277.599999 310.917619,277.808 C310.701618,278.016001 310.44162,278.12 310.137619,278.12 Z M321.076402,278.12 C320.7724,278.12 320.516403,278.016001 320.308402,277.808 C320.100401,277.599999 319.996402,277.344002 319.996402,277.04 L319.996402,267.632 L318.580402,267.632 C318.3244,267.632 318.104403,267.540001 317.920402,267.356 C317.736401,267.171999 317.644402,266.952001 317.644402,266.696 C317.644402,266.423999 317.736401,266.200001 317.920402,266.024 C318.104403,265.847999 318.3244,265.76 318.580402,265.76 L319.996402,265.76 L319.996402,264.368 C319.996402,263.407995 320.1684,262.620003 320.512402,262.004 C320.856403,261.387997 321.304399,260.940001 321.856402,260.66 C322.408405,260.379999 322.988399,260.24 323.596402,260.24 C324.348406,260.24 325.044399,260.399998 325.684402,260.72 C325.844403,260.8 325.976401,260.915999 326.080402,261.068 C326.184402,261.220001 326.236402,261.383999 326.236402,261.56 C326.236402,261.800001 326.148403,262.011999 325.972402,262.196 C325.796401,262.380001 325.588403,262.472 325.348402,262.472 C325.172401,262.472 324.988403,262.448 324.796402,262.4 L324.346401,262.346 C324.238401,262.334 324.172402,262.328 324.148402,262.328 C323.492398,262.328 323.000403,262.479998 322.672402,262.784 C322.3444,263.088002 322.180402,263.639996 322.180402,264.44 L322.180402,265.76 L325.180402,265.76 C325.452403,265.76 325.676401,265.847999 325.852402,266.024 C326.028403,266.200001 326.116402,266.423999 326.116402,266.696 C326.116402,266.952001 326.028403,267.171999 325.852402,267.356 C325.676401,267.540001 325.452403,267.632 325.180402,267.632 L322.180402,267.632 L322.180402,277.04 C322.180402,277.344002 322.072403,277.599999 321.856402,277.808 C321.640401,278.016001 321.380403,278.12 321.076402,278.12 Z M331.823185,278.24 C331.119181,278.24 330.467188,278.096001 329.867185,277.808 C329.267182,277.52 328.791186,277.100003 328.439185,276.548 C328.087183,275.995997 327.911185,275.360004 327.911185,274.64 C327.911185,273.455994 328.37918,272.512004 329.315185,271.808 C330.251189,271.103996 331.623176,270.752 333.431185,270.752 L336.335185,270.752 L336.335185,270.56 C336.335185,269.503995 336.075187,268.744002 335.555185,268.28 C335.035182,267.815998 334.22319,267.584 333.119185,267.584 C332.511182,267.584 331.971187,267.632 331.499185,267.728 C331.027182,267.824 330.503187,267.967999 329.927185,268.16 C329.799184,268.192 329.695185,268.208 329.615185,268.208 C329.375183,268.208 329.167185,268.120001 328.991185,267.944 C328.815184,267.767999 328.727185,267.552001 328.727185,267.296 C328.727185,266.863998 328.935182,266.560001 329.351185,266.384 C330.711191,265.807997 332.095178,265.52 333.503185,265.52 C334.60719,265.52 335.539181,265.743998 336.299185,266.192 C337.059188,266.640002 337.619183,267.219996 337.979185,267.932 C338.339186,268.644004 338.519185,269.415996 338.519185,270.248 L338.519185,277.04 C338.519185,277.344002 338.411185,277.599999 338.195185,277.808 C337.979183,278.016001 337.719186,278.12 337.415185,278.12 C337.111183,278.12 336.855186,278.016001 336.647185,277.808 C336.439184,277.599999 336.335185,277.344002 336.335185,277.04 L336.335185,276.416 C335.151179,277.632006 333.647194,278.24 331.823185,278.24 Z M332.639185,276.32 C333.343188,276.32 334.023181,276.148002 334.679185,275.804 C335.335188,275.459998 335.887182,275.032003 336.335185,274.52 L336.335185,272.504 L333.719185,272.504 C331.303172,272.504 330.095185,273.135994 330.095185,274.4 C330.095185,274.976003 330.291183,275.439998 330.683185,275.792 C331.075187,276.144002 331.72718,276.32 332.639185,276.32 Z M348.689967,278.24 C347.537962,278.24 346.473972,277.984003 345.497967,277.472 C344.521962,276.959997 343.74197,276.224005 343.157967,275.264 C342.573964,274.303995 342.281967,273.176006 342.281967,271.88 C342.281967,270.583994 342.573964,269.456005 343.157967,268.496 C343.74197,267.535995 344.521962,266.800003 345.497967,266.288 C346.473972,265.775997 347.537962,265.52 348.689967,265.52 C349.537972,265.52 350.269964,265.627999 350.885967,265.844 C351.50197,266.060001 352.073965,266.335998 352.601967,266.672 C352.921969,266.880001 353.081967,267.159998 353.081967,267.512 C353.081967,267.752001 352.989968,267.971999 352.805967,268.172 C352.621966,268.372001 352.409969,268.472 352.169967,268.472 C351.993966,268.472 351.817968,268.424 351.641967,268.328 C351.113965,268.055999 350.661969,267.860001 350.285967,267.74 C349.909965,267.619999 349.44197,267.56 348.881967,267.56 C347.50596,267.56 346.425971,267.955996 345.641967,268.748 C344.857963,269.540004 344.465967,270.583994 344.465967,271.88 C344.465967,273.176006 344.857963,274.219996 345.641967,275.012 C346.425971,275.804004 347.50596,276.2 348.881967,276.2 C349.44197,276.2 349.909965,276.140001 350.285967,276.02 C350.599302,275.92 350.96541,275.767223 351.3843,275.561667 L351.641967,275.432 C351.817968,275.336 351.993966,275.288 352.169967,275.288 C352.409969,275.288 352.621966,275.387999 352.805967,275.588 C352.989968,275.788001 353.081967,276.007999 353.081967,276.248 C353.081967,276.600002 352.921969,276.879999 352.601967,277.088 C352.073965,277.424002 351.50197,277.699999 350.885967,277.916 C350.269964,278.132001 349.537972,278.24 348.689967,278.24 Z M362.02875,278.24 C360.07674,278.24 358.552756,277.684006 357.45675,276.572 C356.360745,275.459994 355.81275,273.89601 355.81275,271.88 C355.81275,270.743994 356.020748,269.696005 356.43675,268.736 C356.852752,267.775995 357.492746,267.000003 358.35675,266.408 C359.220754,265.815997 360.284744,265.52 361.54875,265.52 C362.732756,265.52 363.756746,265.795997 364.62075,266.348 C365.484754,266.900003 366.140748,267.635995 366.58875,268.556 C367.036752,269.476005 367.26075,270.479995 367.26075,271.568 C367.26075,271.872002 367.160751,272.127999 366.96075,272.336 C366.760749,272.544001 366.492752,272.648 366.15675,272.648 L358.02075,272.648 C358.148751,273.768006 358.564747,274.639997 359.26875,275.264 C359.972754,275.888003 360.956744,276.2 362.22075,276.2 C362.892754,276.2 363.480748,276.136001 363.98475,276.008 C364.488753,275.879999 364.980748,275.696001 365.46075,275.456 C365.588751,275.392 365.732749,275.36 365.89275,275.36 C366.148751,275.36 366.372749,275.447999 366.56475,275.624 C366.756751,275.800001 366.85275,276.023999 366.85275,276.296 C366.85275,276.648002 366.644752,276.943999 366.22875,277.184 C365.604747,277.536002 364.988753,277.799999 364.38075,277.976 C363.772747,278.152001 362.988755,278.24 362.02875,278.24 Z M365.10075,270.872 C365.05275,270.087996 364.848752,269.432003 364.48875,268.904 C364.128748,268.375997 363.684753,267.988001 363.15675,267.74 C362.628748,267.491999 362.092753,267.368 361.54875,267.368 C361.004747,267.368 360.468753,267.491999 359.94075,267.74 C359.412748,267.988001 358.972752,268.375997 358.62075,268.904 C358.268748,269.432003 358.06875,270.087996 358.02075,270.872 L365.10075,270.872 Z M379.130316,278.12 C378.826314,278.12 378.570317,278.016001 378.362316,277.808 C378.154315,277.599999 378.050316,277.344002 378.050316,277.04 L378.050316,266.744 C378.050316,266.439998 378.154315,266.180001 378.362316,265.964 C378.570317,265.747999 378.826314,265.64 379.130316,265.64 C379.434317,265.64 379.694315,265.747999 379.910316,265.964 C380.126317,266.180001 380.234316,266.439998 380.234316,266.744 L380.234316,267.728 C380.682318,267.087997 381.222313,266.560002 381.854316,266.144 C382.486319,265.727998 383.306311,265.52 384.314316,265.52 C385.21032,265.52 385.978313,265.759998 386.618316,266.24 C387.258319,266.720002 387.714314,267.303997 387.986316,267.992 C388.978321,266.343992 390.450306,265.52 392.402316,265.52 C393.29832,265.52 394.046313,265.743998 394.646316,266.192 C395.246319,266.640002 395.690314,267.215996 395.978316,267.92 C396.266317,268.624004 396.410316,269.359996 396.410316,270.128 L396.410316,277.04 C396.410316,277.344002 396.302317,277.599999 396.086316,277.808 C395.870315,278.016001 395.610317,278.12 395.306316,278.12 C395.002314,278.12 394.746317,278.016001 394.538316,277.808 C394.330315,277.599999 394.226316,277.344002 394.226316,277.04 L394.226316,270.56 C394.226316,269.52 394.042318,268.756002 393.674316,268.268 C393.306314,267.779998 392.67432,267.536 391.778316,267.536 C390.962312,267.536 390.286318,267.747998 389.750316,268.172 C389.214313,268.596002 388.738318,269.151997 388.322316,269.84 L388.322316,277.04 C388.322316,277.344002 388.214317,277.599999 387.998316,277.808 C387.782315,278.016001 387.522317,278.12 387.218316,278.12 C386.914314,278.12 386.658317,278.016001 386.450316,277.808 C386.242315,277.599999 386.138316,277.344002 386.138316,277.04 L386.138316,270.56 C386.138316,269.52 385.954318,268.756002 385.586316,268.268 C385.218314,267.779998 384.58632,267.536 383.690316,267.536 C382.874312,267.536 382.198318,267.747998 381.662316,268.172 C381.126313,268.596002 380.650318,269.151997 380.234316,269.84 L380.234316,277.04 C380.234316,277.344002 380.126317,277.599999 379.910316,277.808 C379.694315,278.016001 379.434317,278.12 379.130316,278.12 Z M404.037099,278.24 C403.333095,278.24 402.681102,278.096001 402.081099,277.808 C401.481096,277.52 401.0051,277.100003 400.653099,276.548 C400.301097,275.995997 400.125099,275.360004 400.125099,274.64 C400.125099,273.455994 400.593094,272.512004 401.529099,271.808 C402.465103,271.103996 403.83709,270.752 405.645099,270.752 L408.549099,270.752 L408.549099,270.56 C408.549099,269.503995 408.289101,268.744002 407.769099,268.28 C407.249096,267.815998 406.437104,267.584 405.333099,267.584 C404.725096,267.584 404.185101,267.632 403.713099,267.728 C403.241096,267.824 402.717101,267.967999 402.141099,268.16 C402.013098,268.192 401.909099,268.208 401.829099,268.208 C401.589097,268.208 401.381099,268.120001 401.205099,267.944 C401.029098,267.767999 400.941099,267.552001 400.941099,267.296 C400.941099,266.863998 401.149096,266.560001 401.565099,266.384 C402.925105,265.807997 404.309092,265.52 405.717099,265.52 C406.821104,265.52 407.753095,265.743998 408.513099,266.192 C409.273102,266.640002 409.833097,267.219996 410.193099,267.932 C410.5531,268.644004 410.733099,269.415996 410.733099,270.248 L410.733099,277.04 C410.733099,277.344002 410.625099,277.599999 410.409099,277.808 C410.193097,278.016001 409.9331,278.12 409.629099,278.12 C409.325097,278.12 409.0691,278.016001 408.861099,277.808 C408.653098,277.599999 408.549099,277.344002 408.549099,277.04 L408.549099,276.416 C407.365093,277.632006 405.861108,278.24 404.037099,278.24 Z M404.853099,276.32 C405.557102,276.32 406.237095,276.148002 406.893099,275.804 C407.549102,275.459998 408.101096,275.032003 408.549099,274.52 L408.549099,272.504 L405.933099,272.504 C403.517086,272.504 402.309099,273.135994 402.309099,274.4 C402.309099,274.976003 402.505097,275.439998 402.897099,275.792 C403.289101,276.144002 403.941094,276.32 404.853099,276.32 Z M416.319881,278.12 C416.01588,278.12 415.759882,278.016001 415.551881,277.808 C415.34388,277.599999 415.239881,277.344002 415.239881,277.04 L415.239881,266.744 C415.239881,266.439998 415.34388,266.180001 415.551881,265.964 C415.759882,265.747999 416.01588,265.64 416.319881,265.64 C416.623883,265.64 416.88388,265.747999 417.099881,265.964 C417.315882,266.180001 417.423881,266.439998 417.423881,266.744 L417.423881,267.776 C418.543887,266.271992 419.799874,265.52 421.191881,265.52 L421.311881,265.52 C421.615883,265.52 421.86788,265.623999 422.067881,265.832 C422.267882,266.040001 422.367881,266.295998 422.367881,266.6 C422.367881,266.904002 422.263882,267.151999 422.055881,267.344 C421.84788,267.536001 421.583883,267.632 421.263881,267.632 L421.143881,267.632 C420.375878,267.632 419.671885,267.819998 419.031881,268.196 C418.391878,268.572002 417.855884,269.087997 417.423881,269.744 L417.423881,277.04 C417.423881,277.344002 417.315882,277.599999 417.099881,277.808 C416.88388,278.016001 416.623883,278.12 416.319881,278.12 Z M426.346664,278.12 C426.042663,278.12 425.786665,278.016001 425.578664,277.808 C425.370663,277.599999 425.266664,277.344002 425.266664,277.04 L425.266664,261.464 C425.266664,261.159998 425.370663,260.900001 425.578664,260.684 C425.786665,260.467999 426.042663,260.36 426.346664,260.36 C426.650666,260.36 426.910663,260.467999 427.126664,260.684 C427.342665,260.900001 427.450664,261.159998 427.450664,261.464 L427.450664,271.28 L433.162664,266 C433.402665,265.791999 433.642663,265.688 433.882664,265.688 C434.250666,265.688 434.518663,265.791999 434.686664,266 C434.854665,266.208001 434.938664,266.455999 434.938664,266.744 C434.938664,267.016001 434.802666,267.287999 434.530664,267.56 L431.074664,270.656 L435.418664,276.416 C435.578665,276.624001 435.658664,276.839999 435.658664,277.064 C435.658664,277.384002 435.554665,277.639999 435.346664,277.832 C435.138663,278.024001 434.874666,278.12 434.554664,278.12 C434.394663,278.12 434.234665,278.08 434.074664,278 C433.914663,277.92 433.778665,277.808001 433.666664,277.664 L429.538664,272.048 L427.450664,273.944 L427.450664,277.04 C427.450664,277.344002 427.342665,277.599999 427.126664,277.808 C426.910663,278.016001 426.650666,278.12 426.346664,278.12 Z M444.437447,278.24 C442.485437,278.24 440.961452,277.684006 439.865447,276.572 C438.769441,275.459994 438.221447,273.89601 438.221447,271.88 C438.221447,270.743994 438.429445,269.696005 438.845447,268.736 C439.261449,267.775995 439.901443,267.000003 440.765447,266.408 C441.629451,265.815997 442.693441,265.52 443.957447,265.52 C445.141453,265.52 446.165443,265.795997 447.029447,266.348 C447.893451,266.900003 448.549445,267.635995 448.997447,268.556 C449.445449,269.476005 449.669447,270.479995 449.669447,271.568 C449.669447,271.872002 449.569448,272.127999 449.369447,272.336 C449.169446,272.544001 448.901449,272.648 448.565447,272.648 L440.429447,272.648 C440.557448,273.768006 440.973443,274.639997 441.677447,275.264 C442.38145,275.888003 443.365441,276.2 444.629447,276.2 C445.30145,276.2 445.889444,276.136001 446.393447,276.008 C446.897449,275.879999 447.389445,275.696001 447.869447,275.456 C447.997448,275.392 448.141446,275.36 448.301447,275.36 C448.557448,275.36 448.781446,275.447999 448.973447,275.624 C449.165448,275.800001 449.261447,276.023999 449.261447,276.296 C449.261447,276.648002 449.053449,276.943999 448.637447,277.184 C448.013444,277.536002 447.39745,277.799999 446.789447,277.976 C446.181444,278.152001 445.397452,278.24 444.437447,278.24 Z M447.509447,270.872 C447.461447,270.087996 447.257449,269.432003 446.897447,268.904 C446.537445,268.375997 446.09345,267.988001 445.565447,267.74 C445.037444,267.491999 444.50145,267.368 443.957447,267.368 C443.413444,267.368 442.87745,267.491999 442.349447,267.74 C441.821444,267.988001 441.381449,268.375997 441.029447,268.904 C440.677445,269.432003 440.477447,270.087996 440.429447,270.872 L447.509447,270.872 Z M454.46423,278.12 C454.160228,278.12 453.904231,278.016001 453.69623,277.808 C453.488229,277.599999 453.38423,277.344002 453.38423,277.04 L453.38423,266.744 C453.38423,266.439998 453.488229,266.180001 453.69623,265.964 C453.904231,265.747999 454.160228,265.64 454.46423,265.64 C454.768231,265.64 455.028229,265.747999 455.24423,265.964 C455.460231,266.180001 455.56823,266.439998 455.56823,266.744 L455.56823,267.776 C456.688235,266.271992 457.944223,265.52 459.33623,265.52 L459.45623,265.52 C459.760231,265.52 460.012229,265.623999 460.21223,265.832 C460.412231,266.040001 460.51223,266.295998 460.51223,266.6 C460.51223,266.904002 460.408231,267.151999 460.20023,267.344 C459.992229,267.536001 459.728231,267.632 459.40823,267.632 L459.28823,267.632 C458.520226,267.632 457.816233,267.819998 457.17623,268.196 C456.536227,268.572002 456.000232,269.087997 455.56823,269.744 L455.56823,277.04 C455.56823,277.344002 455.460231,277.599999 455.24423,277.808 C455.028229,278.016001 454.768231,278.12 454.46423,278.12 Z" id="surfacemarker" fill="#484848" fill-rule="nonzero"></path>
                    <path d="M347.841967,162.24 C346.241959,162.24 344.785974,161.880004 343.473967,161.16 C343.201966,160.967999 343.065967,160.704002 343.065967,160.368 C343.065967,160.111999 343.153966,159.888001 343.329967,159.696 C343.505968,159.503999 343.729966,159.408 344.001967,159.408 C344.109968,159.408 344.217967,159.426 344.325967,159.462 L344.433967,159.504 C344.94597,159.728001 345.457965,159.903999 345.969967,160.032 C346.48197,160.160001 347.057964,160.224 347.697967,160.224 C349.473976,160.224 350.361967,159.656006 350.361967,158.52 C350.361967,158.151998 350.157969,157.872001 349.749967,157.68 C349.341965,157.487999 348.673972,157.272001 347.745967,157.032 C346.801963,156.807999 346.02197,156.576001 345.405967,156.336 C344.789964,156.095999 344.26197,155.732002 343.821967,155.244 C343.381965,154.755998 343.161967,154.112004 343.161967,153.312 C343.161967,152.191994 343.565967,151.280004 344.373967,150.576 C345.181971,149.871996 346.33796,149.52 347.841967,149.52 C348.937084,149.52 349.975298,149.678023 350.956633,149.994074 L351.321967,150.12 C351.545968,150.184 351.717967,150.303999 351.837967,150.48 C351.957968,150.656001 352.017967,150.839999 352.017967,151.032 C352.017967,151.288001 351.925968,151.511999 351.741967,151.704 C351.557966,151.896001 351.329969,151.992 351.057967,151.992 C350.977967,151.992 350.873968,151.976 350.745967,151.944 C349.817963,151.655999 348.905972,151.512 348.009967,151.512 C347.145963,151.512 346.46997,151.667998 345.981967,151.98 C345.493965,152.292002 345.249967,152.695998 345.249967,153.192 C345.249967,153.672002 345.473965,154.023999 345.921967,154.248 C346.36997,154.472001 347.065967,154.687999 348.009967,154.896 C348.953972,155.136001 349.721964,155.371999 350.313967,155.604 C350.90597,155.836001 351.413965,156.199998 351.837967,156.696 C352.261969,157.192002 352.473967,157.855996 352.473967,158.688 C352.473967,159.712005 352.069971,160.559997 351.261967,161.232 C350.453963,161.904003 349.313975,162.24 347.841967,162.24 Z M361.90075,162.24 C360.748744,162.24 359.684755,161.984003 358.70875,161.472 C357.732745,160.959997 356.952753,160.224005 356.36875,159.264 C355.784747,158.303995 355.49275,157.176006 355.49275,155.88 C355.49275,154.583994 355.784747,153.456005 356.36875,152.496 C356.952753,151.535995 357.732745,150.800003 358.70875,150.288 C359.684755,149.775997 360.748744,149.52 361.90075,149.52 C362.748754,149.52 363.480747,149.627999 364.09675,149.844 C364.712753,150.060001 365.284748,150.335998 365.81275,150.672 C366.132752,150.880001 366.29275,151.159998 366.29275,151.512 C366.29275,151.752001 366.200751,151.971999 366.01675,152.172 C365.832749,152.372001 365.620751,152.472 365.38075,152.472 C365.204749,152.472 365.028751,152.424 364.85275,152.328 C364.324748,152.055999 363.872752,151.860001 363.49675,151.74 C363.120748,151.619999 362.652753,151.56 362.09275,151.56 C360.716743,151.56 359.636754,151.955996 358.85275,152.748 C358.068746,153.540004 357.67675,154.583994 357.67675,155.88 C357.67675,157.176006 358.068746,158.219996 358.85275,159.012 C359.636754,159.804004 360.716743,160.2 362.09275,160.2 C362.652753,160.2 363.120748,160.140001 363.49675,160.02 C363.810085,159.92 364.176193,159.767223 364.595083,159.561667 L364.85275,159.432 C365.028751,159.336 365.204749,159.288 365.38075,159.288 C365.620751,159.288 365.832749,159.387999 366.01675,159.588 C366.200751,159.788001 366.29275,160.007999 366.29275,160.248 C366.29275,160.600002 366.132752,160.879999 365.81275,161.088 C365.284748,161.424002 364.712753,161.699999 364.09675,161.916 C363.480747,162.132001 362.748754,162.24 361.90075,162.24 Z M371.375533,162.12 C371.071531,162.12 370.815534,162.016001 370.607533,161.808 C370.399532,161.599999 370.295533,161.344002 370.295533,161.04 L370.295533,146.352 C370.295533,146.047998 370.399532,145.788001 370.607533,145.572 C370.815534,145.355999 371.071531,145.248 371.375533,145.248 L380.711533,145.248 C380.999534,145.248 381.243532,145.347999 381.443533,145.548 C381.643534,145.748 381.743533,145.991999 381.743533,146.28 C381.743533,146.568001 381.643534,146.807999 381.443533,147 C381.243532,147.192001 380.999534,147.288 380.711533,147.288 L372.479533,147.288 L372.479533,152.592 L379.871533,152.592 C380.159534,152.592 380.403532,152.691999 380.603533,152.892 C380.803534,153.092001 380.903533,153.335999 380.903533,153.624 C380.903533,153.912001 380.803534,154.151999 380.603533,154.344 C380.403532,154.536001 380.159534,154.632 379.871533,154.632 L372.479533,154.632 L372.479533,161.04 C372.479533,161.344002 372.371534,161.599999 372.155533,161.808 C371.939532,162.016001 371.679534,162.12 371.375533,162.12 Z M391.458316,162.12 C390.802312,162.12 390.306317,161.752004 389.970316,161.016 L384.042316,146.64 C383.994316,146.511999 383.970316,146.376001 383.970316,146.232 C383.970316,145.895998 384.066315,145.628 384.258316,145.428 C384.450317,145.227999 384.714314,145.128 385.050316,145.128 C385.274317,145.128 385.478315,145.195999 385.662316,145.332 C385.846317,145.468001 385.986315,145.647999 386.082316,145.872 L391.722316,159.936 L397.362316,145.872 C397.458316,145.647999 397.598315,145.468001 397.782316,145.332 C397.966317,145.195999 398.170315,145.128 398.394316,145.128 C398.730317,145.128 398.994315,145.227999 399.186316,145.428 C399.378317,145.628 399.474316,145.895998 399.474316,146.232 C399.474316,146.376001 399.450316,146.511999 399.402316,146.64 L393.474316,161.016 C393.138314,161.752004 392.642319,162.12 391.986316,162.12 L391.458316,162.12 Z" id="scFV" fill="#484848" fill-rule="nonzero"></path>
                    <path d="M299.701793,50.24 C298.101785,50.24 296.6658,49.8920035 295.393793,49.196 C294.121787,48.4999965 293.121797,47.5000065 292.393793,46.196 C291.66579,44.8919935 291.301793,43.3680087 291.301793,41.624 C291.301793,39.8799913 291.66579,38.3560065 292.393793,37.052 C293.121797,35.7479935 294.121787,34.7480035 295.393793,34.052 C296.6658,33.3559965 298.101785,33.008 299.701793,33.008 C300.789799,33.008 301.761789,33.1359987 302.617793,33.392 C303.473797,33.6480013 304.325789,34.0159976 305.173793,34.496 C305.525795,34.688001 305.701793,34.9919979 305.701793,35.408 C305.701793,35.6480012 305.613794,35.8599991 305.437793,36.044 C305.261792,36.2280009 305.029795,36.32 304.741793,36.32 C304.581792,36.32 304.437794,36.2880003 304.309793,36.224 C303.60579,35.8559982 302.917797,35.576001 302.245793,35.384 C301.57379,35.191999 300.797798,35.096 299.917793,35.096 C298.541786,35.096 297.369798,35.3799972 296.401793,35.948 C295.433788,36.5160028 294.705796,37.2919951 294.217793,38.276 C293.729791,39.2600049 293.485793,40.3759938 293.485793,41.624 C293.485793,42.8720062 293.729791,43.9879951 294.217793,44.972 C294.705796,45.9560049 295.433788,46.7319972 296.401793,47.3 C297.369798,47.8680028 298.541786,48.152 299.917793,48.152 C300.797798,48.152 301.57379,48.056001 302.245793,47.864 C302.917797,47.671999 303.60579,47.3920018 304.309793,47.024 C304.437794,46.9599997 304.581792,46.928 304.741793,46.928 C305.029795,46.928 305.261792,47.0159991 305.437793,47.192 C305.613794,47.3680009 305.701793,47.5839987 305.701793,47.84 C305.701793,48.2560021 305.525795,48.559999 305.173793,48.752 C304.325789,49.2320024 303.473797,49.5999987 302.617793,49.856 C301.761789,50.1120013 300.789799,50.24 299.701793,50.24 Z M312.512576,50.24 C311.808572,50.24 311.156579,50.0960014 310.556576,49.808 C309.956573,49.52 309.480578,49.1000028 309.128576,48.548 C308.776574,47.9959972 308.600576,47.3600036 308.600576,46.64 C308.600576,45.4559941 309.068571,44.5120035 310.004576,43.808 C310.940581,43.1039965 312.312567,42.752 314.120576,42.752 L317.024576,42.752 L317.024576,42.56 C317.024576,41.5039947 316.764579,40.7440023 316.244576,40.28 C315.724573,39.8159977 314.912581,39.584 313.808576,39.584 C313.200573,39.584 312.660578,39.6319995 312.188576,39.728 C311.716574,39.8240005 311.192579,39.967999 310.616576,40.16 C310.488575,40.1920002 310.384576,40.208 310.304576,40.208 C310.064575,40.208 309.856577,40.1200009 309.680576,39.944 C309.504575,39.7679991 309.416576,39.5520013 309.416576,39.296 C309.416576,38.8639978 309.624574,38.5600009 310.040576,38.384 C311.400583,37.8079971 312.784569,37.52 314.192576,37.52 C315.296581,37.52 316.228572,37.7439978 316.988576,38.192 C317.74858,38.6400022 318.308574,39.2199964 318.668576,39.932 C319.028578,40.6440036 319.208576,41.4159958 319.208576,42.248 L319.208576,49.04 C319.208576,49.3440015 319.100576,49.599999 318.884576,49.808 C318.668575,50.016001 318.408577,50.12 318.104576,50.12 C317.800574,50.12 317.544577,50.016001 317.336576,49.808 C317.128575,49.599999 317.024576,49.3440015 317.024576,49.04 L317.024576,48.416 C315.84057,49.6320061 314.336585,50.24 312.512576,50.24 Z M313.328576,48.32 C314.032579,48.32 314.712573,48.1480017 315.368576,47.804 C316.024579,47.4599983 316.576574,47.0320026 317.024576,46.52 L317.024576,44.504 L314.408576,44.504 C311.992564,44.504 310.784576,45.1359937 310.784576,46.4 C310.784576,46.9760029 310.980574,47.4399982 311.372576,47.792 C311.764578,48.1440018 312.416571,48.32 313.328576,48.32 Z M327.651359,50.24 C325.315347,50.24 324.147359,49.1840106 324.147359,47.072 L324.147359,39.632 L322.443359,39.632 C322.315358,39.632 322.207359,39.5880004 322.119359,39.5 C322.031358,39.4119996 321.987359,39.3040006 321.987359,39.176 C321.987359,39.0159992 322.059358,38.8800006 322.203359,38.768 L325.467359,35.576 C325.611359,35.4319993 325.747358,35.36 325.875359,35.36 C326.003359,35.36 326.111358,35.4079995 326.199359,35.504 C326.287359,35.6000005 326.331359,35.7119994 326.331359,35.84 L326.331359,37.76 L329.043359,37.76 C329.31536,37.76 329.539358,37.8479991 329.715359,38.024 C329.89136,38.2000009 329.979359,38.4239986 329.979359,38.696 C329.979359,38.9520013 329.89136,39.1719991 329.715359,39.356 C329.539358,39.5400009 329.31536,39.632 329.043359,39.632 L326.331359,39.632 L326.331359,46.88 C326.331359,47.5040031 326.479357,47.8999992 326.775359,48.068 C327.07136,48.2360008 327.443357,48.32 327.891359,48.32 C328.13136,48.32 328.371358,48.2930003 328.611358,48.2390002 L328.851359,48.176 C328.915359,48.1599999 328.983358,48.1440001 329.055359,48.128 C329.127359,48.1119999 329.219358,48.104 329.331359,48.104 C329.55536,48.104 329.755358,48.1879992 329.931359,48.356 C330.10736,48.5240008 330.195359,48.7279988 330.195359,48.968 C330.195359,49.3360018 330.011361,49.615999 329.643359,49.808 C329.019356,50.0960014 328.355362,50.24 327.651359,50.24 Z M338.926142,50.24 C337.774136,50.24 336.710146,49.9840026 335.734142,49.472 C334.758137,48.9599974 333.978144,48.2240048 333.394142,47.264 C332.810139,46.3039952 332.518142,45.1760065 332.518142,43.88 C332.518142,42.5839935 332.810139,41.4560048 333.394142,40.496 C333.978144,39.5359952 334.758137,38.8000026 335.734142,38.288 C336.710146,37.7759974 337.774136,37.52 338.926142,37.52 C339.774146,37.52 340.506138,37.6279989 341.122142,37.844 C341.738145,38.0600011 342.310139,38.3359983 342.838142,38.672 C343.158143,38.880001 343.318142,39.1599982 343.318142,39.512 C343.318142,39.7520012 343.226142,39.971999 343.042142,40.172 C342.858141,40.372001 342.646143,40.472 342.406142,40.472 C342.230141,40.472 342.054142,40.4240005 341.878142,40.328 C341.350139,40.0559986 340.898143,39.8600006 340.522142,39.74 C340.14614,39.6199994 339.678144,39.56 339.118142,39.56 C337.742135,39.56 336.662145,39.955996 335.878142,40.748 C335.094138,41.540004 334.702142,42.5839935 334.702142,43.88 C334.702142,45.1760065 335.094138,46.219996 335.878142,47.012 C336.662145,47.804004 337.742135,48.2 339.118142,48.2 C339.678144,48.2 340.14614,48.1400006 340.522142,48.02 C340.835476,47.9199995 341.201585,47.767223 341.620474,47.5616671 L341.878142,47.432 C342.054142,47.3359995 342.230141,47.288 342.406142,47.288 C342.646143,47.288 342.858141,47.387999 343.042142,47.588 C343.226142,47.788001 343.318142,48.0079988 343.318142,48.248 C343.318142,48.6000018 343.158143,48.879999 342.838142,49.088 C342.310139,49.4240017 341.738145,49.6999989 341.122142,49.916 C340.506138,50.1320011 339.774146,50.24 338.926142,50.24 Z M347.968924,50.12 C347.664923,50.12 347.408925,50.016001 347.200924,49.808 C346.992923,49.599999 346.888924,49.3440015 346.888924,49.04 L346.888924,33.464 C346.888924,33.1599985 346.992923,32.9000011 347.200924,32.684 C347.408925,32.4679989 347.664923,32.36 347.968924,32.36 C348.272926,32.36 348.532923,32.4679989 348.748924,32.684 C348.964925,32.9000011 349.072924,33.1599985 349.072924,33.464 L349.072924,39.728 C349.680927,39.0559966 350.336921,38.520002 351.040924,38.12 C351.744928,37.719998 352.57692,37.52 353.536924,37.52 C354.416929,37.52 355.180921,37.7279979 355.828924,38.144 C356.476928,38.5600021 356.972923,39.1279964 357.316924,39.848 C357.660926,40.5680036 357.832924,41.36 357.832924,42.224 L357.832924,49.04 C357.832924,49.3440015 357.724925,49.599999 357.508924,49.808 C357.292923,50.016001 357.032926,50.12 356.728924,50.12 C356.424923,50.12 356.168925,50.016001 355.960924,49.808 C355.752923,49.599999 355.648924,49.3440015 355.648924,49.04 L355.648924,42.464 C355.648924,40.5119902 354.768933,39.536 353.008924,39.536 C352.20892,39.536 351.492928,39.7439979 350.860924,40.16 C350.228921,40.5760021 349.632927,41.1359965 349.072924,41.84 L349.072924,49.04 C349.072924,49.3440015 348.964925,49.599999 348.748924,49.808 C348.532923,50.016001 348.272926,50.12 347.968924,50.12 Z M367.811707,50.24 C365.859697,50.24 364.335713,49.6840056 363.239707,48.572 C362.143702,47.4599944 361.595707,45.8960101 361.595707,43.88 C361.595707,42.7439943 361.803705,41.6960048 362.219707,40.736 C362.635709,39.7759952 363.275703,39.000003 364.139707,38.408 C365.003711,37.815997 366.067701,37.52 367.331707,37.52 C368.515713,37.52 369.539703,37.7959972 370.403707,38.348 C371.267711,38.9000028 371.923705,39.6359954 372.371707,40.556 C372.819709,41.4760046 373.043707,42.4799946 373.043707,43.568 C373.043707,43.8720015 372.943708,44.127999 372.743707,44.336 C372.543706,44.544001 372.275709,44.648 371.939707,44.648 L363.803707,44.648 C363.931708,45.7680056 364.347704,46.6399969 365.051707,47.264 C365.755711,47.8880031 366.739701,48.2 368.003707,48.2 C368.675711,48.2 369.263705,48.1360006 369.767707,48.008 C370.27171,47.8799994 370.763705,47.6960012 371.243707,47.456 C371.371708,47.3919997 371.515706,47.36 371.675707,47.36 C371.931708,47.36 372.155706,47.4479991 372.347707,47.624 C372.539708,47.8000009 372.635707,48.0239986 372.635707,48.296 C372.635707,48.6480018 372.427709,48.9439988 372.011707,49.184 C371.387704,49.5360018 370.77171,49.7999991 370.163707,49.976 C369.555704,50.1520009 368.771712,50.24 367.811707,50.24 Z M370.883707,42.872 C370.835707,42.0879961 370.631709,41.4320026 370.271707,40.904 C369.911705,40.3759974 369.46771,39.9880012 368.939707,39.74 C368.411705,39.4919988 367.87571,39.368 367.331707,39.368 C366.787704,39.368 366.25171,39.4919988 365.723707,39.74 C365.195705,39.9880012 364.755709,40.3759974 364.403707,40.904 C364.051705,41.4320026 363.851707,42.0879961 363.803707,42.872 L370.883707,42.872 Z M377.83849,50.12 C377.534488,50.12 377.278491,50.016001 377.07049,49.808 C376.862489,49.599999 376.75849,49.3440015 376.75849,49.04 L376.75849,38.744 C376.75849,38.4399985 376.862489,38.1800011 377.07049,37.964 C377.278491,37.7479989 377.534488,37.64 377.83849,37.64 C378.142491,37.64 378.402489,37.7479989 378.61849,37.964 C378.834491,38.1800011 378.94249,38.4399985 378.94249,38.744 L378.94249,39.776 C380.062496,38.2719925 381.318483,37.52 382.71049,37.52 L382.83049,37.52 C383.134491,37.52 383.386489,37.623999 383.58649,37.832 C383.786491,38.040001 383.88649,38.2959985 383.88649,38.6 C383.88649,38.9040015 383.782491,39.151999 383.57449,39.344 C383.366489,39.536001 383.102492,39.632 382.78249,39.632 L382.66249,39.632 C381.894486,39.632 381.190493,39.8199981 380.55049,40.196 C379.910487,40.5720019 379.374492,41.0879967 378.94249,41.744 L378.94249,49.04 C378.94249,49.3440015 378.834491,49.599999 378.61849,49.808 C378.402489,50.016001 378.142491,50.12 377.83849,50.12 Z" id="Catcher" fill="#484848" fill-rule="nonzero"></path>
                    <path d="M401.315359,50.12 C401.011357,50.12 400.75536,50.016001 400.547359,49.808 C400.339358,49.599999 400.235359,49.3440015 400.235359,49.04 L400.235359,35.288 L395.339359,35.288 C395.051357,35.288 394.81136,35.192001 394.619359,35 C394.427358,34.807999 394.331359,34.5680014 394.331359,34.28 C394.331359,33.9919986 394.427358,33.748 394.619359,33.548 C394.81136,33.347999 395.051357,33.248 395.339359,33.248 L407.291359,33.248 C407.57936,33.248 407.823358,33.347999 408.023359,33.548 C408.22336,33.748 408.323359,33.9919986 408.323359,34.28 C408.323359,34.5680014 408.22336,34.807999 408.023359,35 C407.823358,35.192001 407.57936,35.288 407.291359,35.288 L402.419359,35.288 L402.419359,49.04 C402.419359,49.3440015 402.31136,49.599999 402.095359,49.808 C401.879358,50.016001 401.61936,50.12 401.315359,50.12 Z M412.566142,50.24 C411.862138,50.24 411.210145,50.0960014 410.610142,49.808 C410.010139,49.52 409.534143,49.1000028 409.182142,48.548 C408.83014,47.9959972 408.654142,47.3600036 408.654142,46.64 C408.654142,45.4559941 409.122137,44.5120035 410.058142,43.808 C410.994146,43.1039965 412.366133,42.752 414.174142,42.752 L417.078142,42.752 L417.078142,42.56 C417.078142,41.5039947 416.818144,40.7440023 416.298142,40.28 C415.778139,39.8159977 414.966147,39.584 413.862142,39.584 C413.254139,39.584 412.714144,39.6319995 412.242142,39.728 C411.770139,39.8240005 411.246144,39.967999 410.670142,40.16 C410.542141,40.1920002 410.438142,40.208 410.358142,40.208 C410.11814,40.208 409.910142,40.1200009 409.734142,39.944 C409.558141,39.7679991 409.470142,39.5520013 409.470142,39.296 C409.470142,38.8639978 409.678139,38.5600009 410.094142,38.384 C411.454148,37.8079971 412.838135,37.52 414.246142,37.52 C415.350147,37.52 416.282138,37.7439978 417.042142,38.192 C417.802145,38.6400022 418.36214,39.2199964 418.722142,39.932 C419.082143,40.6440036 419.262142,41.4159958 419.262142,42.248 L419.262142,49.04 C419.262142,49.3440015 419.154142,49.599999 418.938142,49.808 C418.72214,50.016001 418.462143,50.12 418.158142,50.12 C417.85414,50.12 417.598143,50.016001 417.390142,49.808 C417.182141,49.599999 417.078142,49.3440015 417.078142,49.04 L417.078142,48.416 C415.894136,49.6320061 414.390151,50.24 412.566142,50.24 Z M413.382142,48.32 C414.086145,48.32 414.766138,48.1480017 415.422142,47.804 C416.078145,47.4599983 416.630139,47.0320026 417.078142,46.52 L417.078142,44.504 L414.462142,44.504 C412.046129,44.504 410.838142,45.1359937 410.838142,46.4 C410.838142,46.9760029 411.03414,47.4399982 411.426142,47.792 C411.818144,48.1440018 412.470137,48.32 413.382142,48.32 Z M428.832924,37.52 C430.432932,37.52 431.800919,38.1279939 432.936924,39.344 L432.936924,38.744 C432.936924,38.4399985 433.040923,38.1800011 433.248924,37.964 C433.456925,37.7479989 433.712923,37.64 434.016924,37.64 C434.320926,37.64 434.580923,37.7479989 434.796924,37.964 C435.012925,38.1800011 435.120924,38.4399985 435.120924,38.744 L435.120924,49.472 C435.120924,51.4880101 434.632929,53.0399946 433.656924,54.128 C432.680919,55.2160054 431.288933,55.76 429.480924,55.76 C428.55292,55.76 427.616929,55.6400012 426.672924,55.4 C425.72892,55.1599988 424.952927,54.8640018 424.344924,54.512 C424.056923,54.3359991 423.912924,54.0560019 423.912924,53.672 C423.912924,53.4159987 424.004923,53.188001 424.188924,52.988 C424.372925,52.787999 424.600923,52.688 424.872924,52.688 C425.000925,52.688 425.144924,52.7199997 425.304924,52.784 C426.52093,53.392003 427.840917,53.696 429.264924,53.696 C431.712937,53.696 432.936924,52.392013 432.936924,49.784 L432.936924,48.176 C431.800919,49.3920061 430.432932,50 428.832924,50 C427.88892,50 426.972929,49.7640024 426.084924,49.292 C425.19692,48.8199976 424.464927,48.1160047 423.888924,47.18 C423.312921,46.2439953 423.024924,45.1040067 423.024924,43.76 C423.024924,42.4159933 423.312921,41.2760047 423.888924,40.34 C424.464927,39.4039953 425.19692,38.7000024 426.084924,38.228 C426.972929,37.7559976 427.88892,37.52 428.832924,37.52 Z M429.288924,39.512 C428.088918,39.512 427.108928,39.8759964 426.348924,40.604 C425.588921,41.3320036 425.208924,42.3839931 425.208924,43.76 C425.208924,45.1360069 425.588921,46.1879964 426.348924,46.916 C427.108928,47.6440036 428.088918,48.008 429.288924,48.008 C430.040928,48.008 430.704921,47.8480016 431.280924,47.528 C431.856927,47.2079984 432.408922,46.7760027 432.936924,46.232 L432.936924,46.232 L432.936924,41.288 C432.408922,40.7439973 431.856927,40.3120016 431.280924,39.992 C430.704921,39.6719984 430.040928,39.512 429.288924,39.512 Z" id="Tag" fill="#484848" fill-rule="nonzero"></path>
                    <polygon id="Triangle" stroke="url(#linearGradient-7)" stroke-width="9" fill-rule="nonzero" transform="translate(608.945097, 222.160740) rotate(171.000000) translate(-608.945097, -222.160740) " points="608.945097 206.591775 626.7382 237.729706 591.151993 237.729706"></polygon>
                    <polygon id="Triangle" stroke="url(#linearGradient-7)" stroke-width="9" fill-rule="nonzero" transform="translate(697.863673, 63.641251) rotate(78.000000) translate(-697.863673, -63.641251) " points="697.863673 48.0722859 715.656777 79.2102169 680.07057 79.2102169"></polygon>
                    <path d="M558.716071,102.23 C557.18273,102.23 555.806577,101.896503 554.587571,101.2295 C553.368565,100.562497 552.410241,99.6041729 551.712571,98.3545 C551.014901,97.1048271 550.666071,95.6443417 550.666071,93.973 C550.666071,92.3016583 551.014901,90.8411729 551.712571,89.5915 C552.410241,88.3418271 553.368565,87.3835033 554.587571,86.7165 C555.806577,86.0494967 557.18273,85.716 558.716071,85.716 C559.758743,85.716 560.690234,85.8386654 561.510571,86.084 C562.330908,86.3293346 563.1474,86.6819977 563.960071,87.142 C564.297406,87.3260009 564.466071,87.6173313 564.466071,88.016 C564.466071,88.2460012 564.381738,88.4491658 564.213071,88.6255 C564.044403,88.8018342 563.822072,88.89 563.546071,88.89 C563.392737,88.89 563.254738,88.8593336 563.132071,88.798 C562.457401,88.4453316 561.798074,88.1770009 561.154071,87.993 C560.510068,87.8089991 559.766408,87.717 558.923071,87.717 C557.604398,87.717 556.481242,87.9891639 555.553571,88.5335 C554.6259,89.0778361 553.92824,89.8214953 553.460571,90.7645 C552.992902,91.7075047 552.759071,92.776994 552.759071,93.973 C552.759071,95.169006 552.992902,96.2384953 553.460571,97.1815 C553.92824,98.1245047 554.6259,98.8681639 555.553571,99.4125 C556.481242,99.9568361 557.604398,100.229 558.923071,100.229 C559.766408,100.229 560.510068,100.137001 561.154071,99.953 C561.798074,99.7689991 562.457401,99.5006684 563.132071,99.148 C563.254738,99.0866664 563.392737,99.056 563.546071,99.056 C563.822072,99.056 564.044403,99.1403325 564.213071,99.309 C564.381738,99.4776675 564.466071,99.6846654 564.466071,99.93 C564.466071,100.328669 564.297406,100.619999 563.960071,100.804 C563.1474,101.264002 562.330908,101.616665 561.510571,101.862 C560.690234,102.107335 559.758743,102.23 558.716071,102.23 Z M571.219225,102.23 C570.544555,102.23 569.919728,102.092001 569.344725,101.816 C568.769722,101.54 568.31356,101.137503 567.976225,100.6085 C567.63889,100.079497 567.470225,99.4700035 567.470225,98.78 C567.470225,97.6453277 567.91872,96.74067 568.815725,96.066 C569.712729,95.39133 571.02755,95.054 572.760225,95.054 L575.543225,95.054 L575.543225,94.87 C575.543225,93.8579949 575.294061,93.1296689 574.795725,92.685 C574.297389,92.2403311 573.51923,92.018 572.461225,92.018 C571.878555,92.018 571.361061,92.0639995 570.908725,92.156 C570.456389,92.2480005 569.954228,92.3859991 569.402225,92.57 C569.279558,92.6006668 569.179892,92.616 569.103225,92.616 C568.873224,92.616 568.673892,92.5316675 568.505225,92.363 C568.336557,92.1943325 568.252225,91.9873346 568.252225,91.742 C568.252225,91.3279979 568.451556,91.0366675 568.850225,90.868 C570.153565,90.3159972 571.479885,90.04 572.829225,90.04 C573.88723,90.04 574.780388,90.2546645 575.508725,90.684 C576.237062,91.1133355 576.773723,91.6691633 577.118725,92.3515 C577.463727,93.0338367 577.636225,93.7736627 577.636225,94.571 L577.636225,101.08 C577.636225,101.371335 577.532726,101.616666 577.325725,101.816 C577.118724,102.015334 576.86956,102.115 576.578225,102.115 C576.28689,102.115 576.041559,102.015334 575.842225,101.816 C575.642891,101.616666 575.543225,101.371335 575.543225,101.08 L575.543225,100.482 C574.408553,101.647339 572.967234,102.23 571.219225,102.23 Z M572.001225,100.39 C572.675895,100.39 573.327555,100.225168 573.956225,99.8955 C574.584895,99.5658317 575.113889,99.1556691 575.543225,98.665 L575.543225,96.733 L573.036225,96.733 C570.72088,96.733 569.563225,97.3386606 569.563225,98.55 C569.563225,99.1020028 569.751056,99.546665 570.126725,99.884 C570.502393,100.221335 571.127221,100.39 572.001225,100.39 Z M583.216379,102.115 C582.925044,102.115 582.679713,102.015334 582.480379,101.816 C582.281045,101.616666 582.181379,101.371335 582.181379,101.08 L582.181379,91.213 C582.181379,90.9216652 582.281045,90.672501 582.480379,90.4655 C582.679713,90.258499 582.925044,90.155 583.216379,90.155 C583.507714,90.155 583.756878,90.258499 583.963879,90.4655 C584.17088,90.672501 584.274379,90.9216652 584.274379,91.213 L584.274379,92.156 C584.857049,91.5119968 585.485709,90.9983352 586.160379,90.615 C586.835049,90.2316647 587.632374,90.04 588.552379,90.04 C589.395716,90.04 590.127876,90.2393313 590.748879,90.638 C591.369882,91.0366687 591.845211,91.5809966 592.174879,92.271 C592.504547,92.9610034 592.669379,93.7199959 592.669379,94.548 L592.669379,101.08 C592.669379,101.371335 592.56588,101.616666 592.358879,101.816 C592.151878,102.015334 591.902714,102.115 591.611379,102.115 C591.320044,102.115 591.074713,102.015334 590.875379,101.816 C590.676045,101.616666 590.576379,101.371335 590.576379,101.08 L590.576379,94.778 C590.576379,92.907324 589.733054,91.972 588.046379,91.972 C587.279708,91.972 586.593549,92.1713313 585.987879,92.57 C585.382209,92.9686687 584.811048,93.50533 584.274379,94.18 L584.274379,101.08 C584.274379,101.371335 584.17088,101.616666 583.963879,101.816 C583.756878,102.015334 583.507714,102.115 583.216379,102.115 Z M602.642533,102.23 C601.538527,102.23 600.518871,101.984669 599.583533,101.494 C598.648195,101.003331 597.900702,100.298005 597.341033,99.378 C596.781363,98.4579954 596.501533,97.3770062 596.501533,96.135 C596.501533,94.8929938 596.781363,93.8120046 597.341033,92.892 C597.900702,91.9719954 598.648195,91.2666691 599.583533,90.776 C600.518871,90.2853309 601.538527,90.04 602.642533,90.04 C603.455204,90.04 604.156697,90.143499 604.747033,90.3505 C605.337369,90.557501 605.88553,90.8219984 606.391533,91.144 C606.698201,91.3433343 606.851533,91.611665 606.851533,91.949 C606.851533,92.1790012 606.763367,92.3898324 606.587033,92.5815 C606.410699,92.7731676 606.207534,92.869 605.977533,92.869 C605.808865,92.869 605.6402,92.8230005 605.471533,92.731 C604.96553,92.470332 604.532368,92.2825006 604.172033,92.1675 C603.811698,92.0524994 603.363202,91.995 602.826533,91.995 C601.50786,91.995 600.47287,92.3744962 599.721533,93.1335 C598.970196,93.8925038 598.594533,94.8929938 598.594533,96.135 C598.594533,97.3770062 598.970196,98.3774962 599.721533,99.1365 C600.47287,99.8955038 601.50786,100.275 602.826533,100.275 C603.363202,100.275 603.811698,100.217501 604.172033,100.1025 C604.532368,99.9874994 604.96553,99.799668 605.471533,99.539 C605.6402,99.4469995 605.808865,99.401 605.977533,99.401 C606.207534,99.401 606.410699,99.4968324 606.587033,99.6885 C606.763367,99.8801676 606.851533,100.090999 606.851533,100.321 C606.851533,100.658335 606.698201,100.926666 606.391533,101.126 C605.88553,101.448002 605.337369,101.712499 604.747033,101.9195 C604.156697,102.126501 603.455204,102.23 602.642533,102.23 Z M615.651687,102.23 C613.781011,102.23 612.320526,101.697172 611.270187,100.6315 C610.219848,99.565828 609.694687,98.0670097 609.694687,96.135 C609.694687,95.0463279 609.894018,94.0420046 610.292687,93.122 C610.691356,92.2019954 611.304683,91.4583362 612.132687,90.891 C612.960691,90.3236638 613.980348,90.04 615.191687,90.04 C616.326359,90.04 617.307683,90.3044974 618.135687,90.8335 C618.963691,91.3625026 619.592351,92.0678289 620.021687,92.9495 C620.451022,93.8311711 620.665687,94.7933281 620.665687,95.836 C620.665687,96.1273348 620.569855,96.3726657 620.378187,96.572 C620.186519,96.7713343 619.929689,96.871 619.607687,96.871 L611.810687,96.871 C611.933354,97.9443387 612.332017,98.779997 613.006687,99.378 C613.681357,99.976003 614.624348,100.275 615.835687,100.275 C616.47969,100.275 617.043185,100.213667 617.526187,100.091 C618.009189,99.9683327 618.480685,99.7920012 618.940687,99.562 C619.063354,99.5006664 619.201353,99.47 619.354687,99.47 C619.600022,99.47 619.814686,99.5543325 619.998687,99.723 C620.182688,99.8916675 620.274687,100.106332 620.274687,100.367 C620.274687,100.704335 620.075356,100.987999 619.676687,101.218 C619.078684,101.555335 618.488357,101.808332 617.905687,101.977 C617.323017,102.145668 616.571692,102.23 615.651687,102.23 Z M618.595687,95.169 C618.549687,94.4176629 618.354189,93.7890025 618.009187,93.283 C617.664185,92.7769975 617.238689,92.4051679 616.732687,92.1675 C616.226684,91.9298321 615.713023,91.811 615.191687,91.811 C614.670351,91.811 614.156689,91.9298321 613.650687,92.1675 C613.144684,92.4051679 612.723022,92.7769975 612.385687,93.283 C612.048352,93.7890025 611.856687,94.4176629 611.810687,95.169 L618.595687,95.169 Z M625.486841,102.115 C625.195506,102.115 624.950175,102.015334 624.750841,101.816 C624.551507,101.616666 624.451841,101.371335 624.451841,101.08 L624.451841,91.213 C624.451841,90.9216652 624.551507,90.672501 624.750841,90.4655 C624.950175,90.258499 625.195506,90.155 625.486841,90.155 C625.778176,90.155 626.02734,90.258499 626.234341,90.4655 C626.441342,90.672501 626.544841,90.9216652 626.544841,91.213 L626.544841,92.202 C627.61818,90.7606595 628.821834,90.04 630.155841,90.04 L630.270841,90.04 C630.562176,90.04 630.803673,90.1396657 630.995341,90.339 C631.187009,90.5383343 631.282841,90.7836652 631.282841,91.075 C631.282841,91.3663348 631.183175,91.6039991 630.983841,91.788 C630.784507,91.9720009 630.531509,92.064 630.224841,92.064 L630.109841,92.064 C629.373837,92.064 628.699177,92.2441649 628.085841,92.6045 C627.472505,92.9648351 626.958843,93.4593302 626.544841,94.088 L626.544841,101.08 C626.544841,101.371335 626.441342,101.616666 626.234341,101.816 C626.02734,102.015334 625.778176,102.115 625.486841,102.115 Z M577.808725,130.23 C576.704719,130.23 575.685063,129.984669 574.749725,129.494 C573.814387,129.003331 573.066894,128.298005 572.507225,127.378 C571.947555,126.457995 571.667725,125.377006 571.667725,124.135 C571.667725,122.892994 571.947555,121.812005 572.507225,120.892 C573.066894,119.971995 573.814387,119.266669 574.749725,118.776 C575.685063,118.285331 576.704719,118.04 577.808725,118.04 C578.621396,118.04 579.322889,118.143499 579.913225,118.3505 C580.503561,118.557501 581.051722,118.821998 581.557725,119.144 C581.864393,119.343334 582.017725,119.611665 582.017725,119.949 C582.017725,120.179001 581.929559,120.389832 581.753225,120.5815 C581.576891,120.773168 581.373726,120.869 581.143725,120.869 C580.975057,120.869 580.806392,120.823 580.637725,120.731 C580.131722,120.470332 579.69856,120.282501 579.338225,120.1675 C578.97789,120.052499 578.529394,119.995 577.992725,119.995 C576.674052,119.995 575.639062,120.374496 574.887725,121.1335 C574.136388,121.892504 573.760725,122.892994 573.760725,124.135 C573.760725,125.377006 574.136388,126.377496 574.887725,127.1365 C575.639062,127.895504 576.674052,128.275 577.992725,128.275 C578.529394,128.275 578.97789,128.217501 579.338225,128.1025 C579.69856,127.987499 580.131722,127.799668 580.637725,127.539 C580.806392,127.447 580.975057,127.401 581.143725,127.401 C581.373726,127.401 581.576891,127.496832 581.753225,127.6885 C581.929559,127.880168 582.017725,128.090999 582.017725,128.321 C582.017725,128.658335 581.864393,128.926666 581.557725,129.126 C581.051722,129.448002 580.503561,129.712499 579.913225,129.9195 C579.322889,130.126501 578.621396,130.23 577.808725,130.23 Z M590.817879,130.23 C588.947203,130.23 587.486718,129.697172 586.436379,128.6315 C585.38604,127.565828 584.860879,126.06701 584.860879,124.135 C584.860879,123.046328 585.06021,122.042005 585.458879,121.122 C585.857548,120.201995 586.470875,119.458336 587.298879,118.891 C588.126883,118.323664 589.14654,118.04 590.357879,118.04 C591.492551,118.04 592.473875,118.304497 593.301879,118.8335 C594.129883,119.362503 594.758543,120.067829 595.187879,120.9495 C595.617214,121.831171 595.831879,122.793328 595.831879,123.836 C595.831879,124.127335 595.736047,124.372666 595.544379,124.572 C595.352711,124.771334 595.095881,124.871 594.773879,124.871 L586.976879,124.871 C587.099546,125.944339 587.498209,126.779997 588.172879,127.378 C588.847549,127.976003 589.79054,128.275 591.001879,128.275 C591.645882,128.275 592.209377,128.213667 592.692379,128.091 C593.175381,127.968333 593.646877,127.792001 594.106879,127.562 C594.229546,127.500666 594.367545,127.47 594.520879,127.47 C594.766214,127.47 594.980878,127.554332 595.164879,127.723 C595.34888,127.891668 595.440879,128.106332 595.440879,128.367 C595.440879,128.704335 595.241548,128.987999 594.842879,129.218 C594.244876,129.555335 593.654549,129.808332 593.071879,129.977 C592.489209,130.145668 591.737884,130.23 590.817879,130.23 Z M593.761879,123.169 C593.715879,122.417663 593.520381,121.789003 593.175379,121.283 C592.830377,120.776997 592.404881,120.405168 591.898879,120.1675 C591.392876,119.929832 590.879215,119.811 590.357879,119.811 C589.836543,119.811 589.322881,119.929832 588.816879,120.1675 C588.310876,120.405168 587.889214,120.776997 587.551879,121.283 C587.214544,121.789003 587.022879,122.417663 586.976879,123.169 L593.761879,123.169 Z M600.653033,130.115 C600.361698,130.115 600.116367,130.015334 599.917033,129.816 C599.717699,129.616666 599.618033,129.371335 599.618033,129.08 L599.618033,114.153 C599.618033,113.861665 599.717699,113.612501 599.917033,113.4055 C600.116367,113.198499 600.361698,113.095 600.653033,113.095 C600.959701,113.095 601.212699,113.194666 601.412033,113.394 C601.611367,113.593334 601.711033,113.846332 601.711033,114.153 L601.711033,129.08 C601.711033,129.371335 601.607534,129.616666 601.400533,129.816 C601.193532,130.015334 600.944368,130.115 600.653033,130.115 Z M607.406187,130.115 C607.114852,130.115 606.869521,130.015334 606.670187,129.816 C606.470853,129.616666 606.371187,129.371335 606.371187,129.08 L606.371187,114.153 C606.371187,113.861665 606.470853,113.612501 606.670187,113.4055 C606.869521,113.198499 607.114852,113.095 607.406187,113.095 C607.712855,113.095 607.965853,113.194666 608.165187,113.394 C608.364521,113.593334 608.464187,113.846332 608.464187,114.153 L608.464187,129.08 C608.464187,129.371335 608.360688,129.616666 608.153687,129.816 C607.946686,130.015334 607.697522,130.115 607.406187,130.115 Z" id="Cancercell" fill="#611A39" fill-rule="nonzero"></path>
                    <path d="M118.475225,109.12 C118.171223,109.12 117.915226,109.016001 117.707225,108.808 C117.499224,108.599999 117.395225,108.344002 117.395225,108.04 L117.395225,94.288 L112.499225,94.288 C112.211223,94.288 111.971226,94.192001 111.779225,94 C111.587224,93.807999 111.491225,93.5680014 111.491225,93.28 C111.491225,92.9919986 111.587224,92.748 111.779225,92.548 C111.971226,92.347999 112.211223,92.248 112.499225,92.248 L124.451225,92.248 C124.739226,92.248 124.983224,92.347999 125.183225,92.548 C125.383226,92.748 125.483225,92.9919986 125.483225,93.28 C125.483225,93.5680014 125.383226,93.807999 125.183225,94 C124.983224,94.192001 124.739226,94.288 124.451225,94.288 L119.579225,94.288 L119.579225,108.04 C119.579225,108.344002 119.471226,108.599999 119.255225,108.808 C119.039224,109.016001 118.779226,109.12 118.475225,109.12 Z M141.736764,109.24 C140.584758,109.24 139.520768,108.984003 138.544764,108.472 C137.568759,107.959997 136.788766,107.224005 136.204764,106.264 C135.620761,105.303995 135.328764,104.176006 135.328764,102.88 C135.328764,101.583994 135.620761,100.456005 136.204764,99.496 C136.788766,98.5359952 137.568759,97.8000026 138.544764,97.288 C139.520768,96.7759974 140.584758,96.52 141.736764,96.52 C142.584768,96.52 143.31676,96.6279989 143.932764,96.844 C144.548767,97.0600011 145.120761,97.3359983 145.648764,97.672 C145.968765,97.880001 146.128764,98.1599982 146.128764,98.512 C146.128764,98.7520012 146.036764,98.971999 145.852764,99.172 C145.668763,99.372001 145.456765,99.472 145.216764,99.472 C145.040763,99.472 144.864764,99.4240005 144.688764,99.328 C144.160761,99.0559986 143.708765,98.8600006 143.332764,98.74 C142.956762,98.6199994 142.488766,98.56 141.928764,98.56 C140.552757,98.56 139.472767,98.955996 138.688764,99.748 C137.90476,100.540004 137.512764,101.583994 137.512764,102.88 C137.512764,104.176006 137.90476,105.219996 138.688764,106.012 C139.472767,106.804004 140.552757,107.2 141.928764,107.2 C142.488766,107.2 142.956762,107.140001 143.332764,107.02 C143.646098,106.92 144.012207,106.767223 144.431096,106.561667 L144.688764,106.432 C144.864764,106.336 145.040763,106.288 145.216764,106.288 C145.456765,106.288 145.668763,106.387999 145.852764,106.588 C146.036764,106.788001 146.128764,107.007999 146.128764,107.248 C146.128764,107.600002 145.968765,107.879999 145.648764,108.088 C145.120761,108.424002 144.548767,108.699999 143.932764,108.916 C143.31676,109.132001 142.584768,109.24 141.736764,109.24 Z M155.311533,109.24 C153.359523,109.24 151.835538,108.684006 150.739533,107.572 C149.643527,106.459994 149.095533,104.89601 149.095533,102.88 C149.095533,101.743994 149.303531,100.696005 149.719533,99.736 C150.135535,98.7759952 150.775529,98.000003 151.639533,97.408 C152.503537,96.815997 153.567527,96.52 154.831533,96.52 C156.015539,96.52 157.039529,96.7959972 157.903533,97.348 C158.767537,97.9000028 159.423531,98.6359954 159.871533,99.556 C160.319535,100.476005 160.543533,101.479995 160.543533,102.568 C160.543533,102.872002 160.443534,103.127999 160.243533,103.336 C160.043532,103.544001 159.775535,103.648 159.439533,103.648 L151.303533,103.648 C151.431534,104.768006 151.847529,105.639997 152.551533,106.264 C153.255536,106.888003 154.239527,107.2 155.503533,107.2 C156.175536,107.2 156.76353,107.136001 157.267533,107.008 C157.771535,106.879999 158.263531,106.696001 158.743533,106.456 C158.871534,106.392 159.015532,106.36 159.175533,106.36 C159.431534,106.36 159.655532,106.447999 159.847533,106.624 C160.039534,106.800001 160.135533,107.023999 160.135533,107.296 C160.135533,107.648002 159.927535,107.943999 159.511533,108.184 C158.88753,108.536002 158.271536,108.799999 157.663533,108.976 C157.05553,109.152001 156.271538,109.24 155.311533,109.24 Z M158.383533,101.872 C158.335533,101.087996 158.131535,100.432003 157.771533,99.904 C157.411531,99.3759974 156.967536,98.9880012 156.439533,98.74 C155.91153,98.4919988 155.375536,98.368 154.831533,98.368 C154.28753,98.368 153.751536,98.4919988 153.223533,98.74 C152.69553,98.9880012 152.255535,99.3759974 151.903533,99.904 C151.551531,100.432003 151.351533,101.087996 151.303533,101.872 L158.383533,101.872 Z M165.574302,109.12 C165.270301,109.12 165.014303,109.016001 164.806302,108.808 C164.598301,108.599999 164.494302,108.344002 164.494302,108.04 L164.494302,92.464 C164.494302,92.1599985 164.598301,91.9000011 164.806302,91.684 C165.014303,91.4679989 165.270301,91.36 165.574302,91.36 C165.894304,91.36 166.158301,91.463999 166.366302,91.672 C166.574303,91.880001 166.678302,92.1439984 166.678302,92.464 L166.678302,108.04 C166.678302,108.344002 166.570303,108.599999 166.354302,108.808 C166.138301,109.016001 165.878304,109.12 165.574302,109.12 Z M172.621072,109.12 C172.31707,109.12 172.061073,109.016001 171.853072,108.808 C171.645071,108.599999 171.541072,108.344002 171.541072,108.04 L171.541072,92.464 C171.541072,92.1599985 171.645071,91.9000011 171.853072,91.684 C172.061073,91.4679989 172.31707,91.36 172.621072,91.36 C172.941073,91.36 173.205071,91.463999 173.413072,91.672 C173.621073,91.880001 173.725072,92.1439984 173.725072,92.464 L173.725072,108.04 C173.725072,108.344002 173.617073,108.599999 173.401072,108.808 C173.185071,109.016001 172.925073,109.12 172.621072,109.12 Z" id="Tcell" fill="#3C1A61" fill-rule="nonzero"></path>
                    <polygon id="Polygon" stroke="url(#linearGradient-8)" stroke-width="9" fill-rule="nonzero" transform="translate(27.685479, 109.216087) rotate(64.000000) translate(-27.685479, -109.216087) " points="27.6854792 89.5430276 48.3709585 104.571908 40.4698085 128.889147 14.90115 128.889147 7 104.571908"></polygon>
                    <polygon id="Polygon" stroke="url(#linearGradient-8)" stroke-width="9" fill-rule="nonzero" transform="translate(152.798824, 220.516913) rotate(31.000000) translate(-152.798824, -220.516913) " points="152.798824 200.843853 173.484303 215.872734 165.583153 240.189973 140.014495 240.189973 132.113345 215.872734"></polygon>
                    <polyline id="Line-2" stroke="#C4C4C4" stroke-width="2" stroke-linecap="square" fill-rule="nonzero" points="152.935533 256 152.935533 273 263.935533 273"></polyline>
                    <polyline id="Line-2" stroke="#C4C4C4" stroke-width="2" stroke-linecap="square" fill-rule="nonzero" points="297.935533 136 297.935533 156 337.935533 156"></polyline>
                    <polyline id="Line-2" stroke="#C4C4C4" stroke-width="2" stroke-linecap="square" fill-rule="nonzero" transform="translate(420.935533, 146.000000) scale(-1, 1) translate(-420.935533, -146.000000) " points="400.935533 136 400.935533 156 440.935533 156"></polyline>
                    <polyline id="Line-2" stroke="#C4C4C4" stroke-width="2" stroke-linecap="square" fill-rule="nonzero" transform="translate(542.935533, 265.500000) scale(-1, 1) translate(-542.935533, -265.500000) " points="472.935533 257 472.935533 274 612.935533 274"></polyline>
                    <g id="BiTE" transform="translate(235.935533, 77.000000)" fill-rule="nonzero">
                        <g id="Group-2" transform="translate(164.000000, 8.000000)">
                            <polygon id="Triangle" stroke="url(#linearGradient-7)" stroke-width="9" transform="translate(77.190356, 21.171395) rotate(20.000000) translate(-77.190356, -21.171395) " points="77.1903561 5.60242936 94.9834595 36.7403604 59.3972526 36.7403604"></polygon>
                            <path d="M44.8604655,25.999 L37.4025853,32.308186 L53.0534655,37.999 L0.507465535,38 L0.507465535,26 L44.8604655,25.999 Z M67.3214655,7 L53.1354655,19 L0.507465535,19 L0.507465535,7 L67.3214655,7 Z" id="Combined-Shape" fill="url(#linearGradient-9)"></path>
                        </g>
                        <g id="Group">
                            <polygon id="Polygon" stroke="url(#linearGradient-8)" stroke-width="9" transform="translate(28.749523, 27.912370) rotate(30.000000) translate(-28.749523, -27.912370) " points="28.7495226 8.23930976 49.4350019 23.2681901 41.5338519 47.5854294 15.9651934 47.5854294 8.0640434 23.2681901"></polygon>
                            <path d="M111.619789,34 L111.619789,46 L51.511669,45.999 L61.7005173,36.7477817 L60.486669,33.999 L111.619789,34 Z M111.619789,15 L111.619789,27 L57.396669,27 L52.099669,15 L111.619789,15 Z" id="Combined-Shape" fill="url(#linearGradient-10)"></path>
                        </g>
                    </g>
                    <path d="M361.935533,103 L379.935533,103 C382.144672,103 383.935533,104.790861 383.935533,107 C383.935533,109.209139 382.144672,111 379.935533,111 L361.935533,111 C359.726394,111 357.935533,109.209139 357.935533,107 C357.935533,104.790861 359.726394,103 361.935533,103 Z M357.317184,106.955777 C357.317184,100.61534 351.995461,95.2808181 346.100302,95.2808181 L346.100302,95.2726867 C346.042743,95.2780701 345.984482,95.2808181 345.925625,95.2808181 C344.826527,95.2808181 343.935533,94.3225244 343.935533,93.1404091 C343.935533,91.9582938 344.826527,91 345.925625,91 C345.964863,91 346.023089,91 346.100302,91 C354.293574,91 360.935533,98.1436445 360.935533,106.955777 C360.935533,115.721124 354.382975,122.900803 346.249933,122.971721 C346.144393,122.990325 346.036059,123 345.925625,123 C344.826527,123 343.935533,122.041706 343.935533,120.859591 C343.935533,119.677476 344.826527,118.719182 345.925625,118.719182 C346.032306,118.719182 346.137027,118.72821 346.239163,118.745595 C352.086248,118.681516 357.317184,113.253308 357.317184,106.955777 Z" id="Combined-Shape" fill="url(#linearGradient-11)" fill-rule="nonzero" transform="translate(363.935533, 107.000000) scale(-1, 1) translate(-363.935533, -107.000000) "></path>
                    <path d="M397.935533,97 C403.45838,97 407.935533,101.477153 407.935533,107 C407.935533,112.522847 403.45838,117 397.935533,117 C393.835055,117 390.311008,114.532002 388.767801,111.000413 L375.435533,111 C373.502536,111 371.935533,109.432997 371.935533,107.5 C371.935533,105.567003 373.502536,104 375.435533,104 L388.393298,104.000119 C389.667525,99.9429507 393.457847,97 397.935533,97 Z" id="Combined-Shape" fill="url(#linearGradient-12)" fill-rule="nonzero" transform="translate(389.935533, 107.000000) scale(-1, 1) translate(-389.935533, -107.000000) "></path>
                    <path d="M358.435533,56.5 L363.935533,89" id="Line-5" stroke="#C4C4C4" stroke-width="2" stroke-linecap="square" transform="translate(361.435533, 73.000000) rotate(-2.394796) translate(-361.435533, -73.000000) "></path>
                    <path d="M404.435533,56.5 L397.435533,88.5" id="Line-5" stroke="#C4C4C4" stroke-width="2" stroke-linecap="square"></path>
                </g>
            </g>
        </g>
    </g>
</svg>