<?xml version="1.0" encoding="UTF-8"?>
<svg width="1920px" height="706px" viewBox="0 0 1920 706" version="1.1" xmlns="http://www.w3.org/2000/svg" xmlns:xlink="http://www.w3.org/1999/xlink">
    <!-- Generator: Sketch 59 (86127) - https://sketch.com -->
    <title>Artboard</title>
    <desc>Created with Sketch.</desc>
    <defs>
        <path d="M113.861569,410.280083 C113.497599,410.280083 113.103305,410.271439 112.678674,410.254149 C112.254043,410.23686 111.829418,410.210927 111.404787,410.176349 C110.980156,410.14177 110.559864,410.098548 110.143899,410.04668 C109.727933,409.994813 109.346638,409.925657 109,409.839212 L109,392.411826 C109.346638,392.32538 109.727933,392.256224 110.143899,392.204357 C110.559864,392.152489 110.980156,392.109267 111.404787,392.074689 C111.829418,392.04011 112.24971,392.014177 112.665675,391.996888 C113.08164,391.979599 113.471602,391.970954 113.835571,391.970954 C114.875484,391.970954 115.850388,392.048754 116.760312,392.204357 C117.670236,392.359959 118.458824,392.623615 119.126102,392.995332 C119.793379,393.367049 120.317661,393.85546 120.698963,394.460581 C121.080264,395.065702 121.270912,395.809124 121.270912,396.690871 C121.270912,397.676353 121.036935,398.48461 120.568974,399.115664 C120.101013,399.746718 119.477075,400.217841 118.69714,400.529046 C119.754385,400.840251 120.594969,401.332984 121.218916,402.007261 C121.842864,402.681539 122.154833,403.632428 122.154833,404.859959 C122.154833,406.658031 121.491899,408.010888 120.16601,408.918568 C118.840121,409.826249 116.738661,410.280083 113.861569,410.280083 Z M111.495779,401.747925 L111.495779,408.075726 L111.807751,408.10166 L111.807751,408.10166 L112.171719,408.127593 C112.397033,408.144883 112.66134,408.157849 112.964648,408.166494 L113.727518,408.17865 C113.821218,408.17919 113.917897,408.179461 114.017555,408.179461 C114.762826,408.179461 115.46909,408.131916 116.136367,408.036826 C116.803645,407.941735 117.388587,407.773169 117.891212,407.53112 C118.393836,407.289072 118.796796,406.951939 119.100104,406.51971 C119.403412,406.087481 119.555064,405.54288 119.555064,404.885892 C119.555064,404.298061 119.442408,403.801005 119.217094,403.39471 C118.991779,402.988414 118.666812,402.664247 118.24218,402.422199 C117.817549,402.180151 117.310599,402.007262 116.721315,401.903527 C116.132031,401.799792 115.47343,401.747925 114.74549,401.747925 L111.495779,401.747925 Z M111.495779,399.725104 L114.147544,399.725104 C114.771491,399.725104 115.360766,399.681881 115.915387,399.595436 C116.470007,399.50899 116.95096,399.35339 117.358259,399.128631 C117.765558,398.903872 118.086193,398.60996 118.320173,398.246888 C118.554154,397.883816 118.671142,397.42566 118.671142,396.872407 C118.671142,396.353732 118.549821,395.917187 118.307175,395.562759 C118.064528,395.208332 117.730895,394.923065 117.306263,394.70695 C116.881632,394.490836 116.383348,394.330913 115.811396,394.227178 C115.239444,394.123443 114.632837,394.071577 113.991557,394.071577 L113.24346,394.07634 C112.944929,394.080574 112.691674,394.087631 112.483691,394.09751 C112.119722,394.1148 111.790421,394.140733 111.495779,394.175311 L111.495779,399.725104 Z M128.84274,410.124481 L126.424955,410.124481 L126.424955,396.639004 L128.84274,396.639004 L128.84274,410.124481 Z M127.620849,394.201245 C127.187552,394.201245 126.819255,394.058611 126.515947,393.77334 C126.212639,393.488069 126.060987,393.103391 126.060987,392.619295 C126.060987,392.135198 126.212639,391.75052 126.515947,391.465249 C126.819255,391.179978 127.187552,391.037344 127.620849,391.037344 C128.054146,391.037344 128.422443,391.179978 128.725751,391.465249 C129.029059,391.75052 129.18071,392.135198 129.18071,392.619295 C129.18071,393.103391 129.029059,393.488069 128.725751,393.77334 C128.422443,394.058611 128.054146,394.201245 127.620849,394.201245 Z M137.012516,408.386929 C138.000433,408.386929 138.732694,408.257263 139.209321,407.997925 C139.685948,407.738588 139.924258,407.323654 139.924258,406.753112 C139.924258,406.165281 139.690281,405.69848 139.22232,405.352697 C138.796901,405.038349 138.120824,404.688284 137.194071,404.302494 L136.908525,404.185685 C136.388569,403.978215 135.890284,403.766426 135.413658,403.550311 C134.937031,403.334197 134.525405,403.079185 134.178767,402.78527 C133.832129,402.491354 133.554823,402.136932 133.346841,401.721992 C133.138858,401.307052 133.034869,400.797029 133.034869,400.191909 C133.034869,398.998957 133.476825,398.052389 134.360751,397.352178 C135.244677,396.651967 136.449225,396.301867 137.97443,396.301867 C138.355732,396.301867 138.737028,396.323478 139.118329,396.366701 C139.49963,396.409924 139.854929,396.461791 140.184235,396.522303 C140.431214,396.567687 140.656255,396.615502 140.859362,396.665748 L141.055157,396.716805 C141.30647,396.785962 141.50145,396.846473 141.640105,396.89834 L141.198145,398.973029 C140.938166,398.834716 140.530873,398.692082 139.976253,398.545124 C139.421633,398.398167 138.754365,398.324689 137.97443,398.324689 C137.298487,398.324689 136.709212,398.458678 136.206587,398.72666 C135.703963,398.994642 135.452654,399.413898 135.452654,399.98444 C135.452654,400.278356 135.508982,400.537689 135.621639,400.762448 C135.734296,400.987207 135.907613,401.190352 136.141593,401.371888 C136.375573,401.553424 136.665878,401.721991 137.012516,401.877593 C137.359153,402.033196 137.775112,402.19744 138.260405,402.370332 C138.901685,402.61238 139.473628,402.850103 139.976253,403.083506 C140.478878,403.31691 140.907835,403.58921 141.263139,403.900415 C141.618442,404.21162 141.891415,404.587653 142.082066,405.028527 C142.272717,405.469401 142.368041,406.009679 142.368041,406.649378 C142.368041,407.894197 141.90442,408.836442 140.977164,409.476141 C140.049908,410.11584 138.728372,410.435685 137.012516,410.435685 C135.816616,410.435685 134.880708,410.336273 134.204765,410.137448 L133.786233,410.011942 C133.335392,409.873736 133.015612,409.764293 132.826887,409.68361 L133.268848,407.608921 L134.374968,408.000356 C134.445649,408.024669 134.518903,408.049792 134.59473,408.075726 C135.201346,408.283196 136.007267,408.386929 137.012516,408.386929 Z M155.711358,403.407676 C155.711358,401.834363 155.321396,400.62414 154.541461,399.776971 C153.761527,398.929802 152.721629,398.506224 151.421738,398.506224 L150.905845,398.511087 C150.420013,398.520812 150.024363,398.545124 149.718889,398.584025 C149.31159,398.635892 148.986622,398.696404 148.743975,398.76556 L148.743975,407.271784 C149.038617,407.513832 149.463242,407.747233 150.017862,407.971992 C150.572483,408.196751 151.179089,408.309129 151.837701,408.309129 C152.530976,408.309129 153.124584,408.183784 153.618543,407.933091 C154.112502,407.682398 154.515462,407.33662 154.827436,406.895747 C155.13941,406.454873 155.364721,405.936206 155.503376,405.33973 C155.642031,404.743254 155.711358,404.099243 155.711358,403.407676 Z M158.233134,403.407676 C158.233134,404.427737 158.098814,405.369982 157.83017,406.23444 C157.561525,407.098898 157.167231,407.842321 156.647275,408.46473 C156.127318,409.08714 155.490381,409.571229 154.736444,409.917012 C153.982507,410.262796 153.120259,410.435685 152.149673,410.435685 C151.369739,410.435685 150.680807,410.331951 150.082857,410.124481 C149.484907,409.917011 149.038617,409.718189 148.743975,409.528008 L148.743975,414.922199 L146.32619,414.922199 L146.32619,397.053942 C146.898142,396.915629 147.613071,396.764351 148.471,396.600104 C149.328928,396.435857 150.321163,396.353734 151.447736,396.353734 C152.487649,396.353734 153.423556,396.517979 154.255487,396.846473 C155.087417,397.174967 155.798014,397.641767 156.387298,398.246888 C156.976582,398.852009 157.431537,399.591109 157.752177,400.464212 C158.072816,401.337314 158.233134,402.318459 158.233134,403.407676 Z M161.749322,403.407676 C161.749322,402.214724 161.922638,401.173068 162.269276,400.282676 C162.615914,399.392285 163.075202,398.653184 163.647154,398.065353 C164.219106,397.477521 164.877708,397.036654 165.622979,396.742739 C166.36825,396.448823 167.130841,396.301867 167.910776,396.301867 C169.730623,396.301867 171.125819,396.868079 172.096404,398.000519 C173.06699,399.132959 173.552275,400.857526 173.552275,403.174274 L173.552275,403.576245 C173.552275,403.740492 173.54361,403.89177 173.526278,404.030083 L164.271098,404.030083 C164.37509,405.430505 164.782383,406.493772 165.49299,407.219917 C166.203597,407.946062 167.312821,408.309129 168.820695,408.309129 C169.669957,408.309129 170.384887,408.235651 170.965505,408.088693 C171.546123,407.941735 171.983746,407.799102 172.278388,407.660788 L172.616358,409.68361 C172.321716,409.839212 171.806101,410.003457 171.069496,410.176349 C170.332891,410.34924 169.49664,410.435685 168.560718,410.435685 C167.38215,410.435685 166.363917,410.258473 165.505989,409.904046 C164.648061,409.549618 163.941797,409.061206 163.387177,408.438797 C162.832557,407.816387 162.420931,407.077286 162.152286,406.221473 C161.883642,405.36566 161.749322,404.427737 161.749322,403.407676 Z M171.030499,402.085062 C171.047831,400.995845 170.774858,400.101145 170.211572,399.400934 C169.648285,398.700723 168.872695,398.350622 167.884778,398.350622 C167.330158,398.350622 166.840539,398.458678 166.415908,398.674793 C165.991277,398.890907 165.631646,399.171852 165.337004,399.517635 C165.042362,399.863418 164.812718,400.261063 164.648065,400.710581 C164.483412,401.160099 164.375089,401.618255 164.323094,402.085062 L171.030499,402.085062 Z M183.775869,410.435685 C182.68396,410.435685 181.726388,410.262796 180.903123,409.917012 C180.079859,409.571229 179.386594,409.08714 178.823308,408.46473 C178.260022,407.842321 177.83973,407.10322 177.56242,406.247407 C177.28511,405.391593 177.146457,404.445026 177.146457,403.407676 C177.146457,402.370327 177.298108,401.419437 177.601416,400.554979 C177.904724,399.690521 178.333682,398.942776 178.888302,398.311722 C179.442922,397.680668 180.123189,397.187934 180.929121,396.833506 C181.735054,396.479078 182.631965,396.301867 183.619883,396.301867 C184.226498,396.301867 184.833105,396.353734 185.439721,396.457469 C186.046337,396.561204 186.626946,396.725448 187.181567,396.950207 L186.635615,398.998963 C186.271646,398.826071 185.851354,398.68776 185.374727,398.584025 C184.8981,398.48029 184.39115,398.428423 183.853862,398.428423 C182.501975,398.428423 181.46641,398.852001 180.747137,399.69917 C180.027864,400.546339 179.668233,401.782495 179.668233,403.407676 C179.668233,404.133821 179.750558,404.799444 179.915211,405.404564 C180.079864,406.009685 180.339838,406.528352 180.695142,406.960581 C181.050446,407.39281 181.505401,407.725621 182.060021,407.959025 C182.614641,408.192429 183.290574,408.309129 184.087841,408.309129 C184.729121,408.309129 185.30973,408.248617 185.829687,408.127593 C186.349643,408.006569 186.756936,407.876902 187.051578,407.738589 L187.389548,409.761411 C187.250893,409.847857 187.051579,409.929979 186.791601,410.00778 C186.531623,410.085581 186.236985,410.154737 185.90768,410.215249 C185.578374,410.275761 185.227408,410.327628 184.854773,410.370851 C184.482138,410.414074 184.122506,410.435685 183.775869,410.435685 Z M193.271527,410.124481 L190.853741,410.124481 L190.853741,396.639004 L193.271527,396.639004 L193.271527,410.124481 Z M192.049635,394.201245 C191.616338,394.201245 191.248041,394.058611 190.944733,393.77334 C190.641425,393.488069 190.489773,393.103391 190.489773,392.619295 C190.489773,392.135198 190.641425,391.75052 190.944733,391.465249 C191.248041,391.179978 191.616338,391.037344 192.049635,391.037344 C192.482932,391.037344 192.851229,391.179978 193.154537,391.465249 C193.457845,391.75052 193.609497,392.135198 193.609497,392.619295 C193.609497,393.103391 193.457845,393.488069 193.154537,393.77334 C192.851229,394.058611 192.482932,394.201245 192.049635,394.201245 Z M203.573113,390 C204.179729,390 204.699678,390.0389 205.132975,390.116701 L205.474659,390.182329 C205.734636,390.236137 205.932713,390.287739 206.068892,390.337137 L205.730922,392.411826 C205.540271,392.342669 205.280297,392.269191 204.950991,392.19139 C204.621685,392.113589 204.223058,392.074689 203.755097,392.074689 C202.628524,392.074689 201.839936,392.381567 201.389307,392.995332 C200.938678,393.609097 200.713367,394.434642 200.713367,395.471992 L200.713367,396.639004 L205.912906,396.639004 L205.912906,398.661826 L200.713367,398.661826 L200.713367,410.124481 L198.295581,410.124481 L198.295581,395.420124 C198.295581,393.691209 198.720206,392.355641 199.569468,391.413382 C200.41873,390.471123 201.753265,390 203.573113,390 Z M210.852467,410.124481 L208.434682,410.124481 L208.434682,396.639004 L210.852467,396.639004 L210.852467,410.124481 Z M209.630576,394.201245 C209.197279,394.201245 208.828982,394.058611 208.525674,393.77334 C208.222366,393.488069 208.070714,393.103391 208.070714,392.619295 C208.070714,392.135198 208.222366,391.75052 208.525674,391.465249 C208.828982,391.179978 209.197279,391.037344 209.630576,391.037344 C210.063873,391.037344 210.43217,391.179978 210.735478,391.465249 C211.038786,391.75052 211.190438,392.135198 211.190438,392.619295 C211.190438,393.103391 211.038786,393.488069 210.735478,393.77334 C210.43217,394.058611 210.063873,394.201245 209.630576,394.201245 Z M221.752001,410.435685 C220.660092,410.435685 219.70252,410.262796 218.879256,409.917012 C218.055991,409.571229 217.362726,409.08714 216.79944,408.46473 C216.236154,407.842321 215.815862,407.10322 215.538552,406.247407 C215.261242,405.391593 215.122589,404.445026 215.122589,403.407676 C215.122589,402.370327 215.27424,401.419437 215.577548,400.554979 C215.880856,399.690521 216.309814,398.942776 216.864434,398.311722 C217.419055,397.680668 218.099321,397.187934 218.905253,396.833506 C219.711186,396.479078 220.608097,396.301867 221.596015,396.301867 C222.202631,396.301867 222.809237,396.353734 223.415853,396.457469 C224.022469,396.561204 224.603079,396.725448 225.157699,396.950207 L224.611747,398.998963 C224.247778,398.826071 223.827486,398.68776 223.350859,398.584025 C222.874232,398.48029 222.367282,398.428423 221.829994,398.428423 C220.478107,398.428423 219.442543,398.852001 218.723269,399.69917 C218.003996,400.546339 217.644365,401.782495 217.644365,403.407676 C217.644365,404.133821 217.72669,404.799444 217.891343,405.404564 C218.055996,406.009685 218.31597,406.528352 218.671274,406.960581 C219.026578,407.39281 219.481533,407.725621 220.036153,407.959025 C220.590773,408.192429 221.266707,408.309129 222.063973,408.309129 C222.705253,408.309129 223.285862,408.248617 223.805819,408.127593 C224.325775,408.006569 224.733068,407.876902 225.02771,407.738589 L225.36568,409.761411 C225.227025,409.847857 225.027712,409.929979 224.767733,410.00778 C224.507755,410.085581 224.213118,410.154737 223.883812,410.215249 C223.554506,410.275761 223.203541,410.327628 222.830905,410.370851 C222.45827,410.414074 222.098639,410.435685 221.752001,410.435685 Z M247.892683,410.124481 C247.598041,409.346469 247.320735,408.581435 247.060756,407.829357 C246.800778,407.077278 246.532138,406.312245 246.254828,405.534232 L238.091552,405.534232 L236.453697,410.124481 L233.82793,410.124481 L234.973951,407.00398 C235.157879,406.507185 235.338271,406.022034 235.515126,405.548524 L235.777757,404.846992 C236.384373,403.230455 236.977981,401.696065 237.558599,400.243776 C238.139217,398.791487 238.715494,397.404052 239.287446,396.081432 C239.859398,394.758811 240.457339,393.449177 241.081287,392.15249 L243.395082,392.15249 C244.019029,393.449177 244.61697,394.758811 245.188922,396.081432 C245.760875,397.404052 246.337151,398.791487 246.917769,400.243776 C247.382264,401.405607 247.855072,402.619983 248.336202,403.886927 L248.698611,404.846992 C249.305227,406.463528 249.955163,408.222674 250.648438,410.124481 L247.892683,410.124481 Z M245.526892,403.459544 C244.972272,401.955387 244.421993,400.498797 243.876039,399.08973 C243.330085,397.680664 242.762474,396.327807 242.17319,395.03112 C241.566574,396.327807 240.990298,397.680664 240.444343,399.08973 C239.898389,400.498797 239.356776,401.955387 238.819487,403.459544 L245.526892,403.459544 Z M253.800659,397.028008 C254.355279,396.889695 255.091873,396.742739 256.010463,396.587137 C256.929053,396.431534 257.986282,396.353734 259.182181,396.353734 C260.256758,396.353734 261.149337,396.505012 261.859944,396.807573 C262.570551,397.110133 263.138162,397.533711 263.562793,398.07832 C263.987424,398.622928 264.286395,399.275584 264.459713,400.036307 C264.633032,400.79703 264.71969,401.635542 264.71969,402.551867 L264.71969,410.124481 L262.301905,410.124481 L262.301905,403.070539 C262.301905,402.24066 262.245577,401.531815 262.13292,400.943983 C262.020263,400.356152 261.833948,399.880707 261.573969,399.517635 C261.313991,399.154562 260.967359,398.890907 260.534062,398.72666 C260.100765,398.562413 259.563484,398.48029 258.922205,398.48029 C258.662226,398.48029 258.393586,398.488935 258.116276,398.506224 C257.838966,398.523513 257.574659,398.545124 257.323346,398.571058 C257.155805,398.588347 256.999819,398.607557 256.855388,398.628688 L256.277199,398.728216 C256.255361,398.732365 256.235776,398.736169 256.218444,398.739627 L256.218444,410.124481 L253.800659,410.124481 L253.800659,397.028008 Z M271.849558,396.639004 L276.971104,396.639004 L276.971104,398.661826 L271.849558,398.661826 L271.849558,404.885892 C271.849558,405.560169 271.901553,406.117736 272.005544,406.55861 C272.109536,406.999484 272.26552,407.345262 272.473503,407.595954 C272.681485,407.846647 272.94146,408.023858 273.253434,408.127593 C273.565407,408.231328 273.929372,408.283195 274.345337,408.283195 C275.073276,408.283195 275.658218,408.201073 276.100181,408.036826 L276.841646,407.757642 C276.913095,407.730121 276.97358,407.706481 277.023099,407.686722 L277.491058,409.68361 C277.248411,409.804634 276.823787,409.955912 276.217171,410.137448 C275.610555,410.318984 274.91729,410.409751 274.137355,410.409751 C273.218765,410.409751 272.460507,410.293051 271.862557,410.059647 C271.264607,409.826244 270.783654,409.476143 270.419685,409.009336 C270.055715,408.542529 269.800074,407.967673 269.652753,407.284751 C269.505432,406.601829 269.431773,405.810862 269.431773,404.911826 L269.431773,392.878631 L271.849558,392.463693 L271.849558,396.639004 Z M283.321041,410.124481 L280.903255,410.124481 L280.903255,396.639004 L283.321041,396.639004 L283.321041,410.124481 Z M282.099149,394.201245 C281.665852,394.201245 281.297555,394.058611 280.994247,393.77334 C280.690939,393.488069 280.539287,393.103391 280.539287,392.619295 C280.539287,392.135198 280.690939,391.75052 280.994247,391.465249 C281.297555,391.179978 281.665852,391.037344 282.099149,391.037344 C282.532446,391.037344 282.900743,391.179978 283.204051,391.465249 C283.507359,391.75052 283.659011,392.135198 283.659011,392.619295 C283.659011,393.103391 283.507359,393.488069 283.204051,393.77334 C282.900743,394.058611 282.532446,394.201245 282.099149,394.201245 Z M290.762881,397.235477 C291.057523,397.045296 291.503812,396.846474 292.101762,396.639004 C292.699712,396.431534 293.388644,396.327801 294.168579,396.327801 C295.139164,396.327801 296.001412,396.50069 296.755349,396.846473 C297.509286,397.192256 298.146223,397.676345 298.66618,398.298755 C299.186136,398.921165 299.580431,399.664588 299.849075,400.529046 C300.117719,401.393504 300.252039,402.344393 300.252039,403.381743 C300.252039,404.47096 300.091722,405.452105 299.771082,406.325207 C299.450442,407.19831 298.995487,407.937411 298.406203,408.542531 C297.816919,409.147652 297.106322,409.614452 296.274392,409.942946 C295.442462,410.27144 294.506554,410.435685 293.466641,410.435685 C292.340069,410.435685 291.3435,410.357885 290.476906,410.202282 L289.85621,410.085581 C289.264762,409.96888 288.76106,409.852179 288.345095,409.735477 L288.345095,390.414938 L290.762881,390 L290.762881,397.235477 Z M290.762881,408.023859 C291.005527,408.093016 291.347827,408.157849 291.78979,408.218361 C292.231753,408.278873 292.782032,408.309129 293.440643,408.309129 C294.740535,408.309129 295.780432,407.881228 296.560367,407.025415 C297.340301,406.169602 297.730263,404.955056 297.730263,403.381743 C297.730263,402.690176 297.660936,402.041843 297.522281,401.436722 C297.383626,400.831601 297.158315,400.308612 296.846341,399.867739 C296.534367,399.426865 296.131407,399.081087 295.637449,398.830394 C295.14349,398.579701 294.549882,398.454357 293.856606,398.454357 C293.197995,398.454357 292.591388,398.566735 292.036768,398.791494 C291.482148,399.016253 291.057523,399.249653 290.762881,399.491701 L290.762881,408.023859 Z M316.455102,403.381743 C316.455102,404.453671 316.299118,405.421849 315.987144,406.286307 C315.67517,407.150765 315.237547,407.894188 314.67426,408.516598 C314.110974,409.139007 313.439374,409.618774 312.659439,409.955913 C311.879504,410.293051 311.030255,410.461618 310.111665,410.461618 C309.193075,410.461618 308.343826,410.293051 307.563891,409.955913 C306.783956,409.618774 306.112356,409.139007 305.54907,408.516598 C304.985783,407.894188 304.54816,407.150765 304.236186,406.286307 C303.924212,405.421849 303.768227,404.453671 303.768227,403.381743 C303.768227,402.327104 303.924212,401.363248 304.236186,400.490145 C304.54816,399.617043 304.985783,398.869298 305.54907,398.246888 C306.112356,397.624478 306.783956,397.144711 307.563891,396.807573 C308.343826,396.470434 309.193075,396.301867 310.111665,396.301867 C311.030255,396.301867 311.879504,396.470434 312.659439,396.807573 C313.439374,397.144711 314.110974,397.624478 314.67426,398.246888 C315.237547,398.869298 315.67517,399.617043 315.987144,400.490145 C316.299118,401.363248 316.455102,402.327104 316.455102,403.381743 Z M313.933326,403.381743 C313.933326,401.860297 313.591026,400.654396 312.906417,399.764004 C312.221808,398.873612 311.290233,398.428423 310.111665,398.428423 C308.933097,398.428423 308.001522,398.873612 307.316913,399.764004 C306.632303,400.654396 306.290004,401.860297 306.290004,403.381743 C306.290004,404.903189 306.632303,406.10909 307.316913,406.999481 C308.001522,407.889873 308.933097,408.335062 310.111665,408.335062 C311.290233,408.335062 312.221808,407.889873 312.906417,406.999481 C313.591026,406.10909 313.933326,404.903189 313.933326,403.381743 Z M329.460449,399.491701 C329.165807,399.249653 328.741182,399.016253 328.186562,398.791494 C327.631942,398.566735 327.025335,398.454357 326.366723,398.454357 C325.673448,398.454357 325.07984,398.579701 324.585881,398.830394 C324.091923,399.081087 323.688962,399.426865 323.376989,399.867739 C323.065015,400.308612 322.839704,400.831601 322.701048,401.436722 C322.562393,402.041843 322.493067,402.690176 322.493067,403.381743 C322.493067,404.955056 322.883028,406.169602 323.662963,407.025415 C324.442898,407.881228 325.482795,408.309129 326.782687,408.309129 C327.441298,408.309129 327.991577,408.278873 328.43354,408.218361 C328.875503,408.157849 329.217803,408.093016 329.460449,408.023859 L329.460449,399.491701 Z M329.460449,390.414938 L331.878235,390 L331.878235,409.735477 C331.323614,409.89108 330.613018,410.04668 329.746424,410.202282 C328.87983,410.357885 327.883261,410.435685 326.756689,410.435685 C325.716776,410.435685 324.780868,410.27144 323.948938,409.942946 C323.117007,409.614452 322.406411,409.147652 321.817127,408.542531 C321.227843,407.937411 320.772888,407.19831 320.452248,406.325207 C320.131608,405.452105 319.971291,404.47096 319.971291,403.381743 C319.971291,402.344393 320.105611,401.393504 320.374255,400.529046 C320.642899,399.664588 321.037193,398.921165 321.55715,398.298755 C322.077106,397.676345 322.714044,397.192256 323.46798,396.846473 C324.221917,396.50069 325.084166,396.327801 326.054751,396.327801 C326.834686,396.327801 327.523618,396.431534 328.121568,396.639004 C328.719518,396.846474 329.165807,397.045296 329.460449,397.235477 L329.460449,390.414938 Z M339.320075,410.124481 L336.902289,410.124481 L336.902289,396.639004 L339.320075,396.639004 L339.320075,410.124481 Z M338.098183,394.201245 C337.664886,394.201245 337.296589,394.058611 336.993281,393.77334 C336.689973,393.488069 336.538321,393.103391 336.538321,392.619295 C336.538321,392.135198 336.689973,391.75052 336.993281,391.465249 C337.296589,391.179978 337.664886,391.037344 338.098183,391.037344 C338.53148,391.037344 338.899777,391.179978 339.203085,391.465249 C339.506393,391.75052 339.658045,392.135198 339.658045,392.619295 C339.658045,393.103391 339.506393,393.488069 339.203085,393.77334 C338.899777,394.058611 338.53148,394.201245 338.098183,394.201245 Z M343.590196,403.407676 C343.590196,402.214724 343.763512,401.173068 344.11015,400.282676 C344.456788,399.392285 344.916076,398.653184 345.488028,398.065353 C346.05998,397.477521 346.718581,397.036654 347.463852,396.742739 C348.209123,396.448823 348.971715,396.301867 349.75165,396.301867 C351.571497,396.301867 352.966693,396.868079 353.937278,398.000519 C354.907864,399.132959 355.393149,400.857526 355.393149,403.174274 L355.393149,403.576245 C355.393149,403.740492 355.384483,403.89177 355.367152,404.030083 L346.111972,404.030083 C346.215964,405.430505 346.623257,406.493772 347.333864,407.219917 C348.044471,407.946062 349.153695,408.309129 350.661569,408.309129 C351.510831,408.309129 352.225761,408.235651 352.806379,408.088693 C353.386997,407.941735 353.82462,407.799102 354.119262,407.660788 L354.457232,409.68361 C354.16259,409.839212 353.646974,410.003457 352.910369,410.176349 C352.173764,410.34924 351.337514,410.435685 350.401592,410.435685 C349.223024,410.435685 348.204791,410.258473 347.346863,409.904046 C346.488935,409.549618 345.782671,409.061206 345.228051,408.438797 C344.67343,407.816387 344.261804,407.077286 343.99316,406.221473 C343.724516,405.36566 343.590196,404.427737 343.590196,403.407676 Z M352.871373,402.085062 C352.888705,400.995845 352.615732,400.101145 352.052446,399.400934 C351.489159,398.700723 350.713569,398.350622 349.725652,398.350622 C349.171032,398.350622 348.681413,398.458678 348.256782,398.674793 C347.832151,398.890907 347.47252,399.171852 347.177878,399.517635 C346.883236,399.863418 346.653592,400.261063 346.488939,400.710581 C346.324286,401.160099 346.215963,401.618255 346.163968,402.085062 L352.871373,402.085062 Z M362.886985,408.386929 C363.874902,408.386929 364.607163,408.257263 365.08379,407.997925 C365.560417,407.738588 365.798726,407.323654 365.798726,406.753112 C365.798726,406.165281 365.56475,405.69848 365.096789,405.352697 C364.67137,405.038349 363.995293,404.688284 363.06854,404.302494 L362.782994,404.185685 C362.263037,403.978215 361.764753,403.766426 361.288126,403.550311 C360.8115,403.334197 360.399874,403.079185 360.053236,402.78527 C359.706598,402.491354 359.429292,402.136932 359.22131,401.721992 C359.013327,401.307052 358.909337,400.797029 358.909337,400.191909 C358.909337,398.998957 359.351294,398.052389 360.23522,397.352178 C361.119146,396.651967 362.323694,396.301867 363.848899,396.301867 C364.230201,396.301867 364.611497,396.323478 364.992798,396.366701 C365.374099,396.409924 365.729398,396.461791 366.058703,396.522303 C366.305683,396.567687 366.530724,396.615502 366.733831,396.665748 L366.929626,396.716805 C367.180938,396.785962 367.375919,396.846473 367.514574,396.89834 L367.072613,398.973029 C366.812635,398.834716 366.405342,398.692082 365.850722,398.545124 C365.296102,398.398167 364.628834,398.324689 363.848899,398.324689 C363.172956,398.324689 362.583681,398.458678 362.081056,398.72666 C361.578432,398.994642 361.327123,399.413898 361.327123,399.98444 C361.327123,400.278356 361.383451,400.537689 361.496108,400.762448 C361.608765,400.987207 361.782082,401.190352 362.016062,401.371888 C362.250042,401.553424 362.540347,401.721991 362.886985,401.877593 C363.233622,402.033196 363.649581,402.19744 364.134874,402.370332 C364.776154,402.61238 365.348097,402.850103 365.850722,403.083506 C366.353346,403.31691 366.782304,403.58921 367.137608,403.900415 C367.492911,404.21162 367.765884,404.587653 367.956535,405.028527 C368.147186,405.469401 368.24251,406.009679 368.24251,406.649378 C368.24251,407.894197 367.778889,408.836442 366.851633,409.476141 C365.924377,410.11584 364.602841,410.435685 362.886985,410.435685 C361.691085,410.435685 360.755177,410.336273 360.079234,410.137448 L359.660702,410.011942 C359.209861,409.873736 358.890081,409.764293 358.701356,409.68361 L359.143317,407.608921 L360.045111,407.929849 C360.176182,407.975233 360.317545,408.023859 360.469199,408.075726 C361.075815,408.283196 361.881735,408.386929 362.886985,408.386929 Z M391.263468,410.124481 C390.968826,409.346469 390.69152,408.581435 390.431542,407.829357 C390.171564,407.077278 389.902924,406.312245 389.625613,405.534232 L381.462337,405.534232 L379.824483,410.124481 L377.198715,410.124481 L378.06619,407.757906 C378.441122,406.741028 378.801905,405.770727 379.148543,404.846992 C379.755158,403.230455 380.348767,401.696065 380.929385,400.243776 C381.510003,398.791487 382.086279,397.404052 382.658231,396.081432 C383.230183,394.758811 383.828124,393.449177 384.452072,392.15249 L386.765867,392.15249 C387.389815,393.449177 387.987756,394.758811 388.559708,396.081432 C389.13166,397.404052 389.707937,398.791487 390.288555,400.243776 C390.753049,401.405607 391.225857,402.619983 391.706988,403.886927 L392.069397,404.846992 C392.676013,406.463528 393.325948,408.222674 394.019224,410.124481 L391.263468,410.124481 Z M388.897678,403.459544 C388.343058,401.955387 387.792779,400.498797 387.246824,399.08973 C386.70087,397.680664 386.133259,396.327807 385.543975,395.03112 C384.93736,396.327807 384.361083,397.680664 383.815129,399.08973 C383.269174,400.498797 382.727561,401.955387 382.190273,403.459544 L388.897678,403.459544 Z M405.23073,408.775934 C405.022747,408.914247 404.619787,409.091458 404.021837,409.307573 C403.423887,409.523687 402.726289,409.631743 401.929022,409.631743 C401.114424,409.631743 400.3475,409.502076 399.628226,409.242739 C398.908953,408.983401 398.280682,408.581434 397.743394,408.036826 C397.206105,407.492217 396.78148,406.813628 396.469507,406.001037 C396.157533,405.188447 396.001548,404.220268 396.001548,403.096473 C396.001548,402.110991 396.148867,401.207646 396.443509,400.386411 C396.738151,399.565176 397.167108,398.856331 397.730395,398.259855 C398.293681,397.663379 398.982613,397.196578 399.797211,396.85944 C400.61181,396.522301 401.530386,396.353734 402.552967,396.353734 C403.679539,396.353734 404.663109,396.435857 405.503705,396.600104 L406.191319,396.737711 C406.736917,396.849737 407.21398,396.955147 407.622517,397.053942 L407.622517,409.087137 C407.622517,411.161836 407.085237,412.66597 406.01066,413.599585 C404.936084,414.5332 403.306911,415 401.123094,415 C400.273832,415 399.472244,414.930844 398.718307,414.792531 C397.96437,414.654218 397.310101,414.489973 396.755481,414.299793 L397.197442,412.19917 C397.682735,412.389351 398.276343,412.557918 398.978284,412.704876 C399.680225,412.851833 400.412486,412.925311 401.175089,412.925311 C402.613635,412.925311 403.6492,412.640044 404.281814,412.069502 C404.914427,411.49896 405.23073,410.591293 405.23073,409.346473 L405.23073,408.775934 Z M405.204732,398.76556 C404.962085,398.696404 404.637118,398.63157 404.229818,398.571058 C403.822519,398.510546 403.27224,398.48029 402.578965,398.48029 C401.279073,398.48029 400.278172,398.903869 399.576231,399.751037 C398.87429,400.598206 398.523324,401.721985 398.523324,403.122407 C398.523324,403.900419 398.622981,404.566041 398.822298,405.119295 C399.021615,405.672548 399.290255,406.130704 399.628226,406.493776 C399.966198,406.856848 400.35616,407.124826 400.798123,407.297718 C401.240086,407.470609 401.695041,407.557054 402.163002,407.557054 C402.804281,407.557054 403.393556,407.466287 403.930845,407.284751 C404.468133,407.103215 404.892758,406.891426 405.204732,406.649378 L405.204732,398.76556 Z M417.222166,408.386929 C417.794118,408.386929 418.301068,408.373963 418.743031,408.348029 C419.184994,408.322095 419.553291,408.274551 419.847933,408.205394 L419.847933,404.185685 C419.674614,404.099239 419.392976,404.025761 419.003008,403.965249 C418.613041,403.904737 418.140754,403.874481 417.586134,403.874481 C417.222164,403.874481 416.836536,403.900415 416.429236,403.952282 C416.021937,404.00415 415.649307,404.112205 415.311336,404.276452 C414.973364,404.440699 414.691725,404.665455 414.46641,404.950726 C414.241096,405.235997 414.12844,405.612031 414.12844,406.078838 C414.12844,406.943296 414.405746,407.544085 414.960367,407.881224 C415.514987,408.218363 416.268913,408.386929 417.222166,408.386929 Z M417.014185,396.301867 C417.98477,396.301867 418.803689,396.427212 419.470967,396.677905 C420.138244,396.928597 420.675524,397.28302 421.082824,397.741183 C421.490123,398.199345 421.780428,398.743946 421.953747,399.375 C422.127065,400.006054 422.213723,400.701933 422.213723,401.462656 L422.213723,409.891079 L421.342801,410.033714 L421.342801,410.033714 C420.970165,410.094226 420.549873,410.150415 420.081912,410.202282 C419.613952,410.25415 419.107002,410.301694 418.561047,410.344917 C418.015093,410.38814 417.47348,410.409751 416.936191,410.409751 C416.173589,410.409751 415.471658,410.331951 414.830378,410.176349 C414.189099,410.020746 413.634487,409.774379 413.166526,409.437241 C412.698565,409.100102 412.334601,408.654913 412.074623,408.10166 C411.814644,407.548407 411.684657,406.882784 411.684657,406.104772 C411.684657,405.361338 411.836309,404.721649 412.139617,404.185685 C412.442925,403.649721 412.854551,403.217498 413.374507,402.889004 C413.894464,402.56051 414.501071,402.318466 415.194346,402.162863 C415.887621,402.007261 416.615549,401.929461 417.378152,401.929461 C417.620799,401.929461 417.872107,401.942427 418.132085,401.968361 C418.305404,401.98565 418.472944,402.006781 418.634707,402.031754 L419.096889,402.113877 L419.096889,402.113877 L419.704946,402.234181 C419.765607,402.247147 419.813269,402.257953 419.847933,402.266598 L419.847933,401.592324 C419.847933,401.194673 419.804604,400.80135 419.717945,400.412344 C419.631285,400.023338 419.475301,399.67756 419.249986,399.375 C419.024672,399.07244 418.717035,398.830395 418.327068,398.648859 C417.937101,398.467323 417.430151,398.376556 416.806203,398.376556 C416.008936,398.376556 415.311339,398.432745 414.713389,398.545124 C414.115439,398.657504 413.669149,398.774204 413.374507,398.895228 L413.088533,396.89834 C413.400507,396.760027 413.920455,396.626038 414.648394,396.496369 C415.376333,396.366701 416.164922,396.301867 417.014185,396.301867 Z M429.499577,410.124481 L427.081792,410.124481 L427.081792,396.639004 L429.499577,396.639004 L429.499577,410.124481 Z M428.277686,394.201245 C427.844389,394.201245 427.476092,394.058611 427.172784,393.77334 C426.869476,393.488069 426.717824,393.103391 426.717824,392.619295 C426.717824,392.135198 426.869476,391.75052 427.172784,391.465249 C427.476092,391.179978 427.844389,391.037344 428.277686,391.037344 C428.710983,391.037344 429.07928,391.179978 429.382588,391.465249 C429.685896,391.75052 429.837547,392.135198 429.837547,392.619295 C429.837547,393.103391 429.685896,393.488069 429.382588,393.77334 C429.07928,394.058611 428.710983,394.201245 428.277686,394.201245 Z M434.523632,397.028008 C435.078252,396.889695 435.814846,396.742739 436.733436,396.587137 C437.652026,396.431534 438.709255,396.353734 439.905155,396.353734 C440.979731,396.353734 441.87231,396.505012 442.582917,396.807573 C443.293524,397.110133 443.861135,397.533711 444.285766,398.07832 C444.710397,398.622928 445.009368,399.275584 445.182687,400.036307 C445.356005,400.79703 445.442663,401.635542 445.442663,402.551867 L445.442663,410.124481 L443.024878,410.124481 L443.024878,403.070539 C443.024878,402.24066 442.96855,401.531815 442.855893,400.943983 C442.743236,400.356152 442.556921,399.880707 442.296942,399.517635 C442.036964,399.154562 441.690332,398.890907 441.257035,398.72666 C440.823738,398.562413 440.286457,398.48029 439.645178,398.48029 C439.385199,398.48029 439.116559,398.488935 438.839249,398.506224 C438.561939,398.523513 438.297632,398.545124 438.046319,398.571058 C437.878778,398.588347 437.722792,398.607557 437.578361,398.628688 L437.000172,398.728216 C436.978334,398.732365 436.958749,398.736169 436.941417,398.739627 L436.941417,410.124481 L434.523632,410.124481 L434.523632,397.028008 Z M453.456453,408.386929 C454.44437,408.386929 455.176631,408.257263 455.653258,407.997925 C456.129885,407.738588 456.368195,407.323654 456.368195,406.753112 C456.368195,406.165281 456.134218,405.69848 455.666257,405.352697 C455.240838,405.038349 454.564761,404.688284 453.638008,404.302494 L453.352462,404.185685 C452.832505,403.978215 452.334221,403.766426 451.857595,403.550311 C451.380968,403.334197 450.969342,403.079185 450.622704,402.78527 C450.276066,402.491354 449.99876,402.136932 449.790778,401.721992 C449.582795,401.307052 449.478806,400.797029 449.478806,400.191909 C449.478806,398.998957 449.920762,398.052389 450.804688,397.352178 C451.688614,396.651967 452.893162,396.301867 454.418367,396.301867 C454.799669,396.301867 455.180965,396.323478 455.562266,396.366701 C455.943567,396.409924 456.298866,396.461791 456.628171,396.522303 C456.875151,396.567687 457.100192,396.615502 457.303299,396.665748 L457.499094,396.716805 C457.750407,396.785962 457.945387,396.846473 458.084042,396.89834 L457.642082,398.973029 C457.382103,398.834716 456.97481,398.692082 456.42019,398.545124 C455.86557,398.398167 455.198302,398.324689 454.418367,398.324689 C453.742424,398.324689 453.153149,398.458678 452.650524,398.72666 C452.1479,398.994642 451.896591,399.413898 451.896591,399.98444 C451.896591,400.278356 451.952919,400.537689 452.065576,400.762448 C452.178233,400.987207 452.35155,401.190352 452.58553,401.371888 C452.81951,401.553424 453.109815,401.721991 453.456453,401.877593 C453.80309,402.033196 454.219049,402.19744 454.704342,402.370332 C455.345622,402.61238 455.917565,402.850103 456.42019,403.083506 C456.922815,403.31691 457.351772,403.58921 457.707076,403.900415 C458.062379,404.21162 458.335352,404.587653 458.526003,405.028527 C458.716654,405.469401 458.811978,406.009679 458.811978,406.649378 C458.811978,407.894197 458.348357,408.836442 457.421101,409.476141 C456.493845,410.11584 455.172309,410.435685 453.456453,410.435685 C452.260553,410.435685 451.324645,410.336273 450.648702,410.137448 L450.23017,410.011942 C449.779329,409.873736 449.459549,409.764293 449.270824,409.68361 L449.712785,407.608921 L450.818905,408.000356 C450.889586,408.024669 450.96284,408.049792 451.038667,408.075726 C451.645283,408.283196 452.451204,408.386929 453.456453,408.386929 Z M465.031926,396.639004 L470.153472,396.639004 L470.153472,398.661826 L465.031926,398.661826 L465.031926,404.885892 C465.031926,405.560169 465.083921,406.117736 465.187912,406.55861 C465.291904,406.999484 465.447888,407.345262 465.655871,407.595954 C465.863853,407.846647 466.123828,408.023858 466.435802,408.127593 C466.747776,408.231328 467.11174,408.283195 467.527705,408.283195 C468.255644,408.283195 468.840586,408.201073 469.282549,408.036826 L470.122964,407.719271 C470.153207,407.707451 470.180708,407.696602 470.205467,407.686722 L470.673426,409.68361 C470.43078,409.804634 470.006155,409.955912 469.399539,410.137448 C468.792923,410.318984 468.099658,410.409751 467.319723,410.409751 C466.401134,410.409751 465.642875,410.293051 465.044925,410.059647 C464.446975,409.826244 463.966023,409.476143 463.602053,409.009336 C463.238083,408.542529 462.982442,407.967673 462.835121,407.284751 C462.6878,406.601829 462.614141,405.810862 462.614141,404.911826 L462.614141,392.878631 L465.031926,392.463693 L465.031926,396.639004 Z M488.858813,410.513485 C487.593586,410.513485 486.441033,410.306019 485.40112,409.891079 C484.361207,409.476139 483.468628,408.871027 482.723357,408.075726 C481.978086,407.280425 481.40181,406.29928 480.994511,405.132261 C480.587211,403.965243 480.383565,402.629676 480.383565,401.125519 C480.383565,399.621362 480.613209,398.285794 481.072504,397.118776 C481.531799,395.951758 482.151404,394.970613 482.931339,394.175311 C483.711274,393.38001 484.621184,392.774898 485.661097,392.359959 C486.70101,391.945019 487.810234,391.737552 488.988802,391.737552 C489.734073,391.737552 490.405673,391.789419 491.003623,391.893154 C491.601573,391.996888 492.121522,392.117911 492.563485,392.256224 C493.005448,392.394537 493.365079,392.532849 493.642389,392.671162 L493.890812,392.797949 C494.037169,392.874789 494.145011,392.936261 494.214338,392.982365 L493.486403,395.057054 C493.330416,394.953319 493.105105,394.840941 492.810463,394.719917 C492.515821,394.598893 492.182187,394.477871 491.809552,394.356846 C491.436916,394.235822 491.029623,394.136411 490.58766,394.05861 C490.145697,393.980809 489.699408,393.941909 489.248779,393.941909 C488.295525,393.941909 487.43761,394.106153 486.675007,394.434647 C485.912404,394.763141 485.262468,395.238586 484.72518,395.860996 C484.187891,396.483406 483.776265,397.239795 483.490289,398.130187 C483.204313,399.020578 483.061327,400.019012 483.061327,401.125519 C483.061327,402.197447 483.186982,403.174269 483.438294,404.056017 C483.689606,404.937764 484.066569,405.694153 484.569194,406.325207 C485.071818,406.956262 485.70009,407.444673 486.454026,407.790456 C487.207963,408.13624 488.087543,408.309129 489.092792,408.309129 C490.254029,408.309129 491.215934,408.188106 491.978537,407.946058 C492.741139,407.70401 493.313083,407.487899 493.694384,407.297718 L494.344327,409.372407 C494.223004,409.458852 494.006358,409.566908 493.694384,409.696577 C493.382412,409.826245 492.992449,409.95159 492.524488,410.072614 C492.056527,410.193638 491.510581,410.297372 490.886633,410.383817 C490.262686,410.470263 489.586752,410.513485 488.858813,410.513485 Z M509.481484,403.381743 C509.481484,404.453671 509.3255,405.421849 509.013526,406.286307 C508.701552,407.150765 508.263928,407.894188 507.700642,408.516598 C507.137356,409.139007 506.465756,409.618774 505.685821,409.955913 C504.905886,410.293051 504.056637,410.461618 503.138047,410.461618 C502.219457,410.461618 501.370208,410.293051 500.590273,409.955913 C499.810338,409.618774 499.138738,409.139007 498.575452,408.516598 C498.012165,407.894188 497.574542,407.150765 497.262568,406.286307 C496.950594,405.421849 496.794609,404.453671 496.794609,403.381743 C496.794609,402.327104 496.950594,401.363248 497.262568,400.490145 C497.574542,399.617043 498.012165,398.869298 498.575452,398.246888 C499.138738,397.624478 499.810338,397.144711 500.590273,396.807573 C501.370208,396.470434 502.219457,396.301867 503.138047,396.301867 C504.056637,396.301867 504.905886,396.470434 505.685821,396.807573 C506.465756,397.144711 507.137356,397.624478 507.700642,398.246888 C508.263928,398.869298 508.701552,399.617043 509.013526,400.490145 C509.3255,401.363248 509.481484,402.327104 509.481484,403.381743 Z M506.959708,403.381743 C506.959708,401.860297 506.617408,400.654396 505.932799,399.764004 C505.24819,398.873612 504.316615,398.428423 503.138047,398.428423 C501.959479,398.428423 501.027904,398.873612 500.343295,399.764004 C499.658685,400.654396 499.316386,401.860297 499.316386,403.381743 C499.316386,404.903189 499.658685,406.10909 500.343295,406.999481 C501.027904,407.889873 501.959479,408.335062 503.138047,408.335062 C504.316615,408.335062 505.24819,407.889873 505.932799,406.999481 C506.617408,406.10909 506.959708,404.903189 506.959708,403.381743 Z M517.807246,410.383817 C516.316704,410.349239 515.259475,410.029394 514.635527,409.424274 C514.011579,408.819153 513.69961,407.876908 513.69961,406.59751 L513.69961,390.414938 L516.117396,390 L516.117396,406.208506 C516.117396,406.606157 516.152059,406.934646 516.221387,407.193983 C516.290714,407.453321 516.40337,407.660788 516.559357,407.81639 C516.715344,407.971992 516.923323,408.088693 517.183301,408.166494 C517.44328,408.244295 517.763915,408.309128 518.145216,408.360996 L517.807246,410.383817 Z M533.646341,403.381743 C533.646341,404.453671 533.490357,405.421849 533.178383,406.286307 C532.866409,407.150765 532.428785,407.894188 531.865499,408.516598 C531.302213,409.139007 530.630613,409.618774 529.850678,409.955913 C529.070743,410.293051 528.221494,410.461618 527.302904,410.461618 C526.384314,410.461618 525.535065,410.293051 524.75513,409.955913 C523.975195,409.618774 523.303595,409.139007 522.740309,408.516598 C522.177022,407.894188 521.739399,407.150765 521.427425,406.286307 C521.115451,405.421849 520.959466,404.453671 520.959466,403.381743 C520.959466,402.327104 521.115451,401.363248 521.427425,400.490145 C521.739399,399.617043 522.177022,398.869298 522.740309,398.246888 C523.303595,397.624478 523.975195,397.144711 524.75513,396.807573 C525.535065,396.470434 526.384314,396.301867 527.302904,396.301867 C528.221494,396.301867 529.070743,396.470434 529.850678,396.807573 C530.630613,397.144711 531.302213,397.624478 531.865499,398.246888 C532.428785,398.869298 532.866409,399.617043 533.178383,400.490145 C533.490357,401.363248 533.646341,402.327104 533.646341,403.381743 Z M531.124565,403.381743 C531.124565,401.860297 530.782265,400.654396 530.097656,399.764004 C529.413047,398.873612 528.481472,398.428423 527.302904,398.428423 C526.124336,398.428423 525.192761,398.873612 524.508152,399.764004 C523.823542,400.654396 523.481243,401.860297 523.481243,403.381743 C523.481243,404.903189 523.823542,406.10909 524.508152,406.999481 C525.192761,407.889873 526.124336,408.335062 527.302904,408.335062 C528.481472,408.335062 529.413047,407.889873 530.097656,406.999481 C530.782265,406.10909 531.124565,404.903189 531.124565,403.381743 Z M542.90802,396.353734 C543.116003,396.353734 543.354312,396.366701 543.622957,396.392635 C543.891601,396.418569 544.155908,396.453146 544.415886,396.496369 L544.906954,396.582815 L544.906954,396.582815 L545.130823,396.626037 C545.347471,396.66926 545.507789,396.70816 545.61178,396.742739 L545.195817,398.843361 C545.005166,398.774204 544.688864,398.692082 544.246901,398.596992 C543.804938,398.501901 543.237328,398.454357 542.544052,398.454357 C542.093423,398.454357 541.647134,398.501901 541.205171,398.596992 L540.393352,398.777109 C540.371282,398.782376 540.35158,398.787171 540.334248,398.791494 L540.334248,410.124481 L537.916463,410.124481 L537.916463,397.209544 C538.488415,397.002074 539.199011,396.807574 540.048274,396.626037 C540.897536,396.444501 541.850775,396.353734 542.90802,396.353734 Z M548.062063,403.407676 C548.062063,402.214724 548.235379,401.173068 548.582017,400.282676 C548.928654,399.392285 549.387942,398.653184 549.959895,398.065353 C550.531847,397.477521 551.190448,397.036654 551.935719,396.742739 C552.68099,396.448823 553.443582,396.301867 554.223516,396.301867 C556.043364,396.301867 557.43856,396.868079 558.409145,398.000519 C559.379731,399.132959 559.865016,400.857526 559.865016,403.174274 L559.865016,403.576245 C559.865016,403.740492 559.85635,403.89177 559.839018,404.030083 L550.583839,404.030083 C550.687831,405.430505 551.095124,406.493772 551.805731,407.219917 C552.516338,407.946062 553.625562,408.309129 555.133436,408.309129 C555.982698,408.309129 556.697628,408.235651 557.278246,408.088693 C557.858864,407.941735 558.296487,407.799102 558.591129,407.660788 L558.929099,409.68361 C558.634457,409.839212 558.118841,410.003457 557.382236,410.176349 C556.645631,410.34924 555.809381,410.435685 554.873459,410.435685 C553.694891,410.435685 552.676658,410.258473 551.81873,409.904046 C550.960802,409.549618 550.254538,409.061206 549.699918,408.438797 C549.145297,407.816387 548.733671,407.077286 548.465027,406.221473 C548.196383,405.36566 548.062063,404.427737 548.062063,403.407676 Z M557.34324,402.085062 C557.360572,400.995845 557.087599,400.101145 556.524312,399.400934 C555.961026,398.700723 555.185436,398.350622 554.197519,398.350622 C553.642899,398.350622 553.15328,398.458678 552.728649,398.674793 C552.304018,398.890907 551.944387,399.171852 551.649745,399.517635 C551.355103,399.863418 551.125459,400.261063 550.960806,400.710581 C550.796153,401.160099 550.68783,401.618255 550.635835,402.085062 L557.34324,402.085062 Z M570.08861,410.435685 C568.996701,410.435685 568.039129,410.262796 567.215864,409.917012 C566.3926,409.571229 565.699335,409.08714 565.136049,408.46473 C564.572763,407.842321 564.152471,407.10322 563.875161,406.247407 C563.59785,405.391593 563.459197,404.445026 563.459197,403.407676 C563.459197,402.370327 563.610849,401.419437 563.914157,400.554979 C564.217465,399.690521 564.646423,398.942776 565.201043,398.311722 C565.755663,397.680668 566.435929,397.187934 567.241862,396.833506 C568.047795,396.479078 568.944706,396.301867 569.932623,396.301867 C570.539239,396.301867 571.145846,396.353734 571.752462,396.457469 C572.359078,396.561204 572.939687,396.725448 573.494308,396.950207 L572.948356,398.998963 C572.584386,398.826071 572.164095,398.68776 571.687468,398.584025 C571.210841,398.48029 570.703891,398.428423 570.166603,398.428423 C568.814716,398.428423 567.779151,398.852001 567.059878,399.69917 C566.340605,400.546339 565.980974,401.782495 565.980974,403.407676 C565.980974,404.133821 566.063299,404.799444 566.227952,405.404564 C566.392605,406.009685 566.652579,406.528352 567.007883,406.960581 C567.363186,407.39281 567.818141,407.725621 568.372762,407.959025 C568.927382,408.192429 569.603315,408.309129 570.400582,408.309129 C571.041862,408.309129 571.622471,408.248617 572.142427,408.127593 C572.662384,408.006569 573.069677,407.876902 573.364319,407.738589 L573.702289,409.761411 C573.563634,409.847857 573.36432,409.929979 573.104342,410.00778 C572.844364,410.085581 572.549726,410.154737 572.22042,410.215249 C571.891115,410.275761 571.540149,410.327628 571.167514,410.370851 C570.794878,410.414074 570.435247,410.435685 570.08861,410.435685 Z M579.428281,396.639004 L584.549827,396.639004 L584.549827,398.661826 L579.428281,398.661826 L579.428281,404.885892 C579.428281,405.560169 579.480276,406.117736 579.584267,406.55861 C579.688259,406.999484 579.844243,407.345262 580.052226,407.595954 C580.260209,407.846647 580.520183,408.023858 580.832157,408.127593 C581.144131,408.231328 581.508095,408.283195 581.92406,408.283195 C582.651999,408.283195 583.236941,408.201073 583.678904,408.036826 L584.420369,407.757642 C584.491818,407.730121 584.552303,407.706481 584.601822,407.686722 L585.069781,409.68361 C584.827135,409.804634 584.40251,409.955912 583.795894,410.137448 C583.189278,410.318984 582.496013,410.409751 581.716078,410.409751 C580.797489,410.409751 580.03923,410.293051 579.44128,410.059647 C578.84333,409.826244 578.362378,409.476143 577.998408,409.009336 C577.634439,408.542529 577.378797,407.967673 577.231476,407.284751 C577.084155,406.601829 577.010496,405.810862 577.010496,404.911826 L577.010496,392.878631 L579.428281,392.463693 L579.428281,396.639004 Z M593.057573,408.386929 C593.629525,408.386929 594.136475,408.373963 594.578438,408.348029 C595.020401,408.322095 595.388698,408.274551 595.68334,408.205394 L595.68334,404.185685 C595.510021,404.099239 595.228382,404.025761 594.838415,403.965249 C594.448447,403.904737 593.976161,403.874481 593.42154,403.874481 C593.057571,403.874481 592.671942,403.900415 592.264643,403.952282 C591.857344,404.00415 591.484714,404.112205 591.146742,404.276452 C590.80877,404.440699 590.527131,404.665455 590.301817,404.950726 C590.076503,405.235997 589.963847,405.612031 589.963847,406.078838 C589.963847,406.943296 590.241153,407.544085 590.795773,407.881224 C591.350393,408.218363 592.104319,408.386929 593.057573,408.386929 Z M592.849591,396.301867 C593.820176,396.301867 594.639096,396.427212 595.306373,396.677905 C595.973651,396.928597 596.510931,397.28302 596.91823,397.741183 C597.325529,398.199345 597.615834,398.743946 597.789153,399.375 C597.962472,400.006054 598.04913,400.701933 598.04913,401.462656 L598.04913,409.891079 L597.178207,410.033714 L597.178207,410.033714 C596.805572,410.094226 596.38528,410.150415 595.917319,410.202282 C595.449358,410.25415 594.942408,410.301694 594.396454,410.344917 C593.8505,410.38814 593.308886,410.409751 592.771598,410.409751 C592.008995,410.409751 591.307064,410.331951 590.665785,410.176349 C590.024505,410.020746 589.469893,409.774379 589.001932,409.437241 C588.533971,409.100102 588.170007,408.654913 587.910029,408.10166 C587.650051,407.548407 587.520064,406.882784 587.520064,406.104772 C587.520064,405.361338 587.671715,404.721649 587.975023,404.185685 C588.278331,403.649721 588.689957,403.217498 589.209914,402.889004 C589.72987,402.56051 590.336477,402.318466 591.029752,402.162863 C591.723028,402.007261 592.450956,401.929461 593.213559,401.929461 C593.456205,401.929461 593.707514,401.942427 593.967492,401.968361 C594.140811,401.98565 594.308351,402.006781 594.470114,402.031754 L594.932296,402.113877 L594.932296,402.113877 L595.540353,402.234181 C595.601014,402.247147 595.648676,402.257953 595.68334,402.266598 L595.68334,401.592324 C595.68334,401.194673 595.640011,400.80135 595.553351,400.412344 C595.466692,400.023338 595.310707,399.67756 595.085393,399.375 C594.860078,399.07244 594.552442,398.830395 594.162475,398.648859 C593.772507,398.467323 593.265557,398.376556 592.641609,398.376556 C591.844343,398.376556 591.146745,398.432745 590.548795,398.545124 C589.950845,398.657504 589.504556,398.774204 589.209914,398.895228 L588.923939,396.89834 C589.235913,396.760027 589.755862,396.626038 590.483801,396.496369 C591.21174,396.366701 592.000329,396.301867 592.849591,396.301867 Z M606.972839,410.383817 C605.482297,410.349239 604.425068,410.029394 603.80112,409.424274 C603.177172,408.819153 602.865203,407.876908 602.865203,406.59751 L602.865203,390.414938 L605.282988,390 L605.282988,406.208506 C605.282988,406.606157 605.317652,406.934646 605.386979,407.193983 C605.456307,407.453321 605.568962,407.660788 605.724949,407.81639 C605.880936,407.971992 606.088916,408.088693 606.348894,408.166494 C606.608872,408.244295 606.929507,408.309128 607.310809,408.360996 L606.972839,410.383817 Z M625.652182,410.513485 C624.386955,410.513485 623.234402,410.306019 622.194489,409.891079 C621.154576,409.476139 620.261997,408.871027 619.516726,408.075726 C618.771455,407.280425 618.195179,406.29928 617.787879,405.132261 C617.38058,403.965243 617.176934,402.629676 617.176934,401.125519 C617.176934,399.621362 617.406578,398.285794 617.865873,397.118776 C618.325167,395.951758 618.944773,394.970613 619.724708,394.175311 C620.504642,393.38001 621.414553,392.774898 622.454466,392.359959 C623.494379,391.945019 624.603602,391.737552 625.782171,391.737552 C626.527441,391.737552 627.199042,391.789419 627.796992,391.893154 C628.394942,391.996888 628.91489,392.117911 629.356853,392.256224 C629.798817,392.394537 630.158448,392.532849 630.435758,392.671162 L630.786727,392.852697 C630.882052,392.904564 630.955711,392.947787 631.007707,392.982365 L630.279772,395.057054 C630.123785,394.953319 629.898474,394.840941 629.603832,394.719917 C629.30919,394.598893 628.975556,394.477871 628.60292,394.356846 C628.230285,394.235822 627.822992,394.136411 627.381029,394.05861 C626.939066,393.980809 626.492776,393.941909 626.042147,393.941909 C625.088894,393.941909 624.230979,394.106153 623.468376,394.434647 C622.705773,394.763141 622.055837,395.238586 621.518549,395.860996 C620.98126,396.483406 620.569634,397.239795 620.283658,398.130187 C619.997682,399.020578 619.854696,400.019012 619.854696,401.125519 C619.854696,402.197447 619.98035,403.174269 620.231663,404.056017 C620.482975,404.937764 620.859938,405.694153 621.362562,406.325207 C621.865187,406.956262 622.493458,407.444673 623.247395,407.790456 C624.001332,408.13624 624.880912,408.309129 625.886161,408.309129 C627.047397,408.309129 628.009303,408.188106 628.771905,407.946058 C629.534508,407.70401 630.106452,407.487899 630.487753,407.297718 L631.137696,409.372407 C631.016372,409.458852 630.799727,409.566908 630.487753,409.696577 C630.175781,409.826245 629.785818,409.95159 629.317857,410.072614 C628.849896,410.193638 628.30395,410.297372 627.680002,410.383817 C627.056054,410.470263 626.380121,410.513485 625.652182,410.513485 Z M639.307471,408.386929 C639.879423,408.386929 640.386373,408.373963 640.828336,408.348029 C641.270299,408.322095 641.638596,408.274551 641.933238,408.205394 L641.933238,404.185685 C641.759919,404.099239 641.47828,404.025761 641.088313,403.965249 C640.698346,403.904737 640.226059,403.874481 639.671439,403.874481 C639.307469,403.874481 638.921841,403.900415 638.514541,403.952282 C638.107242,404.00415 637.734612,404.112205 637.396641,404.276452 C637.058669,404.440699 636.77703,404.665455 636.551715,404.950726 C636.326401,405.235997 636.213745,405.612031 636.213745,406.078838 C636.213745,406.943296 636.491051,407.544085 637.045672,407.881224 C637.600292,408.218363 638.354217,408.386929 639.307471,408.386929 Z M639.099489,396.301867 C640.070075,396.301867 640.888994,396.427212 641.556272,396.677905 C642.223549,396.928597 642.760829,397.28302 643.168129,397.741183 C643.575428,398.199345 643.865733,398.743946 644.039051,399.375 C644.21237,400.006054 644.299028,400.701933 644.299028,401.462656 L644.299028,409.891079 L643.428106,410.033714 L643.428106,410.033714 C643.05547,410.094226 642.635178,410.150415 642.167217,410.202282 C641.699257,410.25415 641.192307,410.301694 640.646352,410.344917 C640.100398,410.38814 639.558785,410.409751 639.021496,410.409751 C638.258894,410.409751 637.556963,410.331951 636.915683,410.176349 C636.274403,410.020746 635.719792,409.774379 635.251831,409.437241 C634.78387,409.100102 634.419906,408.654913 634.159928,408.10166 C633.899949,407.548407 633.769962,406.882784 633.769962,406.104772 C633.769962,405.361338 633.921614,404.721649 634.224922,404.185685 C634.52823,403.649721 634.939856,403.217498 635.459812,402.889004 C635.979769,402.56051 636.586376,402.318466 637.279651,402.162863 C637.972926,402.007261 638.700854,401.929461 639.463457,401.929461 C639.706104,401.929461 639.957412,401.942427 640.21739,401.968361 C640.390709,401.98565 640.558249,402.006781 640.720012,402.031754 L641.182194,402.113877 L641.182194,402.113877 L641.790251,402.234181 C641.850912,402.247147 641.898574,402.257953 641.933238,402.266598 L641.933238,401.592324 C641.933238,401.194673 641.889909,400.80135 641.80325,400.412344 C641.71659,400.023338 641.560606,399.67756 641.335291,399.375 C641.109977,399.07244 640.80234,398.830395 640.412373,398.648859 C640.022406,398.467323 639.515456,398.376556 638.891508,398.376556 C638.094241,398.376556 637.396643,398.432745 636.798694,398.545124 C636.200744,398.657504 635.754454,398.774204 635.459812,398.895228 L635.173838,396.89834 C635.485812,396.760027 636.00576,396.626038 636.733699,396.496369 C637.461638,396.366701 638.250227,396.301867 639.099489,396.301867 Z M649.167097,397.028008 C649.721717,396.889695 650.458311,396.742739 651.376901,396.587137 C652.29549,396.431534 653.352719,396.353734 654.548619,396.353734 C655.623196,396.353734 656.515775,396.505012 657.226382,396.807573 C657.936989,397.110133 658.5046,397.533711 658.929231,398.07832 C659.353862,398.622928 659.652833,399.275584 659.826151,400.036307 C659.99947,400.79703 660.086128,401.635542 660.086128,402.551867 L660.086128,410.124481 L657.668343,410.124481 L657.668343,403.070539 C657.668343,402.24066 657.612015,401.531815 657.499358,400.943983 C657.386701,400.356152 657.200386,399.880707 656.940407,399.517635 C656.680429,399.154562 656.333797,398.890907 655.9005,398.72666 C655.467202,398.562413 654.929922,398.48029 654.288642,398.48029 C654.028664,398.48029 653.760024,398.488935 653.482714,398.506224 C653.205404,398.523513 652.941097,398.545124 652.689784,398.571058 C652.522243,398.588347 652.366257,398.607557 652.221826,398.628688 L651.643637,398.728216 C651.621799,398.732365 651.602214,398.736169 651.584882,398.739627 L651.584882,410.124481 L649.167097,410.124481 L649.167097,397.028008 Z M670.829676,410.435685 C669.737767,410.435685 668.780195,410.262796 667.95693,409.917012 C667.133666,409.571229 666.440401,409.08714 665.877115,408.46473 C665.313829,407.842321 664.893537,407.10322 664.616227,406.247407 C664.338916,405.391593 664.200263,404.445026 664.200263,403.407676 C664.200263,402.370327 664.351915,401.419437 664.655223,400.554979 C664.958531,399.690521 665.387489,398.942776 665.942109,398.311722 C666.496729,397.680668 667.176995,397.187934 667.982928,396.833506 C668.788861,396.479078 669.685772,396.301867 670.673689,396.301867 C671.280305,396.301867 671.886912,396.353734 672.493528,396.457469 C673.100144,396.561204 673.680753,396.725448 674.235374,396.950207 L673.689422,398.998963 C673.325452,398.826071 672.905161,398.68776 672.428534,398.584025 C671.951907,398.48029 671.444957,398.428423 670.907669,398.428423 C669.555782,398.428423 668.520217,398.852001 667.800944,399.69917 C667.081671,400.546339 666.72204,401.782495 666.72204,403.407676 C666.72204,404.133821 666.804365,404.799444 666.969018,405.404564 C667.133671,406.009685 667.393645,406.528352 667.748949,406.960581 C668.104252,407.39281 668.559207,407.725621 669.113828,407.959025 C669.668448,408.192429 670.344381,408.309129 671.141648,408.309129 C671.782928,408.309129 672.363537,408.248617 672.883493,408.127593 C673.40345,408.006569 673.810743,407.876902 674.105385,407.738589 L674.443355,409.761411 C674.3047,409.847857 674.105386,409.929979 673.845408,410.00778 C673.58543,410.085581 673.290792,410.154737 672.961487,410.215249 C672.632181,410.275761 672.281215,410.327628 671.90858,410.370851 C671.535944,410.414074 671.176313,410.435685 670.829676,410.435685 Z M677.153615,403.407676 C677.153615,402.214724 677.326931,401.173068 677.673569,400.282676 C678.020206,399.392285 678.479494,398.653184 679.051446,398.065353 C679.623399,397.477521 680.282,397.036654 681.027271,396.742739 C681.772542,396.448823 682.535134,396.301867 683.315068,396.301867 C685.134916,396.301867 686.530112,396.868079 687.500697,398.000519 C688.471283,399.132959 688.956568,400.857526 688.956568,403.174274 L688.956568,403.576245 C688.956568,403.740492 688.947902,403.89177 688.93057,404.030083 L679.675391,404.030083 C679.779382,405.430505 680.186676,406.493772 680.897283,407.219917 C681.60789,407.946062 682.717114,408.309129 684.224988,408.309129 C685.07425,408.309129 685.789179,408.235651 686.369797,408.088693 C686.950416,407.941735 687.388039,407.799102 687.682681,407.660788 L688.020651,409.68361 C687.726009,409.839212 687.210393,410.003457 686.473788,410.176349 C685.737183,410.34924 684.900932,410.435685 683.965011,410.435685 C682.786443,410.435685 681.76821,410.258473 680.910282,409.904046 C680.052353,409.549618 679.34609,409.061206 678.79147,408.438797 C678.236849,407.816387 677.825223,407.077286 677.556579,406.221473 C677.287935,405.36566 677.153615,404.427737 677.153615,403.407676 Z M686.434792,402.085062 C686.452124,400.995845 686.17915,400.101145 685.615864,399.400934 C685.052578,398.700723 684.276988,398.350622 683.289071,398.350622 C682.73445,398.350622 682.244832,398.458678 681.820201,398.674793 C681.39557,398.890907 681.035939,399.171852 680.741297,399.517635 C680.446655,399.863418 680.217011,400.261063 680.052358,400.710581 C679.887705,401.160099 679.779382,401.618255 679.727387,402.085062 L686.434792,402.085062 Z M698.29624,396.353734 C698.504222,396.353734 698.742532,396.366701 699.011176,396.392635 C699.279821,396.418569 699.544128,396.453146 699.804106,396.496369 L700.295173,396.582815 L700.295173,396.582815 L700.519043,396.626037 C700.735691,396.66926 700.896009,396.70816 701,396.742739 L700.584037,398.843361 C700.393386,398.774204 700.077084,398.692082 699.635121,398.596992 C699.193158,398.501901 698.625547,398.454357 697.932272,398.454357 C697.481643,398.454357 697.035354,398.501901 696.593391,398.596992 L695.781572,398.777109 C695.759501,398.782376 695.7398,398.787171 695.722468,398.791494 L695.722468,410.124481 L693.304682,410.124481 L693.304682,397.209544 C693.876635,397.002074 694.587231,396.807574 695.436493,396.626037 C696.285756,396.444501 697.238995,396.353734 698.29624,396.353734 Z" id="path-1"></path>
        <filter x="-2.1%" y="-50.0%" width="105.9%" height="240.0%" filterUnits="objectBoundingBox" id="filter-2">
            <feOffset dx="5" dy="5" in="SourceAlpha" result="shadowOffsetOuter1"></feOffset>
            <feGaussianBlur stdDeviation="5" in="shadowOffsetOuter1" result="shadowBlurOuter1"></feGaussianBlur>
            <feColorMatrix values="0 0 0 0 0   0 0 0 0 0   0 0 0 0 0  0 0 0 0.22 0" type="matrix" in="shadowBlurOuter1"></feColorMatrix>
        </filter>
        <path d="M138.727989,369.39834 C134.166652,369.39834 129.625389,369.257954 125.104064,368.977178 C120.582739,368.696404 115.881431,368.034583 111,366.991701 L111,286.128631 C114.841126,285.406635 119.042294,284.865147 123.603632,284.504149 C128.164969,284.143152 132.406148,283.962656 136.327298,283.962656 C141.608846,283.962656 146.470198,284.343703 150.9115,285.105809 C155.352802,285.867915 159.173865,287.171498 162.374803,289.016598 C165.575741,290.861697 168.076437,293.288367 169.876965,296.29668 C171.677492,299.304994 172.577743,303.015192 172.577743,307.427386 C172.577743,314.085787 169.376852,319.34023 162.974976,323.190871 C168.256524,325.196414 171.857526,327.923911 173.778089,331.373444 C175.698652,334.822977 176.658919,338.713671 176.658919,343.045643 C176.658919,351.789809 173.478034,358.367889 167.116169,362.780083 C160.754304,367.192277 151.291672,369.39834 138.727989,369.39834 Z M129.245257,331.975104 L129.245257,353.514523 C130.605656,353.674966 132.086068,353.795297 133.686537,353.875519 C135.287006,353.95574 137.047496,353.995851 138.968059,353.995851 C144.569701,353.995851 149.090958,353.193646 152.531967,351.589212 C155.972976,349.984778 157.693454,347.016619 157.693454,342.684647 C157.693454,338.834006 156.253053,336.086454 153.372209,334.441909 C150.491364,332.797364 146.370218,331.975104 141.008647,331.975104 L129.245257,331.975104 Z M129.245257,317.655602 L138.367886,317.655602 C144.129575,317.655602 148.250721,316.913562 150.731448,315.429461 C153.212175,313.945359 154.45252,311.558799 154.45252,308.26971 C154.45252,304.900398 153.172164,302.533893 150.611413,301.170124 C148.050663,299.806356 144.289617,299.124481 139.328162,299.124481 L137.92694,299.129393 C136.734762,299.137579 135.481346,299.155997 134.166675,299.184647 C132.326136,299.224758 130.685679,299.325034 129.245257,299.485477 L129.245257,317.655602 Z M211.979096,358.809129 C211.979096,362.419105 210.838779,365.166657 208.55811,367.051867 C206.277441,368.937077 203.696724,369.879668 200.815879,369.879668 C197.935035,369.879668 195.354317,368.937077 193.073648,367.051867 C190.79298,365.166657 189.652663,362.419105 189.652663,358.809129 C189.652663,355.199152 190.79298,352.4516 193.073648,350.56639 C195.354317,348.68118 197.935035,347.738589 200.815879,347.738589 C203.696724,347.738589 206.277441,348.68118 208.55811,350.56639 C210.838779,352.4516 211.979096,355.199152 211.979096,358.809129 Z M288.471136,368.315353 C287.716629,365.83994 286.888642,363.305622 285.987156,360.712342 L285.530288,359.410788 C284.449972,356.362364 283.389672,353.313985 282.349372,350.26556 L249.940034,350.26556 C249.246497,352.297843 248.544076,354.330106 247.832761,356.362376 L246.759117,359.410788 C245.6788,362.459213 244.698528,365.427371 243.81827,368.315353 L224.372667,368.315353 L226.00996,363.622393 C228.533595,356.421346 230.948668,349.682807 233.255226,343.406639 L234.451901,340.167489 C236.837898,333.743227 239.179779,327.643182 241.477595,321.86722 L242.814651,318.526327 C245.037516,313.005537 247.232576,307.721556 249.399878,302.674274 C252.00064,296.617535 254.701391,290.701274 257.502213,284.925311 L275.387366,284.925311 C278.108163,290.701274 280.788909,296.617535 283.429683,302.674274 C285.850393,308.226284 288.287879,314.0647 290.742204,320.189669 L291.411983,321.86722 C294.092769,328.605843 296.833531,335.785577 299.634352,343.406639 L300.629521,346.124734 C303.134053,352.990745 305.763163,360.387561 308.516912,368.315353 L288.471136,368.315353 Z M266.024668,303.817427 L265.853952,304.322288 C265.521411,305.291006 265.081288,306.496991 264.533573,307.940265 L260.589878,318.26522 C259.793616,320.360254 258.944451,322.603785 258.042368,324.995851 L257.108347,327.492743 C256.170578,330.019712 255.22156,332.636916 254.261279,335.344398 L277.908092,335.344398 L276.955316,332.667007 C276.325135,330.902139 275.704959,329.177389 275.094783,327.492743 L274.18702,324.995851 C273.226738,322.364579 272.304879,319.913033 271.421425,317.641165 L269.250597,312.120331 C268.780463,310.917014 268.345339,309.793919 267.945222,308.751037 L267.149073,306.685131 C266.70813,305.546891 266.33333,304.590994 266.024668,303.817427 Z M343.236916,358.809129 C343.236916,362.419105 342.096599,365.166657 339.81593,367.051867 C337.535261,368.937077 334.954544,369.879668 332.073699,369.879668 C329.192855,369.879668 326.612137,368.937077 324.331468,367.051867 C322.0508,365.166657 320.910483,362.419105 320.910483,358.809129 C320.910483,355.199152 322.0508,352.4516 324.331468,350.56639 C326.612137,348.68118 329.192855,347.738589 332.073699,347.738589 C334.954544,347.738589 337.535261,348.68118 339.81593,350.56639 C342.096599,352.4516 343.236916,355.199152 343.236916,358.809129 Z M419.728956,368.315353 C418.974449,365.83994 418.146462,363.305622 417.244976,360.712342 L416.788108,359.410788 C415.707792,356.362364 414.647492,353.313985 413.607192,350.26556 L381.197854,350.26556 C380.504317,352.297843 379.801896,354.330106 379.090581,356.362376 L378.016937,359.410788 C376.93662,362.459213 375.956348,365.427371 375.07609,368.315353 L355.630487,368.315353 L357.26778,363.622393 C359.791415,356.421346 362.206488,349.682807 364.513046,343.406639 L365.709721,340.167489 C368.095718,333.743227 370.437599,327.643182 372.735415,321.86722 L374.072471,318.526327 C376.295336,313.005537 378.490396,307.721556 380.657698,302.674274 C383.25846,296.617535 385.959212,290.701274 388.760033,284.925311 L406.645186,284.925311 C409.365983,290.701274 412.046729,296.617535 414.687503,302.674274 C417.108213,308.226284 419.545699,314.0647 422.000024,320.189669 L422.669803,321.86722 C425.350589,328.605843 428.091351,335.785577 430.892172,343.406639 L431.887341,346.124734 C434.391873,352.990745 437.020983,360.387561 439.774732,368.315353 L419.728956,368.315353 Z M397.282488,303.817427 L397.111772,304.322288 C396.779232,305.291006 396.339108,306.496991 395.791393,307.940265 L391.847698,318.26522 C391.051436,320.360254 390.202271,322.603785 389.300188,324.995851 L388.366167,327.492743 C387.428398,330.019712 386.47938,332.636916 385.519099,335.344398 L409.165912,335.344398 L408.213136,332.667007 C407.582955,330.902139 406.962779,329.177389 406.352603,327.492743 L405.44484,324.995851 C404.484559,322.364579 403.562699,319.913033 402.679245,317.641165 L400.508417,312.120331 C400.038283,310.917014 399.603159,309.793919 399.203042,308.751037 L398.406893,306.685131 C397.96595,305.546891 397.59115,304.590994 397.282488,303.817427 Z M474.494736,358.809129 C474.494736,362.419105 473.354419,365.166657 471.07375,367.051867 C468.793082,368.937077 466.212364,369.879668 463.331519,369.879668 C460.450675,369.879668 457.869957,368.937077 455.589288,367.051867 C453.30862,365.166657 452.168303,362.419105 452.168303,358.809129 C452.168303,355.199152 453.30862,352.4516 455.589288,350.56639 C457.869957,348.68118 460.450675,347.738589 463.331519,347.738589 C466.212364,347.738589 468.793082,348.68118 471.07375,350.56639 C473.354419,352.4516 474.494736,355.199152 474.494736,358.809129 Z M524.819236,370 C511.295272,370 500.992406,366.229637 493.91033,358.688797 C486.828254,351.147957 483.287269,340.43852 483.287269,326.560166 C483.287269,319.6611 484.36757,313.504176 486.528203,308.089212 C488.688836,302.674247 491.64966,298.101678 495.410762,294.371369 C499.171865,290.64106 503.653111,287.813288 508.854636,285.887967 C514.056161,283.962646 519.69773,283 525.779513,283 C529.300545,283 532.501435,283.260717 535.38228,283.782158 C538.263124,284.303599 540.783825,284.905252 542.944459,285.587137 C544.925039,286.212198 546.603008,286.854102 547.978408,287.512865 L548.346015,287.692946 C549.786437,288.414941 550.826727,288.976485 551.466914,289.377593 L546.065358,304.539419 C543.504607,303.17565 540.523778,302.012453 537.122781,301.049793 C533.721784,300.087132 529.86071,299.605809 525.539444,299.605809 C522.658599,299.605809 519.837815,300.087132 517.077005,301.049793 C514.316196,302.012453 511.875517,303.556698 509.754895,305.682573 C507.634274,307.808448 505.933801,310.556 504.653426,313.925311 C503.37305,317.294623 502.732872,321.385868 502.732872,326.19917 C502.732872,330.049812 503.152989,333.639679 503.993235,336.96888 C504.833482,340.29808 506.19386,343.165963 508.074411,345.572614 C509.954963,347.979265 512.415647,349.884502 515.456538,351.288382 C518.49743,352.692254 522.178454,353.394191 526.49972,353.394191 C529.220518,353.394191 531.661197,353.23375 533.82183,352.912863 C535.982463,352.591976 537.902998,352.210929 539.58349,351.76971 C541.263983,351.32849 542.744395,350.827112 544.02477,350.26556 L545.604815,349.565669 C546.277661,349.26443 546.911313,348.976289 547.505773,348.701245 L552.66726,363.742739 C550.026486,365.347173 546.305451,366.791142 541.504044,368.074689 C536.702636,369.358236 531.141089,370 524.819236,370 Z M587.747368,358.809129 C587.747368,362.419105 586.607051,365.166657 584.326382,367.051867 C582.045714,368.937077 579.464996,369.879668 576.584151,369.879668 C573.703307,369.879668 571.122589,368.937077 568.841921,367.051867 C566.561252,365.166657 565.420935,362.419105 565.420935,358.809129 C565.420935,355.199152 566.561252,352.4516 568.841921,350.56639 C571.122589,348.68118 573.703307,347.738589 576.584151,347.738589 C579.464996,347.738589 582.045714,348.68118 584.326382,350.56639 C586.607051,352.4516 587.747368,355.199152 587.747368,358.809129 Z M638.071868,370 C624.547904,370 614.245038,366.229637 607.162962,358.688797 C600.080886,351.147957 596.539901,340.43852 596.539901,326.560166 C596.539901,319.6611 597.620202,313.504176 599.780835,308.089212 C601.941469,302.674247 604.902292,298.101678 608.663395,294.371369 C612.424497,290.64106 616.905743,287.813288 622.107268,285.887967 C627.308793,283.962646 632.950362,283 639.032145,283 C642.553177,283 645.754067,283.260717 648.634912,283.782158 C651.515756,284.303599 654.036457,284.905252 656.197091,285.587137 C658.177671,286.212198 659.85564,286.854102 661.23104,287.512865 L661.598647,287.692946 C663.039069,288.414941 664.079359,288.976485 664.719546,289.377593 L659.31799,304.539419 C656.757239,303.17565 653.77641,302.012453 650.375413,301.049793 C646.974416,300.087132 643.113342,299.605809 638.792076,299.605809 C635.911231,299.605809 633.090447,300.087132 630.329637,301.049793 C627.568828,302.012453 625.128149,303.556698 623.007528,305.682573 C620.886906,307.808448 619.186433,310.556 617.906058,313.925311 C616.625682,317.294623 615.985504,321.385868 615.985504,326.19917 C615.985504,330.049812 616.405621,333.639679 617.245867,336.96888 C618.086114,340.29808 619.446492,343.165963 621.327043,345.572614 C623.207595,347.979265 625.668279,349.884502 628.70917,351.288382 C631.750062,352.692254 635.431086,353.394191 639.752352,353.394191 C642.47315,353.394191 644.913829,353.23375 647.074462,352.912863 C649.235095,352.591976 651.15563,352.210929 652.836122,351.76971 C654.516615,351.32849 655.997027,350.827112 657.277402,350.26556 L658.857447,349.565669 C659.530293,349.26443 660.163945,348.976289 660.758405,348.701245 L665.919892,363.742739 C663.279118,365.347173 659.558083,366.791142 654.756676,368.074689 C649.955268,369.358236 644.393721,370 638.071868,370 Z M701,358.809129 C701,362.419105 699.859683,365.166657 697.579014,367.051867 C695.298346,368.937077 692.717628,369.879668 689.836783,369.879668 C686.955939,369.879668 684.375221,368.937077 682.094553,367.051867 C679.813884,365.166657 678.673567,362.419105 678.673567,358.809129 C678.673567,355.199152 679.813884,352.4516 682.094553,350.56639 C684.375221,348.68118 686.955939,347.738589 689.836783,347.738589 C692.717628,347.738589 695.298346,348.68118 697.579014,350.56639 C699.859683,352.4516 701,355.199152 701,358.809129 Z" id="path-3"></path>
        <filter x="-2.1%" y="-14.4%" width="105.9%" height="140.2%" filterUnits="objectBoundingBox" id="filter-4">
            <feOffset dx="5" dy="5" in="SourceAlpha" result="shadowOffsetOuter1"></feOffset>
            <feGaussianBlur stdDeviation="5" in="shadowOffsetOuter1" result="shadowBlurOuter1"></feGaussianBlur>
            <feColorMatrix values="0 0 0 0 0   0 0 0 0 0   0 0 0 0 0  0 0 0 0.22 0" type="matrix" in="shadowBlurOuter1"></feColorMatrix>
        </filter>
        <linearGradient x1="2.44820263%" y1="2.42420066%" x2="123.107123%" y2="83.7301721%" id="linearGradient-5">
            <stop stop-color="#DA1AE6" offset="0%"></stop>
            <stop stop-color="#140CF7" offset="100%"></stop>
        </linearGradient>
        <radialGradient cx="22.7020292%" cy="10.5129709%" fx="22.7020292%" fy="10.5129709%" r="106.771338%" id="radialGradient-6">
            <stop stop-color="#FFFFFF" offset="0%"></stop>
            <stop stop-color="#000000" offset="100%"></stop>
        </radialGradient>
        <circle id="path-7" cx="143.935533" cy="101" r="101"></circle>
        <linearGradient x1="2.44820263%" y1="6.96728524%" x2="123.107123%" y2="80.5092273%" id="linearGradient-8">
            <stop stop-color="#DA1AE6" offset="0%"></stop>
            <stop stop-color="#140CF7" offset="100%"></stop>
        </linearGradient>
        <linearGradient x1="0%" y1="0%" x2="121.685048%" y2="116.428996%" id="linearGradient-9">
            <stop stop-color="#FFCC23" offset="0%"></stop>
            <stop stop-color="#E3209C" offset="94.1067558%"></stop>
            <stop stop-color="#E115A3" offset="100%"></stop>
        </linearGradient>
        <radialGradient cx="18.6747732%" cy="15.2748902%" fx="18.6747732%" fy="15.2748902%" r="97.5652458%" id="radialGradient-10">
            <stop stop-color="#FFFFFF" offset="0%"></stop>
            <stop stop-color="#000000" offset="100%"></stop>
        </radialGradient>
        <circle id="path-11" cx="690.935533" cy="105" r="101"></circle>
        <linearGradient x1="0%" y1="11.71875%" x2="121.685048%" y2="100.8597%" id="linearGradient-12">
            <stop stop-color="#FFCC23" offset="0%"></stop>
            <stop stop-color="#E3209C" offset="94.1067558%"></stop>
            <stop stop-color="#E115A3" offset="100%"></stop>
        </linearGradient>
        <linearGradient x1="0%" y1="42.8304754%" x2="121.685048%" y2="59.5252865%" id="linearGradient-13">
            <stop stop-color="#FFCC23" offset="0%"></stop>
            <stop stop-color="#E3209C" offset="94.1067558%"></stop>
            <stop stop-color="#E115A3" offset="100%"></stop>
        </linearGradient>
        <linearGradient x1="2.44820263%" y1="40.6558092%" x2="123.107123%" y2="56.6248212%" id="linearGradient-14">
            <stop stop-color="#DA1AE6" offset="0%"></stop>
            <stop stop-color="#140CF7" offset="100%"></stop>
        </linearGradient>
        <linearGradient x1="0%" y1="20.3461488%" x2="97.0651377%" y2="77.348869%" id="linearGradient-15">
            <stop stop-color="#06DFA7" offset="0%"></stop>
            <stop stop-color="#BFF968" offset="100%"></stop>
        </linearGradient>
        <linearGradient x1="0%" y1="37.7857048%" x2="97.6494292%" y2="61.4062176%" id="linearGradient-16">
            <stop stop-color="#0685DF" offset="0%"></stop>
            <stop stop-color="#68F9E8" offset="100%"></stop>
        </linearGradient>
    </defs>
    <g id="Artboard" stroke="none" stroke-width="1" fill="none" fill-rule="evenodd">
        <g id="BispecifcAntibodiesAgainstColorectalCancer" fill-rule="nonzero">
            <use fill="black" fill-opacity="1" filter="url(#filter-2)" xlink:href="#path-1"></use>
            <use fill="#B1E6FF" xlink:href="#path-1"></use>
        </g>
        <g id="B.A.A.C.C." fill-rule="nonzero">
            <use fill="black" fill-opacity="1" filter="url(#filter-4)" xlink:href="#path-3"></use>
            <use fill="#FFFFFF" xlink:href="#path-3"></use>
        </g>
        <g id="Group-7" transform="translate(1391.500000, 369.500000) rotate(-13.000000) translate(-1391.500000, -369.500000) translate(981.000000, 245.000000)" fill-rule="nonzero">
            <g id="Oval">
                <use fill="url(#linearGradient-5)" xlink:href="#path-7"></use>
                <use fill-opacity="0.25" fill="#FFFFFF" xlink:href="#path-7"></use>
                <use fill-opacity="0.3" fill="url(#radialGradient-6)" style="mix-blend-mode: overlay;" xlink:href="#path-7"></use>
            </g>
            <polygon id="Polygon" stroke="url(#linearGradient-8)" stroke-width="9" transform="translate(27.685479, 109.216087) rotate(64.000000) translate(-27.685479, -109.216087) " points="27.6854792 89.5430276 48.3709585 104.571908 40.4698085 128.889147 14.90115 128.889147 7 104.571908"></polygon>
            <polygon id="Polygon" stroke="url(#linearGradient-8)" stroke-width="9" transform="translate(152.798824, 220.516913) rotate(31.000000) translate(-152.798824, -220.516913) " points="152.798824 200.843853 173.484303 215.872734 165.583153 240.189973 140.014495 240.189973 132.113345 215.872734"></polygon>
            <g id="Oval">
                <use fill="url(#linearGradient-9)" xlink:href="#path-11"></use>
                <use fill-opacity="0.3" fill="#FFFFFF" xlink:href="#path-11"></use>
                <use fill-opacity="0.3" fill="url(#radialGradient-10)" style="mix-blend-mode: overlay;" xlink:href="#path-11"></use>
            </g>
            <polygon id="Triangle" stroke="url(#linearGradient-12)" stroke-width="9" transform="translate(712.945097, 222.160740) rotate(171.000000) translate(-712.945097, -222.160740) " points="712.945097 206.591775 730.7382 237.729706 695.151993 237.729706"></polygon>
            <g id="Group-2" transform="translate(488.935533, 87.000000)">
                <polygon id="Triangle" stroke="url(#linearGradient-12)" stroke-width="9" transform="translate(92.190356, 21.171395) rotate(20.000000) translate(-92.190356, -21.171395) " points="92.1903561 5.60242936 109.98346 36.7403604 74.3972526 36.7403604"></polygon>
                <path d="M59.8587531,26 L52.4025853,32.308186 L68.0557531,38 L0.455753078,38 L0.455753078,26 L59.8587531,26 Z M82.3217531,7 L68.1347531,19 L0.455753078,19 L0.455753078,7 L82.3217531,7 Z" id="Combined-Shape" fill="url(#linearGradient-13)"></path>
            </g>
            <g id="Group" transform="translate(233.935533, 79.000000)">
                <polygon id="Polygon" stroke="url(#linearGradient-8)" stroke-width="9" transform="translate(28.749523, 27.912370) rotate(30.000000) translate(-28.749523, -27.912370) " points="28.7495226 8.23930976 49.4350019 23.2681901 41.5338519 47.5854294 15.9651934 47.5854294 8.0640434 23.2681901"></polygon>
                <path d="M121.461053,34 L121.461053,46 L51.510669,46 L61.7005173,36.7477817 L60.486669,34 L121.461053,34 Z M121.461053,15 L121.461053,27 L57.396669,27 L52.099669,15 L121.461053,15 Z" id="Combined-Shape" fill="url(#linearGradient-14)"></path>
            </g>
            <path d="M384.935533,103 L426.935533,103 C430.801526,103 433.935533,106.134007 433.935533,110 C433.935533,113.865993 430.801526,117 426.935533,117 L384.935533,117 C381.06954,117 377.935533,113.865993 377.935533,110 C377.935533,106.134007 381.06954,103 384.935533,103 Z M376.847459,109.407407 C376.847459,96.1321184 364.951843,84.962963 351.774428,84.962963 L351.774428,84.9459378 C351.645767,84.9572092 351.515537,84.962963 351.383974,84.962963 C348.927168,84.962963 346.935533,82.9565354 346.935533,80.4814815 C346.935533,78.0064276 348.927168,76 351.383974,76 C351.471683,76 351.601834,76 351.774428,76 C370.088801,76 384.935533,90.9570058 384.935533,109.407407 C384.935533,127.759853 370.28864,142.792307 352.108898,142.940791 C351.872985,142.979744 351.630827,143 351.383974,143 C348.927168,143 346.935533,140.993572 346.935533,138.518519 C346.935533,136.043465 348.927168,134.037037 351.383974,134.037037 C351.622438,134.037037 351.85652,134.05594 352.084824,134.09234 C365.154778,133.958173 376.847459,122.592863 376.847459,109.407407 Z" id="Combined-Shape" fill="url(#linearGradient-15)" transform="translate(390.435533, 109.500000) scale(-1, 1) translate(-390.435533, -109.500000) "></path>
            <path d="M473.435533,88 C485.309655,88 494.935533,97.6258779 494.935533,109.5 C494.935533,121.374122 485.309655,131 473.435533,131 C464.199728,131 456.324082,125.176463 453.280255,117.001045 L414.935533,117 C411.06954,117 407.935533,113.865993 407.935533,110 C407.935533,106.134007 411.06954,103 414.935533,103 L452.935351,103.00072 C455.690188,94.3033995 463.826742,88 473.435533,88 Z" id="Combined-Shape" fill="url(#linearGradient-16)" transform="translate(451.435533, 109.500000) scale(-1, 1) translate(-451.435533, -109.500000) "></path>
            <polygon id="Triangle" stroke="url(#linearGradient-12)" stroke-width="9" transform="translate(801.863673, 63.641251) rotate(78.000000) translate(-801.863673, -63.641251) " points="801.863673 48.0722859 819.656777 79.2102169 784.07057 79.2102169"></polygon>
        </g>
    </g>
</svg>