<?xml version="1.0" encoding="UTF-8"?>
<svg width="594px" height="56px" viewBox="0 0 594 56" version="1.1" xmlns="http://www.w3.org/2000/svg" xmlns:xlink="http://www.w3.org/1999/xlink">
    <!-- Generator: Sketch 58 (84663) - https://sketch.com -->
    <title>Group</title>
    <desc>Created with Sketch.</desc>
    <defs>
        <linearGradient x1="28.5752966%" y1="55.3344622%" x2="70.8415603%" y2="45.459596%" id="linearGradient-1">
            <stop stop-color="#2259F6" offset="0%"></stop>
            <stop stop-color="#0AF7E6" offset="100%"></stop>
        </linearGradient>
        <linearGradient x1="100%" y1="135.331107%" x2="20.2154461%" y2="3.99833403%" id="linearGradient-2">
            <stop stop-color="#F7B0B5" offset="0%"></stop>
            <stop stop-color="#C40B0B" offset="100%"></stop>
        </linearGradient>
        <linearGradient x1="21.4764961%" y1="40.0145346%" x2="84.9470048%" y2="58.8896061%" id="linearGradient-3">
            <stop stop-color="#F7F45C" offset="0%"></stop>
            <stop stop-color="#6EF21C" offset="100%"></stop>
        </linearGradient>
        <linearGradient x1="29.020145%" y1="43.6281106%" x2="73.2962151%" y2="55.2902428%" id="linearGradient-4">
            <stop stop-color="#4B10F2" offset="0%"></stop>
            <stop stop-color="#C719E8" offset="100%"></stop>
        </linearGradient>
        <linearGradient x1="71.6513647%" y1="43.9508507%" x2="23.4519395%" y2="56.0491493%" id="linearGradient-5">
            <stop stop-color="#B1F67D" offset="0%"></stop>
            <stop stop-color="#37EAD5" offset="100%"></stop>
        </linearGradient>
        <linearGradient x1="34.9686648%" y1="60.6508876%" x2="67.334661%" y2="36.0691609%" id="linearGradient-6">
            <stop stop-color="#B1F67D" offset="0%"></stop>
            <stop stop-color="#37EAD5" offset="100%"></stop>
        </linearGradient>
        <linearGradient x1="27.9413587%" y1="43.8950103%" x2="75.9594766%" y2="57.9243562%" id="linearGradient-7">
            <stop stop-color="#C719E8" offset="0%"></stop>
            <stop stop-color="#4B10F2" offset="100%"></stop>
        </linearGradient>
    </defs>
    <g id="Parts" stroke="none" stroke-width="1" fill="none" fill-rule="evenodd">
        <g transform="translate(-119.000000, -332.000000)" id="Group">
            <g transform="translate(119.880000, 332.240000)">
                <g id="Group-3" transform="translate(372.120000, 31.760000)" fill="url(#linearGradient-1)">
                    <rect id="Rectangle" x="0" y="0" width="100" height="24" rx="2"></rect>
                </g>
                <path d="M5.6,11.92 C4.533328,11.92 3.57600424,11.6880023 2.728,11.224 C1.87999576,10.7599977 1.21333576,10.0933377 0.728,9.224 C0.24266424,8.35466232 6.39488462e-14,7.33867248 6.39488462e-14,6.176 C6.39488462e-14,5.01332752 0.24266424,3.99733768 0.728,3.128 C1.21333576,2.25866232 1.87999576,1.59200232 2.728,1.128 C3.57600424,0.66399768 4.533328,0.432 5.6,0.432 C6.32533696,0.432 6.97333048,0.51733248 7.544,0.688 C8.11466952,0.85866752 8.68266384,1.1039984 9.248,1.424 C9.48266784,1.55200064 9.6,1.75466528 9.6,2.032 C9.6,2.1920008 9.54133392,2.33333272 9.424,2.456 C9.30666608,2.57866728 9.15200096,2.64 8.96,2.64 C8.8533328,2.64 8.75733376,2.61866688 8.672,2.576 C8.20266432,2.33066544 7.74400224,2.14400064 7.296,2.016 C6.84799776,1.88799936 6.3306696,1.824 5.744,1.824 C4.82666208,1.824 4.04533656,2.01333144 3.4,2.392 C2.75466344,2.77066856 2.26933496,3.28799672 1.944,3.944 C1.61866504,4.60000328 1.456,5.34399584 1.456,6.176 C1.456,7.00800416 1.61866504,7.75199672 1.944,8.408 C2.26933496,9.06400328 2.75466344,9.58133144 3.4,9.96 C4.04533656,10.3386686 4.82666208,10.528 5.744,10.528 C6.3306696,10.528 6.84799776,10.4640006 7.296,10.336 C7.74400224,10.2079994 8.20266432,10.0213346 8.672,9.776 C8.75733376,9.73333312 8.8533328,9.712 8.96,9.712 C9.15200096,9.712 9.30666608,9.77066608 9.424,9.888 C9.54133392,10.0053339 9.6,10.1493325 9.6,10.32 C9.6,10.5973347 9.48266784,10.7999994 9.248,10.928 C8.68266384,11.2480016 8.11466952,11.4933325 7.544,11.664 C6.97333048,11.8346675 6.32533696,11.92 5.6,11.92 Z M15.5618463,11.92 C14.7405088,11.92 14.020516,11.7440018 13.4018463,11.392 C12.7831765,11.0399982 12.3058479,10.5413366 11.9698463,9.896 C11.6338446,9.25066344 11.4658463,8.51200416 11.4658463,7.68 C11.4658463,6.84799584 11.6338446,6.10933656 11.9698463,5.464 C12.3058479,4.81866344 12.7831765,4.32000176 13.4018463,3.968 C14.020516,3.61599824 14.7405088,3.44 15.5618463,3.44 C16.372517,3.44 17.0871765,3.61599824 17.7058463,3.968 C18.324516,4.32000176 18.8045112,4.81866344 19.1458463,5.464 C19.4871813,6.10933656 19.6578463,6.84799584 19.6578463,7.68 C19.6578463,8.51200416 19.4871813,9.25066344 19.1458463,9.896 C18.8045112,10.5413366 18.324516,11.0399982 17.7058463,11.392 C17.0871765,11.7440018 16.372517,11.92 15.5618463,11.92 Z M15.5618463,10.592 C15.9991818,10.592 16.4178443,10.4906677 16.8178463,10.288 C17.2178483,10.0853323 17.5485116,9.76533552 17.8098463,9.328 C18.0711809,8.89066448 18.2018463,8.33600336 18.2018463,7.664 C18.2018463,7.00266336 18.0711809,6.45333552 17.8098463,6.016 C17.5485116,5.57866448 17.2178483,5.26133432 16.8178463,5.064 C16.4178443,4.86666568 15.9991818,4.768 15.5618463,4.768 C15.113844,4.768 14.6898483,4.86666568 14.2898463,5.064 C13.8898443,5.26133432 13.5618475,5.57866448 13.3058463,6.016 C13.049845,6.45333552 12.9218463,7.00266336 12.9218463,7.664 C12.9218463,8.33600336 13.049845,8.89066448 13.3058463,9.328 C13.5618475,9.76533552 13.8898443,10.0853323 14.2898463,10.288 C14.6898483,10.4906677 15.113844,10.592 15.5618463,10.592 Z M23.1236925,11.84 C22.9210248,11.84 22.7503599,11.7706674 22.6116925,11.632 C22.4730252,11.4933326 22.4036925,11.3226677 22.4036925,11.12 L22.4036925,4.256 C22.4036925,4.05333232 22.4730252,3.88000072 22.6116925,3.736 C22.7503599,3.59199928 22.9210248,3.52 23.1236925,3.52 C23.3263602,3.52 23.4996918,3.59199928 23.6436925,3.736 C23.7876932,3.88000072 23.8596925,4.05333232 23.8596925,4.256 L23.8596925,4.912 C24.2650279,4.46399776 24.7023568,4.106668 25.1716925,3.84 C25.6410282,3.573332 26.1956893,3.44 26.8356925,3.44 C27.4223621,3.44 27.9316904,3.57866528 28.3636925,3.856 C28.7956947,4.13333472 29.126358,4.5119976 29.3556925,4.992 C29.585027,5.4720024 29.6996925,5.99999712 29.6996925,6.576 L29.6996925,11.12 C29.6996925,11.3226677 29.6276932,11.4933326 29.4836925,11.632 C29.3396918,11.7706674 29.1663602,11.84 28.9636925,11.84 C28.7610248,11.84 28.5903599,11.7706674 28.4516925,11.632 C28.3130252,11.4933326 28.2436925,11.3226677 28.2436925,11.12 L28.2436925,6.736 C28.2436925,5.43466016 27.6570317,4.784 26.4836925,4.784 C25.9503565,4.784 25.473028,4.92266528 25.0516925,5.2 C24.6303571,5.47733472 24.2330277,5.85066432 23.8596925,6.32 L23.8596925,11.12 C23.8596925,11.3226677 23.7876932,11.4933326 23.6436925,11.632 C23.4996918,11.7706674 23.3263602,11.84 23.1236925,11.84 Z M35.5015388,11.92 C34.4348668,11.92 33.4642098,11.6800024 32.5895388,11.2 C32.4082045,11.0719994 32.3175388,10.8960011 32.3175388,10.672 C32.3175388,10.5013325 32.3762049,10.3520006 32.4935388,10.224 C32.6108727,10.0959994 32.7602045,10.032 32.9415388,10.032 C33.0375393,10.032 33.1335383,10.0533331 33.2295388,10.096 C33.5708738,10.2453341 33.9122037,10.3626662 34.2535388,10.448 C34.5948738,10.5333338 34.97887,10.576 35.4055388,10.576 C36.5895447,10.576 37.1815388,10.1973371 37.1815388,9.44 C37.1815388,9.19466544 37.0455401,9.00800064 36.7735388,8.88 C36.5015374,8.75199936 36.0562085,8.6080008 35.4375388,8.448 C34.8082023,8.29866592 34.2882075,8.1440008 33.8775388,7.984 C33.4668701,7.8239992 33.1148736,7.58133496 32.8215388,7.256 C32.528204,6.93066504 32.3815388,6.501336 32.3815388,5.968 C32.3815388,5.2213296 32.6508694,4.61333568 33.1895388,4.144 C33.7282081,3.67466432 34.4988671,3.44 35.5015388,3.44 C36.3228762,3.44 37.0962018,3.573332 37.8215388,3.84 C37.9708729,3.88266688 38.0855384,3.96266608 38.1655388,4.08 C38.2455392,4.19733392 38.2855388,4.31999936 38.2855388,4.448 C38.2855388,4.61866752 38.2242061,4.76799936 38.1015388,4.896 C37.9788715,5.02400064 37.826873,5.088 37.6455388,5.088 C37.5922052,5.088 37.5228725,5.07733344 37.4375388,5.056 C36.818869,4.86399904 36.2108751,4.768 35.6135388,4.768 C35.0375359,4.768 34.5868737,4.87199896 34.2615388,5.08 C33.9362038,5.28800104 33.7735388,5.55733168 33.7735388,5.888 C33.7735388,6.2080016 33.9228706,6.44266592 34.2215388,6.592 C34.5202069,6.74133408 34.9842023,6.88533264 35.6135388,7.024 C36.2428753,7.1840008 36.7548701,7.34133256 37.1495388,7.496 C37.5442074,7.65066744 37.8828707,7.89333168 38.1655388,8.224 C38.4482069,8.55466832 38.5895388,8.99733056 38.5895388,9.552 C38.5895388,10.2346701 38.3202081,10.7999978 37.7815388,11.248 C37.2428694,11.6960022 36.482877,11.92 35.5015388,11.92 Z M44.007385,11.92 C42.4500439,11.92 41.671385,11.216007 41.671385,9.808 L41.671385,4.848 L40.535385,4.848 C40.4500513,4.848 40.378052,4.81866696 40.319385,4.76 C40.2607181,4.70133304 40.231385,4.62933376 40.231385,4.544 C40.231385,4.4373328 40.2793846,4.34666704 40.375385,4.272 L42.551385,2.144 C42.6473855,2.04799952 42.7380513,2 42.823385,2 C42.9087188,2 42.9807181,2.03199968 43.039385,2.096 C43.098052,2.16000032 43.127385,2.23466624 43.127385,2.32 L43.127385,3.6 L44.935385,3.6 C45.1167193,3.6 45.2660511,3.65866608 45.383385,3.776 C45.500719,3.89333392 45.559385,4.04266576 45.559385,4.224 C45.559385,4.39466752 45.500719,4.54133272 45.383385,4.664 C45.2660511,4.78666728 45.1167193,4.848 44.935385,4.848 L43.127385,4.848 L43.127385,9.68 C43.127385,10.0960021 43.2260507,10.3599994 43.423385,10.472 C43.6207194,10.5840006 43.8687169,10.64 44.167385,10.64 C44.3807194,10.64 44.5940506,10.6080003 44.807385,10.544 L44.943385,10.512 L44.943385,10.512 C44.9913853,10.5013333 45.052718,10.496 45.127385,10.496 C45.2767191,10.496 45.4100511,10.5519994 45.527385,10.664 C45.644719,10.7760006 45.703385,10.9119992 45.703385,11.072 C45.703385,11.3173346 45.5807196,11.5039994 45.335385,11.632 C44.919383,11.824001 44.4767207,11.92 44.007385,11.92 Z M48.7372313,11.84 C48.5345636,11.84 48.3638987,11.7706674 48.2252313,11.632 C48.0865639,11.4933326 48.0172313,11.3226677 48.0172313,11.12 L48.0172313,4.256 C48.0172313,4.05333232 48.0865639,3.88000072 48.2252313,3.736 C48.3638987,3.59199928 48.5345636,3.52 48.7372313,3.52 C48.939899,3.52 49.1132306,3.59199928 49.2572313,3.736 C49.401232,3.88000072 49.4732313,4.05333232 49.4732313,4.256 L49.4732313,4.944 C50.2199017,3.94132832 51.0572267,3.44 51.9852313,3.44 L52.0652313,3.44 C52.267899,3.44 52.4358973,3.50933264 52.5692313,3.648 C52.7025653,3.78666736 52.7692313,3.95733232 52.7692313,4.16 C52.7692313,4.36266768 52.6998987,4.52799936 52.5612313,4.656 C52.4225639,4.78400064 52.2465657,4.848 52.0332313,4.848 L51.9532313,4.848 C51.4412287,4.848 50.9719001,4.97333208 50.5452313,5.224 C50.1185625,5.47466792 49.7612327,5.81866448 49.4732313,6.256 L49.4732313,11.12 C49.4732313,11.3226677 49.401232,11.4933326 49.2572313,11.632 C49.1132306,11.7706674 48.939899,11.84 48.7372313,11.84 Z M57.6430776,11.92 C57.056408,11.92 56.5470797,11.7813347 56.1150776,11.504 C55.6830754,11.2266653 55.352412,10.8480024 55.1230776,10.368 C54.8937431,9.8879976 54.7790776,9.36000288 54.7790776,8.784 L54.7790776,4.24 C54.7790776,4.03733232 54.8510768,3.86666736 54.9950776,3.728 C55.1390783,3.58933264 55.3124099,3.52 55.5150776,3.52 C55.7177452,3.52 55.8884102,3.58933264 56.0270776,3.728 C56.1657449,3.86666736 56.2350776,4.03733232 56.2350776,4.24 L56.2350776,8.624 C56.2350776,9.92533984 56.8217384,10.576 57.9950776,10.576 C58.5284136,10.576 59.0057421,10.4373347 59.4270776,10.16 C59.848413,9.88266528 60.2457424,9.50933568 60.6190776,9.04 L60.6190776,4.24 C60.6190776,4.03733232 60.6910768,3.86666736 60.8350776,3.728 C60.9790783,3.58933264 61.1524099,3.52 61.3550776,3.52 C61.5577452,3.52 61.7284102,3.58933264 61.8670776,3.728 C62.0057449,3.86666736 62.0750776,4.03733232 62.0750776,4.24 L62.0750776,11.104 C62.0750776,11.3066677 62.0057449,11.4799993 61.8670776,11.624 C61.7284102,11.7680007 61.5577452,11.84 61.3550776,11.84 C61.1524099,11.84 60.9790783,11.7680007 60.8350776,11.624 C60.6910768,11.4799993 60.6190776,11.3066677 60.6190776,11.104 L60.6190776,10.448 C60.2137422,10.8960022 59.7764132,11.253332 59.3070776,11.52 C58.8377419,11.786668 58.2830808,11.92 57.6430776,11.92 Z M69.0929238,11.92 C68.32492,11.92 67.6155937,11.749335 66.9649238,11.408 C66.3142539,11.066665 65.7942591,10.5760032 65.4049238,9.936 C65.0155885,9.2959968 64.8209238,8.54400432 64.8209238,7.68 C64.8209238,6.81599568 65.0155885,6.0640032 65.4049238,5.424 C65.7942591,4.7839968 66.3142539,4.29333504 66.9649238,3.952 C67.6155937,3.61066496 68.32492,3.44 69.0929238,3.44 C69.65826,3.44 70.1462551,3.51199928 70.5569238,3.656 C70.9675925,3.80000072 71.3489221,3.98399888 71.7009238,4.208 C71.9142582,4.34666736 72.0209238,4.53333216 72.0209238,4.768 C72.0209238,4.9280008 71.9595911,5.074666 71.8369238,5.208 C71.7142565,5.341334 71.5729246,5.408 71.4129238,5.408 C71.3249234,5.408 71.2369239,5.39000018 71.148924,5.35400013 L71.0609238,5.312 C70.7089221,5.13066576 70.4075917,5.0000004 70.1569238,4.92 C69.9062559,4.8399996 69.594259,4.8 69.2209238,4.8 C68.3035859,4.8 67.5835931,5.06399736 67.0609238,5.592 C66.5382545,6.12000264 66.2769238,6.81599568 66.2769238,7.68 C66.2769238,8.54400432 66.5382545,9.23999736 67.0609238,9.768 C67.5835931,10.2960026 68.3035859,10.56 69.2209238,10.56 C69.594259,10.56 69.9062559,10.5200004 70.1569238,10.44 C70.3574582,10.3759997 70.5904164,10.2795738 70.8558033,10.1507203 L71.0609238,10.048 C71.1782577,9.98399968 71.2955899,9.952 71.4129238,9.952 C71.5729246,9.952 71.7142565,10.018666 71.8369238,10.152 C71.9595911,10.285334 72.0209238,10.4319992 72.0209238,10.592 C72.0209238,10.8266678 71.9142582,11.0133326 71.7009238,11.152 C71.3489221,11.3760011 70.9675925,11.5599993 70.5569238,11.704 C70.1462551,11.8480007 69.65826,11.92 69.0929238,11.92 Z M77.3747701,11.92 C75.817429,11.92 75.0387701,11.216007 75.0387701,9.808 L75.0387701,4.848 L73.9027701,4.848 C73.8174363,4.848 73.745437,4.81866696 73.6867701,4.76 C73.6281031,4.70133304 73.5987701,4.62933376 73.5987701,4.544 C73.5987701,4.4373328 73.6467696,4.34666704 73.7427701,4.272 L75.9187701,2.144 C76.0147706,2.04799952 76.1054363,2 76.1907701,2 C76.2761038,2 76.3481031,2.03199968 76.4067701,2.096 C76.465437,2.16000032 76.4947701,2.23466624 76.4947701,2.32 L76.4947701,3.6 L78.3027701,3.6 C78.4841043,3.6 78.6334362,3.65866608 78.7507701,3.776 C78.868104,3.89333392 78.9267701,4.04266576 78.9267701,4.224 C78.9267701,4.39466752 78.868104,4.54133272 78.7507701,4.664 C78.6334362,4.78666728 78.4841043,4.848 78.3027701,4.848 L76.4947701,4.848 L76.4947701,9.68 C76.4947701,10.0960021 76.5934358,10.3599994 76.7907701,10.472 C76.9881044,10.5840006 77.2361019,10.64 77.5347701,10.64 C77.7481045,10.64 77.9614357,10.6080003 78.1747701,10.544 L78.3107701,10.512 L78.3107701,10.512 C78.3587703,10.5013333 78.420103,10.496 78.4947701,10.496 C78.6441042,10.496 78.7774362,10.5519994 78.8947701,10.664 C79.012104,10.7760006 79.0707701,10.9119992 79.0707701,11.072 C79.0707701,11.3173346 78.9481046,11.5039994 78.7027701,11.632 C78.286768,11.824001 77.8441058,11.92 77.3747701,11.92 Z M86.8824626,11.76 C86.637128,11.76 86.4344634,11.6826674 86.2744626,11.528 C86.1144618,11.3733326 86.0344626,11.1733346 86.0344626,10.928 C86.0344626,10.3733306 86.1971276,9.86133568 86.5224626,9.392 C86.8477976,8.92266432 87.2424603,8.50933512 87.7064626,8.152 C88.1124646,7.83933177 88.6307519,7.47562649 89.2613366,7.06087563 L90.0635249,6.53910138 C90.4738648,6.26808116 90.8161755,6.02971531 91.0904626,5.824 C91.4744645,5.53599856 91.7944613,5.22133504 92.0504626,4.88 C92.3064639,4.53866496 92.4344626,4.17600192 92.4344626,3.792 C92.4344626,3.18399696 92.2344646,2.70133512 91.8344626,2.344 C91.4344606,1.98666488 90.7918004,1.808 89.9064626,1.808 C89.053125,1.808 88.2377209,1.95970219 87.4602402,2.26311061 L87.1704626,2.384 C87.0637954,2.4373336 86.9624631,2.464 86.8664626,2.464 C86.6957951,2.464 86.5517965,2.40533392 86.4344626,2.288 C86.3171287,2.17066608 86.2584626,2.02133424 86.2584626,1.84 C86.2584626,1.573332 86.3757948,1.37600064 86.6104626,1.248 C87.698468,0.70399728 88.8824562,0.432 90.1624626,0.432 C90.8451327,0.432 91.4664598,0.56799864 92.0264626,0.84 C92.5864654,1.11200136 93.0291276,1.49333088 93.3544626,1.984 C93.6797976,2.47466912 93.8424626,3.0399968 93.8424626,3.68 C93.8424626,4.30933648 93.6584644,4.89333064 93.2904626,5.432 C92.9224608,5.97066936 92.4824652,6.44266464 91.9704626,6.848 C91.45846,7.25333536 90.7918,7.722664 89.9704626,8.256 L89.4999428,8.57560577 C88.9828067,8.93142486 88.5769826,9.22755437 88.2824626,9.464 C87.903794,9.76800152 87.6397967,10.0799984 87.4904626,10.4 L93.0584626,10.4 C93.2504636,10.4 93.4131286,10.466666 93.5464626,10.6 C93.6797966,10.733334 93.7464626,10.895999 93.7464626,11.088 C93.7464626,11.280001 93.6797966,11.4399994 93.5464626,11.568 C93.4131286,11.6960006 93.2504636,11.76 93.0584626,11.76 L86.8824626,11.76 Z M97.7403089,-1.42108547e-14 C97.9536433,-1.42108547e-14 98.1296415,0.06933264 98.2683089,0.208 C98.4069762,0.34666736 98.4763089,0.5226656 98.4763089,0.736 L98.4763089,4.656 C99.2549794,3.84532928 100.16697,3.44 101.212309,3.44 C101.873646,3.44 102.500306,3.60799832 103.092309,3.944 C103.684312,4.28000168 104.164307,4.77066344 104.532309,5.416 C104.900311,6.06133656 105.084309,6.81599568 105.084309,7.68 C105.084309,8.54400432 104.900311,9.29866344 104.532309,9.944 C104.164307,10.5893366 103.684312,11.0799983 103.092309,11.416 C102.500306,11.7520017 101.873646,11.92 101.212309,11.92 C100.16697,11.92 99.2549794,11.5146707 98.4763089,10.704 L98.4763089,11.12 C98.4763089,11.3226677 98.4043096,11.4933326 98.2603089,11.632 C98.1163081,11.7706674 97.9429765,11.84 97.7403089,11.84 C97.5376412,11.84 97.3669762,11.7706674 97.2283089,11.632 C97.0896415,11.4933326 97.0203089,11.3226677 97.0203089,11.12 L97.0203089,0.736 C97.0203089,0.53333232 97.0896415,0.36000072 97.2283089,0.216 C97.3669762,0.07199928 97.5376412,-1.42108547e-14 97.7403089,-1.42108547e-14 Z M101.004309,4.8 C100.51364,4.8 100.052311,4.90933224 99.6203089,5.128 C99.1883067,5.34666776 98.8069772,5.63733152 98.4763089,6 L98.4763089,6 L98.4763089,9.36 C98.8069772,9.72266848 99.1883067,10.0133322 99.6203089,10.232 C100.052311,10.4506678 100.51364,10.56 101.004309,10.56 C101.793646,10.56 102.428306,10.3093358 102.908309,9.808 C103.388311,9.30666416 103.628309,8.59733792 103.628309,7.68 C103.628309,6.76266208 103.388311,6.05333584 102.908309,5.552 C102.428306,5.05066416 101.793646,4.8 101.004309,4.8 Z" id="Construct2b" fill="#3F041D" fill-rule="nonzero"></path>
                <g id="Group-9" transform="translate(544.120000, 8.760000)" fill-rule="nonzero">
                    <path d="M21.9998716,14.5731903 C19.0869577,13.5435631 17,10.7654991 17,7.5 C17,3.35786438 20.3578644,0 24.5,0 C28.6421356,0 32,3.35786438 32,7.5 C32,10.7651265 29.9135184,13.5429292 27.0011254,14.5728379 L27,23 L47,23 C48.1045695,23 49,23.8954305 49,25 L49,45 C49,46.1045695 48.1045695,47 47,47 L2,47 C0.8954305,47 1.3527075e-16,46.1045695 0,45 L0,25 C-5.7935996e-16,23.8954305 0.8954305,23 2,23 L22,23 L21.9998716,14.5731903 Z M24.5,4.28571429 C22.724799,4.28571429 21.2857143,5.72479902 21.2857143,7.5 C21.2857143,9.27520098 22.724799,10.7142857 24.5,10.7142857 C26.275201,10.7142857 27.7142857,9.27520098 27.7142857,7.5 C27.7142857,5.72479902 26.275201,4.28571429 24.5,4.28571429 Z" id="Combined-Shape" fill="url(#linearGradient-2)"></path>
                    <path d="M10.4803075,40.16 C9.12563404,40.16 7.8563134,39.9040026 6.67230748,39.392 C6.54430684,39.3386664 6.43764124,39.2506673 6.35230748,39.128 C6.26697372,39.0053327 6.22430748,38.8746674 6.22430748,38.736 C6.22430748,38.5546658 6.2856402,38.397334 6.40830748,38.264 C6.53097476,38.130666 6.68830652,38.064 6.88030748,38.064 C6.98697468,38.064 7.088307,38.0853331 7.18430748,38.128 C8.16564572,38.5653355 9.21630188,38.784 10.3363075,38.784 C12.2029835,38.784 13.1363075,38.1706728 13.1363075,36.944 C13.1363075,36.6239984 13.0163087,36.3573344 12.7763075,36.144 C12.5363063,35.9306656 12.2403092,35.7626673 11.8883075,35.64 C11.5803059,35.5326661 11.1579763,35.4069589 10.6213083,35.2628752 L10.3843075,35.2 C9.52030316,34.9759989 8.82164348,34.760001 8.28830748,34.552 C7.75497148,34.343999 7.2963094,34.0320021 6.91230748,33.616 C6.52830556,33.1999979 6.33630748,32.6453368 6.33630748,31.952 C6.33630748,31.343997 6.49630588,30.7920025 6.81630748,30.296 C7.13630908,29.7999975 7.60830436,29.4053348 8.23230748,29.112 C8.8563106,28.8186652 9.60563644,28.672 10.4803075,28.672 C11.6536467,28.672 12.7149694,28.8479982 13.6643075,29.2 C13.9629756,29.3066672 14.1123075,29.5199984 14.1123075,29.84 C14.1123075,30.0106675 14.0536414,30.1653326 13.9363075,30.304 C13.8189736,30.4426674 13.6643084,30.512 13.4723075,30.512 C13.4083072,30.512 13.3229747,30.4906669 13.2163075,30.448 C12.3843033,30.1599986 11.5256452,30.016 10.6403075,30.016 C9.7976366,30.016 9.11231012,30.1759984 8.58430748,30.496 C8.05630484,30.8160016 7.79230748,31.2639971 7.79230748,31.84 C7.79230748,32.2240019 7.91763956,32.5359988 8.16830748,32.776 C8.4189754,33.0160012 8.73363892,33.202666 9.11230748,33.336 C9.49097604,33.469334 10.0056376,33.6106659 10.6563075,33.76 C11.4989784,33.9626677 12.1789716,34.1653323 12.6963075,34.368 C13.2136434,34.5706677 13.6563056,34.8853312 14.0243075,35.312 C14.3923093,35.7386688 14.5763075,36.314663 14.5763075,37.04 C14.5763075,37.6373363 14.4056425,38.173331 14.0643075,38.648 C13.7229724,39.122669 13.2429772,39.493332 12.6243075,39.76 C12.0056377,40.026668 11.2909782,40.16 10.4803075,40.16 Z M19.7061537,40.16 C18.1488126,40.16 17.3701537,39.456007 17.3701537,38.048 L17.3701537,33.088 L16.2341537,33.088 C16.14882,33.088 16.0768207,33.058667 16.0181537,33 C15.9594868,32.941333 15.9301537,32.8693338 15.9301537,32.784 C15.9301537,32.6773328 15.9781533,32.586667 16.0741537,32.512 L18.2501537,30.384 C18.3461542,30.2879995 18.43682,30.24 18.5221537,30.24 C18.6074875,30.24 18.6794868,30.2719997 18.7381537,30.336 C18.7968207,30.4000003 18.8261537,30.4746662 18.8261537,30.56 L18.8261537,31.84 L20.6341537,31.84 C20.815488,31.84 20.9648198,31.8986661 21.0821537,32.016 C21.1994877,32.1333339 21.2581537,32.2826658 21.2581537,32.464 C21.2581537,32.6346675 21.1994877,32.7813327 21.0821537,32.904 C20.9648198,33.0266673 20.815488,33.088 20.6341537,33.088 L18.8261537,33.088 L18.8261537,37.92 C18.8261537,38.3360021 18.9248194,38.5999994 19.1221537,38.712 C19.3194881,38.8240006 19.5674856,38.88 19.8661537,38.88 C20.0261545,38.88 20.1861535,38.8620002 20.3461534,38.8260001 L20.6421537,38.752 L20.6421537,38.752 C20.690154,38.7413333 20.7514867,38.736 20.8261537,38.736 C20.9754878,38.736 21.1088198,38.7919994 21.2261537,38.904 C21.3434877,39.0160006 21.4021537,39.1519992 21.4021537,39.312 C21.4021537,39.5573346 21.2794883,39.7439994 21.0341537,39.872 C20.6181517,40.064001 20.1754894,40.16 19.7061537,40.16 Z M27.204,40.16 C26.3826626,40.16 25.6626698,39.9840018 25.044,39.632 C24.4253302,39.2799982 23.9480017,38.7813366 23.612,38.136 C23.2759983,37.4906634 23.108,36.7520042 23.108,35.92 C23.108,35.0879958 23.2759983,34.3493366 23.612,33.704 C23.9480017,33.0586634 24.4253302,32.5600018 25.044,32.208 C25.6626698,31.8559982 26.3826626,31.68 27.204,31.68 C28.0146707,31.68 28.7293302,31.8559982 29.348,32.208 C29.9666698,32.5600018 30.446665,33.0586634 30.788,33.704 C31.129335,34.3493366 31.3,35.0879958 31.3,35.92 C31.3,36.7520042 31.129335,37.4906634 30.788,38.136 C30.446665,38.7813366 29.9666698,39.2799982 29.348,39.632 C28.7293302,39.9840018 28.0146707,40.16 27.204,40.16 Z M27.204,38.832 C27.6413355,38.832 28.059998,38.7306677 28.46,38.528 C28.860002,38.3253323 29.1906654,38.0053355 29.452,37.568 C29.7133346,37.1306645 29.844,36.5760034 29.844,35.904 C29.844,35.2426634 29.7133346,34.6933355 29.452,34.256 C29.1906654,33.8186645 28.860002,33.5013343 28.46,33.304 C28.059998,33.1066657 27.6413355,33.008 27.204,33.008 C26.7559978,33.008 26.332002,33.1066657 25.932,33.304 C25.531998,33.5013343 25.2040013,33.8186645 24.948,34.256 C24.6919987,34.6933355 24.564,35.2426634 24.564,35.904 C24.564,36.5760034 24.6919987,37.1306645 24.948,37.568 C25.2040013,38.0053355 25.531998,38.3253323 25.932,38.528 C26.332002,38.7306677 26.7559978,38.832 27.204,38.832 Z M38.2378463,31.68 C38.8991829,31.68 39.5258433,31.8479983 40.1178463,32.184 C40.7098492,32.5200017 41.1898444,33.0106634 41.5578463,33.656 C41.9258481,34.3013366 42.1098463,35.0559957 42.1098463,35.92 C42.1098463,36.7840043 41.9258481,37.5386634 41.5578463,38.184 C41.1898444,38.8293366 40.7098492,39.3199983 40.1178463,39.656 C39.5258433,39.9920017 38.8991829,40.16 38.2378463,40.16 C37.1925077,40.16 36.2805168,39.7546707 35.5018463,38.944 L35.5018463,43.024 C35.5018463,43.2373344 35.4325136,43.4133326 35.2938463,43.552 C35.1551789,43.6906674 34.9791807,43.76 34.7658463,43.76 C34.5631786,43.76 34.3925136,43.6880007 34.2538463,43.544 C34.1151789,43.3999993 34.0458463,43.2266677 34.0458463,43.024 L34.0458463,32.48 C34.0458463,32.2773323 34.1151789,32.1066674 34.2538463,31.968 C34.3925136,31.8293326 34.5631786,31.76 34.7658463,31.76 C34.9685139,31.76 35.1418455,31.8293326 35.2858463,31.968 C35.429847,32.1066674 35.5018463,32.2773323 35.5018463,32.48 L35.5018463,32.896 C36.2805168,32.0853293 37.1925077,31.68 38.2378463,31.68 Z M38.0298463,33.04 C37.5391771,33.04 37.0778484,33.1493322 36.6458463,33.368 C36.2138441,33.5866678 35.8325146,33.8773315 35.5018463,34.24 L35.5018463,34.24 L35.5018463,37.6 C35.8325146,37.9626685 36.2138441,38.2533322 36.6458463,38.472 C37.0778484,38.6906678 37.5391771,38.8 38.0298463,38.8 C38.8191835,38.8 39.4538439,38.5493358 39.9338463,38.048 C40.4138487,37.5466642 40.6538463,36.8373379 40.6538463,35.92 C40.6538463,35.0026621 40.4138487,34.2933358 39.9338463,33.792 C39.4538439,33.2906642 38.8191835,33.04 38.0298463,33.04 Z" id="Stop" fill="#3F041D"></path>
                </g>
                <g id="Group-8" transform="translate(474.120000, 31.760000)">
                    <rect id="Rectangle" fill="url(#linearGradient-3)" x="0" y="0" width="68" height="24" rx="2"></rect>
                    <path d="M7.62553809,17.08 C7.42287041,17.08 7.25220545,17.0106674 7.11353809,16.872 C6.97487073,16.7333326 6.90553809,16.5626677 6.90553809,16.36 L6.90553809,6.488 C6.90553809,6.28533232 6.97487073,6.11200072 7.11353809,5.968 C7.25220545,5.82399928 7.42287041,5.752 7.62553809,5.752 C7.82820577,5.752 8.00153737,5.82399928 8.14553809,5.968 C8.28953881,6.11200072 8.36153809,6.28533232 8.36153809,6.488 L8.36153809,10.744 L14.4255381,10.744 L14.4255381,6.488 C14.4255381,6.28533232 14.4948707,6.11200072 14.6335381,5.968 C14.7722054,5.82399928 14.9428704,5.752 15.1455381,5.752 C15.3482058,5.752 15.5215374,5.82399928 15.6655381,5.968 C15.8095388,6.11200072 15.8815381,6.28533232 15.8815381,6.488 L15.8815381,16.36 C15.8815381,16.5626677 15.8095388,16.7333326 15.6655381,16.872 C15.5215374,17.0106674 15.3482058,17.08 15.1455381,17.08 C14.9428704,17.08 14.7722054,17.0106674 14.6335381,16.872 C14.4948707,16.7333326 14.4255381,16.5626677 14.4255381,16.36 L14.4255381,12.104 L8.36153809,12.104 L8.36153809,16.36 C8.36153809,16.5626677 8.28953881,16.7333326 8.14553809,16.872 C8.00153737,17.0106674 7.82820577,17.08 7.62553809,17.08 Z M19.9393843,7.176 C19.7153832,7.176 19.5233851,7.0960008 19.3633843,6.936 C19.2033835,6.7759992 19.1233843,6.58400112 19.1233843,6.36 L19.1233843,6.296 C19.1233843,6.07199888 19.2033835,5.8800008 19.3633843,5.72 C19.5233851,5.5599992 19.7153832,5.48 19.9393843,5.48 L20.0353843,5.48 C20.2593855,5.48 20.4513835,5.5599992 20.6113843,5.72 C20.7713851,5.8800008 20.8513843,6.07199888 20.8513843,6.296 L20.8513843,6.36 C20.8513843,6.58400112 20.7713851,6.7759992 20.6113843,6.936 C20.4513835,7.0960008 20.2593855,7.176 20.0353843,7.176 L19.9393843,7.176 Z M19.9713843,17.08 C19.7687167,17.08 19.5980517,17.0106674 19.4593843,16.872 C19.320717,16.7333326 19.2513843,16.5626677 19.2513843,16.36 L19.2513843,9.496 C19.2513843,9.29333232 19.320717,9.12000072 19.4593843,8.976 C19.5980517,8.83199928 19.7687167,8.76 19.9713843,8.76 C20.1847187,8.76 20.360717,8.82933264 20.4993843,8.968 C20.6380517,9.10666736 20.7073843,9.2826656 20.7073843,9.496 L20.7073843,16.36 C20.7073843,16.5626677 20.6353851,16.7333326 20.4913843,16.872 C20.3473836,17.0106674 20.174052,17.08 19.9713843,17.08 Z M26.5892306,17.16 C25.5225586,17.16 24.5519016,16.9200024 23.6772306,16.44 C23.4958964,16.3119994 23.4052306,16.1360011 23.4052306,15.912 C23.4052306,15.7413325 23.4638967,15.5920006 23.5812306,15.464 C23.6985645,15.3359994 23.8478964,15.272 24.0292306,15.272 C24.1252311,15.272 24.2212301,15.2933331 24.3172306,15.336 C24.6585656,15.4853341 24.9998956,15.6026662 25.3412306,15.688 C25.6825656,15.7733338 26.0665618,15.816 26.4932306,15.816 C27.6772365,15.816 28.2692306,15.4373371 28.2692306,14.68 C28.2692306,14.4346654 28.133232,14.2480006 27.8612306,14.12 C27.5892292,13.9919994 27.1439004,13.8480008 26.5252306,13.688 C25.8958941,13.5386659 25.3758993,13.3840008 24.9652306,13.224 C24.5545619,13.0639992 24.2025654,12.821335 23.9092306,12.496 C23.6158958,12.170665 23.4692306,11.741336 23.4692306,11.208 C23.4692306,10.4613296 23.7385612,9.85333568 24.2772306,9.384 C24.8159,8.91466432 25.5865589,8.68 26.5892306,8.68 C27.410568,8.68 28.1838936,8.813332 28.9092306,9.08 C29.0585647,9.12266688 29.1732302,9.20266608 29.2532306,9.32 C29.333231,9.43733392 29.3732306,9.55999936 29.3732306,9.688 C29.3732306,9.85866752 29.3118979,10.0079994 29.1892306,10.136 C29.0665633,10.2640006 28.9145648,10.328 28.7332306,10.328 C28.679897,10.328 28.6105644,10.3173334 28.5252306,10.296 C27.9065608,10.103999 27.2985669,10.008 26.7012306,10.008 C26.1252277,10.008 25.6745656,10.111999 25.3492306,10.32 C25.0238956,10.528001 24.8612306,10.7973317 24.8612306,11.128 C24.8612306,11.4480016 25.0105624,11.6826659 25.3092306,11.832 C25.6078988,11.9813341 26.0718941,12.1253326 26.7012306,12.264 C27.3305671,12.4240008 27.842562,12.5813326 28.2372306,12.736 C28.6318992,12.8906674 28.9705625,13.1333317 29.2532306,13.464 C29.5358987,13.7946683 29.6772306,14.2373306 29.6772306,14.792 C29.6772306,15.4746701 29.4079,16.0399978 28.8692306,16.488 C28.3305612,16.9360022 27.5705688,17.16 26.5892306,17.16 Z M40.8169231,17.08 C40.6142555,17.08 40.4435905,17.0106674 40.3049231,16.872 C40.1662558,16.7333326 40.0969231,16.5626677 40.0969231,16.36 L40.0969231,7.192 L36.8329231,7.192 C36.6409222,7.192 36.4809238,7.12800064 36.3529231,7 C36.2249225,6.87199936 36.1609231,6.71200096 36.1609231,6.52 C36.1609231,6.32799904 36.2249225,6.165334 36.3529231,6.032 C36.4809238,5.898666 36.6409222,5.832 36.8329231,5.832 L44.8009231,5.832 C44.9929241,5.832 45.1555891,5.898666 45.2889231,6.032 C45.4222571,6.165334 45.4889231,6.32799904 45.4889231,6.52 C45.4889231,6.71200096 45.4222571,6.87199936 45.2889231,7 C45.1555891,7.12800064 44.9929241,7.192 44.8009231,7.192 L41.5529231,7.192 L41.5529231,16.36 C41.5529231,16.5626677 41.4809239,16.7333326 41.3369231,16.872 C41.1929224,17.0106674 41.0195908,17.08 40.8169231,17.08 Z M48.4747694,17.16 C48.0054337,17.16 47.5707714,17.064001 47.1707694,16.872 C46.7707674,16.68 46.4534372,16.4000018 46.2187694,16.032 C45.9841016,15.6639982 45.8667694,15.2400024 45.8667694,14.76 C45.8667694,13.9706627 46.1787663,13.3413357 46.8027694,12.872 C47.4267725,12.4026643 48.34143,12.168 49.5467694,12.168 L51.4827694,12.168 L51.4827694,12.04 C51.4827694,11.3359965 51.3094378,10.8293349 50.9627694,10.52 C50.616101,10.2106651 50.0747731,10.056 49.3387694,10.056 C48.933434,10.056 48.5734376,10.0879997 48.2587694,10.152 C47.9441012,10.2160003 47.5947713,10.3119994 47.2107694,10.44 C47.1254356,10.4613334 47.056103,10.472 47.0027694,10.472 C46.8427686,10.472 46.7041033,10.4133339 46.5867694,10.296 C46.4694355,10.1786661 46.4107694,10.0346675 46.4107694,9.864 C46.4107694,9.57599856 46.5494347,9.37333392 46.8267694,9.256 C47.7334406,8.87199808 48.656098,8.68 49.5947694,8.68 C50.3307731,8.68 50.9521002,8.82933184 51.4587694,9.128 C51.9654386,9.42666816 52.3387682,9.81333096 52.5787694,10.288 C52.8187706,10.762669 52.9387694,11.2773306 52.9387694,11.832 L52.9387694,16.36 C52.9387694,16.5626677 52.8667694,16.7333326 52.7227694,16.872 C52.5787687,17.0106674 52.4054371,17.08 52.2027694,17.08 C52.0001017,17.08 51.8294368,17.0106674 51.6907694,16.872 C51.552102,16.7333326 51.4827694,16.5626677 51.4827694,16.36 L51.4827694,15.944 C50.6934321,16.7546707 49.6907755,17.16 48.4747694,17.16 Z M49.0187694,15.88 C49.4881051,15.88 49.9414339,15.7653345 50.3787694,15.536 C50.8161049,15.3066655 51.1841012,15.021335 51.4827694,14.68 L51.4827694,13.336 L49.7387694,13.336 C48.1280947,13.336 47.3227694,13.7573291 47.3227694,14.6 C47.3227694,14.9840019 47.4534348,15.2933322 47.7147694,15.528 C47.976104,15.7626678 48.4107664,15.88 49.0187694,15.88 Z M59.4766157,8.68 C60.5432877,8.68 61.4552785,9.08532928 62.2126157,9.896 L62.2126157,9.496 C62.2126157,9.29333232 62.2819483,9.12000072 62.4206157,8.976 C62.559283,8.83199928 62.729948,8.76 62.9326157,8.76 C63.1352833,8.76 63.3086149,8.83199928 63.4526157,8.976 C63.5966164,9.12000072 63.6686157,9.29333232 63.6686157,9.496 L63.6686157,16.648 C63.6686157,17.9920067 63.3432856,19.026663 62.6926157,19.752 C62.0419457,20.477337 61.113955,20.84 59.9086157,20.84 C59.2899459,20.84 58.6659521,20.7600008 58.0366157,20.6 C57.4072792,20.4399992 56.889951,20.2426678 56.4846157,20.008 C56.2926147,19.8906661 56.1966157,19.7040013 56.1966157,19.448 C56.1966157,19.2773325 56.2579484,19.125334 56.3806157,18.992 C56.5032829,18.858666 56.6552814,18.792 56.8366157,18.792 C56.9219494,18.792 57.0179485,18.8133331 57.1246157,18.856 C57.9352864,19.2613354 58.8152776,19.464 59.7646157,19.464 C61.3966238,19.464 62.2126157,18.5946754 62.2126157,16.856 L62.2126157,15.784 C61.4552785,16.5946707 60.5432877,17 59.4766157,17 C58.8472792,17 58.2366186,16.8426682 57.6446157,16.528 C57.0526127,16.2133318 56.5646176,15.7440031 56.1806157,15.12 C55.7966137,14.4959969 55.6046157,13.7360045 55.6046157,12.84 C55.6046157,11.9439955 55.7966137,11.1840031 56.1806157,10.56 C56.5646176,9.93599688 57.0526127,9.46666824 57.6446157,9.152 C58.2366186,8.83733176 58.8472792,8.68 59.4766157,8.68 Z M59.7806157,10.008 C58.9806117,10.008 58.3272849,10.2506642 57.8206157,10.736 C57.3139465,11.2213358 57.0606157,11.9226621 57.0606157,12.84 C57.0606157,13.7573379 57.3139465,14.4586642 57.8206157,14.944 C58.3272849,15.4293358 58.9806117,15.672 59.7806157,15.672 C60.2819515,15.672 60.7246137,15.5653344 61.1086157,15.352 C61.4926176,15.1386656 61.8606139,14.8506685 62.2126157,14.488 L62.2126157,14.488 L62.2126157,11.192 C61.8606139,10.8293315 61.4926176,10.5413344 61.1086157,10.328 C60.7246137,10.1146656 60.2819515,10.008 59.7806157,10.008 Z" id="HisTag" fill="#3F041D" fill-rule="nonzero"></path>
                </g>
                <g id="Group-7" transform="translate(67.120000, 31.760000)">
                    <rect id="Rectangle" fill="url(#linearGradient-4)" x="0" y="0" width="88" height="24" rx="2"></rect>
                    <path d="M18.9024612,17.08 C18.4651257,17.08 18.1344623,16.8346691 17.9104612,16.344 L13.9584612,6.76 C13.9264611,6.67466624 13.9104612,6.58400048 13.9104612,6.488 C13.9104612,6.26399888 13.9744606,6.085334 14.1024612,5.952 C14.2304619,5.818666 14.4064601,5.752 14.6304612,5.752 C14.7797953,5.752 14.9157939,5.79733288 15.0384612,5.888 C15.1611285,5.97866712 15.2544609,6.09866592 15.3184612,6.248 L19.0784612,15.624 L22.8384612,6.248 C22.9024615,6.09866592 22.9957939,5.97866712 23.1184612,5.888 C23.2411285,5.79733288 23.3771271,5.752 23.5264612,5.752 C23.7504623,5.752 23.9264606,5.818666 24.0544612,5.952 C24.1824619,6.085334 24.2464612,6.26399888 24.2464612,6.488 C24.2464612,6.58400048 24.2304614,6.67466624 24.1984612,6.76 L20.2464612,16.344 C20.0224601,16.8346691 19.6917967,17.08 19.2544612,17.08 L18.9024612,17.08 Z M27.9043075,17 C27.6269728,17 27.3896418,16.9013343 27.1923075,16.704 C26.9949732,16.5066657 26.8963075,16.2693347 26.8963075,15.992 L26.8963075,6.488 C26.8963075,6.28533232 26.9656401,6.11200072 27.1043075,5.968 C27.2429748,5.82399928 27.4136398,5.752 27.6163075,5.752 C27.8189752,5.752 27.9923068,5.82399928 28.1363075,5.968 C28.2803082,6.11200072 28.3523075,6.28533232 28.3523075,6.488 L28.3523075,15.544 L33.5843075,15.544 C33.7869752,15.544 33.9603068,15.6159993 34.1043075,15.76 C34.2483082,15.9040007 34.3203075,16.0773323 34.3203075,16.28 C34.3203075,16.4826677 34.2483082,16.6533326 34.1043075,16.792 C33.9603068,16.9306674 33.7869752,17 33.5843075,17 L27.9043075,17 Z M46.628,17.16 C45.561328,17.16 44.6040042,16.9280023 43.756,16.464 C42.9079958,15.9999977 42.2413358,15.3333377 41.756,14.464 C41.2706642,13.5946623 41.028,12.5786725 41.028,11.416 C41.028,10.2533275 41.2706642,9.23733768 41.756,8.368 C42.2413358,7.49866232 42.9079958,6.83200232 43.756,6.368 C44.6040042,5.90399768 45.561328,5.672 46.628,5.672 C47.353337,5.672 48.0013305,5.75733248 48.572,5.928 C49.1426695,6.09866752 49.7106638,6.3439984 50.276,6.664 C50.5106678,6.79200064 50.628,6.99466528 50.628,7.272 C50.628,7.4320008 50.5693339,7.57333272 50.452,7.696 C50.3346661,7.81866728 50.180001,7.88 49.988,7.88 C49.8813328,7.88 49.7853338,7.85866688 49.7,7.816 C49.2306643,7.57066544 48.7720022,7.38400064 48.324,7.256 C47.8759978,7.12799936 47.3586696,7.064 46.772,7.064 C45.8546621,7.064 45.0733366,7.25333144 44.428,7.632 C43.7826634,8.01066856 43.297335,8.52799672 42.972,9.184 C42.646665,9.84000328 42.484,10.5839958 42.484,11.416 C42.484,12.2480042 42.646665,12.9919967 42.972,13.648 C43.297335,14.3040033 43.7826634,14.8213314 44.428,15.2 C45.0733366,15.5786686 45.8546621,15.768 46.772,15.768 C47.3586696,15.768 47.8759978,15.7040006 48.324,15.576 C48.7720022,15.4479994 49.2306643,15.2613346 49.7,15.016 C49.7853338,14.9733331 49.8813328,14.952 49.988,14.952 C50.180001,14.952 50.3346661,15.0106661 50.452,15.128 C50.5693339,15.2453339 50.628,15.3893325 50.628,15.56 C50.628,15.8373347 50.5106678,16.0399994 50.276,16.168 C49.7106638,16.4880016 49.1426695,16.7333325 48.572,16.904 C48.0013305,17.0746675 47.353337,17.16 46.628,17.16 Z M54.2538463,17 C54.0511786,17 53.8805136,16.9306674 53.7418463,16.792 C53.6031789,16.6533326 53.5338463,16.4826677 53.5338463,16.28 L53.5338463,6.568 C53.5338463,6.36533232 53.6031789,6.19200072 53.7418463,6.048 C53.8805136,5.90399928 54.0511786,5.832 54.2538463,5.832 L57.4698463,5.832 C58.6858523,5.832 59.717842,6.10133064 60.5658463,6.64 C61.4138505,7.17866936 62.0511775,7.8746624 62.4778463,8.728 C62.9045151,9.5813376 63.1178463,10.4773286 63.1178463,11.416 C63.1178463,12.3546714 62.9045151,13.2506624 62.4778463,14.104 C62.0511775,14.9573376 61.4138505,15.6533306 60.5658463,16.192 C59.717842,16.7306694 58.6858523,17 57.4698463,17 L54.2538463,17 Z M57.2938463,15.64 C58.1685173,15.64 58.9365096,15.4613351 59.5978463,15.104 C60.2591829,14.7466649 60.7711778,14.2506698 61.1338463,13.616 C61.4965147,12.9813302 61.6778463,12.2480042 61.6778463,11.416 C61.6778463,10.5839958 61.4965147,9.85066984 61.1338463,9.216 C60.7711778,8.58133016 60.2591829,8.08533512 59.5978463,7.728 C58.9365096,7.37066488 58.1685173,7.192 57.2938463,7.192 L54.9898463,7.192 L54.9898463,15.64 L57.2938463,15.64 Z M69.4156925,17.16 C68.2316866,17.16 67.1170311,16.9466688 66.0716925,16.52 C65.9436919,16.4666664 65.8423596,16.3893338 65.7676925,16.288 C65.6930255,16.1866662 65.6556925,16.0613341 65.6556925,15.912 C65.6556925,15.7306658 65.7170252,15.573334 65.8396925,15.44 C65.9623598,15.306666 66.1143583,15.24 66.2956925,15.24 C66.391693,15.24 66.4930253,15.2613331 66.5996925,15.304 C67.3676964,15.6133349 68.2156879,15.768 69.1436925,15.768 C69.9756967,15.768 70.677023,15.6320014 71.2476925,15.36 C71.818362,15.0879986 72.1036925,14.6320032 72.1036925,13.992 C72.1036925,12.6959935 71.0077239,12.0248567 68.8157549,11.9785714 L68.3116925,11.976 C68.1303583,11.976 67.9730265,11.909334 67.8396925,11.776 C67.7063585,11.642666 67.6396925,11.4853342 67.6396925,11.304 C67.6396925,11.1226658 67.7063585,10.965334 67.8396925,10.832 C67.9730265,10.698666 68.1303583,10.632 68.3116925,10.632 L68.4076925,10.632 C69.4743645,10.632 70.2903564,10.469335 70.8556925,10.144 C71.4210287,9.81866504 71.7036925,9.3360032 71.7036925,8.696 C71.7036925,8.18399744 71.4903613,7.77866816 71.0636925,7.48 C70.6370237,7.18133184 70.0076967,7.032 69.1756925,7.032 C68.279688,7.032 67.4530296,7.20799824 66.6956925,7.56 C66.5890253,7.60266688 66.4930263,7.624 66.4076925,7.624 C66.2476917,7.624 66.1090264,7.56800056 65.9916925,7.456 C65.8743586,7.34399944 65.8156925,7.20266752 65.8156925,7.032 C65.8156925,6.78666544 65.9223581,6.60533392 66.1356925,6.488 C67.1596976,5.94399728 68.2156871,5.672 69.3036925,5.672 C70.5303653,5.672 71.4796892,5.92266416 72.1516925,6.424 C72.8236959,6.92533584 73.1596925,7.63466208 73.1596925,8.552 C73.1596925,9.28800368 72.9756944,9.86666456 72.6076925,10.288 C72.2396907,10.7093354 71.778362,11.0213323 71.2236925,11.224 C71.8316956,11.3626674 72.3730235,11.6533311 72.8476925,12.096 C73.3223616,12.5386689 73.5596925,13.197329 73.5596925,14.072 C73.5596925,15.0533382 73.1730297,15.8133306 72.3996925,16.352 C71.6263553,16.8906694 70.6316986,17.16 69.4156925,17.16 Z" id="VLCD3" fill="#3F041D" fill-rule="nonzero"></path>
                </g>
                <g id="Group-4" transform="translate(157.120000, 31.760000)">
                    <rect id="Rectangle" fill="url(#linearGradient-5)" x="0" y="0" width="69" height="24" rx="2"></rect>
                    <path d="M12.0713843,17.08 C11.8687166,17.08 11.6980516,17.0106674 11.5593843,16.872 C11.4207169,16.7333326 11.3513843,16.5626677 11.3513843,16.36 L11.3513843,14.184 L6.47138426,14.184 C6.21538298,14.184 5.9967185,14.0960009 5.81538426,13.92 C5.63405002,13.7439991 5.54338426,13.5280013 5.54338426,13.272 L5.54338426,13.128 C5.54338426,12.9039989 5.60738362,12.7120008 5.73538426,12.552 L10.7593843,6.136 C10.844718,6.01866608 10.9593835,5.92533368 11.1033843,5.856 C11.247385,5.78666632 11.3993835,5.752 11.5593843,5.752 L11.8793843,5.752 C12.156719,5.752 12.3807167,5.83999912 12.5513843,6.016 C12.7220518,6.19200088 12.8073843,6.413332 12.8073843,6.68 L12.8073843,12.888 L14.0233843,12.888 C14.2047185,12.888 14.3593836,12.9519994 14.4873843,13.08 C14.6153849,13.2080006 14.6793843,13.3626658 14.6793843,13.544 C14.6793843,13.7253342 14.6153849,13.8773327 14.4873843,14 C14.3593836,14.1226673 14.2047185,14.184 14.0233843,14.184 L12.8073843,14.184 L12.8073843,16.36 C12.8073843,16.5626677 12.735385,16.7333326 12.5913843,16.872 C12.4473835,17.0106674 12.2740519,17.08 12.0713843,17.08 Z M7.09538426,12.888 L11.3513843,12.888 L11.3513843,7.4 L7.09538426,12.888 Z M17.4092305,17.08 C17.1958961,17.08 17.0278978,17.013334 16.9052305,16.88 C16.7825632,16.746666 16.7212305,16.5680011 16.7212305,16.344 C16.7212305,16.1839992 16.7745633,16.0346674 16.8812305,15.896 L19.3612305,12.968 L16.8812305,9.944 C16.7638966,9.79466592 16.7052305,9.6400008 16.7052305,9.48 C16.7052305,9.2666656 16.7745632,9.093334 16.9132305,8.96 C17.0518979,8.826666 17.2225628,8.76 17.4252305,8.76 C17.6812318,8.76 17.8732299,8.85066576 18.0012305,9.032 L20.2412305,11.8 L22.4652305,9.032 C22.5932312,8.85066576 22.779896,8.76 23.0252305,8.76 C23.2385649,8.76 23.4145632,8.826666 23.5532305,8.96 C23.6918979,9.093334 23.7612305,9.25599904 23.7612305,9.448 C23.7612305,9.6080008 23.7078977,9.75733264 23.6012305,9.896 L21.0732305,12.872 L23.5692305,15.88 C23.6865644,16.0080006 23.7452305,16.1626658 23.7452305,16.344 C23.7452305,16.5466677 23.6812312,16.7199993 23.5532305,16.864 C23.4252299,17.0080007 23.2438984,17.08 23.0092305,17.08 C22.813674,17.08 22.6514529,17.013334 22.522564,16.8800003 L20.1772305,14.072 L18.0332305,16.76 C17.8732297,16.9733344 17.6652318,17.08 17.4092305,17.08 Z M27.3710768,19.112 C27.1790758,19.112 27.0137441,19.0426674 26.8750768,18.904 C26.7364094,18.7653326 26.6670768,18.600001 26.6670768,18.408 L26.6670768,5.992 C26.6670768,5.79999904 26.7364094,5.63466736 26.8750768,5.496 C27.0137441,5.35733264 27.1790758,5.288 27.3710768,5.288 L29.4030768,5.288 C29.5630776,5.288 29.6990762,5.34399944 29.8110768,5.456 C29.9230773,5.56800056 29.9790768,5.7039992 29.9790768,5.864 C29.9790768,6.0240008 29.9230773,6.15999944 29.8110768,6.272 C29.6990762,6.38400056 29.5630776,6.44 29.4030768,6.44 L27.9310768,6.44 L27.9310768,17.976 L29.4030768,17.976 C29.5630776,17.976 29.6990762,18.0319994 29.8110768,18.144 C29.9230773,18.2560006 29.9790768,18.3866659 29.9790768,18.536 C29.9790768,18.6853341 29.9230773,18.8186661 29.8110768,18.936 C29.6990762,19.0533339 29.5630776,19.112 29.4030768,19.112 L27.3710768,19.112 Z M37.364923,17.16 C36.2662509,17.16 35.2902606,16.9173358 34.436923,16.432 C33.5835854,15.9466642 32.9222587,15.2693377 32.452923,14.4 C31.9835874,13.5306623 31.748923,12.5413389 31.748923,11.432 C31.748923,10.3013277 31.9942539,9.29867104 32.484923,8.424 C32.9755922,7.54932896 33.6449188,6.8720024 34.492923,6.392 C35.3409273,5.9119976 36.2822512,5.672 37.316923,5.672 C38.1489272,5.672 38.8769199,5.77333232 39.500923,5.976 C40.0001255,6.13813414 40.4839622,6.35146583 40.9524422,6.6159994 L41.300923,6.824 C41.3862568,6.86666688 41.4609227,6.9413328 41.524923,7.048 C41.5889234,7.1546672 41.620923,7.27199936 41.620923,7.4 C41.620923,7.58133424 41.5595903,7.73599936 41.436923,7.864 C41.3142558,7.99200064 41.1515907,8.056 40.948923,8.056 C40.8315891,8.056 40.7195902,8.0293336 40.612923,7.976 C40.1115872,7.67733184 39.6102589,7.45333408 39.108923,7.304 C38.6075872,7.15466592 38.0635926,7.08 37.476923,7.08 C36.6662523,7.08 35.935593,7.25066496 35.284923,7.592 C34.6342531,7.93333504 34.1249249,8.43199672 33.756923,9.088 C33.3889212,9.74400328 33.204923,10.5253288 33.204923,11.432 C33.204923,12.2640042 33.3782546,13.0079967 33.724923,13.664 C34.0715914,14.3200033 34.5729198,14.8373314 35.228923,15.216 C35.8849263,15.5946686 36.6609186,15.784 37.556923,15.784 C38.5595947,15.784 39.4929187,15.5493357 40.356923,15.08 L40.356923,12.184 L37.716923,12.184 C37.5355888,12.184 37.3809237,12.1200006 37.252923,11.992 C37.1249224,11.8639994 37.060923,11.7093342 37.060923,11.528 C37.060923,11.3466658 37.1249224,11.1920006 37.252923,11.064 C37.3809237,10.9359994 37.5355888,10.872 37.716923,10.872 L40.868923,10.872 C41.0822574,10.872 41.263589,10.9466659 41.412923,11.096 C41.5622571,11.2453341 41.636923,11.4266656 41.636923,11.64 L41.636923,15.272 C41.636923,15.4960011 41.5809236,15.6959991 41.468923,15.872 C41.3569225,16.0480009 41.2102573,16.1786662 41.028923,16.264 C39.8342504,16.8613363 38.6129293,17.16 37.364923,17.16 Z M48.0247693,17.05 C47.898102,17.05 47.7914364,17.0066671 47.7047693,16.92 C47.6181022,16.8333329 47.5747693,16.7266673 47.5747693,16.6 L47.5747693,15.24 L44.5247693,15.24 C44.3647685,15.24 44.2281032,15.1850006 44.1147693,15.075 C44.0014354,14.9649995 43.9447693,14.8300008 43.9447693,14.67 L43.9447693,14.58 C43.9447693,14.4399993 43.9847689,14.3200005 44.0647693,14.22 L47.2047693,10.21 C47.2581029,10.1366663 47.3297689,10.0783335 47.4197693,10.035 C47.5097698,9.99166645 47.6047688,9.97 47.7047693,9.97 L47.9047693,9.97 C48.0781035,9.97 48.2181021,10.0249994 48.3247693,10.135 C48.4314365,10.2450006 48.4847693,10.3833325 48.4847693,10.55 L48.4847693,14.43 L49.2447693,14.43 C49.3581032,14.43 49.4547689,14.47 49.5347693,14.55 C49.6147697,14.6300004 49.6547693,14.7266661 49.6547693,14.84 C49.6547693,14.9533339 49.6147697,15.048333 49.5347693,15.125 C49.4547689,15.2016671 49.3581032,15.24 49.2447693,15.24 L48.4847693,15.24 L48.4847693,16.6 C48.4847693,16.7266673 48.4397698,16.8333329 48.3497693,16.92 C48.2597689,17.0066671 48.1514366,17.05 48.0247693,17.05 Z M44.9147693,14.43 L47.5747693,14.43 L47.5747693,11 L44.9147693,14.43 Z M55.4929232,17.16 C54.1382498,17.16 52.8689291,16.9040026 51.6849232,16.392 C51.5569226,16.3386664 51.450257,16.2506673 51.3649232,16.128 C51.2795895,16.0053327 51.2369232,15.8746674 51.2369232,15.736 C51.2369232,15.5546658 51.2982559,15.397334 51.4209232,15.264 C51.5435905,15.130666 51.7009223,15.064 51.8929232,15.064 C51.9995904,15.064 52.1009227,15.0853331 52.1969232,15.128 C53.1782615,15.5653355 54.2289176,15.784 55.3489232,15.784 C57.2155992,15.784 58.1489232,15.1706728 58.1489232,13.944 C58.1489232,13.6239984 58.0289244,13.3573344 57.7889232,13.144 C57.548922,12.9306656 57.252925,12.7626673 56.9009232,12.64 C56.5929217,12.5326661 56.170592,12.4069589 55.6339241,12.2628752 L55.3969232,12.2 C54.5329189,11.9759989 53.8342592,11.760001 53.3009232,11.552 C52.7675872,11.343999 52.3089251,11.0320021 51.9249232,10.616 C51.5409213,10.1999979 51.3489232,9.6453368 51.3489232,8.952 C51.3489232,8.34399696 51.5089216,7.79200248 51.8289232,7.296 C52.1489248,6.79999752 52.6209201,6.4053348 53.2449232,6.112 C53.8689263,5.8186652 54.6182522,5.672 55.4929232,5.672 C56.6662624,5.672 57.7275851,5.84799824 58.6769232,6.2 C58.9755914,6.3066672 59.1249232,6.5199984 59.1249232,6.84 C59.1249232,7.01066752 59.0662571,7.16533264 58.9489232,7.304 C58.8315893,7.44266736 58.6769242,7.512 58.4849232,7.512 C58.4209229,7.512 58.3355904,7.49066688 58.2289232,7.448 C57.3969191,7.15999856 56.538261,7.016 55.6529232,7.016 C54.8102523,7.016 54.1249259,7.1759984 53.5969232,7.496 C53.0689206,7.8160016 52.8049232,8.26399712 52.8049232,8.84 C52.8049232,9.22400192 52.9302553,9.5359988 53.1809232,9.776 C53.4315911,10.0160012 53.7462547,10.202666 54.1249232,10.336 C54.4494963,10.4502863 54.8739825,10.5704486 55.3983917,10.6964896 L55.6689232,10.76 C56.5115941,10.9626677 57.1915873,11.1653323 57.7089232,11.368 C58.2262591,11.5706677 58.6689214,11.8853312 59.0369232,12.312 C59.4049251,12.7386688 59.5889232,13.314663 59.5889232,14.04 C59.5889232,14.6373363 59.4182583,15.173331 59.0769232,15.648 C58.7355882,16.122669 58.255593,16.493332 57.6369232,16.76 C57.0182535,17.026668 56.3035939,17.16 55.4929232,17.16 Z M62.0147695,19.112 C61.8547687,19.112 61.71877,19.0533339 61.6067695,18.936 C61.4947689,18.8186661 61.4387695,18.6853341 61.4387695,18.536 C61.4387695,18.3866659 61.4947689,18.2560006 61.6067695,18.144 C61.71877,18.0319994 61.8547687,17.976 62.0147695,17.976 L63.4867695,17.976 L63.4867695,6.44 L62.0147695,6.44 C61.8547687,6.44 61.71877,6.38400056 61.6067695,6.272 C61.4947689,6.15999944 61.4387695,6.0240008 61.4387695,5.864 C61.4387695,5.7039992 61.4947689,5.56800056 61.6067695,5.456 C61.71877,5.34399944 61.8547687,5.288 62.0147695,5.288 L64.0467695,5.288 C64.2387704,5.288 64.4041021,5.35733264 64.5427695,5.496 C64.6814368,5.63466736 64.7507695,5.79999904 64.7507695,5.992 L64.7507695,18.408 C64.7507695,18.600001 64.6814368,18.7653326 64.5427695,18.904 C64.4041021,19.0426674 64.2387704,19.112 64.0467695,19.112 L62.0147695,19.112 Z" id="4x[G4S]" fill="#3F041D" fill-rule="nonzero"></path>
                </g>
                <g id="Group-4" transform="translate(318.120000, 31.760000)">
                    <rect id="Rectangle" fill="url(#linearGradient-6)" x="0" y="0" width="52" height="24" rx="2"></rect>
                    <path d="M7.30523052,19.112 C7.11322956,19.112 6.94789788,19.0426674 6.80923052,18.904 C6.67056316,18.7653326 6.60123052,18.600001 6.60123052,18.408 L6.60123052,5.992 C6.60123052,5.79999904 6.67056316,5.63466736 6.80923052,5.496 C6.94789788,5.35733264 7.11322956,5.288 7.30523052,5.288 L9.33723052,5.288 C9.49723132,5.288 9.63322996,5.34399944 9.74523052,5.456 C9.85723108,5.56800056 9.91323052,5.7039992 9.91323052,5.864 C9.91323052,6.0240008 9.85723108,6.15999944 9.74523052,6.272 C9.63322996,6.38400056 9.49723132,6.44 9.33723052,6.44 L7.86523052,6.44 L7.86523052,17.976 L9.33723052,17.976 C9.49723132,17.976 9.63322996,18.0319994 9.74523052,18.144 C9.85723108,18.2560006 9.91323052,18.3866659 9.91323052,18.536 C9.91323052,18.6853341 9.85723108,18.8186661 9.74523052,18.936 C9.63322996,19.0533339 9.49723132,19.112 9.33723052,19.112 L7.30523052,19.112 Z M17.2990768,17.16 C16.2004046,17.16 15.2244144,16.9173358 14.3710768,16.432 C13.5177392,15.9466642 12.8564125,15.2693377 12.3870768,14.4 C11.9177411,13.5306623 11.6830768,12.5413389 11.6830768,11.432 C11.6830768,10.3013277 11.9284077,9.29867104 12.4190768,8.424 C12.9097459,7.54932896 13.5790725,6.8720024 14.4270768,6.392 C15.275081,5.9119976 16.2164049,5.672 17.2510768,5.672 C18.0830809,5.672 18.8110737,5.77333232 19.4350768,5.976 C19.9342793,6.13813414 20.4181159,6.35146583 20.886596,6.6159994 L21.2350768,6.824 C21.3204105,6.86666688 21.3950765,6.9413328 21.4590768,7.048 C21.5230771,7.1546672 21.5550768,7.27199936 21.5550768,7.4 C21.5550768,7.58133424 21.4937441,7.73599936 21.3710768,7.864 C21.2484095,7.99200064 21.0857445,8.056 20.8830768,8.056 C20.7657429,8.056 20.653744,8.0293336 20.5470768,7.976 C20.0457409,7.67733184 19.5444126,7.45333408 19.0430768,7.304 C18.5417409,7.15466592 17.9977464,7.08 17.4110768,7.08 C16.6004061,7.08 15.8697467,7.25066496 15.2190768,7.592 C14.5684069,7.93333504 14.0590786,8.43199672 13.6910768,9.088 C13.3230749,9.74400328 13.1390768,10.5253288 13.1390768,11.432 C13.1390768,12.2640042 13.3124084,13.0079967 13.6590768,13.664 C14.0057452,14.3200033 14.5070735,14.8373314 15.1630768,15.216 C15.8190801,15.5946686 16.5950723,15.784 17.4910768,15.784 C18.4937485,15.784 19.4270725,15.5493357 20.2910768,15.08 L20.2910768,12.184 L17.6510768,12.184 C17.4697425,12.184 17.3150774,12.1200006 17.1870768,11.992 C17.0590761,11.8639994 16.9950768,11.7093342 16.9950768,11.528 C16.9950768,11.3466658 17.0590761,11.1920006 17.1870768,11.064 C17.3150774,10.9359994 17.4697425,10.872 17.6510768,10.872 L20.8030768,10.872 C21.0164112,10.872 21.1977427,10.9466659 21.3470768,11.096 C21.4964109,11.2453341 21.5710768,11.4266656 21.5710768,11.64 L21.5710768,15.272 C21.5710768,15.4960011 21.5150773,15.6959991 21.4030768,15.872 C21.2910762,16.0480009 21.144411,16.1786662 20.9630768,16.264 C19.7684041,16.8613363 18.547083,17.16 17.2990768,17.16 Z M27.958923,17.05 C27.8322557,17.05 27.7255901,17.0066671 27.638923,16.92 C27.5522559,16.8333329 27.508923,16.7266673 27.508923,16.6 L27.508923,15.24 L24.458923,15.24 C24.2989222,15.24 24.1622569,15.1850006 24.048923,15.075 C23.9355891,14.9649995 23.878923,14.8300008 23.878923,14.67 L23.878923,14.58 C23.878923,14.4399993 23.9189226,14.3200005 23.998923,14.22 L27.138923,10.21 C27.1922566,10.1366663 27.2639226,10.0783335 27.353923,10.035 C27.4439235,9.99166645 27.5389225,9.97 27.638923,9.97 L27.838923,9.97 C28.0122572,9.97 28.1522558,10.0249994 28.258923,10.135 C28.3655902,10.2450006 28.418923,10.3833325 28.418923,10.55 L28.418923,14.43 L29.178923,14.43 C29.2922569,14.43 29.3889226,14.47 29.468923,14.55 C29.5489234,14.6300004 29.588923,14.7266661 29.588923,14.84 C29.588923,14.9533339 29.5489234,15.048333 29.468923,15.125 C29.3889226,15.2016671 29.2922569,15.24 29.178923,15.24 L28.418923,15.24 L28.418923,16.6 C28.418923,16.7266673 28.3739235,16.8333329 28.283923,16.92 C28.1939226,17.0066671 28.0855903,17.05 27.958923,17.05 Z M24.848923,14.43 L27.508923,14.43 L27.508923,11 L24.848923,14.43 Z M35.427077,17.16 C34.0724035,17.16 32.8030829,16.9040026 31.619077,16.392 C31.4910763,16.3386664 31.3844107,16.2506673 31.299077,16.128 C31.2137432,16.0053327 31.171077,15.8746674 31.171077,15.736 C31.171077,15.5546658 31.2324097,15.397334 31.355077,15.264 C31.4777442,15.130666 31.635076,15.064 31.827077,15.064 C31.9337442,15.064 32.0350765,15.0853331 32.131077,15.128 C33.1124152,15.5653355 34.1630714,15.784 35.283077,15.784 C37.149753,15.784 38.083077,15.1706728 38.083077,13.944 C38.083077,13.6239984 37.9630782,13.3573344 37.723077,13.144 C37.4830758,12.9306656 37.1870787,12.7626673 36.835077,12.64 C36.5270754,12.5326661 36.1047457,12.4069589 35.5680778,12.2628752 L35.331077,12.2 C34.4670726,11.9759989 33.768413,11.760001 33.235077,11.552 C32.701741,11.343999 32.2430789,11.0320021 31.859077,10.616 C31.475075,10.1999979 31.283077,9.6453368 31.283077,8.952 C31.283077,8.34399696 31.4430754,7.79200248 31.763077,7.296 C32.0830786,6.79999752 32.5550738,6.4053348 33.179077,6.112 C33.8030801,5.8186652 34.5524059,5.672 35.427077,5.672 C36.6004162,5.672 37.6617389,5.84799824 38.611077,6.2 C38.9097451,6.3066672 39.059077,6.5199984 39.059077,6.84 C39.059077,7.01066752 39.0004109,7.16533264 38.883077,7.304 C38.765743,7.44266736 38.6110779,7.512 38.419077,7.512 C38.3550766,7.512 38.2697442,7.49066688 38.163077,7.448 C37.3310728,7.15999856 36.4724147,7.016 35.587077,7.016 C34.7444061,7.016 34.0590796,7.1759984 33.531077,7.496 C33.0030743,7.8160016 32.739077,8.26399712 32.739077,8.84 C32.739077,9.22400192 32.864409,9.5359988 33.115077,9.776 C33.3657449,10.0160012 33.6804084,10.202666 34.059077,10.336 C34.4377455,10.469334 34.952407,10.6106659 35.603077,10.76 C36.4457478,10.9626677 37.125741,11.1653323 37.643077,11.368 C38.1604129,11.5706677 38.6030751,11.8853312 38.971077,12.312 C39.3390788,12.7386688 39.523077,13.314663 39.523077,14.04 C39.523077,14.6373363 39.352412,15.173331 39.011077,15.648 C38.6697419,16.122669 38.1897467,16.493332 37.571077,16.76 C36.9524072,17.026668 36.2377477,17.16 35.427077,17.16 Z M41.9489232,19.112 C41.7889224,19.112 41.6529238,19.0533339 41.5409232,18.936 C41.4289227,18.8186661 41.3729232,18.6853341 41.3729232,18.536 C41.3729232,18.3866659 41.4289227,18.2560006 41.5409232,18.144 C41.6529238,18.0319994 41.7889224,17.976 41.9489232,17.976 L43.4209232,17.976 L43.4209232,6.44 L41.9489232,6.44 C41.7889224,6.44 41.6529238,6.38400056 41.5409232,6.272 C41.4289227,6.15999944 41.3729232,6.0240008 41.3729232,5.864 C41.3729232,5.7039992 41.4289227,5.56800056 41.5409232,5.456 C41.6529238,5.34399944 41.7889224,5.288 41.9489232,5.288 L43.9809232,5.288 C44.1729242,5.288 44.3382559,5.35733264 44.4769232,5.496 C44.6155906,5.63466736 44.6849232,5.79999904 44.6849232,5.992 L44.6849232,18.408 C44.6849232,18.600001 44.6155906,18.7653326 44.4769232,18.904 C44.3382559,19.0426674 44.1729242,19.112 43.9809232,19.112 L41.9489232,19.112 Z" id="[G4S]" fill="#3F041D" fill-rule="nonzero"></path>
                </g>
                <g id="Group-5" transform="translate(228.120000, 31.760000)">
                    <rect id="Rectangle" fill="url(#linearGradient-7)" x="0" y="0" width="88" height="24" rx="2"></rect>
                    <path d="M17.4704612,17.08 C17.0331257,17.08 16.7024623,16.8346691 16.4784612,16.344 L12.5264612,6.76 C12.4944611,6.67466624 12.4784612,6.58400048 12.4784612,6.488 C12.4784612,6.26399888 12.5424606,6.085334 12.6704612,5.952 C12.7984619,5.818666 12.9744601,5.752 13.1984612,5.752 C13.3477953,5.752 13.4837939,5.79733288 13.6064612,5.888 C13.7291285,5.97866712 13.8224609,6.09866592 13.8864612,6.248 L17.6464612,15.624 L21.4064612,6.248 C21.4704615,6.09866592 21.5637939,5.97866712 21.6864612,5.888 C21.8091285,5.79733288 21.9451271,5.752 22.0944612,5.752 C22.3184623,5.752 22.4944606,5.818666 22.6224612,5.952 C22.7504619,6.085334 22.8144612,6.26399888 22.8144612,6.488 C22.8144612,6.58400048 22.7984614,6.67466624 22.7664612,6.76 L18.8144612,16.344 C18.5904601,16.8346691 18.2597967,17.08 17.8224612,17.08 L17.4704612,17.08 Z M26.1843075,17.08 C25.9816398,17.08 25.8109748,17.0106674 25.6723075,16.872 C25.5336401,16.7333326 25.4643075,16.5626677 25.4643075,16.36 L25.4643075,6.488 C25.4643075,6.28533232 25.5336401,6.11200072 25.6723075,5.968 C25.8109748,5.82399928 25.9816398,5.752 26.1843075,5.752 C26.3869752,5.752 26.5603068,5.82399928 26.7043075,5.968 C26.8483082,6.11200072 26.9203075,6.28533232 26.9203075,6.488 L26.9203075,10.744 L32.9843075,10.744 L32.9843075,6.488 C32.9843075,6.28533232 33.0536401,6.11200072 33.1923075,5.968 C33.3309748,5.82399928 33.5016398,5.752 33.7043075,5.752 C33.9069752,5.752 34.0803068,5.82399928 34.2243075,5.968 C34.3683082,6.11200072 34.4403075,6.28533232 34.4403075,6.488 L34.4403075,16.36 C34.4403075,16.5626677 34.3683082,16.7333326 34.2243075,16.872 C34.0803068,17.0106674 33.9069752,17.08 33.7043075,17.08 C33.5016398,17.08 33.3309748,17.0106674 33.1923075,16.872 C33.0536401,16.7333326 32.9843075,16.5626677 32.9843075,16.36 L32.9843075,12.104 L26.9203075,12.104 L26.9203075,16.36 C26.9203075,16.5626677 26.8483082,16.7333326 26.7043075,16.872 C26.5603068,17.0106674 26.3869752,17.08 26.1843075,17.08 Z M48.06,17.16 C46.993328,17.16 46.0360042,16.9280023 45.188,16.464 C44.3399958,15.9999977 43.6733358,15.3333377 43.188,14.464 C42.7026642,13.5946623 42.46,12.5786725 42.46,11.416 C42.46,10.2533275 42.7026642,9.23733768 43.188,8.368 C43.6733358,7.49866232 44.3399958,6.83200232 45.188,6.368 C46.0360042,5.90399768 46.993328,5.672 48.06,5.672 C48.785337,5.672 49.4333305,5.75733248 50.004,5.928 C50.5746695,6.09866752 51.1426638,6.3439984 51.708,6.664 C51.9426678,6.79200064 52.06,6.99466528 52.06,7.272 C52.06,7.4320008 52.0013339,7.57333272 51.884,7.696 C51.7666661,7.81866728 51.612001,7.88 51.42,7.88 C51.3133328,7.88 51.2173338,7.85866688 51.132,7.816 C50.6626643,7.57066544 50.2040022,7.38400064 49.756,7.256 C49.3079978,7.12799936 48.7906696,7.064 48.204,7.064 C47.2866621,7.064 46.5053366,7.25333144 45.86,7.632 C45.2146634,8.01066856 44.729335,8.52799672 44.404,9.184 C44.078665,9.84000328 43.916,10.5839958 43.916,11.416 C43.916,12.2480042 44.078665,12.9919967 44.404,13.648 C44.729335,14.3040033 45.2146634,14.8213314 45.86,15.2 C46.5053366,15.5786686 47.2866621,15.768 48.204,15.768 C48.7906696,15.768 49.3079978,15.7040006 49.756,15.576 C50.2040022,15.4479994 50.6626643,15.2613346 51.132,15.016 C51.2173338,14.9733331 51.3133328,14.952 51.42,14.952 C51.612001,14.952 51.7666661,15.0106661 51.884,15.128 C52.0013339,15.2453339 52.06,15.3893325 52.06,15.56 C52.06,15.8373347 51.9426678,16.0399994 51.708,16.168 C51.1426638,16.4880016 50.5746695,16.7333325 50.004,16.904 C49.4333305,17.0746675 48.785337,17.16 48.06,17.16 Z M55.6858463,17 C55.4831786,17 55.3125136,16.9306674 55.1738463,16.792 C55.0351789,16.6533326 54.9658463,16.4826677 54.9658463,16.28 L54.9658463,6.568 C54.9658463,6.36533232 55.0351789,6.19200072 55.1738463,6.048 C55.3125136,5.90399928 55.4831786,5.832 55.6858463,5.832 L58.9018463,5.832 C60.1178523,5.832 61.149842,6.10133064 61.9978463,6.64 C62.8458505,7.17866936 63.4831775,7.8746624 63.9098463,8.728 C64.3365151,9.5813376 64.5498463,10.4773286 64.5498463,11.416 C64.5498463,12.3546714 64.3365151,13.2506624 63.9098463,14.104 C63.4831775,14.9573376 62.8458505,15.6533306 61.9978463,16.192 C61.149842,16.7306694 60.1178523,17 58.9018463,17 L55.6858463,17 Z M58.7258463,15.64 C59.6005173,15.64 60.3685096,15.4613351 61.0298463,15.104 C61.6911829,14.7466649 62.2031778,14.2506698 62.5658463,13.616 C62.9285147,12.9813302 63.1098463,12.2480042 63.1098463,11.416 C63.1098463,10.5839958 62.9285147,9.85066984 62.5658463,9.216 C62.2031778,8.58133016 61.6911829,8.08533512 61.0298463,7.728 C60.3685096,7.37066488 59.6005173,7.192 58.7258463,7.192 L56.4218463,7.192 L56.4218463,15.64 L58.7258463,15.64 Z M70.8476925,17.16 C69.6636866,17.16 68.5490311,16.9466688 67.5036925,16.52 C67.3756919,16.4666664 67.2743596,16.3893338 67.1996925,16.288 C67.1250255,16.1866662 67.0876925,16.0613341 67.0876925,15.912 C67.0876925,15.7306658 67.1490252,15.573334 67.2716925,15.44 C67.3943598,15.306666 67.5463583,15.24 67.7276925,15.24 C67.823693,15.24 67.9250253,15.2613331 68.0316925,15.304 C68.7996964,15.6133349 69.6476879,15.768 70.5756925,15.768 C71.4076967,15.768 72.109023,15.6320014 72.6796925,15.36 C73.250362,15.0879986 73.5356925,14.6320032 73.5356925,13.992 C73.5356925,12.6959935 72.4397239,12.0248567 70.2477549,11.9785714 L69.7436925,11.976 C69.5623583,11.976 69.4050265,11.909334 69.2716925,11.776 C69.1383585,11.642666 69.0716925,11.4853342 69.0716925,11.304 C69.0716925,11.1226658 69.1383585,10.965334 69.2716925,10.832 C69.4050265,10.698666 69.5623583,10.632 69.7436925,10.632 L69.8396925,10.632 C70.9063645,10.632 71.7223564,10.469335 72.2876925,10.144 C72.8530287,9.81866504 73.1356925,9.3360032 73.1356925,8.696 C73.1356925,8.18399744 72.9223613,7.77866816 72.4956925,7.48 C72.0690237,7.18133184 71.4396967,7.032 70.6076925,7.032 C69.711688,7.032 68.8850296,7.20799824 68.1276925,7.56 C68.0210253,7.60266688 67.9250263,7.624 67.8396925,7.624 C67.6796917,7.624 67.5410264,7.56800056 67.4236925,7.456 C67.3063586,7.34399944 67.2476925,7.20266752 67.2476925,7.032 C67.2476925,6.78666544 67.3543581,6.60533392 67.5676925,6.488 C68.5916976,5.94399728 69.6476871,5.672 70.7356925,5.672 C71.9623653,5.672 72.9116892,5.92266416 73.5836925,6.424 C74.2556959,6.92533584 74.5916925,7.63466208 74.5916925,8.552 C74.5916925,9.28800368 74.4076944,9.86666456 74.0396925,10.288 C73.6716907,10.7093354 73.210362,11.0213323 72.6556925,11.224 C73.2636956,11.3626674 73.8050235,11.6533311 74.2796925,12.096 C74.7543616,12.5386689 74.9916925,13.197329 74.9916925,14.072 C74.9916925,15.0533382 74.6050297,15.8133306 73.8316925,16.352 C73.0583553,16.8906694 72.0636986,17.16 70.8476925,17.16 Z" id="VHCD3" fill="#3F041D" fill-rule="nonzero"></path>
                </g>
                <path d="M398.969739,49.94 C397.445731,49.94 396.017745,49.6520029 394.685739,49.076 C394.541738,49.016 394.421739,48.9170007 394.325739,48.779 C394.229738,48.6409993 394.181739,48.4940008 394.181739,48.338 C394.181739,48.133999 394.250738,47.9570008 394.388739,47.807 C394.526739,47.6569993 394.703738,47.582 394.919739,47.582 C395.039739,47.582 395.153738,47.6059998 395.261739,47.654 C396.365744,48.1460025 397.547732,48.392 398.807739,48.392 C400.907749,48.392 401.957739,47.7020069 401.957739,46.322 C401.957739,45.9619982 401.82274,45.6620012 401.552739,45.422 C401.282737,45.1819988 400.949741,44.9930007 400.553739,44.855 C400.207237,44.7342494 399.732116,44.5928287 399.128365,44.4307346 L398.861739,44.36 C397.889734,44.1079987 397.103742,43.8650012 396.503739,43.631 C395.903736,43.3969988 395.387741,43.0460023 394.955739,42.578 C394.523737,42.1099977 394.307739,41.4860039 394.307739,40.706 C394.307739,40.0219966 394.487737,39.4010028 394.847739,38.843 C395.20774,38.2849972 395.738735,37.8410017 396.440739,37.511 C397.142742,37.1809984 397.985734,37.016 398.969739,37.016 C400.289745,37.016 401.483733,37.213998 402.551739,37.61 C402.88774,37.7300006 403.055739,37.9699982 403.055739,38.33 C403.055739,38.522001 402.989739,38.6959992 402.857739,38.852 C402.725738,39.0080008 402.55174,39.086 402.335739,39.086 C402.263738,39.086 402.167739,39.0620002 402.047739,39.014 C401.111734,38.6899984 400.145744,38.528 399.149739,38.528 C398.201734,38.528 397.430742,38.7079982 396.836739,39.068 C396.242736,39.4280018 395.945739,39.9319968 395.945739,40.58 C395.945739,41.0120022 396.086737,41.3629987 396.368739,41.633 C396.65074,41.9030014 397.004737,42.1129993 397.430739,42.263 L397.778927,42.3771877 C398.092989,42.4737501 398.466815,42.5738277 398.90041,42.6774217 L399.167739,42.74 C400.115743,42.9680011 400.880736,43.1959989 401.462739,43.424 C402.044742,43.6520011 402.542737,44.0059976 402.956739,44.486 C403.370741,44.9660024 403.577739,45.6139959 403.577739,46.43 C403.577739,47.1020034 403.385741,47.7049973 403.001739,48.239 C402.617737,48.7730027 402.077742,49.1899985 401.381739,49.49 C400.685735,49.7900015 399.881743,49.94 398.969739,49.94 Z M407.065826,53.99 C406.837825,53.99 406.645827,53.9090008 406.489826,53.747 C406.333825,53.5849992 406.255826,53.3900011 406.255826,53.162 L406.255826,41.3 C406.255826,41.0719989 406.333825,40.8800008 406.489826,40.724 C406.645827,40.5679992 406.837825,40.49 407.065826,40.49 C407.293827,40.49 407.488825,40.5679992 407.650826,40.724 C407.812827,40.8800008 407.893826,41.0719989 407.893826,41.3 L407.893826,41.768 C408.76983,40.8559954 409.79582,40.4 410.971826,40.4 C411.71583,40.4 412.420822,40.5889981 413.086826,40.967 C413.752829,41.3450019 414.292824,41.8969964 414.706826,42.623 C415.120828,43.3490036 415.327826,44.1979951 415.327826,45.17 C415.327826,46.1420049 415.120828,46.9909964 414.706826,47.717 C414.292824,48.4430036 413.752829,48.9949981 413.086826,49.373 C412.420822,49.7510019 411.71583,49.94 410.971826,49.94 C409.79582,49.94 408.76983,49.4840046 407.893826,48.572 L407.893826,53.162 C407.893826,53.4020012 407.815827,53.5999992 407.659826,53.756 C407.503825,53.9120008 407.305827,53.99 407.065826,53.99 Z M410.737826,48.41 C411.62583,48.41 412.339823,48.1280028 412.879826,47.564 C413.419828,46.9999972 413.689826,46.2020052 413.689826,45.17 C413.689826,44.1379948 413.419828,43.3400028 412.879826,42.776 C412.339823,42.2119972 411.62583,41.93 410.737826,41.93 C410.185823,41.93 409.666828,42.0529988 409.180826,42.299 C408.694823,42.5450012 408.265828,42.871998 407.893826,43.28 L407.893826,47.06 C408.265828,47.468002 408.694823,47.7949988 409.180826,48.041 C409.666828,48.2870012 410.185823,48.41 410.737826,48.41 Z M420.165913,53.99 C419.949912,53.99 419.766914,53.9120008 419.616913,53.756 C419.466912,53.5999992 419.391913,53.4140011 419.391913,53.198 C419.391913,53.1019995 419.409913,53.0060005 419.445913,52.91 L420.615913,49.904 L417.231913,41.66 C417.183913,41.5399994 417.159913,41.4260005 417.159913,41.318 C417.159913,41.0899989 417.237912,40.8950008 417.393913,40.733 C417.549914,40.5709992 417.741912,40.49 417.969913,40.49 C418.137914,40.49 418.290912,40.5379995 418.428913,40.634 C418.566914,40.7300005 418.665913,40.8499993 418.725913,40.994 L421.497913,47.87 L424.323913,41.03 C424.479914,40.6699982 424.731911,40.49 425.079913,40.49 C425.307914,40.49 425.499912,40.5709992 425.655913,40.733 C425.811914,40.8950008 425.889913,41.0899989 425.889913,41.318 C425.889913,41.4260005 425.871913,41.5279995 425.835913,41.624 L420.921913,53.432 C420.753912,53.8040019 420.501915,53.99 420.165913,53.99 Z M431.574,49.85 C431.345999,49.85 431.154001,49.7720008 430.998,49.616 C430.841999,49.4599992 430.764,49.2680011 430.764,49.04 L430.764,38.726 L427.092,38.726 C426.875999,38.726 426.696001,38.6540007 426.552,38.51 C426.407999,38.3659993 426.336,38.1860011 426.336,37.97 C426.336,37.7539989 426.407999,37.5710008 426.552,37.421 C426.696001,37.2709993 426.875999,37.196 427.092,37.196 L436.056,37.196 C436.272001,37.196 436.454999,37.2709993 436.605,37.421 C436.755001,37.5710008 436.83,37.7539989 436.83,37.97 C436.83,38.1860011 436.755001,38.3659993 436.605,38.51 C436.454999,38.6540007 436.272001,38.726 436.056,38.726 L432.402,38.726 L432.402,49.04 C432.402,49.2680011 432.321001,49.4599992 432.159,49.616 C431.996999,49.7720008 431.802001,49.85 431.574,49.85 Z M440.012087,49.94 C439.484084,49.94 438.995089,49.8320011 438.545087,49.616 C438.095085,49.4 437.738088,49.0850021 437.474087,48.671 C437.210086,48.2569979 437.078087,47.7800027 437.078087,47.24 C437.078087,46.3519956 437.429084,45.6440026 438.131087,45.116 C438.833091,44.5879974 439.86208,44.324 441.218087,44.324 L443.396087,44.324 L443.396087,44.18 C443.396087,43.387996 443.201089,42.8180017 442.811087,42.47 C442.421085,42.1219983 441.812091,41.948 440.984087,41.948 C440.528085,41.948 440.123089,41.9839996 439.769087,42.056 C439.415085,42.1280004 439.022089,42.2359993 438.590087,42.38 C438.494087,42.4040001 438.416087,42.416 438.356087,42.416 C438.176086,42.416 438.020088,42.3500007 437.888087,42.218 C437.756086,42.0859993 437.690087,41.924001 437.690087,41.732 C437.690087,41.4079984 437.846086,41.1800007 438.158087,41.048 C439.178092,40.6159978 440.216082,40.4 441.272087,40.4 C442.100091,40.4 442.799084,40.5679983 443.369087,40.904 C443.93909,41.2400017 444.359086,41.6749973 444.629087,42.209 C444.899088,42.7430027 445.034087,43.3219969 445.034087,43.946 L445.034087,49.04 C445.034087,49.2680011 444.953088,49.4599992 444.791087,49.616 C444.629086,49.7720008 444.434088,49.85 444.206087,49.85 C443.978086,49.85 443.786088,49.7720008 443.630087,49.616 C443.474086,49.4599992 443.396087,49.2680011 443.396087,49.04 L443.396087,48.572 C442.508083,49.4840046 441.380094,49.94 440.012087,49.94 Z M440.624087,48.5 C441.15209,48.5 441.662085,48.3710013 442.154087,48.113 C442.64609,47.8549987 443.060085,47.5340019 443.396087,47.15 L443.396087,45.638 L441.434087,45.638 C439.622078,45.638 438.716087,46.1119953 438.716087,47.06 C438.716087,47.4920022 438.863086,47.8399987 439.157087,48.104 C439.451089,48.3680013 439.940084,48.5 440.624087,48.5 Z M452.212174,40.4 C453.41218,40.4 454.43817,40.8559954 455.290174,41.768 L455.290174,41.318 C455.290174,41.0899989 455.368173,40.8950008 455.524174,40.733 C455.680175,40.5709992 455.872173,40.49 456.100174,40.49 C456.328175,40.49 456.523173,40.5709992 456.685174,40.733 C456.847175,40.8950008 456.928174,41.0899989 456.928174,41.318 L456.928174,49.364 C456.928174,50.8760076 456.562178,52.0399959 455.830174,52.856 C455.098171,53.6720041 454.054181,54.08 452.698174,54.08 C452.002171,54.08 451.300178,53.9900009 450.592174,53.81 C449.884171,53.6299991 449.302176,53.4080013 448.846174,53.144 C448.630173,53.0119993 448.522174,52.8020014 448.522174,52.514 C448.522174,52.321999 448.591174,52.1510008 448.729174,52.001 C448.867175,51.8509993 449.038173,51.776 449.242174,51.776 C449.338175,51.776 449.446174,51.7999998 449.566174,51.848 C450.478179,52.3040023 451.468169,52.532 452.536174,52.532 C454.372183,52.532 455.290174,51.5540098 455.290174,49.598 L455.290174,48.392 C454.43817,49.3040046 453.41218,49.76 452.212174,49.76 C451.504171,49.76 450.817178,49.5830018 450.151174,49.229 C449.485171,48.8749982 448.936176,48.3470035 448.504174,47.645 C448.072172,46.9429965 447.856174,46.088005 447.856174,45.08 C447.856174,44.071995 448.072172,43.2170035 448.504174,42.515 C448.936176,41.8129965 449.485171,41.2850018 450.151174,40.931 C450.817178,40.5769982 451.504171,40.4 452.212174,40.4 Z M452.554174,41.894 C451.65417,41.894 450.919177,42.1669973 450.349174,42.713 C449.779171,43.2590027 449.494174,44.0479948 449.494174,45.08 C449.494174,46.1120052 449.779171,46.9009973 450.349174,47.447 C450.919177,47.9930027 451.65417,48.266 452.554174,48.266 C453.118177,48.266 453.616172,48.1460012 454.048174,47.906 C454.480176,47.6659988 454.894172,47.342002 455.290174,46.934 L455.290174,46.934 L455.290174,43.226 C454.894172,42.817998 454.480176,42.4940012 454.048174,42.254 C453.616172,42.0139988 453.118177,41.894 452.554174,41.894 Z" id="SpyTag" fill="#3F041D" fill-rule="nonzero"></path>
            </g>
        </g>
    </g>
</svg>