<?xml version="1.0" encoding="UTF-8"?>
<svg width="598px" height="54px" viewBox="0 0 598 54" version="1.1" xmlns="http://www.w3.org/2000/svg" xmlns:xlink="http://www.w3.org/1999/xlink">
    <!-- Generator: Sketch 58 (84663) - https://sketch.com -->
    <title>Group 10</title>
    <desc>Created with Sketch.</desc>
    <defs>
        <linearGradient x1="100%" y1="135.331107%" x2="20.2154461%" y2="3.99833403%" id="linearGradient-1">
            <stop stop-color="#F7B0B5" offset="0%"></stop>
            <stop stop-color="#C40B0B" offset="100%"></stop>
        </linearGradient>
        <linearGradient x1="21.4764961%" y1="40.0145346%" x2="84.9470048%" y2="58.8896061%" id="linearGradient-2">
            <stop stop-color="#F7F45C" offset="0%"></stop>
            <stop stop-color="#6EF21C" offset="100%"></stop>
        </linearGradient>
        <linearGradient x1="30.2956829%" y1="37.8253153%" x2="77.3908012%" y2="62.0265987%" id="linearGradient-3">
            <stop stop-color="#E52C94" offset="0%"></stop>
            <stop stop-color="#F09ECC" offset="100%"></stop>
        </linearGradient>
        <linearGradient x1="20.6478754%" y1="43.9013847%" x2="70.4501262%" y2="56.6182492%" id="linearGradient-4">
            <stop stop-color="#F9AB3A" offset="0%"></stop>
            <stop stop-color="#E52C94" offset="100%"></stop>
        </linearGradient>
        <linearGradient x1="27.1884265%" y1="56.3939061%" x2="86.4543219%" y2="44.4201705%" id="linearGradient-5">
            <stop stop-color="#F9AB3A" offset="0%"></stop>
            <stop stop-color="#F7A042" offset="10.1320061%"></stop>
            <stop stop-color="#E52C94" offset="100%"></stop>
        </linearGradient>
        <linearGradient x1="28.5752966%" y1="55.3344622%" x2="70.8415603%" y2="45.459596%" id="linearGradient-6">
            <stop stop-color="#2259F6" offset="0%"></stop>
            <stop stop-color="#0AF7E6" offset="100%"></stop>
        </linearGradient>
        <linearGradient x1="71.6513647%" y1="43.9508507%" x2="23.4519395%" y2="56.0491493%" id="linearGradient-7">
            <stop stop-color="#B1F67D" offset="0%"></stop>
            <stop stop-color="#37EAD5" offset="100%"></stop>
        </linearGradient>
        <linearGradient x1="34.9686648%" y1="60.6508876%" x2="67.334661%" y2="36.0691609%" id="linearGradient-8">
            <stop stop-color="#B1F67D" offset="0%"></stop>
            <stop stop-color="#37EAD5" offset="100%"></stop>
        </linearGradient>
    </defs>
    <g id="Parts" stroke="none" stroke-width="1" fill="none" fill-rule="evenodd">
        <g transform="translate(-119.000000, -238.000000)" id="Group-10">
            <g transform="translate(119.000000, 238.672000)">
                <g id="Group-16" transform="translate(0.000000, 6.328000)">
                    <g id="Group-12">
                        <g id="Group-9" transform="translate(549.000000, 0.000000)" fill-rule="nonzero">
                            <path d="M21.9998716,14.5731903 C19.0869577,13.5435631 17,10.7654991 17,7.5 C17,3.35786438 20.3578644,0 24.5,0 C28.6421356,0 32,3.35786438 32,7.5 C32,10.7651265 29.9135184,13.5429292 27.0011254,14.5728379 L27,23 L47,23 C48.1045695,23 49,23.8954305 49,25 L49,45 C49,46.1045695 48.1045695,47 47,47 L2,47 C0.8954305,47 1.3527075e-16,46.1045695 0,45 L0,25 C-5.7935996e-16,23.8954305 0.8954305,23 2,23 L22,23 L21.9998716,14.5731903 Z M24.5,4.28571429 C22.724799,4.28571429 21.2857143,5.72479902 21.2857143,7.5 C21.2857143,9.27520098 22.724799,10.7142857 24.5,10.7142857 C26.275201,10.7142857 27.7142857,9.27520098 27.7142857,7.5 C27.7142857,5.72479902 26.275201,4.28571429 24.5,4.28571429 Z" id="Combined-Shape" fill="url(#linearGradient-1)"></path>
                            <path d="M10.4803075,40.16 C9.12563404,40.16 7.8563134,39.9040026 6.67230748,39.392 C6.54430684,39.3386664 6.43764124,39.2506673 6.35230748,39.128 C6.26697372,39.0053327 6.22430748,38.8746674 6.22430748,38.736 C6.22430748,38.5546658 6.2856402,38.397334 6.40830748,38.264 C6.53097476,38.130666 6.68830652,38.064 6.88030748,38.064 C6.98697468,38.064 7.088307,38.0853331 7.18430748,38.128 C8.16564572,38.5653355 9.21630188,38.784 10.3363075,38.784 C12.2029835,38.784 13.1363075,38.1706728 13.1363075,36.944 C13.1363075,36.6239984 13.0163087,36.3573344 12.7763075,36.144 C12.5363063,35.9306656 12.2403092,35.7626673 11.8883075,35.64 C11.5803059,35.5326661 11.1579763,35.4069589 10.6213083,35.2628752 L10.3843075,35.2 C9.52030316,34.9759989 8.82164348,34.760001 8.28830748,34.552 C7.75497148,34.343999 7.2963094,34.0320021 6.91230748,33.616 C6.52830556,33.1999979 6.33630748,32.6453368 6.33630748,31.952 C6.33630748,31.343997 6.49630588,30.7920025 6.81630748,30.296 C7.13630908,29.7999975 7.60830436,29.4053348 8.23230748,29.112 C8.8563106,28.8186652 9.60563644,28.672 10.4803075,28.672 C11.6536467,28.672 12.7149694,28.8479982 13.6643075,29.2 C13.9629756,29.3066672 14.1123075,29.5199984 14.1123075,29.84 C14.1123075,30.0106675 14.0536414,30.1653326 13.9363075,30.304 C13.8189736,30.4426674 13.6643084,30.512 13.4723075,30.512 C13.4083072,30.512 13.3229747,30.4906669 13.2163075,30.448 C12.3843033,30.1599986 11.5256452,30.016 10.6403075,30.016 C9.7976366,30.016 9.11231012,30.1759984 8.58430748,30.496 C8.05630484,30.8160016 7.79230748,31.2639971 7.79230748,31.84 C7.79230748,32.2240019 7.91763956,32.5359988 8.16830748,32.776 C8.4189754,33.0160012 8.73363892,33.202666 9.11230748,33.336 C9.49097604,33.469334 10.0056376,33.6106659 10.6563075,33.76 C11.4989784,33.9626677 12.1789716,34.1653323 12.6963075,34.368 C13.2136434,34.5706677 13.6563056,34.8853312 14.0243075,35.312 C14.3923093,35.7386688 14.5763075,36.314663 14.5763075,37.04 C14.5763075,37.6373363 14.4056425,38.173331 14.0643075,38.648 C13.7229724,39.122669 13.2429772,39.493332 12.6243075,39.76 C12.0056377,40.026668 11.2909782,40.16 10.4803075,40.16 Z M19.7061537,40.16 C18.1488126,40.16 17.3701537,39.456007 17.3701537,38.048 L17.3701537,33.088 L16.2341537,33.088 C16.14882,33.088 16.0768207,33.058667 16.0181537,33 C15.9594868,32.941333 15.9301537,32.8693338 15.9301537,32.784 C15.9301537,32.6773328 15.9781533,32.586667 16.0741537,32.512 L18.2501537,30.384 C18.3461542,30.2879995 18.43682,30.24 18.5221537,30.24 C18.6074875,30.24 18.6794868,30.2719997 18.7381537,30.336 C18.7968207,30.4000003 18.8261537,30.4746662 18.8261537,30.56 L18.8261537,31.84 L20.6341537,31.84 C20.815488,31.84 20.9648198,31.8986661 21.0821537,32.016 C21.1994877,32.1333339 21.2581537,32.2826658 21.2581537,32.464 C21.2581537,32.6346675 21.1994877,32.7813327 21.0821537,32.904 C20.9648198,33.0266673 20.815488,33.088 20.6341537,33.088 L18.8261537,33.088 L18.8261537,37.92 C18.8261537,38.3360021 18.9248194,38.5999994 19.1221537,38.712 C19.3194881,38.8240006 19.5674856,38.88 19.8661537,38.88 C20.0261545,38.88 20.1861535,38.8620002 20.3461534,38.8260001 L20.6421537,38.752 L20.6421537,38.752 C20.690154,38.7413333 20.7514867,38.736 20.8261537,38.736 C20.9754878,38.736 21.1088198,38.7919994 21.2261537,38.904 C21.3434877,39.0160006 21.4021537,39.1519992 21.4021537,39.312 C21.4021537,39.5573346 21.2794883,39.7439994 21.0341537,39.872 C20.6181517,40.064001 20.1754894,40.16 19.7061537,40.16 Z M27.204,40.16 C26.3826626,40.16 25.6626698,39.9840018 25.044,39.632 C24.4253302,39.2799982 23.9480017,38.7813366 23.612,38.136 C23.2759983,37.4906634 23.108,36.7520042 23.108,35.92 C23.108,35.0879958 23.2759983,34.3493366 23.612,33.704 C23.9480017,33.0586634 24.4253302,32.5600018 25.044,32.208 C25.6626698,31.8559982 26.3826626,31.68 27.204,31.68 C28.0146707,31.68 28.7293302,31.8559982 29.348,32.208 C29.9666698,32.5600018 30.446665,33.0586634 30.788,33.704 C31.129335,34.3493366 31.3,35.0879958 31.3,35.92 C31.3,36.7520042 31.129335,37.4906634 30.788,38.136 C30.446665,38.7813366 29.9666698,39.2799982 29.348,39.632 C28.7293302,39.9840018 28.0146707,40.16 27.204,40.16 Z M27.204,38.832 C27.6413355,38.832 28.059998,38.7306677 28.46,38.528 C28.860002,38.3253323 29.1906654,38.0053355 29.452,37.568 C29.7133346,37.1306645 29.844,36.5760034 29.844,35.904 C29.844,35.2426634 29.7133346,34.6933355 29.452,34.256 C29.1906654,33.8186645 28.860002,33.5013343 28.46,33.304 C28.059998,33.1066657 27.6413355,33.008 27.204,33.008 C26.7559978,33.008 26.332002,33.1066657 25.932,33.304 C25.531998,33.5013343 25.2040013,33.8186645 24.948,34.256 C24.6919987,34.6933355 24.564,35.2426634 24.564,35.904 C24.564,36.5760034 24.6919987,37.1306645 24.948,37.568 C25.2040013,38.0053355 25.531998,38.3253323 25.932,38.528 C26.332002,38.7306677 26.7559978,38.832 27.204,38.832 Z M38.2378463,31.68 C38.8991829,31.68 39.5258433,31.8479983 40.1178463,32.184 C40.7098492,32.5200017 41.1898444,33.0106634 41.5578463,33.656 C41.9258481,34.3013366 42.1098463,35.0559957 42.1098463,35.92 C42.1098463,36.7840043 41.9258481,37.5386634 41.5578463,38.184 C41.1898444,38.8293366 40.7098492,39.3199983 40.1178463,39.656 C39.5258433,39.9920017 38.8991829,40.16 38.2378463,40.16 C37.1925077,40.16 36.2805168,39.7546707 35.5018463,38.944 L35.5018463,43.024 C35.5018463,43.2373344 35.4325136,43.4133326 35.2938463,43.552 C35.1551789,43.6906674 34.9791807,43.76 34.7658463,43.76 C34.5631786,43.76 34.3925136,43.6880007 34.2538463,43.544 C34.1151789,43.3999993 34.0458463,43.2266677 34.0458463,43.024 L34.0458463,32.48 C34.0458463,32.2773323 34.1151789,32.1066674 34.2538463,31.968 C34.3925136,31.8293326 34.5631786,31.76 34.7658463,31.76 C34.9685139,31.76 35.1418455,31.8293326 35.2858463,31.968 C35.429847,32.1066674 35.5018463,32.2773323 35.5018463,32.48 L35.5018463,32.896 C36.2805168,32.0853293 37.1925077,31.68 38.2378463,31.68 Z M38.0298463,33.04 C37.5391771,33.04 37.0778484,33.1493322 36.6458463,33.368 C36.2138441,33.5866678 35.8325146,33.8773315 35.5018463,34.24 L35.5018463,34.24 L35.5018463,37.6 C35.8325146,37.9626685 36.2138441,38.2533322 36.6458463,38.472 C37.0778484,38.6906678 37.5391771,38.8 38.0298463,38.8 C38.8191835,38.8 39.4538439,38.5493358 39.9338463,38.048 C40.4138487,37.5466642 40.6538463,36.8373379 40.6538463,35.92 C40.6538463,35.0026621 40.4138487,34.2933358 39.9338463,33.792 C39.4538439,33.2906642 38.8191835,33.04 38.0298463,33.04 Z" id="Stop" fill="#3F041D"></path>
                        </g>
                        <g id="Group-8" transform="translate(479.000000, 23.000000)">
                            <rect id="Rectangle" fill="url(#linearGradient-2)" x="0" y="0" width="68" height="24" rx="2"></rect>
                            <path d="M7.62553809,17.08 C7.42287041,17.08 7.25220545,17.0106674 7.11353809,16.872 C6.97487073,16.7333326 6.90553809,16.5626677 6.90553809,16.36 L6.90553809,6.488 C6.90553809,6.28533232 6.97487073,6.11200072 7.11353809,5.968 C7.25220545,5.82399928 7.42287041,5.752 7.62553809,5.752 C7.82820577,5.752 8.00153737,5.82399928 8.14553809,5.968 C8.28953881,6.11200072 8.36153809,6.28533232 8.36153809,6.488 L8.36153809,10.744 L14.4255381,10.744 L14.4255381,6.488 C14.4255381,6.28533232 14.4948707,6.11200072 14.6335381,5.968 C14.7722054,5.82399928 14.9428704,5.752 15.1455381,5.752 C15.3482058,5.752 15.5215374,5.82399928 15.6655381,5.968 C15.8095388,6.11200072 15.8815381,6.28533232 15.8815381,6.488 L15.8815381,16.36 C15.8815381,16.5626677 15.8095388,16.7333326 15.6655381,16.872 C15.5215374,17.0106674 15.3482058,17.08 15.1455381,17.08 C14.9428704,17.08 14.7722054,17.0106674 14.6335381,16.872 C14.4948707,16.7333326 14.4255381,16.5626677 14.4255381,16.36 L14.4255381,12.104 L8.36153809,12.104 L8.36153809,16.36 C8.36153809,16.5626677 8.28953881,16.7333326 8.14553809,16.872 C8.00153737,17.0106674 7.82820577,17.08 7.62553809,17.08 Z M19.9393843,7.176 C19.7153832,7.176 19.5233851,7.0960008 19.3633843,6.936 C19.2033835,6.7759992 19.1233843,6.58400112 19.1233843,6.36 L19.1233843,6.296 C19.1233843,6.07199888 19.2033835,5.8800008 19.3633843,5.72 C19.5233851,5.5599992 19.7153832,5.48 19.9393843,5.48 L20.0353843,5.48 C20.2593855,5.48 20.4513835,5.5599992 20.6113843,5.72 C20.7713851,5.8800008 20.8513843,6.07199888 20.8513843,6.296 L20.8513843,6.36 C20.8513843,6.58400112 20.7713851,6.7759992 20.6113843,6.936 C20.4513835,7.0960008 20.2593855,7.176 20.0353843,7.176 L19.9393843,7.176 Z M19.9713843,17.08 C19.7687167,17.08 19.5980517,17.0106674 19.4593843,16.872 C19.320717,16.7333326 19.2513843,16.5626677 19.2513843,16.36 L19.2513843,9.496 C19.2513843,9.29333232 19.320717,9.12000072 19.4593843,8.976 C19.5980517,8.83199928 19.7687167,8.76 19.9713843,8.76 C20.1847187,8.76 20.360717,8.82933264 20.4993843,8.968 C20.6380517,9.10666736 20.7073843,9.2826656 20.7073843,9.496 L20.7073843,16.36 C20.7073843,16.5626677 20.6353851,16.7333326 20.4913843,16.872 C20.3473836,17.0106674 20.174052,17.08 19.9713843,17.08 Z M26.5892306,17.16 C25.5225586,17.16 24.5519016,16.9200024 23.6772306,16.44 C23.4958964,16.3119994 23.4052306,16.1360011 23.4052306,15.912 C23.4052306,15.7413325 23.4638967,15.5920006 23.5812306,15.464 C23.6985645,15.3359994 23.8478964,15.272 24.0292306,15.272 C24.1252311,15.272 24.2212301,15.2933331 24.3172306,15.336 C24.6585656,15.4853341 24.9998956,15.6026662 25.3412306,15.688 C25.6825656,15.7733338 26.0665618,15.816 26.4932306,15.816 C27.6772365,15.816 28.2692306,15.4373371 28.2692306,14.68 C28.2692306,14.4346654 28.133232,14.2480006 27.8612306,14.12 C27.5892292,13.9919994 27.1439004,13.8480008 26.5252306,13.688 C25.8958941,13.5386659 25.3758993,13.3840008 24.9652306,13.224 C24.5545619,13.0639992 24.2025654,12.821335 23.9092306,12.496 C23.6158958,12.170665 23.4692306,11.741336 23.4692306,11.208 C23.4692306,10.4613296 23.7385612,9.85333568 24.2772306,9.384 C24.8159,8.91466432 25.5865589,8.68 26.5892306,8.68 C27.410568,8.68 28.1838936,8.813332 28.9092306,9.08 C29.0585647,9.12266688 29.1732302,9.20266608 29.2532306,9.32 C29.333231,9.43733392 29.3732306,9.55999936 29.3732306,9.688 C29.3732306,9.85866752 29.3118979,10.0079994 29.1892306,10.136 C29.0665633,10.2640006 28.9145648,10.328 28.7332306,10.328 C28.679897,10.328 28.6105644,10.3173334 28.5252306,10.296 C27.9065608,10.103999 27.2985669,10.008 26.7012306,10.008 C26.1252277,10.008 25.6745656,10.111999 25.3492306,10.32 C25.0238956,10.528001 24.8612306,10.7973317 24.8612306,11.128 C24.8612306,11.4480016 25.0105624,11.6826659 25.3092306,11.832 C25.6078988,11.9813341 26.0718941,12.1253326 26.7012306,12.264 C27.3305671,12.4240008 27.842562,12.5813326 28.2372306,12.736 C28.6318992,12.8906674 28.9705625,13.1333317 29.2532306,13.464 C29.5358987,13.7946683 29.6772306,14.2373306 29.6772306,14.792 C29.6772306,15.4746701 29.4079,16.0399978 28.8692306,16.488 C28.3305612,16.9360022 27.5705688,17.16 26.5892306,17.16 Z M40.8169231,17.08 C40.6142555,17.08 40.4435905,17.0106674 40.3049231,16.872 C40.1662558,16.7333326 40.0969231,16.5626677 40.0969231,16.36 L40.0969231,7.192 L36.8329231,7.192 C36.6409222,7.192 36.4809238,7.12800064 36.3529231,7 C36.2249225,6.87199936 36.1609231,6.71200096 36.1609231,6.52 C36.1609231,6.32799904 36.2249225,6.165334 36.3529231,6.032 C36.4809238,5.898666 36.6409222,5.832 36.8329231,5.832 L44.8009231,5.832 C44.9929241,5.832 45.1555891,5.898666 45.2889231,6.032 C45.4222571,6.165334 45.4889231,6.32799904 45.4889231,6.52 C45.4889231,6.71200096 45.4222571,6.87199936 45.2889231,7 C45.1555891,7.12800064 44.9929241,7.192 44.8009231,7.192 L41.5529231,7.192 L41.5529231,16.36 C41.5529231,16.5626677 41.4809239,16.7333326 41.3369231,16.872 C41.1929224,17.0106674 41.0195908,17.08 40.8169231,17.08 Z M48.4747694,17.16 C48.0054337,17.16 47.5707714,17.064001 47.1707694,16.872 C46.7707674,16.68 46.4534372,16.4000018 46.2187694,16.032 C45.9841016,15.6639982 45.8667694,15.2400024 45.8667694,14.76 C45.8667694,13.9706627 46.1787663,13.3413357 46.8027694,12.872 C47.4267725,12.4026643 48.34143,12.168 49.5467694,12.168 L51.4827694,12.168 L51.4827694,12.04 C51.4827694,11.3359965 51.3094378,10.8293349 50.9627694,10.52 C50.616101,10.2106651 50.0747731,10.056 49.3387694,10.056 C48.933434,10.056 48.5734376,10.0879997 48.2587694,10.152 C47.9441012,10.2160003 47.5947713,10.3119994 47.2107694,10.44 C47.1254356,10.4613334 47.056103,10.472 47.0027694,10.472 C46.8427686,10.472 46.7041033,10.4133339 46.5867694,10.296 C46.4694355,10.1786661 46.4107694,10.0346675 46.4107694,9.864 C46.4107694,9.57599856 46.5494347,9.37333392 46.8267694,9.256 C47.7334406,8.87199808 48.656098,8.68 49.5947694,8.68 C50.3307731,8.68 50.9521002,8.82933184 51.4587694,9.128 C51.9654386,9.42666816 52.3387682,9.81333096 52.5787694,10.288 C52.8187706,10.762669 52.9387694,11.2773306 52.9387694,11.832 L52.9387694,16.36 C52.9387694,16.5626677 52.8667694,16.7333326 52.7227694,16.872 C52.5787687,17.0106674 52.4054371,17.08 52.2027694,17.08 C52.0001017,17.08 51.8294368,17.0106674 51.6907694,16.872 C51.552102,16.7333326 51.4827694,16.5626677 51.4827694,16.36 L51.4827694,15.944 C50.6934321,16.7546707 49.6907755,17.16 48.4747694,17.16 Z M49.0187694,15.88 C49.4881051,15.88 49.9414339,15.7653345 50.3787694,15.536 C50.8161049,15.3066655 51.1841012,15.021335 51.4827694,14.68 L51.4827694,13.336 L49.7387694,13.336 C48.1280947,13.336 47.3227694,13.7573291 47.3227694,14.6 C47.3227694,14.9840019 47.4534348,15.2933322 47.7147694,15.528 C47.976104,15.7626678 48.4107664,15.88 49.0187694,15.88 Z M59.4766157,8.68 C60.5432877,8.68 61.4552785,9.08532928 62.2126157,9.896 L62.2126157,9.496 C62.2126157,9.29333232 62.2819483,9.12000072 62.4206157,8.976 C62.559283,8.83199928 62.729948,8.76 62.9326157,8.76 C63.1352833,8.76 63.3086149,8.83199928 63.4526157,8.976 C63.5966164,9.12000072 63.6686157,9.29333232 63.6686157,9.496 L63.6686157,16.648 C63.6686157,17.9920067 63.3432856,19.026663 62.6926157,19.752 C62.0419457,20.477337 61.113955,20.84 59.9086157,20.84 C59.2899459,20.84 58.6659521,20.7600008 58.0366157,20.6 C57.4072792,20.4399992 56.889951,20.2426678 56.4846157,20.008 C56.2926147,19.8906661 56.1966157,19.7040013 56.1966157,19.448 C56.1966157,19.2773325 56.2579484,19.125334 56.3806157,18.992 C56.5032829,18.858666 56.6552814,18.792 56.8366157,18.792 C56.9219494,18.792 57.0179485,18.8133331 57.1246157,18.856 C57.9352864,19.2613354 58.8152776,19.464 59.7646157,19.464 C61.3966238,19.464 62.2126157,18.5946754 62.2126157,16.856 L62.2126157,15.784 C61.4552785,16.5946707 60.5432877,17 59.4766157,17 C58.8472792,17 58.2366186,16.8426682 57.6446157,16.528 C57.0526127,16.2133318 56.5646176,15.7440031 56.1806157,15.12 C55.7966137,14.4959969 55.6046157,13.7360045 55.6046157,12.84 C55.6046157,11.9439955 55.7966137,11.1840031 56.1806157,10.56 C56.5646176,9.93599688 57.0526127,9.46666824 57.6446157,9.152 C58.2366186,8.83733176 58.8472792,8.68 59.4766157,8.68 Z M59.7806157,10.008 C58.9806117,10.008 58.3272849,10.2506642 57.8206157,10.736 C57.3139465,11.2213358 57.0606157,11.9226621 57.0606157,12.84 C57.0606157,13.7573379 57.3139465,14.4586642 57.8206157,14.944 C58.3272849,15.4293358 58.9806117,15.672 59.7806157,15.672 C60.2819515,15.672 60.7246137,15.5653344 61.1086157,15.352 C61.4926176,15.1386656 61.8606139,14.8506685 62.2126157,14.488 L62.2126157,14.488 L62.2126157,11.192 C61.8606139,10.8293315 61.4926176,10.5413344 61.1086157,10.328 C60.7246137,10.1146656 60.2819515,10.008 59.7806157,10.008 Z" id="HisTag" fill="#3F041D" fill-rule="nonzero"></path>
                        </g>
                        <g id="Group-2" transform="translate(0.000000, 23.000000)">
                            <rect id="Rectangle" fill="url(#linearGradient-3)" x="0" y="0" width="66" height="24" rx="2"></rect>
                            <path d="M7.14646122,17 C6.8691265,17 6.63179554,16.9013343 6.43446122,16.704 C6.2371269,16.5066657 6.13846122,16.2693347 6.13846122,15.992 L6.13846122,6.488 C6.13846122,6.28533232 6.20779386,6.11200072 6.34646122,5.968 C6.48512858,5.82399928 6.65579354,5.752 6.85846122,5.752 C7.0611289,5.752 7.2344605,5.82399928 7.37846122,5.968 C7.52246194,6.11200072 7.59446122,6.28533232 7.59446122,6.488 L7.59446122,15.544 L12.8264612,15.544 C13.0291289,15.544 13.2024605,15.6159993 13.3464612,15.76 C13.4904619,15.9040007 13.5624612,16.0773323 13.5624612,16.28 C13.5624612,16.4826677 13.4904619,16.6533326 13.3464612,16.792 C13.2024605,16.9306674 13.0291289,17 12.8264612,17 L7.14646122,17 Z M19.4283075,17.16 C18.1269676,17.16 17.1109778,16.789337 16.3803075,16.048 C15.6496372,15.306663 15.2843075,14.2640067 15.2843075,12.92 C15.2843075,12.1626629 15.4229728,11.4640032 15.7003075,10.824 C15.9776422,10.1839968 16.4043046,9.66666864 16.9803075,9.272 C17.5563104,8.87733136 18.2656366,8.68 19.1083075,8.68 C19.8976448,8.68 20.5803046,8.86399816 21.1563075,9.232 C21.7323104,9.60000184 22.1696393,10.0906636 22.4683075,10.704 C22.7669756,11.3173364 22.9163075,11.986663 22.9163075,12.712 C22.9163075,12.9146677 22.8496415,13.0853326 22.7163075,13.224 C22.5829735,13.3626674 22.4043086,13.432 22.1803075,13.432 L16.7563075,13.432 C16.8416412,14.1786704 17.1189718,14.7599979 17.5883075,15.176 C18.0576432,15.5920021 18.7136366,15.8 19.5563075,15.8 C20.0043097,15.8 20.3963058,15.7573338 20.7323075,15.672 C21.0683092,15.5866662 21.3963059,15.4640008 21.7163075,15.304 C21.8016412,15.2613331 21.8976403,15.24 22.0043075,15.24 C22.174975,15.24 22.3243068,15.2986661 22.4523075,15.416 C22.5803081,15.5333339 22.6443075,15.6826658 22.6443075,15.864 C22.6443075,16.0986678 22.5056422,16.2959992 22.2283075,16.456 C21.8123054,16.6906678 21.4016428,16.8666661 20.9963075,16.984 C20.5909721,17.1013339 20.0683107,17.16 19.4283075,17.16 Z M21.4763075,12.248 C21.4443073,11.7253307 21.3083087,11.2880018 21.0683075,10.936 C20.8283063,10.5839982 20.5323092,10.3253342 20.1803075,10.16 C19.8283057,9.99466584 19.470976,9.912 19.1083075,9.912 C18.745639,9.912 18.3883092,9.99466584 18.0363075,10.16 C17.6843057,10.3253342 17.3909753,10.5839982 17.1563075,10.936 C16.9216396,11.2880018 16.7883076,11.7253307 16.7563075,12.248 L21.4763075,12.248 Z M27.6301537,17.16 C27.1608181,17.16 26.7261557,17.064001 26.3261537,16.872 C25.9261517,16.68 25.6088216,16.4000018 25.3741537,16.032 C25.1394859,15.6639982 25.0221537,15.2400024 25.0221537,14.76 C25.0221537,13.9706627 25.3341506,13.3413357 25.9581537,12.872 C26.5821569,12.4026643 27.4968144,12.168 28.7021537,12.168 L30.6381537,12.168 L30.6381537,12.04 C30.6381537,11.3359965 30.4648221,10.8293349 30.1181537,10.52 C29.7714853,10.2106651 29.2301574,10.056 28.4941537,10.056 C28.0888184,10.056 27.728822,10.0879997 27.4141537,10.152 C27.0994855,10.2160003 26.7501557,10.3119994 26.3661537,10.44 C26.28082,10.4613334 26.2114873,10.472 26.1581537,10.472 C25.9981529,10.472 25.8594877,10.4133339 25.7421537,10.296 C25.6248198,10.1786661 25.5661537,10.0346675 25.5661537,9.864 C25.5661537,9.57599856 25.704819,9.37333392 25.9821537,9.256 C26.8888249,8.87199808 27.8114824,8.68 28.7501537,8.68 C29.4861574,8.68 30.1074845,8.82933184 30.6141537,9.128 C31.1208229,9.42666816 31.4941525,9.81333096 31.7341537,10.288 C31.9741549,10.762669 32.0941537,11.2773306 32.0941537,11.832 L32.0941537,16.36 C32.0941537,16.5626677 32.0221537,16.7333326 31.8781537,16.872 C31.734153,17.0106674 31.5608214,17.08 31.3581537,17.08 C31.1554861,17.08 30.9848211,17.0106674 30.8461537,16.872 C30.7074864,16.7333326 30.6381537,16.5626677 30.6381537,16.36 L30.6381537,15.944 C29.8488165,16.7546707 28.8461598,17.16 27.6301537,17.16 Z M28.1741537,15.88 C28.6434894,15.88 29.0968182,15.7653345 29.5341537,15.536 C29.9714893,15.3066655 30.3394856,15.021335 30.6381537,14.68 L30.6381537,13.336 L28.8941537,13.336 C27.283479,13.336 26.4781537,13.7573291 26.4781537,14.6 C26.4781537,14.9840019 26.6088191,15.2933322 26.8701537,15.528 C27.1314884,15.7626678 27.5661507,15.88 28.1741537,15.88 Z M38.632,17.16 C37.9706634,17.16 37.344003,16.9920017 36.752,16.656 C36.159997,16.3199983 35.6800018,15.8293366 35.312,15.184 C34.9439982,14.5386634 34.76,13.7840043 34.76,12.92 C34.76,12.0559957 34.9439982,11.3013366 35.312,10.656 C35.6800018,10.0106634 36.159997,9.52000168 36.752,9.184 C37.344003,8.84799832 37.9706634,8.68 38.632,8.68 C39.6773386,8.68 40.5893294,9.08532928 41.368,9.896 L41.368,5.976 C41.368,5.7626656 41.4399993,5.58666736 41.584,5.448 C41.7280007,5.30933264 41.9013323,5.24 42.104,5.24 C42.3066677,5.24 42.4773326,5.31199928 42.616,5.456 C42.7546674,5.60000072 42.824,5.77333232 42.824,5.976 L42.824,16.36 C42.824,16.5626677 42.7546674,16.7333326 42.616,16.872 C42.4773326,17.0106674 42.3066677,17.08 42.104,17.08 C41.9013323,17.08 41.7280007,17.0106674 41.584,16.872 C41.4399993,16.7333326 41.368,16.5626677 41.368,16.36 L41.368,15.944 C40.5893294,16.7546707 39.6773386,17.16 38.632,17.16 Z M38.84,15.8 C39.3306691,15.8 39.7919978,15.6906678 40.224,15.472 C40.6560022,15.2533322 41.0373317,14.9626685 41.368,14.6 L41.368,11.24 C41.0373317,10.8773315 40.6560022,10.5866678 40.224,10.368 C39.7919978,10.1493322 39.3306691,10.04 38.84,10.04 C38.0506627,10.04 37.4160024,10.2906642 36.936,10.792 C36.4559976,11.2933358 36.216,12.0026621 36.216,12.92 C36.216,13.8373379 36.4559976,14.5466642 36.936,15.048 C37.4160024,15.5493358 38.0506627,15.8 38.84,15.8 Z M49.7138463,17.16 C48.4125064,17.16 47.3965166,16.789337 46.6658463,16.048 C45.9351759,15.306663 45.5698463,14.2640067 45.5698463,12.92 C45.5698463,12.1626629 45.7085115,11.4640032 45.9858463,10.824 C46.263181,10.1839968 46.6898434,9.66666864 47.2658463,9.272 C47.8418491,8.87733136 48.5511754,8.68 49.3938463,8.68 C50.1831835,8.68 50.8658434,8.86399816 51.4418463,9.232 C52.0178491,9.60000184 52.4551781,10.0906636 52.7538463,10.704 C53.0525144,11.3173364 53.2018463,11.986663 53.2018463,12.712 C53.2018463,12.9146677 53.1351803,13.0853326 53.0018463,13.224 C52.8685123,13.3626674 52.6898474,13.432 52.4658463,13.432 L47.0418463,13.432 C47.12718,14.1786704 47.4045106,14.7599979 47.8738463,15.176 C48.3431819,15.5920021 48.9991754,15.8 49.8418463,15.8 C50.2898485,15.8 50.6818446,15.7573338 51.0178463,15.672 C51.3538479,15.5866662 51.6818447,15.4640008 52.0018463,15.304 C52.08718,15.2613331 52.1831791,15.24 52.2898463,15.24 C52.4605138,15.24 52.6098456,15.2986661 52.7378463,15.416 C52.8658469,15.5333339 52.9298463,15.6826658 52.9298463,15.864 C52.9298463,16.0986678 52.791181,16.2959992 52.5138463,16.456 C52.0978442,16.6906678 51.6871816,16.8666661 51.2818463,16.984 C50.8765109,17.1013339 50.3538495,17.16 49.7138463,17.16 Z M51.7618463,12.248 C51.7298461,11.7253307 51.5938475,11.2880018 51.3538463,10.936 C51.1138451,10.5839982 50.817848,10.3253342 50.4658463,10.16 C50.1138445,9.99466584 49.7565147,9.912 49.3938463,9.912 C49.0311778,9.912 48.673848,9.99466584 48.3218463,10.16 C47.9698445,10.3253342 47.6765141,10.5839982 47.4418463,10.936 C47.2071784,11.2880018 47.0738464,11.7253307 47.0418463,12.248 L51.7618463,12.248 Z M56.5556925,17.08 C56.3530248,17.08 56.1823599,17.0106674 56.0436925,16.872 C55.9050252,16.7333326 55.8356925,16.5626677 55.8356925,16.36 L55.8356925,9.496 C55.8356925,9.29333232 55.9050252,9.12000072 56.0436925,8.976 C56.1823599,8.83199928 56.3530248,8.76 56.5556925,8.76 C56.7583602,8.76 56.9316918,8.83199928 57.0756925,8.976 C57.2196932,9.12000072 57.2916925,9.29333232 57.2916925,9.496 L57.2916925,10.184 C58.0383629,9.18132832 58.8756879,8.68 59.8036925,8.68 L59.8836925,8.68 C60.0863602,8.68 60.2543585,8.74933264 60.3876925,8.888 C60.5210265,9.02666736 60.5876925,9.19733232 60.5876925,9.4 C60.5876925,9.60266768 60.5183599,9.76799936 60.3796925,9.896 C60.2410252,10.0240006 60.0650269,10.088 59.8516925,10.088 L59.7716925,10.088 C59.25969,10.088 58.7903613,10.2133321 58.3636925,10.464 C57.9370237,10.7146679 57.579694,11.0586645 57.2916925,11.496 L57.2916925,16.36 C57.2916925,16.5626677 57.2196932,16.7333326 57.0756925,16.872 C56.9316918,17.0106674 56.7583602,17.08 56.5556925,17.08 Z" id="Leader" fill="#3F041D" fill-rule="nonzero"></path>
                        </g>
                        <g id="Group-3" transform="translate(68.000000, 23.000000)">
                            <rect id="Rectangle" fill="url(#linearGradient-4)" x="0" y="0" width="88" height="24" rx="2"></rect>
                            <path d="M8.68461496,17.08 C8.24727944,17.08 7.91661608,16.8346691 7.69261496,16.344 L3.74061496,6.76 C3.7086148,6.67466624 3.69261496,6.58400048 3.69261496,6.488 C3.69261496,6.26399888 3.75661432,6.085334 3.88461496,5.952 C4.0126156,5.818666 4.18861384,5.752 4.41261496,5.752 C4.56194904,5.752 4.69794768,5.79733288 4.82061496,5.888 C4.94328224,5.97866712 5.03661464,6.09866592 5.10061496,6.248 L8.86061496,15.624 L12.620615,6.248 C12.6846153,6.09866592 12.7779477,5.97866712 12.900615,5.888 C13.0232822,5.79733288 13.1592809,5.752 13.308615,5.752 C13.5326161,5.752 13.7086143,5.818666 13.836615,5.952 C13.9646156,6.085334 14.028615,6.26399888 14.028615,6.488 C14.028615,6.58400048 14.0126151,6.67466624 13.980615,6.76 L10.028615,16.344 C9.80461384,16.8346691 9.47395048,17.08 9.03661496,17.08 L8.68461496,17.08 Z M17.6864612,17 C17.4091265,17 17.1717955,16.9013343 16.9744612,16.704 C16.7771269,16.5066657 16.6784612,16.2693347 16.6784612,15.992 L16.6784612,6.488 C16.6784612,6.28533232 16.7477939,6.11200072 16.8864612,5.968 C17.0251286,5.82399928 17.1957935,5.752 17.3984612,5.752 C17.6011289,5.752 17.7744605,5.82399928 17.9184612,5.968 C18.0624619,6.11200072 18.1344612,6.28533232 18.1344612,6.488 L18.1344612,15.544 L23.3664612,15.544 C23.5691289,15.544 23.7424605,15.6159993 23.8864612,15.76 C24.0304619,15.9040007 24.1024612,16.0773323 24.1024612,16.28 C24.1024612,16.4826677 24.0304619,16.6533326 23.8864612,16.792 C23.7424605,16.9306674 23.5691289,17 23.3664612,17 L17.6864612,17 Z M36.4261537,17.16 C35.3274816,17.16 34.3514913,16.9173358 33.4981537,16.432 C32.6448161,15.9466642 31.9834894,15.2693377 31.5141537,14.4 C31.0448181,13.5306623 30.8101537,12.5413389 30.8101537,11.432 C30.8101537,10.3013277 31.0554846,9.29867104 31.5461537,8.424 C32.0368229,7.54932896 32.7061495,6.8720024 33.5541537,6.392 C34.402158,5.9119976 35.3434819,5.672 36.3781537,5.672 C37.2101579,5.672 37.9381506,5.77333232 38.5621537,5.976 C39.0613562,6.13813414 39.5451929,6.35146583 40.0136729,6.6159994 L40.3621537,6.824 C40.4474875,6.86666688 40.5221534,6.9413328 40.5861537,7.048 C40.6501541,7.1546672 40.6821537,7.27199936 40.6821537,7.4 C40.6821537,7.58133424 40.620821,7.73599936 40.4981537,7.864 C40.3754865,7.99200064 40.2128214,8.056 40.0101537,8.056 C39.8928198,8.056 39.7808209,8.0293336 39.6741537,7.976 C39.1728179,7.67733184 38.6714896,7.45333408 38.1701537,7.304 C37.6688179,7.15466592 37.1248233,7.08 36.5381537,7.08 C35.727483,7.08 34.9968237,7.25066496 34.3461537,7.592 C33.6954838,7.93333504 33.1861556,8.43199672 32.8181537,9.088 C32.4501519,9.74400328 32.2661537,10.5253288 32.2661537,11.432 C32.2661537,12.2640042 32.4394853,13.0079967 32.7861537,13.664 C33.1328221,14.3200033 33.6341505,14.8373314 34.2901537,15.216 C34.946157,15.5946686 35.7221493,15.784 36.6181537,15.784 C37.6208254,15.784 38.5541494,15.5493357 39.4181537,15.08 L39.4181537,12.184 L36.7781537,12.184 C36.5968195,12.184 36.4421544,12.1200006 36.3141537,11.992 C36.1861531,11.8639994 36.1221537,11.7093342 36.1221537,11.528 C36.1221537,11.3466658 36.1861531,11.1920006 36.3141537,11.064 C36.4421544,10.9359994 36.5968195,10.872 36.7781537,10.872 L39.9301537,10.872 C40.1434881,10.872 40.3248197,10.9466659 40.4741537,11.096 C40.6234878,11.2453341 40.6981537,11.4266656 40.6981537,11.64 L40.6981537,15.272 C40.6981537,15.4960011 40.6421543,15.6959991 40.5301537,15.872 C40.4181532,16.0480009 40.271488,16.1786662 40.0901537,16.264 C38.8954811,16.8613363 37.67416,17.16 36.4261537,17.16 Z M45.028,17.08 C44.8253323,17.08 44.6546674,17.0106674 44.516,16.872 C44.3773326,16.7333326 44.308,16.5626677 44.308,16.36 L44.308,6.568 C44.308,6.36533232 44.3773326,6.19200072 44.516,6.048 C44.6546674,5.90399928 44.8253323,5.832 45.028,5.832 L48.676,5.832 C49.6893384,5.832 50.5159968,6.00266496 51.156,6.344 C51.7960032,6.68533504 52.2546653,7.122664 52.532,7.656 C52.8093347,8.189336 52.948,8.76533024 52.948,9.384 C52.948,10.0026698 52.8093347,10.578664 52.532,11.112 C52.2546653,11.645336 51.7960032,12.082665 51.156,12.424 C50.5159968,12.765335 49.6893384,12.936 48.676,12.936 L45.764,12.936 L45.764,16.36 C45.764,16.5626677 45.6920007,16.7333326 45.548,16.872 C45.4039993,17.0106674 45.2306677,17.08 45.028,17.08 Z M48.532,11.56 C49.6200054,11.56 50.3853311,11.3520021 50.828,10.936 C51.2706689,10.5199979 51.492,10.0026698 51.492,9.384 C51.492,8.76533024 51.2706689,8.24800208 50.828,7.832 C50.3853311,7.41599792 49.6200054,7.208 48.532,7.208 L45.764,7.208 L45.764,11.56 L48.532,11.56 Z M55.0378463,17.08 C54.8245119,17.08 54.6511803,17.0106674 54.5178463,16.872 C54.3845123,16.7333326 54.3178463,16.5626677 54.3178463,16.36 C54.3178463,16.2746662 54.3445127,16.1680006 54.3978463,16.04 L58.4778463,6.408 C58.56318,6.21599904 58.6831788,6.05866728 58.8378463,5.936 C58.9925137,5.81333272 59.1818451,5.752 59.4058463,5.752 L59.5658463,5.752 C59.7898474,5.752 59.9791788,5.81333272 60.1338463,5.936 C60.2885137,6.05866728 60.4085125,6.21599904 60.4938463,6.408 L64.5738463,16.04 C64.6271799,16.1680006 64.6538463,16.2746662 64.6538463,16.36 C64.6538463,16.5626677 64.5871803,16.7333326 64.4538463,16.872 C64.3205123,17.0106674 64.1471807,17.08 63.9338463,17.08 C63.7845122,17.08 63.6485135,17.0400004 63.5258463,16.96 C63.403179,16.8799996 63.3098466,16.7706674 63.2458463,16.632 L62.2058463,14.136 L56.7658463,14.136 L55.7258463,16.632 C55.6618459,16.7706674 55.5685135,16.8799996 55.4458463,16.96 C55.323179,17.0400004 55.1871803,17.08 55.0378463,17.08 Z M57.3258463,12.808 L61.6458463,12.808 L59.4858463,7.608 L57.3258463,12.808 Z M70.8716925,17.16 C69.6876866,17.16 68.5730311,16.9466688 67.5276925,16.52 C67.3996919,16.4666664 67.2983596,16.3893338 67.2236925,16.288 C67.1490255,16.1866662 67.1116925,16.0613341 67.1116925,15.912 C67.1116925,15.7306658 67.1730252,15.573334 67.2956925,15.44 C67.4183598,15.306666 67.5703583,15.24 67.7516925,15.24 C67.847693,15.24 67.9490253,15.2613331 68.0556925,15.304 C68.8236964,15.6133349 69.6716879,15.768 70.5996925,15.768 C71.4316967,15.768 72.133023,15.6320014 72.7036925,15.36 C73.274362,15.0879986 73.5596925,14.6320032 73.5596925,13.992 C73.5596925,12.6959935 72.4637239,12.0248567 70.2717549,11.9785714 L69.7676925,11.976 C69.5863583,11.976 69.4290265,11.909334 69.2956925,11.776 C69.1623585,11.642666 69.0956925,11.4853342 69.0956925,11.304 C69.0956925,11.1226658 69.1623585,10.965334 69.2956925,10.832 C69.4290265,10.698666 69.5863583,10.632 69.7676925,10.632 L69.8636925,10.632 C70.9303645,10.632 71.7463564,10.469335 72.3116925,10.144 C72.8770287,9.81866504 73.1596925,9.3360032 73.1596925,8.696 C73.1596925,8.18399744 72.9463613,7.77866816 72.5196925,7.48 C72.0930237,7.18133184 71.4636967,7.032 70.6316925,7.032 C69.735688,7.032 68.9090296,7.20799824 68.1516925,7.56 C68.0450253,7.60266688 67.9490263,7.624 67.8636925,7.624 C67.7036917,7.624 67.5650264,7.56800056 67.4476925,7.456 C67.3303586,7.34399944 67.2716925,7.20266752 67.2716925,7.032 C67.2716925,6.78666544 67.3783581,6.60533392 67.5916925,6.488 C68.6156976,5.94399728 69.6716871,5.672 70.7596925,5.672 C71.9863653,5.672 72.9356892,5.92266416 73.6076925,6.424 C74.2796959,6.92533584 74.6156925,7.63466208 74.6156925,8.552 C74.6156925,9.28800368 74.4316944,9.86666456 74.0636925,10.288 C73.6956907,10.7093354 73.234362,11.0213323 72.6796925,11.224 C73.2876956,11.3626674 73.8290235,11.6533311 74.3036925,12.096 C74.7783616,12.5386689 75.0156925,13.197329 75.0156925,14.072 C75.0156925,15.0533382 74.6290297,15.8133306 73.8556925,16.352 C73.0823553,16.8906694 72.0876986,17.16 70.8716925,17.16 Z M81.6335388,17.16 C80.4495329,17.16 79.3348773,16.9466688 78.2895388,16.52 C78.1615381,16.4666664 78.0602058,16.3893338 77.9855388,16.288 C77.9108717,16.1866662 77.8735388,16.0613341 77.8735388,15.912 C77.8735388,15.7306658 77.9348715,15.573334 78.0575388,15.44 C78.1802061,15.306666 78.3322045,15.24 78.5135388,15.24 C78.6095393,15.24 78.7108716,15.2613331 78.8175388,15.304 C79.5855426,15.6133349 80.4335341,15.768 81.3615388,15.768 C82.1935429,15.768 82.8948693,15.6320014 83.4655388,15.36 C84.0362083,15.0879986 84.3215388,14.6320032 84.3215388,13.992 C84.3215388,12.6959935 83.2255702,12.0248567 81.0336012,11.9785714 L80.5295388,11.976 C80.3482045,11.976 80.1908728,11.909334 80.0575388,11.776 C79.9242048,11.642666 79.8575388,11.4853342 79.8575388,11.304 C79.8575388,11.1226658 79.9242048,10.965334 80.0575388,10.832 C80.1908728,10.698666 80.3482045,10.632 80.5295388,10.632 L80.6255388,10.632 C81.6922108,10.632 82.5082026,10.469335 83.0735388,10.144 C83.6388749,9.81866504 83.9215388,9.3360032 83.9215388,8.696 C83.9215388,8.18399744 83.7082076,7.77866816 83.2815388,7.48 C82.85487,7.18133184 82.2255429,7.032 81.3935388,7.032 C80.4975343,7.032 79.6708759,7.20799824 78.9135388,7.56 C78.8068716,7.60266688 78.7108725,7.624 78.6255388,7.624 C78.465538,7.624 78.3268727,7.56800056 78.2095388,7.456 C78.0922049,7.34399944 78.0335388,7.20266752 78.0335388,7.032 C78.0335388,6.78666544 78.1402044,6.60533392 78.3535388,6.488 C79.3775439,5.94399728 80.4335333,5.672 81.5215388,5.672 C82.7482116,5.672 83.6975354,5.92266416 84.3695388,6.424 C85.0415421,6.92533584 85.3775388,7.63466208 85.3775388,8.552 C85.3775388,9.28800368 85.1935406,9.86666456 84.8255388,10.288 C84.4575369,10.7093354 83.9962082,11.0213323 83.4415388,11.224 C84.0495418,11.3626674 84.5908697,11.6533311 85.0655388,12.096 C85.5402078,12.5386689 85.7775388,13.197329 85.7775388,14.072 C85.7775388,15.0533382 85.390876,15.8133306 84.6175388,16.352 C83.8442016,16.8906694 82.8495449,17.16 81.6335388,17.16 Z" id="VLGPA33" fill="#3F041D" fill-rule="nonzero"></path>
                        </g>
                        <g id="Group-3" transform="translate(229.000000, 23.000000)">
                            <rect id="Rectangle" fill="url(#linearGradient-5)" x="0" y="1.77635684e-14" width="92" height="24" rx="2"></rect>
                            <path d="M9.25261496,17.08 C8.81527944,17.08 8.48461608,16.8346691 8.26061496,16.344 L4.30861496,6.76 C4.2766148,6.67466624 4.26061496,6.58400048 4.26061496,6.488 C4.26061496,6.26399888 4.32461432,6.085334 4.45261496,5.952 C4.5806156,5.818666 4.75661384,5.752 4.98061496,5.752 C5.12994904,5.752 5.26594768,5.79733288 5.38861496,5.888 C5.51128224,5.97866712 5.60461464,6.09866592 5.66861496,6.248 L9.42861496,15.624 L13.188615,6.248 C13.2526153,6.09866592 13.3459477,5.97866712 13.468615,5.888 C13.5912822,5.79733288 13.7272809,5.752 13.876615,5.752 C14.1006161,5.752 14.2766143,5.818666 14.404615,5.952 C14.5326156,6.085334 14.596615,6.26399888 14.596615,6.488 C14.596615,6.58400048 14.5806151,6.67466624 14.548615,6.76 L10.596615,16.344 C10.3726138,16.8346691 10.0419505,17.08 9.60461496,17.08 L9.25261496,17.08 Z M17.9664612,17.08 C17.7637935,17.08 17.5931286,17.0106674 17.4544612,16.872 C17.3157939,16.7333326 17.2464612,16.5626677 17.2464612,16.36 L17.2464612,6.488 C17.2464612,6.28533232 17.3157939,6.11200072 17.4544612,5.968 C17.5931286,5.82399928 17.7637935,5.752 17.9664612,5.752 C18.1691289,5.752 18.3424605,5.82399928 18.4864612,5.968 C18.6304619,6.11200072 18.7024612,6.28533232 18.7024612,6.488 L18.7024612,10.744 L24.7664612,10.744 L24.7664612,6.488 C24.7664612,6.28533232 24.8357939,6.11200072 24.9744612,5.968 C25.1131286,5.82399928 25.2837935,5.752 25.4864612,5.752 C25.6891289,5.752 25.8624605,5.82399928 26.0064612,5.968 C26.1504619,6.11200072 26.2224612,6.28533232 26.2224612,6.488 L26.2224612,16.36 C26.2224612,16.5626677 26.1504619,16.7333326 26.0064612,16.872 C25.8624605,17.0106674 25.6891289,17.08 25.4864612,17.08 C25.2837935,17.08 25.1131286,17.0106674 24.9744612,16.872 C24.8357939,16.7333326 24.7664612,16.5626677 24.7664612,16.36 L24.7664612,12.104 L18.7024612,12.104 L18.7024612,16.36 C18.7024612,16.5626677 18.6304619,16.7333326 18.4864612,16.872 C18.3424605,17.0106674 18.1691289,17.08 17.9664612,17.08 Z M39.8581537,17.16 C38.7594816,17.16 37.7834913,16.9173358 36.9301537,16.432 C36.0768161,15.9466642 35.4154894,15.2693377 34.9461537,14.4 C34.4768181,13.5306623 34.2421537,12.5413389 34.2421537,11.432 C34.2421537,10.3013277 34.4874846,9.29867104 34.9781537,8.424 C35.4688229,7.54932896 36.1381495,6.8720024 36.9861537,6.392 C37.834158,5.9119976 38.7754819,5.672 39.8101537,5.672 C40.6421579,5.672 41.3701506,5.77333232 41.9941537,5.976 C42.4933562,6.13813414 42.9771929,6.35146583 43.4456729,6.6159994 L43.7941537,6.824 C43.8794875,6.86666688 43.9541534,6.9413328 44.0181537,7.048 C44.0821541,7.1546672 44.1141537,7.27199936 44.1141537,7.4 C44.1141537,7.58133424 44.052821,7.73599936 43.9301537,7.864 C43.8074865,7.99200064 43.6448214,8.056 43.4421537,8.056 C43.3248198,8.056 43.2128209,8.0293336 43.1061537,7.976 C42.6048179,7.67733184 42.1034896,7.45333408 41.6021537,7.304 C41.1008179,7.15466592 40.5568233,7.08 39.9701537,7.08 C39.159483,7.08 38.4288237,7.25066496 37.7781537,7.592 C37.1274838,7.93333504 36.6181556,8.43199672 36.2501537,9.088 C35.8821519,9.74400328 35.6981537,10.5253288 35.6981537,11.432 C35.6981537,12.2640042 35.8714853,13.0079967 36.2181537,13.664 C36.5648221,14.3200033 37.0661505,14.8373314 37.7221537,15.216 C38.378157,15.5946686 39.1541493,15.784 40.0501537,15.784 C41.0528254,15.784 41.9861494,15.5493357 42.8501537,15.08 L42.8501537,12.184 L40.2101537,12.184 C40.0288195,12.184 39.8741544,12.1200006 39.7461537,11.992 C39.6181531,11.8639994 39.5541537,11.7093342 39.5541537,11.528 C39.5541537,11.3466658 39.6181531,11.1920006 39.7461537,11.064 C39.8741544,10.9359994 40.0288195,10.872 40.2101537,10.872 L43.3621537,10.872 C43.5754881,10.872 43.7568197,10.9466659 43.9061537,11.096 C44.0554878,11.2453341 44.1301537,11.4266656 44.1301537,11.64 L44.1301537,15.272 C44.1301537,15.4960011 44.0741543,15.6959991 43.9621537,15.872 C43.8501532,16.0480009 43.703488,16.1786662 43.5221537,16.264 C42.3274811,16.8613363 41.10616,17.16 39.8581537,17.16 Z M48.46,17.08 C48.2573323,17.08 48.0866674,17.0106674 47.948,16.872 C47.8093326,16.7333326 47.74,16.5626677 47.74,16.36 L47.74,6.568 C47.74,6.36533232 47.8093326,6.19200072 47.948,6.048 C48.0866674,5.90399928 48.2573323,5.832 48.46,5.832 L52.108,5.832 C53.1213384,5.832 53.9479968,6.00266496 54.588,6.344 C55.2280032,6.68533504 55.6866653,7.122664 55.964,7.656 C56.2413347,8.189336 56.38,8.76533024 56.38,9.384 C56.38,10.0026698 56.2413347,10.578664 55.964,11.112 C55.6866653,11.645336 55.2280032,12.082665 54.588,12.424 C53.9479968,12.765335 53.1213384,12.936 52.108,12.936 L49.196,12.936 L49.196,16.36 C49.196,16.5626677 49.1240007,16.7333326 48.98,16.872 C48.8359993,17.0106674 48.6626677,17.08 48.46,17.08 Z M51.964,11.56 C53.0520054,11.56 53.8173311,11.3520021 54.26,10.936 C54.7026689,10.5199979 54.924,10.0026698 54.924,9.384 C54.924,8.76533024 54.7026689,8.24800208 54.26,7.832 C53.8173311,7.41599792 53.0520054,7.208 51.964,7.208 L49.196,7.208 L49.196,11.56 L51.964,11.56 Z M58.4698463,17.08 C58.2565119,17.08 58.0831803,17.0106674 57.9498463,16.872 C57.8165123,16.7333326 57.7498463,16.5626677 57.7498463,16.36 C57.7498463,16.2746662 57.7765127,16.1680006 57.8298463,16.04 L61.9098463,6.408 C61.99518,6.21599904 62.1151788,6.05866728 62.2698463,5.936 C62.4245137,5.81333272 62.6138451,5.752 62.8378463,5.752 L62.9978463,5.752 C63.2218474,5.752 63.4111788,5.81333272 63.5658463,5.936 C63.7205137,6.05866728 63.8405125,6.21599904 63.9258463,6.408 L68.0058463,16.04 C68.0591799,16.1680006 68.0858463,16.2746662 68.0858463,16.36 C68.0858463,16.5626677 68.0191803,16.7333326 67.8858463,16.872 C67.7525123,17.0106674 67.5791807,17.08 67.3658463,17.08 C67.2165122,17.08 67.0805135,17.0400004 66.9578463,16.96 C66.835179,16.8799996 66.7418466,16.7706674 66.6778463,16.632 L65.6378463,14.136 L60.1978463,14.136 L59.1578463,16.632 C59.0938459,16.7706674 59.0005135,16.8799996 58.8778463,16.96 C58.755179,17.0400004 58.6191803,17.08 58.4698463,17.08 Z M60.7578463,12.808 L65.0778463,12.808 L62.9178463,7.608 L60.7578463,12.808 Z M74.3036925,17.16 C73.1196866,17.16 72.0050311,16.9466688 70.9596925,16.52 C70.8316919,16.4666664 70.7303596,16.3893338 70.6556925,16.288 C70.5810255,16.1866662 70.5436925,16.0613341 70.5436925,15.912 C70.5436925,15.7306658 70.6050252,15.573334 70.7276925,15.44 C70.8503598,15.306666 71.0023583,15.24 71.1836925,15.24 C71.279693,15.24 71.3810253,15.2613331 71.4876925,15.304 C72.2556964,15.6133349 73.1036879,15.768 74.0316925,15.768 C74.8636967,15.768 75.565023,15.6320014 76.1356925,15.36 C76.706362,15.0879986 76.9916925,14.6320032 76.9916925,13.992 C76.9916925,12.6959935 75.8957239,12.0248567 73.7037549,11.9785714 L73.1996925,11.976 C73.0183583,11.976 72.8610265,11.909334 72.7276925,11.776 C72.5943585,11.642666 72.5276925,11.4853342 72.5276925,11.304 C72.5276925,11.1226658 72.5943585,10.965334 72.7276925,10.832 C72.8610265,10.698666 73.0183583,10.632 73.1996925,10.632 L73.2956925,10.632 C74.3623645,10.632 75.1783564,10.469335 75.7436925,10.144 C76.3090287,9.81866504 76.5916925,9.3360032 76.5916925,8.696 C76.5916925,8.18399744 76.3783613,7.77866816 75.9516925,7.48 C75.5250237,7.18133184 74.8956967,7.032 74.0636925,7.032 C73.167688,7.032 72.3410296,7.20799824 71.5836925,7.56 C71.4770253,7.60266688 71.3810263,7.624 71.2956925,7.624 C71.1356917,7.624 70.9970264,7.56800056 70.8796925,7.456 C70.7623586,7.34399944 70.7036925,7.20266752 70.7036925,7.032 C70.7036925,6.78666544 70.8103581,6.60533392 71.0236925,6.488 C72.0476976,5.94399728 73.1036871,5.672 74.1916925,5.672 C75.4183653,5.672 76.3676892,5.92266416 77.0396925,6.424 C77.7116959,6.92533584 78.0476925,7.63466208 78.0476925,8.552 C78.0476925,9.28800368 77.8636944,9.86666456 77.4956925,10.288 C77.1276907,10.7093354 76.666362,11.0213323 76.1116925,11.224 C76.7196956,11.3626674 77.2610235,11.6533311 77.7356925,12.096 C78.2103616,12.5386689 78.4476925,13.197329 78.4476925,14.072 C78.4476925,15.0533382 78.0610297,15.8133306 77.2876925,16.352 C76.5143553,16.8906694 75.5196986,17.16 74.3036925,17.16 Z M85.0655388,17.16 C83.8815329,17.16 82.7668773,16.9466688 81.7215388,16.52 C81.5935381,16.4666664 81.4922058,16.3893338 81.4175388,16.288 C81.3428717,16.1866662 81.3055388,16.0613341 81.3055388,15.912 C81.3055388,15.7306658 81.3668715,15.573334 81.4895388,15.44 C81.6122061,15.306666 81.7642045,15.24 81.9455388,15.24 C82.0415393,15.24 82.1428716,15.2613331 82.2495388,15.304 C83.0175426,15.6133349 83.8655341,15.768 84.7935388,15.768 C85.6255429,15.768 86.3268693,15.6320014 86.8975388,15.36 C87.4682083,15.0879986 87.7535388,14.6320032 87.7535388,13.992 C87.7535388,12.6959935 86.6575702,12.0248567 84.4656012,11.9785714 L83.9615388,11.976 C83.7802045,11.976 83.6228728,11.909334 83.4895388,11.776 C83.3562048,11.642666 83.2895388,11.4853342 83.2895388,11.304 C83.2895388,11.1226658 83.3562048,10.965334 83.4895388,10.832 C83.6228728,10.698666 83.7802045,10.632 83.9615388,10.632 L84.0575388,10.632 C85.1242108,10.632 85.9402026,10.469335 86.5055388,10.144 C87.0708749,9.81866504 87.3535388,9.3360032 87.3535388,8.696 C87.3535388,8.18399744 87.1402076,7.77866816 86.7135388,7.48 C86.28687,7.18133184 85.6575429,7.032 84.8255388,7.032 C83.9295343,7.032 83.1028759,7.20799824 82.3455388,7.56 C82.2388716,7.60266688 82.1428725,7.624 82.0575388,7.624 C81.897538,7.624 81.7588727,7.56800056 81.6415388,7.456 C81.5242049,7.34399944 81.4655388,7.20266752 81.4655388,7.032 C81.4655388,6.78666544 81.5722044,6.60533392 81.7855388,6.488 C82.8095439,5.94399728 83.8655333,5.672 84.9535388,5.672 C86.1802116,5.672 87.1295354,5.92266416 87.8015388,6.424 C88.4735421,6.92533584 88.8095388,7.63466208 88.8095388,8.552 C88.8095388,9.28800368 88.6255406,9.86666456 88.2575388,10.288 C87.8895369,10.7093354 87.4282082,11.0213323 86.8735388,11.224 C87.4815418,11.3626674 88.0228697,11.6533311 88.4975388,12.096 C88.9722078,12.5386689 89.2095388,13.197329 89.2095388,14.072 C89.2095388,15.0533382 88.822876,15.8133306 88.0495388,16.352 C87.2762016,16.8906694 86.2815449,17.16 85.0655388,17.16 Z" id="VHGPA33" fill="#3F041D" fill-rule="nonzero"></path>
                        </g>
                        <g id="Group-3" transform="translate(377.000000, 23.000000)">
                            <rect id="Rectangle" fill="url(#linearGradient-6)" x="0" y="0" width="100" height="24" rx="2"></rect>
                            <path d="M9.1627687,17.16 C7.80809526,17.16 6.53877462,16.9040026 5.3547687,16.392 C5.22676806,16.3386664 5.12010246,16.2506673 5.0347687,16.128 C4.94943494,16.0053327 4.9067687,15.8746674 4.9067687,15.736 C4.9067687,15.5546658 4.96810142,15.397334 5.0907687,15.264 C5.21343598,15.130666 5.37076774,15.064 5.5627687,15.064 C5.6694359,15.064 5.77076822,15.0853331 5.8667687,15.128 C6.84810694,15.5653355 7.8987631,15.784 9.0187687,15.784 C10.8854447,15.784 11.8187687,15.1706728 11.8187687,13.944 C11.8187687,13.6239984 11.6987699,13.3573344 11.4587687,13.144 C11.2187675,12.9306656 10.9227705,12.7626673 10.5707687,12.64 C10.2627672,12.5326661 9.84043747,12.4069589 9.30376956,12.2628752 L9.0667687,12.2 C8.20276438,11.9759989 7.5041047,11.760001 6.9707687,11.552 C6.4374327,11.343999 5.97877062,11.0320021 5.5947687,10.616 C5.21076678,10.1999979 5.0187687,9.6453368 5.0187687,8.952 C5.0187687,8.34399696 5.1787671,7.79200248 5.4987687,7.296 C5.8187703,6.79999752 6.29076558,6.4053348 6.9147687,6.112 C7.53877182,5.8186652 8.28809766,5.672 9.1627687,5.672 C10.3361079,5.672 11.3974306,5.84799824 12.3467687,6.2 C12.6454369,6.3066672 12.7947687,6.5199984 12.7947687,6.84 C12.7947687,7.01066752 12.7361026,7.16533264 12.6187687,7.304 C12.5014348,7.44266736 12.3467697,7.512 12.1547687,7.512 C12.0907684,7.512 12.0054359,7.49066688 11.8987687,7.448 C11.0667645,7.15999856 10.2081065,7.016 9.3227687,7.016 C8.48009782,7.016 7.79477134,7.1759984 7.2667687,7.496 C6.73876606,7.8160016 6.4747687,8.26399712 6.4747687,8.84 C6.4747687,9.22400192 6.60010078,9.5359988 6.8507687,9.776 C7.10143662,10.0160012 7.41610014,10.202666 7.7947687,10.336 C8.11934175,10.4502863 8.54382799,10.5704486 9.06823716,10.6964896 L9.3387687,10.76 C10.1814396,10.9626677 10.8614328,11.1653323 11.3787687,11.368 C11.8961046,11.5706677 12.3387669,11.8853312 12.7067687,12.312 C13.0747705,12.7386688 13.2587687,13.314663 13.2587687,14.04 C13.2587687,14.6373363 13.0881037,15.173331 12.7467687,15.648 C12.4054337,16.122669 11.9254385,16.493332 11.3067687,16.76 C10.6880989,17.026668 9.97343942,17.16 9.1627687,17.16 Z M16.516615,20.76 C16.3139473,20.76 16.1432823,20.6880007 16.004615,20.544 C15.8659476,20.3999993 15.796615,20.2266677 15.796615,20.024 L15.796615,9.48 C15.796615,9.27733232 15.8659476,9.10666736 16.004615,8.968 C16.1432823,8.82933264 16.3139473,8.76 16.516615,8.76 C16.7192826,8.76 16.8926142,8.82933264 17.036615,8.968 C17.1806157,9.10666736 17.252615,9.27733232 17.252615,9.48 L17.252615,9.896 C18.0312855,9.08532928 18.9432764,8.68 19.988615,8.68 C20.6499516,8.68 21.276612,8.84799832 21.868615,9.184 C22.4606179,9.52000168 22.9406131,10.0106634 23.308615,10.656 C23.6766168,11.3013366 23.860615,12.0559957 23.860615,12.92 C23.860615,13.7840043 23.6766168,14.5386634 23.308615,15.184 C22.9406131,15.8293366 22.4606179,16.3199983 21.868615,16.656 C21.276612,16.9920017 20.6499516,17.16 19.988615,17.16 C18.9432764,17.16 18.0312855,16.7546707 17.252615,15.944 L17.252615,20.024 C17.252615,20.2373344 17.1832823,20.4133326 17.044615,20.552 C16.9059476,20.6906674 16.7299494,20.76 16.516615,20.76 Z M19.780615,15.8 C20.5699522,15.8 21.2046126,15.5493358 21.684615,15.048 C22.1646174,14.5466642 22.404615,13.8373379 22.404615,12.92 C22.404615,12.0026621 22.1646174,11.2933358 21.684615,10.792 C21.2046126,10.2906642 20.5699522,10.04 19.780615,10.04 C19.2899458,10.04 18.8286171,10.1493322 18.396615,10.368 C17.9646128,10.5866678 17.5832833,10.8773315 17.252615,11.24 L17.252615,14.6 C17.5832833,14.9626685 17.9646128,15.2533322 18.396615,15.472 C18.8286171,15.6906678 19.2899458,15.8 19.780615,15.8 Z M28.3184612,20.76 C28.1264603,20.76 27.9637952,20.6906674 27.8304612,20.552 C27.6971272,20.4133326 27.6304612,20.248001 27.6304612,20.056 C27.6304612,19.9706662 27.6464612,19.8853338 27.6784612,19.8 L28.7184612,17.128 L25.7104612,9.8 C25.6677943,9.6933328 25.6464612,9.59200048 25.6464612,9.496 C25.6464612,9.29333232 25.7157939,9.12000072 25.8544612,8.976 C25.9931286,8.83199928 26.1637935,8.76 26.3664612,8.76 C26.5157953,8.76 26.6517939,8.80266624 26.7744612,8.888 C26.8971285,8.97333376 26.9851276,9.07999936 27.0384612,9.208 L29.5024612,15.32 L32.0144612,9.24 C32.1531286,8.9199984 32.3771263,8.76 32.6864612,8.76 C32.8891289,8.76 33.0597939,8.83199928 33.1984612,8.976 C33.3371286,9.12000072 33.4064612,9.29333232 33.4064612,9.496 C33.4064612,9.59200048 33.3904614,9.68266624 33.3584612,9.768 L28.9904612,20.264 C28.8411271,20.5946683 28.6171294,20.76 28.3184612,20.76 Z M41.0163075,17.16 C39.9496355,17.16 38.9923117,16.9280023 38.1443075,16.464 C37.2963032,15.9999977 36.6296432,15.3333377 36.1443075,14.464 C35.6589717,13.5946623 35.4163075,12.5786725 35.4163075,11.416 C35.4163075,10.2533275 35.6589717,9.23733768 36.1443075,8.368 C36.6296432,7.49866232 37.2963032,6.83200232 38.1443075,6.368 C38.9923117,5.90399768 39.9496355,5.672 41.0163075,5.672 C41.7416444,5.672 42.389638,5.75733248 42.9603075,5.928 C43.530977,6.09866752 44.0989713,6.3439984 44.6643075,6.664 C44.8989753,6.79200064 45.0163075,6.99466528 45.0163075,7.272 C45.0163075,7.4320008 44.9576414,7.57333272 44.8403075,7.696 C44.7229736,7.81866728 44.5683084,7.88 44.3763075,7.88 C44.2696403,7.88 44.1736412,7.85866688 44.0883075,7.816 C43.6189718,7.57066544 43.1603097,7.38400064 42.7123075,7.256 C42.2643052,7.12799936 41.7469771,7.064 41.1603075,7.064 C40.2429696,7.064 39.461644,7.25333144 38.8163075,7.632 C38.1709709,8.01066856 37.6856424,8.52799672 37.3603075,9.184 C37.0349725,9.84000328 36.8723075,10.5839958 36.8723075,11.416 C36.8723075,12.2480042 37.0349725,12.9919967 37.3603075,13.648 C37.6856424,14.3040033 38.1709709,14.8213314 38.8163075,15.2 C39.461644,15.5786686 40.2429696,15.768 41.1603075,15.768 C41.7469771,15.768 42.2643052,15.7040006 42.7123075,15.576 C43.1603097,15.4479994 43.6189718,15.2613346 44.0883075,15.016 C44.1736412,14.9733331 44.2696403,14.952 44.3763075,14.952 C44.5683084,14.952 44.7229736,15.0106661 44.8403075,15.128 C44.9576414,15.2453339 45.0163075,15.3893325 45.0163075,15.56 C45.0163075,15.8373347 44.8989753,16.0399994 44.6643075,16.168 C44.0989713,16.4880016 43.530977,16.7333325 42.9603075,16.904 C42.389638,17.0746675 41.7416444,17.16 41.0163075,17.16 Z M49.7141537,17.16 C49.2448181,17.16 48.8101557,17.064001 48.4101537,16.872 C48.0101517,16.68 47.6928216,16.4000018 47.4581537,16.032 C47.2234859,15.6639982 47.1061537,15.2400024 47.1061537,14.76 C47.1061537,13.9706627 47.4181506,13.3413357 48.0421537,12.872 C48.6661569,12.4026643 49.5808144,12.168 50.7861537,12.168 L52.7221537,12.168 L52.7221537,12.04 C52.7221537,11.3359965 52.5488221,10.8293349 52.2021537,10.52 C51.8554853,10.2106651 51.3141574,10.056 50.5781537,10.056 C50.1728184,10.056 49.812822,10.0879997 49.4981537,10.152 C49.1834855,10.2160003 48.8341557,10.3119994 48.4501537,10.44 C48.36482,10.4613334 48.2954873,10.472 48.2421537,10.472 C48.0821529,10.472 47.9434877,10.4133339 47.8261537,10.296 C47.7088198,10.1786661 47.6501537,10.0346675 47.6501537,9.864 C47.6501537,9.57599856 47.788819,9.37333392 48.0661537,9.256 C48.9728249,8.87199808 49.8954824,8.68 50.8341537,8.68 C51.5701574,8.68 52.1914845,8.82933184 52.6981537,9.128 C53.2048229,9.42666816 53.5781525,9.81333096 53.8181537,10.288 C54.0581549,10.762669 54.1781537,11.2773306 54.1781537,11.832 L54.1781537,16.36 C54.1781537,16.5626677 54.1061537,16.7333326 53.9621537,16.872 C53.818153,17.0106674 53.6448214,17.08 53.4421537,17.08 C53.2394861,17.08 53.0688211,17.0106674 52.9301537,16.872 C52.7914864,16.7333326 52.7221537,16.5626677 52.7221537,16.36 L52.7221537,15.944 C51.9328165,16.7546707 50.9301598,17.16 49.7141537,17.16 Z M50.2581537,15.88 C50.7274894,15.88 51.1808182,15.7653345 51.6181537,15.536 C52.0554893,15.3066655 52.4234856,15.021335 52.7221537,14.68 L52.7221537,13.336 L50.9781537,13.336 C49.367479,13.336 48.5621537,13.7573291 48.5621537,14.6 C48.5621537,14.9840019 48.6928191,15.2933322 48.9541537,15.528 C49.2154884,15.7626678 49.6501507,15.88 50.2581537,15.88 Z M59.964,17.16 C58.4066589,17.16 57.628,16.456007 57.628,15.048 L57.628,10.088 L56.492,10.088 C56.4066662,10.088 56.334667,10.058667 56.276,10 C56.217333,9.94133304 56.188,9.86933376 56.188,9.784 C56.188,9.6773328 56.2359995,9.58666704 56.332,9.512 L58.508,7.384 C58.6040005,7.28799952 58.6946662,7.24 58.78,7.24 C58.8653338,7.24 58.937333,7.27199968 58.996,7.336 C59.054667,7.40000032 59.084,7.47466624 59.084,7.56 L59.084,8.84 L60.892,8.84 C61.0733342,8.84 61.2226661,8.89866608 61.34,9.016 C61.4573339,9.13333392 61.516,9.28266576 61.516,9.464 C61.516,9.63466752 61.4573339,9.78133272 61.34,9.904 C61.2226661,10.0266673 61.0733342,10.088 60.892,10.088 L59.084,10.088 L59.084,14.92 C59.084,15.3360021 59.1826657,15.5999994 59.38,15.712 C59.5773343,15.8240006 59.8253318,15.88 60.124,15.88 C60.2840008,15.88 60.4439998,15.8620002 60.6039997,15.8260001 L60.764,15.784 C60.8066669,15.7733333 60.8519998,15.7626667 60.9,15.752 C60.9480002,15.7413333 61.009333,15.736 61.084,15.736 C61.2333341,15.736 61.3666661,15.7919994 61.484,15.904 C61.6013339,16.0160006 61.66,16.1519992 61.66,16.312 C61.66,16.5573346 61.5373346,16.7439994 61.292,16.872 C60.8759979,17.064001 60.4333357,17.16 59.964,17.16 Z M67.6378463,17.16 C66.8698424,17.16 66.1605162,16.989335 65.5098463,16.648 C64.8591763,16.306665 64.3391815,15.8160032 63.9498463,15.176 C63.560511,14.5359968 63.3658463,13.7840043 63.3658463,12.92 C63.3658463,12.0559957 63.560511,11.3040032 63.9498463,10.664 C64.3391815,10.0239968 64.8591763,9.53333504 65.5098463,9.192 C66.1605162,8.85066496 66.8698424,8.68 67.6378463,8.68 C68.2031824,8.68 68.6911775,8.75199928 69.1018463,8.896 C69.512515,9.04000072 69.8938445,9.22399888 70.2458463,9.448 C70.4591807,9.58666736 70.5658463,9.77333216 70.5658463,10.008 C70.5658463,10.1680008 70.5045135,10.314666 70.3818463,10.448 C70.259179,10.581334 70.1178471,10.648 69.9578463,10.648 C69.8698458,10.648 69.7818464,10.6300002 69.6938464,10.5940001 L69.6058463,10.552 C69.2538445,10.3706658 68.9525142,10.2400004 68.7018463,10.16 C68.4511783,10.0799996 68.1391815,10.04 67.7658463,10.04 C66.8485083,10.04 66.1285155,10.3039974 65.6058463,10.832 C65.083177,11.3600026 64.8218463,12.0559957 64.8218463,12.92 C64.8218463,13.7840043 65.083177,14.4799974 65.6058463,15.008 C66.1285155,15.5360026 66.8485083,15.8 67.7658463,15.8 C68.1391815,15.8 68.4511783,15.7600004 68.7018463,15.68 C68.9023806,15.6159997 69.1353389,15.5195738 69.4007257,15.3907203 L69.6058463,15.288 C69.7231802,15.2239997 69.8405123,15.192 69.9578463,15.192 C70.1178471,15.192 70.259179,15.258666 70.3818463,15.392 C70.5045135,15.525334 70.5658463,15.6719992 70.5658463,15.832 C70.5658463,16.0666678 70.4591807,16.2533326 70.2458463,16.392 C69.8938445,16.6160011 69.512515,16.7999993 69.1018463,16.944 C68.6911775,17.0880007 68.2031824,17.16 67.6378463,17.16 Z M73.8236925,17.08 C73.6210248,17.08 73.4503599,17.0106674 73.3116925,16.872 C73.1730252,16.7333326 73.1036925,16.5626677 73.1036925,16.36 L73.1036925,5.976 C73.1036925,5.77333232 73.1730252,5.60000072 73.3116925,5.456 C73.4503599,5.31199928 73.6210248,5.24 73.8236925,5.24 C74.0263602,5.24 74.1996918,5.31199928 74.3436925,5.456 C74.4876932,5.60000072 74.5596925,5.77333232 74.5596925,5.976 L74.5596925,10.152 C74.9650279,9.70399776 75.4023568,9.346668 75.8716925,9.08 C76.3410282,8.813332 76.8956893,8.68 77.5356925,8.68 C78.1223621,8.68 78.6316904,8.81866528 79.0636925,9.096 C79.4956947,9.37333472 79.826358,9.7519976 80.0556925,10.232 C80.285027,10.7120024 80.3996925,11.24 80.3996925,11.816 L80.3996925,16.36 C80.3996925,16.5626677 80.3276932,16.7333326 80.1836925,16.872 C80.0396918,17.0106674 79.8663602,17.08 79.6636925,17.08 C79.4610248,17.08 79.2903599,17.0106674 79.1516925,16.872 C79.0130252,16.7333326 78.9436925,16.5626677 78.9436925,16.36 L78.9436925,11.976 C78.9436925,10.6746602 78.3570317,10.024 77.1836925,10.024 C76.6503565,10.024 76.173028,10.1626653 75.7516925,10.44 C75.3303571,10.7173347 74.9330277,11.0906643 74.5596925,11.56 L74.5596925,16.36 C74.5596925,16.5626677 74.4876932,16.7333326 74.3436925,16.872 C74.1996918,17.0106674 74.0263602,17.08 73.8236925,17.08 Z M87.2095388,17.16 C85.9081989,17.16 84.8922091,16.789337 84.1615388,16.048 C83.4308685,15.306663 83.0655388,14.2640067 83.0655388,12.92 C83.0655388,12.1626629 83.2042041,11.4640032 83.4815388,10.824 C83.7588735,10.1839968 84.1855359,9.66666864 84.7615388,9.272 C85.3375417,8.87733136 86.0468679,8.68 86.8895388,8.68 C87.6788761,8.68 88.3615359,8.86399816 88.9375388,9.232 C89.5135417,9.60000184 89.9508706,10.0906636 90.2495388,10.704 C90.5482069,11.3173364 90.6975388,11.986663 90.6975388,12.712 C90.6975388,12.9146677 90.6308728,13.0853326 90.4975388,13.224 C90.3642048,13.3626674 90.1855399,13.432 89.9615388,13.432 L84.5375388,13.432 C84.6228725,14.1786704 84.9002031,14.7599979 85.3695388,15.176 C85.8388745,15.5920021 86.4948679,15.8 87.3375388,15.8 C87.785541,15.8 88.1775371,15.7573338 88.5135388,15.672 C88.8495405,15.5866662 89.1775372,15.4640008 89.4975388,15.304 C89.5828725,15.2613331 89.6788716,15.24 89.7855388,15.24 C89.9562063,15.24 90.1055381,15.2986661 90.2335388,15.416 C90.3615394,15.5333339 90.4255388,15.6826658 90.4255388,15.864 C90.4255388,16.0986678 90.2868735,16.2959992 90.0095388,16.456 C89.5935367,16.6906678 89.1828741,16.8666661 88.7775388,16.984 C88.3722034,17.1013339 87.849542,17.16 87.2095388,17.16 Z M89.2575388,12.248 C89.2255386,11.7253307 89.08954,11.2880018 88.8495388,10.936 C88.6095376,10.5839982 88.3135405,10.3253342 87.9615388,10.16 C87.609537,9.99466584 87.2522073,9.912 86.8895388,9.912 C86.5268703,9.912 86.1695405,9.99466584 85.8175388,10.16 C85.465537,10.3253342 85.1722066,10.5839982 84.9375388,10.936 C84.7028709,11.2880018 84.5695389,11.7253307 84.5375388,12.248 L89.2575388,12.248 Z M94.051385,17.08 C93.8487174,17.08 93.6780524,17.0106674 93.539385,16.872 C93.4007177,16.7333326 93.331385,16.5626677 93.331385,16.36 L93.331385,9.496 C93.331385,9.29333232 93.4007177,9.12000072 93.539385,8.976 C93.6780524,8.83199928 93.8487174,8.76 94.051385,8.76 C94.2540527,8.76 94.4273843,8.83199928 94.571385,8.976 C94.7153858,9.12000072 94.787385,9.29333232 94.787385,9.496 L94.787385,10.184 C95.5340554,9.18132832 96.3713804,8.68 97.299385,8.68 L97.379385,8.68 C97.5820527,8.68 97.750051,8.74933264 97.883385,8.888 C98.016719,9.02666736 98.083385,9.19733232 98.083385,9.4 C98.083385,9.60266768 98.0140524,9.76799936 97.875385,9.896 C97.7367177,10.0240006 97.5607194,10.088 97.347385,10.088 L97.267385,10.088 C96.7553825,10.088 96.2860538,10.2133321 95.859385,10.464 C95.4327162,10.7146679 95.0753865,11.0586645 94.787385,11.496 L94.787385,16.36 C94.787385,16.5626677 94.7153858,16.7333326 94.571385,16.872 C94.4273843,17.0106674 94.2540527,17.08 94.051385,17.08 Z" id="SpyCatcher" fill="#3F041D" fill-rule="nonzero"></path>
                        </g>
                        <g id="Group-4" transform="translate(158.000000, 23.000000)">
                            <rect id="Rectangle" fill="url(#linearGradient-7)" x="0" y="0" width="69" height="24" rx="2"></rect>
                            <path d="M12.0713843,17.08 C11.8687166,17.08 11.6980516,17.0106674 11.5593843,16.872 C11.4207169,16.7333326 11.3513843,16.5626677 11.3513843,16.36 L11.3513843,14.184 L6.47138426,14.184 C6.21538298,14.184 5.9967185,14.0960009 5.81538426,13.92 C5.63405002,13.7439991 5.54338426,13.5280013 5.54338426,13.272 L5.54338426,13.128 C5.54338426,12.9039989 5.60738362,12.7120008 5.73538426,12.552 L10.7593843,6.136 C10.844718,6.01866608 10.9593835,5.92533368 11.1033843,5.856 C11.247385,5.78666632 11.3993835,5.752 11.5593843,5.752 L11.8793843,5.752 C12.156719,5.752 12.3807167,5.83999912 12.5513843,6.016 C12.7220518,6.19200088 12.8073843,6.413332 12.8073843,6.68 L12.8073843,12.888 L14.0233843,12.888 C14.2047185,12.888 14.3593836,12.9519994 14.4873843,13.08 C14.6153849,13.2080006 14.6793843,13.3626658 14.6793843,13.544 C14.6793843,13.7253342 14.6153849,13.8773327 14.4873843,14 C14.3593836,14.1226673 14.2047185,14.184 14.0233843,14.184 L12.8073843,14.184 L12.8073843,16.36 C12.8073843,16.5626677 12.735385,16.7333326 12.5913843,16.872 C12.4473835,17.0106674 12.2740519,17.08 12.0713843,17.08 Z M7.09538426,12.888 L11.3513843,12.888 L11.3513843,7.4 L7.09538426,12.888 Z M17.4092305,17.08 C17.1958961,17.08 17.0278978,17.013334 16.9052305,16.88 C16.7825632,16.746666 16.7212305,16.5680011 16.7212305,16.344 C16.7212305,16.1839992 16.7745633,16.0346674 16.8812305,15.896 L19.3612305,12.968 L16.8812305,9.944 C16.7638966,9.79466592 16.7052305,9.6400008 16.7052305,9.48 C16.7052305,9.2666656 16.7745632,9.093334 16.9132305,8.96 C17.0518979,8.826666 17.2225628,8.76 17.4252305,8.76 C17.6812318,8.76 17.8732299,8.85066576 18.0012305,9.032 L20.2412305,11.8 L22.4652305,9.032 C22.5932312,8.85066576 22.779896,8.76 23.0252305,8.76 C23.2385649,8.76 23.4145632,8.826666 23.5532305,8.96 C23.6918979,9.093334 23.7612305,9.25599904 23.7612305,9.448 C23.7612305,9.6080008 23.7078977,9.75733264 23.6012305,9.896 L21.0732305,12.872 L23.5692305,15.88 C23.6865644,16.0080006 23.7452305,16.1626658 23.7452305,16.344 C23.7452305,16.5466677 23.6812312,16.7199993 23.5532305,16.864 C23.4252299,17.0080007 23.2438984,17.08 23.0092305,17.08 C22.813674,17.08 22.6514529,17.013334 22.522564,16.8800003 L20.1772305,14.072 L18.0332305,16.76 C17.8732297,16.9733344 17.6652318,17.08 17.4092305,17.08 Z M27.3710768,19.112 C27.1790758,19.112 27.0137441,19.0426674 26.8750768,18.904 C26.7364094,18.7653326 26.6670768,18.600001 26.6670768,18.408 L26.6670768,5.992 C26.6670768,5.79999904 26.7364094,5.63466736 26.8750768,5.496 C27.0137441,5.35733264 27.1790758,5.288 27.3710768,5.288 L29.4030768,5.288 C29.5630776,5.288 29.6990762,5.34399944 29.8110768,5.456 C29.9230773,5.56800056 29.9790768,5.7039992 29.9790768,5.864 C29.9790768,6.0240008 29.9230773,6.15999944 29.8110768,6.272 C29.6990762,6.38400056 29.5630776,6.44 29.4030768,6.44 L27.9310768,6.44 L27.9310768,17.976 L29.4030768,17.976 C29.5630776,17.976 29.6990762,18.0319994 29.8110768,18.144 C29.9230773,18.2560006 29.9790768,18.3866659 29.9790768,18.536 C29.9790768,18.6853341 29.9230773,18.8186661 29.8110768,18.936 C29.6990762,19.0533339 29.5630776,19.112 29.4030768,19.112 L27.3710768,19.112 Z M37.364923,17.16 C36.2662509,17.16 35.2902606,16.9173358 34.436923,16.432 C33.5835854,15.9466642 32.9222587,15.2693377 32.452923,14.4 C31.9835874,13.5306623 31.748923,12.5413389 31.748923,11.432 C31.748923,10.3013277 31.9942539,9.29867104 32.484923,8.424 C32.9755922,7.54932896 33.6449188,6.8720024 34.492923,6.392 C35.3409273,5.9119976 36.2822512,5.672 37.316923,5.672 C38.1489272,5.672 38.8769199,5.77333232 39.500923,5.976 C40.0001255,6.13813414 40.4839622,6.35146583 40.9524422,6.6159994 L41.300923,6.824 C41.3862568,6.86666688 41.4609227,6.9413328 41.524923,7.048 C41.5889234,7.1546672 41.620923,7.27199936 41.620923,7.4 C41.620923,7.58133424 41.5595903,7.73599936 41.436923,7.864 C41.3142558,7.99200064 41.1515907,8.056 40.948923,8.056 C40.8315891,8.056 40.7195902,8.0293336 40.612923,7.976 C40.1115872,7.67733184 39.6102589,7.45333408 39.108923,7.304 C38.6075872,7.15466592 38.0635926,7.08 37.476923,7.08 C36.6662523,7.08 35.935593,7.25066496 35.284923,7.592 C34.6342531,7.93333504 34.1249249,8.43199672 33.756923,9.088 C33.3889212,9.74400328 33.204923,10.5253288 33.204923,11.432 C33.204923,12.2640042 33.3782546,13.0079967 33.724923,13.664 C34.0715914,14.3200033 34.5729198,14.8373314 35.228923,15.216 C35.8849263,15.5946686 36.6609186,15.784 37.556923,15.784 C38.5595947,15.784 39.4929187,15.5493357 40.356923,15.08 L40.356923,12.184 L37.716923,12.184 C37.5355888,12.184 37.3809237,12.1200006 37.252923,11.992 C37.1249224,11.8639994 37.060923,11.7093342 37.060923,11.528 C37.060923,11.3466658 37.1249224,11.1920006 37.252923,11.064 C37.3809237,10.9359994 37.5355888,10.872 37.716923,10.872 L40.868923,10.872 C41.0822574,10.872 41.263589,10.9466659 41.412923,11.096 C41.5622571,11.2453341 41.636923,11.4266656 41.636923,11.64 L41.636923,15.272 C41.636923,15.4960011 41.5809236,15.6959991 41.468923,15.872 C41.3569225,16.0480009 41.2102573,16.1786662 41.028923,16.264 C39.8342504,16.8613363 38.6129293,17.16 37.364923,17.16 Z M48.0247693,17.05 C47.898102,17.05 47.7914364,17.0066671 47.7047693,16.92 C47.6181022,16.8333329 47.5747693,16.7266673 47.5747693,16.6 L47.5747693,15.24 L44.5247693,15.24 C44.3647685,15.24 44.2281032,15.1850006 44.1147693,15.075 C44.0014354,14.9649995 43.9447693,14.8300008 43.9447693,14.67 L43.9447693,14.58 C43.9447693,14.4399993 43.9847689,14.3200005 44.0647693,14.22 L47.2047693,10.21 C47.2581029,10.1366663 47.3297689,10.0783335 47.4197693,10.035 C47.5097698,9.99166645 47.6047688,9.97 47.7047693,9.97 L47.9047693,9.97 C48.0781035,9.97 48.2181021,10.0249994 48.3247693,10.135 C48.4314365,10.2450006 48.4847693,10.3833325 48.4847693,10.55 L48.4847693,14.43 L49.2447693,14.43 C49.3581032,14.43 49.4547689,14.47 49.5347693,14.55 C49.6147697,14.6300004 49.6547693,14.7266661 49.6547693,14.84 C49.6547693,14.9533339 49.6147697,15.048333 49.5347693,15.125 C49.4547689,15.2016671 49.3581032,15.24 49.2447693,15.24 L48.4847693,15.24 L48.4847693,16.6 C48.4847693,16.7266673 48.4397698,16.8333329 48.3497693,16.92 C48.2597689,17.0066671 48.1514366,17.05 48.0247693,17.05 Z M44.9147693,14.43 L47.5747693,14.43 L47.5747693,11 L44.9147693,14.43 Z M55.4929232,17.16 C54.1382498,17.16 52.8689291,16.9040026 51.6849232,16.392 C51.5569226,16.3386664 51.450257,16.2506673 51.3649232,16.128 C51.2795895,16.0053327 51.2369232,15.8746674 51.2369232,15.736 C51.2369232,15.5546658 51.2982559,15.397334 51.4209232,15.264 C51.5435905,15.130666 51.7009223,15.064 51.8929232,15.064 C51.9995904,15.064 52.1009227,15.0853331 52.1969232,15.128 C53.1782615,15.5653355 54.2289176,15.784 55.3489232,15.784 C57.2155992,15.784 58.1489232,15.1706728 58.1489232,13.944 C58.1489232,13.6239984 58.0289244,13.3573344 57.7889232,13.144 C57.548922,12.9306656 57.252925,12.7626673 56.9009232,12.64 C56.5929217,12.5326661 56.170592,12.4069589 55.6339241,12.2628752 L55.3969232,12.2 C54.5329189,11.9759989 53.8342592,11.760001 53.3009232,11.552 C52.7675872,11.343999 52.3089251,11.0320021 51.9249232,10.616 C51.5409213,10.1999979 51.3489232,9.6453368 51.3489232,8.952 C51.3489232,8.34399696 51.5089216,7.79200248 51.8289232,7.296 C52.1489248,6.79999752 52.6209201,6.4053348 53.2449232,6.112 C53.8689263,5.8186652 54.6182522,5.672 55.4929232,5.672 C56.6662624,5.672 57.7275851,5.84799824 58.6769232,6.2 C58.9755914,6.3066672 59.1249232,6.5199984 59.1249232,6.84 C59.1249232,7.01066752 59.0662571,7.16533264 58.9489232,7.304 C58.8315893,7.44266736 58.6769242,7.512 58.4849232,7.512 C58.4209229,7.512 58.3355904,7.49066688 58.2289232,7.448 C57.3969191,7.15999856 56.538261,7.016 55.6529232,7.016 C54.8102523,7.016 54.1249259,7.1759984 53.5969232,7.496 C53.0689206,7.8160016 52.8049232,8.26399712 52.8049232,8.84 C52.8049232,9.22400192 52.9302553,9.5359988 53.1809232,9.776 C53.4315911,10.0160012 53.7462547,10.202666 54.1249232,10.336 C54.4494963,10.4502863 54.8739825,10.5704486 55.3983917,10.6964896 L55.6689232,10.76 C56.5115941,10.9626677 57.1915873,11.1653323 57.7089232,11.368 C58.2262591,11.5706677 58.6689214,11.8853312 59.0369232,12.312 C59.4049251,12.7386688 59.5889232,13.314663 59.5889232,14.04 C59.5889232,14.6373363 59.4182583,15.173331 59.0769232,15.648 C58.7355882,16.122669 58.255593,16.493332 57.6369232,16.76 C57.0182535,17.026668 56.3035939,17.16 55.4929232,17.16 Z M62.0147695,19.112 C61.8547687,19.112 61.71877,19.0533339 61.6067695,18.936 C61.4947689,18.8186661 61.4387695,18.6853341 61.4387695,18.536 C61.4387695,18.3866659 61.4947689,18.2560006 61.6067695,18.144 C61.71877,18.0319994 61.8547687,17.976 62.0147695,17.976 L63.4867695,17.976 L63.4867695,6.44 L62.0147695,6.44 C61.8547687,6.44 61.71877,6.38400056 61.6067695,6.272 C61.4947689,6.15999944 61.4387695,6.0240008 61.4387695,5.864 C61.4387695,5.7039992 61.4947689,5.56800056 61.6067695,5.456 C61.71877,5.34399944 61.8547687,5.288 62.0147695,5.288 L64.0467695,5.288 C64.2387704,5.288 64.4041021,5.35733264 64.5427695,5.496 C64.6814368,5.63466736 64.7507695,5.79999904 64.7507695,5.992 L64.7507695,18.408 C64.7507695,18.600001 64.6814368,18.7653326 64.5427695,18.904 C64.4041021,19.0426674 64.2387704,19.112 64.0467695,19.112 L62.0147695,19.112 Z" id="4x[G4S]" fill="#3F041D" fill-rule="nonzero"></path>
                        </g>
                        <g id="Group-4" transform="translate(323.000000, 23.000000)">
                            <rect id="Rectangle" fill="url(#linearGradient-8)" x="0" y="0" width="52" height="24" rx="2"></rect>
                            <path d="M7.30523052,19.112 C7.11322956,19.112 6.94789788,19.0426674 6.80923052,18.904 C6.67056316,18.7653326 6.60123052,18.600001 6.60123052,18.408 L6.60123052,5.992 C6.60123052,5.79999904 6.67056316,5.63466736 6.80923052,5.496 C6.94789788,5.35733264 7.11322956,5.288 7.30523052,5.288 L9.33723052,5.288 C9.49723132,5.288 9.63322996,5.34399944 9.74523052,5.456 C9.85723108,5.56800056 9.91323052,5.7039992 9.91323052,5.864 C9.91323052,6.0240008 9.85723108,6.15999944 9.74523052,6.272 C9.63322996,6.38400056 9.49723132,6.44 9.33723052,6.44 L7.86523052,6.44 L7.86523052,17.976 L9.33723052,17.976 C9.49723132,17.976 9.63322996,18.0319994 9.74523052,18.144 C9.85723108,18.2560006 9.91323052,18.3866659 9.91323052,18.536 C9.91323052,18.6853341 9.85723108,18.8186661 9.74523052,18.936 C9.63322996,19.0533339 9.49723132,19.112 9.33723052,19.112 L7.30523052,19.112 Z M17.2990768,17.16 C16.2004046,17.16 15.2244144,16.9173358 14.3710768,16.432 C13.5177392,15.9466642 12.8564125,15.2693377 12.3870768,14.4 C11.9177411,13.5306623 11.6830768,12.5413389 11.6830768,11.432 C11.6830768,10.3013277 11.9284077,9.29867104 12.4190768,8.424 C12.9097459,7.54932896 13.5790725,6.8720024 14.4270768,6.392 C15.275081,5.9119976 16.2164049,5.672 17.2510768,5.672 C18.0830809,5.672 18.8110737,5.77333232 19.4350768,5.976 C19.9342793,6.13813414 20.4181159,6.35146583 20.886596,6.6159994 L21.2350768,6.824 C21.3204105,6.86666688 21.3950765,6.9413328 21.4590768,7.048 C21.5230771,7.1546672 21.5550768,7.27199936 21.5550768,7.4 C21.5550768,7.58133424 21.4937441,7.73599936 21.3710768,7.864 C21.2484095,7.99200064 21.0857445,8.056 20.8830768,8.056 C20.7657429,8.056 20.653744,8.0293336 20.5470768,7.976 C20.0457409,7.67733184 19.5444126,7.45333408 19.0430768,7.304 C18.5417409,7.15466592 17.9977464,7.08 17.4110768,7.08 C16.6004061,7.08 15.8697467,7.25066496 15.2190768,7.592 C14.5684069,7.93333504 14.0590786,8.43199672 13.6910768,9.088 C13.3230749,9.74400328 13.1390768,10.5253288 13.1390768,11.432 C13.1390768,12.2640042 13.3124084,13.0079967 13.6590768,13.664 C14.0057452,14.3200033 14.5070735,14.8373314 15.1630768,15.216 C15.8190801,15.5946686 16.5950723,15.784 17.4910768,15.784 C18.4937485,15.784 19.4270725,15.5493357 20.2910768,15.08 L20.2910768,12.184 L17.6510768,12.184 C17.4697425,12.184 17.3150774,12.1200006 17.1870768,11.992 C17.0590761,11.8639994 16.9950768,11.7093342 16.9950768,11.528 C16.9950768,11.3466658 17.0590761,11.1920006 17.1870768,11.064 C17.3150774,10.9359994 17.4697425,10.872 17.6510768,10.872 L20.8030768,10.872 C21.0164112,10.872 21.1977427,10.9466659 21.3470768,11.096 C21.4964109,11.2453341 21.5710768,11.4266656 21.5710768,11.64 L21.5710768,15.272 C21.5710768,15.4960011 21.5150773,15.6959991 21.4030768,15.872 C21.2910762,16.0480009 21.144411,16.1786662 20.9630768,16.264 C19.7684041,16.8613363 18.547083,17.16 17.2990768,17.16 Z M27.958923,17.05 C27.8322557,17.05 27.7255901,17.0066671 27.638923,16.92 C27.5522559,16.8333329 27.508923,16.7266673 27.508923,16.6 L27.508923,15.24 L24.458923,15.24 C24.2989222,15.24 24.1622569,15.1850006 24.048923,15.075 C23.9355891,14.9649995 23.878923,14.8300008 23.878923,14.67 L23.878923,14.58 C23.878923,14.4399993 23.9189226,14.3200005 23.998923,14.22 L27.138923,10.21 C27.1922566,10.1366663 27.2639226,10.0783335 27.353923,10.035 C27.4439235,9.99166645 27.5389225,9.97 27.638923,9.97 L27.838923,9.97 C28.0122572,9.97 28.1522558,10.0249994 28.258923,10.135 C28.3655902,10.2450006 28.418923,10.3833325 28.418923,10.55 L28.418923,14.43 L29.178923,14.43 C29.2922569,14.43 29.3889226,14.47 29.468923,14.55 C29.5489234,14.6300004 29.588923,14.7266661 29.588923,14.84 C29.588923,14.9533339 29.5489234,15.048333 29.468923,15.125 C29.3889226,15.2016671 29.2922569,15.24 29.178923,15.24 L28.418923,15.24 L28.418923,16.6 C28.418923,16.7266673 28.3739235,16.8333329 28.283923,16.92 C28.1939226,17.0066671 28.0855903,17.05 27.958923,17.05 Z M24.848923,14.43 L27.508923,14.43 L27.508923,11 L24.848923,14.43 Z M35.427077,17.16 C34.0724035,17.16 32.8030829,16.9040026 31.619077,16.392 C31.4910763,16.3386664 31.3844107,16.2506673 31.299077,16.128 C31.2137432,16.0053327 31.171077,15.8746674 31.171077,15.736 C31.171077,15.5546658 31.2324097,15.397334 31.355077,15.264 C31.4777442,15.130666 31.635076,15.064 31.827077,15.064 C31.9337442,15.064 32.0350765,15.0853331 32.131077,15.128 C33.1124152,15.5653355 34.1630714,15.784 35.283077,15.784 C37.149753,15.784 38.083077,15.1706728 38.083077,13.944 C38.083077,13.6239984 37.9630782,13.3573344 37.723077,13.144 C37.4830758,12.9306656 37.1870787,12.7626673 36.835077,12.64 C36.5270754,12.5326661 36.1047457,12.4069589 35.5680778,12.2628752 L35.331077,12.2 C34.4670726,11.9759989 33.768413,11.760001 33.235077,11.552 C32.701741,11.343999 32.2430789,11.0320021 31.859077,10.616 C31.475075,10.1999979 31.283077,9.6453368 31.283077,8.952 C31.283077,8.34399696 31.4430754,7.79200248 31.763077,7.296 C32.0830786,6.79999752 32.5550738,6.4053348 33.179077,6.112 C33.8030801,5.8186652 34.5524059,5.672 35.427077,5.672 C36.6004162,5.672 37.6617389,5.84799824 38.611077,6.2 C38.9097451,6.3066672 39.059077,6.5199984 39.059077,6.84 C39.059077,7.01066752 39.0004109,7.16533264 38.883077,7.304 C38.765743,7.44266736 38.6110779,7.512 38.419077,7.512 C38.3550766,7.512 38.2697442,7.49066688 38.163077,7.448 C37.3310728,7.15999856 36.4724147,7.016 35.587077,7.016 C34.7444061,7.016 34.0590796,7.1759984 33.531077,7.496 C33.0030743,7.8160016 32.739077,8.26399712 32.739077,8.84 C32.739077,9.22400192 32.864409,9.5359988 33.115077,9.776 C33.3657449,10.0160012 33.6804084,10.202666 34.059077,10.336 C34.4377455,10.469334 34.952407,10.6106659 35.603077,10.76 C36.4457478,10.9626677 37.125741,11.1653323 37.643077,11.368 C38.1604129,11.5706677 38.6030751,11.8853312 38.971077,12.312 C39.3390788,12.7386688 39.523077,13.314663 39.523077,14.04 C39.523077,14.6373363 39.352412,15.173331 39.011077,15.648 C38.6697419,16.122669 38.1897467,16.493332 37.571077,16.76 C36.9524072,17.026668 36.2377477,17.16 35.427077,17.16 Z M41.9489232,19.112 C41.7889224,19.112 41.6529238,19.0533339 41.5409232,18.936 C41.4289227,18.8186661 41.3729232,18.6853341 41.3729232,18.536 C41.3729232,18.3866659 41.4289227,18.2560006 41.5409232,18.144 C41.6529238,18.0319994 41.7889224,17.976 41.9489232,17.976 L43.4209232,17.976 L43.4209232,6.44 L41.9489232,6.44 C41.7889224,6.44 41.6529238,6.38400056 41.5409232,6.272 C41.4289227,6.15999944 41.3729232,6.0240008 41.3729232,5.864 C41.3729232,5.7039992 41.4289227,5.56800056 41.5409232,5.456 C41.6529238,5.34399944 41.7889224,5.288 41.9489232,5.288 L43.9809232,5.288 C44.1729242,5.288 44.3382559,5.35733264 44.4769232,5.496 C44.6155906,5.63466736 44.6849232,5.79999904 44.6849232,5.992 L44.6849232,18.408 C44.6849232,18.600001 44.6155906,18.7653326 44.4769232,18.904 C44.3382559,19.0426674 44.1729242,19.112 43.9809232,19.112 L41.9489232,19.112 Z" id="[G4S]" fill="#3F041D" fill-rule="nonzero"></path>
                        </g>
                    </g>
                </g>
                <path d="M6.48,11.488 C5.413328,11.488 4.45600424,11.2560023 3.608,10.792 C2.75999576,10.3279977 2.09333576,9.66133768 1.608,8.792 C1.12266424,7.92266232 0.88,6.90667248 0.88,5.744 C0.88,4.58132752 1.12266424,3.56533768 1.608,2.696 C2.09333576,1.82666232 2.75999576,1.16000232 3.608,0.696 C4.45600424,0.23199768 5.413328,0 6.48,0 C7.20533696,0 7.85333048,0.08533248 8.424,0.256 C8.99466952,0.42666752 9.56266384,0.6719984 10.128,0.992 C10.3626678,1.12000064 10.48,1.32266528 10.48,1.6 C10.48,1.7600008 10.4213339,1.90133272 10.304,2.024 C10.1866661,2.14666728 10.032001,2.208 9.84,2.208 C9.7333328,2.208 9.63733376,2.18666688 9.552,2.144 C9.08266432,1.89866544 8.62400224,1.71200064 8.176,1.584 C7.72799776,1.45599936 7.2106696,1.392 6.624,1.392 C5.70666208,1.392 4.92533656,1.58133144 4.28,1.96 C3.63466344,2.33866856 3.14933496,2.85599672 2.824,3.512 C2.49866504,4.16800328 2.336,4.91199584 2.336,5.744 C2.336,6.57600416 2.49866504,7.31999672 2.824,7.976 C3.14933496,8.63200328 3.63466344,9.14933144 4.28,9.528 C4.92533656,9.90666856 5.70666208,10.096 6.624,10.096 C7.2106696,10.096 7.72799776,10.0320006 8.176,9.904 C8.62400224,9.77599936 9.08266432,9.58933456 9.552,9.344 C9.63733376,9.30133312 9.7333328,9.28 9.84,9.28 C10.032001,9.28 10.1866661,9.33866608 10.304,9.456 C10.4213339,9.57333392 10.48,9.71733248 10.48,9.888 C10.48,10.1653347 10.3626678,10.3679994 10.128,10.496 C9.56266384,10.8160016 8.99466952,11.0613325 8.424,11.232 C7.85333048,11.4026675 7.20533696,11.488 6.48,11.488 Z M16.4418463,11.488 C15.6205088,11.488 14.900516,11.3120018 14.2818463,10.96 C13.6631765,10.6079982 13.1858479,10.1093366 12.8498463,9.464 C12.5138446,8.81866344 12.3458463,8.08000416 12.3458463,7.248 C12.3458463,6.41599584 12.5138446,5.67733656 12.8498463,5.032 C13.1858479,4.38666344 13.6631765,3.88800176 14.2818463,3.536 C14.900516,3.18399824 15.6205088,3.008 16.4418463,3.008 C17.252517,3.008 17.9671765,3.18399824 18.5858463,3.536 C19.204516,3.88800176 19.6845112,4.38666344 20.0258463,5.032 C20.3671813,5.67733656 20.5378463,6.41599584 20.5378463,7.248 C20.5378463,8.08000416 20.3671813,8.81866344 20.0258463,9.464 C19.6845112,10.1093366 19.204516,10.6079982 18.5858463,10.96 C17.9671765,11.3120018 17.252517,11.488 16.4418463,11.488 Z M16.4418463,10.16 C16.8791818,10.16 17.2978443,10.0586677 17.6978463,9.856 C18.0978483,9.65333232 18.4285116,9.33333552 18.6898463,8.896 C18.9511809,8.45866448 19.0818463,7.90400336 19.0818463,7.232 C19.0818463,6.57066336 18.9511809,6.02133552 18.6898463,5.584 C18.4285116,5.14666448 18.0978483,4.82933432 17.6978463,4.632 C17.2978443,4.43466568 16.8791818,4.336 16.4418463,4.336 C15.993844,4.336 15.5698483,4.43466568 15.1698463,4.632 C14.7698443,4.82933432 14.4418475,5.14666448 14.1858463,5.584 C13.929845,6.02133552 13.8018463,6.57066336 13.8018463,7.232 C13.8018463,7.90400336 13.929845,8.45866448 14.1858463,8.896 C14.4418475,9.33333552 14.7698443,9.65333232 15.1698463,9.856 C15.5698483,10.0586677 15.993844,10.16 16.4418463,10.16 Z M24.0036925,11.408 C23.8010248,11.408 23.6303599,11.3386674 23.4916925,11.2 C23.3530252,11.0613326 23.2836925,10.8906677 23.2836925,10.688 L23.2836925,3.824 C23.2836925,3.62133232 23.3530252,3.44800072 23.4916925,3.304 C23.6303599,3.15999928 23.8010248,3.088 24.0036925,3.088 C24.2063602,3.088 24.3796918,3.15999928 24.5236925,3.304 C24.6676932,3.44800072 24.7396925,3.62133232 24.7396925,3.824 L24.7396925,4.48 C25.1450279,4.03199776 25.5823568,3.674668 26.0516925,3.408 C26.5210282,3.141332 27.0756893,3.008 27.7156925,3.008 C28.3023621,3.008 28.8116904,3.14666528 29.2436925,3.424 C29.6756947,3.70133472 30.006358,4.0799976 30.2356925,4.56 C30.465027,5.0400024 30.5796925,5.56799712 30.5796925,6.144 L30.5796925,10.688 C30.5796925,10.8906677 30.5076932,11.0613326 30.3636925,11.2 C30.2196918,11.3386674 30.0463602,11.408 29.8436925,11.408 C29.6410248,11.408 29.4703599,11.3386674 29.3316925,11.2 C29.1930252,11.0613326 29.1236925,10.8906677 29.1236925,10.688 L29.1236925,6.304 C29.1236925,5.00266016 28.5370317,4.352 27.3636925,4.352 C26.8303565,4.352 26.353028,4.49066528 25.9316925,4.768 C25.5103571,5.04533472 25.1130277,5.41866432 24.7396925,5.888 L24.7396925,10.688 C24.7396925,10.8906677 24.6676932,11.0613326 24.5236925,11.2 C24.3796918,11.3386674 24.2063602,11.408 24.0036925,11.408 Z M36.3815388,11.488 C35.3148668,11.488 34.3442098,11.2480024 33.4695388,10.768 C33.2882045,10.6399994 33.1975388,10.4640011 33.1975388,10.24 C33.1975388,10.0693325 33.2562049,9.92000064 33.3735388,9.792 C33.4908727,9.66399936 33.6402045,9.6 33.8215388,9.6 C33.9175393,9.6 34.0135383,9.62133312 34.1095388,9.664 C34.4508738,9.81333408 34.7922037,9.93066624 35.1335388,10.016 C35.4748738,10.1013338 35.85887,10.144 36.2855388,10.144 C37.4695447,10.144 38.0615388,9.76533712 38.0615388,9.008 C38.0615388,8.76266544 37.9255401,8.57600064 37.6535388,8.448 C37.3815374,8.31999936 36.9362085,8.1760008 36.3175388,8.016 C35.6882023,7.86666592 35.1682075,7.7120008 34.7575388,7.552 C34.3468701,7.3919992 33.9948736,7.14933496 33.7015388,6.824 C33.408204,6.49866504 33.2615388,6.069336 33.2615388,5.536 C33.2615388,4.7893296 33.5308694,4.18133568 34.0695388,3.712 C34.6082081,3.24266432 35.3788671,3.008 36.3815388,3.008 C37.2028762,3.008 37.9762018,3.141332 38.7015388,3.408 C38.8508729,3.45066688 38.9655384,3.53066608 39.0455388,3.648 C39.1255392,3.76533392 39.1655388,3.88799936 39.1655388,4.016 C39.1655388,4.18666752 39.1042061,4.33599936 38.9815388,4.464 C38.8588715,4.59200064 38.706873,4.656 38.5255388,4.656 C38.4722052,4.656 38.4028725,4.64533344 38.3175388,4.624 C37.698869,4.43199904 37.0908751,4.336 36.4935388,4.336 C35.9175359,4.336 35.4668737,4.43999896 35.1415388,4.648 C34.8162038,4.85600104 34.6535388,5.12533168 34.6535388,5.456 C34.6535388,5.7760016 34.8028706,6.01066592 35.1015388,6.16 C35.4002069,6.30933408 35.8642023,6.45333264 36.4935388,6.592 C37.1228753,6.7520008 37.6348701,6.90933256 38.0295388,7.064 C38.4242074,7.21866744 38.7628707,7.46133168 39.0455388,7.792 C39.3282069,8.12266832 39.4695388,8.56533056 39.4695388,9.12 C39.4695388,9.80267008 39.2002081,10.3679978 38.6615388,10.816 C38.1228694,11.2640022 37.362877,11.488 36.3815388,11.488 Z M44.887385,11.488 C43.3300439,11.488 42.551385,10.784007 42.551385,9.376 L42.551385,4.416 L41.415385,4.416 C41.3300513,4.416 41.258052,4.38666696 41.199385,4.328 C41.1407181,4.26933304 41.111385,4.19733376 41.111385,4.112 C41.111385,4.0053328 41.1593846,3.91466704 41.255385,3.84 L43.431385,1.712 C43.5273855,1.61599952 43.6180513,1.568 43.703385,1.568 C43.7887188,1.568 43.8607181,1.59999968 43.919385,1.664 C43.978052,1.72800032 44.007385,1.80266624 44.007385,1.888 L44.007385,3.168 L45.815385,3.168 C45.9967193,3.168 46.1460511,3.22666608 46.263385,3.344 C46.380719,3.46133392 46.439385,3.61066576 46.439385,3.792 C46.439385,3.96266752 46.380719,4.10933272 46.263385,4.232 C46.1460511,4.35466728 45.9967193,4.416 45.815385,4.416 L44.007385,4.416 L44.007385,9.248 C44.007385,9.66400208 44.1060507,9.92799944 44.303385,10.04 C44.5007194,10.1520006 44.7487169,10.208 45.047385,10.208 C45.2073858,10.208 45.3673848,10.1900002 45.5273847,10.1540001 L45.687385,10.112 C45.7300519,10.1013333 45.7753848,10.0906667 45.823385,10.08 C45.8713853,10.0693333 45.932718,10.064 46.007385,10.064 C46.1567191,10.064 46.2900511,10.1199994 46.407385,10.232 C46.524719,10.3440006 46.583385,10.4799992 46.583385,10.64 C46.583385,10.8853346 46.4607196,11.0719994 46.215385,11.2 C45.799383,11.392001 45.3567207,11.488 44.887385,11.488 Z M49.6172313,11.408 C49.4145636,11.408 49.2438987,11.3386674 49.1052313,11.2 C48.9665639,11.0613326 48.8972313,10.8906677 48.8972313,10.688 L48.8972313,3.824 C48.8972313,3.62133232 48.9665639,3.44800072 49.1052313,3.304 C49.2438987,3.15999928 49.4145636,3.088 49.6172313,3.088 C49.819899,3.088 49.9932306,3.15999928 50.1372313,3.304 C50.281232,3.44800072 50.3532313,3.62133232 50.3532313,3.824 L50.3532313,4.512 C51.0999017,3.50932832 51.9372267,3.008 52.8652313,3.008 L52.9452313,3.008 C53.147899,3.008 53.3158973,3.07733264 53.4492313,3.216 C53.5825653,3.35466736 53.6492313,3.52533232 53.6492313,3.728 C53.6492313,3.93066768 53.5798987,4.09599936 53.4412313,4.224 C53.3025639,4.35200064 53.1265657,4.416 52.9132313,4.416 L52.8332313,4.416 C52.3212287,4.416 51.8519001,4.54133208 51.4252313,4.792 C50.9985625,5.04266792 50.6412327,5.38666448 50.3532313,5.824 L50.3532313,10.688 C50.3532313,10.8906677 50.281232,11.0613326 50.1372313,11.2 C49.9932306,11.3386674 49.819899,11.408 49.6172313,11.408 Z M58.5230776,11.488 C57.936408,11.488 57.4270797,11.3493347 56.9950776,11.072 C56.5630754,10.7946653 56.232412,10.4160024 56.0030776,9.936 C55.7737431,9.4559976 55.6590776,8.92800288 55.6590776,8.352 L55.6590776,3.808 C55.6590776,3.60533232 55.7310768,3.43466736 55.8750776,3.296 C56.0190783,3.15733264 56.1924099,3.088 56.3950776,3.088 C56.5977452,3.088 56.7684102,3.15733264 56.9070776,3.296 C57.0457449,3.43466736 57.1150776,3.60533232 57.1150776,3.808 L57.1150776,8.192 C57.1150776,9.49333984 57.7017384,10.144 58.8750776,10.144 C59.4084136,10.144 59.8857421,10.0053347 60.3070776,9.728 C60.728413,9.45066528 61.1257424,9.07733568 61.4990776,8.608 L61.4990776,3.808 C61.4990776,3.60533232 61.5710768,3.43466736 61.7150776,3.296 C61.8590783,3.15733264 62.0324099,3.088 62.2350776,3.088 C62.4377452,3.088 62.6084102,3.15733264 62.7470776,3.296 C62.8857449,3.43466736 62.9550776,3.60533232 62.9550776,3.808 L62.9550776,10.672 C62.9550776,10.8746677 62.8857449,11.0479993 62.7470776,11.192 C62.6084102,11.3360007 62.4377452,11.408 62.2350776,11.408 C62.0324099,11.408 61.8590783,11.3360007 61.7150776,11.192 C61.5710768,11.0479993 61.4990776,10.8746677 61.4990776,10.672 L61.4990776,10.016 C61.0937422,10.4640022 60.6564132,10.821332 60.1870776,11.088 C59.7177419,11.354668 59.1630808,11.488 58.5230776,11.488 Z M69.9729238,11.488 C69.20492,11.488 68.4955937,11.317335 67.8449238,10.976 C67.1942539,10.634665 66.6742591,10.1440032 66.2849238,9.504 C65.8955885,8.8639968 65.7009238,8.11200432 65.7009238,7.248 C65.7009238,6.38399568 65.8955885,5.6320032 66.2849238,4.992 C66.6742591,4.3519968 67.1942539,3.86133504 67.8449238,3.52 C68.4955937,3.17866496 69.20492,3.008 69.9729238,3.008 C70.53826,3.008 71.0262551,3.07999928 71.4369238,3.224 C71.8475925,3.36800072 72.2289221,3.55199888 72.5809238,3.776 C72.7942582,3.91466736 72.9009238,4.10133216 72.9009238,4.336 C72.9009238,4.4960008 72.8395911,4.642666 72.7169238,4.776 C72.5942565,4.909334 72.4529246,4.976 72.2929238,4.976 C72.2049234,4.976 72.1169239,4.95800018 72.028924,4.92200013 L71.9409238,4.88 C71.5889221,4.69866576 71.2875917,4.5680004 71.0369238,4.488 C70.7862559,4.4079996 70.474259,4.368 70.1009238,4.368 C69.1835859,4.368 68.4635931,4.63199736 67.9409238,5.16 C67.4182545,5.68800264 67.1569238,6.38399568 67.1569238,7.248 C67.1569238,8.11200432 67.4182545,8.80799736 67.9409238,9.336 C68.4635931,9.86400264 69.1835859,10.128 70.1009238,10.128 C70.474259,10.128 70.7862559,10.0880004 71.0369238,10.008 C71.2374582,9.94399968 71.4704164,9.84757379 71.7358033,9.71872031 L71.9409238,9.616 C72.0582577,9.55199968 72.1755899,9.52 72.2929238,9.52 C72.4529246,9.52 72.5942565,9.586666 72.7169238,9.72 C72.8395911,9.853334 72.9009238,9.9999992 72.9009238,10.16 C72.9009238,10.3946678 72.7942582,10.5813326 72.5809238,10.72 C72.2289221,10.9440011 71.8475925,11.1279993 71.4369238,11.272 C71.0262551,11.4160007 70.53826,11.488 69.9729238,11.488 Z M78.2547701,11.488 C76.697429,11.488 75.9187701,10.784007 75.9187701,9.376 L75.9187701,4.416 L74.7827701,4.416 C74.6974363,4.416 74.625437,4.38666696 74.5667701,4.328 C74.5081031,4.26933304 74.4787701,4.19733376 74.4787701,4.112 C74.4787701,4.0053328 74.5267696,3.91466704 74.6227701,3.84 L76.7987701,1.712 C76.8947706,1.61599952 76.9854363,1.568 77.0707701,1.568 C77.1561038,1.568 77.2281031,1.59999968 77.2867701,1.664 C77.345437,1.72800032 77.3747701,1.80266624 77.3747701,1.888 L77.3747701,3.168 L79.1827701,3.168 C79.3641043,3.168 79.5134362,3.22666608 79.6307701,3.344 C79.748104,3.46133392 79.8067701,3.61066576 79.8067701,3.792 C79.8067701,3.96266752 79.748104,4.10933272 79.6307701,4.232 C79.5134362,4.35466728 79.3641043,4.416 79.1827701,4.416 L77.3747701,4.416 L77.3747701,9.248 C77.3747701,9.66400208 77.4734358,9.92799944 77.6707701,10.04 C77.8681044,10.1520006 78.1161019,10.208 78.4147701,10.208 C78.5747709,10.208 78.7347699,10.1900002 78.8947698,10.1540001 L79.0547701,10.112 C79.097437,10.1013333 79.1427698,10.0906667 79.1907701,10.08 C79.2387703,10.0693333 79.300103,10.064 79.3747701,10.064 C79.5241042,10.064 79.6574362,10.1199994 79.7747701,10.232 C79.892104,10.3440006 79.9507701,10.4799992 79.9507701,10.64 C79.9507701,10.8853346 79.8281046,11.0719994 79.5827701,11.2 C79.166768,11.392001 78.7241058,11.488 78.2547701,11.488 Z M87.7624626,11.328 C87.517128,11.328 87.3144634,11.2506674 87.1544626,11.096 C86.9944618,10.9413326 86.9144626,10.7413346 86.9144626,10.496 C86.9144626,9.94133056 87.0771276,9.42933568 87.4024626,8.96 C87.7277976,8.49066432 88.1224603,8.07733512 88.5864626,7.72 C88.9924646,7.40733177 89.5107519,7.04362649 90.1413366,6.62887563 L90.9435249,6.10710138 C91.3538648,5.83608116 91.6961755,5.59771531 91.9704626,5.392 C92.3544645,5.10399856 92.6744613,4.78933504 92.9304626,4.448 C93.1864639,4.10666496 93.3144626,3.74400192 93.3144626,3.36 C93.3144626,2.75199696 93.1144646,2.26933512 92.7144626,1.912 C92.3144606,1.55466488 91.6718004,1.376 90.7864626,1.376 C89.933125,1.376 89.1177209,1.52770219 88.3402402,1.83111061 L88.0504626,1.952 C87.9437954,2.0053336 87.8424631,2.032 87.7464626,2.032 C87.5757951,2.032 87.4317965,1.97333392 87.3144626,1.856 C87.1971287,1.73866608 87.1384626,1.58933424 87.1384626,1.408 C87.1384626,1.141332 87.2557948,0.94400064 87.4904626,0.816 C88.578468,0.27199728 89.7624562,0 91.0424626,0 C91.7251327,0 92.3464598,0.13599864 92.9064626,0.408 C93.4664654,0.68000136 93.9091276,1.06133088 94.2344626,1.552 C94.5597976,2.04266912 94.7224626,2.6079968 94.7224626,3.248 C94.7224626,3.87733648 94.5384644,4.46133064 94.1704626,5 C93.8024608,5.53866936 93.3624652,6.01066464 92.8504626,6.416 C92.33846,6.82133536 91.6718,7.290664 90.8504626,7.824 L90.3799428,8.14360577 C89.8628067,8.49942486 89.4569826,8.79555437 89.1624626,9.032 C88.783794,9.33600152 88.5197967,9.6479984 88.3704626,9.968 L93.9384626,9.968 C94.1304636,9.968 94.2931286,10.034666 94.4264626,10.168 C94.5597966,10.301334 94.6264626,10.463999 94.6264626,10.656 C94.6264626,10.848001 94.5597966,11.0079994 94.4264626,11.136 C94.2931286,11.2640006 94.1304636,11.328 93.9384626,11.328 L87.7624626,11.328 Z M101.100309,3.008 C101.836313,3.008 102.45764,3.15733184 102.964309,3.456 C103.470978,3.75466816 103.844308,4.14133096 104.084309,4.616 C104.32431,5.09066904 104.444309,5.60533056 104.444309,6.16 L104.444309,10.688 C104.444309,10.8906677 104.372309,11.0613326 104.228309,11.2 C104.084308,11.3386674 103.910977,11.408 103.708309,11.408 C103.505641,11.408 103.334976,11.3386674 103.196309,11.2 C103.057642,11.0613326 102.988309,10.8906677 102.988309,10.688 L102.988309,10.272 C102.198972,11.0826707 101.196315,11.488 99.9803089,11.488 C99.5109732,11.488 99.0763109,11.392001 98.6763089,11.2 C98.2763069,11.008 97.9589767,10.7280018 97.7243089,10.36 C97.489641,9.99199816 97.3723089,9.5680024 97.3723089,9.088 C97.3723089,8.29866272 97.6843057,7.66933568 98.3083089,7.2 C98.932312,6.73066432 99.8469695,6.496 101.052309,6.496 L102.988309,6.496 L102.988309,6.368 C102.988309,5.66399648 102.814977,5.15733488 102.468309,4.848 C102.12164,4.53866512 101.580313,4.384 100.844309,4.384 C100.438974,4.384 100.078977,4.41599968 99.7643089,4.48 C99.4496406,4.54400032 99.1003108,4.63999936 98.7163089,4.768 C98.6309751,4.78933344 98.5616425,4.8 98.5083089,4.8 C98.3483081,4.8 98.2096428,4.74133392 98.0923089,4.624 C97.9749749,4.50666608 97.9163089,4.36266752 97.9163089,4.192 C97.9163089,3.90399856 98.0549741,3.70133392 98.3323089,3.584 C99.2389801,3.19999808 100.161638,3.008 101.100309,3.008 Z M102.988309,7.664 L101.244309,7.664 C99.6336341,7.664 98.8283089,8.08532912 98.8283089,8.928 C98.8283089,9.31200192 98.9589742,9.62133216 99.2203089,9.856 C99.4816435,10.0906678 99.9163058,10.208 100.524309,10.208 C100.993645,10.208 101.446973,10.0933345 101.884309,9.864 C102.321644,9.63466552 102.689641,9.34933504 102.988309,9.008 L102.988309,9.008 L102.988309,7.664 Z" id="Construct2a" fill="#3F041D" fill-rule="nonzero"></path>
            </g>
        </g>
    </g>
</svg>