<?xml version="1.0" encoding="UTF-8"?>
<svg width="597px" height="53px" viewBox="0 0 597 53" version="1.1" xmlns="http://www.w3.org/2000/svg" xmlns:xlink="http://www.w3.org/1999/xlink">
    <!-- Generator: Sketch 58 (84663) - https://sketch.com -->
    <title>Group 15</title>
    <desc>Created with Sketch.</desc>
    <defs>
        <linearGradient x1="100%" y1="135.331107%" x2="20.2154461%" y2="3.99833403%" id="linearGradient-1">
            <stop stop-color="#F7B0B5" offset="0%"></stop>
            <stop stop-color="#C40B0B" offset="100%"></stop>
        </linearGradient>
        <linearGradient x1="21.4764961%" y1="40.0145346%" x2="84.9470048%" y2="58.8896061%" id="linearGradient-2">
            <stop stop-color="#F7F45C" offset="0%"></stop>
            <stop stop-color="#6EF21C" offset="100%"></stop>
        </linearGradient>
        <linearGradient x1="30.2956829%" y1="37.8253153%" x2="77.3908012%" y2="62.0265987%" id="linearGradient-3">
            <stop stop-color="#E52C94" offset="0%"></stop>
            <stop stop-color="#F09ECC" offset="100%"></stop>
        </linearGradient>
        <linearGradient x1="20.6478754%" y1="43.9013847%" x2="70.4501262%" y2="56.6182492%" id="linearGradient-4">
            <stop stop-color="#F9AB3A" offset="0%"></stop>
            <stop stop-color="#E52C94" offset="100%"></stop>
        </linearGradient>
        <linearGradient x1="27.9413587%" y1="43.8950103%" x2="75.9594766%" y2="57.9243562%" id="linearGradient-5">
            <stop stop-color="#C719E8" offset="0%"></stop>
            <stop stop-color="#4B10F2" offset="100%"></stop>
        </linearGradient>
        <linearGradient x1="29.020145%" y1="43.6281106%" x2="73.2962151%" y2="55.2902428%" id="linearGradient-6">
            <stop stop-color="#4B10F2" offset="0%"></stop>
            <stop stop-color="#C719E8" offset="100%"></stop>
        </linearGradient>
        <linearGradient x1="71.6513647%" y1="43.9508507%" x2="23.4519395%" y2="56.0491493%" id="linearGradient-7">
            <stop stop-color="#B1F67D" offset="0%"></stop>
            <stop stop-color="#37EAD5" offset="100%"></stop>
        </linearGradient>
        <linearGradient x1="38.8497146%" y1="40.99052%" x2="80.6018413%" y2="58.0765716%" id="linearGradient-8">
            <stop stop-color="#B1F67D" offset="0%"></stop>
            <stop stop-color="#37EAD5" offset="100%"></stop>
        </linearGradient>
    </defs>
    <g id="Parts" stroke="none" stroke-width="1" fill="none" fill-rule="evenodd">
        <g transform="translate(-124.000000, -116.000000)" id="Group-15">
            <g transform="translate(124.000000, 116.000000)">
                <g id="Group-11">
                    <g id="Group-9" transform="translate(548.000000, 6.000000)" fill-rule="nonzero">
                        <path d="M21.9998716,14.5731903 C19.0869577,13.5435631 17,10.7654991 17,7.5 C17,3.35786438 20.3578644,0 24.5,0 C28.6421356,0 32,3.35786438 32,7.5 C32,10.7651265 29.9135184,13.5429292 27.0011254,14.5728379 L27,23 L47,23 C48.1045695,23 49,23.8954305 49,25 L49,45 C49,46.1045695 48.1045695,47 47,47 L2,47 C0.8954305,47 1.3527075e-16,46.1045695 0,45 L0,25 C-5.7935996e-16,23.8954305 0.8954305,23 2,23 L22,23 L21.9998716,14.5731903 Z M24.5,4.28571429 C22.724799,4.28571429 21.2857143,5.72479902 21.2857143,7.5 C21.2857143,9.27520098 22.724799,10.7142857 24.5,10.7142857 C26.275201,10.7142857 27.7142857,9.27520098 27.7142857,7.5 C27.7142857,5.72479902 26.275201,4.28571429 24.5,4.28571429 Z" id="Combined-Shape" fill="url(#linearGradient-1)"></path>
                        <path d="M10.4803075,40.16 C9.12563404,40.16 7.8563134,39.9040026 6.67230748,39.392 C6.54430684,39.3386664 6.43764124,39.2506673 6.35230748,39.128 C6.26697372,39.0053327 6.22430748,38.8746674 6.22430748,38.736 C6.22430748,38.5546658 6.2856402,38.397334 6.40830748,38.264 C6.53097476,38.130666 6.68830652,38.064 6.88030748,38.064 C6.98697468,38.064 7.088307,38.0853331 7.18430748,38.128 C8.16564572,38.5653355 9.21630188,38.784 10.3363075,38.784 C12.2029835,38.784 13.1363075,38.1706728 13.1363075,36.944 C13.1363075,36.6239984 13.0163087,36.3573344 12.7763075,36.144 C12.5363063,35.9306656 12.2403092,35.7626673 11.8883075,35.64 C11.5803059,35.5326661 11.1579763,35.4069589 10.6213083,35.2628752 L10.3843075,35.2 C9.52030316,34.9759989 8.82164348,34.760001 8.28830748,34.552 C7.75497148,34.343999 7.2963094,34.0320021 6.91230748,33.616 C6.52830556,33.1999979 6.33630748,32.6453368 6.33630748,31.952 C6.33630748,31.343997 6.49630588,30.7920025 6.81630748,30.296 C7.13630908,29.7999975 7.60830436,29.4053348 8.23230748,29.112 C8.8563106,28.8186652 9.60563644,28.672 10.4803075,28.672 C11.6536467,28.672 12.7149694,28.8479982 13.6643075,29.2 C13.9629756,29.3066672 14.1123075,29.5199984 14.1123075,29.84 C14.1123075,30.0106675 14.0536414,30.1653326 13.9363075,30.304 C13.8189736,30.4426674 13.6643084,30.512 13.4723075,30.512 C13.4083072,30.512 13.3229747,30.4906669 13.2163075,30.448 C12.3843033,30.1599986 11.5256452,30.016 10.6403075,30.016 C9.7976366,30.016 9.11231012,30.1759984 8.58430748,30.496 C8.05630484,30.8160016 7.79230748,31.2639971 7.79230748,31.84 C7.79230748,32.2240019 7.91763956,32.5359988 8.16830748,32.776 C8.4189754,33.0160012 8.73363892,33.202666 9.11230748,33.336 C9.49097604,33.469334 10.0056376,33.6106659 10.6563075,33.76 C11.4989784,33.9626677 12.1789716,34.1653323 12.6963075,34.368 C13.2136434,34.5706677 13.6563056,34.8853312 14.0243075,35.312 C14.3923093,35.7386688 14.5763075,36.314663 14.5763075,37.04 C14.5763075,37.6373363 14.4056425,38.173331 14.0643075,38.648 C13.7229724,39.122669 13.2429772,39.493332 12.6243075,39.76 C12.0056377,40.026668 11.2909782,40.16 10.4803075,40.16 Z M19.7061537,40.16 C18.1488126,40.16 17.3701537,39.456007 17.3701537,38.048 L17.3701537,33.088 L16.2341537,33.088 C16.14882,33.088 16.0768207,33.058667 16.0181537,33 C15.9594868,32.941333 15.9301537,32.8693338 15.9301537,32.784 C15.9301537,32.6773328 15.9781533,32.586667 16.0741537,32.512 L18.2501537,30.384 C18.3461542,30.2879995 18.43682,30.24 18.5221537,30.24 C18.6074875,30.24 18.6794868,30.2719997 18.7381537,30.336 C18.7968207,30.4000003 18.8261537,30.4746662 18.8261537,30.56 L18.8261537,31.84 L20.6341537,31.84 C20.815488,31.84 20.9648198,31.8986661 21.0821537,32.016 C21.1994877,32.1333339 21.2581537,32.2826658 21.2581537,32.464 C21.2581537,32.6346675 21.1994877,32.7813327 21.0821537,32.904 C20.9648198,33.0266673 20.815488,33.088 20.6341537,33.088 L18.8261537,33.088 L18.8261537,37.92 C18.8261537,38.3360021 18.9248194,38.5999994 19.1221537,38.712 C19.3194881,38.8240006 19.5674856,38.88 19.8661537,38.88 C20.0261545,38.88 20.1861535,38.8620002 20.3461534,38.8260001 L20.6421537,38.752 L20.6421537,38.752 C20.690154,38.7413333 20.7514867,38.736 20.8261537,38.736 C20.9754878,38.736 21.1088198,38.7919994 21.2261537,38.904 C21.3434877,39.0160006 21.4021537,39.1519992 21.4021537,39.312 C21.4021537,39.5573346 21.2794883,39.7439994 21.0341537,39.872 C20.6181517,40.064001 20.1754894,40.16 19.7061537,40.16 Z M27.204,40.16 C26.3826626,40.16 25.6626698,39.9840018 25.044,39.632 C24.4253302,39.2799982 23.9480017,38.7813366 23.612,38.136 C23.2759983,37.4906634 23.108,36.7520042 23.108,35.92 C23.108,35.0879958 23.2759983,34.3493366 23.612,33.704 C23.9480017,33.0586634 24.4253302,32.5600018 25.044,32.208 C25.6626698,31.8559982 26.3826626,31.68 27.204,31.68 C28.0146707,31.68 28.7293302,31.8559982 29.348,32.208 C29.9666698,32.5600018 30.446665,33.0586634 30.788,33.704 C31.129335,34.3493366 31.3,35.0879958 31.3,35.92 C31.3,36.7520042 31.129335,37.4906634 30.788,38.136 C30.446665,38.7813366 29.9666698,39.2799982 29.348,39.632 C28.7293302,39.9840018 28.0146707,40.16 27.204,40.16 Z M27.204,38.832 C27.6413355,38.832 28.059998,38.7306677 28.46,38.528 C28.860002,38.3253323 29.1906654,38.0053355 29.452,37.568 C29.7133346,37.1306645 29.844,36.5760034 29.844,35.904 C29.844,35.2426634 29.7133346,34.6933355 29.452,34.256 C29.1906654,33.8186645 28.860002,33.5013343 28.46,33.304 C28.059998,33.1066657 27.6413355,33.008 27.204,33.008 C26.7559978,33.008 26.332002,33.1066657 25.932,33.304 C25.531998,33.5013343 25.2040013,33.8186645 24.948,34.256 C24.6919987,34.6933355 24.564,35.2426634 24.564,35.904 C24.564,36.5760034 24.6919987,37.1306645 24.948,37.568 C25.2040013,38.0053355 25.531998,38.3253323 25.932,38.528 C26.332002,38.7306677 26.7559978,38.832 27.204,38.832 Z M38.2378463,31.68 C38.8991829,31.68 39.5258433,31.8479983 40.1178463,32.184 C40.7098492,32.5200017 41.1898444,33.0106634 41.5578463,33.656 C41.9258481,34.3013366 42.1098463,35.0559957 42.1098463,35.92 C42.1098463,36.7840043 41.9258481,37.5386634 41.5578463,38.184 C41.1898444,38.8293366 40.7098492,39.3199983 40.1178463,39.656 C39.5258433,39.9920017 38.8991829,40.16 38.2378463,40.16 C37.1925077,40.16 36.2805168,39.7546707 35.5018463,38.944 L35.5018463,43.024 C35.5018463,43.2373344 35.4325136,43.4133326 35.2938463,43.552 C35.1551789,43.6906674 34.9791807,43.76 34.7658463,43.76 C34.5631786,43.76 34.3925136,43.6880007 34.2538463,43.544 C34.1151789,43.3999993 34.0458463,43.2266677 34.0458463,43.024 L34.0458463,32.48 C34.0458463,32.2773323 34.1151789,32.1066674 34.2538463,31.968 C34.3925136,31.8293326 34.5631786,31.76 34.7658463,31.76 C34.9685139,31.76 35.1418455,31.8293326 35.2858463,31.968 C35.429847,32.1066674 35.5018463,32.2773323 35.5018463,32.48 L35.5018463,32.896 C36.2805168,32.0853293 37.1925077,31.68 38.2378463,31.68 Z M38.0298463,33.04 C37.5391771,33.04 37.0778484,33.1493322 36.6458463,33.368 C36.2138441,33.5866678 35.8325146,33.8773315 35.5018463,34.24 L35.5018463,34.24 L35.5018463,37.6 C35.8325146,37.9626685 36.2138441,38.2533322 36.6458463,38.472 C37.0778484,38.6906678 37.5391771,38.8 38.0298463,38.8 C38.8191835,38.8 39.4538439,38.5493358 39.9338463,38.048 C40.4138487,37.5466642 40.6538463,36.8373379 40.6538463,35.92 C40.6538463,35.0026621 40.4138487,34.2933358 39.9338463,33.792 C39.4538439,33.2906642 38.8191835,33.04 38.0298463,33.04 Z" id="Stop" fill="#3F041D"></path>
                    </g>
                    <g id="Group-8" transform="translate(478.000000, 29.000000)">
                        <rect id="Rectangle" fill="url(#linearGradient-2)" x="0" y="0" width="68" height="24" rx="2"></rect>
                        <path d="M7.62553809,17.08 C7.42287041,17.08 7.25220545,17.0106674 7.11353809,16.872 C6.97487073,16.7333326 6.90553809,16.5626677 6.90553809,16.36 L6.90553809,6.488 C6.90553809,6.28533232 6.97487073,6.11200072 7.11353809,5.968 C7.25220545,5.82399928 7.42287041,5.752 7.62553809,5.752 C7.82820577,5.752 8.00153737,5.82399928 8.14553809,5.968 C8.28953881,6.11200072 8.36153809,6.28533232 8.36153809,6.488 L8.36153809,10.744 L14.4255381,10.744 L14.4255381,6.488 C14.4255381,6.28533232 14.4948707,6.11200072 14.6335381,5.968 C14.7722054,5.82399928 14.9428704,5.752 15.1455381,5.752 C15.3482058,5.752 15.5215374,5.82399928 15.6655381,5.968 C15.8095388,6.11200072 15.8815381,6.28533232 15.8815381,6.488 L15.8815381,16.36 C15.8815381,16.5626677 15.8095388,16.7333326 15.6655381,16.872 C15.5215374,17.0106674 15.3482058,17.08 15.1455381,17.08 C14.9428704,17.08 14.7722054,17.0106674 14.6335381,16.872 C14.4948707,16.7333326 14.4255381,16.5626677 14.4255381,16.36 L14.4255381,12.104 L8.36153809,12.104 L8.36153809,16.36 C8.36153809,16.5626677 8.28953881,16.7333326 8.14553809,16.872 C8.00153737,17.0106674 7.82820577,17.08 7.62553809,17.08 Z M19.9393843,7.176 C19.7153832,7.176 19.5233851,7.0960008 19.3633843,6.936 C19.2033835,6.7759992 19.1233843,6.58400112 19.1233843,6.36 L19.1233843,6.296 C19.1233843,6.07199888 19.2033835,5.8800008 19.3633843,5.72 C19.5233851,5.5599992 19.7153832,5.48 19.9393843,5.48 L20.0353843,5.48 C20.2593855,5.48 20.4513835,5.5599992 20.6113843,5.72 C20.7713851,5.8800008 20.8513843,6.07199888 20.8513843,6.296 L20.8513843,6.36 C20.8513843,6.58400112 20.7713851,6.7759992 20.6113843,6.936 C20.4513835,7.0960008 20.2593855,7.176 20.0353843,7.176 L19.9393843,7.176 Z M19.9713843,17.08 C19.7687167,17.08 19.5980517,17.0106674 19.4593843,16.872 C19.320717,16.7333326 19.2513843,16.5626677 19.2513843,16.36 L19.2513843,9.496 C19.2513843,9.29333232 19.320717,9.12000072 19.4593843,8.976 C19.5980517,8.83199928 19.7687167,8.76 19.9713843,8.76 C20.1847187,8.76 20.360717,8.82933264 20.4993843,8.968 C20.6380517,9.10666736 20.7073843,9.2826656 20.7073843,9.496 L20.7073843,16.36 C20.7073843,16.5626677 20.6353851,16.7333326 20.4913843,16.872 C20.3473836,17.0106674 20.174052,17.08 19.9713843,17.08 Z M26.5892306,17.16 C25.5225586,17.16 24.5519016,16.9200024 23.6772306,16.44 C23.4958964,16.3119994 23.4052306,16.1360011 23.4052306,15.912 C23.4052306,15.7413325 23.4638967,15.5920006 23.5812306,15.464 C23.6985645,15.3359994 23.8478964,15.272 24.0292306,15.272 C24.1252311,15.272 24.2212301,15.2933331 24.3172306,15.336 C24.6585656,15.4853341 24.9998956,15.6026662 25.3412306,15.688 C25.6825656,15.7733338 26.0665618,15.816 26.4932306,15.816 C27.6772365,15.816 28.2692306,15.4373371 28.2692306,14.68 C28.2692306,14.4346654 28.133232,14.2480006 27.8612306,14.12 C27.5892292,13.9919994 27.1439004,13.8480008 26.5252306,13.688 C25.8958941,13.5386659 25.3758993,13.3840008 24.9652306,13.224 C24.5545619,13.0639992 24.2025654,12.821335 23.9092306,12.496 C23.6158958,12.170665 23.4692306,11.741336 23.4692306,11.208 C23.4692306,10.4613296 23.7385612,9.85333568 24.2772306,9.384 C24.8159,8.91466432 25.5865589,8.68 26.5892306,8.68 C27.410568,8.68 28.1838936,8.813332 28.9092306,9.08 C29.0585647,9.12266688 29.1732302,9.20266608 29.2532306,9.32 C29.333231,9.43733392 29.3732306,9.55999936 29.3732306,9.688 C29.3732306,9.85866752 29.3118979,10.0079994 29.1892306,10.136 C29.0665633,10.2640006 28.9145648,10.328 28.7332306,10.328 C28.679897,10.328 28.6105644,10.3173334 28.5252306,10.296 C27.9065608,10.103999 27.2985669,10.008 26.7012306,10.008 C26.1252277,10.008 25.6745656,10.111999 25.3492306,10.32 C25.0238956,10.528001 24.8612306,10.7973317 24.8612306,11.128 C24.8612306,11.4480016 25.0105624,11.6826659 25.3092306,11.832 C25.6078988,11.9813341 26.0718941,12.1253326 26.7012306,12.264 C27.3305671,12.4240008 27.842562,12.5813326 28.2372306,12.736 C28.6318992,12.8906674 28.9705625,13.1333317 29.2532306,13.464 C29.5358987,13.7946683 29.6772306,14.2373306 29.6772306,14.792 C29.6772306,15.4746701 29.4079,16.0399978 28.8692306,16.488 C28.3305612,16.9360022 27.5705688,17.16 26.5892306,17.16 Z M40.8169231,17.08 C40.6142555,17.08 40.4435905,17.0106674 40.3049231,16.872 C40.1662558,16.7333326 40.0969231,16.5626677 40.0969231,16.36 L40.0969231,7.192 L36.8329231,7.192 C36.6409222,7.192 36.4809238,7.12800064 36.3529231,7 C36.2249225,6.87199936 36.1609231,6.71200096 36.1609231,6.52 C36.1609231,6.32799904 36.2249225,6.165334 36.3529231,6.032 C36.4809238,5.898666 36.6409222,5.832 36.8329231,5.832 L44.8009231,5.832 C44.9929241,5.832 45.1555891,5.898666 45.2889231,6.032 C45.4222571,6.165334 45.4889231,6.32799904 45.4889231,6.52 C45.4889231,6.71200096 45.4222571,6.87199936 45.2889231,7 C45.1555891,7.12800064 44.9929241,7.192 44.8009231,7.192 L41.5529231,7.192 L41.5529231,16.36 C41.5529231,16.5626677 41.4809239,16.7333326 41.3369231,16.872 C41.1929224,17.0106674 41.0195908,17.08 40.8169231,17.08 Z M48.4747694,17.16 C48.0054337,17.16 47.5707714,17.064001 47.1707694,16.872 C46.7707674,16.68 46.4534372,16.4000018 46.2187694,16.032 C45.9841016,15.6639982 45.8667694,15.2400024 45.8667694,14.76 C45.8667694,13.9706627 46.1787663,13.3413357 46.8027694,12.872 C47.4267725,12.4026643 48.34143,12.168 49.5467694,12.168 L51.4827694,12.168 L51.4827694,12.04 C51.4827694,11.3359965 51.3094378,10.8293349 50.9627694,10.52 C50.616101,10.2106651 50.0747731,10.056 49.3387694,10.056 C48.933434,10.056 48.5734376,10.0879997 48.2587694,10.152 C47.9441012,10.2160003 47.5947713,10.3119994 47.2107694,10.44 C47.1254356,10.4613334 47.056103,10.472 47.0027694,10.472 C46.8427686,10.472 46.7041033,10.4133339 46.5867694,10.296 C46.4694355,10.1786661 46.4107694,10.0346675 46.4107694,9.864 C46.4107694,9.57599856 46.5494347,9.37333392 46.8267694,9.256 C47.7334406,8.87199808 48.656098,8.68 49.5947694,8.68 C50.3307731,8.68 50.9521002,8.82933184 51.4587694,9.128 C51.9654386,9.42666816 52.3387682,9.81333096 52.5787694,10.288 C52.8187706,10.762669 52.9387694,11.2773306 52.9387694,11.832 L52.9387694,16.36 C52.9387694,16.5626677 52.8667694,16.7333326 52.7227694,16.872 C52.5787687,17.0106674 52.4054371,17.08 52.2027694,17.08 C52.0001017,17.08 51.8294368,17.0106674 51.6907694,16.872 C51.552102,16.7333326 51.4827694,16.5626677 51.4827694,16.36 L51.4827694,15.944 C50.6934321,16.7546707 49.6907755,17.16 48.4747694,17.16 Z M49.0187694,15.88 C49.4881051,15.88 49.9414339,15.7653345 50.3787694,15.536 C50.8161049,15.3066655 51.1841012,15.021335 51.4827694,14.68 L51.4827694,13.336 L49.7387694,13.336 C48.1280947,13.336 47.3227694,13.7573291 47.3227694,14.6 C47.3227694,14.9840019 47.4534348,15.2933322 47.7147694,15.528 C47.976104,15.7626678 48.4107664,15.88 49.0187694,15.88 Z M59.4766157,8.68 C60.5432877,8.68 61.4552785,9.08532928 62.2126157,9.896 L62.2126157,9.496 C62.2126157,9.29333232 62.2819483,9.12000072 62.4206157,8.976 C62.559283,8.83199928 62.729948,8.76 62.9326157,8.76 C63.1352833,8.76 63.3086149,8.83199928 63.4526157,8.976 C63.5966164,9.12000072 63.6686157,9.29333232 63.6686157,9.496 L63.6686157,16.648 C63.6686157,17.9920067 63.3432856,19.026663 62.6926157,19.752 C62.0419457,20.477337 61.113955,20.84 59.9086157,20.84 C59.2899459,20.84 58.6659521,20.7600008 58.0366157,20.6 C57.4072792,20.4399992 56.889951,20.2426678 56.4846157,20.008 C56.2926147,19.8906661 56.1966157,19.7040013 56.1966157,19.448 C56.1966157,19.2773325 56.2579484,19.125334 56.3806157,18.992 C56.5032829,18.858666 56.6552814,18.792 56.8366157,18.792 C56.9219494,18.792 57.0179485,18.8133331 57.1246157,18.856 C57.9352864,19.2613354 58.8152776,19.464 59.7646157,19.464 C61.3966238,19.464 62.2126157,18.5946754 62.2126157,16.856 L62.2126157,15.784 C61.4552785,16.5946707 60.5432877,17 59.4766157,17 C58.8472792,17 58.2366186,16.8426682 57.6446157,16.528 C57.0526127,16.2133318 56.5646176,15.7440031 56.1806157,15.12 C55.7966137,14.4959969 55.6046157,13.7360045 55.6046157,12.84 C55.6046157,11.9439955 55.7966137,11.1840031 56.1806157,10.56 C56.5646176,9.93599688 57.0526127,9.46666824 57.6446157,9.152 C58.2366186,8.83733176 58.8472792,8.68 59.4766157,8.68 Z M59.7806157,10.008 C59.4856265,10.008 59.2105803,10.0409939 58.9554761,10.1069821 C58.5187435,10.2199523 58.1404584,10.4296244 57.8206157,10.736 C57.3139465,11.2213358 57.0606157,11.9226621 57.0606157,12.84 C57.0606157,13.7573379 57.3139465,14.4586642 57.8206157,14.944 C58.3272849,15.4293358 58.9806117,15.672 59.7806157,15.672 C60.2819515,15.672 60.7246137,15.5653344 61.1086157,15.352 C61.4926176,15.1386656 61.8606139,14.8506685 62.2126157,14.488 L62.2126157,14.488 L62.2126157,11.192 C61.8606139,10.8293315 61.4926176,10.5413344 61.1086157,10.328 C60.7246137,10.1146656 60.2819515,10.008 59.7806157,10.008 Z" id="HisTag" fill="#3F041D" fill-rule="nonzero"></path>
                    </g>
                    <g id="Group-2" transform="translate(0.000000, 29.000000)">
                        <rect id="Rectangle" fill="url(#linearGradient-3)" x="0" y="0" width="66" height="24" rx="2"></rect>
                        <path d="M7.14646122,17 C6.8691265,17 6.63179554,16.9013343 6.43446122,16.704 C6.2371269,16.5066657 6.13846122,16.2693347 6.13846122,15.992 L6.13846122,6.488 C6.13846122,6.28533232 6.20779386,6.11200072 6.34646122,5.968 C6.48512858,5.82399928 6.65579354,5.752 6.85846122,5.752 C7.0611289,5.752 7.2344605,5.82399928 7.37846122,5.968 C7.52246194,6.11200072 7.59446122,6.28533232 7.59446122,6.488 L7.59446122,15.544 L12.8264612,15.544 C13.0291289,15.544 13.2024605,15.6159993 13.3464612,15.76 C13.4904619,15.9040007 13.5624612,16.0773323 13.5624612,16.28 C13.5624612,16.4826677 13.4904619,16.6533326 13.3464612,16.792 C13.2024605,16.9306674 13.0291289,17 12.8264612,17 L7.14646122,17 Z M19.4283075,17.16 C18.1269676,17.16 17.1109778,16.789337 16.3803075,16.048 C15.6496372,15.306663 15.2843075,14.2640067 15.2843075,12.92 C15.2843075,12.1626629 15.4229728,11.4640032 15.7003075,10.824 C15.9776422,10.1839968 16.4043046,9.66666864 16.9803075,9.272 C17.5563104,8.87733136 18.2656366,8.68 19.1083075,8.68 C19.8976448,8.68 20.5803046,8.86399816 21.1563075,9.232 C21.7323104,9.60000184 22.1696393,10.0906636 22.4683075,10.704 C22.7669756,11.3173364 22.9163075,11.986663 22.9163075,12.712 C22.9163075,12.9146677 22.8496415,13.0853326 22.7163075,13.224 C22.5829735,13.3626674 22.4043086,13.432 22.1803075,13.432 L16.7563075,13.432 C16.8416412,14.1786704 17.1189718,14.7599979 17.5883075,15.176 C18.0576432,15.5920021 18.7136366,15.8 19.5563075,15.8 C20.0043097,15.8 20.3963058,15.7573338 20.7323075,15.672 C21.0683092,15.5866662 21.3963059,15.4640008 21.7163075,15.304 C21.8016412,15.2613331 21.8976403,15.24 22.0043075,15.24 C22.174975,15.24 22.3243068,15.2986661 22.4523075,15.416 C22.5803081,15.5333339 22.6443075,15.6826658 22.6443075,15.864 C22.6443075,16.0986678 22.5056422,16.2959992 22.2283075,16.456 C21.8123054,16.6906678 21.4016428,16.8666661 20.9963075,16.984 C20.5909721,17.1013339 20.0683107,17.16 19.4283075,17.16 Z M21.4763075,12.248 C21.4443073,11.7253307 21.3083087,11.2880018 21.0683075,10.936 C20.8283063,10.5839982 20.5323092,10.3253342 20.1803075,10.16 C19.8283057,9.99466584 19.470976,9.912 19.1083075,9.912 C18.745639,9.912 18.3883092,9.99466584 18.0363075,10.16 C17.6843057,10.3253342 17.3909753,10.5839982 17.1563075,10.936 C16.9216396,11.2880018 16.7883076,11.7253307 16.7563075,12.248 L21.4763075,12.248 Z M27.6301537,17.16 C27.1608181,17.16 26.7261557,17.064001 26.3261537,16.872 C25.9261517,16.68 25.6088216,16.4000018 25.3741537,16.032 C25.1394859,15.6639982 25.0221537,15.2400024 25.0221537,14.76 C25.0221537,13.9706627 25.3341506,13.3413357 25.9581537,12.872 C26.5821569,12.4026643 27.4968144,12.168 28.7021537,12.168 L30.6381537,12.168 L30.6381537,12.04 C30.6381537,11.3359965 30.4648221,10.8293349 30.1181537,10.52 C29.7714853,10.2106651 29.2301574,10.056 28.4941537,10.056 C28.0888184,10.056 27.728822,10.0879997 27.4141537,10.152 C27.0994855,10.2160003 26.7501557,10.3119994 26.3661537,10.44 C26.28082,10.4613334 26.2114873,10.472 26.1581537,10.472 C25.9981529,10.472 25.8594877,10.4133339 25.7421537,10.296 C25.6248198,10.1786661 25.5661537,10.0346675 25.5661537,9.864 C25.5661537,9.57599856 25.704819,9.37333392 25.9821537,9.256 C26.8888249,8.87199808 27.8114824,8.68 28.7501537,8.68 C29.4861574,8.68 30.1074845,8.82933184 30.6141537,9.128 C31.1208229,9.42666816 31.4941525,9.81333096 31.7341537,10.288 C31.9741549,10.762669 32.0941537,11.2773306 32.0941537,11.832 L32.0941537,16.36 C32.0941537,16.5626677 32.0221537,16.7333326 31.8781537,16.872 C31.734153,17.0106674 31.5608214,17.08 31.3581537,17.08 C31.1554861,17.08 30.9848211,17.0106674 30.8461537,16.872 C30.7074864,16.7333326 30.6381537,16.5626677 30.6381537,16.36 L30.6381537,15.944 C29.8488165,16.7546707 28.8461598,17.16 27.6301537,17.16 Z M28.1741537,15.88 C28.6434894,15.88 29.0968182,15.7653345 29.5341537,15.536 C29.9714893,15.3066655 30.3394856,15.021335 30.6381537,14.68 L30.6381537,13.336 L28.8941537,13.336 C27.283479,13.336 26.4781537,13.7573291 26.4781537,14.6 C26.4781537,14.9840019 26.6088191,15.2933322 26.8701537,15.528 C27.1314884,15.7626678 27.5661507,15.88 28.1741537,15.88 Z M38.632,17.16 C37.9706634,17.16 37.344003,16.9920017 36.752,16.656 C36.159997,16.3199983 35.6800018,15.8293366 35.312,15.184 C34.9439982,14.5386634 34.76,13.7840043 34.76,12.92 C34.76,12.0559957 34.9439982,11.3013366 35.312,10.656 C35.6800018,10.0106634 36.159997,9.52000168 36.752,9.184 C37.344003,8.84799832 37.9706634,8.68 38.632,8.68 C39.6773386,8.68 40.5893294,9.08532928 41.368,9.896 L41.368,5.976 C41.368,5.7626656 41.4399993,5.58666736 41.584,5.448 C41.7280007,5.30933264 41.9013323,5.24 42.104,5.24 C42.3066677,5.24 42.4773326,5.31199928 42.616,5.456 C42.7546674,5.60000072 42.824,5.77333232 42.824,5.976 L42.824,16.36 C42.824,16.5626677 42.7546674,16.7333326 42.616,16.872 C42.4773326,17.0106674 42.3066677,17.08 42.104,17.08 C41.9013323,17.08 41.7280007,17.0106674 41.584,16.872 C41.4399993,16.7333326 41.368,16.5626677 41.368,16.36 L41.368,15.944 C40.5893294,16.7546707 39.6773386,17.16 38.632,17.16 Z M38.84,15.8 C39.3306691,15.8 39.7919978,15.6906678 40.224,15.472 C40.6560022,15.2533322 41.0373317,14.9626685 41.368,14.6 L41.368,11.24 C41.0373317,10.8773315 40.6560022,10.5866678 40.224,10.368 C39.7919978,10.1493322 39.3306691,10.04 38.84,10.04 C38.0506627,10.04 37.4160024,10.2906642 36.936,10.792 C36.4559976,11.2933358 36.216,12.0026621 36.216,12.92 C36.216,13.8373379 36.4559976,14.5466642 36.936,15.048 C37.4160024,15.5493358 38.0506627,15.8 38.84,15.8 Z M49.7138463,17.16 C48.4125064,17.16 47.3965166,16.789337 46.6658463,16.048 C45.9351759,15.306663 45.5698463,14.2640067 45.5698463,12.92 C45.5698463,12.1626629 45.7085115,11.4640032 45.9858463,10.824 C46.263181,10.1839968 46.6898434,9.66666864 47.2658463,9.272 C47.8418491,8.87733136 48.5511754,8.68 49.3938463,8.68 C50.1831835,8.68 50.8658434,8.86399816 51.4418463,9.232 C52.0178491,9.60000184 52.4551781,10.0906636 52.7538463,10.704 C53.0525144,11.3173364 53.2018463,11.986663 53.2018463,12.712 C53.2018463,12.9146677 53.1351803,13.0853326 53.0018463,13.224 C52.8685123,13.3626674 52.6898474,13.432 52.4658463,13.432 L47.0418463,13.432 C47.12718,14.1786704 47.4045106,14.7599979 47.8738463,15.176 C48.3431819,15.5920021 48.9991754,15.8 49.8418463,15.8 C50.2898485,15.8 50.6818446,15.7573338 51.0178463,15.672 C51.3538479,15.5866662 51.6818447,15.4640008 52.0018463,15.304 C52.08718,15.2613331 52.1831791,15.24 52.2898463,15.24 C52.4605138,15.24 52.6098456,15.2986661 52.7378463,15.416 C52.8658469,15.5333339 52.9298463,15.6826658 52.9298463,15.864 C52.9298463,16.0986678 52.791181,16.2959992 52.5138463,16.456 C52.0978442,16.6906678 51.6871816,16.8666661 51.2818463,16.984 C50.8765109,17.1013339 50.3538495,17.16 49.7138463,17.16 Z M51.7618463,12.248 C51.7298461,11.7253307 51.5938475,11.2880018 51.3538463,10.936 C51.1138451,10.5839982 50.817848,10.3253342 50.4658463,10.16 C50.1138445,9.99466584 49.7565147,9.912 49.3938463,9.912 C49.0311778,9.912 48.673848,9.99466584 48.3218463,10.16 C47.9698445,10.3253342 47.6765141,10.5839982 47.4418463,10.936 C47.2071784,11.2880018 47.0738464,11.7253307 47.0418463,12.248 L51.7618463,12.248 Z M56.5556925,17.08 C56.3530248,17.08 56.1823599,17.0106674 56.0436925,16.872 C55.9050252,16.7333326 55.8356925,16.5626677 55.8356925,16.36 L55.8356925,9.496 C55.8356925,9.29333232 55.9050252,9.12000072 56.0436925,8.976 C56.1823599,8.83199928 56.3530248,8.76 56.5556925,8.76 C56.7583602,8.76 56.9316918,8.83199928 57.0756925,8.976 C57.2196932,9.12000072 57.2916925,9.29333232 57.2916925,9.496 L57.2916925,10.184 C58.0383629,9.18132832 58.8756879,8.68 59.8036925,8.68 L59.8836925,8.68 C60.0863602,8.68 60.2543585,8.74933264 60.3876925,8.888 C60.5210265,9.02666736 60.5876925,9.19733232 60.5876925,9.4 C60.5876925,9.60266768 60.5183599,9.76799936 60.3796925,9.896 C60.2410252,10.0240006 60.0650269,10.088 59.8516925,10.088 L59.7716925,10.088 C59.25969,10.088 58.7903613,10.2133321 58.3636925,10.464 C57.9370237,10.7146679 57.579694,11.0586645 57.2916925,11.496 L57.2916925,16.36 C57.2916925,16.5626677 57.2196932,16.7333326 57.0756925,16.872 C56.9316918,17.0106674 56.7583602,17.08 56.5556925,17.08 Z" id="Leader" fill="#3F041D" fill-rule="nonzero"></path>
                    </g>
                    <g id="Group-3" transform="translate(68.000000, 29.000000)">
                        <rect id="Rectangle" fill="url(#linearGradient-4)" x="0" y="0" width="88" height="24" rx="2"></rect>
                        <path d="M8.68461496,17.08 C8.24727944,17.08 7.91661608,16.8346691 7.69261496,16.344 L3.74061496,6.76 C3.7086148,6.67466624 3.69261496,6.58400048 3.69261496,6.488 C3.69261496,6.26399888 3.75661432,6.085334 3.88461496,5.952 C4.0126156,5.818666 4.18861384,5.752 4.41261496,5.752 C4.56194904,5.752 4.69794768,5.79733288 4.82061496,5.888 C4.94328224,5.97866712 5.03661464,6.09866592 5.10061496,6.248 L8.86061496,15.624 L12.620615,6.248 C12.6846153,6.09866592 12.7779477,5.97866712 12.900615,5.888 C13.0232822,5.79733288 13.1592809,5.752 13.308615,5.752 C13.5326161,5.752 13.7086143,5.818666 13.836615,5.952 C13.9646156,6.085334 14.028615,6.26399888 14.028615,6.488 C14.028615,6.58400048 14.0126151,6.67466624 13.980615,6.76 L10.028615,16.344 C9.80461384,16.8346691 9.47395048,17.08 9.03661496,17.08 L8.68461496,17.08 Z M17.6864612,17 C17.4091265,17 17.1717955,16.9013343 16.9744612,16.704 C16.7771269,16.5066657 16.6784612,16.2693347 16.6784612,15.992 L16.6784612,6.488 C16.6784612,6.28533232 16.7477939,6.11200072 16.8864612,5.968 C17.0251286,5.82399928 17.1957935,5.752 17.3984612,5.752 C17.6011289,5.752 17.7744605,5.82399928 17.9184612,5.968 C18.0624619,6.11200072 18.1344612,6.28533232 18.1344612,6.488 L18.1344612,15.544 L23.3664612,15.544 C23.5691289,15.544 23.7424605,15.6159993 23.8864612,15.76 C24.0304619,15.9040007 24.1024612,16.0773323 24.1024612,16.28 C24.1024612,16.4826677 24.0304619,16.6533326 23.8864612,16.792 C23.7424605,16.9306674 23.5691289,17 23.3664612,17 L17.6864612,17 Z M36.4261537,17.16 C35.3274816,17.16 34.3514913,16.9173358 33.4981537,16.432 C32.6448161,15.9466642 31.9834894,15.2693377 31.5141537,14.4 C31.0448181,13.5306623 30.8101537,12.5413389 30.8101537,11.432 C30.8101537,10.3013277 31.0554846,9.29867104 31.5461537,8.424 C32.0368229,7.54932896 32.7061495,6.8720024 33.5541537,6.392 C34.402158,5.9119976 35.3434819,5.672 36.3781537,5.672 C37.2101579,5.672 37.9381506,5.77333232 38.5621537,5.976 C39.0613562,6.13813414 39.5451929,6.35146583 40.0136729,6.6159994 L40.3621537,6.824 C40.4474875,6.86666688 40.5221534,6.9413328 40.5861537,7.048 C40.6501541,7.1546672 40.6821537,7.27199936 40.6821537,7.4 C40.6821537,7.58133424 40.620821,7.73599936 40.4981537,7.864 C40.3754865,7.99200064 40.2128214,8.056 40.0101537,8.056 C39.8928198,8.056 39.7808209,8.0293336 39.6741537,7.976 C39.1728179,7.67733184 38.6714896,7.45333408 38.1701537,7.304 C37.6688179,7.15466592 37.1248233,7.08 36.5381537,7.08 C35.727483,7.08 34.9968237,7.25066496 34.3461537,7.592 C33.6954838,7.93333504 33.1861556,8.43199672 32.8181537,9.088 C32.4501519,9.74400328 32.2661537,10.5253288 32.2661537,11.432 C32.2661537,12.2640042 32.4394853,13.0079967 32.7861537,13.664 C33.1328221,14.3200033 33.6341505,14.8373314 34.2901537,15.216 C34.946157,15.5946686 35.7221493,15.784 36.6181537,15.784 C37.6208254,15.784 38.5541494,15.5493357 39.4181537,15.08 L39.4181537,12.184 L36.7781537,12.184 C36.5968195,12.184 36.4421544,12.1200006 36.3141537,11.992 C36.1861531,11.8639994 36.1221537,11.7093342 36.1221537,11.528 C36.1221537,11.3466658 36.1861531,11.1920006 36.3141537,11.064 C36.4421544,10.9359994 36.5968195,10.872 36.7781537,10.872 L39.9301537,10.872 C40.1434881,10.872 40.3248197,10.9466659 40.4741537,11.096 C40.6234878,11.2453341 40.6981537,11.4266656 40.6981537,11.64 L40.6981537,15.272 C40.6981537,15.4960011 40.6421543,15.6959991 40.5301537,15.872 C40.4181532,16.0480009 40.271488,16.1786662 40.0901537,16.264 C38.8954811,16.8613363 37.67416,17.16 36.4261537,17.16 Z M45.028,17.08 C44.8253323,17.08 44.6546674,17.0106674 44.516,16.872 C44.3773326,16.7333326 44.308,16.5626677 44.308,16.36 L44.308,6.568 C44.308,6.36533232 44.3773326,6.19200072 44.516,6.048 C44.6546674,5.90399928 44.8253323,5.832 45.028,5.832 L48.676,5.832 C49.6893384,5.832 50.5159968,6.00266496 51.156,6.344 C51.7960032,6.68533504 52.2546653,7.122664 52.532,7.656 C52.8093347,8.189336 52.948,8.76533024 52.948,9.384 C52.948,10.0026698 52.8093347,10.578664 52.532,11.112 C52.2546653,11.645336 51.7960032,12.082665 51.156,12.424 C50.5159968,12.765335 49.6893384,12.936 48.676,12.936 L45.764,12.936 L45.764,16.36 C45.764,16.5626677 45.6920007,16.7333326 45.548,16.872 C45.4039993,17.0106674 45.2306677,17.08 45.028,17.08 Z M48.532,11.56 C49.6200054,11.56 50.3853311,11.3520021 50.828,10.936 C51.2706689,10.5199979 51.492,10.0026698 51.492,9.384 C51.492,8.76533024 51.2706689,8.24800208 50.828,7.832 C50.3853311,7.41599792 49.6200054,7.208 48.532,7.208 L45.764,7.208 L45.764,11.56 L48.532,11.56 Z M55.0378463,17.08 C54.8245119,17.08 54.6511803,17.0106674 54.5178463,16.872 C54.3845123,16.7333326 54.3178463,16.5626677 54.3178463,16.36 C54.3178463,16.2746662 54.3445127,16.1680006 54.3978463,16.04 L58.4778463,6.408 C58.56318,6.21599904 58.6831788,6.05866728 58.8378463,5.936 C58.9925137,5.81333272 59.1818451,5.752 59.4058463,5.752 L59.5658463,5.752 C59.7898474,5.752 59.9791788,5.81333272 60.1338463,5.936 C60.2885137,6.05866728 60.4085125,6.21599904 60.4938463,6.408 L64.5738463,16.04 C64.6271799,16.1680006 64.6538463,16.2746662 64.6538463,16.36 C64.6538463,16.5626677 64.5871803,16.7333326 64.4538463,16.872 C64.3205123,17.0106674 64.1471807,17.08 63.9338463,17.08 C63.7845122,17.08 63.6485135,17.0400004 63.5258463,16.96 C63.403179,16.8799996 63.3098466,16.7706674 63.2458463,16.632 L62.2058463,14.136 L56.7658463,14.136 L55.7258463,16.632 C55.6618459,16.7706674 55.5685135,16.8799996 55.4458463,16.96 C55.323179,17.0400004 55.1871803,17.08 55.0378463,17.08 Z M57.3258463,12.808 L61.6458463,12.808 L59.4858463,7.608 L57.3258463,12.808 Z M70.8716925,17.16 C69.6876866,17.16 68.5730311,16.9466688 67.5276925,16.52 C67.3996919,16.4666664 67.2983596,16.3893338 67.2236925,16.288 C67.1490255,16.1866662 67.1116925,16.0613341 67.1116925,15.912 C67.1116925,15.7306658 67.1730252,15.573334 67.2956925,15.44 C67.4183598,15.306666 67.5703583,15.24 67.7516925,15.24 C67.847693,15.24 67.9490253,15.2613331 68.0556925,15.304 C68.8236964,15.6133349 69.6716879,15.768 70.5996925,15.768 C71.4316967,15.768 72.133023,15.6320014 72.7036925,15.36 C73.274362,15.0879986 73.5596925,14.6320032 73.5596925,13.992 C73.5596925,12.6959935 72.4637239,12.0248567 70.2717549,11.9785714 L69.7676925,11.976 C69.5863583,11.976 69.4290265,11.909334 69.2956925,11.776 C69.1623585,11.642666 69.0956925,11.4853342 69.0956925,11.304 C69.0956925,11.1226658 69.1623585,10.965334 69.2956925,10.832 C69.4290265,10.698666 69.5863583,10.632 69.7676925,10.632 L69.8636925,10.632 C70.9303645,10.632 71.7463564,10.469335 72.3116925,10.144 C72.8770287,9.81866504 73.1596925,9.3360032 73.1596925,8.696 C73.1596925,8.18399744 72.9463613,7.77866816 72.5196925,7.48 C72.0930237,7.18133184 71.4636967,7.032 70.6316925,7.032 C69.735688,7.032 68.9090296,7.20799824 68.1516925,7.56 C68.0450253,7.60266688 67.9490263,7.624 67.8636925,7.624 C67.7036917,7.624 67.5650264,7.56800056 67.4476925,7.456 C67.3303586,7.34399944 67.2716925,7.20266752 67.2716925,7.032 C67.2716925,6.78666544 67.3783581,6.60533392 67.5916925,6.488 C68.6156976,5.94399728 69.6716871,5.672 70.7596925,5.672 C71.9863653,5.672 72.9356892,5.92266416 73.6076925,6.424 C74.2796959,6.92533584 74.6156925,7.63466208 74.6156925,8.552 C74.6156925,9.28800368 74.4316944,9.86666456 74.0636925,10.288 C73.6956907,10.7093354 73.234362,11.0213323 72.6796925,11.224 C73.2876956,11.3626674 73.8290235,11.6533311 74.3036925,12.096 C74.7783616,12.5386689 75.0156925,13.197329 75.0156925,14.072 C75.0156925,15.0533382 74.6290297,15.8133306 73.8556925,16.352 C73.0823553,16.8906694 72.0876986,17.16 70.8716925,17.16 Z M81.6335388,17.16 C80.4495329,17.16 79.3348773,16.9466688 78.2895388,16.52 C78.1615381,16.4666664 78.0602058,16.3893338 77.9855388,16.288 C77.9108717,16.1866662 77.8735388,16.0613341 77.8735388,15.912 C77.8735388,15.7306658 77.9348715,15.573334 78.0575388,15.44 C78.1802061,15.306666 78.3322045,15.24 78.5135388,15.24 C78.6095393,15.24 78.7108716,15.2613331 78.8175388,15.304 C79.5855426,15.6133349 80.4335341,15.768 81.3615388,15.768 C82.1935429,15.768 82.8948693,15.6320014 83.4655388,15.36 C84.0362083,15.0879986 84.3215388,14.6320032 84.3215388,13.992 C84.3215388,12.6959935 83.2255702,12.0248567 81.0336012,11.9785714 L80.5295388,11.976 C80.3482045,11.976 80.1908728,11.909334 80.0575388,11.776 C79.9242048,11.642666 79.8575388,11.4853342 79.8575388,11.304 C79.8575388,11.1226658 79.9242048,10.965334 80.0575388,10.832 C80.1908728,10.698666 80.3482045,10.632 80.5295388,10.632 L80.6255388,10.632 C81.6922108,10.632 82.5082026,10.469335 83.0735388,10.144 C83.6388749,9.81866504 83.9215388,9.3360032 83.9215388,8.696 C83.9215388,8.18399744 83.7082076,7.77866816 83.2815388,7.48 C82.85487,7.18133184 82.2255429,7.032 81.3935388,7.032 C80.4975343,7.032 79.6708759,7.20799824 78.9135388,7.56 C78.8068716,7.60266688 78.7108725,7.624 78.6255388,7.624 C78.465538,7.624 78.3268727,7.56800056 78.2095388,7.456 C78.0922049,7.34399944 78.0335388,7.20266752 78.0335388,7.032 C78.0335388,6.78666544 78.1402044,6.60533392 78.3535388,6.488 C79.3775439,5.94399728 80.4335333,5.672 81.5215388,5.672 C82.7482116,5.672 83.6975354,5.92266416 84.3695388,6.424 C85.0415421,6.92533584 85.3775388,7.63466208 85.3775388,8.552 C85.3775388,9.28800368 85.1935406,9.86666456 84.8255388,10.288 C84.4575369,10.7093354 83.9962082,11.0213323 83.4415388,11.224 C84.0495418,11.3626674 84.5908697,11.6533311 85.0655388,12.096 C85.5402078,12.5386689 85.7775388,13.197329 85.7775388,14.072 C85.7775388,15.0533382 85.390876,15.8133306 84.6175388,16.352 C83.8442016,16.8906694 82.8495449,17.16 81.6335388,17.16 Z" id="VLGPA33" fill="#3F041D" fill-rule="nonzero"></path>
                    </g>
                    <g id="Group-5" transform="translate(229.000000, 29.000000)">
                        <rect id="Rectangle" fill="url(#linearGradient-5)" x="0" y="0" width="88" height="24" rx="2"></rect>
                        <path d="M17.4704612,17.08 C17.0331257,17.08 16.7024623,16.8346691 16.4784612,16.344 L12.5264612,6.76 C12.4944611,6.67466624 12.4784612,6.58400048 12.4784612,6.488 C12.4784612,6.26399888 12.5424606,6.085334 12.6704612,5.952 C12.7984619,5.818666 12.9744601,5.752 13.1984612,5.752 C13.3477953,5.752 13.4837939,5.79733288 13.6064612,5.888 C13.7291285,5.97866712 13.8224609,6.09866592 13.8864612,6.248 L17.6464612,15.624 L21.4064612,6.248 C21.4704615,6.09866592 21.5637939,5.97866712 21.6864612,5.888 C21.8091285,5.79733288 21.9451271,5.752 22.0944612,5.752 C22.3184623,5.752 22.4944606,5.818666 22.6224612,5.952 C22.7504619,6.085334 22.8144612,6.26399888 22.8144612,6.488 C22.8144612,6.58400048 22.7984614,6.67466624 22.7664612,6.76 L18.8144612,16.344 C18.5904601,16.8346691 18.2597967,17.08 17.8224612,17.08 L17.4704612,17.08 Z M26.1843075,17.08 C25.9816398,17.08 25.8109748,17.0106674 25.6723075,16.872 C25.5336401,16.7333326 25.4643075,16.5626677 25.4643075,16.36 L25.4643075,6.488 C25.4643075,6.28533232 25.5336401,6.11200072 25.6723075,5.968 C25.8109748,5.82399928 25.9816398,5.752 26.1843075,5.752 C26.3869752,5.752 26.5603068,5.82399928 26.7043075,5.968 C26.8483082,6.11200072 26.9203075,6.28533232 26.9203075,6.488 L26.9203075,10.744 L32.9843075,10.744 L32.9843075,6.488 C32.9843075,6.28533232 33.0536401,6.11200072 33.1923075,5.968 C33.3309748,5.82399928 33.5016398,5.752 33.7043075,5.752 C33.9069752,5.752 34.0803068,5.82399928 34.2243075,5.968 C34.3683082,6.11200072 34.4403075,6.28533232 34.4403075,6.488 L34.4403075,16.36 C34.4403075,16.5626677 34.3683082,16.7333326 34.2243075,16.872 C34.0803068,17.0106674 33.9069752,17.08 33.7043075,17.08 C33.5016398,17.08 33.3309748,17.0106674 33.1923075,16.872 C33.0536401,16.7333326 32.9843075,16.5626677 32.9843075,16.36 L32.9843075,12.104 L26.9203075,12.104 L26.9203075,16.36 C26.9203075,16.5626677 26.8483082,16.7333326 26.7043075,16.872 C26.5603068,17.0106674 26.3869752,17.08 26.1843075,17.08 Z M48.06,17.16 C46.993328,17.16 46.0360042,16.9280023 45.188,16.464 C44.3399958,15.9999977 43.6733358,15.3333377 43.188,14.464 C42.7026642,13.5946623 42.46,12.5786725 42.46,11.416 C42.46,10.2533275 42.7026642,9.23733768 43.188,8.368 C43.6733358,7.49866232 44.3399958,6.83200232 45.188,6.368 C46.0360042,5.90399768 46.993328,5.672 48.06,5.672 C48.785337,5.672 49.4333305,5.75733248 50.004,5.928 C50.5746695,6.09866752 51.1426638,6.3439984 51.708,6.664 C51.9426678,6.79200064 52.06,6.99466528 52.06,7.272 C52.06,7.4320008 52.0013339,7.57333272 51.884,7.696 C51.7666661,7.81866728 51.612001,7.88 51.42,7.88 C51.3133328,7.88 51.2173338,7.85866688 51.132,7.816 C50.6626643,7.57066544 50.2040022,7.38400064 49.756,7.256 C49.3079978,7.12799936 48.7906696,7.064 48.204,7.064 C47.2866621,7.064 46.5053366,7.25333144 45.86,7.632 C45.2146634,8.01066856 44.729335,8.52799672 44.404,9.184 C44.078665,9.84000328 43.916,10.5839958 43.916,11.416 C43.916,12.2480042 44.078665,12.9919967 44.404,13.648 C44.729335,14.3040033 45.2146634,14.8213314 45.86,15.2 C46.5053366,15.5786686 47.2866621,15.768 48.204,15.768 C48.7906696,15.768 49.3079978,15.7040006 49.756,15.576 C50.2040022,15.4479994 50.6626643,15.2613346 51.132,15.016 C51.2173338,14.9733331 51.3133328,14.952 51.42,14.952 C51.612001,14.952 51.7666661,15.0106661 51.884,15.128 C52.0013339,15.2453339 52.06,15.3893325 52.06,15.56 C52.06,15.8373347 51.9426678,16.0399994 51.708,16.168 C51.1426638,16.4880016 50.5746695,16.7333325 50.004,16.904 C49.4333305,17.0746675 48.785337,17.16 48.06,17.16 Z M55.6858463,17 C55.4831786,17 55.3125136,16.9306674 55.1738463,16.792 C55.0351789,16.6533326 54.9658463,16.4826677 54.9658463,16.28 L54.9658463,6.568 C54.9658463,6.36533232 55.0351789,6.19200072 55.1738463,6.048 C55.3125136,5.90399928 55.4831786,5.832 55.6858463,5.832 L58.9018463,5.832 C60.1178523,5.832 61.149842,6.10133064 61.9978463,6.64 C62.8458505,7.17866936 63.4831775,7.8746624 63.9098463,8.728 C64.3365151,9.5813376 64.5498463,10.4773286 64.5498463,11.416 C64.5498463,12.3546714 64.3365151,13.2506624 63.9098463,14.104 C63.4831775,14.9573376 62.8458505,15.6533306 61.9978463,16.192 C61.149842,16.7306694 60.1178523,17 58.9018463,17 L55.6858463,17 Z M58.7258463,15.64 C59.6005173,15.64 60.3685096,15.4613351 61.0298463,15.104 C61.6911829,14.7466649 62.2031778,14.2506698 62.5658463,13.616 C62.9285147,12.9813302 63.1098463,12.2480042 63.1098463,11.416 C63.1098463,10.5839958 62.9285147,9.85066984 62.5658463,9.216 C62.2031778,8.58133016 61.6911829,8.08533512 61.0298463,7.728 C60.3685096,7.37066488 59.6005173,7.192 58.7258463,7.192 L56.4218463,7.192 L56.4218463,15.64 L58.7258463,15.64 Z M70.8476925,17.16 C69.6636866,17.16 68.5490311,16.9466688 67.5036925,16.52 C67.3756919,16.4666664 67.2743596,16.3893338 67.1996925,16.288 C67.1250255,16.1866662 67.0876925,16.0613341 67.0876925,15.912 C67.0876925,15.7306658 67.1490252,15.573334 67.2716925,15.44 C67.3943598,15.306666 67.5463583,15.24 67.7276925,15.24 C67.823693,15.24 67.9250253,15.2613331 68.0316925,15.304 C68.7996964,15.6133349 69.6476879,15.768 70.5756925,15.768 C71.4076967,15.768 72.109023,15.6320014 72.6796925,15.36 C73.250362,15.0879986 73.5356925,14.6320032 73.5356925,13.992 C73.5356925,12.6959935 72.4397239,12.0248567 70.2477549,11.9785714 L69.7436925,11.976 C69.5623583,11.976 69.4050265,11.909334 69.2716925,11.776 C69.1383585,11.642666 69.0716925,11.4853342 69.0716925,11.304 C69.0716925,11.1226658 69.1383585,10.965334 69.2716925,10.832 C69.4050265,10.698666 69.5623583,10.632 69.7436925,10.632 L69.8396925,10.632 C70.9063645,10.632 71.7223564,10.469335 72.2876925,10.144 C72.8530287,9.81866504 73.1356925,9.3360032 73.1356925,8.696 C73.1356925,8.18399744 72.9223613,7.77866816 72.4956925,7.48 C72.0690237,7.18133184 71.4396967,7.032 70.6076925,7.032 C69.711688,7.032 68.8850296,7.20799824 68.1276925,7.56 C68.0210253,7.60266688 67.9250263,7.624 67.8396925,7.624 C67.6796917,7.624 67.5410264,7.56800056 67.4236925,7.456 C67.3063586,7.34399944 67.2476925,7.20266752 67.2476925,7.032 C67.2476925,6.78666544 67.3543581,6.60533392 67.5676925,6.488 C68.5916976,5.94399728 69.6476871,5.672 70.7356925,5.672 C71.9623653,5.672 72.9116892,5.92266416 73.5836925,6.424 C74.2556959,6.92533584 74.5916925,7.63466208 74.5916925,8.552 C74.5916925,9.28800368 74.4076944,9.86666456 74.0396925,10.288 C73.6716907,10.7093354 73.210362,11.0213323 72.6556925,11.224 C73.2636956,11.3626674 73.8050235,11.6533311 74.2796925,12.096 C74.7543616,12.5386689 74.9916925,13.197329 74.9916925,14.072 C74.9916925,15.0533382 74.6050297,15.8133306 73.8316925,16.352 C73.0583553,16.8906694 72.0636986,17.16 70.8476925,17.16 Z" id="VHCD3" fill="#3F041D" fill-rule="nonzero"></path>
                    </g>
                    <g id="Group-7" transform="translate(388.000000, 29.000000)">
                        <rect id="Rectangle" fill="url(#linearGradient-6)" x="0" y="0" width="88" height="24" rx="2"></rect>
                        <path d="M18.9024612,17.08 C18.4651257,17.08 18.1344623,16.8346691 17.9104612,16.344 L13.9584612,6.76 C13.9264611,6.67466624 13.9104612,6.58400048 13.9104612,6.488 C13.9104612,6.26399888 13.9744606,6.085334 14.1024612,5.952 C14.2304619,5.818666 14.4064601,5.752 14.6304612,5.752 C14.7797953,5.752 14.9157939,5.79733288 15.0384612,5.888 C15.1611285,5.97866712 15.2544609,6.09866592 15.3184612,6.248 L19.0784612,15.624 L22.8384612,6.248 C22.9024615,6.09866592 22.9957939,5.97866712 23.1184612,5.888 C23.2411285,5.79733288 23.3771271,5.752 23.5264612,5.752 C23.7504623,5.752 23.9264606,5.818666 24.0544612,5.952 C24.1824619,6.085334 24.2464612,6.26399888 24.2464612,6.488 C24.2464612,6.58400048 24.2304614,6.67466624 24.1984612,6.76 L20.2464612,16.344 C20.0224601,16.8346691 19.6917967,17.08 19.2544612,17.08 L18.9024612,17.08 Z M27.9043075,17 C27.6269728,17 27.3896418,16.9013343 27.1923075,16.704 C26.9949732,16.5066657 26.8963075,16.2693347 26.8963075,15.992 L26.8963075,6.488 C26.8963075,6.28533232 26.9656401,6.11200072 27.1043075,5.968 C27.2429748,5.82399928 27.4136398,5.752 27.6163075,5.752 C27.8189752,5.752 27.9923068,5.82399928 28.1363075,5.968 C28.2803082,6.11200072 28.3523075,6.28533232 28.3523075,6.488 L28.3523075,15.544 L33.5843075,15.544 C33.7869752,15.544 33.9603068,15.6159993 34.1043075,15.76 C34.2483082,15.9040007 34.3203075,16.0773323 34.3203075,16.28 C34.3203075,16.4826677 34.2483082,16.6533326 34.1043075,16.792 C33.9603068,16.9306674 33.7869752,17 33.5843075,17 L27.9043075,17 Z M46.628,17.16 C45.561328,17.16 44.6040042,16.9280023 43.756,16.464 C42.9079958,15.9999977 42.2413358,15.3333377 41.756,14.464 C41.2706642,13.5946623 41.028,12.5786725 41.028,11.416 C41.028,10.2533275 41.2706642,9.23733768 41.756,8.368 C42.2413358,7.49866232 42.9079958,6.83200232 43.756,6.368 C44.6040042,5.90399768 45.561328,5.672 46.628,5.672 C47.353337,5.672 48.0013305,5.75733248 48.572,5.928 C49.1426695,6.09866752 49.7106638,6.3439984 50.276,6.664 C50.5106678,6.79200064 50.628,6.99466528 50.628,7.272 C50.628,7.4320008 50.5693339,7.57333272 50.452,7.696 C50.3346661,7.81866728 50.180001,7.88 49.988,7.88 C49.8813328,7.88 49.7853338,7.85866688 49.7,7.816 C49.2306643,7.57066544 48.7720022,7.38400064 48.324,7.256 C47.8759978,7.12799936 47.3586696,7.064 46.772,7.064 C45.8546621,7.064 45.0733366,7.25333144 44.428,7.632 C43.7826634,8.01066856 43.297335,8.52799672 42.972,9.184 C42.646665,9.84000328 42.484,10.5839958 42.484,11.416 C42.484,12.2480042 42.646665,12.9919967 42.972,13.648 C43.297335,14.3040033 43.7826634,14.8213314 44.428,15.2 C45.0733366,15.5786686 45.8546621,15.768 46.772,15.768 C47.3586696,15.768 47.8759978,15.7040006 48.324,15.576 C48.7720022,15.4479994 49.2306643,15.2613346 49.7,15.016 C49.7853338,14.9733331 49.8813328,14.952 49.988,14.952 C50.180001,14.952 50.3346661,15.0106661 50.452,15.128 C50.5693339,15.2453339 50.628,15.3893325 50.628,15.56 C50.628,15.8373347 50.5106678,16.0399994 50.276,16.168 C49.7106638,16.4880016 49.1426695,16.7333325 48.572,16.904 C48.0013305,17.0746675 47.353337,17.16 46.628,17.16 Z M54.2538463,17 C54.0511786,17 53.8805136,16.9306674 53.7418463,16.792 C53.6031789,16.6533326 53.5338463,16.4826677 53.5338463,16.28 L53.5338463,6.568 C53.5338463,6.36533232 53.6031789,6.19200072 53.7418463,6.048 C53.8805136,5.90399928 54.0511786,5.832 54.2538463,5.832 L57.4698463,5.832 C58.6858523,5.832 59.717842,6.10133064 60.5658463,6.64 C61.4138505,7.17866936 62.0511775,7.8746624 62.4778463,8.728 C62.9045151,9.5813376 63.1178463,10.4773286 63.1178463,11.416 C63.1178463,12.3546714 62.9045151,13.2506624 62.4778463,14.104 C62.0511775,14.9573376 61.4138505,15.6533306 60.5658463,16.192 C59.717842,16.7306694 58.6858523,17 57.4698463,17 L54.2538463,17 Z M57.2938463,15.64 C58.1685173,15.64 58.9365096,15.4613351 59.5978463,15.104 C60.2591829,14.7466649 60.7711778,14.2506698 61.1338463,13.616 C61.4965147,12.9813302 61.6778463,12.2480042 61.6778463,11.416 C61.6778463,10.5839958 61.4965147,9.85066984 61.1338463,9.216 C60.7711778,8.58133016 60.2591829,8.08533512 59.5978463,7.728 C58.9365096,7.37066488 58.1685173,7.192 57.2938463,7.192 L54.9898463,7.192 L54.9898463,15.64 L57.2938463,15.64 Z M69.4156925,17.16 C68.2316866,17.16 67.1170311,16.9466688 66.0716925,16.52 C65.9436919,16.4666664 65.8423596,16.3893338 65.7676925,16.288 C65.6930255,16.1866662 65.6556925,16.0613341 65.6556925,15.912 C65.6556925,15.7306658 65.7170252,15.573334 65.8396925,15.44 C65.9623598,15.306666 66.1143583,15.24 66.2956925,15.24 C66.391693,15.24 66.4930253,15.2613331 66.5996925,15.304 C67.3676964,15.6133349 68.2156879,15.768 69.1436925,15.768 C69.9756967,15.768 70.677023,15.6320014 71.2476925,15.36 C71.818362,15.0879986 72.1036925,14.6320032 72.1036925,13.992 C72.1036925,12.6959935 71.0077239,12.0248567 68.8157549,11.9785714 L68.3116925,11.976 C68.1303583,11.976 67.9730265,11.909334 67.8396925,11.776 C67.7063585,11.642666 67.6396925,11.4853342 67.6396925,11.304 C67.6396925,11.1226658 67.7063585,10.965334 67.8396925,10.832 C67.9730265,10.698666 68.1303583,10.632 68.3116925,10.632 L68.4076925,10.632 C69.4743645,10.632 70.2903564,10.469335 70.8556925,10.144 C71.4210287,9.81866504 71.7036925,9.3360032 71.7036925,8.696 C71.7036925,8.18399744 71.4903613,7.77866816 71.0636925,7.48 C70.6370237,7.18133184 70.0076967,7.032 69.1756925,7.032 C68.279688,7.032 67.4530296,7.20799824 66.6956925,7.56 C66.5890253,7.60266688 66.4930263,7.624 66.4076925,7.624 C66.2476917,7.624 66.1090264,7.56800056 65.9916925,7.456 C65.8743586,7.34399944 65.8156925,7.20266752 65.8156925,7.032 C65.8156925,6.78666544 65.9223581,6.60533392 66.1356925,6.488 C67.1596976,5.94399728 68.2156871,5.672 69.3036925,5.672 C70.5303653,5.672 71.4796892,5.92266416 72.1516925,6.424 C72.8236959,6.92533584 73.1596925,7.63466208 73.1596925,8.552 C73.1596925,9.28800368 72.9756944,9.86666456 72.6076925,10.288 C72.2396907,10.7093354 71.778362,11.0213323 71.2236925,11.224 C71.8316956,11.3626674 72.3730235,11.6533311 72.8476925,12.096 C73.3223616,12.5386689 73.5596925,13.197329 73.5596925,14.072 C73.5596925,15.0533382 73.1730297,15.8133306 72.3996925,16.352 C71.6263553,16.8906694 70.6316986,17.16 69.4156925,17.16 Z" id="VLCD3" fill="#3F041D" fill-rule="nonzero"></path>
                    </g>
                    <g id="Group-4" transform="translate(158.000000, 29.000000)">
                        <rect id="Rectangle" fill="url(#linearGradient-7)" x="0" y="0" width="69" height="24" rx="2"></rect>
                        <path d="M12.0713843,17.08 C11.8687166,17.08 11.6980516,17.0106674 11.5593843,16.872 C11.4207169,16.7333326 11.3513843,16.5626677 11.3513843,16.36 L11.3513843,14.184 L6.47138426,14.184 C6.21538298,14.184 5.9967185,14.0960009 5.81538426,13.92 C5.63405002,13.7439991 5.54338426,13.5280013 5.54338426,13.272 L5.54338426,13.128 C5.54338426,12.9039989 5.60738362,12.7120008 5.73538426,12.552 L10.7593843,6.136 C10.844718,6.01866608 10.9593835,5.92533368 11.1033843,5.856 C11.247385,5.78666632 11.3993835,5.752 11.5593843,5.752 L11.8793843,5.752 C12.156719,5.752 12.3807167,5.83999912 12.5513843,6.016 C12.7220518,6.19200088 12.8073843,6.413332 12.8073843,6.68 L12.8073843,12.888 L14.0233843,12.888 C14.2047185,12.888 14.3593836,12.9519994 14.4873843,13.08 C14.6153849,13.2080006 14.6793843,13.3626658 14.6793843,13.544 C14.6793843,13.7253342 14.6153849,13.8773327 14.4873843,14 C14.3593836,14.1226673 14.2047185,14.184 14.0233843,14.184 L12.8073843,14.184 L12.8073843,16.36 C12.8073843,16.5626677 12.735385,16.7333326 12.5913843,16.872 C12.4473835,17.0106674 12.2740519,17.08 12.0713843,17.08 Z M7.09538426,12.888 L11.3513843,12.888 L11.3513843,7.4 L7.09538426,12.888 Z M17.4092305,17.08 C17.1958961,17.08 17.0278978,17.013334 16.9052305,16.88 C16.7825632,16.746666 16.7212305,16.5680011 16.7212305,16.344 C16.7212305,16.1839992 16.7745633,16.0346674 16.8812305,15.896 L19.3612305,12.968 L16.8812305,9.944 C16.7638966,9.79466592 16.7052305,9.6400008 16.7052305,9.48 C16.7052305,9.2666656 16.7745632,9.093334 16.9132305,8.96 C17.0518979,8.826666 17.2225628,8.76 17.4252305,8.76 C17.6812318,8.76 17.8732299,8.85066576 18.0012305,9.032 L20.2412305,11.8 L22.4652305,9.032 C22.5932312,8.85066576 22.779896,8.76 23.0252305,8.76 C23.2385649,8.76 23.4145632,8.826666 23.5532305,8.96 C23.6918979,9.093334 23.7612305,9.25599904 23.7612305,9.448 C23.7612305,9.6080008 23.7078977,9.75733264 23.6012305,9.896 L21.0732305,12.872 L23.5692305,15.88 C23.6865644,16.0080006 23.7452305,16.1626658 23.7452305,16.344 C23.7452305,16.5466677 23.6812312,16.7199993 23.5532305,16.864 C23.4252299,17.0080007 23.2438984,17.08 23.0092305,17.08 C22.813674,17.08 22.6514529,17.013334 22.522564,16.8800003 L20.1772305,14.072 L18.0332305,16.76 C17.8732297,16.9733344 17.6652318,17.08 17.4092305,17.08 Z M27.3710768,19.112 C27.1790758,19.112 27.0137441,19.0426674 26.8750768,18.904 C26.7364094,18.7653326 26.6670768,18.600001 26.6670768,18.408 L26.6670768,5.992 C26.6670768,5.79999904 26.7364094,5.63466736 26.8750768,5.496 C27.0137441,5.35733264 27.1790758,5.288 27.3710768,5.288 L29.4030768,5.288 C29.5630776,5.288 29.6990762,5.34399944 29.8110768,5.456 C29.9230773,5.56800056 29.9790768,5.7039992 29.9790768,5.864 C29.9790768,6.0240008 29.9230773,6.15999944 29.8110768,6.272 C29.6990762,6.38400056 29.5630776,6.44 29.4030768,6.44 L27.9310768,6.44 L27.9310768,17.976 L29.4030768,17.976 C29.5630776,17.976 29.6990762,18.0319994 29.8110768,18.144 C29.9230773,18.2560006 29.9790768,18.3866659 29.9790768,18.536 C29.9790768,18.6853341 29.9230773,18.8186661 29.8110768,18.936 C29.6990762,19.0533339 29.5630776,19.112 29.4030768,19.112 L27.3710768,19.112 Z M37.364923,17.16 C36.2662509,17.16 35.2902606,16.9173358 34.436923,16.432 C33.5835854,15.9466642 32.9222587,15.2693377 32.452923,14.4 C31.9835874,13.5306623 31.748923,12.5413389 31.748923,11.432 C31.748923,10.3013277 31.9942539,9.29867104 32.484923,8.424 C32.9755922,7.54932896 33.6449188,6.8720024 34.492923,6.392 C35.3409273,5.9119976 36.2822512,5.672 37.316923,5.672 C38.1489272,5.672 38.8769199,5.77333232 39.500923,5.976 C40.0001255,6.13813414 40.4839622,6.35146583 40.9524422,6.6159994 L41.300923,6.824 C41.3862568,6.86666688 41.4609227,6.9413328 41.524923,7.048 C41.5889234,7.1546672 41.620923,7.27199936 41.620923,7.4 C41.620923,7.58133424 41.5595903,7.73599936 41.436923,7.864 C41.3142558,7.99200064 41.1515907,8.056 40.948923,8.056 C40.8315891,8.056 40.7195902,8.0293336 40.612923,7.976 C40.1115872,7.67733184 39.6102589,7.45333408 39.108923,7.304 C38.6075872,7.15466592 38.0635926,7.08 37.476923,7.08 C36.6662523,7.08 35.935593,7.25066496 35.284923,7.592 C34.6342531,7.93333504 34.1249249,8.43199672 33.756923,9.088 C33.3889212,9.74400328 33.204923,10.5253288 33.204923,11.432 C33.204923,12.2640042 33.3782546,13.0079967 33.724923,13.664 C34.0715914,14.3200033 34.5729198,14.8373314 35.228923,15.216 C35.8849263,15.5946686 36.6609186,15.784 37.556923,15.784 C38.5595947,15.784 39.4929187,15.5493357 40.356923,15.08 L40.356923,12.184 L37.716923,12.184 C37.5355888,12.184 37.3809237,12.1200006 37.252923,11.992 C37.1249224,11.8639994 37.060923,11.7093342 37.060923,11.528 C37.060923,11.3466658 37.1249224,11.1920006 37.252923,11.064 C37.3809237,10.9359994 37.5355888,10.872 37.716923,10.872 L40.868923,10.872 C41.0822574,10.872 41.263589,10.9466659 41.412923,11.096 C41.5622571,11.2453341 41.636923,11.4266656 41.636923,11.64 L41.636923,15.272 C41.636923,15.4960011 41.5809236,15.6959991 41.468923,15.872 C41.3569225,16.0480009 41.2102573,16.1786662 41.028923,16.264 C39.8342504,16.8613363 38.6129293,17.16 37.364923,17.16 Z M48.0247693,17.05 C47.898102,17.05 47.7914364,17.0066671 47.7047693,16.92 C47.6181022,16.8333329 47.5747693,16.7266673 47.5747693,16.6 L47.5747693,15.24 L44.5247693,15.24 C44.3647685,15.24 44.2281032,15.1850006 44.1147693,15.075 C44.0014354,14.9649995 43.9447693,14.8300008 43.9447693,14.67 L43.9447693,14.58 C43.9447693,14.4399993 43.9847689,14.3200005 44.0647693,14.22 L47.2047693,10.21 C47.2581029,10.1366663 47.3297689,10.0783335 47.4197693,10.035 C47.5097698,9.99166645 47.6047688,9.97 47.7047693,9.97 L47.9047693,9.97 C48.0781035,9.97 48.2181021,10.0249994 48.3247693,10.135 C48.4314365,10.2450006 48.4847693,10.3833325 48.4847693,10.55 L48.4847693,14.43 L49.2447693,14.43 C49.3581032,14.43 49.4547689,14.47 49.5347693,14.55 C49.6147697,14.6300004 49.6547693,14.7266661 49.6547693,14.84 C49.6547693,14.9533339 49.6147697,15.048333 49.5347693,15.125 C49.4547689,15.2016671 49.3581032,15.24 49.2447693,15.24 L48.4847693,15.24 L48.4847693,16.6 C48.4847693,16.7266673 48.4397698,16.8333329 48.3497693,16.92 C48.2597689,17.0066671 48.1514366,17.05 48.0247693,17.05 Z M44.9147693,14.43 L47.5747693,14.43 L47.5747693,11 L44.9147693,14.43 Z M55.4929232,17.16 C54.1382498,17.16 52.8689291,16.9040026 51.6849232,16.392 C51.5569226,16.3386664 51.450257,16.2506673 51.3649232,16.128 C51.2795895,16.0053327 51.2369232,15.8746674 51.2369232,15.736 C51.2369232,15.5546658 51.2982559,15.397334 51.4209232,15.264 C51.5435905,15.130666 51.7009223,15.064 51.8929232,15.064 C51.9995904,15.064 52.1009227,15.0853331 52.1969232,15.128 C53.1782615,15.5653355 54.2289176,15.784 55.3489232,15.784 C57.2155992,15.784 58.1489232,15.1706728 58.1489232,13.944 C58.1489232,13.6239984 58.0289244,13.3573344 57.7889232,13.144 C57.548922,12.9306656 57.252925,12.7626673 56.9009232,12.64 C56.5929217,12.5326661 56.170592,12.4069589 55.6339241,12.2628752 L55.3969232,12.2 C54.5329189,11.9759989 53.8342592,11.760001 53.3009232,11.552 C52.7675872,11.343999 52.3089251,11.0320021 51.9249232,10.616 C51.5409213,10.1999979 51.3489232,9.6453368 51.3489232,8.952 C51.3489232,8.34399696 51.5089216,7.79200248 51.8289232,7.296 C52.1489248,6.79999752 52.6209201,6.4053348 53.2449232,6.112 C53.8689263,5.8186652 54.6182522,5.672 55.4929232,5.672 C56.6662624,5.672 57.7275851,5.84799824 58.6769232,6.2 C58.9755914,6.3066672 59.1249232,6.5199984 59.1249232,6.84 C59.1249232,7.01066752 59.0662571,7.16533264 58.9489232,7.304 C58.8315893,7.44266736 58.6769242,7.512 58.4849232,7.512 C58.4209229,7.512 58.3355904,7.49066688 58.2289232,7.448 C57.3969191,7.15999856 56.538261,7.016 55.6529232,7.016 C54.8102523,7.016 54.1249259,7.1759984 53.5969232,7.496 C53.0689206,7.8160016 52.8049232,8.26399712 52.8049232,8.84 C52.8049232,9.22400192 52.9302553,9.5359988 53.1809232,9.776 C53.4315911,10.0160012 53.7462547,10.202666 54.1249232,10.336 C54.4494963,10.4502863 54.8739825,10.5704486 55.3983917,10.6964896 L55.6689232,10.76 C56.5115941,10.9626677 57.1915873,11.1653323 57.7089232,11.368 C58.2262591,11.5706677 58.6689214,11.8853312 59.0369232,12.312 C59.4049251,12.7386688 59.5889232,13.314663 59.5889232,14.04 C59.5889232,14.6373363 59.4182583,15.173331 59.0769232,15.648 C58.7355882,16.122669 58.255593,16.493332 57.6369232,16.76 C57.0182535,17.026668 56.3035939,17.16 55.4929232,17.16 Z M62.0147695,19.112 C61.8547687,19.112 61.71877,19.0533339 61.6067695,18.936 C61.4947689,18.8186661 61.4387695,18.6853341 61.4387695,18.536 C61.4387695,18.3866659 61.4947689,18.2560006 61.6067695,18.144 C61.71877,18.0319994 61.8547687,17.976 62.0147695,17.976 L63.4867695,17.976 L63.4867695,6.44 L62.0147695,6.44 C61.8547687,6.44 61.71877,6.38400056 61.6067695,6.272 C61.4947689,6.15999944 61.4387695,6.0240008 61.4387695,5.864 C61.4387695,5.7039992 61.4947689,5.56800056 61.6067695,5.456 C61.71877,5.34399944 61.8547687,5.288 62.0147695,5.288 L64.0467695,5.288 C64.2387704,5.288 64.4041021,5.35733264 64.5427695,5.496 C64.6814368,5.63466736 64.7507695,5.79999904 64.7507695,5.992 L64.7507695,18.408 C64.7507695,18.600001 64.6814368,18.7653326 64.5427695,18.904 C64.4041021,19.0426674 64.2387704,19.112 64.0467695,19.112 L62.0147695,19.112 Z" id="4x[G4S]" fill="#3F041D" fill-rule="nonzero"></path>
                    </g>
                    <g id="Group-6" transform="translate(318.000000, 29.000000)">
                        <rect id="Rectangle" fill="url(#linearGradient-8)" x="0" y="0" width="69" height="24" rx="2"></rect>
                        <path d="M9.84738426,17.16 C8.66337834,17.16 7.54872282,16.9466688 6.50338426,16.52 C6.37538362,16.4666664 6.2740513,16.3893338 6.19938426,16.288 C6.12471722,16.1866662 6.08738426,16.0613341 6.08738426,15.912 C6.08738426,15.7306658 6.14871698,15.573334 6.27138426,15.44 C6.39405154,15.306666 6.54605002,15.24 6.72738426,15.24 C6.82338474,15.24 6.92471706,15.2613331 7.03138426,15.304 C7.7993881,15.6133349 8.64737962,15.768 9.57538426,15.768 C10.4073884,15.768 11.1087147,15.6320014 11.6793843,15.36 C12.2500538,15.0879986 12.5353843,14.6320032 12.5353843,13.992 C12.5353843,12.6959935 11.4394156,12.0248567 9.24744666,11.9785714 L8.74338426,11.976 C8.56205002,11.976 8.40471826,11.909334 8.27138426,11.776 C8.13805026,11.642666 8.07138426,11.4853342 8.07138426,11.304 C8.07138426,11.1226658 8.13805026,10.965334 8.27138426,10.832 C8.40471826,10.698666 8.56205002,10.632 8.74338426,10.632 L8.83938426,10.632 C9.90605626,10.632 10.7220481,10.469335 11.2873843,10.144 C11.8527204,9.81866504 12.1353843,9.3360032 12.1353843,8.696 C12.1353843,8.18399744 11.9220531,7.77866816 11.4953843,7.48 C11.0687155,7.18133184 10.4393884,7.032 9.60738426,7.032 C8.71137978,7.032 7.88472138,7.20799824 7.12738426,7.56 C7.02071706,7.60266688 6.92471802,7.624 6.83938426,7.624 C6.67938346,7.624 6.54071818,7.56800056 6.42338426,7.456 C6.30605034,7.34399944 6.24738426,7.20266752 6.24738426,7.032 C6.24738426,6.78666544 6.35404986,6.60533392 6.56738426,6.488 C7.59138938,5.94399728 8.64737882,5.672 9.73538426,5.672 C10.9620571,5.672 11.9113809,5.92266416 12.5833843,6.424 C13.2553876,6.92533584 13.5913843,7.63466208 13.5913843,8.552 C13.5913843,9.28800368 13.4073861,9.86666456 13.0393843,10.288 C12.6713824,10.7093354 12.2100537,11.0213323 11.6553843,11.224 C12.2633873,11.3626674 12.8047152,11.6533311 13.2793843,12.096 C13.7540533,12.5386689 13.9913843,13.197329 13.9913843,14.072 C13.9913843,15.0533382 13.6047215,15.8133306 12.8313843,16.352 C12.0580471,16.8906694 11.0633903,17.16 9.84738426,17.16 Z M17.4092305,17.08 C17.1958961,17.08 17.0278978,17.013334 16.9052305,16.88 C16.7825632,16.746666 16.7212305,16.5680011 16.7212305,16.344 C16.7212305,16.1839992 16.7745633,16.0346674 16.8812305,15.896 L19.3612305,12.968 L16.8812305,9.944 C16.7638966,9.79466592 16.7052305,9.6400008 16.7052305,9.48 C16.7052305,9.2666656 16.7745632,9.093334 16.9132305,8.96 C17.0518979,8.826666 17.2225628,8.76 17.4252305,8.76 C17.6812318,8.76 17.8732299,8.85066576 18.0012305,9.032 L20.2412305,11.8 L22.4652305,9.032 C22.5932312,8.85066576 22.779896,8.76 23.0252305,8.76 C23.2385649,8.76 23.4145632,8.826666 23.5532305,8.96 C23.6918979,9.093334 23.7612305,9.25599904 23.7612305,9.448 C23.7612305,9.6080008 23.7078977,9.75733264 23.6012305,9.896 L21.0732305,12.872 L23.5692305,15.88 C23.6865644,16.0080006 23.7452305,16.1626658 23.7452305,16.344 C23.7452305,16.5466677 23.6812312,16.7199993 23.5532305,16.864 C23.4252299,17.0080007 23.2438984,17.08 23.0092305,17.08 C22.813674,17.08 22.6514529,17.013334 22.522564,16.8800003 L20.1772305,14.072 L18.0332305,16.76 C17.8732297,16.9733344 17.6652318,17.08 17.4092305,17.08 Z M27.3710768,19.112 C27.1790758,19.112 27.0137441,19.0426674 26.8750768,18.904 C26.7364094,18.7653326 26.6670768,18.600001 26.6670768,18.408 L26.6670768,5.992 C26.6670768,5.79999904 26.7364094,5.63466736 26.8750768,5.496 C27.0137441,5.35733264 27.1790758,5.288 27.3710768,5.288 L29.4030768,5.288 C29.5630776,5.288 29.6990762,5.34399944 29.8110768,5.456 C29.9230773,5.56800056 29.9790768,5.7039992 29.9790768,5.864 C29.9790768,6.0240008 29.9230773,6.15999944 29.8110768,6.272 C29.6990762,6.38400056 29.5630776,6.44 29.4030768,6.44 L27.9310768,6.44 L27.9310768,17.976 L29.4030768,17.976 C29.5630776,17.976 29.6990762,18.0319994 29.8110768,18.144 C29.9230773,18.2560006 29.9790768,18.3866659 29.9790768,18.536 C29.9790768,18.6853341 29.9230773,18.8186661 29.8110768,18.936 C29.6990762,19.0533339 29.5630776,19.112 29.4030768,19.112 L27.3710768,19.112 Z M37.364923,17.16 C36.2662509,17.16 35.2902606,16.9173358 34.436923,16.432 C33.5835854,15.9466642 32.9222587,15.2693377 32.452923,14.4 C31.9835874,13.5306623 31.748923,12.5413389 31.748923,11.432 C31.748923,10.3013277 31.9942539,9.29867104 32.484923,8.424 C32.9755922,7.54932896 33.6449188,6.8720024 34.492923,6.392 C35.3409273,5.9119976 36.2822512,5.672 37.316923,5.672 C38.1489272,5.672 38.8769199,5.77333232 39.500923,5.976 C40.0001255,6.13813414 40.4839622,6.35146583 40.9524422,6.6159994 L41.300923,6.824 C41.3862568,6.86666688 41.4609227,6.9413328 41.524923,7.048 C41.5889234,7.1546672 41.620923,7.27199936 41.620923,7.4 C41.620923,7.58133424 41.5595903,7.73599936 41.436923,7.864 C41.3142558,7.99200064 41.1515907,8.056 40.948923,8.056 C40.8315891,8.056 40.7195902,8.0293336 40.612923,7.976 C40.1115872,7.67733184 39.6102589,7.45333408 39.108923,7.304 C38.6075872,7.15466592 38.0635926,7.08 37.476923,7.08 C36.6662523,7.08 35.935593,7.25066496 35.284923,7.592 C34.6342531,7.93333504 34.1249249,8.43199672 33.756923,9.088 C33.3889212,9.74400328 33.204923,10.5253288 33.204923,11.432 C33.204923,12.2640042 33.3782546,13.0079967 33.724923,13.664 C34.0715914,14.3200033 34.5729198,14.8373314 35.228923,15.216 C35.8849263,15.5946686 36.6609186,15.784 37.556923,15.784 C38.5595947,15.784 39.4929187,15.5493357 40.356923,15.08 L40.356923,12.184 L37.716923,12.184 C37.5355888,12.184 37.3809237,12.1200006 37.252923,11.992 C37.1249224,11.8639994 37.060923,11.7093342 37.060923,11.528 C37.060923,11.3466658 37.1249224,11.1920006 37.252923,11.064 C37.3809237,10.9359994 37.5355888,10.872 37.716923,10.872 L40.868923,10.872 C41.0822574,10.872 41.263589,10.9466659 41.412923,11.096 C41.5622571,11.2453341 41.636923,11.4266656 41.636923,11.64 L41.636923,15.272 C41.636923,15.4960011 41.5809236,15.6959991 41.468923,15.872 C41.3569225,16.0480009 41.2102573,16.1786662 41.028923,16.264 C39.8342504,16.8613363 38.6129293,17.16 37.364923,17.16 Z M48.0247693,17.05 C47.898102,17.05 47.7914364,17.0066671 47.7047693,16.92 C47.6181022,16.8333329 47.5747693,16.7266673 47.5747693,16.6 L47.5747693,15.24 L44.5247693,15.24 C44.3647685,15.24 44.2281032,15.1850006 44.1147693,15.075 C44.0014354,14.9649995 43.9447693,14.8300008 43.9447693,14.67 L43.9447693,14.58 C43.9447693,14.4399993 43.9847689,14.3200005 44.0647693,14.22 L47.2047693,10.21 C47.2581029,10.1366663 47.3297689,10.0783335 47.4197693,10.035 C47.5097698,9.99166645 47.6047688,9.97 47.7047693,9.97 L47.9047693,9.97 C48.0781035,9.97 48.2181021,10.0249994 48.3247693,10.135 C48.4314365,10.2450006 48.4847693,10.3833325 48.4847693,10.55 L48.4847693,14.43 L49.2447693,14.43 C49.3581032,14.43 49.4547689,14.47 49.5347693,14.55 C49.6147697,14.6300004 49.6547693,14.7266661 49.6547693,14.84 C49.6547693,14.9533339 49.6147697,15.048333 49.5347693,15.125 C49.4547689,15.2016671 49.3581032,15.24 49.2447693,15.24 L48.4847693,15.24 L48.4847693,16.6 C48.4847693,16.7266673 48.4397698,16.8333329 48.3497693,16.92 C48.2597689,17.0066671 48.1514366,17.05 48.0247693,17.05 Z M44.9147693,14.43 L47.5747693,14.43 L47.5747693,11 L44.9147693,14.43 Z M55.4929232,17.16 C54.1382498,17.16 52.8689291,16.9040026 51.6849232,16.392 C51.5569226,16.3386664 51.450257,16.2506673 51.3649232,16.128 C51.2795895,16.0053327 51.2369232,15.8746674 51.2369232,15.736 C51.2369232,15.5546658 51.2982559,15.397334 51.4209232,15.264 C51.5435905,15.130666 51.7009223,15.064 51.8929232,15.064 C51.9995904,15.064 52.1009227,15.0853331 52.1969232,15.128 C53.1782615,15.5653355 54.2289176,15.784 55.3489232,15.784 C57.2155992,15.784 58.1489232,15.1706728 58.1489232,13.944 C58.1489232,13.6239984 58.0289244,13.3573344 57.7889232,13.144 C57.548922,12.9306656 57.252925,12.7626673 56.9009232,12.64 C56.5929217,12.5326661 56.170592,12.4069589 55.6339241,12.2628752 L55.3969232,12.2 C54.5329189,11.9759989 53.8342592,11.760001 53.3009232,11.552 C52.7675872,11.343999 52.3089251,11.0320021 51.9249232,10.616 C51.5409213,10.1999979 51.3489232,9.6453368 51.3489232,8.952 C51.3489232,8.34399696 51.5089216,7.79200248 51.8289232,7.296 C52.1489248,6.79999752 52.6209201,6.4053348 53.2449232,6.112 C53.8689263,5.8186652 54.6182522,5.672 55.4929232,5.672 C56.6662624,5.672 57.7275851,5.84799824 58.6769232,6.2 C58.9755914,6.3066672 59.1249232,6.5199984 59.1249232,6.84 C59.1249232,7.01066752 59.0662571,7.16533264 58.9489232,7.304 C58.8315893,7.44266736 58.6769242,7.512 58.4849232,7.512 C58.4209229,7.512 58.3355904,7.49066688 58.2289232,7.448 C57.3969191,7.15999856 56.538261,7.016 55.6529232,7.016 C54.8102523,7.016 54.1249259,7.1759984 53.5969232,7.496 C53.0689206,7.8160016 52.8049232,8.26399712 52.8049232,8.84 C52.8049232,9.22400192 52.9302553,9.5359988 53.1809232,9.776 C53.4315911,10.0160012 53.7462547,10.202666 54.1249232,10.336 C54.4494963,10.4502863 54.8739825,10.5704486 55.3983917,10.6964896 L55.6689232,10.76 C56.5115941,10.9626677 57.1915873,11.1653323 57.7089232,11.368 C58.2262591,11.5706677 58.6689214,11.8853312 59.0369232,12.312 C59.4049251,12.7386688 59.5889232,13.314663 59.5889232,14.04 C59.5889232,14.6373363 59.4182583,15.173331 59.0769232,15.648 C58.7355882,16.122669 58.255593,16.493332 57.6369232,16.76 C57.0182535,17.026668 56.3035939,17.16 55.4929232,17.16 Z M62.0147695,19.112 C61.8547687,19.112 61.71877,19.0533339 61.6067695,18.936 C61.4947689,18.8186661 61.4387695,18.6853341 61.4387695,18.536 C61.4387695,18.3866659 61.4947689,18.2560006 61.6067695,18.144 C61.71877,18.0319994 61.8547687,17.976 62.0147695,17.976 L63.4867695,17.976 L63.4867695,6.44 L62.0147695,6.44 C61.8547687,6.44 61.71877,6.38400056 61.6067695,6.272 C61.4947689,6.15999944 61.4387695,6.0240008 61.4387695,5.864 C61.4387695,5.7039992 61.4947689,5.56800056 61.6067695,5.456 C61.71877,5.34399944 61.8547687,5.288 62.0147695,5.288 L64.0467695,5.288 C64.2387704,5.288 64.4041021,5.35733264 64.5427695,5.496 C64.6814368,5.63466736 64.7507695,5.79999904 64.7507695,5.992 L64.7507695,18.408 C64.7507695,18.600001 64.6814368,18.7653326 64.5427695,18.904 C64.4041021,19.0426674 64.2387704,19.112 64.0467695,19.112 L62.0147695,19.112 Z" id="3x[G4S]" fill="#3F041D" fill-rule="nonzero"></path>
                    </g>
                    <path d="M5.6,11.488 C4.533328,11.488 3.57600424,11.2560023 2.728,10.792 C1.87999576,10.3279977 1.21333576,9.66133768 0.728,8.792 C0.24266424,7.92266232 4.26325641e-14,6.90667248 4.26325641e-14,5.744 C4.26325641e-14,4.58132752 0.24266424,3.56533768 0.728,2.696 C1.21333576,1.82666232 1.87999576,1.16000232 2.728,0.696 C3.57600424,0.23199768 4.533328,0 5.6,0 C6.32533696,0 6.97333048,0.08533248 7.544,0.256 C8.11466952,0.42666752 8.68266384,0.6719984 9.248,0.992 C9.48266784,1.12000064 9.6,1.32266528 9.6,1.6 C9.6,1.7600008 9.54133392,1.90133272 9.424,2.024 C9.30666608,2.14666728 9.15200096,2.208 8.96,2.208 C8.8533328,2.208 8.75733376,2.18666688 8.672,2.144 C8.20266432,1.89866544 7.74400224,1.71200064 7.296,1.584 C6.84799776,1.45599936 6.3306696,1.392 5.744,1.392 C4.82666208,1.392 4.04533656,1.58133144 3.4,1.96 C2.75466344,2.33866856 2.26933496,2.85599672 1.944,3.512 C1.61866504,4.16800328 1.456,4.91199584 1.456,5.744 C1.456,6.57600416 1.61866504,7.31999672 1.944,7.976 C2.26933496,8.63200328 2.75466344,9.14933144 3.4,9.528 C4.04533656,9.90666856 4.82666208,10.096 5.744,10.096 C6.3306696,10.096 6.84799776,10.0320006 7.296,9.904 C7.74400224,9.77599936 8.20266432,9.58933456 8.672,9.344 C8.75733376,9.30133312 8.8533328,9.28 8.96,9.28 C9.15200096,9.28 9.30666608,9.33866608 9.424,9.456 C9.54133392,9.57333392 9.6,9.71733248 9.6,9.888 C9.6,10.1653347 9.48266784,10.3679994 9.248,10.496 C8.68266384,10.8160016 8.11466952,11.0613325 7.544,11.232 C6.97333048,11.4026675 6.32533696,11.488 5.6,11.488 Z M15.5618463,11.488 C14.7405088,11.488 14.020516,11.3120018 13.4018463,10.96 C12.7831765,10.6079982 12.3058479,10.1093366 11.9698463,9.464 C11.6338446,8.81866344 11.4658463,8.08000416 11.4658463,7.248 C11.4658463,6.41599584 11.6338446,5.67733656 11.9698463,5.032 C12.3058479,4.38666344 12.7831765,3.88800176 13.4018463,3.536 C14.020516,3.18399824 14.7405088,3.008 15.5618463,3.008 C16.372517,3.008 17.0871765,3.18399824 17.7058463,3.536 C18.324516,3.88800176 18.8045112,4.38666344 19.1458463,5.032 C19.4871813,5.67733656 19.6578463,6.41599584 19.6578463,7.248 C19.6578463,8.08000416 19.4871813,8.81866344 19.1458463,9.464 C18.8045112,10.1093366 18.324516,10.6079982 17.7058463,10.96 C17.0871765,11.3120018 16.372517,11.488 15.5618463,11.488 Z M15.5618463,10.16 C15.9991818,10.16 16.4178443,10.0586677 16.8178463,9.856 C17.2178483,9.65333232 17.5485116,9.33333552 17.8098463,8.896 C18.0711809,8.45866448 18.2018463,7.90400336 18.2018463,7.232 C18.2018463,6.57066336 18.0711809,6.02133552 17.8098463,5.584 C17.5485116,5.14666448 17.2178483,4.82933432 16.8178463,4.632 C16.4178443,4.43466568 15.9991818,4.336 15.5618463,4.336 C15.113844,4.336 14.6898483,4.43466568 14.2898463,4.632 C13.8898443,4.82933432 13.5618475,5.14666448 13.3058463,5.584 C13.049845,6.02133552 12.9218463,6.57066336 12.9218463,7.232 C12.9218463,7.90400336 13.049845,8.45866448 13.3058463,8.896 C13.5618475,9.33333552 13.8898443,9.65333232 14.2898463,9.856 C14.6898483,10.0586677 15.113844,10.16 15.5618463,10.16 Z M23.1236925,11.408 C22.9210248,11.408 22.7503599,11.3386674 22.6116925,11.2 C22.4730252,11.0613326 22.4036925,10.8906677 22.4036925,10.688 L22.4036925,3.824 C22.4036925,3.62133232 22.4730252,3.44800072 22.6116925,3.304 C22.7503599,3.15999928 22.9210248,3.088 23.1236925,3.088 C23.3263602,3.088 23.4996918,3.15999928 23.6436925,3.304 C23.7876932,3.44800072 23.8596925,3.62133232 23.8596925,3.824 L23.8596925,4.48 C24.2650279,4.03199776 24.7023568,3.674668 25.1716925,3.408 C25.6410282,3.141332 26.1956893,3.008 26.8356925,3.008 C27.4223621,3.008 27.9316904,3.14666528 28.3636925,3.424 C28.7956947,3.70133472 29.126358,4.0799976 29.3556925,4.56 C29.585027,5.0400024 29.6996925,5.56799712 29.6996925,6.144 L29.6996925,10.688 C29.6996925,10.8906677 29.6276932,11.0613326 29.4836925,11.2 C29.3396918,11.3386674 29.1663602,11.408 28.9636925,11.408 C28.7610248,11.408 28.5903599,11.3386674 28.4516925,11.2 C28.3130252,11.0613326 28.2436925,10.8906677 28.2436925,10.688 L28.2436925,6.304 C28.2436925,5.00266016 27.6570317,4.352 26.4836925,4.352 C25.9503565,4.352 25.473028,4.49066528 25.0516925,4.768 C24.6303571,5.04533472 24.2330277,5.41866432 23.8596925,5.888 L23.8596925,10.688 C23.8596925,10.8906677 23.7876932,11.0613326 23.6436925,11.2 C23.4996918,11.3386674 23.3263602,11.408 23.1236925,11.408 Z M35.5015388,11.488 C34.4348668,11.488 33.4642098,11.2480024 32.5895388,10.768 C32.4082045,10.6399994 32.3175388,10.4640011 32.3175388,10.24 C32.3175388,10.0693325 32.3762049,9.92000064 32.4935388,9.792 C32.6108727,9.66399936 32.7602045,9.6 32.9415388,9.6 C33.0375393,9.6 33.1335383,9.62133312 33.2295388,9.664 C33.5708738,9.81333408 33.9122037,9.93066624 34.2535388,10.016 C34.5948738,10.1013338 34.97887,10.144 35.4055388,10.144 C36.5895447,10.144 37.1815388,9.76533712 37.1815388,9.008 C37.1815388,8.76266544 37.0455401,8.57600064 36.7735388,8.448 C36.5015374,8.31999936 36.0562085,8.1760008 35.4375388,8.016 C34.8082023,7.86666592 34.2882075,7.7120008 33.8775388,7.552 C33.4668701,7.3919992 33.1148736,7.14933496 32.8215388,6.824 C32.528204,6.49866504 32.3815388,6.069336 32.3815388,5.536 C32.3815388,4.7893296 32.6508694,4.18133568 33.1895388,3.712 C33.7282081,3.24266432 34.4988671,3.008 35.5015388,3.008 C36.3228762,3.008 37.0962018,3.141332 37.8215388,3.408 C37.9708729,3.45066688 38.0855384,3.53066608 38.1655388,3.648 C38.2455392,3.76533392 38.2855388,3.88799936 38.2855388,4.016 C38.2855388,4.18666752 38.2242061,4.33599936 38.1015388,4.464 C37.9788715,4.59200064 37.826873,4.656 37.6455388,4.656 C37.5922052,4.656 37.5228725,4.64533344 37.4375388,4.624 C36.818869,4.43199904 36.2108751,4.336 35.6135388,4.336 C35.0375359,4.336 34.5868737,4.43999896 34.2615388,4.648 C33.9362038,4.85600104 33.7735388,5.12533168 33.7735388,5.456 C33.7735388,5.7760016 33.9228706,6.01066592 34.2215388,6.16 C34.5202069,6.30933408 34.9842023,6.45333264 35.6135388,6.592 C36.2428753,6.7520008 36.7548701,6.90933256 37.1495388,7.064 C37.5442074,7.21866744 37.8828707,7.46133168 38.1655388,7.792 C38.4482069,8.12266832 38.5895388,8.56533056 38.5895388,9.12 C38.5895388,9.80267008 38.3202081,10.3679978 37.7815388,10.816 C37.2428694,11.2640022 36.482877,11.488 35.5015388,11.488 Z M44.007385,11.488 C42.4500439,11.488 41.671385,10.784007 41.671385,9.376 L41.671385,4.416 L40.535385,4.416 C40.4500513,4.416 40.378052,4.38666696 40.319385,4.328 C40.2607181,4.26933304 40.231385,4.19733376 40.231385,4.112 C40.231385,4.0053328 40.2793846,3.91466704 40.375385,3.84 L42.551385,1.712 C42.6473855,1.61599952 42.7380513,1.568 42.823385,1.568 C42.9087188,1.568 42.9807181,1.59999968 43.039385,1.664 C43.098052,1.72800032 43.127385,1.80266624 43.127385,1.888 L43.127385,3.168 L44.935385,3.168 C45.1167193,3.168 45.2660511,3.22666608 45.383385,3.344 C45.500719,3.46133392 45.559385,3.61066576 45.559385,3.792 C45.559385,3.96266752 45.500719,4.10933272 45.383385,4.232 C45.2660511,4.35466728 45.1167193,4.416 44.935385,4.416 L43.127385,4.416 L43.127385,9.248 C43.127385,9.66400208 43.2260507,9.92799944 43.423385,10.04 C43.6207194,10.1520006 43.8687169,10.208 44.167385,10.208 C44.3273858,10.208 44.4873848,10.1900002 44.6473847,10.1540001 L44.807385,10.112 C44.8500519,10.1013333 44.8953848,10.0906667 44.943385,10.08 C44.9913853,10.0693333 45.052718,10.064 45.127385,10.064 C45.2767191,10.064 45.4100511,10.1199994 45.527385,10.232 C45.644719,10.3440006 45.703385,10.4799992 45.703385,10.64 C45.703385,10.8853346 45.5807196,11.0719994 45.335385,11.2 C44.919383,11.392001 44.4767207,11.488 44.007385,11.488 Z M48.7372313,11.408 C48.5345636,11.408 48.3638987,11.3386674 48.2252313,11.2 C48.0865639,11.0613326 48.0172313,10.8906677 48.0172313,10.688 L48.0172313,3.824 C48.0172313,3.62133232 48.0865639,3.44800072 48.2252313,3.304 C48.3638987,3.15999928 48.5345636,3.088 48.7372313,3.088 C48.939899,3.088 49.1132306,3.15999928 49.2572313,3.304 C49.401232,3.44800072 49.4732313,3.62133232 49.4732313,3.824 L49.4732313,4.512 C50.2199017,3.50932832 51.0572267,3.008 51.9852313,3.008 L52.0652313,3.008 C52.267899,3.008 52.4358973,3.07733264 52.5692313,3.216 C52.7025653,3.35466736 52.7692313,3.52533232 52.7692313,3.728 C52.7692313,3.93066768 52.6998987,4.09599936 52.5612313,4.224 C52.4225639,4.35200064 52.2465657,4.416 52.0332313,4.416 L51.9532313,4.416 C51.4412287,4.416 50.9719001,4.54133208 50.5452313,4.792 C50.1185625,5.04266792 49.7612327,5.38666448 49.4732313,5.824 L49.4732313,10.688 C49.4732313,10.8906677 49.401232,11.0613326 49.2572313,11.2 C49.1132306,11.3386674 48.939899,11.408 48.7372313,11.408 Z M57.6430776,11.488 C57.056408,11.488 56.5470797,11.3493347 56.1150776,11.072 C55.6830754,10.7946653 55.352412,10.4160024 55.1230776,9.936 C54.8937431,9.4559976 54.7790776,8.92800288 54.7790776,8.352 L54.7790776,3.808 C54.7790776,3.60533232 54.8510768,3.43466736 54.9950776,3.296 C55.1390783,3.15733264 55.3124099,3.088 55.5150776,3.088 C55.7177452,3.088 55.8884102,3.15733264 56.0270776,3.296 C56.1657449,3.43466736 56.2350776,3.60533232 56.2350776,3.808 L56.2350776,8.192 C56.2350776,9.49333984 56.8217384,10.144 57.9950776,10.144 C58.5284136,10.144 59.0057421,10.0053347 59.4270776,9.728 C59.848413,9.45066528 60.2457424,9.07733568 60.6190776,8.608 L60.6190776,3.808 C60.6190776,3.60533232 60.6910768,3.43466736 60.8350776,3.296 C60.9790783,3.15733264 61.1524099,3.088 61.3550776,3.088 C61.5577452,3.088 61.7284102,3.15733264 61.8670776,3.296 C62.0057449,3.43466736 62.0750776,3.60533232 62.0750776,3.808 L62.0750776,10.672 C62.0750776,10.8746677 62.0057449,11.0479993 61.8670776,11.192 C61.7284102,11.3360007 61.5577452,11.408 61.3550776,11.408 C61.1524099,11.408 60.9790783,11.3360007 60.8350776,11.192 C60.6910768,11.0479993 60.6190776,10.8746677 60.6190776,10.672 L60.6190776,10.016 C60.2137422,10.4640022 59.7764132,10.821332 59.3070776,11.088 C58.8377419,11.354668 58.2830808,11.488 57.6430776,11.488 Z M69.0929238,11.488 C68.32492,11.488 67.6155937,11.317335 66.9649238,10.976 C66.3142539,10.634665 65.7942591,10.1440032 65.4049238,9.504 C65.0155885,8.8639968 64.8209238,8.11200432 64.8209238,7.248 C64.8209238,6.38399568 65.0155885,5.6320032 65.4049238,4.992 C65.7942591,4.3519968 66.3142539,3.86133504 66.9649238,3.52 C67.6155937,3.17866496 68.32492,3.008 69.0929238,3.008 C69.65826,3.008 70.1462551,3.07999928 70.5569238,3.224 C70.9675925,3.36800072 71.3489221,3.55199888 71.7009238,3.776 C71.9142582,3.91466736 72.0209238,4.10133216 72.0209238,4.336 C72.0209238,4.4960008 71.9595911,4.642666 71.8369238,4.776 C71.7142565,4.909334 71.5729246,4.976 71.4129238,4.976 C71.3249234,4.976 71.2369239,4.95800018 71.148924,4.92200013 L71.0609238,4.88 C70.7089221,4.69866576 70.4075917,4.5680004 70.1569238,4.488 C69.9062559,4.4079996 69.594259,4.368 69.2209238,4.368 C68.3035859,4.368 67.5835931,4.63199736 67.0609238,5.16 C66.5382545,5.68800264 66.2769238,6.38399568 66.2769238,7.248 C66.2769238,8.11200432 66.5382545,8.80799736 67.0609238,9.336 C67.5835931,9.86400264 68.3035859,10.128 69.2209238,10.128 C69.594259,10.128 69.9062559,10.0880004 70.1569238,10.008 C70.3574582,9.94399968 70.5904164,9.84757379 70.8558033,9.71872031 L71.0609238,9.616 C71.1782577,9.55199968 71.2955899,9.52 71.4129238,9.52 C71.5729246,9.52 71.7142565,9.586666 71.8369238,9.72 C71.9595911,9.853334 72.0209238,9.9999992 72.0209238,10.16 C72.0209238,10.3946678 71.9142582,10.5813326 71.7009238,10.72 C71.3489221,10.9440011 70.9675925,11.1279993 70.5569238,11.272 C70.1462551,11.4160007 69.65826,11.488 69.0929238,11.488 Z M77.3747701,11.488 C75.817429,11.488 75.0387701,10.784007 75.0387701,9.376 L75.0387701,4.416 L73.9027701,4.416 C73.8174363,4.416 73.745437,4.38666696 73.6867701,4.328 C73.6281031,4.26933304 73.5987701,4.19733376 73.5987701,4.112 C73.5987701,4.0053328 73.6467696,3.91466704 73.7427701,3.84 L75.9187701,1.712 C76.0147706,1.61599952 76.1054363,1.568 76.1907701,1.568 C76.2761038,1.568 76.3481031,1.59999968 76.4067701,1.664 C76.465437,1.72800032 76.4947701,1.80266624 76.4947701,1.888 L76.4947701,3.168 L78.3027701,3.168 C78.4841043,3.168 78.6334362,3.22666608 78.7507701,3.344 C78.868104,3.46133392 78.9267701,3.61066576 78.9267701,3.792 C78.9267701,3.96266752 78.868104,4.10933272 78.7507701,4.232 C78.6334362,4.35466728 78.4841043,4.416 78.3027701,4.416 L76.4947701,4.416 L76.4947701,9.248 C76.4947701,9.66400208 76.5934358,9.92799944 76.7907701,10.04 C76.9881044,10.1520006 77.2361019,10.208 77.5347701,10.208 C77.6947709,10.208 77.8547699,10.1900002 78.0147698,10.1540001 L78.1747701,10.112 C78.217437,10.1013333 78.2627698,10.0906667 78.3107701,10.08 C78.3587703,10.0693333 78.420103,10.064 78.4947701,10.064 C78.6441042,10.064 78.7774362,10.1199994 78.8947701,10.232 C79.012104,10.3440006 79.0707701,10.4799992 79.0707701,10.64 C79.0707701,10.8853346 78.9481046,11.0719994 78.7027701,11.2 C78.286768,11.392001 77.8441058,11.488 77.3747701,11.488 Z M87.8264626,11.328 C87.6344616,11.328 87.4744632,11.2640006 87.3464626,11.136 C87.218462,11.0079994 87.1544626,10.848001 87.1544626,10.656 C87.1544626,10.463999 87.218462,10.301334 87.3464626,10.168 C87.4744632,10.034666 87.6344616,9.968 87.8264626,9.968 L89.7304626,9.968 L89.7304626,1.856 L88.0984626,2.656 C87.9491285,2.72000032 87.8264631,2.752 87.7304626,2.752 C87.5277949,2.752 87.3624632,2.68800064 87.2344626,2.56 C87.106462,2.43199936 87.0424626,2.26666768 87.0424626,2.064 C87.0424626,1.76533184 87.1811279,1.54666736 87.4584626,1.408 L89.6344626,0.272 C89.7837967,0.19733296 89.9331285,0.16 90.0824626,0.16 L90.4184626,0.16 C90.631797,0.16 90.8131285,0.23466592 90.9624626,0.384 C91.1117967,0.53333408 91.1864626,0.7146656 91.1864626,0.928 L91.1864626,9.968 L92.7704626,9.968 C92.9624636,9.968 93.1251286,10.034666 93.2584626,10.168 C93.3917966,10.301334 93.4584626,10.463999 93.4584626,10.656 C93.4584626,10.848001 93.3917966,11.0079994 93.2584626,11.136 C93.1251286,11.2640006 92.9624636,11.328 92.7704626,11.328 L87.8264626,11.328 Z" id="Construct1" fill="#3F041D" fill-rule="nonzero"></path>
                </g>
            </g>
        </g>
    </g>
</svg>