<?xml version="1.0" encoding="UTF-8"?>
<svg width="383px" height="270px" viewBox="0 0 383 270" version="1.1" xmlns="http://www.w3.org/2000/svg" xmlns:xlink="http://www.w3.org/1999/xlink">
    <!-- Generator: Sketch 58 (84663) - https://sketch.com -->
    <title>Group 4</title>
    <desc>Created with Sketch.</desc>
    <defs>
        <linearGradient x1="49.8821755%" y1="0%" x2="50.1225375%" y2="100.999999%" id="linearGradient-1">
            <stop stop-color="#000000" offset="0%"></stop>
            <stop stop-color="#FFFFFF" offset="100%"></stop>
        </linearGradient>
        <rect id="path-2" x="334" y="32.76" width="5" height="103"></rect>
        <linearGradient x1="49.9086858%" y1="0%" x2="50.0949668%" y2="100.999999%" id="linearGradient-3">
            <stop stop-color="#000000" offset="0%"></stop>
            <stop stop-color="#FFFFFF" offset="100%"></stop>
        </linearGradient>
        <rect id="path-4" x="334" y="152.76" width="5" height="117"></rect>
        <rect id="path-5" x="334" y="32.76" width="5" height="103"></rect>
        <linearGradient x1="49.1493384%" y1="0%" x2="50.8846881%" y2="100.999999%" id="linearGradient-6">
            <stop stop-color="#000000" offset="0%"></stop>
            <stop stop-color="#FFFFFF" offset="100%"></stop>
        </linearGradient>
        <rect id="path-7" x="41" y="63.76" width="6" height="46"></rect>
        <linearGradient x1="50%" y1="7.97189478%" x2="50%" y2="96.9288378%" id="linearGradient-8">
            <stop stop-color="#1D5178" offset="0%"></stop>
            <stop stop-color="#1C5177" offset="100%"></stop>
        </linearGradient>
        <linearGradient x1="2.44820263%" y1="2.42420066%" x2="123.107123%" y2="83.7301721%" id="linearGradient-9">
            <stop stop-color="#1A4D72" offset="0%"></stop>
            <stop stop-color="#102F4A" offset="100%"></stop>
        </linearGradient>
        <linearGradient x1="2.44820263%" y1="40.5016658%" x2="123.107123%" y2="56.7341054%" id="linearGradient-10">
            <stop stop-color="#DA1AE6" offset="0%"></stop>
            <stop stop-color="#140CF7" offset="100%"></stop>
        </linearGradient>
        <linearGradient x1="100%" y1="50%" x2="0%" y2="50%" id="linearGradient-11">
            <stop stop-color="#1D5279" offset="0%"></stop>
            <stop stop-color="#0F2B45" offset="100%"></stop>
        </linearGradient>
        <linearGradient x1="106.481982%" y1="51.5004557%" x2="-7.35198796%" y2="48.816568%" id="linearGradient-12">
            <stop stop-color="#1D5279" offset="0%"></stop>
            <stop stop-color="#0F2B45" offset="100%"></stop>
        </linearGradient>
        <linearGradient x1="106.481982%" y1="51.4686058%" x2="-7.35198796%" y2="48.8416885%" id="linearGradient-13">
            <stop stop-color="#1D5279" offset="0%"></stop>
            <stop stop-color="#0F2B45" offset="100%"></stop>
        </linearGradient>
        <linearGradient x1="100%" y1="50%" x2="0%" y2="50%" id="linearGradient-14">
            <stop stop-color="#1D5279" offset="0%"></stop>
            <stop stop-color="#0F2B45" offset="100%"></stop>
        </linearGradient>
        <linearGradient x1="106.481982%" y1="52.6071968%" x2="-7.35198796%" y2="47.9436647%" id="linearGradient-15">
            <stop stop-color="#1D5279" offset="0%"></stop>
            <stop stop-color="#0F2B45" offset="100%"></stop>
        </linearGradient>
        <linearGradient x1="0%" y1="11.71875%" x2="121.685048%" y2="100.8597%" id="linearGradient-16">
            <stop stop-color="#1A4B6F" offset="0%"></stop>
            <stop stop-color="#102E49" offset="100%"></stop>
        </linearGradient>
        <linearGradient x1="106.481982%" y1="51.9318079%" x2="-7.35198796%" y2="48.4763541%" id="linearGradient-17">
            <stop stop-color="#1D5279" offset="0%"></stop>
            <stop stop-color="#0F2B45" offset="100%"></stop>
        </linearGradient>
        <linearGradient x1="100%" y1="50%" x2="0%" y2="50%" id="linearGradient-18">
            <stop stop-color="#1D5279" offset="0%"></stop>
            <stop stop-color="#0F2B45" offset="100%"></stop>
        </linearGradient>
        <linearGradient x1="100%" y1="50%" x2="0%" y2="50%" id="linearGradient-19">
            <stop stop-color="#1D5279" offset="0%"></stop>
            <stop stop-color="#0F2B45" offset="100%"></stop>
        </linearGradient>
    </defs>
    <g id="Parts" stroke="none" stroke-width="1" fill="none" fill-rule="evenodd">
        <g id="Antibody-description" transform="translate(-50.000000, -300.000000)">
            <g id="Group-4" transform="translate(50.000000, 300.240000)">
                <g id="Rectangle" fill-rule="nonzero">
                    <use fill="#D8D8D8" xlink:href="#path-2"></use>
                    <use fill-opacity="0.5" fill="url(#linearGradient-1)" style="mix-blend-mode: soft-light;" xlink:href="#path-2"></use>
                </g>
                <g id="Rectangle" fill-rule="nonzero">
                    <use fill="#D8D8D8" xlink:href="#path-4"></use>
                    <use fill-opacity="0.5" fill="url(#linearGradient-3)" style="mix-blend-mode: soft-light;" xlink:href="#path-4"></use>
                </g>
                <path d="M350.896739,91.6593289 C350.644322,91.6593289 350.431764,91.5720814 350.259058,91.3975839 C350.086352,91.2230864 350,91.0083234 350,90.7532886 L350,78.4311409 C350,78.1761061 350.086352,77.9579875 350.259058,77.7767785 C350.431764,77.5955696 350.644322,77.5049664 350.896739,77.5049664 L358.648551,77.5049664 C358.887682,77.5049664 359.090277,77.5888582 359.256341,77.7566443 C359.422404,77.9244304 359.505435,78.1291263 359.505435,78.3707383 C359.505435,78.6123502 359.422404,78.8136905 359.256341,78.9747651 C359.090277,79.1358397 358.887682,79.2163758 358.648551,79.2163758 L351.813406,79.2163758 L351.813406,83.6660403 L357.951087,83.6660403 C358.190219,83.6660403 358.392813,83.749932 358.558877,83.9177181 C358.72494,84.0855042 358.807971,84.2902001 358.807971,84.5318121 C358.807971,84.773424 358.72494,84.9747643 358.558877,85.1358389 C358.392813,85.2969136 358.190219,85.3774497 357.951087,85.3774497 L351.813406,85.3774497 L351.813406,90.7532886 C351.813406,91.0083234 351.723733,91.2230864 351.544384,91.3975839 C351.365035,91.5720814 351.149156,91.6593289 350.896739,91.6593289 Z M364.347826,91.76 C363.763282,91.76 363.221923,91.6391958 362.723732,91.3975839 C362.225541,91.1559719 361.830315,90.8036265 361.538043,90.3405369 C361.245771,89.8774473 361.099638,89.3438956 361.099638,88.7398658 C361.099638,87.7465722 361.488221,86.9546338 362.265399,86.3640268 C363.042576,85.7734199 364.181756,85.4781208 365.682971,85.4781208 L368.094203,85.4781208 L368.094203,85.317047 C368.094203,84.4311365 367.878323,83.793559 367.446558,83.4042953 C367.014793,83.0150316 366.340584,82.8204027 365.423913,82.8204027 C364.91908,82.8204027 364.470715,82.8606707 364.078804,82.9412081 C363.686894,83.0217454 363.251814,83.1425495 362.773551,83.3036242 C362.66727,83.3304699 362.580918,83.3438926 362.514493,83.3438926 C362.315216,83.3438926 362.142513,83.2700679 361.996377,83.1224161 C361.850241,82.9747644 361.777174,82.7935581 361.777174,82.5787919 C361.777174,82.216374 361.949877,81.961343 362.29529,81.8136913 C363.424523,81.3304674 364.573666,81.0888591 365.742754,81.0888591 C366.659425,81.0888591 367.43327,81.2767766 368.064312,81.6526174 C368.695353,82.0284583 369.160325,82.5150306 369.459239,83.112349 C369.758154,83.7096674 369.907609,84.3573119 369.907609,85.055302 L369.907609,90.7532886 C369.907609,91.0083234 369.817936,91.2230864 369.638587,91.3975839 C369.459238,91.5720814 369.243359,91.6593289 368.990942,91.6593289 C368.738525,91.6593289 368.525967,91.5720814 368.353261,91.3975839 C368.180555,91.2230864 368.094203,91.0083234 368.094203,90.7532886 L368.094203,90.2297987 C367.111106,91.249938 365.862326,91.76 364.347826,91.76 Z M365.025362,90.1492617 C365.609906,90.1492617 366.174514,90.0049679 366.719203,89.7163758 C367.263892,89.4277838 367.72222,89.068727 368.094203,88.6391946 L368.094203,86.9479195 L365.922101,86.9479195 C363.916053,86.9479195 362.913043,87.4781155 362.913043,88.5385235 C362.913043,89.0217474 363.075783,89.4110052 363.401268,89.7063087 C363.726753,90.0016122 364.268112,90.1492617 365.025362,90.1492617 Z M378.177536,91.76 C376.875597,91.76 375.739739,91.249938 374.769928,90.2297987 L374.769928,90.7532886 C374.769928,91.0083234 374.680255,91.2230864 374.500906,91.3975839 C374.321557,91.5720814 374.105678,91.6593289 373.853261,91.6593289 C373.600844,91.6593289 373.388286,91.5720814 373.21558,91.3975839 C373.042874,91.2230864 372.956522,91.0083234 372.956522,90.7532886 L372.956522,77.6861745 C372.956522,77.4311397 373.042874,77.213021 373.21558,77.0318121 C373.388286,76.8506031 373.600844,76.76 373.853261,76.76 C374.118963,76.76 374.338163,76.8472474 374.51087,77.021745 C374.683576,77.1962425 374.769928,77.4177168 374.769928,77.6861745 L374.769928,82.6190604 C375.739739,81.5989211 376.875597,81.0888591 378.177536,81.0888591 C379.001212,81.0888591 379.781699,81.3002663 380.519022,81.7230872 C381.256344,82.1459082 381.854164,82.7633516 382.3125,83.5754362 C382.770836,84.3875208 383,85.3371758 383,86.4244295 C383,87.5116833 382.770836,88.4613382 382.3125,89.2734228 C381.854164,90.0855074 381.256344,90.7029509 380.519022,91.1257718 C379.781699,91.5485927 379.001212,91.76 378.177536,91.76 Z M377.918478,90.0485906 C378.901575,90.0485906 379.692026,89.7331575 380.289855,89.1022819 C380.887684,88.4714062 381.186594,87.5787977 381.186594,86.4244295 C381.186594,85.2700613 380.887684,84.3774528 380.289855,83.7465772 C379.692026,83.1157015 378.901575,82.8002685 377.918478,82.8002685 C377.307364,82.8002685 376.732793,82.937851 376.194746,83.2130201 C375.6567,83.4881893 375.181765,83.8539574 374.769928,84.3103356 L374.769928,88.5385235 C375.181765,88.9949016 375.6567,89.3606698 376.194746,89.6358389 C376.732793,89.9110081 377.307364,90.0485906 377.918478,90.0485906 Z" id="Fab" fill="#303131"></path>
                <path d="M352.891972,216.66113 C352.640897,216.66113 352.429469,216.575443 352.257681,216.404068 C352.085893,216.232692 352,216.021771 352,215.771299 L352,203.669605 C352,203.419132 352.085893,203.204916 352.257681,203.026949 C352.429469,202.848982 352.640897,202.76 352.891972,202.76 L360.602577,202.76 C360.840437,202.76 361.041955,202.842391 361.207136,203.007175 C361.372317,203.171959 361.454906,203.372993 361.454906,203.610282 C361.454906,203.847572 361.372317,204.04531 361.207136,204.203503 C361.041955,204.361696 360.840437,204.440791 360.602577,204.440791 L353.803766,204.440791 L353.803766,208.810847 L359.908821,208.810847 C360.146681,208.810847 360.348199,208.893238 360.51338,209.058023 C360.67856,209.222807 360.76115,209.423841 360.76115,209.66113 C360.76115,209.898419 360.67856,210.096157 360.51338,210.25435 C360.348199,210.412543 360.146681,210.491638 359.908821,210.491638 L353.803766,210.491638 L353.803766,215.771299 C353.803766,216.021771 353.71457,216.232692 353.536174,216.404068 C353.357779,216.575443 353.143047,216.66113 352.891972,216.66113 Z M368.372646,216.76 C367.421204,216.76 366.542455,216.549079 365.736373,216.127232 C364.93029,215.705384 364.286094,215.098987 363.803766,214.308023 C363.321438,213.517058 363.080278,212.587689 363.080278,211.519887 C363.080278,210.452085 363.321438,209.522716 363.803766,208.731751 C364.286094,207.940787 364.93029,207.33439 365.736373,206.912542 C366.542455,206.490695 367.421204,206.279774 368.372646,206.279774 C369.073013,206.279774 369.677566,206.368756 370.186323,206.546723 C370.69508,206.72469 371.16749,206.952089 371.603568,207.228927 C371.867857,207.400302 372,207.630997 372,207.921017 C372,208.118758 371.924018,208.300018 371.772052,208.464802 C371.620085,208.629587 371.444996,208.711977 371.246779,208.711977 C371.10142,208.711977 370.956063,208.67243 370.810704,208.593333 C370.374626,208.369227 370.001323,208.207741 369.690783,208.10887 C369.380243,208.01 368.993725,207.960565 368.531219,207.960565 C367.394775,207.960565 366.502811,208.286833 365.855302,208.939379 C365.207793,209.591924 364.884044,210.452085 364.884044,211.519887 C364.884044,212.587689 365.207793,213.44785 365.855302,214.100395 C366.502811,214.752941 367.394775,215.079209 368.531219,215.079209 C368.993725,215.079209 369.380243,215.029775 369.690783,214.930904 C370.001323,214.832033 370.374626,214.670547 370.810704,214.446441 C370.956063,214.367344 371.10142,214.327797 371.246779,214.327797 C371.444996,214.327797 371.620085,214.410187 371.772052,214.574972 C371.924018,214.739756 372,214.921016 372,215.118757 C372,215.408777 371.867857,215.639472 371.603568,215.810847 C371.16749,216.087685 370.69508,216.315084 370.186323,216.493051 C369.677566,216.671018 369.073013,216.76 368.372646,216.76 Z" id="Fcc" fill="#303131"></path>
                <g id="Rectangle" fill-rule="nonzero">
                    <use fill="#D8D8D8" xlink:href="#path-5"></use>
                    <use fill-opacity="0.5" fill="url(#linearGradient-1)" style="mix-blend-mode: soft-light;" xlink:href="#path-5"></use>
                </g>
                <g id="Rectangle" fill-rule="nonzero" transform="translate(44.000000, 86.760000) scale(-1, 1) translate(-44.000000, -86.760000) ">
                    <use fill="#D8D8D8" xlink:href="#path-7"></use>
                    <use fill-opacity="0.5" fill="url(#linearGradient-6)" style="mix-blend-mode: soft-light;" xlink:href="#path-7"></use>
                </g>
                <path d="M3.56704981,89.76 C2.43166738,89.76 1.36782105,89.537161 0.375478927,89.0914763 C0.268198697,89.0450508 0.178799847,88.9684499 0.107279693,88.8616713 C0.0357595402,88.7548927 0,88.6411519 0,88.5204457 C0,88.362599 0.0514043391,88.2256459 0.154214559,88.1095822 C0.25702478,87.9935185 0.388888084,87.9354875 0.549808429,87.9354875 C0.639208621,87.9354875 0.724137529,87.9540574 0.804597701,87.9911978 C1.62707946,88.3718868 2.50765814,88.5622284 3.44636015,88.5622284 C5.01086351,88.5622284 5.79310345,88.0283433 5.79310345,86.9605571 C5.79310345,86.6820042 5.69252974,86.4498802 5.49137931,86.2641783 C5.29022888,86.0784763 5.04214707,85.9322382 4.74712644,85.8254596 C4.4521058,85.718681 4.03193121,85.5910128 3.48659004,85.4424513 C2.76244849,85.2474642 2.17688602,85.0594438 1.72988506,84.8783844 C1.2828841,84.697325 0.898469042,84.42574 0.576628352,84.0636212 C0.254787663,83.7015024 0.0938697318,83.2186845 0.0938697318,82.6151532 C0.0938697318,82.0859026 0.227968008,81.6054061 0.496168582,81.173649 C0.764369157,80.741892 1.15995907,80.3983485 1.68295019,80.1430084 C2.20594131,79.8876682 2.83396824,79.76 3.56704981,79.76 C4.55045192,79.76 5.43997048,79.9132018 6.23563218,80.21961 C6.48595272,80.312461 6.61111111,80.4981602 6.61111111,80.7767131 C6.61111111,80.9252747 6.56194174,81.0599065 6.46360153,81.1806128 C6.36526132,81.3013191 6.23563299,81.3616713 6.07471264,81.3616713 C6.02107253,81.3616713 5.94955345,81.3431014 5.86015326,81.305961 C5.16283176,81.0552634 4.44317102,80.9299164 3.70114943,80.9299164 C2.99488791,80.9299164 2.4205003,81.0691908 1.97796935,81.3477437 C1.5354384,81.6262967 1.31417625,82.0162649 1.31417625,82.5176602 C1.31417625,82.8519237 1.41921989,83.1235087 1.62931034,83.3324234 C1.8394008,83.5413381 2.1031274,83.7038249 2.42049808,83.8198886 C2.73786876,83.9359523 3.16921822,84.058978 3.71455939,84.1889694 C4.4208209,84.3653862 4.99073857,84.5418004 5.4243295,84.7182173 C5.85792043,84.8946341 6.22892566,85.1685404 6.53735632,85.5399443 C6.84578698,85.9113482 7,86.4127359 7,87.0441226 C7,87.564088 6.85696184,88.0306572 6.57088123,88.443844 C6.28480061,88.8570308 5.88250579,89.1796831 5.36398467,89.4118106 C4.84546356,89.643938 4.24649126,89.76 3.56704981,89.76 Z M11.56,89.76 C10.9199968,89.76 10.3288916,89.6191209 9.78666667,89.3373585 C9.24444173,89.0555961 8.81111273,88.6505687 8.48666667,88.1222642 C8.1622206,87.5939596 8,86.9732111 8,86.26 C8,85.5467889 8.1622206,84.9260404 8.48666667,84.3977358 C8.81111273,83.8694313 9.24444173,83.4644039 9.78666667,83.1826415 C10.3288916,82.9008791 10.9199968,82.76 11.56,82.76 C12.0311135,82.76 12.4377761,82.8194334 12.78,82.9383019 C13.1222239,83.0571704 13.4399985,83.2090557 13.7333333,83.3939623 C13.911112,83.5084282 14,83.6625148 14,83.8562264 C14,83.9883025 13.9488894,84.1093705 13.8466667,84.219434 C13.7444439,84.3294974 13.6266673,84.3845283 13.4933333,84.3845283 C13.3955551,84.3845283 13.2977783,84.3581135 13.2,84.305283 C12.9066652,84.1555967 12.6555566,84.0477362 12.4466667,83.9816981 C12.2377767,83.91566 11.9777793,83.8826415 11.6666667,83.8826415 C10.9022184,83.8826415 10.3022244,84.1005639 9.86666667,84.5364151 C9.43110893,84.9722663 9.21333333,85.5467889 9.21333333,86.26 C9.21333333,86.9732111 9.43110893,87.5477337 9.86666667,87.9835849 C10.3022244,88.4194361 10.9022184,88.6373585 11.6666667,88.6373585 C11.9777793,88.6373585 12.2377767,88.60434 12.4466667,88.5383019 C12.6555566,88.4722638 12.9066652,88.3644033 13.2,88.214717 C13.2977783,88.1618865 13.3955551,88.1354717 13.4933333,88.1354717 C13.6266673,88.1354717 13.7444439,88.1905026 13.8466667,88.300566 C13.9488894,88.4106295 14,88.5316975 14,88.6637736 C14,88.8574852 13.911112,89.0115718 13.7333333,89.1260377 C13.4399985,89.3109443 13.1222239,89.4628296 12.78,89.5816981 C12.4377761,89.7005666 12.0311135,89.76 11.56,89.76 Z M16.6603774,89.76 C16.4744924,89.76 16.3179601,89.69836 16.1907757,89.5750782 C16.0635913,89.4517964 16,89.3000673 16,89.1198862 L16,80.4143385 C16,80.2341575 16.0635913,80.0800575 16.1907757,79.9520341 C16.3179601,79.8240107 16.4744924,79.76 16.6603774,79.76 L22.3689727,79.76 C22.5450743,79.76 22.6942691,79.8192692 22.8165618,79.9378094 C22.9388546,80.0563496 23,80.2009664 23,80.3716643 C23,80.5423622 22.9388546,80.6846083 22.8165618,80.7984068 C22.6942691,80.9122054 22.5450743,80.9691038 22.3689727,80.9691038 L17.3354298,80.9691038 L17.3354298,84.1127738 L21.8553459,84.1127738 C22.0314474,84.1127738 22.1806423,84.172043 22.302935,84.2905832 C22.4252277,84.4091234 22.4863732,84.5537403 22.4863732,84.7244381 C22.4863732,84.895136 22.4252277,85.0373821 22.302935,85.1511807 C22.1806423,85.2649792 22.0314474,85.3218777 21.8553459,85.3218777 L17.3354298,85.3218777 L17.3354298,89.1198862 C17.3354298,89.3000673 17.2693927,89.4517964 17.1373166,89.5750782 C17.0052404,89.69836 16.8462623,89.76 16.6603774,89.76 Z M26.4267782,89.76 C26.2510451,89.76 26.0899589,89.7128851 25.9435146,89.6186538 C25.7970704,89.5244226 25.6896796,89.4055135 25.6213389,89.2619231 L23.0732218,83.6619231 C23.024407,83.5542302 23,83.4600004 23,83.3792308 C23,83.2087171 23.0634582,83.0628852 23.1903766,82.9417308 C23.3172949,82.8205763 23.4734998,82.76 23.6589958,82.76 C23.7859142,82.76 23.9055085,82.7936535 24.0177824,82.8609615 C24.1300563,82.9282696 24.2105995,83.0112816 24.2594142,83.11 L26.5,88.3330769 L28.7405858,83.11 C28.7894005,83.0112816 28.8699437,82.9282696 28.9822176,82.8609615 C29.0944915,82.7936535 29.2140858,82.76 29.3410042,82.76 C29.5265002,82.76 29.6827051,82.8205763 29.8096234,82.9417308 C29.9365418,83.0628852 30,83.2087171 30,83.3792308 C30,83.4600004 29.975593,83.5542302 29.9267782,83.6619231 L27.3786611,89.2619231 C27.3103204,89.4055135 27.2029296,89.5244226 27.0564854,89.6186538 C26.9100411,89.7128851 26.7489549,89.76 26.5732218,89.76 L26.4267782,89.76 Z" id="ScFv" fill="#303131" fill-rule="nonzero"></path>
                <polygon id="Rectangle" fill="url(#linearGradient-8)" fill-rule="nonzero" points="170 130.76 175 130.76 175 153.76 170 153.76"></polygon>
                <polygon id="Rectangle" fill="url(#linearGradient-8)" fill-rule="nonzero" points="185 130.76 190 130.76 190 153.76 185 153.76"></polygon>
                <g id="Group" transform="translate(116.821591, 86.581591) rotate(45.000000) translate(-116.821591, -86.581591) translate(42.321591, 66.581591)" fill-rule="nonzero">
                    <polygon id="Polygon" stroke="url(#linearGradient-9)" stroke-width="6" opacity="0.2" transform="translate(19.807368, 19.807368) rotate(30.000000) translate(-19.807368, -19.807368) " points="19.8073684 5.30736835 33.5976878 15.3266219 28.3302545 31.5381148 11.2844822 31.5381148 6.01704887 15.3266219"></polygon>
                    <path d="M82.3073684,23.3073684 L82.3073684,31.3073684 L35.3083684,31.3063684 L42.4670115,24.8058895 L41.8043684,23.3063684 L82.3073684,23.3073684 Z M82.3073684,10.3073684 L82.3073684,18.3073684 L39.5973684,18.3063684 L36.0663684,10.3073684 L82.3073684,10.3073684 Z" id="Combined-Shape" fill="url(#linearGradient-10)"></path>
                    <polygon id="Shape" fill="url(#linearGradient-11)" points="81 10.31 140 10.31 146.5 10.31 148.365089 18.675089 140 18.31 81 18.31"></polygon>
                    <rect id="Rectangle" fill="url(#linearGradient-12)" x="81.3073684" y="23.3073684" width="52" height="8"></rect>
                </g>
                <g id="Group" transform="translate(173.000000, 211.260000) scale(-1, 1) rotate(270.000000) translate(-173.000000, -211.260000) translate(114.000000, 206.760000)" fill-rule="nonzero">
                    <polygon id="Combined-Shape" fill="url(#linearGradient-13)" points="0.746526302 0.307368355 53.3073684 0.307368355 53.3073684 8.30736835 0.746526302 8.30736835"></polygon>
                    <polygon id="Shape" fill="url(#linearGradient-14)" points="52 0.31 111 0.31 117.5 0.31 117.5 8.31 111 8.31 52 8.31"></polygon>
                </g>
                <g id="Group" transform="translate(186.000000, 211.260000) rotate(270.000000) translate(-186.000000, -211.260000) translate(127.000000, 206.760000)" fill-rule="nonzero">
                    <polygon id="Combined-Shape" fill="url(#linearGradient-13)" points="0.746526302 0.307368355 53.3073684 0.307368355 53.3073684 8.30736835 0.746526302 8.30736835"></polygon>
                    <polygon id="Shape" fill="url(#linearGradient-14)" points="52 0.31 111 0.31 117.5 0.31 117.5 8.31 111 8.31 52 8.31"></polygon>
                </g>
                <g id="Group-2" transform="translate(242.811183, 86.571183) rotate(-45.000000) translate(-242.811183, -86.571183) translate(171.311183, 72.071183)" fill-rule="nonzero">
                    <polygon id="Triangle" stroke="url(#linearGradient-16)" stroke-width="6" opacity="0.2" transform="translate(127.174891, 14.278383) rotate(20.000000) translate(-127.174891, -14.278383) " points="127.174891 3.77838259 139.174891 24.7783826 115.174891 24.7783826"></polygon>
                    <path d="M104.938368,18.3073684 L100.341278,22.1966101 L111.646368,26.3073684 L65.688,26.3073684 L65.6888168,26.3088168 L13.6888168,26.3088168 L13.6888168,18.3088168 L65.307,18.3083684 L65.3073684,18.3073684 L104.938368,18.3073684 Z M66.3073684,5.30736835 L120.307368,5.30736835 L110.849368,13.3073684 L65.5,13.3073684 L65.5,13.31 L2.55795385e-13,13.31 L2.55795385e-13,5.31 L13.307,5.30936835 L13.3073684,5.30736835 L66.3073684,5.30736835 Z" id="Combined-Shape" fill="url(#linearGradient-17)"></path>
                </g>
                <polygon id="Shape" fill="url(#linearGradient-18)" fill-rule="nonzero" transform="translate(210.598574, 111.486146) rotate(135.000000) translate(-210.598574, -111.486146) " points="178.607967 107.622072 237.277127 107.55578 243.895888 107.463641 242.30126 115.508651 235.850878 115.508651 177.30126 115.508651"></polygon>
                <polygon id="Shape" fill="url(#linearGradient-19)" fill-rule="nonzero" transform="translate(100.426299, 80.405552) rotate(135.000000) translate(-100.426299, -80.405552) " points="98.0060857 96.4781989 96.3518374 97.3673781 96.2316885 73.1153641 96.3787344 57.3120379 104.485832 57.2049401 104.62091 74.6204384 104.538243 103.606163"></polygon>
                <path d="M86.088,11.84 C85.8853323,11.84 85.7146673,11.7706674 85.576,11.632 C85.4373326,11.4933326 85.368,11.3226677 85.368,11.12 L85.368,0.736 C85.368,0.53333232 85.4373326,0.36000072 85.576,0.216 C85.7146673,0.07199928 85.8853323,-2.84217094e-14 86.088,-2.84217094e-14 C86.2906677,-2.84217094e-14 86.4639993,0.07199928 86.608,0.216 C86.7520007,0.36000072 86.824,0.53333232 86.824,0.736 L86.824,4.912 C87.2293353,4.46399776 87.6666643,4.106668 88.136,3.84 C88.6053357,3.573332 89.1599968,3.44 89.8,3.44 C90.3866696,3.44 90.8959978,3.57866528 91.328,3.856 C91.7600021,4.13333472 92.0906655,4.5119976 92.32,4.992 C92.5493345,5.4720024 92.664,6 92.664,6.576 L92.664,11.12 C92.664,11.3226677 92.5920007,11.4933326 92.448,11.632 C92.3039993,11.7706674 92.1306677,11.84 91.928,11.84 C91.7253323,11.84 91.5546673,11.7706674 91.416,11.632 C91.2773326,11.4933326 91.208,11.3226677 91.208,11.12 L91.208,6.736 C91.208,5.43466016 90.6213392,4.784 89.448,4.784 C88.914664,4.784 88.4373354,4.92266528 88.016,5.2 C87.5946645,5.47733472 87.1973352,5.85066432 86.824,6.32 L86.824,11.12 C86.824,11.3226677 86.7520007,11.4933326 86.608,11.632 C86.4639993,11.7706674 86.2906677,11.84 86.088,11.84 Z M99.32,11.92 C98.0186601,11.92 97.0026703,11.549337 96.272,10.808 C95.5413297,10.066663 95.176,9.02400672 95.176,7.68 C95.176,6.92266288 95.3146653,6.2240032 95.592,5.584 C95.8693347,4.9439968 96.2959971,4.42666864 96.872,4.032 C97.4480029,3.63733136 98.1573291,3.44 99,3.44 C99.7893373,3.44 100.471997,3.62399816 101.048,3.992 C101.624003,4.36000184 102.061332,4.8506636 102.36,5.464 C102.658668,6.0773364 102.808,6.74666304 102.808,7.472 C102.808,7.67466768 102.741334,7.84533264 102.608,7.984 C102.474666,8.12266736 102.296001,8.192 102.072,8.192 L96.648,8.192 C96.7333337,8.9386704 97.0106643,9.51999792 97.48,9.936 C97.9493357,10.3520021 98.6053291,10.56 99.448,10.56 C99.8960022,10.56 100.287998,10.5173338 100.624,10.432 C100.960002,10.3466662 101.287998,10.2240008 101.608,10.064 C101.693334,10.0213331 101.789333,10 101.896,10 C102.066667,10 102.215999,10.0586661 102.344,10.176 C102.472001,10.2933339 102.536,10.4426658 102.536,10.624 C102.536,10.8586678 102.397335,11.0559992 102.12,11.216 C101.703998,11.4506678 101.293335,11.6266661 100.888,11.744 C100.482665,11.8613339 99.9600032,11.92 99.32,11.92 Z M101.368,7.008 C101.336,6.48533072 101.200001,6.04800176 100.96,5.696 C100.719999,5.34399824 100.424002,5.08533416 100.072,4.92 C99.7199982,4.75466584 99.3626685,4.672 99,4.672 C98.6373315,4.672 98.2800017,4.75466584 97.928,4.92 C97.5759982,5.08533416 97.2826678,5.34399824 97.048,5.696 C96.8133321,6.04800176 96.6800001,6.48533072 96.648,7.008 L101.368,7.008 Z M107.368,11.92 C106.898664,11.92 106.464002,11.824001 106.064,11.632 C105.663998,11.44 105.346668,11.1600018 105.112,10.792 C104.877332,10.4239982 104.76,10.0000024 104.76,9.52 C104.76,8.73066272 105.071997,8.10133568 105.696,7.632 C106.320003,7.16266432 107.234661,6.928 108.44,6.928 L110.376,6.928 L110.376,6.8 C110.376,6.09599648 110.202668,5.58933488 109.856,5.28 C109.509332,4.97066512 108.968004,4.816 108.232,4.816 C107.826665,4.816 107.466668,4.84799968 107.152,4.912 C106.837332,4.97600032 106.488002,5.07199936 106.104,5.2 C106.018666,5.22133344 105.949334,5.232 105.896,5.232 C105.735999,5.232 105.597334,5.17333392 105.48,5.056 C105.362666,4.93866608 105.304,4.79466752 105.304,4.624 C105.304,4.33599856 105.442665,4.13333392 105.72,4.016 C106.626671,3.63199808 107.549329,3.44 108.488,3.44 C109.224004,3.44 109.845331,3.58933184 110.352,3.888 C110.858669,4.18666816 111.231999,4.57333096 111.472,5.048 C111.712001,5.52266904 111.832,6.03733056 111.832,6.592 L111.832,11.12 C111.832,11.3226677 111.76,11.4933326 111.616,11.632 C111.471999,11.7706674 111.298668,11.84 111.096,11.84 C110.893332,11.84 110.722667,11.7706674 110.584,11.632 C110.445333,11.4933326 110.376,11.3226677 110.376,11.12 L110.376,10.704 C109.586663,11.5146707 108.584006,11.92 107.368,11.92 Z M107.912,10.64 C108.381336,10.64 108.834664,10.5253345 109.272,10.296 C109.709335,10.0666655 110.077332,9.78133504 110.376,9.44 L110.376,8.096 L108.632,8.096 C107.021325,8.096 106.216,8.51732912 106.216,9.36 C106.216,9.74400192 106.346665,10.0533322 106.608,10.288 C106.869335,10.5226678 107.303997,10.64 107.912,10.64 Z M117.592,11.84 C117.399999,11.84 117.224001,11.7840006 117.064,11.672 C116.903999,11.5599994 116.786667,11.4186675 116.712,11.248 L113.928,4.592 C113.874666,4.46399936 113.848,4.35200048 113.848,4.256 C113.848,4.05333232 113.917333,3.88000072 114.056,3.736 C114.194667,3.59199928 114.365332,3.52 114.568,3.52 C114.706667,3.52 114.837333,3.5599996 114.96,3.64 C115.082667,3.7200004 115.170666,3.81866608 115.224,3.936 L117.672,10.144 L120.12,3.936 C120.173334,3.81866608 120.261333,3.7200004 120.384,3.64 C120.506667,3.5599996 120.637333,3.52 120.776,3.52 C120.978668,3.52 121.149333,3.59199928 121.288,3.736 C121.426667,3.88000072 121.496,4.05333232 121.496,4.256 C121.496,4.35200048 121.469334,4.46399936 121.416,4.592 L118.632,11.248 C118.557333,11.4186675 118.440001,11.5599994 118.28,11.672 C118.119999,11.7840006 117.944001,11.84 117.752,11.84 L117.592,11.84 Z M125.56,15.52 C125.367999,15.52 125.205334,15.4506674 125.072,15.312 C124.938666,15.1733326 124.872,15.008001 124.872,14.816 C124.872,14.7306662 124.888,14.6453338 124.92,14.56 L125.96,11.888 L122.952,4.56 C122.909333,4.4533328 122.888,4.35200048 122.888,4.256 C122.888,4.05333232 122.957333,3.88000072 123.096,3.736 C123.234667,3.59199928 123.405332,3.52 123.608,3.52 C123.757334,3.52 123.893333,3.56266624 124.016,3.648 C124.138667,3.73333376 124.226666,3.83999936 124.28,3.968 L126.744,10.08 L129.256,4 C129.394667,3.6799984 129.618665,3.52 129.928,3.52 C130.130668,3.52 130.301333,3.59199928 130.44,3.736 C130.578667,3.88000072 130.648,4.05333232 130.648,4.256 C130.648,4.35200048 130.632,4.44266624 130.6,4.528 L126.232,15.024 C126.082666,15.3546683 125.858668,15.52 125.56,15.52 Z M141.384,11.92 C140.615996,11.92 139.90667,11.749335 139.256,11.408 C138.60533,11.066665 138.085335,10.5760032 137.696,9.936 C137.306665,9.2959968 137.112,8.54400432 137.112,7.68 C137.112,6.81599568 137.306665,6.0640032 137.696,5.424 C138.085335,4.7839968 138.60533,4.29333504 139.256,3.952 C139.90667,3.61066496 140.615996,3.44 141.384,3.44 C141.949336,3.44 142.437331,3.51199928 142.848,3.656 C143.258669,3.80000072 143.639998,3.98399888 143.992,4.208 C144.205334,4.34666736 144.312,4.53333216 144.312,4.768 C144.312,4.9280008 144.250667,5.074666 144.128,5.208 C144.005333,5.341334 143.864001,5.408 143.704,5.408 C143.586666,5.408 143.469334,5.37600032 143.352,5.312 C142.999998,5.13066576 142.698668,5.0000004 142.448,4.92 C142.197332,4.8399996 141.885335,4.8 141.512,4.8 C140.594662,4.8 139.874669,5.06399736 139.352,5.592 C138.829331,6.12000264 138.568,6.81599568 138.568,7.68 C138.568,8.54400432 138.829331,9.23999736 139.352,9.768 C139.874669,10.2960026 140.594662,10.56 141.512,10.56 C141.885335,10.56 142.197332,10.5200004 142.448,10.44 C142.648534,10.3759997 142.881493,10.2795738 143.146879,10.1507203 L143.352,10.048 C143.469334,9.98399968 143.586666,9.952 143.704,9.952 C143.864001,9.952 144.005333,10.018666 144.128,10.152 C144.250667,10.285334 144.312,10.4319992 144.312,10.592 C144.312,10.8266678 144.205334,11.0133326 143.992,11.152 C143.639998,11.3760011 143.258669,11.5599993 142.848,11.704 C142.437331,11.8480007 141.949336,11.92 141.384,11.92 Z M147.416,11.84 C147.213332,11.84 147.042667,11.7706674 146.904,11.632 C146.765333,11.4933326 146.696,11.3226677 146.696,11.12 L146.696,0.736 C146.696,0.53333232 146.765333,0.36000072 146.904,0.216 C147.042667,0.07199928 147.213332,-2.84217094e-14 147.416,-2.84217094e-14 C147.618668,-2.84217094e-14 147.791999,0.07199928 147.936,0.216 C148.080001,0.36000072 148.152,0.53333232 148.152,0.736 L148.152,4.912 C148.557335,4.46399776 148.994664,4.106668 149.464,3.84 C149.933336,3.573332 150.487997,3.44 151.128,3.44 C151.71467,3.44 152.223998,3.57866528 152.656,3.856 C153.088002,4.13333472 153.418666,4.5119976 153.648,4.992 C153.877334,5.4720024 153.992,6 153.992,6.576 L153.992,11.12 C153.992,11.3226677 153.920001,11.4933326 153.776,11.632 C153.631999,11.7706674 153.458668,11.84 153.256,11.84 C153.053332,11.84 152.882667,11.7706674 152.744,11.632 C152.605333,11.4933326 152.536,11.3226677 152.536,11.12 L152.536,6.736 C152.536,5.43466016 151.949339,4.784 150.776,4.784 C150.242664,4.784 149.765335,4.92266528 149.344,5.2 C148.922665,5.47733472 148.525335,5.85066432 148.152,6.32 L148.152,11.12 C148.152,11.3226677 148.080001,11.4933326 147.936,11.632 C147.791999,11.7706674 147.618668,11.84 147.416,11.84 Z M159.08,11.92 C158.610664,11.92 158.176002,11.824001 157.776,11.632 C157.375998,11.44 157.058668,11.1600018 156.824,10.792 C156.589332,10.4239982 156.472,10.0000024 156.472,9.52 C156.472,8.73066272 156.783997,8.10133568 157.408,7.632 C158.032003,7.16266432 158.946661,6.928 160.152,6.928 L162.088,6.928 L162.088,6.8 C162.088,6.09599648 161.914668,5.58933488 161.568,5.28 C161.221332,4.97066512 160.680004,4.816 159.944,4.816 C159.538665,4.816 159.178668,4.84799968 158.864,4.912 C158.549332,4.97600032 158.200002,5.07199936 157.816,5.2 C157.730666,5.22133344 157.661334,5.232 157.608,5.232 C157.447999,5.232 157.309334,5.17333392 157.192,5.056 C157.074666,4.93866608 157.016,4.79466752 157.016,4.624 C157.016,4.33599856 157.154665,4.13333392 157.432,4.016 C158.338671,3.63199808 159.261329,3.44 160.2,3.44 C160.936004,3.44 161.557331,3.58933184 162.064,3.888 C162.570669,4.18666816 162.943999,4.57333096 163.184,5.048 C163.424001,5.52266904 163.544,6.03733056 163.544,6.592 L163.544,11.12 C163.544,11.3226677 163.472,11.4933326 163.328,11.632 C163.183999,11.7706674 163.010668,11.84 162.808,11.84 C162.605332,11.84 162.434667,11.7706674 162.296,11.632 C162.157333,11.4933326 162.088,11.3226677 162.088,11.12 L162.088,10.704 C161.298663,11.5146707 160.296006,11.92 159.08,11.92 Z M159.624,10.64 C160.093336,10.64 160.546664,10.5253345 160.984,10.296 C161.421336,10.0666655 161.789332,9.78133504 162.088,9.44 L162.088,8.096 L160.344,8.096 C158.733325,8.096 157.928,8.51732912 157.928,9.36 C157.928,9.74400192 158.058665,10.0533322 158.32,10.288 C158.581335,10.5226678 159.015997,10.64 159.624,10.64 Z M167.24,1.936 C167.015999,1.936 166.824001,1.8560008 166.664,1.696 C166.503999,1.5359992 166.424,1.34400112 166.424,1.12 L166.424,1.056 C166.424,0.83199888 166.503999,0.6400008 166.664,0.48 C166.824001,0.3199992 167.015999,0.24 167.24,0.24 L167.336,0.24 C167.560001,0.24 167.751999,0.3199992 167.912,0.48 C168.072001,0.6400008 168.152,0.83199888 168.152,1.056 L168.152,1.12 C168.152,1.34400112 168.072001,1.5359992 167.912,1.696 C167.751999,1.8560008 167.560001,1.936 167.336,1.936 L167.24,1.936 Z M167.272,11.84 C167.069332,11.84 166.898667,11.7706674 166.76,11.632 C166.621333,11.4933326 166.552,11.3226677 166.552,11.12 L166.552,4.256 C166.552,4.05333232 166.621333,3.88000072 166.76,3.736 C166.898667,3.59199928 167.069332,3.52 167.272,3.52 C167.485334,3.52 167.661333,3.58933264 167.8,3.728 C167.938667,3.86666736 168.008,4.0426656 168.008,4.256 L168.008,11.12 C168.008,11.3226677 167.936001,11.4933326 167.792,11.632 C167.647999,11.7706674 167.474668,11.84 167.272,11.84 Z M171.816,11.84 C171.613332,11.84 171.442667,11.7706674 171.304,11.632 C171.165333,11.4933326 171.096,11.3226677 171.096,11.12 L171.096,4.256 C171.096,4.05333232 171.165333,3.88000072 171.304,3.736 C171.442667,3.59199928 171.613332,3.52 171.816,3.52 C172.018668,3.52 172.191999,3.59199928 172.336,3.736 C172.480001,3.88000072 172.552,4.05333232 172.552,4.256 L172.552,4.912 C172.957335,4.46399776 173.394664,4.106668 173.864,3.84 C174.333336,3.573332 174.887997,3.44 175.528,3.44 C176.11467,3.44 176.623998,3.57866528 177.056,3.856 C177.488002,4.13333472 177.818666,4.5119976 178.048,4.992 C178.277334,5.4720024 178.392,5.99999712 178.392,6.576 L178.392,11.12 C178.392,11.3226677 178.320001,11.4933326 178.176,11.632 C178.031999,11.7706674 177.858668,11.84 177.656,11.84 C177.453332,11.84 177.282667,11.7706674 177.144,11.632 C177.005333,11.4933326 176.936,11.3226677 176.936,11.12 L176.936,6.736 C176.936,5.43466016 176.349339,4.784 175.176,4.784 C174.642664,4.784 174.165335,4.92266528 173.744,5.2 C173.322665,5.47733472 172.925335,5.85066432 172.552,6.32 L172.552,11.12 C172.552,11.3226677 172.480001,11.4933326 172.336,11.632 C172.191999,11.7706674 172.018668,11.84 171.816,11.84 Z M188.2,11.92 C187.730664,11.92 187.296002,11.824001 186.896,11.632 C186.495998,11.44 186.178668,11.1600018 185.944,10.792 C185.709332,10.4239982 185.592,10.0000024 185.592,9.52 C185.592,8.73066272 185.903997,8.10133568 186.528,7.632 C187.152003,7.16266432 188.066661,6.928 189.272,6.928 L191.208,6.928 L191.208,6.8 C191.208,6.09599648 191.034668,5.58933488 190.688,5.28 C190.341332,4.97066512 189.800004,4.816 189.064,4.816 C188.658665,4.816 188.298668,4.84799968 187.984,4.912 C187.669332,4.97600032 187.320002,5.07199936 186.936,5.2 C186.850666,5.22133344 186.781334,5.232 186.728,5.232 C186.567999,5.232 186.429334,5.17333392 186.312,5.056 C186.194666,4.93866608 186.136,4.79466752 186.136,4.624 C186.136,4.33599856 186.274665,4.13333392 186.552,4.016 C187.458671,3.63199808 188.381329,3.44 189.32,3.44 C190.056004,3.44 190.677331,3.58933184 191.184,3.888 C191.690669,4.18666816 192.063999,4.57333096 192.304,5.048 C192.544001,5.52266904 192.664,6.03733056 192.664,6.592 L192.664,11.12 C192.664,11.3226677 192.592,11.4933326 192.448,11.632 C192.303999,11.7706674 192.130668,11.84 191.928,11.84 C191.725332,11.84 191.554667,11.7706674 191.416,11.632 C191.277333,11.4933326 191.208,11.3226677 191.208,11.12 L191.208,10.704 C190.418663,11.5146707 189.416006,11.92 188.2,11.92 Z M188.744,10.64 C189.213336,10.64 189.666664,10.5253345 190.104,10.296 C190.541336,10.0666655 190.909332,9.78133504 191.208,9.44 L191.208,8.096 L189.464,8.096 C187.853325,8.096 187.048,8.51732912 187.048,9.36 C187.048,9.74400192 187.178665,10.0533322 187.44,10.288 C187.701335,10.5226678 188.135997,10.64 188.744,10.64 Z M199.48,15.6 C198.86133,15.6 198.237336,15.5200008 197.608,15.36 C196.978664,15.1999992 196.461335,15.0026678 196.056,14.768 C195.863999,14.6506661 195.768,14.4640013 195.768,14.208 C195.768,14.0373325 195.829333,13.885334 195.952,13.752 C196.074667,13.618666 196.226666,13.552 196.408,13.552 C196.493334,13.552 196.589333,13.5733331 196.696,13.616 C197.506671,14.0213354 198.386662,14.224 199.336,14.224 C200.968008,14.224 201.784,13.3546754 201.784,11.616 L201.784,10.544 C201.026663,11.3546707 200.114672,11.76 199.048,11.76 C198.418664,11.76 197.808003,11.6026682 197.216,11.288 C196.623997,10.9733318 196.136002,10.5040031 195.752,9.88 C195.367998,9.25599688 195.176,8.49600448 195.176,7.6 C195.176,6.70399552 195.367998,5.94400312 195.752,5.32 C196.136002,4.69599688 196.623997,4.22666824 197.216,3.912 C197.808003,3.59733176 198.418664,3.44 199.048,3.44 C200.114672,3.44 201.026663,3.84532928 201.784,4.656 L201.784,4.256 C201.784,4.05333232 201.853333,3.88000072 201.992,3.736 C202.130667,3.59199928 202.301332,3.52 202.504,3.52 C202.706668,3.52 202.879999,3.59199928 203.024,3.736 C203.168001,3.88000072 203.24,4.05333232 203.24,4.256 L203.24,11.408 C203.24,12.7520067 202.91467,13.786663 202.264,14.512 C201.61333,15.237337 200.685339,15.6 199.48,15.6 Z M199.352,10.432 C199.853336,10.432 200.295998,10.3253344 200.68,10.112 C201.064002,9.8986656 201.431998,9.61066848 201.784,9.248 L201.784,5.952 C201.431998,5.58933152 201.064002,5.3013344 200.68,5.088 C200.295998,4.8746656 199.853336,4.768 199.352,4.768 C198.551996,4.768 197.898669,5.01066424 197.392,5.496 C196.885331,5.98133576 196.632,6.68266208 196.632,7.6 C196.632,8.51733792 196.885331,9.21866424 197.392,9.704 C197.898669,10.1893358 198.551996,10.432 199.352,10.432 Z M208.408,11.92 C207.938664,11.92 207.504002,11.824001 207.104,11.632 C206.703998,11.44 206.386668,11.1600018 206.152,10.792 C205.917332,10.4239982 205.8,10.0000024 205.8,9.52 C205.8,8.73066272 206.111997,8.10133568 206.736,7.632 C207.360003,7.16266432 208.274661,6.928 209.48,6.928 L211.416,6.928 L211.416,6.8 C211.416,6.09599648 211.242668,5.58933488 210.896,5.28 C210.549332,4.97066512 210.008004,4.816 209.272,4.816 C208.866665,4.816 208.506668,4.84799968 208.192,4.912 C207.877332,4.97600032 207.528002,5.07199936 207.144,5.2 C207.058666,5.22133344 206.989334,5.232 206.936,5.232 C206.775999,5.232 206.637334,5.17333392 206.52,5.056 C206.402666,4.93866608 206.344,4.79466752 206.344,4.624 C206.344,4.33599856 206.482665,4.13333392 206.76,4.016 C207.666671,3.63199808 208.589329,3.44 209.528,3.44 C210.264004,3.44 210.885331,3.58933184 211.392,3.888 C211.898669,4.18666816 212.271999,4.57333096 212.512,5.048 C212.752001,5.52266904 212.872,6.03733056 212.872,6.592 L212.872,11.12 C212.872,11.3226677 212.8,11.4933326 212.656,11.632 C212.511999,11.7706674 212.338668,11.84 212.136,11.84 C211.933332,11.84 211.762667,11.7706674 211.624,11.632 C211.485333,11.4933326 211.416,11.3226677 211.416,11.12 L211.416,10.704 C210.626663,11.5146707 209.624006,11.92 208.408,11.92 Z M208.952,10.64 C209.421336,10.64 209.874664,10.5253345 210.312,10.296 C210.749336,10.0666655 211.117332,9.78133504 211.416,9.44 L211.416,8.096 L209.672,8.096 C208.061325,8.096 207.256,8.51732912 207.256,9.36 C207.256,9.74400192 207.386665,10.0533322 207.648,10.288 C207.909335,10.5226678 208.343997,10.64 208.952,10.64 Z M216.568,1.936 C216.343999,1.936 216.152001,1.8560008 215.992,1.696 C215.831999,1.5359992 215.752,1.34400112 215.752,1.12 L215.752,1.056 C215.752,0.83199888 215.831999,0.6400008 215.992,0.48 C216.152001,0.3199992 216.343999,0.24 216.568,0.24 L216.664,0.24 C216.888001,0.24 217.079999,0.3199992 217.24,0.48 C217.400001,0.6400008 217.48,0.83199888 217.48,1.056 L217.48,1.12 C217.48,1.34400112 217.400001,1.5359992 217.24,1.696 C217.079999,1.8560008 216.888001,1.936 216.664,1.936 L216.568,1.936 Z M216.6,11.84 C216.397332,11.84 216.226667,11.7706674 216.088,11.632 C215.949333,11.4933326 215.88,11.3226677 215.88,11.12 L215.88,4.256 C215.88,4.05333232 215.949333,3.88000072 216.088,3.736 C216.226667,3.59199928 216.397332,3.52 216.6,3.52 C216.813334,3.52 216.989333,3.58933264 217.128,3.728 C217.266667,3.86666736 217.336,4.0426656 217.336,4.256 L217.336,11.12 C217.336,11.3226677 217.264001,11.4933326 217.12,11.632 C216.975999,11.7706674 216.802668,11.84 216.6,11.84 Z M221.144,11.84 C220.941332,11.84 220.770667,11.7706674 220.632,11.632 C220.493333,11.4933326 220.424,11.3226677 220.424,11.12 L220.424,4.256 C220.424,4.05333232 220.493333,3.88000072 220.632,3.736 C220.770667,3.59199928 220.941332,3.52 221.144,3.52 C221.346668,3.52 221.519999,3.59199928 221.664,3.736 C221.808001,3.88000072 221.88,4.05333232 221.88,4.256 L221.88,4.912 C222.285335,4.46399776 222.722664,4.106668 223.192,3.84 C223.661336,3.573332 224.215997,3.44 224.856,3.44 C225.44267,3.44 225.951998,3.57866528 226.384,3.856 C226.816002,4.13333472 227.146666,4.5119976 227.376,4.992 C227.605334,5.4720024 227.72,5.99999712 227.72,6.576 L227.72,11.12 C227.72,11.3226677 227.648001,11.4933326 227.504,11.632 C227.359999,11.7706674 227.186668,11.84 226.984,11.84 C226.781332,11.84 226.610667,11.7706674 226.472,11.632 C226.333333,11.4933326 226.264,11.3226677 226.264,11.12 L226.264,6.736 C226.264,5.43466016 225.677339,4.784 224.504,4.784 C223.970664,4.784 223.493335,4.92266528 223.072,5.2 C222.650665,5.47733472 222.253335,5.85066432 221.88,6.32 L221.88,11.12 C221.88,11.3226677 221.808001,11.4933326 221.664,11.632 C221.519999,11.7706674 221.346668,11.84 221.144,11.84 Z M233.368,11.92 C232.301328,11.92 231.330671,11.6800024 230.456,11.2 C230.274666,11.0719994 230.184,10.8960011 230.184,10.672 C230.184,10.5013325 230.242666,10.3520006 230.36,10.224 C230.477334,10.0959994 230.626666,10.032 230.808,10.032 C230.904,10.032 231,10.0533331 231.096,10.096 C231.437335,10.2453341 231.778665,10.3626662 232.12,10.448 C232.461335,10.5333338 232.845331,10.576 233.272,10.576 C234.456006,10.576 235.048,10.1973371 235.048,9.44 C235.048,9.19466544 234.912001,9.00800064 234.64,8.88 C234.367999,8.75199936 233.92267,8.6080008 233.304,8.448 C232.674664,8.29866592 232.154669,8.1440008 231.744,7.984 C231.333331,7.8239992 230.981335,7.58133496 230.688,7.256 C230.394665,6.93066504 230.248,6.501336 230.248,5.968 C230.248,5.2213296 230.517331,4.61333568 231.056,4.144 C231.594669,3.67466432 232.365328,3.44 233.368,3.44 C234.189337,3.44 234.962663,3.573332 235.688,3.84 C235.837334,3.88266688 235.952,3.96266608 236.032,4.08 C236.112,4.19733392 236.152,4.31999936 236.152,4.448 C236.152,4.61866752 236.090667,4.76799936 235.968,4.896 C235.845333,5.02400064 235.693334,5.088 235.512,5.088 C235.458666,5.088 235.389334,5.07733344 235.304,5.056 C234.68533,4.86399904 234.077336,4.768 233.48,4.768 C232.903997,4.768 232.453335,4.87199896 232.128,5.08 C231.802665,5.28800104 231.64,5.55733168 231.64,5.888 C231.64,6.2080016 231.789332,6.44266592 232.088,6.592 C232.386668,6.74133408 232.850664,6.88533264 233.48,7.024 C234.109336,7.1840008 234.621331,7.34133256 235.016,7.496 C235.410669,7.65066744 235.749332,7.89333168 236.032,8.224 C236.314668,8.55466832 236.456,8.99733056 236.456,9.552 C236.456,10.2346701 236.186669,10.7999978 235.648,11.248 C235.109331,11.6960022 234.349338,11.92 233.368,11.92 Z M241.72,11.92 C240.162659,11.92 239.384,11.216007 239.384,9.808 L239.384,4.848 L238.248,4.848 C238.162666,4.848 238.090667,4.81866696 238.032,4.76 C237.973333,4.70133304 237.944,4.62933376 237.944,4.544 C237.944,4.4373328 237.992,4.34666704 238.088,4.272 L240.264,2.144 C240.36,2.04799952 240.450666,2 240.536,2 C240.621334,2 240.693333,2.03199968 240.752,2.096 C240.810667,2.16000032 240.84,2.23466624 240.84,2.32 L240.84,3.6 L242.648,3.6 C242.829334,3.6 242.978666,3.65866608 243.096,3.776 C243.213334,3.89333392 243.272,4.04266576 243.272,4.224 C243.272,4.39466752 243.213334,4.54133272 243.096,4.664 C242.978666,4.78666728 242.829334,4.848 242.648,4.848 L240.84,4.848 L240.84,9.68 C240.84,10.0960021 240.938666,10.3599994 241.136,10.472 C241.333334,10.5840006 241.581332,10.64 241.88,10.64 C242.040001,10.64 242.2,10.6220002 242.36,10.5860001 L242.656,10.512 L242.656,10.512 C242.704,10.5013333 242.765333,10.496 242.84,10.496 C242.989334,10.496 243.122666,10.5519994 243.24,10.664 C243.357334,10.7760006 243.416,10.9119992 243.416,11.072 C243.416,11.3173346 243.293335,11.5039994 243.048,11.632 C242.631998,11.824001 242.189336,11.92 241.72,11.92 Z M255.512,11.92 C254.445328,11.92 253.488004,11.6880023 252.64,11.224 C251.791996,10.7599977 251.125336,10.0933377 250.64,9.224 C250.154664,8.35466232 249.912,7.33867248 249.912,6.176 C249.912,5.01332752 250.154664,3.99733768 250.64,3.128 C251.125336,2.25866232 251.791996,1.59200232 252.64,1.128 C253.488004,0.66399768 254.445328,0.432 255.512,0.432 C256.237337,0.432 256.885331,0.51733248 257.456,0.688 C258.02667,0.85866752 258.594664,1.1039984 259.16,1.424 C259.394668,1.55200064 259.512,1.75466528 259.512,2.032 C259.512,2.1920008 259.453334,2.33333272 259.336,2.456 C259.218666,2.57866728 259.064001,2.64 258.872,2.64 C258.765333,2.64 258.669334,2.61866688 258.584,2.576 C258.114664,2.33066544 257.656002,2.14400064 257.208,2.016 C256.759998,1.88799936 256.24267,1.824 255.656,1.824 C254.738662,1.824 253.957337,2.01333144 253.312,2.392 C252.666663,2.77066856 252.181335,3.28799672 251.856,3.944 C251.530665,4.60000328 251.368,5.34399584 251.368,6.176 C251.368,7.00800416 251.530665,7.75199672 251.856,8.408 C252.181335,9.06400328 252.666663,9.58133144 253.312,9.96 C253.957337,10.3386686 254.738662,10.528 255.656,10.528 C256.24267,10.528 256.759998,10.4640006 257.208,10.336 C257.656002,10.2079994 258.114664,10.0213346 258.584,9.776 C258.669334,9.73333312 258.765333,9.712 258.872,9.712 C259.064001,9.712 259.218666,9.77066608 259.336,9.888 C259.453334,10.0053339 259.512,10.1493325 259.512,10.32 C259.512,10.5973347 259.394668,10.7999994 259.16,10.928 C258.594664,11.2480016 258.02667,11.4933325 257.456,11.664 C256.885331,11.8346675 256.237337,11.92 255.512,11.92 Z M262.984,11.76 C262.781332,11.76 262.610667,11.6906674 262.472,11.552 C262.333333,11.4133326 262.264,11.2426677 262.264,11.04 L262.264,1.328 C262.264,1.12533232 262.333333,0.95200072 262.472,0.808 C262.610667,0.66399928 262.781332,0.592 262.984,0.592 L266.2,0.592 C267.416006,0.592 268.447996,0.86133064 269.296,1.4 C270.144004,1.93866936 270.781331,2.6346624 271.208,3.488 C271.634669,4.3413376 271.848,5.23732864 271.848,6.176 C271.848,7.11467136 271.634669,8.0106624 271.208,8.864 C270.781331,9.7173376 270.144004,10.4133306 269.296,10.952 C268.447996,11.4906694 267.416006,11.76 266.2,11.76 L262.984,11.76 Z M266.024,10.4 C266.898671,10.4 267.666663,10.2213351 268.328,9.864 C268.989337,9.50666488 269.501332,9.01066984 269.864,8.376 C270.226669,7.74133016 270.408,7.00800416 270.408,6.176 C270.408,5.34399584 270.226669,4.61066984 269.864,3.976 C269.501332,3.34133016 268.989337,2.84533512 268.328,2.488 C267.666663,2.13066488 266.898671,1.952 266.024,1.952 L263.72,1.952 L263.72,10.4 L266.024,10.4 Z M277.992,11.92 C276.807994,11.92 275.693339,11.7066688 274.648,11.28 C274.519999,11.2266664 274.418667,11.1493338 274.344,11.048 C274.269333,10.9466662 274.232,10.8213341 274.232,10.672 C274.232,10.4906658 274.293333,10.333334 274.416,10.2 C274.538667,10.066666 274.690666,10 274.872,10 C274.968001,10 275.069333,10.0213331 275.176,10.064 C275.944004,10.3733349 276.791995,10.528 277.72,10.528 C278.552004,10.528 279.253331,10.3920014 279.824,10.12 C280.39467,9.84799864 280.68,9.3920032 280.68,8.752 C280.68,7.45599352 279.584031,6.78485668 277.392062,6.7385714 L276.888,6.736 C276.706666,6.736 276.549334,6.669334 276.416,6.536 C276.282666,6.402666 276.216,6.24533424 276.216,6.064 C276.216,5.88266576 276.282666,5.725334 276.416,5.592 C276.549334,5.458666 276.706666,5.392 276.888,5.392 L276.984,5.392 C278.050672,5.392 278.866664,5.22933496 279.432,4.904 C279.997336,4.57866504 280.28,4.0960032 280.28,3.456 C280.28,2.94399744 280.066669,2.53866816 279.64,2.24 C279.213331,1.94133184 278.584004,1.792 277.752,1.792 C276.855996,1.792 276.029337,1.96799824 275.272,2.32 C275.165333,2.36266688 275.069334,2.384 274.984,2.384 C274.823999,2.384 274.685334,2.32800056 274.568,2.216 C274.450666,2.10399944 274.392,1.96266752 274.392,1.792 C274.392,1.54666544 274.498666,1.36533392 274.712,1.248 C275.736005,0.70399728 276.791995,0.432 277.88,0.432 C279.106673,0.432 280.055997,0.68266416 280.728,1.184 C281.400003,1.68533584 281.736,2.39466208 281.736,3.312 C281.736,4.04800368 281.552002,4.62666456 281.184,5.048 C280.815998,5.46933544 280.354669,5.78133232 279.8,5.984 C280.408003,6.12266736 280.949331,6.41333112 281.424,6.856 C281.898669,7.29866888 282.136,7.95732896 282.136,8.832 C282.136,9.81333824 281.749337,10.5733306 280.976,11.112 C280.202663,11.6506694 279.208006,11.92 277.992,11.92 Z" id="heavychainagainstCD3" fill="#484848" fill-rule="nonzero"></path>
            </g>
        </g>
    </g>
</svg>