<?xml version="1.0" encoding="UTF-8"?>
<svg width="385px" height="271px" viewBox="0 0 385 271" version="1.1" xmlns="http://www.w3.org/2000/svg" xmlns:xlink="http://www.w3.org/1999/xlink">
    <!-- Generator: Sketch 58 (84663) - https://sketch.com -->
    <title>Group 6</title>
    <desc>Created with Sketch.</desc>
    <defs>
        <linearGradient x1="0%" y1="11.71875%" x2="121.685048%" y2="100.8597%" id="linearGradient-1">
            <stop stop-color="#1C4F74" offset="0%"></stop>
            <stop stop-color="#143958" offset="100%"></stop>
        </linearGradient>
        <linearGradient x1="0%" y1="42.7107438%" x2="121.685048%" y2="59.6843595%" id="linearGradient-2">
            <stop stop-color="#FFCC23" offset="0%"></stop>
            <stop stop-color="#E3209C" offset="94.1067558%"></stop>
            <stop stop-color="#E115A3" offset="100%"></stop>
        </linearGradient>
        <linearGradient x1="106.481982%" y1="51.4443689%" x2="-7.35198796%" y2="48.8608046%" id="linearGradient-3">
            <stop stop-color="#1D5279" offset="0%"></stop>
            <stop stop-color="#0F2B45" offset="100%"></stop>
        </linearGradient>
        <linearGradient x1="-7.13212993%" y1="51.5056595%" x2="106.262124%" y2="48.8113643%" id="linearGradient-4">
            <stop stop-color="#1D5279" offset="0%"></stop>
            <stop stop-color="#0F2B45" offset="100%"></stop>
        </linearGradient>
        <linearGradient x1="-7.13212993%" y1="51.7266126%" x2="106.262124%" y2="48.6369339%" id="linearGradient-5">
            <stop stop-color="#1D5279" offset="0%"></stop>
            <stop stop-color="#0F2B45" offset="100%"></stop>
        </linearGradient>
        <linearGradient x1="49.8821755%" y1="0%" x2="50.1225375%" y2="100.999999%" id="linearGradient-6">
            <stop stop-color="#000000" offset="0%"></stop>
            <stop stop-color="#FFFFFF" offset="100%"></stop>
        </linearGradient>
        <rect id="path-7" x="336" y="17" width="5" height="103"></rect>
        <linearGradient x1="49.9086858%" y1="0%" x2="50.0949668%" y2="100.999999%" id="linearGradient-8">
            <stop stop-color="#000000" offset="0%"></stop>
            <stop stop-color="#FFFFFF" offset="100%"></stop>
        </linearGradient>
        <rect id="path-9" x="336" y="137" width="5" height="117"></rect>
        <rect id="path-10" x="336" y="17" width="5" height="103"></rect>
        <linearGradient x1="49.1493384%" y1="0%" x2="50.8846881%" y2="100.999999%" id="linearGradient-11">
            <stop stop-color="#000000" offset="0%"></stop>
            <stop stop-color="#FFFFFF" offset="100%"></stop>
        </linearGradient>
        <rect id="path-12" x="41" y="48" width="6" height="46"></rect>
        <linearGradient x1="50%" y1="7.97189478%" x2="50%" y2="96.9288378%" id="linearGradient-13">
            <stop stop-color="#1D5178" offset="0%"></stop>
            <stop stop-color="#1C5177" offset="100%"></stop>
        </linearGradient>
        <linearGradient x1="2.44820263%" y1="2.42420066%" x2="123.107123%" y2="83.7301721%" id="linearGradient-14">
            <stop stop-color="#1A4D72" offset="0%"></stop>
            <stop stop-color="#102F4A" offset="100%"></stop>
        </linearGradient>
        <linearGradient x1="2.44820263%" y1="40.5016658%" x2="123.107123%" y2="56.7341054%" id="linearGradient-15">
            <stop stop-color="#1B4E74" offset="0%"></stop>
            <stop stop-color="#102E49" offset="100%"></stop>
        </linearGradient>
        <linearGradient x1="100%" y1="50%" x2="0%" y2="50%" id="linearGradient-16">
            <stop stop-color="#1D5279" offset="0%"></stop>
            <stop stop-color="#0F2B45" offset="100%"></stop>
        </linearGradient>
        <linearGradient x1="106.481982%" y1="51.5004557%" x2="-7.35198796%" y2="48.816568%" id="linearGradient-17">
            <stop stop-color="#1D5279" offset="0%"></stop>
            <stop stop-color="#0F2B45" offset="100%"></stop>
        </linearGradient>
        <linearGradient x1="106.481982%" y1="51.4686058%" x2="-7.35198796%" y2="48.8416885%" id="linearGradient-18">
            <stop stop-color="#1D5279" offset="0%"></stop>
            <stop stop-color="#0F2B45" offset="100%"></stop>
        </linearGradient>
        <linearGradient x1="100%" y1="50%" x2="0%" y2="50%" id="linearGradient-19">
            <stop stop-color="#1D5279" offset="0%"></stop>
            <stop stop-color="#0F2B45" offset="100%"></stop>
        </linearGradient>
        <linearGradient x1="100%" y1="50%" x2="0%" y2="50%" id="linearGradient-20">
            <stop stop-color="#1D5279" offset="0%"></stop>
            <stop stop-color="#0F2B45" offset="100%"></stop>
        </linearGradient>
    </defs>
    <g id="Parts" stroke="none" stroke-width="1" fill="none" fill-rule="evenodd">
        <g id="Antibody-description" transform="translate(-502.000000, -12.000000)">
            <g id="Group-6" transform="translate(502.000000, 9.000000)">
                <g id="Group-5" transform="translate(0.000000, 20.000000)">
                    <g id="Group-2" transform="translate(255.407377, 66.214989) rotate(-45.000000) translate(-255.407377, -66.214989) translate(190.407377, 51.714989)" fill-rule="nonzero">
                        <polygon id="Triangle" stroke="url(#linearGradient-1)" stroke-width="6" opacity="0.2" transform="translate(114.174891, 14.278383) rotate(20.000000) translate(-114.174891, -14.278383) " points="114.174891 3.77838259 126.174891 24.7783826 102.174891 24.7783826"></polygon>
                        <path d="M91.9383684,18.3073684 L87.3412785,22.1966101 L98.6463684,26.3073684 L52.3073684,26.3073684 L52.3073684,18.3073684 L91.9383684,18.3073684 Z M107.307368,5.30736835 L97.8493684,13.3073684 L52.3073684,13.3073684 L52.3073684,5.30736835 L107.307368,5.30736835 Z" id="Combined-Shape" fill="url(#linearGradient-2)"></path>
                        <rect id="Rectangle" fill="url(#linearGradient-3)" x="0.307368355" y="5.30736835" width="53" height="8"></rect>
                        <rect id="Rectangle" fill="url(#linearGradient-4)" x="0.688816818" y="18.3088168" width="52" height="8"></rect>
                        <polygon id="Rectangle" fill="url(#linearGradient-5)" points="52.0800498 18.3411139 92.0322561 18.2642173 87.3412785 22.1966101 98.8627132 26.3363846 49.8657198 26.2610213"></polygon>
                    </g>
                    <g id="Rectangle" fill-rule="nonzero">
                        <use fill="#D8D8D8" xlink:href="#path-7"></use>
                        <use fill-opacity="0.5" fill="url(#linearGradient-6)" style="mix-blend-mode: soft-light;" xlink:href="#path-7"></use>
                    </g>
                    <g id="Rectangle" fill-rule="nonzero">
                        <use fill="#D8D8D8" xlink:href="#path-9"></use>
                        <use fill-opacity="0.5" fill="url(#linearGradient-8)" style="mix-blend-mode: soft-light;" xlink:href="#path-9"></use>
                    </g>
                    <path d="M352.896739,75.8993289 C352.644322,75.8993289 352.431764,75.8120814 352.259058,75.6375839 C352.086352,75.4630864 352,75.2483234 352,74.9932886 L352,62.6711409 C352,62.4161061 352.086352,62.1979875 352.259058,62.0167785 C352.431764,61.8355696 352.644322,61.7449664 352.896739,61.7449664 L360.648551,61.7449664 C360.887682,61.7449664 361.090277,61.8288582 361.256341,61.9966443 C361.422404,62.1644304 361.505435,62.3691263 361.505435,62.6107383 C361.505435,62.8523502 361.422404,63.0536905 361.256341,63.2147651 C361.090277,63.3758397 360.887682,63.4563758 360.648551,63.4563758 L353.813406,63.4563758 L353.813406,67.9060403 L359.951087,67.9060403 C360.190219,67.9060403 360.392813,67.989932 360.558877,68.1577181 C360.72494,68.3255042 360.807971,68.5302001 360.807971,68.7718121 C360.807971,69.013424 360.72494,69.2147643 360.558877,69.3758389 C360.392813,69.5369136 360.190219,69.6174497 359.951087,69.6174497 L353.813406,69.6174497 L353.813406,74.9932886 C353.813406,75.2483234 353.723733,75.4630864 353.544384,75.6375839 C353.365035,75.8120814 353.149156,75.8993289 352.896739,75.8993289 Z M366.347826,76 C365.763282,76 365.221923,75.8791958 364.723732,75.6375839 C364.225541,75.3959719 363.830315,75.0436265 363.538043,74.5805369 C363.245771,74.1174473 363.099638,73.5838956 363.099638,72.9798658 C363.099638,71.9865722 363.488221,71.1946338 364.265399,70.6040268 C365.042576,70.0134199 366.181756,69.7181208 367.682971,69.7181208 L370.094203,69.7181208 L370.094203,69.557047 C370.094203,68.6711365 369.878323,68.033559 369.446558,67.6442953 C369.014793,67.2550316 368.340584,67.0604027 367.423913,67.0604027 C366.91908,67.0604027 366.470715,67.1006707 366.078804,67.1812081 C365.686894,67.2617454 365.251814,67.3825495 364.773551,67.5436242 C364.66727,67.5704699 364.580918,67.5838926 364.514493,67.5838926 C364.315216,67.5838926 364.142513,67.5100679 363.996377,67.3624161 C363.850241,67.2147644 363.777174,67.0335581 363.777174,66.8187919 C363.777174,66.456374 363.949877,66.201343 364.29529,66.0536913 C365.424523,65.5704674 366.573666,65.3288591 367.742754,65.3288591 C368.659425,65.3288591 369.43327,65.5167766 370.064312,65.8926174 C370.695353,66.2684583 371.160325,66.7550306 371.459239,67.352349 C371.758154,67.9496674 371.907609,68.5973119 371.907609,69.295302 L371.907609,74.9932886 C371.907609,75.2483234 371.817936,75.4630864 371.638587,75.6375839 C371.459238,75.8120814 371.243359,75.8993289 370.990942,75.8993289 C370.738525,75.8993289 370.525967,75.8120814 370.353261,75.6375839 C370.180555,75.4630864 370.094203,75.2483234 370.094203,74.9932886 L370.094203,74.4697987 C369.111106,75.489938 367.862326,76 366.347826,76 Z M367.025362,74.3892617 C367.609906,74.3892617 368.174514,74.2449679 368.719203,73.9563758 C369.263892,73.6677838 369.72222,73.308727 370.094203,72.8791946 L370.094203,71.1879195 L367.922101,71.1879195 C365.916053,71.1879195 364.913043,71.7181155 364.913043,72.7785235 C364.913043,73.2617474 365.075783,73.6510052 365.401268,73.9463087 C365.726753,74.2416122 366.268112,74.3892617 367.025362,74.3892617 Z M380.177536,76 C378.875597,76 377.739739,75.489938 376.769928,74.4697987 L376.769928,74.9932886 C376.769928,75.2483234 376.680255,75.4630864 376.500906,75.6375839 C376.321557,75.8120814 376.105678,75.8993289 375.853261,75.8993289 C375.600844,75.8993289 375.388286,75.8120814 375.21558,75.6375839 C375.042874,75.4630864 374.956522,75.2483234 374.956522,74.9932886 L374.956522,61.9261745 C374.956522,61.6711397 375.042874,61.453021 375.21558,61.2718121 C375.388286,61.0906031 375.600844,61 375.853261,61 C376.118963,61 376.338163,61.0872474 376.51087,61.261745 C376.683576,61.4362425 376.769928,61.6577168 376.769928,61.9261745 L376.769928,66.8590604 C377.739739,65.8389211 378.875597,65.3288591 380.177536,65.3288591 C381.001212,65.3288591 381.781699,65.5402663 382.519022,65.9630872 C383.256344,66.3859082 383.854164,67.0033516 384.3125,67.8154362 C384.770836,68.6275208 385,69.5771758 385,70.6644295 C385,71.7516833 384.770836,72.7013382 384.3125,73.5134228 C383.854164,74.3255074 383.256344,74.9429509 382.519022,75.3657718 C381.781699,75.7885927 381.001212,76 380.177536,76 Z M379.918478,74.2885906 C380.901575,74.2885906 381.692026,73.9731575 382.289855,73.3422819 C382.887684,72.7114062 383.186594,71.8187977 383.186594,70.6644295 C383.186594,69.5100613 382.887684,68.6174528 382.289855,67.9865772 C381.692026,67.3557015 380.901575,67.0402685 379.918478,67.0402685 C379.307364,67.0402685 378.732793,67.177851 378.194746,67.4530201 C377.6567,67.7281893 377.181765,68.0939574 376.769928,68.5503356 L376.769928,72.7785235 C377.181765,73.2349016 377.6567,73.6006698 378.194746,73.8758389 C378.732793,74.1510081 379.307364,74.2885906 379.918478,74.2885906 Z" id="Fab" fill="#303131"></path>
                    <path d="M354.891972,200.90113 C354.640897,200.90113 354.429469,200.815443 354.257681,200.644068 C354.085893,200.472692 354,200.261771 354,200.011299 L354,187.909605 C354,187.659132 354.085893,187.444916 354.257681,187.266949 C354.429469,187.088982 354.640897,187 354.891972,187 L362.602577,187 C362.840437,187 363.041955,187.082391 363.207136,187.247175 C363.372317,187.411959 363.454906,187.612993 363.454906,187.850282 C363.454906,188.087572 363.372317,188.28531 363.207136,188.443503 C363.041955,188.601696 362.840437,188.680791 362.602577,188.680791 L355.803766,188.680791 L355.803766,193.050847 L361.908821,193.050847 C362.146681,193.050847 362.348199,193.133238 362.51338,193.298023 C362.67856,193.462807 362.76115,193.663841 362.76115,193.90113 C362.76115,194.138419 362.67856,194.336157 362.51338,194.49435 C362.348199,194.652543 362.146681,194.731638 361.908821,194.731638 L355.803766,194.731638 L355.803766,200.011299 C355.803766,200.261771 355.71457,200.472692 355.536174,200.644068 C355.357779,200.815443 355.143047,200.90113 354.891972,200.90113 Z M370.372646,201 C369.421204,201 368.542455,200.789079 367.736373,200.367232 C366.93029,199.945384 366.286094,199.338987 365.803766,198.548023 C365.321438,197.757058 365.080278,196.827689 365.080278,195.759887 C365.080278,194.692085 365.321438,193.762716 365.803766,192.971751 C366.286094,192.180787 366.93029,191.57439 367.736373,191.152542 C368.542455,190.730695 369.421204,190.519774 370.372646,190.519774 C371.073013,190.519774 371.677566,190.608756 372.186323,190.786723 C372.69508,190.96469 373.16749,191.192089 373.603568,191.468927 C373.867857,191.640302 374,191.870997 374,192.161017 C374,192.358758 373.924018,192.540018 373.772052,192.704802 C373.620085,192.869587 373.444996,192.951977 373.246779,192.951977 C373.10142,192.951977 372.956063,192.91243 372.810704,192.833333 C372.374626,192.609227 372.001323,192.447741 371.690783,192.34887 C371.380243,192.25 370.993725,192.200565 370.531219,192.200565 C369.394775,192.200565 368.502811,192.526833 367.855302,193.179379 C367.207793,193.831924 366.884044,194.692085 366.884044,195.759887 C366.884044,196.827689 367.207793,197.68785 367.855302,198.340395 C368.502811,198.992941 369.394775,199.319209 370.531219,199.319209 C370.993725,199.319209 371.380243,199.269775 371.690783,199.170904 C372.001323,199.072033 372.374626,198.910547 372.810704,198.686441 C372.956063,198.607344 373.10142,198.567797 373.246779,198.567797 C373.444996,198.567797 373.620085,198.650187 373.772052,198.814972 C373.924018,198.979756 374,199.161016 374,199.358757 C374,199.648777 373.867857,199.879472 373.603568,200.050847 C373.16749,200.327685 372.69508,200.555084 372.186323,200.733051 C371.677566,200.911018 371.073013,201 370.372646,201 Z" id="Fcc" fill="#303131"></path>
                    <g id="Rectangle" fill-rule="nonzero">
                        <use fill="#D8D8D8" xlink:href="#path-10"></use>
                        <use fill-opacity="0.5" fill="url(#linearGradient-6)" style="mix-blend-mode: soft-light;" xlink:href="#path-10"></use>
                    </g>
                    <g id="Rectangle" fill-rule="nonzero" transform="translate(44.000000, 71.000000) scale(-1, 1) translate(-44.000000, -71.000000) ">
                        <use fill="#D8D8D8" xlink:href="#path-12"></use>
                        <use fill-opacity="0.5" fill="url(#linearGradient-11)" style="mix-blend-mode: soft-light;" xlink:href="#path-12"></use>
                    </g>
                    <path d="M3.56704981,74 C2.43166738,74 1.36782105,73.777161 0.375478927,73.3314763 C0.268198697,73.2850508 0.178799847,73.2084499 0.107279693,73.1016713 C0.0357595402,72.9948927 0,72.8811519 0,72.7604457 C0,72.602599 0.0514043391,72.4656459 0.154214559,72.3495822 C0.25702478,72.2335185 0.388888084,72.1754875 0.549808429,72.1754875 C0.639208621,72.1754875 0.724137529,72.1940574 0.804597701,72.2311978 C1.62707946,72.6118868 2.50765814,72.8022284 3.44636015,72.8022284 C5.01086351,72.8022284 5.79310345,72.2683433 5.79310345,71.2005571 C5.79310345,70.9220042 5.69252974,70.6898802 5.49137931,70.5041783 C5.29022888,70.3184763 5.04214707,70.1722382 4.74712644,70.0654596 C4.4521058,69.958681 4.03193121,69.8310128 3.48659004,69.6824513 C2.76244849,69.4874642 2.17688602,69.2994438 1.72988506,69.1183844 C1.2828841,68.937325 0.898469042,68.66574 0.576628352,68.3036212 C0.254787663,67.9415024 0.0938697318,67.4586845 0.0938697318,66.8551532 C0.0938697318,66.3259026 0.227968008,65.8454061 0.496168582,65.413649 C0.764369157,64.981892 1.15995907,64.6383485 1.68295019,64.3830084 C2.20594131,64.1276682 2.83396824,64 3.56704981,64 C4.55045192,64 5.43997048,64.1532018 6.23563218,64.45961 C6.48595272,64.552461 6.61111111,64.7381602 6.61111111,65.0167131 C6.61111111,65.1652747 6.56194174,65.2999065 6.46360153,65.4206128 C6.36526132,65.5413191 6.23563299,65.6016713 6.07471264,65.6016713 C6.02107253,65.6016713 5.94955345,65.5831014 5.86015326,65.545961 C5.16283176,65.2952634 4.44317102,65.1699164 3.70114943,65.1699164 C2.99488791,65.1699164 2.4205003,65.3091908 1.97796935,65.5877437 C1.5354384,65.8662967 1.31417625,66.2562649 1.31417625,66.7576602 C1.31417625,67.0919237 1.41921989,67.3635087 1.62931034,67.5724234 C1.8394008,67.7813381 2.1031274,67.9438249 2.42049808,68.0598886 C2.73786876,68.1759523 3.16921822,68.298978 3.71455939,68.4289694 C4.4208209,68.6053862 4.99073857,68.7818004 5.4243295,68.9582173 C5.85792043,69.1346341 6.22892566,69.4085404 6.53735632,69.7799443 C6.84578698,70.1513482 7,70.6527359 7,71.2841226 C7,71.804088 6.85696184,72.2706572 6.57088123,72.683844 C6.28480061,73.0970308 5.88250579,73.4196831 5.36398467,73.6518106 C4.84546356,73.883938 4.24649126,74 3.56704981,74 Z M11.56,74 C10.9199968,74 10.3288916,73.8591209 9.78666667,73.5773585 C9.24444173,73.2955961 8.81111273,72.8905687 8.48666667,72.3622642 C8.1622206,71.8339596 8,71.2132111 8,70.5 C8,69.7867889 8.1622206,69.1660404 8.48666667,68.6377358 C8.81111273,68.1094313 9.24444173,67.7044039 9.78666667,67.4226415 C10.3288916,67.1408791 10.9199968,67 11.56,67 C12.0311135,67 12.4377761,67.0594334 12.78,67.1783019 C13.1222239,67.2971704 13.4399985,67.4490557 13.7333333,67.6339623 C13.911112,67.7484282 14,67.9025148 14,68.0962264 C14,68.2283025 13.9488894,68.3493705 13.8466667,68.459434 C13.7444439,68.5694974 13.6266673,68.6245283 13.4933333,68.6245283 C13.3955551,68.6245283 13.2977783,68.5981135 13.2,68.545283 C12.9066652,68.3955967 12.6555566,68.2877362 12.4466667,68.2216981 C12.2377767,68.15566 11.9777793,68.1226415 11.6666667,68.1226415 C10.9022184,68.1226415 10.3022244,68.3405639 9.86666667,68.7764151 C9.43110893,69.2122663 9.21333333,69.7867889 9.21333333,70.5 C9.21333333,71.2132111 9.43110893,71.7877337 9.86666667,72.2235849 C10.3022244,72.6594361 10.9022184,72.8773585 11.6666667,72.8773585 C11.9777793,72.8773585 12.2377767,72.84434 12.4466667,72.7783019 C12.6555566,72.7122638 12.9066652,72.6044033 13.2,72.454717 C13.2977783,72.4018865 13.3955551,72.3754717 13.4933333,72.3754717 C13.6266673,72.3754717 13.7444439,72.4305026 13.8466667,72.540566 C13.9488894,72.6506295 14,72.7716975 14,72.9037736 C14,73.0974852 13.911112,73.2515718 13.7333333,73.3660377 C13.4399985,73.5509443 13.1222239,73.7028296 12.78,73.8216981 C12.4377761,73.9405666 12.0311135,74 11.56,74 Z M16.6603774,74 C16.4744924,74 16.3179601,73.93836 16.1907757,73.8150782 C16.0635913,73.6917964 16,73.5400673 16,73.3598862 L16,64.6543385 C16,64.4741575 16.0635913,64.3200575 16.1907757,64.1920341 C16.3179601,64.0640107 16.4744924,64 16.6603774,64 L22.3689727,64 C22.5450743,64 22.6942691,64.0592692 22.8165618,64.1778094 C22.9388546,64.2963496 23,64.4409664 23,64.6116643 C23,64.7823622 22.9388546,64.9246083 22.8165618,65.0384068 C22.6942691,65.1522054 22.5450743,65.2091038 22.3689727,65.2091038 L17.3354298,65.2091038 L17.3354298,68.3527738 L21.8553459,68.3527738 C22.0314474,68.3527738 22.1806423,68.412043 22.302935,68.5305832 C22.4252277,68.6491234 22.4863732,68.7937403 22.4863732,68.9644381 C22.4863732,69.135136 22.4252277,69.2773821 22.302935,69.3911807 C22.1806423,69.5049792 22.0314474,69.5618777 21.8553459,69.5618777 L17.3354298,69.5618777 L17.3354298,73.3598862 C17.3354298,73.5400673 17.2693927,73.6917964 17.1373166,73.8150782 C17.0052404,73.93836 16.8462623,74 16.6603774,74 Z M26.4267782,74 C26.2510451,74 26.0899589,73.9528851 25.9435146,73.8586538 C25.7970704,73.7644226 25.6896796,73.6455135 25.6213389,73.5019231 L23.0732218,67.9019231 C23.024407,67.7942302 23,67.7000004 23,67.6192308 C23,67.4487171 23.0634582,67.3028852 23.1903766,67.1817308 C23.3172949,67.0605763 23.4734998,67 23.6589958,67 C23.7859142,67 23.9055085,67.0336535 24.0177824,67.1009615 C24.1300563,67.1682696 24.2105995,67.2512816 24.2594142,67.35 L26.5,72.5730769 L28.7405858,67.35 C28.7894005,67.2512816 28.8699437,67.1682696 28.9822176,67.1009615 C29.0944915,67.0336535 29.2140858,67 29.3410042,67 C29.5265002,67 29.6827051,67.0605763 29.8096234,67.1817308 C29.9365418,67.3028852 30,67.4487171 30,67.6192308 C30,67.7000004 29.975593,67.7942302 29.9267782,67.9019231 L27.3786611,73.5019231 C27.3103204,73.6455135 27.2029296,73.7644226 27.0564854,73.8586538 C26.9100411,73.9528851 26.7489549,74 26.5732218,74 L26.4267782,74 Z" id="ScFv" fill="#303131" fill-rule="nonzero"></path>
                    <polygon id="Rectangle" fill="url(#linearGradient-13)" fill-rule="nonzero" points="182 111 187 111 187 134 182 134"></polygon>
                    <polygon id="Rectangle" fill="url(#linearGradient-13)" fill-rule="nonzero" points="197 111 202 111 202 134 197 134"></polygon>
                    <g id="Group" transform="translate(128.821591, 66.821591) rotate(45.000000) translate(-128.821591, -66.821591) translate(54.321591, 46.821591)" fill-rule="nonzero">
                        <polygon id="Polygon" stroke="url(#linearGradient-14)" stroke-width="6" opacity="0.2" transform="translate(19.807368, 19.807368) rotate(30.000000) translate(-19.807368, -19.807368) " points="19.8073684 5.30736835 33.5976878 15.3266219 28.3302545 31.5381148 11.2844822 31.5381148 6.01704887 15.3266219"></polygon>
                        <path d="M82.3073684,23.3073684 L82.3073684,31.3073684 L35.3083684,31.3063684 L42.4670115,24.8058895 L41.8043684,23.3063684 L82.3073684,23.3073684 Z M82.3073684,10.3073684 L82.3073684,18.3073684 L39.5973684,18.3063684 L36.0663684,10.3073684 L82.3073684,10.3073684 Z" id="Combined-Shape" fill="url(#linearGradient-15)"></path>
                        <polygon id="Shape" fill="url(#linearGradient-16)" points="81 10.31 140 10.31 146.5 10.31 148.365089 18.675089 140 18.31 81 18.31"></polygon>
                        <rect id="Rectangle" fill="url(#linearGradient-17)" x="81.3073684" y="23.3073684" width="52" height="8"></rect>
                    </g>
                    <g id="Group" transform="translate(185.000000, 191.500000) scale(-1, 1) rotate(270.000000) translate(-185.000000, -191.500000) translate(126.000000, 187.000000)" fill-rule="nonzero">
                        <polygon id="Combined-Shape" fill="url(#linearGradient-18)" points="0.746526302 0.307368355 53.3073684 0.307368355 53.3073684 8.30736835 0.746526302 8.30736835"></polygon>
                        <polygon id="Shape" fill="url(#linearGradient-19)" points="52 0.31 111 0.31 117.5 0.31 117.5 8.31 111 8.31 52 8.31"></polygon>
                    </g>
                    <g id="Group" transform="translate(198.000000, 191.500000) rotate(270.000000) translate(-198.000000, -191.500000) translate(139.000000, 187.000000)" fill-rule="nonzero">
                        <polygon id="Combined-Shape" fill="url(#linearGradient-18)" points="0.746526302 0.307368355 53.3073684 0.307368355 53.3073684 8.30736835 0.746526302 8.30736835"></polygon>
                        <polygon id="Shape" fill="url(#linearGradient-19)" points="52 0.31 111 0.31 117.5 0.31 117.5 8.31 111 8.31 52 8.31"></polygon>
                    </g>
                    <polygon id="Shape" fill="url(#linearGradient-20)" fill-rule="nonzero" transform="translate(222.598574, 91.726146) rotate(135.000000) translate(-222.598574, -91.726146) " points="190.634278 87.7377657 249.277127 87.7957795 255.895888 87.7036412 254.30126 95.7486506 247.850878 95.7486506 189.30126 95.7486506"></polygon>
                </g>
                <text id="heavy-chain-against" font-family="VarelaRound-Regular, Varela Round" font-size="16" font-weight="normal" letter-spacing="0.560000002" fill="#484848">
                    <tspan x="81.54" y="15">heavy chain against GPA33</tspan>
                </text>
            </g>
        </g>
    </g>
</svg>