<?xml version="1.0" encoding="UTF-8"?>
<svg width="385px" height="262px" viewBox="0 0 385 262" version="1.1" xmlns="http://www.w3.org/2000/svg" xmlns:xlink="http://www.w3.org/1999/xlink">
    <!-- Generator: Sketch 58 (84663) - https://sketch.com -->
    <title>Group 3</title>
    <desc>Created with Sketch.</desc>
    <defs>
        <linearGradient x1="50%" y1="7.97189478%" x2="50%" y2="96.9288378%" id="linearGradient-1">
            <stop stop-color="#1D5178" offset="0%"></stop>
            <stop stop-color="#1C5177" offset="100%"></stop>
        </linearGradient>
        <linearGradient x1="2.44820263%" y1="2.42420066%" x2="123.107123%" y2="83.7301721%" id="linearGradient-2">
            <stop stop-color="#1A4D72" offset="0%"></stop>
            <stop stop-color="#102F4A" offset="100%"></stop>
        </linearGradient>
        <linearGradient x1="2.44820263%" y1="40.5016658%" x2="123.107123%" y2="56.7341054%" id="linearGradient-3">
            <stop stop-color="#DA1AE6" offset="0%"></stop>
            <stop stop-color="#140CF7" offset="100%"></stop>
        </linearGradient>
        <linearGradient x1="100%" y1="50%" x2="0%" y2="50%" id="linearGradient-4">
            <stop stop-color="#1D5279" offset="0%"></stop>
            <stop stop-color="#0F2B45" offset="100%"></stop>
        </linearGradient>
        <linearGradient x1="106.481982%" y1="51.5004557%" x2="-7.35198796%" y2="48.816568%" id="linearGradient-5">
            <stop stop-color="#1D5279" offset="0%"></stop>
            <stop stop-color="#0F2B45" offset="100%"></stop>
        </linearGradient>
        <linearGradient x1="106.481982%" y1="51.4686058%" x2="-7.35198796%" y2="48.8416885%" id="linearGradient-6">
            <stop stop-color="#1D5279" offset="0%"></stop>
            <stop stop-color="#0F2B45" offset="100%"></stop>
        </linearGradient>
        <linearGradient x1="100%" y1="50%" x2="0%" y2="50%" id="linearGradient-7">
            <stop stop-color="#1D5279" offset="0%"></stop>
            <stop stop-color="#0F2B45" offset="100%"></stop>
        </linearGradient>
        <linearGradient x1="106.481982%" y1="52.6071968%" x2="-7.35198796%" y2="47.9436647%" id="linearGradient-8">
            <stop stop-color="#1D5279" offset="0%"></stop>
            <stop stop-color="#0F2B45" offset="100%"></stop>
        </linearGradient>
        <linearGradient x1="0%" y1="11.71875%" x2="121.685048%" y2="100.8597%" id="linearGradient-9">
            <stop stop-color="#1A4B6F" offset="0%"></stop>
            <stop stop-color="#102E49" offset="100%"></stop>
        </linearGradient>
        <linearGradient x1="106.481982%" y1="51.9318079%" x2="-7.35198796%" y2="48.4763541%" id="linearGradient-10">
            <stop stop-color="#1D5279" offset="0%"></stop>
            <stop stop-color="#0F2B45" offset="100%"></stop>
        </linearGradient>
        <linearGradient x1="49.8821755%" y1="0%" x2="50.1225375%" y2="100.999999%" id="linearGradient-11">
            <stop stop-color="#000000" offset="0%"></stop>
            <stop stop-color="#FFFFFF" offset="100%"></stop>
        </linearGradient>
        <rect id="path-12" x="336" y="25" width="5" height="103"></rect>
        <linearGradient x1="49.9086858%" y1="0%" x2="50.0949668%" y2="100.999999%" id="linearGradient-13">
            <stop stop-color="#000000" offset="0%"></stop>
            <stop stop-color="#FFFFFF" offset="100%"></stop>
        </linearGradient>
        <rect id="path-14" x="336" y="145" width="5" height="117"></rect>
        <rect id="path-15" x="336" y="25" width="5" height="103"></rect>
        <linearGradient x1="49.1493384%" y1="0%" x2="50.8846881%" y2="100.999999%" id="linearGradient-16">
            <stop stop-color="#000000" offset="0%"></stop>
            <stop stop-color="#FFFFFF" offset="100%"></stop>
        </linearGradient>
        <rect id="path-17" x="41" y="56" width="6" height="46"></rect>
        <linearGradient x1="100%" y1="50%" x2="0%" y2="50%" id="linearGradient-18">
            <stop stop-color="#1D5279" offset="0%"></stop>
            <stop stop-color="#0F2B45" offset="100%"></stop>
        </linearGradient>
        <linearGradient x1="100%" y1="50%" x2="0%" y2="50%" id="linearGradient-19">
            <stop stop-color="#1D5279" offset="0%"></stop>
            <stop stop-color="#0F2B45" offset="100%"></stop>
        </linearGradient>
    </defs>
    <g id="Parts" stroke="none" stroke-width="1" fill="none" fill-rule="evenodd">
        <g id="Antibody-description" transform="translate(-48.000000, -9.000000)">
            <g id="Group-3" transform="translate(48.000000, 9.000000)">
                <polygon id="Rectangle" fill="url(#linearGradient-1)" fill-rule="nonzero" points="178 123 183 123 183 146 178 146"></polygon>
                <polygon id="Rectangle" fill="url(#linearGradient-1)" fill-rule="nonzero" points="193 123 198 123 198 146 193 146"></polygon>
                <g id="Group" transform="translate(124.821591, 78.821591) rotate(45.000000) translate(-124.821591, -78.821591) translate(50.321591, 58.821591)" fill-rule="nonzero">
                    <polygon id="Polygon" stroke="url(#linearGradient-2)" stroke-width="6" opacity="0.2" transform="translate(19.807368, 19.807368) rotate(30.000000) translate(-19.807368, -19.807368) " points="19.8073684 5.30736835 33.5976878 15.3266219 28.3302545 31.5381148 11.2844822 31.5381148 6.01704887 15.3266219"></polygon>
                    <path d="M82.3073684,23.3073684 L82.3073684,31.3073684 L35.3083684,31.3063684 L42.4670115,24.8058895 L41.8043684,23.3063684 L82.3073684,23.3073684 Z M82.3073684,10.3073684 L82.3073684,18.3073684 L39.5973684,18.3063684 L36.0663684,10.3073684 L82.3073684,10.3073684 Z" id="Combined-Shape" fill="url(#linearGradient-3)"></path>
                    <polygon id="Shape" fill="url(#linearGradient-4)" points="81 10.31 140 10.31 146.5 10.31 148.365089 18.675089 140 18.31 81 18.31"></polygon>
                    <rect id="Rectangle" fill="url(#linearGradient-5)" x="81.3073684" y="23.3073684" width="52" height="8"></rect>
                </g>
                <g id="Group" transform="translate(181.000000, 203.500000) scale(-1, 1) rotate(270.000000) translate(-181.000000, -203.500000) translate(122.000000, 199.000000)" fill-rule="nonzero">
                    <polygon id="Combined-Shape" fill="url(#linearGradient-6)" points="0.746526302 0.307368355 53.3073684 0.307368355 53.3073684 8.30736835 0.746526302 8.30736835"></polygon>
                    <polygon id="Shape" fill="url(#linearGradient-7)" points="52 0.31 111 0.31 117.5 0.31 117.5 8.31 111 8.31 52 8.31"></polygon>
                </g>
                <g id="Group" transform="translate(194.000000, 203.500000) rotate(270.000000) translate(-194.000000, -203.500000) translate(135.000000, 199.000000)" fill-rule="nonzero">
                    <polygon id="Combined-Shape" fill="url(#linearGradient-6)" points="0.746526302 0.307368355 53.3073684 0.307368355 53.3073684 8.30736835 0.746526302 8.30736835"></polygon>
                    <polygon id="Shape" fill="url(#linearGradient-7)" points="52 0.31 111 0.31 117.5 0.31 117.5 8.31 111 8.31 52 8.31"></polygon>
                </g>
                <g id="Group-2" transform="translate(250.811183, 78.811183) rotate(-45.000000) translate(-250.811183, -78.811183) translate(179.311183, 64.311183)" fill-rule="nonzero">
                    <polygon id="Triangle" stroke="url(#linearGradient-9)" stroke-width="6" opacity="0.2" transform="translate(127.174891, 14.278383) rotate(20.000000) translate(-127.174891, -14.278383) " points="127.174891 3.77838259 139.174891 24.7783826 115.174891 24.7783826"></polygon>
                    <path d="M104.938368,18.3073684 L100.341278,22.1966101 L111.646368,26.3073684 L65.688,26.3073684 L65.6888168,26.3088168 L13.6888168,26.3088168 L13.6888168,18.3088168 L65.307,18.3083684 L65.3073684,18.3073684 L104.938368,18.3073684 Z M66.3073684,5.30736835 L120.307368,5.30736835 L110.849368,13.3073684 L65.5,13.3073684 L65.5,13.31 L2.55795385e-13,13.31 L2.55795385e-13,5.31 L13.307,5.30936835 L13.3073684,5.30736835 L66.3073684,5.30736835 Z" id="Combined-Shape" fill="url(#linearGradient-10)"></path>
                </g>
                <g id="Rectangle" fill-rule="nonzero">
                    <use fill="#D8D8D8" xlink:href="#path-12"></use>
                    <use fill-opacity="0.5" fill="url(#linearGradient-11)" style="mix-blend-mode: soft-light;" xlink:href="#path-12"></use>
                </g>
                <g id="Rectangle" fill-rule="nonzero">
                    <use fill="#D8D8D8" xlink:href="#path-14"></use>
                    <use fill-opacity="0.5" fill="url(#linearGradient-13)" style="mix-blend-mode: soft-light;" xlink:href="#path-14"></use>
                </g>
                <path d="M352.896739,83.8993289 C352.644322,83.8993289 352.431764,83.8120814 352.259058,83.6375839 C352.086352,83.4630864 352,83.2483234 352,82.9932886 L352,70.6711409 C352,70.4161061 352.086352,70.1979875 352.259058,70.0167785 C352.431764,69.8355696 352.644322,69.7449664 352.896739,69.7449664 L360.648551,69.7449664 C360.887682,69.7449664 361.090277,69.8288582 361.256341,69.9966443 C361.422404,70.1644304 361.505435,70.3691263 361.505435,70.6107383 C361.505435,70.8523502 361.422404,71.0536905 361.256341,71.2147651 C361.090277,71.3758397 360.887682,71.4563758 360.648551,71.4563758 L353.813406,71.4563758 L353.813406,75.9060403 L359.951087,75.9060403 C360.190219,75.9060403 360.392813,75.989932 360.558877,76.1577181 C360.72494,76.3255042 360.807971,76.5302001 360.807971,76.7718121 C360.807971,77.013424 360.72494,77.2147643 360.558877,77.3758389 C360.392813,77.5369136 360.190219,77.6174497 359.951087,77.6174497 L353.813406,77.6174497 L353.813406,82.9932886 C353.813406,83.2483234 353.723733,83.4630864 353.544384,83.6375839 C353.365035,83.8120814 353.149156,83.8993289 352.896739,83.8993289 Z M366.347826,84 C365.763282,84 365.221923,83.8791958 364.723732,83.6375839 C364.225541,83.3959719 363.830315,83.0436265 363.538043,82.5805369 C363.245771,82.1174473 363.099638,81.5838956 363.099638,80.9798658 C363.099638,79.9865722 363.488221,79.1946338 364.265399,78.6040268 C365.042576,78.0134199 366.181756,77.7181208 367.682971,77.7181208 L370.094203,77.7181208 L370.094203,77.557047 C370.094203,76.6711365 369.878323,76.033559 369.446558,75.6442953 C369.014793,75.2550316 368.340584,75.0604027 367.423913,75.0604027 C366.91908,75.0604027 366.470715,75.1006707 366.078804,75.1812081 C365.686894,75.2617454 365.251814,75.3825495 364.773551,75.5436242 C364.66727,75.5704699 364.580918,75.5838926 364.514493,75.5838926 C364.315216,75.5838926 364.142513,75.5100679 363.996377,75.3624161 C363.850241,75.2147644 363.777174,75.0335581 363.777174,74.8187919 C363.777174,74.456374 363.949877,74.201343 364.29529,74.0536913 C365.424523,73.5704674 366.573666,73.3288591 367.742754,73.3288591 C368.659425,73.3288591 369.43327,73.5167766 370.064312,73.8926174 C370.695353,74.2684583 371.160325,74.7550306 371.459239,75.352349 C371.758154,75.9496674 371.907609,76.5973119 371.907609,77.295302 L371.907609,82.9932886 C371.907609,83.2483234 371.817936,83.4630864 371.638587,83.6375839 C371.459238,83.8120814 371.243359,83.8993289 370.990942,83.8993289 C370.738525,83.8993289 370.525967,83.8120814 370.353261,83.6375839 C370.180555,83.4630864 370.094203,83.2483234 370.094203,82.9932886 L370.094203,82.4697987 C369.111106,83.489938 367.862326,84 366.347826,84 Z M367.025362,82.3892617 C367.609906,82.3892617 368.174514,82.2449679 368.719203,81.9563758 C369.263892,81.6677838 369.72222,81.308727 370.094203,80.8791946 L370.094203,79.1879195 L367.922101,79.1879195 C365.916053,79.1879195 364.913043,79.7181155 364.913043,80.7785235 C364.913043,81.2617474 365.075783,81.6510052 365.401268,81.9463087 C365.726753,82.2416122 366.268112,82.3892617 367.025362,82.3892617 Z M380.177536,84 C378.875597,84 377.739739,83.489938 376.769928,82.4697987 L376.769928,82.9932886 C376.769928,83.2483234 376.680255,83.4630864 376.500906,83.6375839 C376.321557,83.8120814 376.105678,83.8993289 375.853261,83.8993289 C375.600844,83.8993289 375.388286,83.8120814 375.21558,83.6375839 C375.042874,83.4630864 374.956522,83.2483234 374.956522,82.9932886 L374.956522,69.9261745 C374.956522,69.6711397 375.042874,69.453021 375.21558,69.2718121 C375.388286,69.0906031 375.600844,69 375.853261,69 C376.118963,69 376.338163,69.0872474 376.51087,69.261745 C376.683576,69.4362425 376.769928,69.6577168 376.769928,69.9261745 L376.769928,74.8590604 C377.739739,73.8389211 378.875597,73.3288591 380.177536,73.3288591 C381.001212,73.3288591 381.781699,73.5402663 382.519022,73.9630872 C383.256344,74.3859082 383.854164,75.0033516 384.3125,75.8154362 C384.770836,76.6275208 385,77.5771758 385,78.6644295 C385,79.7516833 384.770836,80.7013382 384.3125,81.5134228 C383.854164,82.3255074 383.256344,82.9429509 382.519022,83.3657718 C381.781699,83.7885927 381.001212,84 380.177536,84 Z M379.918478,82.2885906 C380.901575,82.2885906 381.692026,81.9731575 382.289855,81.3422819 C382.887684,80.7114062 383.186594,79.8187977 383.186594,78.6644295 C383.186594,77.5100613 382.887684,76.6174528 382.289855,75.9865772 C381.692026,75.3557015 380.901575,75.0402685 379.918478,75.0402685 C379.307364,75.0402685 378.732793,75.177851 378.194746,75.4530201 C377.6567,75.7281893 377.181765,76.0939574 376.769928,76.5503356 L376.769928,80.7785235 C377.181765,81.2349016 377.6567,81.6006698 378.194746,81.8758389 C378.732793,82.1510081 379.307364,82.2885906 379.918478,82.2885906 Z" id="Fab" fill="#303131"></path>
                <path d="M354.891972,208.90113 C354.640897,208.90113 354.429469,208.815443 354.257681,208.644068 C354.085893,208.472692 354,208.261771 354,208.011299 L354,195.909605 C354,195.659132 354.085893,195.444916 354.257681,195.266949 C354.429469,195.088982 354.640897,195 354.891972,195 L362.602577,195 C362.840437,195 363.041955,195.082391 363.207136,195.247175 C363.372317,195.411959 363.454906,195.612993 363.454906,195.850282 C363.454906,196.087572 363.372317,196.28531 363.207136,196.443503 C363.041955,196.601696 362.840437,196.680791 362.602577,196.680791 L355.803766,196.680791 L355.803766,201.050847 L361.908821,201.050847 C362.146681,201.050847 362.348199,201.133238 362.51338,201.298023 C362.67856,201.462807 362.76115,201.663841 362.76115,201.90113 C362.76115,202.138419 362.67856,202.336157 362.51338,202.49435 C362.348199,202.652543 362.146681,202.731638 361.908821,202.731638 L355.803766,202.731638 L355.803766,208.011299 C355.803766,208.261771 355.71457,208.472692 355.536174,208.644068 C355.357779,208.815443 355.143047,208.90113 354.891972,208.90113 Z M370.372646,209 C369.421204,209 368.542455,208.789079 367.736373,208.367232 C366.93029,207.945384 366.286094,207.338987 365.803766,206.548023 C365.321438,205.757058 365.080278,204.827689 365.080278,203.759887 C365.080278,202.692085 365.321438,201.762716 365.803766,200.971751 C366.286094,200.180787 366.93029,199.57439 367.736373,199.152542 C368.542455,198.730695 369.421204,198.519774 370.372646,198.519774 C371.073013,198.519774 371.677566,198.608756 372.186323,198.786723 C372.69508,198.96469 373.16749,199.192089 373.603568,199.468927 C373.867857,199.640302 374,199.870997 374,200.161017 C374,200.358758 373.924018,200.540018 373.772052,200.704802 C373.620085,200.869587 373.444996,200.951977 373.246779,200.951977 C373.10142,200.951977 372.956063,200.91243 372.810704,200.833333 C372.374626,200.609227 372.001323,200.447741 371.690783,200.34887 C371.380243,200.25 370.993725,200.200565 370.531219,200.200565 C369.394775,200.200565 368.502811,200.526833 367.855302,201.179379 C367.207793,201.831924 366.884044,202.692085 366.884044,203.759887 C366.884044,204.827689 367.207793,205.68785 367.855302,206.340395 C368.502811,206.992941 369.394775,207.319209 370.531219,207.319209 C370.993725,207.319209 371.380243,207.269775 371.690783,207.170904 C372.001323,207.072033 372.374626,206.910547 372.810704,206.686441 C372.956063,206.607344 373.10142,206.567797 373.246779,206.567797 C373.444996,206.567797 373.620085,206.650187 373.772052,206.814972 C373.924018,206.979756 374,207.161016 374,207.358757 C374,207.648777 373.867857,207.879472 373.603568,208.050847 C373.16749,208.327685 372.69508,208.555084 372.186323,208.733051 C371.677566,208.911018 371.073013,209 370.372646,209 Z" id="Fcc" fill="#303131"></path>
                <g id="Rectangle" fill-rule="nonzero">
                    <use fill="#D8D8D8" xlink:href="#path-15"></use>
                    <use fill-opacity="0.5" fill="url(#linearGradient-11)" style="mix-blend-mode: soft-light;" xlink:href="#path-15"></use>
                </g>
                <g id="Rectangle" fill-rule="nonzero" transform="translate(44.000000, 79.000000) scale(-1, 1) translate(-44.000000, -79.000000) ">
                    <use fill="#D8D8D8" xlink:href="#path-17"></use>
                    <use fill-opacity="0.5" fill="url(#linearGradient-16)" style="mix-blend-mode: soft-light;" xlink:href="#path-17"></use>
                </g>
                <path d="M3.56704981,82 C2.43166738,82 1.36782105,81.777161 0.375478927,81.3314763 C0.268198697,81.2850508 0.178799847,81.2084499 0.107279693,81.1016713 C0.0357595402,80.9948927 0,80.8811519 0,80.7604457 C0,80.602599 0.0514043391,80.4656459 0.154214559,80.3495822 C0.25702478,80.2335185 0.388888084,80.1754875 0.549808429,80.1754875 C0.639208621,80.1754875 0.724137529,80.1940574 0.804597701,80.2311978 C1.62707946,80.6118868 2.50765814,80.8022284 3.44636015,80.8022284 C5.01086351,80.8022284 5.79310345,80.2683433 5.79310345,79.2005571 C5.79310345,78.9220042 5.69252974,78.6898802 5.49137931,78.5041783 C5.29022888,78.3184763 5.04214707,78.1722382 4.74712644,78.0654596 C4.4521058,77.958681 4.03193121,77.8310128 3.48659004,77.6824513 C2.76244849,77.4874642 2.17688602,77.2994438 1.72988506,77.1183844 C1.2828841,76.937325 0.898469042,76.66574 0.576628352,76.3036212 C0.254787663,75.9415024 0.0938697318,75.4586845 0.0938697318,74.8551532 C0.0938697318,74.3259026 0.227968008,73.8454061 0.496168582,73.413649 C0.764369157,72.981892 1.15995907,72.6383485 1.68295019,72.3830084 C2.20594131,72.1276682 2.83396824,72 3.56704981,72 C4.55045192,72 5.43997048,72.1532018 6.23563218,72.45961 C6.48595272,72.552461 6.61111111,72.7381602 6.61111111,73.0167131 C6.61111111,73.1652747 6.56194174,73.2999065 6.46360153,73.4206128 C6.36526132,73.5413191 6.23563299,73.6016713 6.07471264,73.6016713 C6.02107253,73.6016713 5.94955345,73.5831014 5.86015326,73.545961 C5.16283176,73.2952634 4.44317102,73.1699164 3.70114943,73.1699164 C2.99488791,73.1699164 2.4205003,73.3091908 1.97796935,73.5877437 C1.5354384,73.8662967 1.31417625,74.2562649 1.31417625,74.7576602 C1.31417625,75.0919237 1.41921989,75.3635087 1.62931034,75.5724234 C1.8394008,75.7813381 2.1031274,75.9438249 2.42049808,76.0598886 C2.73786876,76.1759523 3.16921822,76.298978 3.71455939,76.4289694 C4.4208209,76.6053862 4.99073857,76.7818004 5.4243295,76.9582173 C5.85792043,77.1346341 6.22892566,77.4085404 6.53735632,77.7799443 C6.84578698,78.1513482 7,78.6527359 7,79.2841226 C7,79.804088 6.85696184,80.2706572 6.57088123,80.683844 C6.28480061,81.0970308 5.88250579,81.4196831 5.36398467,81.6518106 C4.84546356,81.883938 4.24649126,82 3.56704981,82 Z M11.56,82 C10.9199968,82 10.3288916,81.8591209 9.78666667,81.5773585 C9.24444173,81.2955961 8.81111273,80.8905687 8.48666667,80.3622642 C8.1622206,79.8339596 8,79.2132111 8,78.5 C8,77.7867889 8.1622206,77.1660404 8.48666667,76.6377358 C8.81111273,76.1094313 9.24444173,75.7044039 9.78666667,75.4226415 C10.3288916,75.1408791 10.9199968,75 11.56,75 C12.0311135,75 12.4377761,75.0594334 12.78,75.1783019 C13.1222239,75.2971704 13.4399985,75.4490557 13.7333333,75.6339623 C13.911112,75.7484282 14,75.9025148 14,76.0962264 C14,76.2283025 13.9488894,76.3493705 13.8466667,76.459434 C13.7444439,76.5694974 13.6266673,76.6245283 13.4933333,76.6245283 C13.3955551,76.6245283 13.2977783,76.5981135 13.2,76.545283 C12.9066652,76.3955967 12.6555566,76.2877362 12.4466667,76.2216981 C12.2377767,76.15566 11.9777793,76.1226415 11.6666667,76.1226415 C10.9022184,76.1226415 10.3022244,76.3405639 9.86666667,76.7764151 C9.43110893,77.2122663 9.21333333,77.7867889 9.21333333,78.5 C9.21333333,79.2132111 9.43110893,79.7877337 9.86666667,80.2235849 C10.3022244,80.6594361 10.9022184,80.8773585 11.6666667,80.8773585 C11.9777793,80.8773585 12.2377767,80.84434 12.4466667,80.7783019 C12.6555566,80.7122638 12.9066652,80.6044033 13.2,80.454717 C13.2977783,80.4018865 13.3955551,80.3754717 13.4933333,80.3754717 C13.6266673,80.3754717 13.7444439,80.4305026 13.8466667,80.540566 C13.9488894,80.6506295 14,80.7716975 14,80.9037736 C14,81.0974852 13.911112,81.2515718 13.7333333,81.3660377 C13.4399985,81.5509443 13.1222239,81.7028296 12.78,81.8216981 C12.4377761,81.9405666 12.0311135,82 11.56,82 Z M16.6603774,82 C16.4744924,82 16.3179601,81.93836 16.1907757,81.8150782 C16.0635913,81.6917964 16,81.5400673 16,81.3598862 L16,72.6543385 C16,72.4741575 16.0635913,72.3200575 16.1907757,72.1920341 C16.3179601,72.0640107 16.4744924,72 16.6603774,72 L22.3689727,72 C22.5450743,72 22.6942691,72.0592692 22.8165618,72.1778094 C22.9388546,72.2963496 23,72.4409664 23,72.6116643 C23,72.7823622 22.9388546,72.9246083 22.8165618,73.0384068 C22.6942691,73.1522054 22.5450743,73.2091038 22.3689727,73.2091038 L17.3354298,73.2091038 L17.3354298,76.3527738 L21.8553459,76.3527738 C22.0314474,76.3527738 22.1806423,76.412043 22.302935,76.5305832 C22.4252277,76.6491234 22.4863732,76.7937403 22.4863732,76.9644381 C22.4863732,77.135136 22.4252277,77.2773821 22.302935,77.3911807 C22.1806423,77.5049792 22.0314474,77.5618777 21.8553459,77.5618777 L17.3354298,77.5618777 L17.3354298,81.3598862 C17.3354298,81.5400673 17.2693927,81.6917964 17.1373166,81.8150782 C17.0052404,81.93836 16.8462623,82 16.6603774,82 Z M26.4267782,82 C26.2510451,82 26.0899589,81.9528851 25.9435146,81.8586538 C25.7970704,81.7644226 25.6896796,81.6455135 25.6213389,81.5019231 L23.0732218,75.9019231 C23.024407,75.7942302 23,75.7000004 23,75.6192308 C23,75.4487171 23.0634582,75.3028852 23.1903766,75.1817308 C23.3172949,75.0605763 23.4734998,75 23.6589958,75 C23.7859142,75 23.9055085,75.0336535 24.0177824,75.1009615 C24.1300563,75.1682696 24.2105995,75.2512816 24.2594142,75.35 L26.5,80.5730769 L28.7405858,75.35 C28.7894005,75.2512816 28.8699437,75.1682696 28.9822176,75.1009615 C29.0944915,75.0336535 29.2140858,75 29.3410042,75 C29.5265002,75 29.6827051,75.0605763 29.8096234,75.1817308 C29.9365418,75.3028852 30,75.4487171 30,75.6192308 C30,75.7000004 29.975593,75.7942302 29.9267782,75.9019231 L27.3786611,81.5019231 C27.3103204,81.6455135 27.2029296,81.7644226 27.0564854,81.8586538 C26.9100411,81.9528851 26.7489549,82 26.5732218,82 L26.4267782,82 Z" id="ScFv" fill="#303131" fill-rule="nonzero"></path>
                <polygon id="Shape" fill="url(#linearGradient-18)" fill-rule="nonzero" transform="translate(218.598574, 103.726146) rotate(135.000000) translate(-218.598574, -103.726146) " points="186.607967 99.8620717 245.277127 99.7957795 251.895888 99.7036412 250.30126 107.748651 243.850878 107.748651 185.30126 107.748651"></polygon>
                <polygon id="Shape" fill="url(#linearGradient-19)" fill-rule="nonzero" transform="translate(117.796325, 63.695044) rotate(135.000000) translate(-117.796325, -63.695044) " points="113.775295 87.1661094 113.57802 56.1344018 113.725066 40.3310756 121.832164 40.2239777 121.967241 57.639476 122.014629 82.8930781"></polygon>
                <path d="M92.984,12.08 C92.7813323,12.08 92.6106674,12.0106674 92.472,11.872 C92.3333326,11.7333326 92.264,11.5626677 92.264,11.36 L92.264,0.976 C92.264,0.77333232 92.3333326,0.60000072 92.472,0.456 C92.6106674,0.31199928 92.7813323,0.24 92.984,0.24 C93.1973344,0.24 93.3733326,0.30933264 93.512,0.448 C93.6506674,0.58666736 93.72,0.7626656 93.72,0.976 L93.72,11.36 C93.72,11.5626677 93.6480007,11.7333326 93.504,11.872 C93.3599993,12.0106674 93.1866677,12.08 92.984,12.08 Z M97.6498463,2.176 C97.4258451,2.176 97.2338471,2.0960008 97.0738463,1.936 C96.9138455,1.7759992 96.8338463,1.58400112 96.8338463,1.36 L96.8338463,1.296 C96.8338463,1.07199888 96.9138455,0.8800008 97.0738463,0.72 C97.2338471,0.5599992 97.4258451,0.48 97.6498463,0.48 L97.7458463,0.48 C97.9698474,0.48 98.1618455,0.5599992 98.3218463,0.72 C98.4818471,0.8800008 98.5618463,1.07199888 98.5618463,1.296 L98.5618463,1.36 C98.5618463,1.58400112 98.4818471,1.7759992 98.3218463,1.936 C98.1618455,2.0960008 97.9698474,2.176 97.7458463,2.176 L97.6498463,2.176 Z M97.6818463,12.08 C97.4791786,12.08 97.3085136,12.0106674 97.1698463,11.872 C97.0311789,11.7333326 96.9618463,11.5626677 96.9618463,11.36 L96.9618463,4.496 C96.9618463,4.29333232 97.0311789,4.12000072 97.1698463,3.976 C97.3085136,3.83199928 97.4791786,3.76 97.6818463,3.76 C97.8951807,3.76 98.0711789,3.82933264 98.2098463,3.968 C98.3485136,4.10666736 98.4178463,4.2826656 98.4178463,4.496 L98.4178463,11.36 C98.4178463,11.5626677 98.345847,11.7333326 98.2018463,11.872 C98.0578455,12.0106674 97.8845139,12.08 97.6818463,12.08 Z M105.467693,15.84 C104.849023,15.84 104.225029,15.7600008 103.595693,15.6 C102.966356,15.4399992 102.449028,15.2426678 102.043693,15.008 C101.851692,14.8906661 101.755693,14.7040013 101.755693,14.448 C101.755693,14.2773325 101.817025,14.125334 101.939693,13.992 C102.06236,13.858666 102.214358,13.792 102.395693,13.792 C102.481026,13.792 102.577025,13.8133331 102.683693,13.856 C103.494363,14.2613354 104.374354,14.464 105.323693,14.464 C106.955701,14.464 107.771693,13.5946754 107.771693,11.856 L107.771693,10.784 C107.014355,11.5946707 106.102365,12 105.035693,12 C104.406356,12 103.795695,11.8426682 103.203693,11.528 C102.61169,11.2133318 102.123694,10.7440031 101.739693,10.12 C101.355691,9.49599688 101.163693,8.73600448 101.163693,7.84 C101.163693,6.94399552 101.355691,6.18400312 101.739693,5.56 C102.123694,4.93599688 102.61169,4.46666824 103.203693,4.152 C103.795695,3.83733176 104.406356,3.68 105.035693,3.68 C106.102365,3.68 107.014355,4.08532928 107.771693,4.896 L107.771693,4.496 C107.771693,4.29333232 107.841025,4.12000072 107.979693,3.976 C108.11836,3.83199928 108.289025,3.76 108.491693,3.76 C108.69436,3.76 108.867692,3.83199928 109.011693,3.976 C109.155693,4.12000072 109.227693,4.29333232 109.227693,4.496 L109.227693,11.648 C109.227693,12.9920067 108.902362,14.026663 108.251693,14.752 C107.601023,15.477337 106.673032,15.84 105.467693,15.84 Z M105.339693,10.672 C105.841028,10.672 106.283691,10.5653344 106.667693,10.352 C107.051694,10.1386656 107.419691,9.85066848 107.771693,9.488 L107.771693,6.192 C107.419691,5.82933152 107.051694,5.5413344 106.667693,5.328 C106.283691,5.1146656 105.841028,5.008 105.339693,5.008 C104.539689,5.008 103.886362,5.25066424 103.379693,5.736 C102.873023,6.22133576 102.619693,6.92266208 102.619693,7.84 C102.619693,8.75733792 102.873023,9.45866424 103.379693,9.944 C103.886362,10.4293358 104.539689,10.672 105.339693,10.672 Z M113.189539,12.08 C112.986871,12.08 112.816206,12.0106674 112.677539,11.872 C112.538871,11.7333326 112.469539,11.5626677 112.469539,11.36 L112.469539,0.976 C112.469539,0.77333232 112.538871,0.60000072 112.677539,0.456 C112.816206,0.31199928 112.986871,0.24 113.189539,0.24 C113.392206,0.24 113.565538,0.31199928 113.709539,0.456 C113.85354,0.60000072 113.925539,0.77333232 113.925539,0.976 L113.925539,5.152 C114.330874,4.70399776 114.768203,4.346668 115.237539,4.08 C115.706874,3.813332 116.261536,3.68 116.901539,3.68 C117.488208,3.68 117.997537,3.81866528 118.429539,4.096 C118.861541,4.37333472 119.192204,4.7519976 119.421539,5.232 C119.650873,5.7120024 119.765539,6.24 119.765539,6.816 L119.765539,11.36 C119.765539,11.5626677 119.69354,11.7333326 119.549539,11.872 C119.405538,12.0106674 119.232206,12.08 119.029539,12.08 C118.826871,12.08 118.656206,12.0106674 118.517539,11.872 C118.378871,11.7333326 118.309539,11.5626677 118.309539,11.36 L118.309539,6.976 C118.309539,5.67466016 117.722878,5.024 116.549539,5.024 C116.016203,5.024 115.538874,5.16266528 115.117539,5.44 C114.696203,5.71733472 114.298874,6.09066432 113.925539,6.56 L113.925539,11.36 C113.925539,11.5626677 113.85354,11.7333326 113.709539,11.872 C113.565538,12.0106674 113.392206,12.08 113.189539,12.08 Z M125.551385,12.16 C123.994044,12.16 123.215385,11.456007 123.215385,10.048 L123.215385,5.088 L122.079385,5.088 C121.994051,5.088 121.922052,5.05866696 121.863385,5 C121.804718,4.94133304 121.775385,4.86933376 121.775385,4.784 C121.775385,4.6773328 121.823385,4.58666704 121.919385,4.512 L124.095385,2.384 C124.191386,2.28799952 124.282051,2.24 124.367385,2.24 C124.452719,2.24 124.524718,2.27199968 124.583385,2.336 C124.642052,2.40000032 124.671385,2.47466624 124.671385,2.56 L124.671385,3.84 L126.479385,3.84 C126.660719,3.84 126.810051,3.89866608 126.927385,4.016 C127.044719,4.13333392 127.103385,4.28266576 127.103385,4.464 C127.103385,4.63466752 127.044719,4.78133272 126.927385,4.904 C126.810051,5.02666728 126.660719,5.088 126.479385,5.088 L124.671385,5.088 L124.671385,9.92 C124.671385,10.3360021 124.770051,10.5999994 124.967385,10.712 C125.164719,10.8240006 125.412717,10.88 125.711385,10.88 C125.871386,10.88 126.031385,10.8620002 126.191385,10.8260001 L126.351385,10.784 C126.394052,10.7733333 126.439385,10.7626667 126.487385,10.752 C126.535385,10.7413333 126.596718,10.736 126.671385,10.736 C126.820719,10.736 126.954051,10.7919994 127.071385,10.904 C127.188719,11.0160006 127.247385,11.1519992 127.247385,11.312 C127.247385,11.5573346 127.12472,11.7439994 126.879385,11.872 C126.463383,12.064001 126.020721,12.16 125.551385,12.16 Z M138.211078,12.16 C137.443074,12.16 136.733747,11.989335 136.083078,11.648 C135.432408,11.306665 134.912413,10.8160032 134.523078,10.176 C134.133742,9.5359968 133.939078,8.78400432 133.939078,7.92 C133.939078,7.05599568 134.133742,6.3040032 134.523078,5.664 C134.912413,5.0239968 135.432408,4.53333504 136.083078,4.192 C136.733747,3.85066496 137.443074,3.68 138.211078,3.68 C138.776414,3.68 139.264409,3.75199928 139.675078,3.896 C140.085746,4.04000072 140.467076,4.22399888 140.819078,4.448 C141.032412,4.58666736 141.139078,4.77333216 141.139078,5.008 C141.139078,5.1680008 141.077745,5.314666 140.955078,5.448 C140.83241,5.581334 140.691078,5.648 140.531078,5.648 C140.443077,5.648 140.355078,5.63000018 140.267078,5.59400014 L140.179078,5.552 C139.827076,5.37066576 139.525745,5.2400004 139.275078,5.16 C139.02441,5.0799996 138.712413,5.04 138.339078,5.04 C137.42174,5.04 136.701747,5.30399736 136.179078,5.832 C135.656408,6.36000264 135.395078,7.05599568 135.395078,7.92 C135.395078,8.78400432 135.656408,9.47999736 136.179078,10.008 C136.701747,10.5360026 137.42174,10.8 138.339078,10.8 C138.712413,10.8 139.02441,10.7600004 139.275078,10.68 C139.475612,10.6159997 139.70857,10.5195738 139.973957,10.3907203 L140.179078,10.288 C140.296411,10.2239997 140.413744,10.192 140.531078,10.192 C140.691078,10.192 140.83241,10.258666 140.955078,10.392 C141.077745,10.525334 141.139078,10.6719992 141.139078,10.832 C141.139078,11.0666678 141.032412,11.2533326 140.819078,11.392 C140.467076,11.6160011 140.085746,11.7999993 139.675078,11.944 C139.264409,12.0880007 138.776414,12.16 138.211078,12.16 Z M144.396924,12.08 C144.194256,12.08 144.023591,12.0106674 143.884924,11.872 C143.746256,11.7333326 143.676924,11.5626677 143.676924,11.36 L143.676924,0.976 C143.676924,0.77333232 143.746256,0.60000072 143.884924,0.456 C144.023591,0.31199928 144.194256,0.24 144.396924,0.24 C144.599592,0.24 144.772923,0.31199928 144.916924,0.456 C145.060925,0.60000072 145.132924,0.77333232 145.132924,0.976 L145.132924,5.152 C145.538259,4.70399776 145.975588,4.346668 146.444924,4.08 C146.91426,3.813332 147.468921,3.68 148.108924,3.68 C148.695593,3.68 149.204922,3.81866528 149.636924,4.096 C150.068926,4.37333472 150.399589,4.7519976 150.628924,5.232 C150.858258,5.7120024 150.972924,6.24 150.972924,6.816 L150.972924,11.36 C150.972924,11.5626677 150.900925,11.7333326 150.756924,11.872 C150.612923,12.0106674 150.439592,12.08 150.236924,12.08 C150.034256,12.08 149.863591,12.0106674 149.724924,11.872 C149.586256,11.7333326 149.516924,11.5626677 149.516924,11.36 L149.516924,6.976 C149.516924,5.67466016 148.930263,5.024 147.756924,5.024 C147.223588,5.024 146.746259,5.16266528 146.324924,5.44 C145.903588,5.71733472 145.506259,6.09066432 145.132924,6.56 L145.132924,11.36 C145.132924,11.5626677 145.060925,11.7333326 144.916924,11.872 C144.772923,12.0106674 144.599592,12.08 144.396924,12.08 Z M156.21477,12.16 C155.745434,12.16 155.310772,12.064001 154.91077,11.872 C154.510768,11.68 154.193438,11.4000018 153.95877,11.032 C153.724102,10.6639982 153.60677,10.2400024 153.60677,9.76 C153.60677,8.97066272 153.918767,8.34133568 154.54277,7.872 C155.166773,7.40266432 156.081431,7.168 157.28677,7.168 L159.22277,7.168 L159.22277,7.04 C159.22277,6.33599648 159.049438,5.82933488 158.70277,5.52 C158.356102,5.21066512 157.814774,5.056 157.07877,5.056 C156.673435,5.056 156.313438,5.08799968 155.99877,5.152 C155.684102,5.21600032 155.334772,5.31199936 154.95077,5.44 C154.865436,5.46133344 154.796104,5.472 154.74277,5.472 C154.582769,5.472 154.444104,5.41333392 154.32677,5.296 C154.209436,5.17866608 154.15077,5.03466752 154.15077,4.864 C154.15077,4.57599856 154.289435,4.37333392 154.56677,4.256 C155.473441,3.87199808 156.396099,3.68 157.33477,3.68 C158.070774,3.68 158.692101,3.82933184 159.19877,4.128 C159.705439,4.42666816 160.078769,4.81333096 160.31877,5.288 C160.558771,5.76266904 160.67877,6.27733056 160.67877,6.832 L160.67877,11.36 C160.67877,11.5626677 160.60677,11.7333326 160.46277,11.872 C160.318769,12.0106674 160.145438,12.08 159.94277,12.08 C159.740102,12.08 159.569437,12.0106674 159.43077,11.872 C159.292103,11.7333326 159.22277,11.5626677 159.22277,11.36 L159.22277,10.944 C158.433433,11.7546707 157.430776,12.16 156.21477,12.16 Z M156.75877,10.88 C157.228106,10.88 157.681435,10.7653345 158.11877,10.536 C158.556106,10.3066655 158.924102,10.021335 159.22277,9.68 L159.22277,8.336 L157.47877,8.336 C155.868095,8.336 155.06277,8.75732912 155.06277,9.6 C155.06277,9.98400192 155.193435,10.2933322 155.45477,10.528 C155.716105,10.7626678 156.150767,10.88 156.75877,10.88 Z M164.528616,2.176 C164.304615,2.176 164.112617,2.0960008 163.952616,1.936 C163.792616,1.7759992 163.712616,1.58400112 163.712616,1.36 L163.712616,1.296 C163.712616,1.07199888 163.792616,0.8800008 163.952616,0.72 C164.112617,0.5599992 164.304615,0.48 164.528616,0.48 L164.624616,0.48 C164.848617,0.48 165.040616,0.5599992 165.200616,0.72 C165.360617,0.8800008 165.440616,1.07199888 165.440616,1.296 L165.440616,1.36 C165.440616,1.58400112 165.360617,1.7759992 165.200616,1.936 C165.040616,2.0960008 164.848617,2.176 164.624616,2.176 L164.528616,2.176 Z M164.560616,12.08 C164.357949,12.08 164.187284,12.0106674 164.048616,11.872 C163.909949,11.7333326 163.840616,11.5626677 163.840616,11.36 L163.840616,4.496 C163.840616,4.29333232 163.909949,4.12000072 164.048616,3.976 C164.187284,3.83199928 164.357949,3.76 164.560616,3.76 C164.773951,3.76 164.949949,3.82933264 165.088616,3.968 C165.227284,4.10666736 165.296616,4.2826656 165.296616,4.496 L165.296616,11.36 C165.296616,11.5626677 165.224617,11.7333326 165.080616,11.872 C164.936616,12.0106674 164.763284,12.08 164.560616,12.08 Z M169.258463,12.08 C169.055795,12.08 168.88513,12.0106674 168.746463,11.872 C168.607795,11.7333326 168.538463,11.5626677 168.538463,11.36 L168.538463,4.496 C168.538463,4.29333232 168.607795,4.12000072 168.746463,3.976 C168.88513,3.83199928 169.055795,3.76 169.258463,3.76 C169.46113,3.76 169.634462,3.83199928 169.778463,3.976 C169.922463,4.12000072 169.994463,4.29333232 169.994463,4.496 L169.994463,5.152 C170.399798,4.70399776 170.837127,4.346668 171.306463,4.08 C171.775798,3.813332 172.330459,3.68 172.970463,3.68 C173.557132,3.68 174.06646,3.81866528 174.498463,4.096 C174.930465,4.37333472 175.261128,4.7519976 175.490463,5.232 C175.719797,5.7120024 175.834463,6.23999712 175.834463,6.816 L175.834463,11.36 C175.834463,11.5626677 175.762463,11.7333326 175.618463,11.872 C175.474462,12.0106674 175.30113,12.08 175.098463,12.08 C174.895795,12.08 174.72513,12.0106674 174.586463,11.872 C174.447795,11.7333326 174.378463,11.5626677 174.378463,11.36 L174.378463,6.976 C174.378463,5.67466016 173.791802,5.024 172.618463,5.024 C172.085127,5.024 171.607798,5.16266528 171.186463,5.44 C170.765127,5.71733472 170.367798,6.09066432 169.994463,6.56 L169.994463,11.36 C169.994463,11.5626677 169.922463,11.7333326 169.778463,11.872 C169.634462,12.0106674 169.46113,12.08 169.258463,12.08 Z M185.950155,12.16 C185.480819,12.16 185.046157,12.064001 184.646155,11.872 C184.246153,11.68 183.928823,11.4000018 183.694155,11.032 C183.459487,10.6639982 183.342155,10.2400024 183.342155,9.76 C183.342155,8.97066272 183.654152,8.34133568 184.278155,7.872 C184.902158,7.40266432 185.816816,7.168 187.022155,7.168 L188.958155,7.168 L188.958155,7.04 C188.958155,6.33599648 188.784824,5.82933488 188.438155,5.52 C188.091487,5.21066512 187.550159,5.056 186.814155,5.056 C186.40882,5.056 186.048823,5.08799968 185.734155,5.152 C185.419487,5.21600032 185.070157,5.31199936 184.686155,5.44 C184.600821,5.46133344 184.531489,5.472 184.478155,5.472 C184.318154,5.472 184.179489,5.41333392 184.062155,5.296 C183.944821,5.17866608 183.886155,5.03466752 183.886155,4.864 C183.886155,4.57599856 184.02482,4.37333392 184.302155,4.256 C185.208826,3.87199808 186.131484,3.68 187.070155,3.68 C187.806159,3.68 188.427486,3.82933184 188.934155,4.128 C189.440824,4.42666816 189.814154,4.81333096 190.054155,5.288 C190.294156,5.76266904 190.414155,6.27733056 190.414155,6.832 L190.414155,11.36 C190.414155,11.5626677 190.342155,11.7333326 190.198155,11.872 C190.054154,12.0106674 189.880823,12.08 189.678155,12.08 C189.475487,12.08 189.304822,12.0106674 189.166155,11.872 C189.027488,11.7333326 188.958155,11.5626677 188.958155,11.36 L188.958155,10.944 C188.168818,11.7546707 187.166161,12.16 185.950155,12.16 Z M186.494155,10.88 C186.963491,10.88 187.41682,10.7653345 187.854155,10.536 C188.291491,10.3066655 188.659487,10.021335 188.958155,9.68 L188.958155,8.336 L187.214155,8.336 C185.60348,8.336 184.798155,8.75732912 184.798155,9.6 C184.798155,9.98400192 184.92882,10.2933322 185.190155,10.528 C185.45149,10.7626678 185.886152,10.88 186.494155,10.88 Z M197.384001,15.84 C196.765332,15.84 196.141338,15.7600008 195.512001,15.6 C194.882665,15.4399992 194.365337,15.2426678 193.960001,15.008 C193.768,14.8906661 193.672001,14.7040013 193.672001,14.448 C193.672001,14.2773325 193.733334,14.125334 193.856001,13.992 C193.978669,13.858666 194.130667,13.792 194.312001,13.792 C194.397335,13.792 194.493334,13.8133331 194.600001,13.856 C195.410672,14.2613354 196.290663,14.464 197.240001,14.464 C198.87201,14.464 199.688001,13.5946754 199.688001,11.856 L199.688001,10.784 C198.930664,11.5946707 198.018673,12 196.952001,12 C196.322665,12 195.712004,11.8426682 195.120001,11.528 C194.527998,11.2133318 194.040003,10.7440031 193.656001,10.12 C193.271999,9.49599688 193.080001,8.73600448 193.080001,7.84 C193.080001,6.94399552 193.271999,6.18400312 193.656001,5.56 C194.040003,4.93599688 194.527998,4.46666824 195.120001,4.152 C195.712004,3.83733176 196.322665,3.68 196.952001,3.68 C198.018673,3.68 198.930664,4.08532928 199.688001,4.896 L199.688001,4.496 C199.688001,4.29333232 199.757334,4.12000072 199.896001,3.976 C200.034669,3.83199928 200.205334,3.76 200.408001,3.76 C200.610669,3.76 200.784001,3.83199928 200.928001,3.976 C201.072002,4.12000072 201.144001,4.29333232 201.144001,4.496 L201.144001,11.648 C201.144001,12.9920067 200.818671,14.026663 200.168001,14.752 C199.517331,15.477337 198.589341,15.84 197.384001,15.84 Z M197.256001,10.672 C197.757337,10.672 198.199999,10.5653344 198.584001,10.352 C198.968003,10.1386656 199.336,9.85066848 199.688001,9.488 L199.688001,6.192 C199.336,5.82933152 198.968003,5.5413344 198.584001,5.328 C198.199999,5.1146656 197.757337,5.008 197.256001,5.008 C196.455997,5.008 195.802671,5.25066424 195.296001,5.736 C194.789332,6.22133576 194.536001,6.92266208 194.536001,7.84 C194.536001,8.75733792 194.789332,9.45866424 195.296001,9.944 C195.802671,10.4293358 196.455997,10.672 197.256001,10.672 Z M206.465848,12.16 C205.996512,12.16 205.56185,12.064001 205.161848,11.872 C204.761846,11.68 204.444515,11.4000018 204.209848,11.032 C203.97518,10.6639982 203.857848,10.2400024 203.857848,9.76 C203.857848,8.97066272 204.169845,8.34133568 204.793848,7.872 C205.417851,7.40266432 206.332508,7.168 207.537848,7.168 L209.473848,7.168 L209.473848,7.04 C209.473848,6.33599648 209.300516,5.82933488 208.953848,5.52 C208.607179,5.21066512 208.065851,5.056 207.329848,5.056 C206.924512,5.056 206.564516,5.08799968 206.249848,5.152 C205.935179,5.21600032 205.58585,5.31199936 205.201848,5.44 C205.116514,5.46133344 205.047181,5.472 204.993848,5.472 C204.833847,5.472 204.695182,5.41333392 204.577848,5.296 C204.460514,5.17866608 204.401848,5.03466752 204.401848,4.864 C204.401848,4.57599856 204.540513,4.37333392 204.817848,4.256 C205.724519,3.87199808 206.647176,3.68 207.585848,3.68 C208.321851,3.68 208.943178,3.82933184 209.449848,4.128 C209.956517,4.42666816 210.329846,4.81333096 210.569848,5.288 C210.809849,5.76266904 210.929848,6.27733056 210.929848,6.832 L210.929848,11.36 C210.929848,11.5626677 210.857848,11.7333326 210.713848,11.872 C210.569847,12.0106674 210.396515,12.08 210.193848,12.08 C209.99118,12.08 209.820515,12.0106674 209.681848,11.872 C209.54318,11.7333326 209.473848,11.5626677 209.473848,11.36 L209.473848,10.944 C208.68451,11.7546707 207.681854,12.16 206.465848,12.16 Z M207.009848,10.88 C207.479183,10.88 207.932512,10.7653345 208.369848,10.536 C208.807183,10.3066655 209.175179,10.021335 209.473848,9.68 L209.473848,8.336 L207.729848,8.336 C206.119173,8.336 205.313848,8.75732912 205.313848,9.6 C205.313848,9.98400192 205.444513,10.2933322 205.705848,10.528 C205.967182,10.7626678 206.401845,10.88 207.009848,10.88 Z M214.779694,2.176 C214.555693,2.176 214.363695,2.0960008 214.203694,1.936 C214.043693,1.7759992 213.963694,1.58400112 213.963694,1.36 L213.963694,1.296 C213.963694,1.07199888 214.043693,0.8800008 214.203694,0.72 C214.363695,0.5599992 214.555693,0.48 214.779694,0.48 L214.875694,0.48 C215.099695,0.48 215.291693,0.5599992 215.451694,0.72 C215.611695,0.8800008 215.691694,1.07199888 215.691694,1.296 L215.691694,1.36 C215.691694,1.58400112 215.611695,1.7759992 215.451694,1.936 C215.291693,2.0960008 215.099695,2.176 214.875694,2.176 L214.779694,2.176 Z M214.811694,12.08 C214.609026,12.08 214.438361,12.0106674 214.299694,11.872 C214.161027,11.7333326 214.091694,11.5626677 214.091694,11.36 L214.091694,4.496 C214.091694,4.29333232 214.161027,4.12000072 214.299694,3.976 C214.438361,3.83199928 214.609026,3.76 214.811694,3.76 C215.025028,3.76 215.201027,3.82933264 215.339694,3.968 C215.478361,4.10666736 215.547694,4.2826656 215.547694,4.496 L215.547694,11.36 C215.547694,11.5626677 215.475695,11.7333326 215.331694,11.872 C215.187693,12.0106674 215.014362,12.08 214.811694,12.08 Z M219.50954,12.08 C219.306872,12.08 219.136208,12.0106674 218.99754,11.872 C218.858873,11.7333326 218.78954,11.5626677 218.78954,11.36 L218.78954,4.496 C218.78954,4.29333232 218.858873,4.12000072 218.99754,3.976 C219.136208,3.83199928 219.306872,3.76 219.50954,3.76 C219.712208,3.76 219.885539,3.83199928 220.02954,3.976 C220.173541,4.12000072 220.24554,4.29333232 220.24554,4.496 L220.24554,5.152 C220.650876,4.70399776 221.088204,4.346668 221.55754,4.08 C222.026876,3.813332 222.581537,3.68 223.22154,3.68 C223.80821,3.68 224.317538,3.81866528 224.74954,4.096 C225.181542,4.37333472 225.512206,4.7519976 225.74154,5.232 C225.970875,5.7120024 226.08554,6.23999712 226.08554,6.816 L226.08554,11.36 C226.08554,11.5626677 226.013541,11.7333326 225.86954,11.872 C225.725539,12.0106674 225.552208,12.08 225.34954,12.08 C225.146872,12.08 224.976208,12.0106674 224.83754,11.872 C224.698873,11.7333326 224.62954,11.5626677 224.62954,11.36 L224.62954,6.976 C224.62954,5.67466016 224.042879,5.024 222.86954,5.024 C222.336204,5.024 221.858876,5.16266528 221.43754,5.44 C221.016205,5.71733472 220.618875,6.09066432 220.24554,6.56 L220.24554,11.36 C220.24554,11.5626677 220.173541,11.7333326 220.02954,11.872 C219.885539,12.0106674 219.712208,12.08 219.50954,12.08 Z M231.887386,12.16 C230.820714,12.16 229.850057,11.9200024 228.975386,11.44 C228.794052,11.3119994 228.703386,11.1360011 228.703386,10.912 C228.703386,10.7413325 228.762053,10.5920006 228.879386,10.464 C228.99672,10.3359994 229.146052,10.272 229.327386,10.272 C229.423387,10.272 229.519386,10.2933331 229.615386,10.336 C229.956721,10.4853341 230.298051,10.6026662 230.639386,10.688 C230.980721,10.7733338 231.364718,10.816 231.791386,10.816 C232.975392,10.816 233.567386,10.4373371 233.567386,9.68 C233.567386,9.43466544 233.431388,9.24800064 233.159386,9.12 C232.887385,8.99199936 232.442056,8.8480008 231.823386,8.688 C231.19405,8.53866592 230.674055,8.3840008 230.263386,8.224 C229.852718,8.0639992 229.500721,7.82133496 229.207386,7.496 C228.914052,7.17066504 228.767386,6.741336 228.767386,6.208 C228.767386,5.4613296 229.036717,4.85333568 229.575386,4.384 C230.114056,3.91466432 230.884715,3.68 231.887386,3.68 C232.708724,3.68 233.482049,3.813332 234.207386,4.08 C234.356721,4.12266688 234.471386,4.20266608 234.551386,4.32 C234.631387,4.43733392 234.671386,4.55999936 234.671386,4.688 C234.671386,4.85866752 234.610054,5.00799936 234.487386,5.136 C234.364719,5.26400064 234.212721,5.328 234.031386,5.328 C233.978053,5.328 233.90872,5.31733344 233.823386,5.296 C233.204717,5.10399904 232.596723,5.008 231.999386,5.008 C231.423384,5.008 230.972721,5.11199896 230.647386,5.32 C230.322051,5.52800104 230.159386,5.79733168 230.159386,6.128 C230.159386,6.4480016 230.308718,6.68266592 230.607386,6.832 C230.906055,6.98133408 231.37005,7.12533264 231.999386,7.264 C232.628723,7.4240008 233.140718,7.58133256 233.535386,7.736 C233.930055,7.89066744 234.268718,8.13333168 234.551386,8.464 C234.834055,8.79466832 234.975386,9.23733056 234.975386,9.792 C234.975386,10.4746701 234.706056,11.0399978 234.167386,11.488 C233.628717,11.9360022 232.868725,12.16 231.887386,12.16 Z M240.393233,12.16 C238.835892,12.16 238.057233,11.456007 238.057233,10.048 L238.057233,5.088 L236.921233,5.088 C236.835899,5.088 236.7639,5.05866696 236.705233,5 C236.646566,4.94133304 236.617233,4.86933376 236.617233,4.784 C236.617233,4.6773328 236.665232,4.58666704 236.761233,4.512 L238.937233,2.384 C239.033233,2.28799952 239.123899,2.24 239.209233,2.24 C239.294566,2.24 239.366566,2.27199968 239.425233,2.336 C239.4839,2.40000032 239.513233,2.47466624 239.513233,2.56 L239.513233,3.84 L241.321233,3.84 C241.502567,3.84 241.651899,3.89866608 241.769233,4.016 C241.886567,4.13333392 241.945233,4.28266576 241.945233,4.464 C241.945233,4.63466752 241.886567,4.78133272 241.769233,4.904 C241.651899,5.02666728 241.502567,5.088 241.321233,5.088 L239.513233,5.088 L239.513233,9.92 C239.513233,10.3360021 239.611898,10.5999994 239.809233,10.712 C240.006567,10.8240006 240.254565,10.88 240.553233,10.88 C240.713233,10.88 240.873232,10.8620002 241.033232,10.8260001 L241.193233,10.784 C241.2359,10.7733333 241.281232,10.7626667 241.329233,10.752 C241.377233,10.7413333 241.438566,10.736 241.513233,10.736 C241.662567,10.736 241.795899,10.7919994 241.913233,10.904 C242.030567,11.0160006 242.089233,11.1519992 242.089233,11.312 C242.089233,11.5573346 241.966567,11.7439994 241.721233,11.872 C241.305231,12.064001 240.862568,12.16 240.393233,12.16 Z M254.492925,12.16 C253.426253,12.16 252.468929,11.9280023 251.620925,11.464 C250.772921,10.9999977 250.106261,10.3333377 249.620925,9.464 C249.135589,8.59466232 248.892925,7.57867248 248.892925,6.416 C248.892925,5.25332752 249.135589,4.23733768 249.620925,3.368 C250.106261,2.49866232 250.772921,1.83200232 251.620925,1.368 C252.468929,0.90399768 253.426253,0.672 254.492925,0.672 C255.218262,0.672 255.866256,0.75733248 256.436925,0.928 C257.007595,1.09866752 257.575589,1.3439984 258.140925,1.664 C258.375593,1.79200064 258.492925,1.99466528 258.492925,2.272 C258.492925,2.4320008 258.434259,2.57333272 258.316925,2.696 C258.199591,2.81866728 258.044926,2.88 257.852925,2.88 C257.746258,2.88 257.650259,2.85866688 257.564925,2.816 C257.09559,2.57066544 256.636927,2.38400064 256.188925,2.256 C255.740923,2.12799936 255.223595,2.064 254.636925,2.064 C253.719587,2.064 252.938262,2.25333144 252.292925,2.632 C251.647589,3.01066856 251.16226,3.52799672 250.836925,4.184 C250.51159,4.84000328 250.348925,5.58399584 250.348925,6.416 C250.348925,7.24800416 250.51159,7.99199672 250.836925,8.648 C251.16226,9.30400328 251.647589,9.82133144 252.292925,10.2 C252.938262,10.5786686 253.719587,10.768 254.636925,10.768 C255.223595,10.768 255.740923,10.7040006 256.188925,10.576 C256.636927,10.4479994 257.09559,10.2613346 257.564925,10.016 C257.650259,9.97333312 257.746258,9.952 257.852925,9.952 C258.044926,9.952 258.199591,10.0106661 258.316925,10.128 C258.434259,10.2453339 258.492925,10.3893325 258.492925,10.56 C258.492925,10.8373347 258.375593,11.0399994 258.140925,11.168 C257.575589,11.4880016 257.007595,11.7333325 256.436925,11.904 C255.866256,12.0746675 255.218262,12.16 254.492925,12.16 Z M262.118771,12 C261.916104,12 261.745439,11.9306674 261.606771,11.792 C261.468104,11.6533326 261.398771,11.4826677 261.398771,11.28 L261.398771,1.568 C261.398771,1.36533232 261.468104,1.19200072 261.606771,1.048 C261.745439,0.90399928 261.916104,0.832 262.118771,0.832 L265.334771,0.832 C266.550778,0.832 267.582767,1.10133064 268.430771,1.64 C269.278776,2.17866936 269.916103,2.8746624 270.342771,3.728 C270.76944,4.5813376 270.982771,5.47732864 270.982771,6.416 C270.982771,7.35467136 270.76944,8.2506624 270.342771,9.104 C269.916103,9.9573376 269.278776,10.6533306 268.430771,11.192 C267.582767,11.7306694 266.550778,12 265.334771,12 L262.118771,12 Z M265.158771,10.64 C266.033443,10.64 266.801435,10.4613351 267.462771,10.104 C268.124108,9.74666488 268.636103,9.25066984 268.998771,8.616 C269.36144,7.98133016 269.542771,7.24800416 269.542771,6.416 C269.542771,5.58399584 269.36144,4.85066984 268.998771,4.216 C268.636103,3.58133016 268.124108,3.08533512 267.462771,2.728 C266.801435,2.37066488 266.033443,2.192 265.158771,2.192 L262.854771,2.192 L262.854771,10.64 L265.158771,10.64 Z M277.280618,12.16 C276.096612,12.16 274.981956,11.9466688 273.936618,11.52 C273.808617,11.4666664 273.707285,11.3893338 273.632618,11.288 C273.557951,11.1866662 273.520618,11.0613341 273.520618,10.912 C273.520618,10.7306658 273.58195,10.573334 273.704618,10.44 C273.827285,10.306666 273.979283,10.24 274.160618,10.24 C274.256618,10.24 274.357951,10.2613331 274.464618,10.304 C275.232622,10.6133349 276.080613,10.768 277.008618,10.768 C277.840622,10.768 278.541948,10.6320014 279.112618,10.36 C279.683287,10.0879986 279.968618,9.6320032 279.968618,8.992 C279.968618,7.69599352 278.872649,7.02485668 276.68068,6.9785714 L276.176618,6.976 C275.995283,6.976 275.837952,6.909334 275.704618,6.776 C275.571284,6.642666 275.504618,6.48533424 275.504618,6.304 C275.504618,6.12266576 275.571284,5.965334 275.704618,5.832 C275.837952,5.698666 275.995283,5.632 276.176618,5.632 L276.272618,5.632 C277.33929,5.632 278.155282,5.46933496 278.720618,5.144 C279.285954,4.81866504 279.568618,4.3360032 279.568618,3.696 C279.568618,3.18399744 279.355287,2.77866816 278.928618,2.48 C278.501949,2.18133184 277.872622,2.032 277.040618,2.032 C276.144613,2.032 275.317955,2.20799824 274.560618,2.56 C274.453951,2.60266688 274.357951,2.624 274.272618,2.624 C274.112617,2.624 273.973952,2.56800056 273.856618,2.456 C273.739284,2.34399944 273.680618,2.20266752 273.680618,2.032 C273.680618,1.78666544 273.787283,1.60533392 274.000618,1.488 C275.024623,0.94399728 276.080612,0.672 277.168618,0.672 C278.395291,0.672 279.344614,0.92266416 280.016618,1.424 C280.688621,1.92533584 281.024618,2.63466208 281.024618,3.552 C281.024618,4.28800368 280.84062,4.86666456 280.472618,5.288 C280.104616,5.70933544 279.643287,6.02133232 279.088618,6.224 C279.696621,6.36266736 280.237949,6.65333112 280.712618,7.096 C281.187287,7.53866888 281.424618,8.19732896 281.424618,9.072 C281.424618,10.0533382 281.037955,10.8133306 280.264618,11.352 C279.491281,11.8906694 278.496624,12.16 277.280618,12.16 Z" id="lightchainagainstCD3" fill="#4F4C4C" fill-rule="nonzero"></path>
            </g>
        </g>
    </g>
</svg>