<?xml version="1.0" encoding="UTF-8"?>
<svg width="385px" height="271px" viewBox="0 0 385 271" version="1.1" xmlns="http://www.w3.org/2000/svg" xmlns:xlink="http://www.w3.org/1999/xlink">
    <!-- Generator: Sketch 58 (84663) - https://sketch.com -->
    <title>Group 5</title>
    <desc>Created with Sketch.</desc>
    <defs>
        <linearGradient x1="0%" y1="11.71875%" x2="121.685048%" y2="100.8597%" id="linearGradient-1">
            <stop stop-color="#1C4F74" offset="0%"></stop>
            <stop stop-color="#143958" offset="100%"></stop>
        </linearGradient>
        <linearGradient x1="0%" y1="42.7107438%" x2="121.685048%" y2="59.6843595%" id="linearGradient-2">
            <stop stop-color="#FFCC23" offset="0%"></stop>
            <stop stop-color="#E3209C" offset="94.1067558%"></stop>
            <stop stop-color="#E115A3" offset="100%"></stop>
        </linearGradient>
        <linearGradient x1="106.481982%" y1="51.4443689%" x2="-7.35198796%" y2="48.8608046%" id="linearGradient-3">
            <stop stop-color="#1D5279" offset="0%"></stop>
            <stop stop-color="#0F2B45" offset="100%"></stop>
        </linearGradient>
        <linearGradient x1="-7.13212993%" y1="51.5056595%" x2="106.262124%" y2="48.8113643%" id="linearGradient-4">
            <stop stop-color="#1D5279" offset="0%"></stop>
            <stop stop-color="#0F2B45" offset="100%"></stop>
        </linearGradient>
        <linearGradient x1="-7.13212993%" y1="51.486396%" x2="106.262124%" y2="48.8265718%" id="linearGradient-5">
            <stop stop-color="#1D5279" offset="0%"></stop>
            <stop stop-color="#0F2B45" offset="100%"></stop>
        </linearGradient>
        <linearGradient x1="49.8821755%" y1="0%" x2="50.1225375%" y2="100.999999%" id="linearGradient-6">
            <stop stop-color="#000000" offset="0%"></stop>
            <stop stop-color="#FFFFFF" offset="100%"></stop>
        </linearGradient>
        <rect id="path-7" x="336" y="37" width="5" height="103"></rect>
        <linearGradient x1="49.9086858%" y1="0%" x2="50.0949668%" y2="100.999999%" id="linearGradient-8">
            <stop stop-color="#000000" offset="0%"></stop>
            <stop stop-color="#FFFFFF" offset="100%"></stop>
        </linearGradient>
        <rect id="path-9" x="336" y="157" width="5" height="117"></rect>
        <rect id="path-10" x="336" y="37" width="5" height="103"></rect>
        <linearGradient x1="49.1493384%" y1="0%" x2="50.8846881%" y2="100.999999%" id="linearGradient-11">
            <stop stop-color="#000000" offset="0%"></stop>
            <stop stop-color="#FFFFFF" offset="100%"></stop>
        </linearGradient>
        <rect id="path-12" x="41" y="68" width="6" height="46"></rect>
        <linearGradient x1="50%" y1="7.97189478%" x2="50%" y2="96.9288378%" id="linearGradient-13">
            <stop stop-color="#1D5178" offset="0%"></stop>
            <stop stop-color="#1C5177" offset="100%"></stop>
        </linearGradient>
        <linearGradient x1="2.44820263%" y1="2.42420066%" x2="123.107123%" y2="83.7301721%" id="linearGradient-14">
            <stop stop-color="#1A4D72" offset="0%"></stop>
            <stop stop-color="#102F4A" offset="100%"></stop>
        </linearGradient>
        <linearGradient x1="2.44820263%" y1="40.5016658%" x2="123.107123%" y2="56.7341054%" id="linearGradient-15">
            <stop stop-color="#1B4E74" offset="0%"></stop>
            <stop stop-color="#102E49" offset="100%"></stop>
        </linearGradient>
        <linearGradient x1="100%" y1="50%" x2="0%" y2="50%" id="linearGradient-16">
            <stop stop-color="#1D5279" offset="0%"></stop>
            <stop stop-color="#0F2B45" offset="100%"></stop>
        </linearGradient>
        <linearGradient x1="106.481982%" y1="51.5004557%" x2="-7.35198796%" y2="48.816568%" id="linearGradient-17">
            <stop stop-color="#1D5279" offset="0%"></stop>
            <stop stop-color="#0F2B45" offset="100%"></stop>
        </linearGradient>
        <linearGradient x1="106.481982%" y1="51.4686058%" x2="-7.35198796%" y2="48.8416885%" id="linearGradient-18">
            <stop stop-color="#1D5279" offset="0%"></stop>
            <stop stop-color="#0F2B45" offset="100%"></stop>
        </linearGradient>
        <linearGradient x1="100%" y1="50%" x2="0%" y2="50%" id="linearGradient-19">
            <stop stop-color="#1D5279" offset="0%"></stop>
            <stop stop-color="#0F2B45" offset="100%"></stop>
        </linearGradient>
        <linearGradient x1="100%" y1="50%" x2="0%" y2="50%" id="linearGradient-20">
            <stop stop-color="#1D5279" offset="0%"></stop>
            <stop stop-color="#0F2B45" offset="100%"></stop>
        </linearGradient>
    </defs>
    <g id="Parts" stroke="none" stroke-width="1" fill="none" fill-rule="evenodd">
        <g id="Antibody-description" transform="translate(-510.000000, -299.000000)">
            <g id="Group-5" transform="translate(510.000000, 296.000000)">
                <g id="Group-2" transform="translate(255.407377, 86.214989) rotate(-45.000000) translate(-255.407377, -86.214989) translate(190.407377, 71.714989)" fill-rule="nonzero">
                    <polygon id="Triangle" stroke="url(#linearGradient-1)" stroke-width="6" opacity="0.2" transform="translate(114.174891, 14.278383) rotate(20.000000) translate(-114.174891, -14.278383) " points="114.174891 3.77838259 126.174891 24.7783826 102.174891 24.7783826"></polygon>
                    <path d="M91.9383684,18.3073684 L87.3412785,22.1966101 L98.6463684,26.3073684 L52.3073684,26.3073684 L52.3073684,18.3073684 L91.9383684,18.3073684 Z M107.307368,5.30736835 L97.8493684,13.3073684 L52.3073684,13.3073684 L52.3073684,5.30736835 L107.307368,5.30736835 Z" id="Combined-Shape" fill="url(#linearGradient-2)"></path>
                    <rect id="Rectangle" fill="url(#linearGradient-3)" x="0.307368355" y="5.30736835" width="53" height="8"></rect>
                    <rect id="Rectangle" fill="url(#linearGradient-4)" x="0.688816818" y="18.3088168" width="52" height="8"></rect>
                    <polygon id="Rectangle" fill="url(#linearGradient-5)" points="55.7145632 5.21456319 107.364086 5.36408578 97.9361102 13.4776097 53.3073684 13.3073684"></polygon>
                </g>
                <g id="Rectangle" fill-rule="nonzero">
                    <use fill="#D8D8D8" xlink:href="#path-7"></use>
                    <use fill-opacity="0.5" fill="url(#linearGradient-6)" style="mix-blend-mode: soft-light;" xlink:href="#path-7"></use>
                </g>
                <g id="Rectangle" fill-rule="nonzero">
                    <use fill="#D8D8D8" xlink:href="#path-9"></use>
                    <use fill-opacity="0.5" fill="url(#linearGradient-8)" style="mix-blend-mode: soft-light;" xlink:href="#path-9"></use>
                </g>
                <path d="M352.896739,95.8993289 C352.644322,95.8993289 352.431764,95.8120814 352.259058,95.6375839 C352.086352,95.4630864 352,95.2483234 352,94.9932886 L352,82.6711409 C352,82.4161061 352.086352,82.1979875 352.259058,82.0167785 C352.431764,81.8355696 352.644322,81.7449664 352.896739,81.7449664 L360.648551,81.7449664 C360.887682,81.7449664 361.090277,81.8288582 361.256341,81.9966443 C361.422404,82.1644304 361.505435,82.3691263 361.505435,82.6107383 C361.505435,82.8523502 361.422404,83.0536905 361.256341,83.2147651 C361.090277,83.3758397 360.887682,83.4563758 360.648551,83.4563758 L353.813406,83.4563758 L353.813406,87.9060403 L359.951087,87.9060403 C360.190219,87.9060403 360.392813,87.989932 360.558877,88.1577181 C360.72494,88.3255042 360.807971,88.5302001 360.807971,88.7718121 C360.807971,89.013424 360.72494,89.2147643 360.558877,89.3758389 C360.392813,89.5369136 360.190219,89.6174497 359.951087,89.6174497 L353.813406,89.6174497 L353.813406,94.9932886 C353.813406,95.2483234 353.723733,95.4630864 353.544384,95.6375839 C353.365035,95.8120814 353.149156,95.8993289 352.896739,95.8993289 Z M366.347826,96 C365.763282,96 365.221923,95.8791958 364.723732,95.6375839 C364.225541,95.3959719 363.830315,95.0436265 363.538043,94.5805369 C363.245771,94.1174473 363.099638,93.5838956 363.099638,92.9798658 C363.099638,91.9865722 363.488221,91.1946338 364.265399,90.6040268 C365.042576,90.0134199 366.181756,89.7181208 367.682971,89.7181208 L370.094203,89.7181208 L370.094203,89.557047 C370.094203,88.6711365 369.878323,88.033559 369.446558,87.6442953 C369.014793,87.2550316 368.340584,87.0604027 367.423913,87.0604027 C366.91908,87.0604027 366.470715,87.1006707 366.078804,87.1812081 C365.686894,87.2617454 365.251814,87.3825495 364.773551,87.5436242 C364.66727,87.5704699 364.580918,87.5838926 364.514493,87.5838926 C364.315216,87.5838926 364.142513,87.5100679 363.996377,87.3624161 C363.850241,87.2147644 363.777174,87.0335581 363.777174,86.8187919 C363.777174,86.456374 363.949877,86.201343 364.29529,86.0536913 C365.424523,85.5704674 366.573666,85.3288591 367.742754,85.3288591 C368.659425,85.3288591 369.43327,85.5167766 370.064312,85.8926174 C370.695353,86.2684583 371.160325,86.7550306 371.459239,87.352349 C371.758154,87.9496674 371.907609,88.5973119 371.907609,89.295302 L371.907609,94.9932886 C371.907609,95.2483234 371.817936,95.4630864 371.638587,95.6375839 C371.459238,95.8120814 371.243359,95.8993289 370.990942,95.8993289 C370.738525,95.8993289 370.525967,95.8120814 370.353261,95.6375839 C370.180555,95.4630864 370.094203,95.2483234 370.094203,94.9932886 L370.094203,94.4697987 C369.111106,95.489938 367.862326,96 366.347826,96 Z M367.025362,94.3892617 C367.609906,94.3892617 368.174514,94.2449679 368.719203,93.9563758 C369.263892,93.6677838 369.72222,93.308727 370.094203,92.8791946 L370.094203,91.1879195 L367.922101,91.1879195 C365.916053,91.1879195 364.913043,91.7181155 364.913043,92.7785235 C364.913043,93.2617474 365.075783,93.6510052 365.401268,93.9463087 C365.726753,94.2416122 366.268112,94.3892617 367.025362,94.3892617 Z M380.177536,96 C378.875597,96 377.739739,95.489938 376.769928,94.4697987 L376.769928,94.9932886 C376.769928,95.2483234 376.680255,95.4630864 376.500906,95.6375839 C376.321557,95.8120814 376.105678,95.8993289 375.853261,95.8993289 C375.600844,95.8993289 375.388286,95.8120814 375.21558,95.6375839 C375.042874,95.4630864 374.956522,95.2483234 374.956522,94.9932886 L374.956522,81.9261745 C374.956522,81.6711397 375.042874,81.453021 375.21558,81.2718121 C375.388286,81.0906031 375.600844,81 375.853261,81 C376.118963,81 376.338163,81.0872474 376.51087,81.261745 C376.683576,81.4362425 376.769928,81.6577168 376.769928,81.9261745 L376.769928,86.8590604 C377.739739,85.8389211 378.875597,85.3288591 380.177536,85.3288591 C381.001212,85.3288591 381.781699,85.5402663 382.519022,85.9630872 C383.256344,86.3859082 383.854164,87.0033516 384.3125,87.8154362 C384.770836,88.6275208 385,89.5771758 385,90.6644295 C385,91.7516833 384.770836,92.7013382 384.3125,93.5134228 C383.854164,94.3255074 383.256344,94.9429509 382.519022,95.3657718 C381.781699,95.7885927 381.001212,96 380.177536,96 Z M379.918478,94.2885906 C380.901575,94.2885906 381.692026,93.9731575 382.289855,93.3422819 C382.887684,92.7114062 383.186594,91.8187977 383.186594,90.6644295 C383.186594,89.5100613 382.887684,88.6174528 382.289855,87.9865772 C381.692026,87.3557015 380.901575,87.0402685 379.918478,87.0402685 C379.307364,87.0402685 378.732793,87.177851 378.194746,87.4530201 C377.6567,87.7281893 377.181765,88.0939574 376.769928,88.5503356 L376.769928,92.7785235 C377.181765,93.2349016 377.6567,93.6006698 378.194746,93.8758389 C378.732793,94.1510081 379.307364,94.2885906 379.918478,94.2885906 Z" id="Fab" fill="#303131"></path>
                <path d="M354.891972,220.90113 C354.640897,220.90113 354.429469,220.815443 354.257681,220.644068 C354.085893,220.472692 354,220.261771 354,220.011299 L354,207.909605 C354,207.659132 354.085893,207.444916 354.257681,207.266949 C354.429469,207.088982 354.640897,207 354.891972,207 L362.602577,207 C362.840437,207 363.041955,207.082391 363.207136,207.247175 C363.372317,207.411959 363.454906,207.612993 363.454906,207.850282 C363.454906,208.087572 363.372317,208.28531 363.207136,208.443503 C363.041955,208.601696 362.840437,208.680791 362.602577,208.680791 L355.803766,208.680791 L355.803766,213.050847 L361.908821,213.050847 C362.146681,213.050847 362.348199,213.133238 362.51338,213.298023 C362.67856,213.462807 362.76115,213.663841 362.76115,213.90113 C362.76115,214.138419 362.67856,214.336157 362.51338,214.49435 C362.348199,214.652543 362.146681,214.731638 361.908821,214.731638 L355.803766,214.731638 L355.803766,220.011299 C355.803766,220.261771 355.71457,220.472692 355.536174,220.644068 C355.357779,220.815443 355.143047,220.90113 354.891972,220.90113 Z M370.372646,221 C369.421204,221 368.542455,220.789079 367.736373,220.367232 C366.93029,219.945384 366.286094,219.338987 365.803766,218.548023 C365.321438,217.757058 365.080278,216.827689 365.080278,215.759887 C365.080278,214.692085 365.321438,213.762716 365.803766,212.971751 C366.286094,212.180787 366.93029,211.57439 367.736373,211.152542 C368.542455,210.730695 369.421204,210.519774 370.372646,210.519774 C371.073013,210.519774 371.677566,210.608756 372.186323,210.786723 C372.69508,210.96469 373.16749,211.192089 373.603568,211.468927 C373.867857,211.640302 374,211.870997 374,212.161017 C374,212.358758 373.924018,212.540018 373.772052,212.704802 C373.620085,212.869587 373.444996,212.951977 373.246779,212.951977 C373.10142,212.951977 372.956063,212.91243 372.810704,212.833333 C372.374626,212.609227 372.001323,212.447741 371.690783,212.34887 C371.380243,212.25 370.993725,212.200565 370.531219,212.200565 C369.394775,212.200565 368.502811,212.526833 367.855302,213.179379 C367.207793,213.831924 366.884044,214.692085 366.884044,215.759887 C366.884044,216.827689 367.207793,217.68785 367.855302,218.340395 C368.502811,218.992941 369.394775,219.319209 370.531219,219.319209 C370.993725,219.319209 371.380243,219.269775 371.690783,219.170904 C372.001323,219.072033 372.374626,218.910547 372.810704,218.686441 C372.956063,218.607344 373.10142,218.567797 373.246779,218.567797 C373.444996,218.567797 373.620085,218.650187 373.772052,218.814972 C373.924018,218.979756 374,219.161016 374,219.358757 C374,219.648777 373.867857,219.879472 373.603568,220.050847 C373.16749,220.327685 372.69508,220.555084 372.186323,220.733051 C371.677566,220.911018 371.073013,221 370.372646,221 Z" id="Fcc" fill="#303131"></path>
                <g id="Rectangle" fill-rule="nonzero">
                    <use fill="#D8D8D8" xlink:href="#path-10"></use>
                    <use fill-opacity="0.5" fill="url(#linearGradient-6)" style="mix-blend-mode: soft-light;" xlink:href="#path-10"></use>
                </g>
                <g id="Rectangle" fill-rule="nonzero" transform="translate(44.000000, 91.000000) scale(-1, 1) translate(-44.000000, -91.000000) ">
                    <use fill="#D8D8D8" xlink:href="#path-12"></use>
                    <use fill-opacity="0.5" fill="url(#linearGradient-11)" style="mix-blend-mode: soft-light;" xlink:href="#path-12"></use>
                </g>
                <path d="M3.56704981,94 C2.43166738,94 1.36782105,93.777161 0.375478927,93.3314763 C0.268198697,93.2850508 0.178799847,93.2084499 0.107279693,93.1016713 C0.0357595402,92.9948927 0,92.8811519 0,92.7604457 C0,92.602599 0.0514043391,92.4656459 0.154214559,92.3495822 C0.25702478,92.2335185 0.388888084,92.1754875 0.549808429,92.1754875 C0.639208621,92.1754875 0.724137529,92.1940574 0.804597701,92.2311978 C1.62707946,92.6118868 2.50765814,92.8022284 3.44636015,92.8022284 C5.01086351,92.8022284 5.79310345,92.2683433 5.79310345,91.2005571 C5.79310345,90.9220042 5.69252974,90.6898802 5.49137931,90.5041783 C5.29022888,90.3184763 5.04214707,90.1722382 4.74712644,90.0654596 C4.4521058,89.958681 4.03193121,89.8310128 3.48659004,89.6824513 C2.76244849,89.4874642 2.17688602,89.2994438 1.72988506,89.1183844 C1.2828841,88.937325 0.898469042,88.66574 0.576628352,88.3036212 C0.254787663,87.9415024 0.0938697318,87.4586845 0.0938697318,86.8551532 C0.0938697318,86.3259026 0.227968008,85.8454061 0.496168582,85.413649 C0.764369157,84.981892 1.15995907,84.6383485 1.68295019,84.3830084 C2.20594131,84.1276682 2.83396824,84 3.56704981,84 C4.55045192,84 5.43997048,84.1532018 6.23563218,84.45961 C6.48595272,84.552461 6.61111111,84.7381602 6.61111111,85.0167131 C6.61111111,85.1652747 6.56194174,85.2999065 6.46360153,85.4206128 C6.36526132,85.5413191 6.23563299,85.6016713 6.07471264,85.6016713 C6.02107253,85.6016713 5.94955345,85.5831014 5.86015326,85.545961 C5.16283176,85.2952634 4.44317102,85.1699164 3.70114943,85.1699164 C2.99488791,85.1699164 2.4205003,85.3091908 1.97796935,85.5877437 C1.5354384,85.8662967 1.31417625,86.2562649 1.31417625,86.7576602 C1.31417625,87.0919237 1.41921989,87.3635087 1.62931034,87.5724234 C1.8394008,87.7813381 2.1031274,87.9438249 2.42049808,88.0598886 C2.73786876,88.1759523 3.16921822,88.298978 3.71455939,88.4289694 C4.4208209,88.6053862 4.99073857,88.7818004 5.4243295,88.9582173 C5.85792043,89.1346341 6.22892566,89.4085404 6.53735632,89.7799443 C6.84578698,90.1513482 7,90.6527359 7,91.2841226 C7,91.804088 6.85696184,92.2706572 6.57088123,92.683844 C6.28480061,93.0970308 5.88250579,93.4196831 5.36398467,93.6518106 C4.84546356,93.883938 4.24649126,94 3.56704981,94 Z M11.56,94 C10.9199968,94 10.3288916,93.8591209 9.78666667,93.5773585 C9.24444173,93.2955961 8.81111273,92.8905687 8.48666667,92.3622642 C8.1622206,91.8339596 8,91.2132111 8,90.5 C8,89.7867889 8.1622206,89.1660404 8.48666667,88.6377358 C8.81111273,88.1094313 9.24444173,87.7044039 9.78666667,87.4226415 C10.3288916,87.1408791 10.9199968,87 11.56,87 C12.0311135,87 12.4377761,87.0594334 12.78,87.1783019 C13.1222239,87.2971704 13.4399985,87.4490557 13.7333333,87.6339623 C13.911112,87.7484282 14,87.9025148 14,88.0962264 C14,88.2283025 13.9488894,88.3493705 13.8466667,88.459434 C13.7444439,88.5694974 13.6266673,88.6245283 13.4933333,88.6245283 C13.3955551,88.6245283 13.2977783,88.5981135 13.2,88.545283 C12.9066652,88.3955967 12.6555566,88.2877362 12.4466667,88.2216981 C12.2377767,88.15566 11.9777793,88.1226415 11.6666667,88.1226415 C10.9022184,88.1226415 10.3022244,88.3405639 9.86666667,88.7764151 C9.43110893,89.2122663 9.21333333,89.7867889 9.21333333,90.5 C9.21333333,91.2132111 9.43110893,91.7877337 9.86666667,92.2235849 C10.3022244,92.6594361 10.9022184,92.8773585 11.6666667,92.8773585 C11.9777793,92.8773585 12.2377767,92.84434 12.4466667,92.7783019 C12.6555566,92.7122638 12.9066652,92.6044033 13.2,92.454717 C13.2977783,92.4018865 13.3955551,92.3754717 13.4933333,92.3754717 C13.6266673,92.3754717 13.7444439,92.4305026 13.8466667,92.540566 C13.9488894,92.6506295 14,92.7716975 14,92.9037736 C14,93.0974852 13.911112,93.2515718 13.7333333,93.3660377 C13.4399985,93.5509443 13.1222239,93.7028296 12.78,93.8216981 C12.4377761,93.9405666 12.0311135,94 11.56,94 Z M16.6603774,94 C16.4744924,94 16.3179601,93.93836 16.1907757,93.8150782 C16.0635913,93.6917964 16,93.5400673 16,93.3598862 L16,84.6543385 C16,84.4741575 16.0635913,84.3200575 16.1907757,84.1920341 C16.3179601,84.0640107 16.4744924,84 16.6603774,84 L22.3689727,84 C22.5450743,84 22.6942691,84.0592692 22.8165618,84.1778094 C22.9388546,84.2963496 23,84.4409664 23,84.6116643 C23,84.7823622 22.9388546,84.9246083 22.8165618,85.0384068 C22.6942691,85.1522054 22.5450743,85.2091038 22.3689727,85.2091038 L17.3354298,85.2091038 L17.3354298,88.3527738 L21.8553459,88.3527738 C22.0314474,88.3527738 22.1806423,88.412043 22.302935,88.5305832 C22.4252277,88.6491234 22.4863732,88.7937403 22.4863732,88.9644381 C22.4863732,89.135136 22.4252277,89.2773821 22.302935,89.3911807 C22.1806423,89.5049792 22.0314474,89.5618777 21.8553459,89.5618777 L17.3354298,89.5618777 L17.3354298,93.3598862 C17.3354298,93.5400673 17.2693927,93.6917964 17.1373166,93.8150782 C17.0052404,93.93836 16.8462623,94 16.6603774,94 Z M26.4267782,94 C26.2510451,94 26.0899589,93.9528851 25.9435146,93.8586538 C25.7970704,93.7644226 25.6896796,93.6455135 25.6213389,93.5019231 L23.0732218,87.9019231 C23.024407,87.7942302 23,87.7000004 23,87.6192308 C23,87.4487171 23.0634582,87.3028852 23.1903766,87.1817308 C23.3172949,87.0605763 23.4734998,87 23.6589958,87 C23.7859142,87 23.9055085,87.0336535 24.0177824,87.1009615 C24.1300563,87.1682696 24.2105995,87.2512816 24.2594142,87.35 L26.5,92.5730769 L28.7405858,87.35 C28.7894005,87.2512816 28.8699437,87.1682696 28.9822176,87.1009615 C29.0944915,87.0336535 29.2140858,87 29.3410042,87 C29.5265002,87 29.6827051,87.0605763 29.8096234,87.1817308 C29.9365418,87.3028852 30,87.4487171 30,87.6192308 C30,87.7000004 29.975593,87.7942302 29.9267782,87.9019231 L27.3786611,93.5019231 C27.3103204,93.6455135 27.2029296,93.7644226 27.0564854,93.8586538 C26.9100411,93.9528851 26.7489549,94 26.5732218,94 L26.4267782,94 Z" id="ScFv" fill="#303131" fill-rule="nonzero"></path>
                <polygon id="Rectangle" fill="url(#linearGradient-13)" fill-rule="nonzero" points="182 131 187 131 187 154 182 154"></polygon>
                <polygon id="Rectangle" fill="url(#linearGradient-13)" fill-rule="nonzero" points="197 131 202 131 202 154 197 154"></polygon>
                <g id="Group" transform="translate(128.821591, 86.821591) rotate(45.000000) translate(-128.821591, -86.821591) translate(54.321591, 66.821591)" fill-rule="nonzero">
                    <polygon id="Polygon" stroke="url(#linearGradient-14)" stroke-width="6" opacity="0.2" transform="translate(19.807368, 19.807368) rotate(30.000000) translate(-19.807368, -19.807368) " points="19.8073684 5.30736835 33.5976878 15.3266219 28.3302545 31.5381148 11.2844822 31.5381148 6.01704887 15.3266219"></polygon>
                    <path d="M82.3073684,23.3073684 L82.3073684,31.3073684 L35.3083684,31.3063684 L42.4670115,24.8058895 L41.8043684,23.3063684 L82.3073684,23.3073684 Z M82.3073684,10.3073684 L82.3073684,18.3073684 L39.5973684,18.3063684 L36.0663684,10.3073684 L82.3073684,10.3073684 Z" id="Combined-Shape" fill="url(#linearGradient-15)"></path>
                    <polygon id="Shape" fill="url(#linearGradient-16)" points="81 10.31 140 10.31 146.5 10.31 148.365089 18.675089 140 18.31 81 18.31"></polygon>
                    <rect id="Rectangle" fill="url(#linearGradient-17)" x="81.3073684" y="23.3073684" width="52" height="8"></rect>
                </g>
                <g id="Group" transform="translate(185.000000, 211.500000) scale(-1, 1) rotate(270.000000) translate(-185.000000, -211.500000) translate(126.000000, 207.000000)" fill-rule="nonzero">
                    <polygon id="Combined-Shape" fill="url(#linearGradient-18)" points="0.746526302 0.307368355 53.3073684 0.307368355 53.3073684 8.30736835 0.746526302 8.30736835"></polygon>
                    <polygon id="Shape" fill="url(#linearGradient-19)" points="52 0.31 111 0.31 117.5 0.31 117.5 8.31 111 8.31 52 8.31"></polygon>
                </g>
                <g id="Group" transform="translate(198.000000, 211.500000) rotate(270.000000) translate(-198.000000, -211.500000) translate(139.000000, 207.000000)" fill-rule="nonzero">
                    <polygon id="Combined-Shape" fill="url(#linearGradient-18)" points="0.746526302 0.307368355 53.3073684 0.307368355 53.3073684 8.30736835 0.746526302 8.30736835"></polygon>
                    <polygon id="Shape" fill="url(#linearGradient-19)" points="52 0.31 111 0.31 117.5 0.31 117.5 8.31 111 8.31 52 8.31"></polygon>
                </g>
                <polygon id="Shape" fill="url(#linearGradient-20)" fill-rule="nonzero" transform="translate(222.598574, 111.726146) rotate(135.000000) translate(-222.598574, -111.726146) " points="190.607967 107.862072 249.277127 107.79578 255.895888 107.703641 254.30126 115.748651 247.850878 115.748651 189.30126 115.748651"></polygon>
                <path d="M87.02,15.08 C86.8173323,15.08 86.6466673,15.0106674 86.508,14.872 C86.3693326,14.7333326 86.3,14.5626677 86.3,14.36 L86.3,3.976 C86.3,3.77333232 86.3693326,3.60000072 86.508,3.456 C86.6466673,3.31199928 86.8173323,3.24 87.02,3.24 C87.2333344,3.24 87.4093326,3.30933264 87.548,3.448 C87.6866673,3.58666736 87.756,3.7626656 87.756,3.976 L87.756,14.36 C87.756,14.5626677 87.6840007,14.7333326 87.54,14.872 C87.3959993,15.0106674 87.2226677,15.08 87.02,15.08 Z M91.532,5.176 C91.3079989,5.176 91.1160008,5.0960008 90.956,4.936 C90.7959992,4.7759992 90.716,4.58400112 90.716,4.36 L90.716,4.296 C90.716,4.07199888 90.7959992,3.8800008 90.956,3.72 C91.1160008,3.5599992 91.3079989,3.48 91.532,3.48 L91.628,3.48 C91.8520011,3.48 92.0439992,3.5599992 92.204,3.72 C92.3640008,3.8800008 92.444,4.07199888 92.444,4.296 L92.444,4.36 C92.444,4.58400112 92.3640008,4.7759992 92.204,4.936 C92.0439992,5.0960008 91.8520011,5.176 91.628,5.176 L91.532,5.176 Z M91.564,15.08 C91.3613323,15.08 91.1906673,15.0106674 91.052,14.872 C90.9133326,14.7333326 90.844,14.5626677 90.844,14.36 L90.844,7.496 C90.844,7.29333232 90.9133326,7.12000072 91.052,6.976 C91.1906673,6.83199928 91.3613323,6.76 91.564,6.76 C91.7773344,6.76 91.9533326,6.82933264 92.092,6.968 C92.2306673,7.10666736 92.3,7.2826656 92.3,7.496 L92.3,14.36 C92.3,14.5626677 92.2280007,14.7333326 92.084,14.872 C91.9399993,15.0106674 91.7666677,15.08 91.564,15.08 Z M99.196,18.84 C98.5773302,18.84 97.9533365,18.7600008 97.324,18.6 C96.6946635,18.4399992 96.1773353,18.2426678 95.772,18.008 C95.579999,17.8906661 95.484,17.7040013 95.484,17.448 C95.484,17.2773325 95.5453327,17.125334 95.668,16.992 C95.7906673,16.858666 95.9426657,16.792 96.124,16.792 C96.2093337,16.792 96.3053328,16.8133331 96.412,16.856 C97.2226707,17.2613354 98.1026619,17.464 99.052,17.464 C100.684008,17.464 101.5,16.5946754 101.5,14.856 L101.5,13.784 C100.742663,14.5946707 99.830672,15 98.764,15 C98.1346635,15 97.5240029,14.8426682 96.932,14.528 C96.339997,14.2133318 95.8520019,13.7440031 95.468,13.12 C95.0839981,12.4959969 94.892,11.7360045 94.892,10.84 C94.892,9.94399552 95.0839981,9.18400312 95.468,8.56 C95.8520019,7.93599688 96.339997,7.46666824 96.932,7.152 C97.5240029,6.83733176 98.1346635,6.68 98.764,6.68 C99.830672,6.68 100.742663,7.08532928 101.5,7.896 L101.5,7.496 C101.5,7.29333232 101.569333,7.12000072 101.708,6.976 C101.846667,6.83199928 102.017332,6.76 102.22,6.76 C102.422668,6.76 102.595999,6.83199928 102.74,6.976 C102.884001,7.12000072 102.956,7.29333232 102.956,7.496 L102.956,14.648 C102.956,15.9920067 102.63067,17.026663 101.98,17.752 C101.32933,18.477337 100.401339,18.84 99.196,18.84 Z M99.068,13.672 C99.5693358,13.672 100.011998,13.5653344 100.396,13.352 C100.780002,13.1386656 101.147998,12.8506685 101.5,12.488 L101.5,9.192 C101.147998,8.82933152 100.780002,8.5413344 100.396,8.328 C100.011998,8.1146656 99.5693358,8.008 99.068,8.008 C98.267996,8.008 97.6146692,8.25066424 97.108,8.736 C96.6013308,9.22133576 96.348,9.92266208 96.348,10.84 C96.348,11.7573379 96.6013308,12.4586642 97.108,12.944 C97.6146692,13.4293358 98.267996,13.672 99.068,13.672 Z M106.764,15.08 C106.561332,15.08 106.390667,15.0106674 106.252,14.872 C106.113333,14.7333326 106.044,14.5626677 106.044,14.36 L106.044,3.976 C106.044,3.77333232 106.113333,3.60000072 106.252,3.456 C106.390667,3.31199928 106.561332,3.24 106.764,3.24 C106.966668,3.24 107.139999,3.31199928 107.284,3.456 C107.428001,3.60000072 107.5,3.77333232 107.5,3.976 L107.5,8.152 C107.905335,7.70399776 108.342664,7.346668 108.812,7.08 C109.281336,6.813332 109.835997,6.68 110.476,6.68 C111.06267,6.68 111.571998,6.81866528 112.004,7.096 C112.436002,7.37333472 112.766665,7.7519976 112.996,8.232 C113.225334,8.7120024 113.34,9.24 113.34,9.816 L113.34,14.36 C113.34,14.5626677 113.268001,14.7333326 113.124,14.872 C112.979999,15.0106674 112.806668,15.08 112.604,15.08 C112.401332,15.08 112.230667,15.0106674 112.092,14.872 C111.953333,14.7333326 111.884,14.5626677 111.884,14.36 L111.884,9.976 C111.884,8.67466016 111.297339,8.024 110.124,8.024 C109.590664,8.024 109.113335,8.16266528 108.692,8.44 C108.270665,8.71733472 107.873335,9.09066432 107.5,9.56 L107.5,14.36 C107.5,14.5626677 107.428001,14.7333326 107.284,14.872 C107.139999,15.0106674 106.966668,15.08 106.764,15.08 Z M118.972,15.16 C117.414659,15.16 116.636,14.456007 116.636,13.048 L116.636,8.088 L115.5,8.088 C115.414666,8.088 115.342667,8.05866696 115.284,8 C115.225333,7.94133304 115.196,7.86933376 115.196,7.784 C115.196,7.6773328 115.243999,7.58666704 115.34,7.512 L117.516,5.384 C117.612,5.28799952 117.702666,5.24 117.788,5.24 C117.873334,5.24 117.945333,5.27199968 118.004,5.336 C118.062667,5.40000032 118.092,5.47466624 118.092,5.56 L118.092,6.84 L119.9,6.84 C120.081334,6.84 120.230666,6.89866608 120.348,7.016 C120.465334,7.13333392 120.524,7.28266576 120.524,7.464 C120.524,7.63466752 120.465334,7.78133272 120.348,7.904 C120.230666,8.02666728 120.081334,8.088 119.9,8.088 L118.092,8.088 L118.092,12.92 C118.092,13.3360021 118.190666,13.5999994 118.388,13.712 C118.585334,13.8240006 118.833332,13.88 119.132,13.88 C119.292001,13.88 119.452,13.8620002 119.612,13.8260001 L119.772,13.784 C119.814667,13.7733333 119.86,13.7626667 119.908,13.752 C119.956,13.7413333 120.017333,13.736 120.092,13.736 C120.241334,13.736 120.374666,13.7919994 120.492,13.904 C120.609334,14.0160006 120.668,14.1519992 120.668,14.312 C120.668,14.5573346 120.545335,14.7439994 120.3,14.872 C119.883998,15.064001 119.441336,15.16 118.972,15.16 Z M131.324,15.16 C130.555996,15.16 129.84667,14.989335 129.196,14.648 C128.54533,14.306665 128.025335,13.8160032 127.636,13.176 C127.246665,12.5359968 127.052,11.7840043 127.052,10.92 C127.052,10.0559957 127.246665,9.3040032 127.636,8.664 C128.025335,8.0239968 128.54533,7.53333504 129.196,7.192 C129.84667,6.85066496 130.555996,6.68 131.324,6.68 C131.889336,6.68 132.377331,6.75199928 132.788,6.896 C133.198669,7.04000072 133.579998,7.22399888 133.932,7.448 C134.145334,7.58666736 134.252,7.77333216 134.252,8.008 C134.252,8.1680008 134.190667,8.314666 134.068,8.448 C133.945333,8.581334 133.804001,8.648 133.644,8.648 C133.526666,8.648 133.409334,8.61600032 133.292,8.552 C132.939998,8.37066576 132.638668,8.2400004 132.388,8.16 C132.137332,8.0799996 131.825335,8.04 131.452,8.04 C130.534662,8.04 129.814669,8.30399736 129.292,8.832 C128.769331,9.36000264 128.508,10.0559957 128.508,10.92 C128.508,11.7840043 128.769331,12.4799974 129.292,13.008 C129.814669,13.5360026 130.534662,13.8 131.452,13.8 C131.825335,13.8 132.137332,13.7600004 132.388,13.68 C132.588534,13.6159997 132.821493,13.5195738 133.086879,13.3907203 L133.292,13.288 C133.409334,13.2239997 133.526666,13.192 133.644,13.192 C133.804001,13.192 133.945333,13.258666 134.068,13.392 C134.190667,13.525334 134.252,13.6719992 134.252,13.832 C134.252,14.0666678 134.145334,14.2533326 133.932,14.392 C133.579998,14.6160011 133.198669,14.7999993 132.788,14.944 C132.377331,15.0880007 131.889336,15.16 131.324,15.16 Z M137.356,15.08 C137.153332,15.08 136.982667,15.0106674 136.844,14.872 C136.705333,14.7333326 136.636,14.5626677 136.636,14.36 L136.636,3.976 C136.636,3.77333232 136.705333,3.60000072 136.844,3.456 C136.982667,3.31199928 137.153332,3.24 137.356,3.24 C137.558668,3.24 137.731999,3.31199928 137.876,3.456 C138.020001,3.60000072 138.092,3.77333232 138.092,3.976 L138.092,8.152 C138.497335,7.70399776 138.934664,7.346668 139.404,7.08 C139.873336,6.813332 140.427997,6.68 141.068,6.68 C141.65467,6.68 142.163998,6.81866528 142.596,7.096 C143.028002,7.37333472 143.358666,7.7519976 143.588,8.232 C143.817334,8.7120024 143.932,9.24 143.932,9.816 L143.932,14.36 C143.932,14.5626677 143.860001,14.7333326 143.716,14.872 C143.571999,15.0106674 143.398668,15.08 143.196,15.08 C142.993332,15.08 142.822667,15.0106674 142.684,14.872 C142.545333,14.7333326 142.476,14.5626677 142.476,14.36 L142.476,9.976 C142.476,8.67466016 141.889339,8.024 140.716,8.024 C140.182664,8.024 139.705335,8.16266528 139.284,8.44 C138.862665,8.71733472 138.465335,9.09066432 138.092,9.56 L138.092,14.36 C138.092,14.5626677 138.020001,14.7333326 137.876,14.872 C137.731999,15.0106674 137.558668,15.08 137.356,15.08 Z M149.02,15.16 C148.550664,15.16 148.116002,15.064001 147.716,14.872 C147.315998,14.68 146.998668,14.4000018 146.764,14.032 C146.529332,13.6639982 146.412,13.2400024 146.412,12.76 C146.412,11.9706627 146.723997,11.3413357 147.348,10.872 C147.972003,10.4026643 148.886661,10.168 150.092,10.168 L152.028,10.168 L152.028,10.04 C152.028,9.33599648 151.854668,8.82933488 151.508,8.52 C151.161332,8.21066512 150.620004,8.056 149.884,8.056 C149.478665,8.056 149.118668,8.08799968 148.804,8.152 C148.489332,8.21600032 148.140002,8.31199936 147.756,8.44 C147.670666,8.46133344 147.601334,8.472 147.548,8.472 C147.387999,8.472 147.249334,8.41333392 147.132,8.296 C147.014666,8.17866608 146.956,8.03466752 146.956,7.864 C146.956,7.57599856 147.094665,7.37333392 147.372,7.256 C148.278671,6.87199808 149.201329,6.68 150.14,6.68 C150.876004,6.68 151.497331,6.82933184 152.004,7.128 C152.510669,7.42666816 152.883999,7.81333096 153.124,8.288 C153.364001,8.76266904 153.484,9.27733056 153.484,9.832 L153.484,14.36 C153.484,14.5626677 153.412,14.7333326 153.268,14.872 C153.123999,15.0106674 152.950668,15.08 152.748,15.08 C152.545332,15.08 152.374667,15.0106674 152.236,14.872 C152.097333,14.7333326 152.028,14.5626677 152.028,14.36 L152.028,13.944 C151.238663,14.7546707 150.236006,15.16 149.02,15.16 Z M149.564,13.88 C150.033336,13.88 150.486664,13.7653345 150.924,13.536 C151.361336,13.3066655 151.729332,13.021335 152.028,12.68 L152.028,11.336 L150.284,11.336 C148.673325,11.336 147.868,11.7573291 147.868,12.6 C147.868,12.9840019 147.998665,13.2933322 148.26,13.528 C148.521335,13.7626678 148.955997,13.88 149.564,13.88 Z M157.18,5.176 C156.955999,5.176 156.764001,5.0960008 156.604,4.936 C156.443999,4.7759992 156.364,4.58400112 156.364,4.36 L156.364,4.296 C156.364,4.07199888 156.443999,3.8800008 156.604,3.72 C156.764001,3.5599992 156.955999,3.48 157.18,3.48 L157.276,3.48 C157.500001,3.48 157.691999,3.5599992 157.852,3.72 C158.012001,3.8800008 158.092,4.07199888 158.092,4.296 L158.092,4.36 C158.092,4.58400112 158.012001,4.7759992 157.852,4.936 C157.691999,5.0960008 157.500001,5.176 157.276,5.176 L157.18,5.176 Z M157.212,15.08 C157.009332,15.08 156.838667,15.0106674 156.7,14.872 C156.561333,14.7333326 156.492,14.5626677 156.492,14.36 L156.492,7.496 C156.492,7.29333232 156.561333,7.12000072 156.7,6.976 C156.838667,6.83199928 157.009332,6.76 157.212,6.76 C157.425334,6.76 157.601333,6.82933264 157.74,6.968 C157.878667,7.10666736 157.948,7.2826656 157.948,7.496 L157.948,14.36 C157.948,14.5626677 157.876001,14.7333326 157.732,14.872 C157.587999,15.0106674 157.414668,15.08 157.212,15.08 Z M161.756,15.08 C161.553332,15.08 161.382667,15.0106674 161.244,14.872 C161.105333,14.7333326 161.036,14.5626677 161.036,14.36 L161.036,7.496 C161.036,7.29333232 161.105333,7.12000072 161.244,6.976 C161.382667,6.83199928 161.553332,6.76 161.756,6.76 C161.958668,6.76 162.131999,6.83199928 162.276,6.976 C162.420001,7.12000072 162.492,7.29333232 162.492,7.496 L162.492,8.152 C162.897335,7.70399776 163.334664,7.346668 163.804,7.08 C164.273336,6.813332 164.827997,6.68 165.468,6.68 C166.05467,6.68 166.563998,6.81866528 166.996,7.096 C167.428002,7.37333472 167.758666,7.7519976 167.988,8.232 C168.217334,8.7120024 168.332,9.23999712 168.332,9.816 L168.332,14.36 C168.332,14.5626677 168.260001,14.7333326 168.116,14.872 C167.971999,15.0106674 167.798668,15.08 167.596,15.08 C167.393332,15.08 167.222667,15.0106674 167.084,14.872 C166.945333,14.7333326 166.876,14.5626677 166.876,14.36 L166.876,9.976 C166.876,8.67466016 166.289339,8.024 165.116,8.024 C164.582664,8.024 164.105335,8.16266528 163.684,8.44 C163.262665,8.71733472 162.865335,9.09066432 162.492,9.56 L162.492,14.36 C162.492,14.5626677 162.420001,14.7333326 162.276,14.872 C162.131999,15.0106674 161.958668,15.08 161.756,15.08 Z M178.14,15.16 C177.670664,15.16 177.236002,15.064001 176.836,14.872 C176.435998,14.68 176.118668,14.4000018 175.884,14.032 C175.649332,13.6639982 175.532,13.2400024 175.532,12.76 C175.532,11.9706627 175.843997,11.3413357 176.468,10.872 C177.092003,10.4026643 178.006661,10.168 179.212,10.168 L181.148,10.168 L181.148,10.04 C181.148,9.33599648 180.974668,8.82933488 180.628,8.52 C180.281332,8.21066512 179.740004,8.056 179.004,8.056 C178.598665,8.056 178.238668,8.08799968 177.924,8.152 C177.609332,8.21600032 177.260002,8.31199936 176.876,8.44 C176.790666,8.46133344 176.721334,8.472 176.668,8.472 C176.507999,8.472 176.369334,8.41333392 176.252,8.296 C176.134666,8.17866608 176.076,8.03466752 176.076,7.864 C176.076,7.57599856 176.214665,7.37333392 176.492,7.256 C177.398671,6.87199808 178.321329,6.68 179.26,6.68 C179.996004,6.68 180.617331,6.82933184 181.124,7.128 C181.630669,7.42666816 182.003999,7.81333096 182.244,8.288 C182.484001,8.76266904 182.604,9.27733056 182.604,9.832 L182.604,14.36 C182.604,14.5626677 182.532,14.7333326 182.388,14.872 C182.243999,15.0106674 182.070668,15.08 181.868,15.08 C181.665332,15.08 181.494667,15.0106674 181.356,14.872 C181.217333,14.7333326 181.148,14.5626677 181.148,14.36 L181.148,13.944 C180.358663,14.7546707 179.356006,15.16 178.14,15.16 Z M178.684,13.88 C179.153336,13.88 179.606664,13.7653345 180.044,13.536 C180.481336,13.3066655 180.849332,13.021335 181.148,12.68 L181.148,11.336 L179.404,11.336 C177.793325,11.336 176.988,11.7573291 176.988,12.6 C176.988,12.9840019 177.118665,13.2933322 177.38,13.528 C177.641335,13.7626678 178.075997,13.88 178.684,13.88 Z M189.42,18.84 C188.80133,18.84 188.177336,18.7600008 187.548,18.6 C186.918664,18.4399992 186.401335,18.2426678 185.996,18.008 C185.803999,17.8906661 185.708,17.7040013 185.708,17.448 C185.708,17.2773325 185.769333,17.125334 185.892,16.992 C186.014667,16.858666 186.166666,16.792 186.348,16.792 C186.433334,16.792 186.529333,16.8133331 186.636,16.856 C187.446671,17.2613354 188.326662,17.464 189.276,17.464 C190.908008,17.464 191.724,16.5946754 191.724,14.856 L191.724,13.784 C190.966663,14.5946707 190.054672,15 188.988,15 C188.358664,15 187.748003,14.8426682 187.156,14.528 C186.563997,14.2133318 186.076002,13.7440031 185.692,13.12 C185.307998,12.4959969 185.116,11.7360045 185.116,10.84 C185.116,9.94399552 185.307998,9.18400312 185.692,8.56 C186.076002,7.93599688 186.563997,7.46666824 187.156,7.152 C187.748003,6.83733176 188.358664,6.68 188.988,6.68 C190.054672,6.68 190.966663,7.08532928 191.724,7.896 L191.724,7.496 C191.724,7.29333232 191.793333,7.12000072 191.932,6.976 C192.070667,6.83199928 192.241332,6.76 192.444,6.76 C192.646668,6.76 192.819999,6.83199928 192.964,6.976 C193.108001,7.12000072 193.18,7.29333232 193.18,7.496 L193.18,14.648 C193.18,15.9920067 192.85467,17.026663 192.204,17.752 C191.55333,18.477337 190.625339,18.84 189.42,18.84 Z M189.292,13.672 C189.793336,13.672 190.235998,13.5653344 190.62,13.352 C191.004002,13.1386656 191.371998,12.8506685 191.724,12.488 L191.724,9.192 C191.371998,8.82933152 191.004002,8.5413344 190.62,8.328 C190.235998,8.1146656 189.793336,8.008 189.292,8.008 C188.491996,8.008 187.838669,8.25066424 187.332,8.736 C186.825331,9.22133576 186.572,9.92266208 186.572,10.84 C186.572,11.7573379 186.825331,12.4586642 187.332,12.944 C187.838669,13.4293358 188.491996,13.672 189.292,13.672 Z M198.348,15.16 C197.878664,15.16 197.444002,15.064001 197.044,14.872 C196.643998,14.68 196.326668,14.4000018 196.092,14.032 C195.857332,13.6639982 195.74,13.2400024 195.74,12.76 C195.74,11.9706627 196.051997,11.3413357 196.676,10.872 C197.300003,10.4026643 198.214661,10.168 199.42,10.168 L201.356,10.168 L201.356,10.04 C201.356,9.33599648 201.182668,8.82933488 200.836,8.52 C200.489332,8.21066512 199.948004,8.056 199.212,8.056 C198.806665,8.056 198.446668,8.08799968 198.132,8.152 C197.817332,8.21600032 197.468002,8.31199936 197.084,8.44 C196.998666,8.46133344 196.929334,8.472 196.876,8.472 C196.715999,8.472 196.577334,8.41333392 196.46,8.296 C196.342666,8.17866608 196.284,8.03466752 196.284,7.864 C196.284,7.57599856 196.422665,7.37333392 196.7,7.256 C197.606671,6.87199808 198.529329,6.68 199.468,6.68 C200.204004,6.68 200.825331,6.82933184 201.332,7.128 C201.838669,7.42666816 202.211999,7.81333096 202.452,8.288 C202.692001,8.76266904 202.812,9.27733056 202.812,9.832 L202.812,14.36 C202.812,14.5626677 202.74,14.7333326 202.596,14.872 C202.451999,15.0106674 202.278668,15.08 202.076,15.08 C201.873332,15.08 201.702667,15.0106674 201.564,14.872 C201.425333,14.7333326 201.356,14.5626677 201.356,14.36 L201.356,13.944 C200.566663,14.7546707 199.564006,15.16 198.348,15.16 Z M198.892,13.88 C199.361336,13.88 199.814664,13.7653345 200.252,13.536 C200.689336,13.3066655 201.057332,13.021335 201.356,12.68 L201.356,11.336 L199.612,11.336 C198.001325,11.336 197.196,11.7573291 197.196,12.6 C197.196,12.9840019 197.326665,13.2933322 197.588,13.528 C197.849335,13.7626678 198.283997,13.88 198.892,13.88 Z M206.508,5.176 C206.283999,5.176 206.092001,5.0960008 205.932,4.936 C205.771999,4.7759992 205.692,4.58400112 205.692,4.36 L205.692,4.296 C205.692,4.07199888 205.771999,3.8800008 205.932,3.72 C206.092001,3.5599992 206.283999,3.48 206.508,3.48 L206.604,3.48 C206.828001,3.48 207.019999,3.5599992 207.18,3.72 C207.340001,3.8800008 207.42,4.07199888 207.42,4.296 L207.42,4.36 C207.42,4.58400112 207.340001,4.7759992 207.18,4.936 C207.019999,5.0960008 206.828001,5.176 206.604,5.176 L206.508,5.176 Z M206.54,15.08 C206.337332,15.08 206.166667,15.0106674 206.028,14.872 C205.889333,14.7333326 205.82,14.5626677 205.82,14.36 L205.82,7.496 C205.82,7.29333232 205.889333,7.12000072 206.028,6.976 C206.166667,6.83199928 206.337332,6.76 206.54,6.76 C206.753334,6.76 206.929333,6.82933264 207.068,6.968 C207.206667,7.10666736 207.276,7.2826656 207.276,7.496 L207.276,14.36 C207.276,14.5626677 207.204001,14.7333326 207.06,14.872 C206.915999,15.0106674 206.742668,15.08 206.54,15.08 Z M211.084,15.08 C210.881332,15.08 210.710667,15.0106674 210.572,14.872 C210.433333,14.7333326 210.364,14.5626677 210.364,14.36 L210.364,7.496 C210.364,7.29333232 210.433333,7.12000072 210.572,6.976 C210.710667,6.83199928 210.881332,6.76 211.084,6.76 C211.286668,6.76 211.459999,6.83199928 211.604,6.976 C211.748001,7.12000072 211.82,7.29333232 211.82,7.496 L211.82,8.152 C212.225335,7.70399776 212.662664,7.346668 213.132,7.08 C213.601336,6.813332 214.155997,6.68 214.796,6.68 C215.38267,6.68 215.891998,6.81866528 216.324,7.096 C216.756002,7.37333472 217.086666,7.7519976 217.316,8.232 C217.545334,8.7120024 217.66,9.23999712 217.66,9.816 L217.66,14.36 C217.66,14.5626677 217.588001,14.7333326 217.444,14.872 C217.299999,15.0106674 217.126668,15.08 216.924,15.08 C216.721332,15.08 216.550667,15.0106674 216.412,14.872 C216.273333,14.7333326 216.204,14.5626677 216.204,14.36 L216.204,9.976 C216.204,8.67466016 215.617339,8.024 214.444,8.024 C213.910664,8.024 213.433335,8.16266528 213.012,8.44 C212.590665,8.71733472 212.193335,9.09066432 211.82,9.56 L211.82,14.36 C211.82,14.5626677 211.748001,14.7333326 211.604,14.872 C211.459999,15.0106674 211.286668,15.08 211.084,15.08 Z M223.308,15.16 C222.241328,15.16 221.270671,14.9200024 220.396,14.44 C220.214666,14.3119994 220.124,14.1360011 220.124,13.912 C220.124,13.7413325 220.182666,13.5920006 220.3,13.464 C220.417334,13.3359994 220.566666,13.272 220.748,13.272 C220.844,13.272 220.94,13.2933331 221.036,13.336 C221.377335,13.4853341 221.718665,13.6026662 222.06,13.688 C222.401335,13.7733338 222.785331,13.816 223.212,13.816 C224.396006,13.816 224.988,13.4373371 224.988,12.68 C224.988,12.4346654 224.852001,12.2480006 224.58,12.12 C224.307999,11.9919994 223.86267,11.8480008 223.244,11.688 C222.614664,11.5386659 222.094669,11.3840008 221.684,11.224 C221.273331,11.0639992 220.921335,10.821335 220.628,10.496 C220.334665,10.170665 220.188,9.741336 220.188,9.208 C220.188,8.4613296 220.457331,7.85333568 220.996,7.384 C221.534669,6.91466432 222.305328,6.68 223.308,6.68 C224.129337,6.68 224.902663,6.813332 225.628,7.08 C225.777334,7.12266688 225.892,7.20266608 225.972,7.32 C226.052,7.43733392 226.092,7.55999936 226.092,7.688 C226.092,7.85866752 226.030667,8.00799936 225.908,8.136 C225.785333,8.26400064 225.633334,8.328 225.452,8.328 C225.398666,8.328 225.329334,8.31733344 225.244,8.296 C224.62533,8.10399904 224.017336,8.008 223.42,8.008 C222.843997,8.008 222.393335,8.11199896 222.068,8.32 C221.742665,8.52800104 221.58,8.79733168 221.58,9.128 C221.58,9.4480016 221.729332,9.68266592 222.028,9.832 C222.326668,9.98133408 222.790664,10.1253326 223.42,10.264 C224.049336,10.4240008 224.561331,10.5813326 224.956,10.736 C225.350669,10.8906674 225.689332,11.1333317 225.972,11.464 C226.254668,11.7946683 226.396,12.2373306 226.396,12.792 C226.396,13.4746701 226.126669,14.0399978 225.588,14.488 C225.049331,14.9360022 224.289338,15.16 223.308,15.16 Z M231.66,15.16 C230.102659,15.16 229.324,14.456007 229.324,13.048 L229.324,8.088 L228.188,8.088 C228.102666,8.088 228.030667,8.05866696 227.972,8 C227.913333,7.94133304 227.884,7.86933376 227.884,7.784 C227.884,7.6773328 227.932,7.58666704 228.028,7.512 L230.204,5.384 C230.3,5.28799952 230.390666,5.24 230.476,5.24 C230.561334,5.24 230.633333,5.27199968 230.692,5.336 C230.750667,5.40000032 230.78,5.47466624 230.78,5.56 L230.78,6.84 L232.588,6.84 C232.769334,6.84 232.918666,6.89866608 233.036,7.016 C233.153334,7.13333392 233.212,7.28266576 233.212,7.464 C233.212,7.63466752 233.153334,7.78133272 233.036,7.904 C232.918666,8.02666728 232.769334,8.088 232.588,8.088 L230.78,8.088 L230.78,12.92 C230.78,13.3360021 230.878666,13.5999994 231.076,13.712 C231.273334,13.8240006 231.521332,13.88 231.82,13.88 C231.980001,13.88 232.14,13.8620002 232.3,13.8260001 L232.46,13.784 C232.502667,13.7733333 232.548,13.7626667 232.596,13.752 C232.644,13.7413333 232.705333,13.736 232.78,13.736 C232.929334,13.736 233.062666,13.7919994 233.18,13.904 C233.297334,14.0160006 233.356,14.1519992 233.356,14.312 C233.356,14.5573346 233.233335,14.7439994 232.988,14.872 C232.571998,15.064001 232.129336,15.16 231.66,15.16 Z M245.468,15.16 C244.369328,15.16 243.393338,14.9173358 242.54,14.432 C241.686662,13.9466642 241.025336,13.2693377 240.556,12.4 C240.086664,11.5306623 239.852,10.5413389 239.852,9.432 C239.852,8.30132768 240.097331,7.29867104 240.588,6.424 C241.078669,5.54932896 241.747996,4.8720024 242.596,4.392 C243.444004,3.9119976 244.385328,3.672 245.42,3.672 C246.252004,3.672 246.979997,3.77333232 247.604,3.976 C248.103203,4.13813414 248.587039,4.35146583 249.055519,4.6159994 L249.404,4.824 C249.489334,4.86666688 249.564,4.9413328 249.628,5.048 C249.692,5.1546672 249.724,5.27199936 249.724,5.4 C249.724,5.58133424 249.662667,5.73599936 249.54,5.864 C249.417333,5.99200064 249.254668,6.056 249.052,6.056 C248.934666,6.056 248.822667,6.0293336 248.716,5.976 C248.214664,5.67733184 247.713336,5.45333408 247.212,5.304 C246.710664,5.15466592 246.16667,5.08 245.58,5.08 C244.769329,5.08 244.03867,5.25066496 243.388,5.592 C242.73733,5.93333504 242.228002,6.43199672 241.86,7.088 C241.491998,7.74400328 241.308,8.5253288 241.308,9.432 C241.308,10.2640042 241.481332,11.0079967 241.828,11.664 C242.174668,12.3200033 242.675997,12.8373314 243.332,13.216 C243.988003,13.5946686 244.763996,13.784 245.66,13.784 C246.662672,13.784 247.595996,13.5493357 248.46,13.08 L248.46,10.184 L245.82,10.184 C245.638666,10.184 245.484001,10.1200006 245.356,9.992 C245.227999,9.86399936 245.164,9.70933424 245.164,9.528 C245.164,9.34666576 245.227999,9.19200064 245.356,9.064 C245.484001,8.93599936 245.638666,8.872 245.82,8.872 L248.972,8.872 C249.185334,8.872 249.366666,8.94666592 249.516,9.096 C249.665334,9.24533408 249.74,9.4266656 249.74,9.64 L249.74,13.272 C249.74,13.4960011 249.684001,13.6959991 249.572,13.872 C249.459999,14.0480009 249.313334,14.1786662 249.132,14.264 C247.937327,14.8613363 246.716006,15.16 245.468,15.16 Z M253.916,15.08 C253.713332,15.08 253.542667,15.0106674 253.404,14.872 C253.265333,14.7333326 253.196,14.5626677 253.196,14.36 L253.196,4.568 C253.196,4.36533232 253.265333,4.19200072 253.404,4.048 C253.542667,3.90399928 253.713332,3.832 253.916,3.832 L257.564,3.832 C258.577338,3.832 259.403997,4.00266496 260.044,4.344 C260.684003,4.68533504 261.142665,5.122664 261.42,5.656 C261.697335,6.189336 261.836,6.76533024 261.836,7.384 C261.836,8.00266976 261.697335,8.578664 261.42,9.112 C261.142665,9.645336 260.684003,10.082665 260.044,10.424 C259.403997,10.765335 258.577338,10.936 257.564,10.936 L254.652,10.936 L254.652,14.36 C254.652,14.5626677 254.580001,14.7333326 254.436,14.872 C254.291999,15.0106674 254.118668,15.08 253.916,15.08 Z M257.42,9.56 C258.508005,9.56 259.273331,9.35200208 259.716,8.936 C260.158669,8.51999792 260.38,8.00266976 260.38,7.384 C260.38,6.76533024 260.158669,6.24800208 259.716,5.832 C259.273331,5.41599792 258.508005,5.208 257.42,5.208 L254.652,5.208 L254.652,9.56 L257.42,9.56 Z M263.772,15.08 C263.558666,15.08 263.385334,15.0106674 263.252,14.872 C263.118666,14.7333326 263.052,14.5626677 263.052,14.36 C263.052,14.2746662 263.078666,14.1680006 263.132,14.04 L267.212,4.408 C267.297334,4.21599904 267.417333,4.05866728 267.572,3.936 C267.726667,3.81333272 267.915999,3.752 268.14,3.752 L268.3,3.752 C268.524001,3.752 268.713333,3.81333272 268.868,3.936 C269.022667,4.05866728 269.142666,4.21599904 269.228,4.408 L273.308,14.04 C273.361334,14.1680006 273.388,14.2746662 273.388,14.36 C273.388,14.5626677 273.321334,14.7333326 273.188,14.872 C273.054666,15.0106674 272.881334,15.08 272.668,15.08 C272.518666,15.08 272.382667,15.0400004 272.26,14.96 C272.137333,14.8799996 272.044,14.7706674 271.98,14.632 L270.94,12.136 L265.5,12.136 L264.46,14.632 C264.396,14.7706674 264.302667,14.8799996 264.18,14.96 C264.057333,15.0400004 263.921334,15.08 263.772,15.08 Z M266.06,10.808 L270.38,10.808 L268.22,5.608 L266.06,10.808 Z M279.452,15.16 C278.267994,15.16 277.153339,14.9466688 276.108,14.52 C275.979999,14.4666664 275.878667,14.3893338 275.804,14.288 C275.729333,14.1866662 275.692,14.0613341 275.692,13.912 C275.692,13.7306658 275.753333,13.573334 275.876,13.44 C275.998667,13.306666 276.150666,13.24 276.332,13.24 C276.428001,13.24 276.529333,13.2613331 276.636,13.304 C277.404004,13.6133349 278.251995,13.768 279.18,13.768 C280.012004,13.768 280.713331,13.6320014 281.284,13.36 C281.85467,13.0879986 282.14,12.6320032 282.14,11.992 C282.14,10.6959935 281.044031,10.0248567 278.852062,9.9785714 L278.348,9.976 C278.166666,9.976 278.009334,9.909334 277.876,9.776 C277.742666,9.642666 277.676,9.48533424 277.676,9.304 C277.676,9.12266576 277.742666,8.965334 277.876,8.832 C278.009334,8.698666 278.166666,8.632 278.348,8.632 L278.444,8.632 C279.510672,8.632 280.326664,8.46933496 280.892,8.144 C281.457336,7.81866504 281.74,7.3360032 281.74,6.696 C281.74,6.18399744 281.526669,5.77866816 281.1,5.48 C280.673331,5.18133184 280.044004,5.032 279.212,5.032 C278.315996,5.032 277.489337,5.20799824 276.732,5.56 C276.625333,5.60266688 276.529334,5.624 276.444,5.624 C276.283999,5.624 276.145334,5.56800056 276.028,5.456 C275.910666,5.34399944 275.852,5.20266752 275.852,5.032 C275.852,4.78666544 275.958666,4.60533392 276.172,4.488 C277.196005,3.94399728 278.251995,3.672 279.34,3.672 C280.566673,3.672 281.515997,3.92266416 282.188,4.424 C282.860003,4.92533584 283.196,5.63466208 283.196,6.552 C283.196,7.28800368 283.012002,7.86666456 282.644,8.288 C282.275998,8.70933544 281.814669,9.02133232 281.26,9.224 C281.868003,9.36266736 282.409331,9.65333112 282.884,10.096 C283.358669,10.5386689 283.596,11.197329 283.596,12.072 C283.596,13.0533382 283.209337,13.8133306 282.436,14.352 C281.662663,14.8906694 280.668006,15.16 279.452,15.16 Z M290.06,15.16 C288.875994,15.16 287.761339,14.9466688 286.716,14.52 C286.587999,14.4666664 286.486667,14.3893338 286.412,14.288 C286.337333,14.1866662 286.3,14.0613341 286.3,13.912 C286.3,13.7306658 286.361333,13.573334 286.484,13.44 C286.606667,13.306666 286.758666,13.24 286.94,13.24 C287.036001,13.24 287.137333,13.2613331 287.244,13.304 C288.012004,13.6133349 288.859995,13.768 289.788,13.768 C290.620004,13.768 291.321331,13.6320014 291.892,13.36 C292.46267,13.0879986 292.748,12.6320032 292.748,11.992 C292.748,10.6959935 291.652031,10.0248567 289.460062,9.9785714 L288.956,9.976 C288.774666,9.976 288.617334,9.909334 288.484,9.776 C288.350666,9.642666 288.284,9.48533424 288.284,9.304 C288.284,9.12266576 288.350666,8.965334 288.484,8.832 C288.617334,8.698666 288.774666,8.632 288.956,8.632 L289.052,8.632 C290.118672,8.632 290.934664,8.46933496 291.5,8.144 C292.065336,7.81866504 292.348,7.3360032 292.348,6.696 C292.348,6.18399744 292.134669,5.77866816 291.708,5.48 C291.281331,5.18133184 290.652004,5.032 289.82,5.032 C288.923996,5.032 288.097337,5.20799824 287.34,5.56 C287.233333,5.60266688 287.137334,5.624 287.052,5.624 C286.891999,5.624 286.753334,5.56800056 286.636,5.456 C286.518666,5.34399944 286.46,5.20266752 286.46,5.032 C286.46,4.78666544 286.566666,4.60533392 286.78,4.488 C287.804005,3.94399728 288.859995,3.672 289.948,3.672 C291.174673,3.672 292.123997,3.92266416 292.796,4.424 C293.468003,4.92533584 293.804,5.63466208 293.804,6.552 C293.804,7.28800368 293.620002,7.86666456 293.252,8.288 C292.883998,8.70933544 292.422669,9.02133232 291.868,9.224 C292.476003,9.36266736 293.017331,9.65333112 293.492,10.096 C293.966669,10.5386689 294.204,11.197329 294.204,12.072 C294.204,13.0533382 293.817337,13.8133306 293.044,14.352 C292.270663,14.8906694 291.276006,15.16 290.06,15.16 Z" id="lightchainagainstGPA33" fill="#484848" fill-rule="nonzero"></path>
            </g>
        </g>
    </g>
</svg>