<?xml version="1.0" encoding="UTF-8"?>
<svg width="77px" height="93px" viewBox="0 0 77 93" version="1.1" xmlns="http://www.w3.org/2000/svg" xmlns:xlink="http://www.w3.org/1999/xlink">
    <!-- Generator: Sketch 59 (86127) - https://sketch.com -->
    <title>allergen copy</title>
    <desc>Created with Sketch.</desc>
    <defs>
        <linearGradient x1="20.6455992%" y1="0%" x2="77.6313784%" y2="96.1135196%" id="linearGradient-1">
            <stop stop-color="#DF0612" offset="0%"></stop>
            <stop stop-color="#F9B368" offset="100%"></stop>
        </linearGradient>
    </defs>
    <g id="Symbols" stroke="none" stroke-width="1" fill="none" fill-rule="evenodd">
        <g id="Artboard-Copy" transform="translate(-427.000000, -847.000000)" fill="url(#linearGradient-1)" fill-rule="nonzero">
            <g id="Group-4" transform="translate(436.000000, 856.000000)">
                <path d="M29,0 C29.8131717,0 30.5898737,0.338085937 31.1442424,0.933691406 C31.448303,1.26049805 38.6723788,9.04760742 45.5844848,18.6496582 C46.5296212,19.9627441 46.2315657,21.7936523 44.9186566,22.7390625 C43.605601,23.6846191 41.7752323,23.386377 40.829803,22.073291 C36.366,15.872168 31.668,10.3447266 29.0153788,7.33095703 C26.582601,10.1296875 22.4167071,15.0725098 18.292702,20.6664551 C10.2744949,31.542627 5.85858586,40.2291504 5.85858586,45.1259766 L5.85858586,45.9268066 C5.85858586,58.7270508 16.2398535,69.140918 29,69.140918 C36.2422298,69.140918 42.7181477,65.7863298 46.9646685,60.5447475 C48.1115048,59.12918 49.0957399,57.5759845 49.8885551,55.9140685 C50.3095829,54.7956644 51.3893728,54 52.655,54 C54.2870014,54 55.61,55.3229986 55.61,56.955 C55.61,57.5913963 55.3422243,58.5177028 55,59 C54.0229882,61.0015775 52.8898168,62.5378799 51.4998702,64.2500315 C46.1780978,70.8054494 38.0684827,75 29,75 C13.0092828,75 -8.52651283e-14,61.9577637 -8.52651283e-14,45.9265137 L-8.52651283e-14,45.1256836 C-8.52651283e-14,38.8012207 4.57819192,29.3881348 13.6074444,17.1479004 C20.1419646,8.28969727 26.5688333,1.24716797 26.8390606,0.951708984 C27.3912323,0.348486328 28.1701313,0.003515625 28.987697,0 L29,0 Z M29.0104076,20.267767 L40.6770873,31.9340873 L52.3449314,20.267767 C53.5165043,19.0961941 55.4159992,19.0961941 56.5875721,20.267767 C57.759145,21.4393398 57.759145,23.3388348 56.5875721,24.5104076 L44.9200873,36.1770873 L56.5875721,47.8449314 C57.759145,49.0165043 57.759145,50.9159992 56.5875721,52.0875721 C55.4159992,53.259145 53.5165043,53.259145 52.3449314,52.0875721 L40.6770873,40.4200873 L29.0104076,52.0875721 C27.8388348,53.259145 25.9393398,53.259145 24.767767,52.0875721 C23.5961941,50.9159992 23.5961941,49.0165043 24.767767,47.8449314 L36.4340873,36.1770873 L24.767767,24.5104076 C23.5961941,23.3388348 23.5961941,21.4393398 24.767767,20.267767 C25.9393398,19.0961941 27.8388348,19.0961941 29.0104076,20.267767 Z" id="Combined-Shape"></path>
            </g>
        </g>
    </g>
</svg>