<?xml version="1.0" encoding="UTF-8"?>
<svg width="12px" height="8px" viewBox="0 0 12 8" version="1.1" xmlns="http://www.w3.org/2000/svg" xmlns:xlink="http://www.w3.org/1999/xlink">
    <!-- Generator: Sketch 55.1 (78136) - https://sketchapp.com -->
    <title>dropdown</title>
    <desc>Created with Sketch.</desc>
    <g id="dropdown" stroke="none" stroke-width="1" fill="none" fill-rule="evenodd">
        <g id="Group" transform="translate(0.900000, 0.700000)" fill="#FFFFFF">
            <path d="M2.56066017,0.439339828 L6.09619408,3.97487373 C6.68198052,4.56066017 6.68198052,5.51040764 6.09619408,6.09619408 C5.51040764,6.68198052 4.56066017,6.68198052 3.97487373,6.09619408 L0.439339828,2.56066017 C-0.146446609,1.97487373 -0.146446609,1.02512627 0.439339828,0.439339828 C1.02512627,-0.146446609 1.97487373,-0.146446609 2.56066017,0.439339828 Z" id="Rectangle"></path>
            <path d="M4.02842712,3.97487373 L7.56396103,0.439339828 C8.14974747,-0.146446609 9.09949494,-0.146446609 9.68528137,0.439339828 C10.2710678,1.02512627 10.2710678,1.97487373 9.68528137,2.56066017 L6.14974747,6.09619408 C5.56396103,6.68198052 4.61421356,6.68198052 4.02842712,6.09619408 C3.44264069,5.51040764 3.44264069,4.56066017 4.02842712,3.97487373 Z" id="Rectangle"></path>
        </g>
    </g>
</svg>