<?xml version="1.0" encoding="UTF-8"?>
<svg width="39px" height="39px" viewBox="0 0 39 39" version="1.1" xmlns="http://www.w3.org/2000/svg" xmlns:xlink="http://www.w3.org/1999/xlink">
    <!-- Generator: Sketch 59 (86127) - https://sketch.com -->
    <title>Facebook</title>
    <desc>Created with Sketch.</desc>
    <g id="Facebook" stroke="none" stroke-width="1" fill="none" fill-rule="evenodd">
        <g id="facebook-2" transform="translate(2.000000, 2.000000)" fill="#FFFFFF" fill-rule="nonzero">
            <path d="M29.8730469,0 L5.12695312,0 C2.30018619,0 0,2.30018619 0,5.12695312 L0,29.8730469 C0,32.6998138 2.30018619,35 5.12695312,35 L15.4492188,35 L15.4492188,22.6269531 L11.3476562,22.6269531 L11.3476562,16.4746094 L15.4492188,16.4746094 L15.4492188,12.3046875 C15.4492188,8.9120865 18.2089615,6.15234375 21.6015625,6.15234375 L27.8222656,6.15234375 L27.8222656,12.3046875 L21.6015625,12.3046875 L21.6015625,16.4746094 L27.8222656,16.4746094 L26.796875,22.6269531 L21.6015625,22.6269531 L21.6015625,35 L29.8730469,35 C32.6998138,35 35,32.6998138 35,29.8730469 L35,5.12695312 C35,2.30018619 32.6998138,0 29.8730469,0 Z" id="Path"></path>
        </g>
    </g>
</svg>