<?xml version="1.0" encoding="UTF-8"?>
<svg width="39px" height="39px" viewBox="0 0 39 39" version="1.1" xmlns="http://www.w3.org/2000/svg" xmlns:xlink="http://www.w3.org/1999/xlink">
    <!-- Generator: Sketch 59 (86127) - https://sketch.com -->
    <title>Instagram</title>
    <desc>Created with Sketch.</desc>
    <g id="Instagram" stroke="none" stroke-width="1" fill="none" fill-rule="evenodd">
        <path d="M2,12.6517516 C2.11812652,11.8211794 2.2081277,10.9858684 2.35827393,10.1613273 C3.20939079,5.49108192 6.53034787,2.31354019 11.2787756,2.15069984 C16.9960141,1.95511899 22.7305605,1.94477992 28.4469336,2.1498382 C33.6150784,2.33507998 37.3579159,6.14502834 37.5193123,11.2921635 C37.6910934,16.7576558 37.6910934,22.2365029 37.5193123,27.7019953 C37.3579159,32.8491305 33.6163765,36.6586481 28.4473663,36.8443205 C22.7309933,37.0498095 16.9951488,37.0549792 11.2792083,36.841305 C6.11019809,36.6478781 2.53697817,32.8293139 2.19125245,27.6744245 C2.16139632,27.2285519 2.06533742,26.7865565 2,26.342838 C2,21.7789989 2,17.2151598 2,12.6517516 Z M19.8288878,33.7938632 C22.4449798,33.7938632 25.063668,33.871837 27.6762985,33.7757698 C31.7726504,33.6245609 34.2922507,31.1905708 34.3878769,27.1161145 C34.5064362,22.039199 34.5064362,16.9553906 34.3878769,11.8780443 C34.2922507,7.80444954 31.7709195,5.31359451 27.6762985,5.2270048 C22.479163,5.117583 17.2764024,5.11844453 12.0792668,5.2270048 C8.01580014,5.31187133 5.4888439,7.7523233 5.37850588,11.7811154 C5.23831173,16.9222194 5.23831173,22.0723701 5.37850588,27.2134741 C5.4888439,31.2418354 8.01580014,33.6258533 12.0796996,33.7757698 C14.659445,33.8714063 17.2456808,33.7938632 19.8288878,33.7938632 L19.8288878,33.7938632 Z" id="Shape" fill="#FFFFFF" fill-rule="nonzero"></path>
        <path d="M19.5,10.4259259 C14.4888152,10.4259259 10.4259259,14.4884797 10.4259259,19.4997839 C10.4259259,24.5115204 14.4888152,28.5740741 19.5,28.5740741 C24.5116171,28.5740741 28.5740741,24.5115204 28.5740741,19.4997839 C28.5740741,14.4884797 24.5116171,10.4259259 19.5,10.4259259 Z M19.5,25.4498973 C16.2138141,25.4498973 13.5500283,22.786048 13.5500283,19.4997839 C13.5500283,16.2135198 16.2138141,13.5496705 19.5,13.5496705 C22.7861859,13.5496705 25.4499717,16.2135198 25.4499717,19.4997839 C25.4499717,22.786048 22.7861859,25.4498973 19.5,25.4498973 Z" id="Shape" fill="#FFFFFF" fill-rule="nonzero"></path>
        <path d="M31.8148148,10.1020789 C31.8148148,11.3547717 30.7992161,12.3703704 29.5465234,12.3703704 C28.2938307,12.3703704 27.2777778,11.3547717 27.2777778,10.1020789 C27.2777778,8.84893186 28.2938307,7.83333333 29.5465234,7.83333333 C30.7992161,7.83333333 31.8148148,8.84893186 31.8148148,10.1020789 Z" id="Path" fill="#FFFFFF" fill-rule="nonzero"></path>
    </g>
</svg>