<?xml version="1.0" encoding="UTF-8"?>
<svg width="77px" height="93px" viewBox="0 0 77 93" version="1.1" xmlns="http://www.w3.org/2000/svg" xmlns:xlink="http://www.w3.org/1999/xlink">
    <!-- Generator: Sketch 59 (86127) - https://sketch.com -->
    <title>no-allergen copy</title>
    <desc>Created with Sketch.</desc>
    <defs>
        <linearGradient x1="15.8311111%" y1="0%" x2="82.1632692%" y2="96.1135196%" id="linearGradient-1">
            <stop stop-color="#06DFA7" offset="0%"></stop>
            <stop stop-color="#BFF968" offset="100%"></stop>
        </linearGradient>
    </defs>
    <g id="Symbols" stroke="none" stroke-width="1" fill="none" fill-rule="evenodd">
        <g id="Artboard-Copy" transform="translate(-104.000000, -847.000000)" fill="url(#linearGradient-1)" fill-rule="nonzero">
            <g id="Group-3" transform="translate(112.000000, 856.000000)">
                <path d="M29,75 C13.0092828,75 0,61.9577637 0,45.9265137 L0,45.1256836 C0,38.8012207 4.57819192,29.3881348 13.6074444,17.1479004 C20.1419646,8.28969727 26.5688333,1.24716797 26.8390606,0.951708984 C27.3912323,0.348486328 28.1701313,0.003515625 28.987697,0 C28.991798,0 28.9960455,0 29,0 C29.8131717,0 30.5898737,0.338085937 31.1442424,0.933691406 C31.448303,1.26049805 38.6723788,9.04760742 45.5844848,18.6496582 C46.5296212,19.9627441 46.2315657,21.7936523 44.9186566,22.7390625 C43.605601,23.6846191 41.7752323,23.386377 40.829803,22.073291 C36.366,15.872168 31.668,10.3447266 29.0153788,7.33095703 C26.582601,10.1296875 22.4167071,15.0725098 18.292702,20.6664551 C10.2744949,31.542627 5.85858586,40.2291504 5.85858586,45.1259766 L5.85858586,45.9268066 C5.85858586,58.7270508 16.2398535,69.140918 29,69.140918 C41.7601465,69.140918 52.1414141,58.7271973 52.1414141,45.9268066 L52.1414141,45.1259766 C52.1414141,44.7789551 52.1302828,44.4682617 52.1071414,44.1760254 C51.9800101,42.5629395 53.1842424,41.1521484 54.7969646,41.025 C56.4117374,40.8987305 57.8204343,42.1022461 57.9477121,43.7151855 C57.9828636,44.1622559 58,44.6238281 58,45.126123 L58,45.9269531 C58,61.9577637 44.9907172,75 29,75 Z M35.1498874,51.9834174 C37.2725805,51.842194 39.2545417,50.8118847 40.5872679,49.1564324 C40.6256762,49.1086177 40.6626017,49.0597669 40.6980441,49.0097317 L61.4565112,19.6688633 C62.4014463,18.3333102 62.0827606,16.4858591 60.7448441,15.5425932 C59.4067793,14.5991793 57.556059,14.9174501 56.611124,16.2530033 L35.9186481,45.500907 C35.5200314,45.9583288 35.0226504,46.0575109 34.7555713,46.0751268 C34.4806326,46.0930388 33.951813,46.0585471 33.4857221,45.6227381 L24.0374098,36.4186422 C22.8649904,35.2764201 20.9872805,35.2996612 19.8433337,36.4697136 C18.6992386,37.6399139 18.722076,39.514307 19.8944954,40.6563811 L29.3586753,49.8760205 C29.367573,49.8846064 29.3763224,49.8931923 29.3853684,49.9016302 C30.8042539,51.2499142 32.6982763,52 34.6467228,52 C34.8142961,52 34.9821659,51.9946679 35.1498874,51.9834174 Z" id="Shape"></path>
            </g>
        </g>
    </g>
</svg>