<?xml version="1.0" encoding="UTF-8"?>
<svg width="1920px" height="100px" viewBox="0 0 1920 100" version="1.1" xmlns="http://www.w3.org/2000/svg" xmlns:xlink="http://www.w3.org/1999/xlink">
    <!-- Generator: Sketch 59 (86127) - https://sketch.com -->
    <title>Sticky Background blue</title>
    <desc>Created with Sketch.</desc>
    <defs>
        <filter x="-3.2%" y="-62.0%" width="106.4%" height="224.0%" filterUnits="objectBoundingBox" id="filter-1">
            <feOffset dx="0" dy="4" in="SourceAlpha" result="shadowOffsetOuter1"></feOffset>
            <feGaussianBlur stdDeviation="14" in="shadowOffsetOuter1" result="shadowBlurOuter1"></feGaussianBlur>
            <feColorMatrix values="0 0 0 0 0   0 0 0 0 0   0 0 0 0 0  0 0 0 0.404529065 0" type="matrix" in="shadowBlurOuter1" result="shadowMatrixOuter1"></feColorMatrix>
            <feMerge>
                <feMergeNode in="shadowMatrixOuter1"></feMergeNode>
                <feMergeNode in="SourceGraphic"></feMergeNode>
            </feMerge>
        </filter>
        <rect id="path-2" x="0" y="0" width="1926" height="100"></rect>
        <radialGradient cx="33.5772635%" cy="84.6140688%" fx="33.5772635%" fy="84.6140688%" r="180.156749%" gradientTransform="translate(0.335773,0.846141),scale(0.588021,1.000000),rotate(31.079149),translate(-0.335773,-0.846141)" id="radialGradient-4">
            <stop stop-color="#5CC9CC" offset="0%"></stop>
            <stop stop-color="#240A71" offset="100%"></stop>
        </radialGradient>
    </defs>
    <g id="Website" stroke="none" stroke-width="1" fill="none" fill-rule="evenodd">
        <g id="Sticky-Background-blue">
            <g id="Group" filter="url(#filter-1)">
                <g id="Rectangle-+-Symbols-Mask">
                    <mask id="mask-3" fill="white">
                        <use xlink:href="#path-2"></use>
                    </mask>
                    <use id="Mask" fill="#D8D8D8" xlink:href="#path-2"></use>
                    <path d="M0,0 L1920,0 L1920,1087.98183 C1600.82244,1051.44097 1280.65577,1036.60107 959.5,1043.46212 C638.344227,1050.32317 318.510893,1078.8358 0,1129 L0,0 Z" id="Rectangle" fill="url(#radialGradient-4)" mask="url(#mask-3)"></path>
                    <g id="Symbols" opacity="0.06" mask="url(#mask-3)" fill="#000000" fill-rule="nonzero">
                        <g transform="translate(0.000000, 2.000000)">
                            <path d="M1496.03466,89.0062174 L1503.00981,131.006217 L1464.00981,116.643535 L1496.03466,89.0062174 Z M1490.96485,103.132188 L1477.9255,114.102629 L1493.98432,120.016675 L1490.96485,103.132188 Z" id="Combined-Shape" style="mix-blend-mode: soft-light;" transform="translate(1483.509806, 110.006217) rotate(-78.000000) translate(-1483.509806, -110.006217) "></path>
                            <path d="M1511.53751,14.8841226 L1516.72415,45.8841226 L1487.72415,35.2830949 L1511.53751,14.8841226 Z M1507.76765,25.3104345 L1498.07172,33.4076644 L1510.01289,37.7727935 L1507.76765,25.3104345 Z" id="Combined-Shape" style="mix-blend-mode: soft-light;" transform="translate(1502.224152, 30.384123) rotate(-91.000000) translate(-1502.224152, -30.384123) "></path>
                            <path d="M1184.85015,50.6603371 L1189.50025,78.6603371 L1163.50025,69.0852153 L1184.85015,50.6603371 Z M1181.47028,60.077651 L1172.77737,67.3912781 L1183.48325,71.3339753 L1181.47028,60.077651 Z" id="Combined-Shape" style="mix-blend-mode: soft-light;" transform="translate(1176.500246, 64.660337) rotate(-270.000000) translate(-1176.500246, -64.660337) "></path>
                            <path d="M1120.35008,23.8499425 L1125.17902,52.8499425 L1098.17902,42.9328521 L1120.35008,23.8499425 Z M1116.84021,33.6035891 L1107.81296,41.1784171 L1118.93061,45.2619249 L1116.84021,33.6035891 Z" id="Combined-Shape" style="mix-blend-mode: soft-light;" transform="translate(1111.679022, 38.349943) rotate(-212.000000) translate(-1111.679022, -38.349943) "></path>
                            <path d="M827.351493,93.828717 L832.001588,120.828717 L806.001588,111.595564 L827.351493,93.828717 Z M823.971617,102.909698 L815.278714,109.962124 L825.984596,113.764011 L823.971617,102.909698 Z" id="Combined-Shape" style="mix-blend-mode: soft-light;" transform="translate(819.001588, 107.328717) rotate(-317.000000) translate(-819.001588, -107.328717) "></path>
                            <path d="M845.92118,50.8514417 L850.571274,78.8514417 L824.571274,69.2763199 L845.92118,50.8514417 Z M842.541304,60.2687556 L833.848401,67.5823827 L844.554283,71.5250799 L842.541304,60.2687556 Z" id="Combined-Shape" style="mix-blend-mode: soft-light;" transform="translate(837.571274, 64.851442) rotate(-111.000000) translate(-837.571274, -64.851442) "></path>
                            <path d="M716.486582,41.3614017 L720.778977,66.3614017 L696.778977,57.8121858 L716.486582,41.3614017 Z M713.366697,49.7697178 L705.342478,56.2997419 L715.224831,59.8200073 L713.366697,49.7697178 Z" id="Combined-Shape" style="mix-blend-mode: soft-light;" transform="translate(708.778977, 53.861402) rotate(-349.000000) translate(-708.778977, -53.861402) "></path>
                            <path d="M666.51212,31.3309355 L672.056463,64.3309355 L641.056463,53.0459705 L666.51212,31.3309355 Z M662.482268,42.4299127 L652.117652,51.0495445 L664.882358,55.6962948 L662.482268,42.4299127 Z" id="Combined-Shape" style="mix-blend-mode: soft-light;" transform="translate(656.556463, 47.830936) rotate(-23.000000) translate(-656.556463, -47.830936) "></path>
                            <path d="M577.786783,94.2363215 L582.973427,125.236321 L553.973427,114.635294 L577.786783,94.2363215 Z M574.016921,104.662633 L564.32099,112.759863 L576.262167,117.124992 L574.016921,104.662633 Z" id="Combined-Shape" style="mix-blend-mode: soft-light;" transform="translate(568.473427, 109.736321) rotate(-132.000000) translate(-568.473427, -109.736321) "></path>
                            <path d="M552.250715,42.1411737 L558.868157,81.1411737 L521.868157,67.8043969 L552.250715,42.1411737 Z M547.440892,55.2581467 L535.070221,65.4449843 L550.305516,70.9365983 L547.440892,55.2581467 Z" id="Combined-Shape" style="mix-blend-mode: soft-light;" transform="translate(540.368157, 61.641174) rotate(-342.000000) translate(-540.368157, -61.641174) "></path>
                            <path d="M458.353885,27.1334952 L463.00398,55.1334952 L437.00398,45.5583733 L458.353885,27.1334952 Z M454.974009,36.5508091 L446.281106,43.8644361 L456.986988,47.8071333 L454.974009,36.5508091 Z" id="Combined-Shape" style="mix-blend-mode: soft-light;" transform="translate(450.003980, 41.133495) rotate(-127.000000) translate(-450.003980, -41.133495) "></path>
                            <path d="M364.949271,92.2800567 L371.387864,130.280057 L335.387864,117.285248 L364.949271,92.2800567 Z M360.269443,105.060697 L348.233116,114.986334 L363.056645,120.337137 L360.269443,105.060697 Z" id="Combined-Shape" style="mix-blend-mode: soft-light;" transform="translate(353.387864, 111.280057) rotate(-197.000000) translate(-353.387864, -111.280057) "></path>
                            <path d="M290.464337,93.6457944 L296.902929,132.645794 L260.902929,119.309018 L290.464337,93.6457944 Z M285.784509,106.762767 L273.748181,116.949605 L288.57171,122.441219 L285.784509,106.762767 Z" id="Combined-Shape" style="mix-blend-mode: soft-light;" transform="translate(278.902929, 113.145794) rotate(-39.000000) translate(-278.902929, -113.145794) "></path>
                            <path d="M168.617057,15.2546207 L173.267152,43.2546207 L147.267152,33.6794989 L168.617057,15.2546207 Z M165.237181,24.6719346 L156.544278,31.9855617 L167.25016,35.9282589 L165.237181,24.6719346 Z" id="Combined-Shape" style="mix-blend-mode: soft-light;" transform="translate(160.267152, 29.254621) rotate(-238.000000) translate(-160.267152, -29.254621) "></path>
                            <path d="M1908.13188,36.4987837 C1914.20701,36.4987837 1919.13188,41.4236515 1919.13188,47.4987837 C1919.13188,53.573916 1914.20701,58.4987837 1908.13188,58.4987837 C1902.05675,58.4987837 1897.13188,53.573916 1897.13188,47.4987837 C1897.13188,41.4236515 1902.05675,36.4987837 1908.13188,36.4987837 Z M1908.13188,42.784498 C1905.52825,42.784498 1903.41759,44.8951556 1903.41759,47.4987837 C1903.41759,50.1024118 1905.52825,52.2130694 1908.13188,52.2130694 C1910.73551,52.2130694 1912.84616,50.1024118 1912.84616,47.4987837 C1912.84616,44.8951556 1910.73551,42.784498 1908.13188,42.784498 Z" id="Oval-2" style="mix-blend-mode: soft-light;" transform="translate(1908.131878, 47.498784) rotate(-299.000000) translate(-1908.131878, -47.498784) "></path>
                            <path d="M1787.83137,88.3887292 C1794.18264,88.3887292 1799.33137,93.5374546 1799.33137,99.8887292 C1799.33137,106.240004 1794.18264,111.388729 1787.83137,111.388729 C1781.48009,111.388729 1776.33137,106.240004 1776.33137,99.8887292 C1776.33137,93.5374546 1781.48009,88.3887292 1787.83137,88.3887292 Z M1787.83137,94.9601577 C1785.10939,94.9601577 1782.9028,97.1667543 1782.9028,99.8887292 C1782.9028,102.610704 1785.10939,104.817301 1787.83137,104.817301 C1790.55334,104.817301 1792.75994,102.610704 1792.75994,99.8887292 C1792.75994,97.1667543 1790.55334,94.9601577 1787.83137,94.9601577 Z" id="Oval-2" style="mix-blend-mode: soft-light;" transform="translate(1787.831369, 99.888729) rotate(-63.000000) translate(-1787.831369, -99.888729) "></path>
                            <path d="M1765.20482,49.6763349 C1770.17538,49.6763349 1774.20482,53.7057721 1774.20482,58.6763349 C1774.20482,63.6468976 1770.17538,67.6763349 1765.20482,67.6763349 C1760.23426,67.6763349 1756.20482,63.6468976 1756.20482,58.6763349 C1756.20482,53.7057721 1760.23426,49.6763349 1765.20482,49.6763349 Z M1765.20482,54.819192 C1763.07458,54.819192 1761.34768,56.5460937 1761.34768,58.6763349 C1761.34768,60.8065761 1763.07458,62.5334778 1765.20482,62.5334778 C1767.33506,62.5334778 1769.06196,60.8065761 1769.06196,58.6763349 C1769.06196,56.5460937 1767.33506,54.819192 1765.20482,54.819192 Z" id="Oval-2" style="mix-blend-mode: soft-light;" transform="translate(1765.204818, 58.676335) rotate(-19.000000) translate(-1765.204818, -58.676335) "></path>
                            <path d="M1663.53503,25.5358896 C1667.67716,25.5358896 1671.03503,28.893754 1671.03503,33.0358896 C1671.03503,37.1780252 1667.67716,40.5358896 1663.53503,40.5358896 C1659.39289,40.5358896 1656.03503,37.1780252 1656.03503,33.0358896 C1656.03503,28.893754 1659.39289,25.5358896 1663.53503,25.5358896 Z M1663.53503,29.8216039 C1661.75982,29.8216039 1660.32074,31.2606886 1660.32074,33.0358896 C1660.32074,34.8110906 1661.75982,36.2501753 1663.53503,36.2501753 C1665.31023,36.2501753 1666.74931,34.8110906 1666.74931,33.0358896 C1666.74931,31.2606886 1665.31023,29.8216039 1663.53503,29.8216039 Z" id="Oval-2" style="mix-blend-mode: soft-light;" transform="translate(1663.535026, 33.035890) rotate(-214.000000) translate(-1663.535026, -33.035890) "></path>
                            <path d="M948.224224,4 C954.299356,4 959.224224,8.92486775 959.224224,15 C959.224224,21.0751322 954.299356,26 948.224224,26 C942.149092,26 937.224224,21.0751322 937.224224,15 C937.224224,8.92486775 942.149092,4 948.224224,4 Z M948.224224,10.2857143 C945.620596,10.2857143 943.509938,12.3963719 943.509938,15 C943.509938,17.6036281 945.620596,19.7142857 948.224224,19.7142857 C950.827852,19.7142857 952.93851,17.6036281 952.93851,15 C952.93851,12.3963719 950.827852,10.2857143 948.224224,10.2857143 Z" id="Oval-2" style="mix-blend-mode: soft-light;" transform="translate(948.224224, 15.000000) rotate(-249.000000) translate(-948.224224, -15.000000) "></path>
                            <path d="M315.273832,16.0030483 C319.69211,16.0030483 323.273832,19.5847703 323.273832,24.0030483 C323.273832,28.4213263 319.69211,32.0030483 315.273832,32.0030483 C310.855554,32.0030483 307.273832,28.4213263 307.273832,24.0030483 C307.273832,19.5847703 310.855554,16.0030483 315.273832,16.0030483 Z M315.273832,20.5744769 C313.380284,20.5744769 311.84526,22.1095006 311.84526,24.0030483 C311.84526,25.896596 313.380284,27.4316197 315.273832,27.4316197 C317.167379,27.4316197 318.702403,25.896596 318.702403,24.0030483 C318.702403,22.1095006 317.167379,20.5744769 315.273832,20.5744769 Z" id="Oval-2" style="mix-blend-mode: soft-light;" transform="translate(315.273832, 24.003048) rotate(-206.000000) translate(-315.273832, -24.003048) "></path>
                            <path d="M219.61634,48.6052938 C225.41533,48.6052938 230.11634,53.3063039 230.11634,59.1052938 C230.11634,64.9042837 225.41533,69.6052938 219.61634,69.6052938 C213.81735,69.6052938 209.11634,64.9042837 209.11634,59.1052938 C209.11634,53.3063039 213.81735,48.6052938 219.61634,48.6052938 Z M219.61634,54.6052938 C217.131059,54.6052938 215.11634,56.6200124 215.11634,59.1052938 C215.11634,61.5905752 217.131059,63.6052938 219.61634,63.6052938 C222.101622,63.6052938 224.11634,61.5905752 224.11634,59.1052938 C224.11634,56.6200124 222.101622,54.6052938 219.61634,54.6052938 Z" id="Oval-2" style="mix-blend-mode: soft-light;" transform="translate(219.616340, 59.105294) rotate(-120.000000) translate(-219.616340, -59.105294) "></path>
                            <path d="M65.9283762,42.5735357 C70.6227965,42.5735357 74.4283762,46.3791153 74.4283762,51.0735357 C74.4283762,55.7679561 70.6227965,59.5735357 65.9283762,59.5735357 C61.2339558,59.5735357 57.4283762,55.7679561 57.4283762,51.0735357 C57.4283762,46.3791153 61.2339558,42.5735357 65.9283762,42.5735357 Z M65.9283762,47.4306786 C63.9164817,47.4306786 62.285519,49.0616413 62.285519,51.0735357 C62.285519,53.0854302 63.9164817,54.7163928 65.9283762,54.7163928 C67.9402706,54.7163928 69.5712333,53.0854302 69.5712333,51.0735357 C69.5712333,49.0616413 67.9402706,47.4306786 65.9283762,47.4306786 Z" id="Oval-2" style="mix-blend-mode: soft-light;" transform="translate(65.928376, 51.073536) rotate(-196.000000) translate(-65.928376, -51.073536) "></path>
                            <path d="M1586.51275,20.1938845 L1595.61217,40.9736493 L1578.9867,56.1938845 L1559.61217,44.8207422 L1564.26352,22.5715186 L1586.51275,20.1938845 Z M1582.7795,26.8353478 L1569.55023,28.2490763 L1566.78456,41.4783443 L1578.30455,48.2407532 L1588.18997,39.1908837 L1582.7795,26.8353478 Z" id="Polygon-2" style="mix-blend-mode: soft-light;" transform="translate(1577.612169, 38.193884) rotate(-161.000000) translate(-1577.612169, -38.193884) "></path>
                            <path d="M1413.28995,27.5971729 L1422.89489,48.9541534 L1405.34578,64.5971729 L1384.89489,52.90811 L1389.80465,30.0408524 L1413.28995,27.5971729 Z M1409.3493,34.4231213 L1395.38507,35.87612 L1392.46575,49.4728678 L1404.62574,56.4231213 L1415.06034,47.1218665 L1409.3493,34.4231213 Z" id="Polygon-2" style="mix-blend-mode: soft-light;" transform="translate(1403.894891, 46.097173) rotate(-56.000000) translate(-1403.894891, -46.097173) "></path>
                            <path d="M1323.32733,85.3560633 L1333.94332,109.599122 L1314.54694,127.356063 L1291.94332,114.087397 L1297.3699,88.1299698 L1323.32733,85.3560633 Z M1318.97187,93.1044372 L1303.53772,94.753787 L1300.31111,110.187933 L1313.7511,118.07741 L1325.28408,107.519229 L1318.97187,93.1044372 Z" id="Polygon-2" style="mix-blend-mode: soft-light;" transform="translate(1312.943319, 106.356063) rotate(-68.000000) translate(-1312.943319, -106.356063) "></path>
                            <path d="M1300.22639,45.2903555 L1309.32582,65.4929047 L1292.70034,80.2903555 L1273.32582,69.2331339 L1277.97717,47.6019443 L1300.22639,45.2903555 Z M1296.49315,51.7473338 L1283.26388,53.121792 L1280.49821,65.9835804 L1292.0182,72.5581446 L1301.90361,63.7596604 L1296.49315,51.7473338 Z" id="Polygon-2" style="mix-blend-mode: soft-light;" transform="translate(1291.325816, 62.790356) rotate(-242.000000) translate(-1291.325816, -62.790356) "></path>
                            <path d="M1225.7063,92.4111455 L1232.78363,107.995969 L1219.8527,119.411145 L1204.78363,110.881289 L1208.40135,94.1943711 L1225.7063,92.4111455 Z M1222.80266,97.392243 L1212.51323,98.4525393 L1210.36215,108.37449 L1219.32214,113.446297 L1227.0108,106.658895 L1222.80266,97.392243 Z" id="Polygon-2" style="mix-blend-mode: soft-light;" transform="translate(1218.783625, 105.911145) rotate(-185.000000) translate(-1218.783625, -105.911145) "></path>
                            <path d="M1008.12415,31.0670891 L1017.72909,52.4240696 L1000.17998,68.0670891 L979.729093,56.3780262 L984.638856,33.5107686 L1008.12415,31.0670891 Z M1004.1835,37.8930376 L990.21927,39.3460362 L987.299951,52.942784 L999.45994,59.8930376 L1009.89455,50.5917828 L1004.1835,37.8930376 Z" id="Polygon-2" style="mix-blend-mode: soft-light;" transform="translate(998.729093, 49.567089) rotate(-144.000000) translate(-998.729093, -49.567089) "></path>
                            <path d="M765.12817,81.9250061 L773.469307,100.395908 L758.229291,113.925006 L740.469307,103.815546 L744.733048,84.0384587 L765.12817,81.9250061 Z M761.706026,87.8285291 L749.579197,89.0851766 L747.043999,100.844526 L757.60399,106.855556 L766.665621,98.8112276 L761.706026,87.8285291 Z" id="Polygon-2" style="mix-blend-mode: soft-light;" transform="translate(756.969307, 97.925006) rotate(-225.000000) translate(-756.969307, -97.925006) "></path>
                        </g>
                    </g>
                </g>
            </g>
        </g>
    </g>
</svg>