<?xml version="1.0" encoding="UTF-8"?>
<svg width="39px" height="39px" viewBox="0 0 39 39" version="1.1" xmlns="http://www.w3.org/2000/svg" xmlns:xlink="http://www.w3.org/1999/xlink">
    <!-- Generator: Sketch 59 (86127) - https://sketch.com -->
    <title>twitter</title>
    <desc>Created with Sketch.</desc>
    <g id="twitter" stroke="none" stroke-width="1" fill="none" fill-rule="evenodd">
        <path d="M39,6.78830769 C37.5496875,7.43076923 36.0043125,7.85661538 34.393125,8.06338462 C36.050625,7.064 37.3156875,5.49353846 37.9104375,3.60061538 C36.3650625,4.53107692 34.6588125,5.18830769 32.8404375,5.55507692 C31.3730625,3.97723077 29.2816875,3 27.0001875,3 C22.5736875,3 19.0100625,6.62830769 19.0100625,11.0763077 C19.0100625,11.7163077 19.0636875,12.3316923 19.1953125,12.9175385 C12.54825,12.5901538 6.6665625,9.37292308 2.715375,4.472 C2.0255625,5.68061538 1.6209375,7.064 1.6209375,8.55323077 C1.6209375,11.3495385 3.046875,13.8283077 5.172375,15.2633846 C3.8878125,15.2387692 2.627625,14.8621538 1.56,14.2689231 C1.56,14.2935385 1.56,14.3255385 1.56,14.3575385 C1.56,18.2812308 4.3314375,21.5403077 7.96575,22.2910769 C7.3149375,22.4707692 6.605625,22.5569231 5.8695,22.5569231 C5.357625,22.5569231 4.840875,22.5273846 4.3558125,22.4190769 C5.39175,25.6166154 8.331375,27.9673846 11.82675,28.0436923 C9.1065,30.1926154 5.6525625,31.4873846 1.9134375,31.4873846 C1.25775,31.4873846 0.628875,31.4578462 0,31.3766154 C3.5416875,33.6830769 7.7390625,35 12.2655,35 C26.97825,35 35.022,22.6923077 35.022,12.024 C35.022,11.6670769 35.0098125,11.3224615 34.99275,10.9803077 C36.5795625,9.84307692 37.912875,8.42276923 39,6.78830769 Z" id="Path" fill="#FFFFFF" fill-rule="nonzero"></path>
    </g>
</svg>