<?xml version="1.0" encoding="UTF-8"?>
<svg width="39px" height="39px" viewBox="0 0 39 39" version="1.1" xmlns="http://www.w3.org/2000/svg" xmlns:xlink="http://www.w3.org/1999/xlink">
    <!-- Generator: Sketch 59 (86127) - https://sketch.com -->
    <title>youtube</title>
    <desc>Created with Sketch.</desc>
    <g id="youtube" stroke="none" stroke-width="1" fill="none" fill-rule="evenodd">
        <path d="M36.2787361,10.8345017 C37.0285467,13.5731263 37,19.2816205 37,19.2816205 C37,19.2816205 37,24.9610089 36.2790031,27.6999005 C35.8752589,29.1989877 34.6933993,30.3811143 33.194045,30.7845915 C30.4551534,31.5055633 19.4998539,31.5055633 19.4998539,31.5055633 C19.4998539,31.5055633 8.57312629,31.5055633 5.80566281,30.7560197 C4.30630855,30.3522755 3.12444894,29.1701488 2.72070476,27.6710616 C2,24.9610089 2,19.2527817 2,19.2527817 C2,19.2527817 2,13.5731263 2.72070476,10.8345017 C3.12418187,9.33541443 4.33514742,8.12444894 5.80539581,7.72097177 C8.54428742,7 19.4995869,7 19.4995869,7 C19.4995869,7 30.4551534,7 33.194045,7.74954363 C34.6931322,8.15328782 35.8752589,9.33514742 36.2787361,10.8345017 Z M16.0114187,24.4998539 L25.1215645,19.2527817 L16.0114187,14.0057093 L16.0114187,24.4998539 Z" id="Shape" fill="#FFFFFF" fill-rule="nonzero"></path>
    </g>
</svg>